G04 #@! TF.GenerationSoftware,KiCad,Pcbnew,6.0.11+dfsg-1*
G04 #@! TF.CreationDate,2023-04-22T14:08:22+02:00*
G04 #@! TF.ProjectId,ulx3s,756c7833-732e-46b6-9963-61645f706362,v3.1.8*
G04 #@! TF.SameCoordinates,Original*
G04 #@! TF.FileFunction,Soldermask,Top*
G04 #@! TF.FilePolarity,Negative*
%FSLAX46Y46*%
G04 Gerber Fmt 4.6, Leading zero omitted, Abs format (unit mm)*
G04 Created by KiCad (PCBNEW 6.0.11+dfsg-1) date 2023-04-22 14:08:22*
%MOMM*%
%LPD*%
G01*
G04 APERTURE LIST*
G04 Aperture macros list*
%AMRoundRect*
0 Rectangle with rounded corners*
0 $1 Rounding radius*
0 $2 $3 $4 $5 $6 $7 $8 $9 X,Y pos of 4 corners*
0 Add a 4 corners polygon primitive as box body*
4,1,4,$2,$3,$4,$5,$6,$7,$8,$9,$2,$3,0*
0 Add four circle primitives for the rounded corners*
1,1,$1+$1,$2,$3*
1,1,$1+$1,$4,$5*
1,1,$1+$1,$6,$7*
1,1,$1+$1,$8,$9*
0 Add four rect primitives between the rounded corners*
20,1,$1+$1,$2,$3,$4,$5,0*
20,1,$1+$1,$4,$5,$6,$7,0*
20,1,$1+$1,$6,$7,$8,$9,0*
20,1,$1+$1,$8,$9,$2,$3,0*%
G04 Aperture macros list end*
%ADD10C,0.120000*%
%ADD11C,1.800000*%
%ADD12RoundRect,0.050000X-1.400000X1.000000X-1.400000X-1.000000X1.400000X-1.000000X1.400000X1.000000X0*%
%ADD13RoundRect,0.050000X-1.400000X1.400000X-1.400000X-1.400000X1.400000X-1.400000X1.400000X1.400000X0*%
%ADD14RoundRect,0.050000X-1.400000X1.100000X-1.400000X-1.100000X1.400000X-1.100000X1.400000X1.100000X0*%
%ADD15C,0.500000*%
%ADD16O,0.608000X0.227000*%
%ADD17O,0.227000X0.608000*%
%ADD18C,5.600000*%
%ADD19O,1.827200X1.827200*%
%ADD20RoundRect,0.050000X-0.863600X0.863600X-0.863600X-0.863600X0.863600X-0.863600X0.863600X0.863600X0*%
%ADD21RoundRect,0.050000X0.863600X-0.863600X0.863600X0.863600X-0.863600X0.863600X-0.863600X-0.863600X0*%
%ADD22RoundRect,0.050000X0.863600X1.016000X-0.863600X1.016000X-0.863600X-1.016000X0.863600X-1.016000X0*%
%ADD23O,1.827200X2.132000*%
%ADD24RoundRect,0.050000X0.280000X-0.600000X0.280000X0.600000X-0.280000X0.600000X-0.280000X-0.600000X0*%
%ADD25O,0.660000X1.300000*%
%ADD26RoundRect,0.293750X-0.456250X0.243750X-0.456250X-0.243750X0.456250X-0.243750X0.456250X0.243750X0*%
%ADD27RoundRect,0.268750X0.256250X-0.218750X0.256250X0.218750X-0.256250X0.218750X-0.256250X-0.218750X0*%
%ADD28RoundRect,0.293750X0.456250X-0.243750X0.456250X0.243750X-0.456250X0.243750X-0.456250X-0.243750X0*%
%ADD29C,2.100000*%
%ADD30RoundRect,0.050000X0.150000X0.950000X-0.150000X0.950000X-0.150000X-0.950000X0.150000X-0.950000X0*%
%ADD31RoundRect,0.268750X-0.256250X0.218750X-0.256250X-0.218750X0.256250X-0.218750X0.256250X0.218750X0*%
%ADD32RoundRect,0.050000X0.850000X-0.850000X0.850000X0.850000X-0.850000X0.850000X-0.850000X-0.850000X0*%
%ADD33O,1.800000X1.800000*%
%ADD34RoundRect,0.050000X-0.647500X-0.700000X0.647500X-0.700000X0.647500X0.700000X-0.647500X0.700000X0*%
%ADD35RoundRect,0.050000X0.200000X0.675000X-0.200000X0.675000X-0.200000X-0.675000X0.200000X-0.675000X0*%
%ADD36RoundRect,0.050000X0.900000X0.950000X-0.900000X0.950000X-0.900000X-0.950000X0.900000X-0.950000X0*%
%ADD37RoundRect,0.050000X1.050000X0.800000X-1.050000X0.800000X-1.050000X-0.800000X1.050000X-0.800000X0*%
%ADD38RoundRect,0.050000X0.950000X0.950000X-0.950000X0.950000X-0.950000X-0.950000X0.950000X-0.950000X0*%
%ADD39RoundRect,0.050000X-0.850000X0.850000X-0.850000X-0.850000X0.850000X-0.850000X0.850000X0.850000X0*%
%ADD40RoundRect,0.050000X1.100000X0.900000X-1.100000X0.900000X-1.100000X-0.900000X1.100000X-0.900000X0*%
%ADD41RoundRect,0.050000X0.775000X0.650000X-0.775000X0.650000X-0.775000X-0.650000X0.775000X-0.650000X0*%
%ADD42RoundRect,0.050000X-0.775000X-0.650000X0.775000X-0.650000X0.775000X0.650000X-0.775000X0.650000X0*%
%ADD43RoundRect,0.050000X0.560000X-1.220000X0.560000X1.220000X-0.560000X1.220000X-0.560000X-1.220000X0*%
%ADD44RoundRect,0.050000X0.475000X0.150000X-0.475000X0.150000X-0.475000X-0.150000X0.475000X-0.150000X0*%
%ADD45O,1.050000X0.400000*%
%ADD46O,0.400000X1.050000*%
%ADD47RoundRect,0.050000X0.812500X0.812500X-0.812500X0.812500X-0.812500X-0.812500X0.812500X-0.812500X0*%
%ADD48RoundRect,0.225000X-0.175000X-0.575000X0.175000X-0.575000X0.175000X0.575000X-0.175000X0.575000X0*%
%ADD49RoundRect,0.300000X0.350000X-0.250000X0.350000X0.250000X-0.350000X0.250000X-0.350000X-0.250000X0*%
%ADD50RoundRect,0.275000X-0.500000X-0.225000X0.500000X-0.225000X0.500000X0.225000X-0.500000X0.225000X0*%
%ADD51RoundRect,0.275000X0.500000X-0.225000X0.500000X0.225000X-0.500000X0.225000X-0.500000X-0.225000X0*%
%ADD52RoundRect,0.387500X-0.437500X0.337500X-0.437500X-0.337500X0.437500X-0.337500X0.437500X0.337500X0*%
%ADD53RoundRect,0.342500X-0.292500X0.607500X-0.292500X-0.607500X0.292500X-0.607500X0.292500X0.607500X0*%
%ADD54RoundRect,0.387500X-0.612500X0.337500X-0.612500X-0.337500X0.612500X-0.337500X0.612500X0.337500X0*%
%ADD55RoundRect,0.412500X-0.362500X-0.637500X0.362500X-0.637500X0.362500X0.637500X-0.362500X0.637500X0*%
%ADD56RoundRect,0.300000X-0.350000X0.250000X-0.350000X-0.250000X0.350000X-0.250000X0.350000X0.250000X0*%
%ADD57RoundRect,0.250000X0.275000X-0.200000X0.275000X0.200000X-0.275000X0.200000X-0.275000X-0.200000X0*%
%ADD58RoundRect,0.050000X0.425000X-0.425000X0.425000X0.425000X-0.425000X0.425000X-0.425000X-0.425000X0*%
%ADD59O,0.950000X0.950000*%
G04 APERTURE END LIST*
D10*
X138480000Y-87600000D02*
X138480000Y-88000000D01*
X138280000Y-87800000D02*
X138680000Y-87800000D01*
X138480000Y-87600000D02*
X138480000Y-88000000D01*
X138280000Y-87800000D02*
X138680000Y-87800000D01*
D11*
X124468000Y-73600000D03*
X124468000Y-66600000D03*
D12*
X120668000Y-62700000D03*
D13*
X120668000Y-74900000D03*
D14*
X128268000Y-67400000D03*
X120668000Y-65500000D03*
D13*
X125218000Y-79000000D03*
D12*
X128268000Y-64600000D03*
D15*
X131680000Y-80200000D03*
X132480000Y-80200000D03*
X133280000Y-80200000D03*
X134080000Y-80200000D03*
X134880000Y-80200000D03*
X135680000Y-80200000D03*
X136480000Y-80200000D03*
X137280000Y-80200000D03*
X138080000Y-80200000D03*
X138880000Y-80200000D03*
X139680000Y-80200000D03*
X140480000Y-80200000D03*
X141280000Y-80200000D03*
X142080000Y-80200000D03*
X142880000Y-80200000D03*
X143680000Y-80200000D03*
X144480000Y-80200000D03*
X145280000Y-80200000D03*
X130880000Y-81000000D03*
X131680000Y-81000000D03*
X132480000Y-81000000D03*
X133280000Y-81000000D03*
X134080000Y-81000000D03*
X134880000Y-81000000D03*
X135680000Y-81000000D03*
X136480000Y-81000000D03*
X137280000Y-81000000D03*
X138080000Y-81000000D03*
X138880000Y-81000000D03*
X139680000Y-81000000D03*
X140480000Y-81000000D03*
X141280000Y-81000000D03*
X142080000Y-81000000D03*
X142880000Y-81000000D03*
X143680000Y-81000000D03*
X144480000Y-81000000D03*
X145280000Y-81000000D03*
X146080000Y-81000000D03*
X130880000Y-81800000D03*
X131680000Y-81800000D03*
X132480000Y-81800000D03*
X133280000Y-81800000D03*
X134080000Y-81800000D03*
X134880000Y-81800000D03*
X135680000Y-81800000D03*
X136480000Y-81800000D03*
X137280000Y-81800000D03*
X138080000Y-81800000D03*
X138880000Y-81800000D03*
X139680000Y-81800000D03*
X140480000Y-81800000D03*
X141280000Y-81800000D03*
X142080000Y-81800000D03*
X142880000Y-81800000D03*
X143680000Y-81800000D03*
X144480000Y-81800000D03*
X145280000Y-81800000D03*
X146080000Y-81800000D03*
X130880000Y-82600000D03*
X131680000Y-82600000D03*
X132480000Y-82600000D03*
X133280000Y-82600000D03*
X134080000Y-82600000D03*
X134880000Y-82600000D03*
X135680000Y-82600000D03*
X136480000Y-82600000D03*
X137280000Y-82600000D03*
X138080000Y-82600000D03*
X138880000Y-82600000D03*
X139680000Y-82600000D03*
X140480000Y-82600000D03*
X141280000Y-82600000D03*
X142080000Y-82600000D03*
X142880000Y-82600000D03*
X143680000Y-82600000D03*
X144480000Y-82600000D03*
X145280000Y-82600000D03*
X146080000Y-82600000D03*
X130880000Y-83400000D03*
X131680000Y-83400000D03*
X132480000Y-83400000D03*
X133280000Y-83400000D03*
X134080000Y-83400000D03*
X134880000Y-83400000D03*
X135680000Y-83400000D03*
X136480000Y-83400000D03*
X137280000Y-83400000D03*
X138080000Y-83400000D03*
X138880000Y-83400000D03*
X139680000Y-83400000D03*
X140480000Y-83400000D03*
X141280000Y-83400000D03*
X142080000Y-83400000D03*
X142880000Y-83400000D03*
X143680000Y-83400000D03*
X144480000Y-83400000D03*
X145280000Y-83400000D03*
X146080000Y-83400000D03*
X130880000Y-84200000D03*
X131680000Y-84200000D03*
X132480000Y-84200000D03*
X133280000Y-84200000D03*
X134080000Y-84200000D03*
X134880000Y-84200000D03*
X135680000Y-84200000D03*
X136480000Y-84200000D03*
X137280000Y-84200000D03*
X138080000Y-84200000D03*
X138880000Y-84200000D03*
X139680000Y-84200000D03*
X140480000Y-84200000D03*
X141280000Y-84200000D03*
X142080000Y-84200000D03*
X142880000Y-84200000D03*
X143680000Y-84200000D03*
X144480000Y-84200000D03*
X145280000Y-84200000D03*
X146080000Y-84200000D03*
X130880000Y-85000000D03*
X131680000Y-85000000D03*
X132480000Y-85000000D03*
X133280000Y-85000000D03*
X134080000Y-85000000D03*
X134880000Y-85000000D03*
X135680000Y-85000000D03*
X136480000Y-85000000D03*
X137280000Y-85000000D03*
X138080000Y-85000000D03*
X138880000Y-85000000D03*
X139680000Y-85000000D03*
X140480000Y-85000000D03*
X141280000Y-85000000D03*
X142080000Y-85000000D03*
X142880000Y-85000000D03*
X143680000Y-85000000D03*
X144480000Y-85000000D03*
X145280000Y-85000000D03*
X146080000Y-85000000D03*
X130880000Y-85800000D03*
X131680000Y-85800000D03*
X132480000Y-85800000D03*
X133280000Y-85800000D03*
X134080000Y-85800000D03*
X134880000Y-85800000D03*
X135680000Y-85800000D03*
X136480000Y-85800000D03*
X137280000Y-85800000D03*
X138080000Y-85800000D03*
X138880000Y-85800000D03*
X139680000Y-85800000D03*
X140480000Y-85800000D03*
X141280000Y-85800000D03*
X142080000Y-85800000D03*
X142880000Y-85800000D03*
X143680000Y-85800000D03*
X144480000Y-85800000D03*
X145280000Y-85800000D03*
X146080000Y-85800000D03*
X130880000Y-86600000D03*
X131680000Y-86600000D03*
X132480000Y-86600000D03*
X133280000Y-86600000D03*
X134080000Y-86600000D03*
X134880000Y-86600000D03*
X135680000Y-86600000D03*
X136480000Y-86600000D03*
X137280000Y-86600000D03*
X138080000Y-86600000D03*
X138880000Y-86600000D03*
X139680000Y-86600000D03*
X140480000Y-86600000D03*
X141280000Y-86600000D03*
X142080000Y-86600000D03*
X142880000Y-86600000D03*
X143680000Y-86600000D03*
X144480000Y-86600000D03*
X145280000Y-86600000D03*
X146080000Y-86600000D03*
X130880000Y-87400000D03*
X131680000Y-87400000D03*
X132480000Y-87400000D03*
X133280000Y-87400000D03*
X134080000Y-87400000D03*
X134880000Y-87400000D03*
X135680000Y-87400000D03*
X136480000Y-87400000D03*
X137280000Y-87400000D03*
X138080000Y-87400000D03*
X138880000Y-87400000D03*
X139680000Y-87400000D03*
X140480000Y-87400000D03*
X141280000Y-87400000D03*
X142080000Y-87400000D03*
X142880000Y-87400000D03*
X143680000Y-87400000D03*
X144480000Y-87400000D03*
X145280000Y-87400000D03*
X146080000Y-87400000D03*
X130880000Y-88200000D03*
X131680000Y-88200000D03*
X132480000Y-88200000D03*
X133280000Y-88200000D03*
X134080000Y-88200000D03*
X134880000Y-88200000D03*
X135680000Y-88200000D03*
X136480000Y-88200000D03*
X137280000Y-88200000D03*
X138080000Y-88200000D03*
X138880000Y-88200000D03*
X139680000Y-88200000D03*
X140480000Y-88200000D03*
X141280000Y-88200000D03*
X142080000Y-88200000D03*
X142880000Y-88200000D03*
X143680000Y-88200000D03*
X144480000Y-88200000D03*
X145280000Y-88200000D03*
X146080000Y-88200000D03*
X130880000Y-89000000D03*
X131680000Y-89000000D03*
X132480000Y-89000000D03*
X133280000Y-89000000D03*
X134080000Y-89000000D03*
X134880000Y-89000000D03*
X135680000Y-89000000D03*
X136480000Y-89000000D03*
X137280000Y-89000000D03*
X138080000Y-89000000D03*
X138880000Y-89000000D03*
X139680000Y-89000000D03*
X140480000Y-89000000D03*
X141280000Y-89000000D03*
X142080000Y-89000000D03*
X142880000Y-89000000D03*
X143680000Y-89000000D03*
X144480000Y-89000000D03*
X145280000Y-89000000D03*
X146080000Y-89000000D03*
X130880000Y-89800000D03*
X131680000Y-89800000D03*
X132480000Y-89800000D03*
X133280000Y-89800000D03*
X134080000Y-89800000D03*
X134880000Y-89800000D03*
X135680000Y-89800000D03*
X136480000Y-89800000D03*
X137280000Y-89800000D03*
X138080000Y-89800000D03*
X138880000Y-89800000D03*
X139680000Y-89800000D03*
X140480000Y-89800000D03*
X141280000Y-89800000D03*
X142080000Y-89800000D03*
X142880000Y-89800000D03*
X143680000Y-89800000D03*
X144480000Y-89800000D03*
X145280000Y-89800000D03*
X146080000Y-89800000D03*
X130880000Y-90600000D03*
X131680000Y-90600000D03*
X132480000Y-90600000D03*
X133280000Y-90600000D03*
X134080000Y-90600000D03*
X134880000Y-90600000D03*
X135680000Y-90600000D03*
X136480000Y-90600000D03*
X137280000Y-90600000D03*
X138080000Y-90600000D03*
X138880000Y-90600000D03*
X139680000Y-90600000D03*
X140480000Y-90600000D03*
X141280000Y-90600000D03*
X142080000Y-90600000D03*
X142880000Y-90600000D03*
X143680000Y-90600000D03*
X144480000Y-90600000D03*
X145280000Y-90600000D03*
X146080000Y-90600000D03*
X130880000Y-91400000D03*
X131680000Y-91400000D03*
X132480000Y-91400000D03*
X133280000Y-91400000D03*
X134080000Y-91400000D03*
X142880000Y-91400000D03*
X143680000Y-91400000D03*
X144480000Y-91400000D03*
X145280000Y-91400000D03*
X146080000Y-91400000D03*
X130880000Y-92200000D03*
X131680000Y-92200000D03*
X132480000Y-92200000D03*
X133280000Y-92200000D03*
X134080000Y-92200000D03*
X134880000Y-92200000D03*
X135680000Y-92200000D03*
X136480000Y-92200000D03*
X137280000Y-92200000D03*
X138080000Y-92200000D03*
X138880000Y-92200000D03*
X139680000Y-92200000D03*
X140480000Y-92200000D03*
X141280000Y-92200000D03*
X142080000Y-92200000D03*
X142880000Y-92200000D03*
X143680000Y-92200000D03*
X144480000Y-92200000D03*
X145280000Y-92200000D03*
X146080000Y-92200000D03*
X130880000Y-93000000D03*
X131680000Y-93000000D03*
X132480000Y-93000000D03*
X133280000Y-93000000D03*
X134080000Y-93000000D03*
X134880000Y-93000000D03*
X135680000Y-93000000D03*
X136480000Y-93000000D03*
X137280000Y-93000000D03*
X138080000Y-93000000D03*
X138880000Y-93000000D03*
X139680000Y-93000000D03*
X140480000Y-93000000D03*
X141280000Y-93000000D03*
X142080000Y-93000000D03*
X142880000Y-93000000D03*
X143680000Y-93000000D03*
X144480000Y-93000000D03*
X145280000Y-93000000D03*
X146080000Y-93000000D03*
X130880000Y-93800000D03*
X131680000Y-93800000D03*
X132480000Y-93800000D03*
X133280000Y-93800000D03*
X134080000Y-93800000D03*
X134880000Y-93800000D03*
X135680000Y-93800000D03*
X136480000Y-93800000D03*
X137280000Y-93800000D03*
X138080000Y-93800000D03*
X138880000Y-93800000D03*
X139680000Y-93800000D03*
X140480000Y-93800000D03*
X141280000Y-93800000D03*
X142080000Y-93800000D03*
X142880000Y-93800000D03*
X143680000Y-93800000D03*
X144480000Y-93800000D03*
X145280000Y-93800000D03*
X146080000Y-93800000D03*
X130880000Y-94600000D03*
X131680000Y-94600000D03*
X132480000Y-94600000D03*
X133280000Y-94600000D03*
X134080000Y-94600000D03*
X134880000Y-94600000D03*
X135680000Y-94600000D03*
X136480000Y-94600000D03*
X137280000Y-94600000D03*
X138080000Y-94600000D03*
X138880000Y-94600000D03*
X139680000Y-94600000D03*
X140480000Y-94600000D03*
X141280000Y-94600000D03*
X142080000Y-94600000D03*
X142880000Y-94600000D03*
X143680000Y-94600000D03*
X144480000Y-94600000D03*
X145280000Y-94600000D03*
X146080000Y-94600000D03*
D16*
X129980000Y-96300000D03*
D17*
X129980000Y-96300000D03*
X129980000Y-79300000D03*
X146980000Y-96300000D03*
D16*
X146980000Y-79300000D03*
D17*
X146980000Y-79300000D03*
D16*
X146980000Y-96300000D03*
X129980000Y-79300000D03*
D15*
X131680000Y-95400000D03*
X132480000Y-95400000D03*
X134080000Y-95400000D03*
X134880000Y-95400000D03*
X135680000Y-95400000D03*
X136480000Y-95400000D03*
X138880000Y-95400000D03*
X139680000Y-95400000D03*
X141280000Y-95400000D03*
X142080000Y-95400000D03*
X142880000Y-95400000D03*
X143680000Y-95400000D03*
X145280000Y-95400000D03*
D18*
X102990000Y-108410000D03*
X179190000Y-108410000D03*
X179190000Y-65230000D03*
X102990000Y-65230000D03*
D19*
X97910000Y-62690000D03*
X95370000Y-62690000D03*
D20*
X97910000Y-65230000D03*
X95370000Y-65230000D03*
D19*
X97910000Y-67770000D03*
X95370000Y-67770000D03*
X97910000Y-70310000D03*
X95370000Y-70310000D03*
X97910000Y-72850000D03*
X95370000Y-72850000D03*
X97910000Y-75390000D03*
X95370000Y-75390000D03*
X97910000Y-77930000D03*
X95370000Y-77930000D03*
X97910000Y-80470000D03*
X95370000Y-80470000D03*
X97910000Y-83010000D03*
X95370000Y-83010000D03*
X97910000Y-85550000D03*
X95370000Y-85550000D03*
D20*
X97910000Y-88090000D03*
X95370000Y-88090000D03*
D19*
X97910000Y-90630000D03*
X95370000Y-90630000D03*
X97910000Y-93170000D03*
X95370000Y-93170000D03*
X97910000Y-95710000D03*
X95370000Y-95710000D03*
X97910000Y-98250000D03*
X95370000Y-98250000D03*
X97910000Y-100790000D03*
X95370000Y-100790000D03*
X97910000Y-103330000D03*
X95370000Y-103330000D03*
X97910000Y-105870000D03*
X95370000Y-105870000D03*
D20*
X97910000Y-108410000D03*
X95370000Y-108410000D03*
D19*
X97910000Y-110950000D03*
X95370000Y-110950000D03*
X184270000Y-110950000D03*
X186810000Y-110950000D03*
D21*
X184270000Y-108410000D03*
X186810000Y-108410000D03*
D19*
X184270000Y-105870000D03*
X186810000Y-105870000D03*
X184270000Y-103330000D03*
X186810000Y-103330000D03*
X184270000Y-100790000D03*
X186810000Y-100790000D03*
X184270000Y-98250000D03*
X186810000Y-98250000D03*
X184270000Y-95710000D03*
X186810000Y-95710000D03*
X184270000Y-93170000D03*
X186810000Y-93170000D03*
X184270000Y-90630000D03*
X186810000Y-90630000D03*
X184270000Y-88090000D03*
X186810000Y-88090000D03*
D21*
X184270000Y-85550000D03*
X186810000Y-85550000D03*
D19*
X184270000Y-83010000D03*
X186810000Y-83010000D03*
X184270000Y-80470000D03*
X186810000Y-80470000D03*
X184270000Y-77930000D03*
X186810000Y-77930000D03*
X184270000Y-75390000D03*
X186810000Y-75390000D03*
X184270000Y-72850000D03*
X186810000Y-72850000D03*
X184270000Y-70310000D03*
X186810000Y-70310000D03*
X184270000Y-67770000D03*
X186810000Y-67770000D03*
D21*
X184270000Y-65230000D03*
X186810000Y-65230000D03*
D19*
X184270000Y-62690000D03*
X186810000Y-62690000D03*
D22*
X147920000Y-100790000D03*
D23*
X145380000Y-100790000D03*
X142840000Y-100790000D03*
X140265000Y-100790000D03*
X137760000Y-100790000D03*
X135220000Y-100790000D03*
X132680000Y-100790000D03*
X130140000Y-100790000D03*
D24*
X154693000Y-93530000D03*
D25*
X155493000Y-93530000D03*
X156293000Y-93530000D03*
X157093000Y-93530000D03*
X157893000Y-93530000D03*
X158693000Y-93530000D03*
X159493000Y-93530000D03*
X160293000Y-93530000D03*
X161093000Y-93530000D03*
X161893000Y-93530000D03*
X162693000Y-93530000D03*
X163493000Y-93530000D03*
X164293000Y-93530000D03*
X165093000Y-93530000D03*
X165893000Y-93530000D03*
X166693000Y-93530000D03*
X167493000Y-93530000D03*
X168293000Y-93530000D03*
X169093000Y-93530000D03*
X169893000Y-93530000D03*
X170693000Y-93530000D03*
X171493000Y-93530000D03*
X172293000Y-93530000D03*
X173093000Y-93530000D03*
X173893000Y-93530000D03*
X174693000Y-93530000D03*
X175493000Y-93530000D03*
X175493000Y-82070000D03*
X174693000Y-82070000D03*
X173893000Y-82070000D03*
X173093000Y-82070000D03*
X172293000Y-82070000D03*
X171493000Y-82070000D03*
X170693000Y-82070000D03*
X169893000Y-82070000D03*
X169093000Y-82070000D03*
X168293000Y-82070000D03*
X167493000Y-82070000D03*
X166693000Y-82070000D03*
X165893000Y-82070000D03*
X165093000Y-82070000D03*
X164293000Y-82070000D03*
X163493000Y-82070000D03*
X162693000Y-82070000D03*
X161893000Y-82070000D03*
X161093000Y-82070000D03*
X160293000Y-82070000D03*
X159493000Y-82070000D03*
X158693000Y-82070000D03*
X157893000Y-82070000D03*
X157093000Y-82070000D03*
X156293000Y-82070000D03*
X155493000Y-82070000D03*
X154693000Y-82070000D03*
D26*
X118230000Y-78661500D03*
X118230000Y-80536500D03*
D27*
X140201000Y-76558500D03*
X140201000Y-74983500D03*
X142995000Y-76558500D03*
X142995000Y-74983500D03*
X145789000Y-76558500D03*
X145789000Y-74983500D03*
X148964000Y-76558500D03*
X148964000Y-74983500D03*
X138742800Y-76551100D03*
X138742800Y-74976100D03*
X141598000Y-76558500D03*
X141598000Y-74983500D03*
X144392000Y-76558500D03*
X144392000Y-74983500D03*
D28*
X130800000Y-106437500D03*
X130800000Y-104562500D03*
D29*
X138046000Y-69312000D03*
X152546000Y-69312000D03*
X137446000Y-64412000D03*
X153146000Y-64412000D03*
D30*
X140546000Y-70312000D03*
X141046000Y-70312000D03*
X141546000Y-70312000D03*
X142046000Y-70312000D03*
X142546000Y-70312000D03*
X143046000Y-70312000D03*
X143546000Y-70312000D03*
X144046000Y-70312000D03*
X144546000Y-70312000D03*
X145046000Y-70312000D03*
X145546000Y-70312000D03*
X146046000Y-70312000D03*
X146546000Y-70312000D03*
X147046000Y-70312000D03*
X147546000Y-70312000D03*
X148046000Y-70312000D03*
X148546000Y-70312000D03*
X149046000Y-70312000D03*
X149546000Y-70312000D03*
D27*
X120770000Y-83289500D03*
X120770000Y-81714500D03*
X118230000Y-83289500D03*
X118230000Y-81714500D03*
X115690000Y-83289500D03*
X115690000Y-81714500D03*
X113150000Y-83289500D03*
X113150000Y-81714500D03*
X110610000Y-83289500D03*
X110610000Y-81714500D03*
X108070000Y-83289500D03*
X108070000Y-81714500D03*
X105530000Y-83289500D03*
X105530000Y-81714500D03*
X147567000Y-76546500D03*
X147567000Y-74971500D03*
X102990000Y-83289500D03*
X102990000Y-81714500D03*
D31*
X128300000Y-107912500D03*
X128300000Y-109487500D03*
D26*
X120770000Y-78661500D03*
X120770000Y-80536500D03*
X115690000Y-78661500D03*
X115690000Y-80536500D03*
X113150000Y-78661500D03*
X113150000Y-80536500D03*
X108070000Y-78661500D03*
X108070000Y-80536500D03*
X105545000Y-78661500D03*
X105545000Y-80536500D03*
X102990000Y-78661500D03*
X102990000Y-80536500D03*
D28*
X128300000Y-106437500D03*
X128300000Y-104562500D03*
D26*
X125800000Y-104562500D03*
X125800000Y-106437500D03*
D27*
X130800000Y-109487500D03*
X130800000Y-107912500D03*
D32*
X130056000Y-71725000D03*
D33*
X132596000Y-71725000D03*
X135136000Y-71725000D03*
D20*
X140300000Y-104600000D03*
D19*
X137760000Y-104600000D03*
X140300000Y-107140000D03*
X137760000Y-107140000D03*
X140300000Y-109680000D03*
X137760000Y-109680000D03*
D34*
X129596500Y-69566000D03*
X131531500Y-69566000D03*
X133279500Y-69566000D03*
X135214500Y-69566000D03*
D35*
X113180000Y-66000000D03*
X112530000Y-66000000D03*
X111880000Y-66000000D03*
X111230000Y-66000000D03*
X110580000Y-66000000D03*
D36*
X108080000Y-63325000D03*
D37*
X108780000Y-65875000D03*
D38*
X113080000Y-63325000D03*
D36*
X115680000Y-63325000D03*
D38*
X110680000Y-63325000D03*
D37*
X114980000Y-65875000D03*
D35*
X171600000Y-66000000D03*
X170950000Y-66000000D03*
X170300000Y-66000000D03*
X169650000Y-66000000D03*
X169000000Y-66000000D03*
D38*
X169100000Y-63325000D03*
D36*
X174100000Y-63325000D03*
D37*
X173400000Y-65875000D03*
D38*
X171500000Y-63325000D03*
D37*
X167200000Y-65875000D03*
D36*
X166500000Y-63325000D03*
D39*
X105530000Y-95710000D03*
D33*
X102990000Y-95710000D03*
D40*
X108212000Y-70160000D03*
X103132000Y-70160000D03*
X103132000Y-74560000D03*
X108212000Y-74560000D03*
D41*
X175550000Y-76370000D03*
X167590000Y-76370000D03*
X175550000Y-71870000D03*
X167590000Y-71870000D03*
D42*
X101550000Y-87110000D03*
X109510000Y-87110000D03*
X101550000Y-91610000D03*
X109510000Y-91610000D03*
X120940000Y-87110000D03*
X112980000Y-87110000D03*
X120940000Y-91610000D03*
X112980000Y-91610000D03*
X164120000Y-97270000D03*
X156160000Y-97270000D03*
X156160000Y-101770000D03*
X164120000Y-101770000D03*
D41*
X164120000Y-110660000D03*
X156160000Y-110660000D03*
X164120000Y-106160000D03*
X156160000Y-106160000D03*
X144730000Y-110660000D03*
X152690000Y-110660000D03*
X144730000Y-106160000D03*
X152690000Y-106160000D03*
X175550000Y-110660000D03*
X167590000Y-110660000D03*
X175550000Y-106160000D03*
X167590000Y-106160000D03*
D27*
X172967000Y-97894500D03*
X172967000Y-96319500D03*
D43*
X156330000Y-78425000D03*
X158870000Y-78425000D03*
X161410000Y-78425000D03*
X163950000Y-78425000D03*
X163950000Y-69815000D03*
X161410000Y-69815000D03*
X158870000Y-69815000D03*
X156330000Y-69815000D03*
D26*
X110610000Y-78661500D03*
X110610000Y-80536500D03*
D44*
X179625000Y-101655000D03*
D45*
X179625000Y-101155000D03*
X179625000Y-100655000D03*
X179625000Y-100155000D03*
X179625000Y-99655000D03*
X179625000Y-99155000D03*
X179625000Y-98655000D03*
D46*
X178785000Y-97815000D03*
X178285000Y-97815000D03*
X177785000Y-97815000D03*
X177285000Y-97815000D03*
X176785000Y-97815000D03*
X176285000Y-97815000D03*
X175785000Y-97815000D03*
D45*
X174945000Y-98655000D03*
X174945000Y-99155000D03*
X174945000Y-99655000D03*
X174945000Y-100155000D03*
X174945000Y-100655000D03*
X174945000Y-101155000D03*
X174945000Y-101655000D03*
D46*
X175785000Y-102495000D03*
X176285000Y-102495000D03*
X176785000Y-102495000D03*
X177285000Y-102495000D03*
X177785000Y-102495000D03*
X178285000Y-102495000D03*
X178785000Y-102495000D03*
D47*
X176472500Y-100967500D03*
X178097500Y-100967500D03*
X178097500Y-99342500D03*
X176472500Y-99342500D03*
D31*
X172967000Y-102542500D03*
X172967000Y-104117500D03*
D48*
X118332000Y-105250000D03*
X117232000Y-105250000D03*
X116132000Y-105250000D03*
X115032000Y-105250000D03*
X113932000Y-105250000D03*
X112832000Y-105250000D03*
X111732000Y-105250000D03*
X110632000Y-105250000D03*
D49*
X120932000Y-95200000D03*
D50*
X122007000Y-109550000D03*
D51*
X108257000Y-97850000D03*
D52*
X120732000Y-104900000D03*
D53*
X109432000Y-104700000D03*
D54*
X111432000Y-94200000D03*
X117432000Y-94200000D03*
D55*
X122007000Y-107850000D03*
X108257000Y-107850000D03*
X108257000Y-99550000D03*
X122007000Y-99550000D03*
D56*
X120932000Y-98900000D03*
D57*
X151758000Y-76596000D03*
X151758000Y-74946000D03*
X150361000Y-76596000D03*
X150361000Y-74946000D03*
D31*
X125800000Y-107912500D03*
X125800000Y-109487500D03*
D58*
X145380000Y-103550000D03*
D59*
X146380000Y-103550000D03*
D58*
X142800000Y-103530000D03*
D59*
X143800000Y-103530000D03*
G36*
X121427513Y-108831955D02*
G01*
X121517657Y-108877886D01*
X121644655Y-108898000D01*
X122369345Y-108898000D01*
X122496343Y-108877886D01*
X122586487Y-108831955D01*
X122588484Y-108832060D01*
X122589392Y-108833842D01*
X122588604Y-108835330D01*
X122566946Y-108851770D01*
X122525634Y-108907730D01*
X122521154Y-108976844D01*
X122554818Y-109037530D01*
X122585379Y-109059579D01*
X122598415Y-109066221D01*
X122599504Y-109067898D01*
X122598596Y-109069680D01*
X122597117Y-109069965D01*
X122506801Y-109052000D01*
X121507199Y-109052000D01*
X121416883Y-109069965D01*
X121414989Y-109069322D01*
X121414599Y-109067360D01*
X121415585Y-109066221D01*
X121428502Y-109059639D01*
X121479071Y-109011879D01*
X121495720Y-108944653D01*
X121473334Y-108878963D01*
X121447160Y-108851850D01*
X121425396Y-108835330D01*
X121424621Y-108833486D01*
X121425830Y-108831893D01*
X121427513Y-108831955D01*
G37*
G36*
X110068919Y-104451222D02*
G01*
X110088595Y-104518234D01*
X110140938Y-104563589D01*
X110209491Y-104573446D01*
X110272728Y-104544566D01*
X110279082Y-104538645D01*
X110282901Y-104534819D01*
X110284832Y-104534300D01*
X110286247Y-104535713D01*
X110285979Y-104537343D01*
X110251012Y-104589675D01*
X110234000Y-104675199D01*
X110234000Y-105567762D01*
X110233000Y-105569494D01*
X110231000Y-105569494D01*
X110230081Y-105568325D01*
X110210405Y-105501313D01*
X110158062Y-105455958D01*
X110089509Y-105446101D01*
X110026341Y-105474950D01*
X110014935Y-105487279D01*
X110013025Y-105487872D01*
X110011557Y-105486513D01*
X110011654Y-105485076D01*
X110053387Y-105395579D01*
X110065000Y-105307368D01*
X110065000Y-104451785D01*
X110066000Y-104450053D01*
X110068000Y-104450053D01*
X110068919Y-104451222D01*
G37*
G36*
X145856772Y-103134254D02*
G01*
X145888461Y-103194835D01*
X145948646Y-103229108D01*
X146017940Y-103225394D01*
X146051914Y-103206974D01*
X146055299Y-103204377D01*
X146057282Y-103204116D01*
X146058499Y-103205703D01*
X146058015Y-103207288D01*
X145984680Y-103290324D01*
X145927687Y-103411713D01*
X145907055Y-103544222D01*
X145924444Y-103677193D01*
X145978453Y-103799940D01*
X146054044Y-103889865D01*
X146054393Y-103891834D01*
X146052862Y-103893121D01*
X146051792Y-103893017D01*
X145987141Y-103868023D01*
X145919294Y-103881939D01*
X145869645Y-103930421D01*
X145856876Y-103964969D01*
X145855338Y-103966247D01*
X145853462Y-103965554D01*
X145853000Y-103964276D01*
X145853000Y-103135181D01*
X145854000Y-103133449D01*
X145856000Y-103133449D01*
X145856772Y-103134254D01*
G37*
G36*
X143276772Y-103114254D02*
G01*
X143308461Y-103174835D01*
X143368646Y-103209108D01*
X143437940Y-103205394D01*
X143471914Y-103186974D01*
X143475299Y-103184377D01*
X143477282Y-103184116D01*
X143478499Y-103185703D01*
X143478015Y-103187288D01*
X143404680Y-103270324D01*
X143347687Y-103391713D01*
X143327055Y-103524222D01*
X143344444Y-103657193D01*
X143398453Y-103779940D01*
X143474044Y-103869865D01*
X143474393Y-103871834D01*
X143472862Y-103873121D01*
X143471792Y-103873017D01*
X143407141Y-103848023D01*
X143339294Y-103861939D01*
X143289645Y-103910421D01*
X143276876Y-103944969D01*
X143275338Y-103946247D01*
X143273462Y-103945554D01*
X143273000Y-103944276D01*
X143273000Y-103115181D01*
X143274000Y-103113449D01*
X143276000Y-103113449D01*
X143276772Y-103114254D01*
G37*
G36*
X178926278Y-101825742D02*
G01*
X178926668Y-101827704D01*
X178926309Y-101828343D01*
X178883114Y-101880031D01*
X178874484Y-101948748D01*
X178904475Y-102011429D01*
X178904873Y-102011815D01*
X178905422Y-102013738D01*
X178904031Y-102015175D01*
X178902371Y-102014915D01*
X178860758Y-101987109D01*
X178785000Y-101972040D01*
X178709242Y-101987109D01*
X178645021Y-102030021D01*
X178602109Y-102094242D01*
X178587000Y-102170199D01*
X178587000Y-102819801D01*
X178602109Y-102895758D01*
X178636950Y-102947901D01*
X178637081Y-102949897D01*
X178635418Y-102951008D01*
X178634001Y-102950544D01*
X178616630Y-102935968D01*
X178615192Y-102937682D01*
X178613313Y-102938366D01*
X178612280Y-102937844D01*
X178591312Y-102917855D01*
X178523305Y-102904754D01*
X178458915Y-102930540D01*
X178455321Y-102934688D01*
X178454597Y-102934938D01*
X178435998Y-102950545D01*
X178434028Y-102950892D01*
X178432742Y-102949360D01*
X178433049Y-102947902D01*
X178467891Y-102895758D01*
X178483000Y-102819801D01*
X178483000Y-102170199D01*
X178467891Y-102094242D01*
X178424979Y-102030021D01*
X178360758Y-101987109D01*
X178285000Y-101972040D01*
X178209242Y-101987109D01*
X178145021Y-102030021D01*
X178102109Y-102094242D01*
X178087000Y-102170199D01*
X178087000Y-102819801D01*
X178102109Y-102895758D01*
X178136950Y-102947901D01*
X178137081Y-102949897D01*
X178135418Y-102951008D01*
X178134001Y-102950544D01*
X178116630Y-102935968D01*
X178115192Y-102937682D01*
X178113313Y-102938366D01*
X178112280Y-102937844D01*
X178091312Y-102917855D01*
X178023305Y-102904754D01*
X177958915Y-102930540D01*
X177955321Y-102934688D01*
X177954597Y-102934938D01*
X177935998Y-102950545D01*
X177934028Y-102950892D01*
X177932742Y-102949360D01*
X177933049Y-102947902D01*
X177967891Y-102895758D01*
X177983000Y-102819801D01*
X177983000Y-102170199D01*
X177967891Y-102094242D01*
X177924979Y-102030021D01*
X177860758Y-101987109D01*
X177785000Y-101972040D01*
X177709242Y-101987109D01*
X177645021Y-102030021D01*
X177602109Y-102094242D01*
X177587000Y-102170199D01*
X177587000Y-102819801D01*
X177602109Y-102895758D01*
X177636950Y-102947901D01*
X177637081Y-102949897D01*
X177635418Y-102951008D01*
X177634001Y-102950544D01*
X177616630Y-102935968D01*
X177615192Y-102937682D01*
X177613313Y-102938366D01*
X177612280Y-102937844D01*
X177591312Y-102917855D01*
X177523305Y-102904754D01*
X177458915Y-102930540D01*
X177455321Y-102934688D01*
X177454597Y-102934938D01*
X177435998Y-102950545D01*
X177434028Y-102950892D01*
X177432742Y-102949360D01*
X177433049Y-102947902D01*
X177467891Y-102895758D01*
X177483000Y-102819801D01*
X177483000Y-102170199D01*
X177467891Y-102094242D01*
X177424979Y-102030021D01*
X177360758Y-101987109D01*
X177285000Y-101972040D01*
X177209242Y-101987109D01*
X177145021Y-102030021D01*
X177102109Y-102094242D01*
X177087000Y-102170199D01*
X177087000Y-102819801D01*
X177102109Y-102895758D01*
X177136950Y-102947901D01*
X177137081Y-102949897D01*
X177135418Y-102951008D01*
X177134001Y-102950544D01*
X177116630Y-102935968D01*
X177115192Y-102937682D01*
X177113313Y-102938366D01*
X177112280Y-102937844D01*
X177091312Y-102917855D01*
X177023305Y-102904754D01*
X176958915Y-102930540D01*
X176955321Y-102934688D01*
X176954597Y-102934938D01*
X176935998Y-102950545D01*
X176934028Y-102950892D01*
X176932742Y-102949360D01*
X176933049Y-102947902D01*
X176967891Y-102895758D01*
X176983000Y-102819801D01*
X176983000Y-102170199D01*
X176967891Y-102094242D01*
X176924979Y-102030021D01*
X176860758Y-101987109D01*
X176785000Y-101972040D01*
X176709242Y-101987109D01*
X176645021Y-102030021D01*
X176602109Y-102094242D01*
X176587000Y-102170199D01*
X176587000Y-102819801D01*
X176602109Y-102895758D01*
X176636950Y-102947901D01*
X176637081Y-102949897D01*
X176635418Y-102951008D01*
X176634001Y-102950544D01*
X176616630Y-102935968D01*
X176615192Y-102937682D01*
X176613313Y-102938366D01*
X176612280Y-102937844D01*
X176591312Y-102917855D01*
X176523305Y-102904754D01*
X176458915Y-102930540D01*
X176455321Y-102934688D01*
X176454597Y-102934938D01*
X176435998Y-102950545D01*
X176434028Y-102950892D01*
X176432742Y-102949360D01*
X176433049Y-102947902D01*
X176467891Y-102895758D01*
X176483000Y-102819801D01*
X176483000Y-102170199D01*
X176467891Y-102094242D01*
X176424979Y-102030021D01*
X176360758Y-101987109D01*
X176285000Y-101972040D01*
X176209242Y-101987109D01*
X176145021Y-102030021D01*
X176102109Y-102094242D01*
X176087000Y-102170199D01*
X176087000Y-102819801D01*
X176102109Y-102895758D01*
X176136950Y-102947901D01*
X176137081Y-102949897D01*
X176135418Y-102951008D01*
X176134001Y-102950544D01*
X176116630Y-102935968D01*
X176115192Y-102937682D01*
X176113313Y-102938366D01*
X176112280Y-102937844D01*
X176091312Y-102917855D01*
X176023305Y-102904754D01*
X175958915Y-102930540D01*
X175955321Y-102934688D01*
X175954597Y-102934938D01*
X175935998Y-102950545D01*
X175934028Y-102950892D01*
X175932742Y-102949360D01*
X175933049Y-102947902D01*
X175967891Y-102895758D01*
X175983000Y-102819801D01*
X175983000Y-102170199D01*
X175967891Y-102094242D01*
X175924979Y-102030021D01*
X175860758Y-101987109D01*
X175785000Y-101972040D01*
X175709242Y-101987109D01*
X175659931Y-102020058D01*
X175657935Y-102020189D01*
X175656824Y-102018526D01*
X175657155Y-102017287D01*
X175691555Y-101965582D01*
X175692654Y-101896330D01*
X175656021Y-101837289D01*
X175645167Y-101828874D01*
X175644410Y-101827022D01*
X175645636Y-101825441D01*
X175646782Y-101825331D01*
X175660199Y-101828000D01*
X176026699Y-101828000D01*
X176028431Y-101829000D01*
X176028431Y-101831000D01*
X176027262Y-101831919D01*
X175960247Y-101851596D01*
X175914892Y-101903939D01*
X175905035Y-101972492D01*
X175927902Y-102022563D01*
X175927834Y-102023271D01*
X175928343Y-102024151D01*
X175928567Y-102024365D01*
X175929006Y-102024981D01*
X175933897Y-102035690D01*
X175947694Y-102049269D01*
X175953371Y-102054032D01*
X175954808Y-102052319D01*
X175956687Y-102051634D01*
X175957720Y-102052156D01*
X175978688Y-102072145D01*
X176046695Y-102085246D01*
X176111085Y-102059460D01*
X176114679Y-102055312D01*
X176115403Y-102055062D01*
X176122143Y-102049406D01*
X176129828Y-102037854D01*
X176129982Y-102037652D01*
X176141530Y-102024325D01*
X176141424Y-102024264D01*
X176140425Y-102022531D01*
X176140760Y-102021424D01*
X176160672Y-101991496D01*
X176161771Y-101922245D01*
X176125258Y-101863396D01*
X176062525Y-101833535D01*
X176043143Y-101831994D01*
X176041495Y-101830860D01*
X176041654Y-101828866D01*
X176043301Y-101828000D01*
X176526695Y-101828000D01*
X176528427Y-101829000D01*
X176528427Y-101831000D01*
X176527258Y-101831919D01*
X176460246Y-101851595D01*
X176414891Y-101903938D01*
X176405034Y-101972491D01*
X176427902Y-102022563D01*
X176427834Y-102023271D01*
X176428343Y-102024151D01*
X176428566Y-102024364D01*
X176429005Y-102024980D01*
X176433896Y-102035689D01*
X176447691Y-102049267D01*
X176453369Y-102054031D01*
X176454807Y-102052317D01*
X176456686Y-102051633D01*
X176457719Y-102052155D01*
X176478688Y-102072145D01*
X176546695Y-102085246D01*
X176611086Y-102059460D01*
X176614682Y-102055310D01*
X176615406Y-102055060D01*
X176622146Y-102049404D01*
X176629834Y-102037848D01*
X176629987Y-102037646D01*
X176641529Y-102024325D01*
X176641425Y-102024265D01*
X176640425Y-102022533D01*
X176640760Y-102021425D01*
X176660673Y-101991494D01*
X176661772Y-101922242D01*
X176625259Y-101863394D01*
X176562524Y-101833534D01*
X176543157Y-101831994D01*
X176541509Y-101830860D01*
X176541668Y-101828866D01*
X176543315Y-101828000D01*
X177026695Y-101828000D01*
X177028427Y-101829000D01*
X177028427Y-101831000D01*
X177027258Y-101831919D01*
X176960246Y-101851595D01*
X176914891Y-101903938D01*
X176905034Y-101972491D01*
X176927902Y-102022563D01*
X176927834Y-102023271D01*
X176928343Y-102024151D01*
X176928566Y-102024364D01*
X176929005Y-102024980D01*
X176933896Y-102035689D01*
X176947691Y-102049267D01*
X176953369Y-102054031D01*
X176954807Y-102052317D01*
X176956686Y-102051633D01*
X176957719Y-102052155D01*
X176978688Y-102072145D01*
X177046695Y-102085246D01*
X177111086Y-102059460D01*
X177114682Y-102055310D01*
X177115406Y-102055060D01*
X177122146Y-102049404D01*
X177129834Y-102037848D01*
X177129987Y-102037646D01*
X177141529Y-102024325D01*
X177141425Y-102024265D01*
X177140425Y-102022533D01*
X177140760Y-102021425D01*
X177160673Y-101991494D01*
X177161772Y-101922242D01*
X177125259Y-101863394D01*
X177062524Y-101833534D01*
X177043157Y-101831994D01*
X177041509Y-101830860D01*
X177041668Y-101828866D01*
X177043315Y-101828000D01*
X177526699Y-101828000D01*
X177528431Y-101829000D01*
X177528431Y-101831000D01*
X177527262Y-101831919D01*
X177460247Y-101851596D01*
X177414892Y-101903939D01*
X177405035Y-101972492D01*
X177427902Y-102022563D01*
X177427834Y-102023271D01*
X177428343Y-102024151D01*
X177428567Y-102024365D01*
X177429006Y-102024981D01*
X177433897Y-102035690D01*
X177447694Y-102049269D01*
X177453371Y-102054032D01*
X177454808Y-102052319D01*
X177456687Y-102051634D01*
X177457720Y-102052156D01*
X177478688Y-102072145D01*
X177546695Y-102085246D01*
X177611085Y-102059460D01*
X177614679Y-102055312D01*
X177615403Y-102055062D01*
X177622143Y-102049406D01*
X177629828Y-102037854D01*
X177629982Y-102037652D01*
X177641530Y-102024325D01*
X177641424Y-102024264D01*
X177640425Y-102022531D01*
X177640760Y-102021424D01*
X177660672Y-101991496D01*
X177661771Y-101922245D01*
X177625258Y-101863396D01*
X177562525Y-101833535D01*
X177543143Y-101831994D01*
X177541495Y-101830860D01*
X177541654Y-101828866D01*
X177543301Y-101828000D01*
X178026699Y-101828000D01*
X178028431Y-101829000D01*
X178028431Y-101831000D01*
X178027262Y-101831919D01*
X177960247Y-101851596D01*
X177914892Y-101903939D01*
X177905035Y-101972492D01*
X177927902Y-102022563D01*
X177927834Y-102023271D01*
X177928343Y-102024151D01*
X177928567Y-102024365D01*
X177929006Y-102024981D01*
X177933897Y-102035690D01*
X177947694Y-102049269D01*
X177953371Y-102054032D01*
X177954808Y-102052319D01*
X177956687Y-102051634D01*
X177957720Y-102052156D01*
X177978688Y-102072145D01*
X178046695Y-102085246D01*
X178111085Y-102059460D01*
X178114674Y-102055318D01*
X178115398Y-102055068D01*
X178122136Y-102049414D01*
X178129828Y-102037855D01*
X178129981Y-102037653D01*
X178141529Y-102024325D01*
X178141425Y-102024265D01*
X178140425Y-102022533D01*
X178140760Y-102021425D01*
X178160670Y-101991503D01*
X178161775Y-101922254D01*
X178125264Y-101863402D01*
X178062534Y-101833537D01*
X178043143Y-101831994D01*
X178041496Y-101830859D01*
X178041655Y-101828866D01*
X178043302Y-101828000D01*
X178526695Y-101828000D01*
X178528427Y-101829000D01*
X178528427Y-101831000D01*
X178527258Y-101831919D01*
X178460246Y-101851595D01*
X178414891Y-101903938D01*
X178405034Y-101972491D01*
X178427902Y-102022563D01*
X178427834Y-102023271D01*
X178428343Y-102024151D01*
X178428566Y-102024364D01*
X178429005Y-102024980D01*
X178433896Y-102035689D01*
X178447691Y-102049267D01*
X178453369Y-102054031D01*
X178454807Y-102052317D01*
X178456686Y-102051633D01*
X178457719Y-102052155D01*
X178478688Y-102072145D01*
X178546695Y-102085246D01*
X178611086Y-102059460D01*
X178614682Y-102055310D01*
X178615406Y-102055060D01*
X178622146Y-102049404D01*
X178629834Y-102037848D01*
X178629987Y-102037646D01*
X178641529Y-102024325D01*
X178641425Y-102024265D01*
X178640425Y-102022533D01*
X178640760Y-102021425D01*
X178660673Y-101991494D01*
X178661772Y-101922242D01*
X178625259Y-101863394D01*
X178562524Y-101833534D01*
X178543157Y-101831994D01*
X178541509Y-101830860D01*
X178541668Y-101828866D01*
X178543315Y-101828000D01*
X178909801Y-101828000D01*
X178924384Y-101825099D01*
X178926278Y-101825742D01*
G37*
G36*
X178958344Y-98513691D02*
G01*
X179010030Y-98556885D01*
X179078746Y-98565516D01*
X179141428Y-98535527D01*
X179141815Y-98535127D01*
X179143738Y-98534578D01*
X179145175Y-98535969D01*
X179144915Y-98537629D01*
X179117109Y-98579242D01*
X179102040Y-98655000D01*
X179117109Y-98730758D01*
X179160021Y-98794979D01*
X179224242Y-98837891D01*
X179300199Y-98853000D01*
X179949801Y-98853000D01*
X180025758Y-98837891D01*
X180077901Y-98803050D01*
X180079897Y-98802919D01*
X180081008Y-98804582D01*
X180080544Y-98805999D01*
X180065968Y-98823370D01*
X180067682Y-98824808D01*
X180068366Y-98826687D01*
X180067844Y-98827720D01*
X180047855Y-98848688D01*
X180034754Y-98916695D01*
X180060540Y-98981085D01*
X180064688Y-98984679D01*
X180064938Y-98985403D01*
X180080545Y-99004002D01*
X180080892Y-99005972D01*
X180079360Y-99007258D01*
X180077902Y-99006951D01*
X180025758Y-98972109D01*
X179949801Y-98957000D01*
X179300199Y-98957000D01*
X179224242Y-98972109D01*
X179160021Y-99015021D01*
X179117109Y-99079242D01*
X179102040Y-99155000D01*
X179117109Y-99230758D01*
X179160021Y-99294979D01*
X179224242Y-99337891D01*
X179300199Y-99353000D01*
X179949801Y-99353000D01*
X180025758Y-99337891D01*
X180077901Y-99303050D01*
X180079897Y-99302919D01*
X180081008Y-99304582D01*
X180080544Y-99305999D01*
X180065968Y-99323370D01*
X180067682Y-99324808D01*
X180068366Y-99326687D01*
X180067844Y-99327720D01*
X180047855Y-99348688D01*
X180034754Y-99416695D01*
X180060540Y-99481085D01*
X180064688Y-99484679D01*
X180064938Y-99485403D01*
X180080545Y-99504002D01*
X180080892Y-99505972D01*
X180079360Y-99507258D01*
X180077902Y-99506951D01*
X180025758Y-99472109D01*
X179949801Y-99457000D01*
X179300199Y-99457000D01*
X179224242Y-99472109D01*
X179160021Y-99515021D01*
X179117109Y-99579242D01*
X179102040Y-99655000D01*
X179117109Y-99730758D01*
X179160021Y-99794979D01*
X179224242Y-99837891D01*
X179300199Y-99853000D01*
X179949801Y-99853000D01*
X180025758Y-99837891D01*
X180077901Y-99803050D01*
X180079897Y-99802919D01*
X180081008Y-99804582D01*
X180080544Y-99805999D01*
X180065968Y-99823370D01*
X180067682Y-99824808D01*
X180068366Y-99826687D01*
X180067844Y-99827720D01*
X180047855Y-99848688D01*
X180034754Y-99916695D01*
X180060540Y-99981085D01*
X180064688Y-99984679D01*
X180064938Y-99985403D01*
X180080545Y-100004002D01*
X180080892Y-100005972D01*
X180079360Y-100007258D01*
X180077902Y-100006951D01*
X180025758Y-99972109D01*
X179949801Y-99957000D01*
X179300199Y-99957000D01*
X179224242Y-99972109D01*
X179160021Y-100015021D01*
X179117109Y-100079242D01*
X179102040Y-100155000D01*
X179117109Y-100230758D01*
X179160021Y-100294979D01*
X179224242Y-100337891D01*
X179300199Y-100353000D01*
X179949801Y-100353000D01*
X180025758Y-100337891D01*
X180077901Y-100303050D01*
X180079897Y-100302919D01*
X180081008Y-100304582D01*
X180080544Y-100305999D01*
X180065968Y-100323370D01*
X180067682Y-100324808D01*
X180068366Y-100326687D01*
X180067844Y-100327720D01*
X180047855Y-100348688D01*
X180034754Y-100416695D01*
X180060540Y-100481085D01*
X180064688Y-100484679D01*
X180064938Y-100485403D01*
X180080545Y-100504002D01*
X180080892Y-100505972D01*
X180079360Y-100507258D01*
X180077902Y-100506951D01*
X180025758Y-100472109D01*
X179949801Y-100457000D01*
X179300199Y-100457000D01*
X179224242Y-100472109D01*
X179160021Y-100515021D01*
X179117109Y-100579242D01*
X179102040Y-100655000D01*
X179117109Y-100730758D01*
X179160021Y-100794979D01*
X179224242Y-100837891D01*
X179300199Y-100853000D01*
X179949801Y-100853000D01*
X180025758Y-100837891D01*
X180077901Y-100803050D01*
X180079897Y-100802919D01*
X180081008Y-100804582D01*
X180080544Y-100805999D01*
X180065968Y-100823370D01*
X180067682Y-100824808D01*
X180068366Y-100826687D01*
X180067844Y-100827720D01*
X180047855Y-100848688D01*
X180034754Y-100916695D01*
X180060540Y-100981085D01*
X180064688Y-100984679D01*
X180064938Y-100985403D01*
X180080545Y-101004002D01*
X180080892Y-101005972D01*
X180079360Y-101007258D01*
X180077902Y-101006951D01*
X180025758Y-100972109D01*
X179949801Y-100957000D01*
X179300199Y-100957000D01*
X179224242Y-100972109D01*
X179160021Y-101015021D01*
X179117109Y-101079242D01*
X179102040Y-101155000D01*
X179117109Y-101230758D01*
X179160021Y-101294979D01*
X179224242Y-101337891D01*
X179300199Y-101353000D01*
X179949801Y-101353000D01*
X180025758Y-101337891D01*
X180089979Y-101294979D01*
X180091543Y-101292638D01*
X180093337Y-101291753D01*
X180095000Y-101292864D01*
X180095038Y-101294551D01*
X180072481Y-101346093D01*
X180083426Y-101414500D01*
X180120601Y-101457489D01*
X180120977Y-101459453D01*
X180119465Y-101460761D01*
X180118698Y-101460759D01*
X180099801Y-101457000D01*
X179150199Y-101457000D01*
X179131645Y-101460691D01*
X179116087Y-101471087D01*
X179105691Y-101486645D01*
X179102000Y-101505199D01*
X179102000Y-101804801D01*
X179105691Y-101823355D01*
X179112821Y-101834026D01*
X179112952Y-101836022D01*
X179111289Y-101837133D01*
X179110047Y-101836800D01*
X179097215Y-101828226D01*
X179097043Y-101828098D01*
X179066075Y-101802217D01*
X178997284Y-101793575D01*
X178949257Y-101812472D01*
X178947279Y-101812176D01*
X178946547Y-101810315D01*
X178946862Y-101809500D01*
X178954309Y-101798355D01*
X178958000Y-101779801D01*
X178958000Y-100913305D01*
X178959000Y-100911573D01*
X178961000Y-100911573D01*
X178961919Y-100912742D01*
X178981595Y-100979754D01*
X179033938Y-101025109D01*
X179102491Y-101034966D01*
X179152563Y-101012098D01*
X179153271Y-101012166D01*
X179154151Y-101011657D01*
X179154364Y-101011434D01*
X179154980Y-101010995D01*
X179165689Y-101006104D01*
X179179267Y-100992309D01*
X179184031Y-100986631D01*
X179182317Y-100985193D01*
X179181633Y-100983314D01*
X179182155Y-100982281D01*
X179202145Y-100961312D01*
X179215246Y-100893305D01*
X179189460Y-100828914D01*
X179185310Y-100825318D01*
X179185060Y-100824594D01*
X179179404Y-100817854D01*
X179167848Y-100810166D01*
X179167646Y-100810013D01*
X179154325Y-100798471D01*
X179154265Y-100798575D01*
X179152533Y-100799575D01*
X179151425Y-100799240D01*
X179121494Y-100779327D01*
X179052242Y-100778228D01*
X178993394Y-100814741D01*
X178963534Y-100877476D01*
X178961994Y-100896843D01*
X178960860Y-100898491D01*
X178958866Y-100898332D01*
X178958000Y-100896685D01*
X178958000Y-100413305D01*
X178959000Y-100411573D01*
X178961000Y-100411573D01*
X178961919Y-100412742D01*
X178981595Y-100479754D01*
X179033938Y-100525109D01*
X179102491Y-100534966D01*
X179152563Y-100512098D01*
X179153271Y-100512166D01*
X179154151Y-100511657D01*
X179154364Y-100511434D01*
X179154980Y-100510995D01*
X179165689Y-100506104D01*
X179179267Y-100492309D01*
X179184031Y-100486631D01*
X179182317Y-100485193D01*
X179181633Y-100483314D01*
X179182155Y-100482281D01*
X179202145Y-100461312D01*
X179215246Y-100393305D01*
X179189460Y-100328914D01*
X179185310Y-100325318D01*
X179185060Y-100324594D01*
X179179404Y-100317854D01*
X179167848Y-100310166D01*
X179167646Y-100310013D01*
X179154325Y-100298471D01*
X179154265Y-100298575D01*
X179152533Y-100299575D01*
X179151425Y-100299240D01*
X179121494Y-100279327D01*
X179052242Y-100278228D01*
X178993394Y-100314741D01*
X178963534Y-100377476D01*
X178961994Y-100396843D01*
X178960860Y-100398491D01*
X178958866Y-100398332D01*
X178958000Y-100396685D01*
X178958000Y-99913302D01*
X178959000Y-99911570D01*
X178961000Y-99911570D01*
X178961919Y-99912739D01*
X178981596Y-99979753D01*
X179033939Y-100025108D01*
X179102492Y-100034965D01*
X179152563Y-100012098D01*
X179153271Y-100012166D01*
X179154151Y-100011657D01*
X179154365Y-100011433D01*
X179154981Y-100010994D01*
X179165690Y-100006103D01*
X179179269Y-99992306D01*
X179184032Y-99986629D01*
X179182319Y-99985192D01*
X179181634Y-99983313D01*
X179182156Y-99982280D01*
X179202145Y-99961312D01*
X179215246Y-99893305D01*
X179189460Y-99828915D01*
X179185312Y-99825321D01*
X179185062Y-99824597D01*
X179179406Y-99817857D01*
X179167854Y-99810172D01*
X179167652Y-99810018D01*
X179154325Y-99798470D01*
X179154264Y-99798576D01*
X179152531Y-99799575D01*
X179151424Y-99799240D01*
X179121496Y-99779328D01*
X179052245Y-99778229D01*
X178993396Y-99814742D01*
X178963535Y-99877475D01*
X178961994Y-99896856D01*
X178960860Y-99898504D01*
X178958866Y-99898345D01*
X178958000Y-99896698D01*
X178958000Y-99413302D01*
X178959000Y-99411570D01*
X178961000Y-99411570D01*
X178961919Y-99412739D01*
X178981596Y-99479753D01*
X179033939Y-99525108D01*
X179102492Y-99534965D01*
X179152563Y-99512098D01*
X179153271Y-99512166D01*
X179154151Y-99511657D01*
X179154365Y-99511433D01*
X179154981Y-99510994D01*
X179165690Y-99506103D01*
X179179269Y-99492306D01*
X179184032Y-99486629D01*
X179182319Y-99485192D01*
X179181634Y-99483313D01*
X179182156Y-99482280D01*
X179202145Y-99461312D01*
X179215246Y-99393305D01*
X179189460Y-99328915D01*
X179185318Y-99325326D01*
X179185068Y-99324602D01*
X179179414Y-99317864D01*
X179167855Y-99310172D01*
X179167653Y-99310019D01*
X179154325Y-99298471D01*
X179154265Y-99298575D01*
X179152533Y-99299575D01*
X179151425Y-99299240D01*
X179121503Y-99279330D01*
X179052254Y-99278225D01*
X178993402Y-99314736D01*
X178963537Y-99377466D01*
X178961994Y-99396857D01*
X178960859Y-99398504D01*
X178958866Y-99398345D01*
X178958000Y-99396698D01*
X178958000Y-98913305D01*
X178959000Y-98911573D01*
X178961000Y-98911573D01*
X178961919Y-98912742D01*
X178981595Y-98979754D01*
X179033938Y-99025109D01*
X179102491Y-99034966D01*
X179152563Y-99012098D01*
X179153271Y-99012166D01*
X179154151Y-99011657D01*
X179154364Y-99011434D01*
X179154980Y-99010995D01*
X179165689Y-99006104D01*
X179179267Y-98992309D01*
X179184031Y-98986631D01*
X179182317Y-98985193D01*
X179181633Y-98983314D01*
X179182155Y-98982281D01*
X179202145Y-98961312D01*
X179215246Y-98893305D01*
X179189460Y-98828914D01*
X179185310Y-98825318D01*
X179185060Y-98824594D01*
X179179404Y-98817854D01*
X179167848Y-98810166D01*
X179167646Y-98810013D01*
X179154325Y-98798471D01*
X179154265Y-98798575D01*
X179152533Y-98799575D01*
X179151425Y-98799240D01*
X179121494Y-98779327D01*
X179052242Y-98778228D01*
X178993394Y-98814741D01*
X178963534Y-98877476D01*
X178961994Y-98896843D01*
X178960860Y-98898491D01*
X178958866Y-98898332D01*
X178958000Y-98896685D01*
X178958000Y-98530199D01*
X178955099Y-98515616D01*
X178955742Y-98513722D01*
X178957704Y-98513332D01*
X178958344Y-98513691D01*
G37*
G36*
X175614559Y-98515636D02*
G01*
X175614669Y-98516782D01*
X175612000Y-98530199D01*
X175612000Y-98896698D01*
X175611000Y-98898430D01*
X175609000Y-98898430D01*
X175608081Y-98897261D01*
X175588404Y-98830247D01*
X175536061Y-98784892D01*
X175467508Y-98775035D01*
X175417437Y-98797902D01*
X175416729Y-98797834D01*
X175415849Y-98798343D01*
X175415635Y-98798567D01*
X175415019Y-98799006D01*
X175404310Y-98803897D01*
X175390731Y-98817694D01*
X175385968Y-98823371D01*
X175387681Y-98824808D01*
X175388366Y-98826687D01*
X175387844Y-98827720D01*
X175367855Y-98848688D01*
X175354754Y-98916695D01*
X175380540Y-98981085D01*
X175384688Y-98984679D01*
X175384938Y-98985403D01*
X175390594Y-98992143D01*
X175402146Y-98999828D01*
X175402348Y-98999982D01*
X175415675Y-99011530D01*
X175415736Y-99011424D01*
X175417469Y-99010425D01*
X175418576Y-99010760D01*
X175448504Y-99030672D01*
X175517755Y-99031771D01*
X175576604Y-98995258D01*
X175606465Y-98932525D01*
X175608006Y-98913144D01*
X175609140Y-98911496D01*
X175611134Y-98911655D01*
X175612000Y-98913302D01*
X175612000Y-99396695D01*
X175611000Y-99398427D01*
X175609000Y-99398427D01*
X175608081Y-99397258D01*
X175588405Y-99330246D01*
X175536062Y-99284891D01*
X175467509Y-99275034D01*
X175417437Y-99297902D01*
X175416729Y-99297834D01*
X175415849Y-99298343D01*
X175415636Y-99298566D01*
X175415020Y-99299005D01*
X175404311Y-99303896D01*
X175390733Y-99317691D01*
X175385969Y-99323369D01*
X175387683Y-99324807D01*
X175388367Y-99326686D01*
X175387845Y-99327719D01*
X175367855Y-99348688D01*
X175354754Y-99416695D01*
X175380540Y-99481086D01*
X175384690Y-99484682D01*
X175384940Y-99485406D01*
X175390596Y-99492146D01*
X175402152Y-99499834D01*
X175402354Y-99499987D01*
X175415675Y-99511529D01*
X175415735Y-99511425D01*
X175417467Y-99510425D01*
X175418575Y-99510760D01*
X175448506Y-99530673D01*
X175517758Y-99531772D01*
X175576606Y-99495259D01*
X175606466Y-99432524D01*
X175608006Y-99413157D01*
X175609140Y-99411509D01*
X175611134Y-99411668D01*
X175612000Y-99413315D01*
X175612000Y-99896695D01*
X175611000Y-99898427D01*
X175609000Y-99898427D01*
X175608081Y-99897258D01*
X175588405Y-99830246D01*
X175536062Y-99784891D01*
X175467509Y-99775034D01*
X175417437Y-99797902D01*
X175416729Y-99797834D01*
X175415849Y-99798343D01*
X175415636Y-99798566D01*
X175415020Y-99799005D01*
X175404311Y-99803896D01*
X175390733Y-99817691D01*
X175385969Y-99823369D01*
X175387683Y-99824807D01*
X175388367Y-99826686D01*
X175387845Y-99827719D01*
X175367855Y-99848688D01*
X175354754Y-99916695D01*
X175380540Y-99981086D01*
X175384690Y-99984682D01*
X175384940Y-99985406D01*
X175390596Y-99992146D01*
X175402152Y-99999834D01*
X175402354Y-99999987D01*
X175415675Y-100011529D01*
X175415735Y-100011425D01*
X175417467Y-100010425D01*
X175418575Y-100010760D01*
X175448506Y-100030673D01*
X175517758Y-100031772D01*
X175576606Y-99995259D01*
X175606466Y-99932524D01*
X175608006Y-99913157D01*
X175609140Y-99911509D01*
X175611134Y-99911668D01*
X175612000Y-99913315D01*
X175612000Y-100396698D01*
X175611000Y-100398430D01*
X175609000Y-100398430D01*
X175608081Y-100397261D01*
X175588404Y-100330247D01*
X175536061Y-100284892D01*
X175467508Y-100275035D01*
X175417437Y-100297902D01*
X175416729Y-100297834D01*
X175415849Y-100298343D01*
X175415635Y-100298567D01*
X175415019Y-100299006D01*
X175404310Y-100303897D01*
X175390731Y-100317694D01*
X175385968Y-100323371D01*
X175387681Y-100324808D01*
X175388366Y-100326687D01*
X175387844Y-100327720D01*
X175367855Y-100348688D01*
X175354754Y-100416695D01*
X175380540Y-100481085D01*
X175384688Y-100484679D01*
X175384938Y-100485403D01*
X175390594Y-100492143D01*
X175402146Y-100499828D01*
X175402348Y-100499982D01*
X175415675Y-100511530D01*
X175415736Y-100511424D01*
X175417469Y-100510425D01*
X175418576Y-100510760D01*
X175448504Y-100530672D01*
X175517755Y-100531771D01*
X175576604Y-100495258D01*
X175606465Y-100432525D01*
X175608006Y-100413144D01*
X175609140Y-100411496D01*
X175611134Y-100411655D01*
X175612000Y-100413302D01*
X175612000Y-100896698D01*
X175611000Y-100898430D01*
X175609000Y-100898430D01*
X175608081Y-100897261D01*
X175588404Y-100830247D01*
X175536061Y-100784892D01*
X175467508Y-100775035D01*
X175417437Y-100797902D01*
X175416729Y-100797834D01*
X175415849Y-100798343D01*
X175415635Y-100798567D01*
X175415019Y-100799006D01*
X175404310Y-100803897D01*
X175390731Y-100817694D01*
X175385968Y-100823371D01*
X175387681Y-100824808D01*
X175388366Y-100826687D01*
X175387844Y-100827720D01*
X175367855Y-100848688D01*
X175354754Y-100916695D01*
X175380540Y-100981085D01*
X175384682Y-100984674D01*
X175384932Y-100985398D01*
X175390586Y-100992136D01*
X175402145Y-100999828D01*
X175402347Y-100999981D01*
X175415675Y-101011529D01*
X175415735Y-101011425D01*
X175417467Y-101010425D01*
X175418575Y-101010760D01*
X175448497Y-101030670D01*
X175517746Y-101031775D01*
X175576598Y-100995264D01*
X175606463Y-100932534D01*
X175608006Y-100913143D01*
X175609141Y-100911496D01*
X175611134Y-100911655D01*
X175612000Y-100913302D01*
X175612000Y-101396695D01*
X175611000Y-101398427D01*
X175609000Y-101398427D01*
X175608081Y-101397258D01*
X175588405Y-101330246D01*
X175536062Y-101284891D01*
X175467509Y-101275034D01*
X175417437Y-101297902D01*
X175416729Y-101297834D01*
X175415849Y-101298343D01*
X175415636Y-101298566D01*
X175415020Y-101299005D01*
X175404311Y-101303896D01*
X175390733Y-101317691D01*
X175385969Y-101323369D01*
X175387683Y-101324807D01*
X175388367Y-101326686D01*
X175387845Y-101327719D01*
X175367855Y-101348688D01*
X175354754Y-101416695D01*
X175380540Y-101481086D01*
X175384690Y-101484682D01*
X175384940Y-101485406D01*
X175390596Y-101492146D01*
X175402152Y-101499834D01*
X175402354Y-101499987D01*
X175415675Y-101511529D01*
X175415735Y-101511425D01*
X175417467Y-101510425D01*
X175418575Y-101510760D01*
X175448506Y-101530673D01*
X175517758Y-101531772D01*
X175576606Y-101495259D01*
X175606466Y-101432524D01*
X175608006Y-101413157D01*
X175609140Y-101411509D01*
X175611134Y-101411668D01*
X175612000Y-101413315D01*
X175612000Y-101779801D01*
X175614901Y-101794384D01*
X175614258Y-101796278D01*
X175612296Y-101796668D01*
X175611656Y-101796309D01*
X175559970Y-101753115D01*
X175491254Y-101744484D01*
X175428572Y-101774473D01*
X175428185Y-101774873D01*
X175426262Y-101775422D01*
X175424825Y-101774031D01*
X175425085Y-101772371D01*
X175452891Y-101730758D01*
X175467960Y-101655000D01*
X175452891Y-101579242D01*
X175409979Y-101515021D01*
X175345758Y-101472109D01*
X175269801Y-101457000D01*
X174620199Y-101457000D01*
X174544242Y-101472109D01*
X174492099Y-101506950D01*
X174490103Y-101507081D01*
X174488992Y-101505418D01*
X174489456Y-101504001D01*
X174504032Y-101486630D01*
X174502318Y-101485192D01*
X174501634Y-101483313D01*
X174502156Y-101482280D01*
X174522145Y-101461312D01*
X174535246Y-101393305D01*
X174509460Y-101328915D01*
X174505312Y-101325321D01*
X174505062Y-101324597D01*
X174489455Y-101305998D01*
X174489108Y-101304028D01*
X174490640Y-101302742D01*
X174492098Y-101303049D01*
X174544242Y-101337891D01*
X174620199Y-101353000D01*
X175269801Y-101353000D01*
X175345758Y-101337891D01*
X175409979Y-101294979D01*
X175452891Y-101230758D01*
X175467960Y-101155000D01*
X175452891Y-101079242D01*
X175409979Y-101015021D01*
X175345758Y-100972109D01*
X175269801Y-100957000D01*
X174620199Y-100957000D01*
X174544242Y-100972109D01*
X174492099Y-101006950D01*
X174490103Y-101007081D01*
X174488992Y-101005418D01*
X174489456Y-101004001D01*
X174504032Y-100986630D01*
X174502318Y-100985192D01*
X174501634Y-100983313D01*
X174502156Y-100982280D01*
X174522145Y-100961312D01*
X174535246Y-100893305D01*
X174509460Y-100828915D01*
X174505312Y-100825321D01*
X174505062Y-100824597D01*
X174489455Y-100805998D01*
X174489108Y-100804028D01*
X174490640Y-100802742D01*
X174492098Y-100803049D01*
X174544242Y-100837891D01*
X174620199Y-100853000D01*
X175269801Y-100853000D01*
X175345758Y-100837891D01*
X175409979Y-100794979D01*
X175452891Y-100730758D01*
X175467960Y-100655000D01*
X175452891Y-100579242D01*
X175409979Y-100515021D01*
X175345758Y-100472109D01*
X175269801Y-100457000D01*
X174620199Y-100457000D01*
X174544242Y-100472109D01*
X174492099Y-100506950D01*
X174490103Y-100507081D01*
X174488992Y-100505418D01*
X174489456Y-100504001D01*
X174504032Y-100486630D01*
X174502318Y-100485192D01*
X174501634Y-100483313D01*
X174502156Y-100482280D01*
X174522145Y-100461312D01*
X174535246Y-100393305D01*
X174509460Y-100328915D01*
X174505312Y-100325321D01*
X174505062Y-100324597D01*
X174489455Y-100305998D01*
X174489108Y-100304028D01*
X174490640Y-100302742D01*
X174492098Y-100303049D01*
X174544242Y-100337891D01*
X174620199Y-100353000D01*
X175269801Y-100353000D01*
X175345758Y-100337891D01*
X175409979Y-100294979D01*
X175452891Y-100230758D01*
X175467960Y-100155000D01*
X175452891Y-100079242D01*
X175409979Y-100015021D01*
X175345758Y-99972109D01*
X175269801Y-99957000D01*
X174620199Y-99957000D01*
X174544242Y-99972109D01*
X174492099Y-100006950D01*
X174490103Y-100007081D01*
X174488992Y-100005418D01*
X174489456Y-100004001D01*
X174504032Y-99986630D01*
X174502318Y-99985192D01*
X174501634Y-99983313D01*
X174502156Y-99982280D01*
X174522145Y-99961312D01*
X174535246Y-99893305D01*
X174509460Y-99828915D01*
X174505312Y-99825321D01*
X174505062Y-99824597D01*
X174489455Y-99805998D01*
X174489108Y-99804028D01*
X174490640Y-99802742D01*
X174492098Y-99803049D01*
X174544242Y-99837891D01*
X174620199Y-99853000D01*
X175269801Y-99853000D01*
X175345758Y-99837891D01*
X175409979Y-99794979D01*
X175452891Y-99730758D01*
X175467960Y-99655000D01*
X175452891Y-99579242D01*
X175409979Y-99515021D01*
X175345758Y-99472109D01*
X175269801Y-99457000D01*
X174620199Y-99457000D01*
X174544242Y-99472109D01*
X174492099Y-99506950D01*
X174490103Y-99507081D01*
X174488992Y-99505418D01*
X174489456Y-99504001D01*
X174504032Y-99486630D01*
X174502318Y-99485192D01*
X174501634Y-99483313D01*
X174502156Y-99482280D01*
X174522145Y-99461312D01*
X174535246Y-99393305D01*
X174509460Y-99328915D01*
X174505312Y-99325321D01*
X174505062Y-99324597D01*
X174489455Y-99305998D01*
X174489108Y-99304028D01*
X174490640Y-99302742D01*
X174492098Y-99303049D01*
X174544242Y-99337891D01*
X174620199Y-99353000D01*
X175269801Y-99353000D01*
X175345758Y-99337891D01*
X175409979Y-99294979D01*
X175452891Y-99230758D01*
X175467960Y-99155000D01*
X175452891Y-99079242D01*
X175409979Y-99015021D01*
X175345758Y-98972109D01*
X175269801Y-98957000D01*
X174620199Y-98957000D01*
X174544242Y-98972109D01*
X174492099Y-99006950D01*
X174490103Y-99007081D01*
X174488992Y-99005418D01*
X174489456Y-99004001D01*
X174504032Y-98986630D01*
X174502318Y-98985192D01*
X174501634Y-98983313D01*
X174502156Y-98982280D01*
X174522145Y-98961312D01*
X174535246Y-98893305D01*
X174509460Y-98828915D01*
X174505312Y-98825321D01*
X174505062Y-98824597D01*
X174489455Y-98805998D01*
X174489108Y-98804028D01*
X174490640Y-98802742D01*
X174492098Y-98803049D01*
X174544242Y-98837891D01*
X174620199Y-98853000D01*
X175269801Y-98853000D01*
X175345758Y-98837891D01*
X175409979Y-98794979D01*
X175452891Y-98730758D01*
X175467960Y-98655000D01*
X175452891Y-98579242D01*
X175419942Y-98529931D01*
X175419811Y-98527935D01*
X175421474Y-98526824D01*
X175422713Y-98527155D01*
X175474418Y-98561555D01*
X175543670Y-98562654D01*
X175602711Y-98526021D01*
X175611126Y-98515167D01*
X175612978Y-98514410D01*
X175614559Y-98515636D01*
G37*
G36*
X108849011Y-98330678D02*
G01*
X108849401Y-98332640D01*
X108848415Y-98333779D01*
X108835498Y-98340361D01*
X108784929Y-98388121D01*
X108768280Y-98455347D01*
X108790666Y-98521037D01*
X108816840Y-98548150D01*
X108838604Y-98564670D01*
X108839379Y-98566514D01*
X108838170Y-98568107D01*
X108836487Y-98568045D01*
X108746343Y-98522114D01*
X108619345Y-98502000D01*
X107894655Y-98502000D01*
X107767657Y-98522114D01*
X107677513Y-98568045D01*
X107675516Y-98567940D01*
X107674608Y-98566158D01*
X107675396Y-98564670D01*
X107697054Y-98548230D01*
X107738366Y-98492270D01*
X107742846Y-98423156D01*
X107709181Y-98362469D01*
X107678621Y-98340421D01*
X107665585Y-98333779D01*
X107664496Y-98332102D01*
X107665404Y-98330320D01*
X107666883Y-98330035D01*
X107757199Y-98348000D01*
X108756801Y-98348000D01*
X108847117Y-98330035D01*
X108849011Y-98330678D01*
G37*
G36*
X178435999Y-97359456D02*
G01*
X178453370Y-97374032D01*
X178454808Y-97372318D01*
X178456687Y-97371634D01*
X178457720Y-97372156D01*
X178478688Y-97392145D01*
X178546695Y-97405246D01*
X178611085Y-97379460D01*
X178614679Y-97375312D01*
X178615403Y-97375062D01*
X178634002Y-97359455D01*
X178635972Y-97359108D01*
X178637258Y-97360640D01*
X178636951Y-97362098D01*
X178602109Y-97414242D01*
X178587000Y-97490199D01*
X178587000Y-98139801D01*
X178602109Y-98215758D01*
X178645021Y-98279979D01*
X178709242Y-98322891D01*
X178785000Y-98337960D01*
X178860758Y-98322891D01*
X178910069Y-98289942D01*
X178912065Y-98289811D01*
X178913176Y-98291474D01*
X178912845Y-98292713D01*
X178878445Y-98344418D01*
X178877346Y-98413670D01*
X178913979Y-98472711D01*
X178924833Y-98481126D01*
X178925590Y-98482978D01*
X178924364Y-98484559D01*
X178923218Y-98484669D01*
X178909801Y-98482000D01*
X178543301Y-98482000D01*
X178541569Y-98481000D01*
X178541569Y-98479000D01*
X178542738Y-98478081D01*
X178609753Y-98458404D01*
X178655108Y-98406061D01*
X178664965Y-98337508D01*
X178642098Y-98287437D01*
X178642166Y-98286729D01*
X178641657Y-98285849D01*
X178641433Y-98285635D01*
X178640994Y-98285019D01*
X178636103Y-98274310D01*
X178622306Y-98260731D01*
X178616629Y-98255968D01*
X178615192Y-98257681D01*
X178613313Y-98258366D01*
X178612280Y-98257844D01*
X178591312Y-98237855D01*
X178523305Y-98224754D01*
X178458915Y-98250540D01*
X178455321Y-98254688D01*
X178454597Y-98254938D01*
X178447857Y-98260594D01*
X178440172Y-98272146D01*
X178440018Y-98272348D01*
X178428470Y-98285675D01*
X178428576Y-98285736D01*
X178429575Y-98287469D01*
X178429240Y-98288576D01*
X178409328Y-98318504D01*
X178408229Y-98387755D01*
X178444742Y-98446604D01*
X178507475Y-98476465D01*
X178526857Y-98478006D01*
X178528505Y-98479140D01*
X178528346Y-98481134D01*
X178526699Y-98482000D01*
X178043305Y-98482000D01*
X178041573Y-98481000D01*
X178041573Y-98479000D01*
X178042742Y-98478081D01*
X178109754Y-98458405D01*
X178155109Y-98406062D01*
X178164966Y-98337509D01*
X178142098Y-98287437D01*
X178142166Y-98286729D01*
X178141657Y-98285849D01*
X178141434Y-98285636D01*
X178140995Y-98285020D01*
X178136104Y-98274311D01*
X178122309Y-98260733D01*
X178116631Y-98255969D01*
X178115193Y-98257683D01*
X178113314Y-98258367D01*
X178112281Y-98257845D01*
X178091312Y-98237855D01*
X178023305Y-98224754D01*
X177958914Y-98250540D01*
X177955318Y-98254690D01*
X177954594Y-98254940D01*
X177947854Y-98260596D01*
X177940166Y-98272152D01*
X177940013Y-98272354D01*
X177928471Y-98285675D01*
X177928575Y-98285735D01*
X177929575Y-98287467D01*
X177929240Y-98288575D01*
X177909327Y-98318506D01*
X177908228Y-98387758D01*
X177944741Y-98446606D01*
X178007476Y-98476466D01*
X178026843Y-98478006D01*
X178028491Y-98479140D01*
X178028332Y-98481134D01*
X178026685Y-98482000D01*
X177543305Y-98482000D01*
X177541573Y-98481000D01*
X177541573Y-98479000D01*
X177542742Y-98478081D01*
X177609754Y-98458405D01*
X177655109Y-98406062D01*
X177664966Y-98337509D01*
X177642098Y-98287437D01*
X177642166Y-98286729D01*
X177641657Y-98285849D01*
X177641434Y-98285636D01*
X177640995Y-98285020D01*
X177636104Y-98274311D01*
X177622309Y-98260733D01*
X177616631Y-98255969D01*
X177615193Y-98257683D01*
X177613314Y-98258367D01*
X177612281Y-98257845D01*
X177591312Y-98237855D01*
X177523305Y-98224754D01*
X177458914Y-98250540D01*
X177455318Y-98254690D01*
X177454594Y-98254940D01*
X177447854Y-98260596D01*
X177440166Y-98272152D01*
X177440013Y-98272354D01*
X177428471Y-98285675D01*
X177428575Y-98285735D01*
X177429575Y-98287467D01*
X177429240Y-98288575D01*
X177409327Y-98318506D01*
X177408228Y-98387758D01*
X177444741Y-98446606D01*
X177507476Y-98476466D01*
X177526843Y-98478006D01*
X177528491Y-98479140D01*
X177528332Y-98481134D01*
X177526685Y-98482000D01*
X177043301Y-98482000D01*
X177041569Y-98481000D01*
X177041569Y-98479000D01*
X177042738Y-98478081D01*
X177109753Y-98458404D01*
X177155108Y-98406061D01*
X177164965Y-98337508D01*
X177142098Y-98287437D01*
X177142166Y-98286729D01*
X177141657Y-98285849D01*
X177141433Y-98285635D01*
X177140994Y-98285019D01*
X177136103Y-98274310D01*
X177122306Y-98260731D01*
X177116629Y-98255968D01*
X177115192Y-98257681D01*
X177113313Y-98258366D01*
X177112280Y-98257844D01*
X177091312Y-98237855D01*
X177023305Y-98224754D01*
X176958915Y-98250540D01*
X176955321Y-98254688D01*
X176954597Y-98254938D01*
X176947857Y-98260594D01*
X176940172Y-98272146D01*
X176940018Y-98272348D01*
X176928470Y-98285675D01*
X176928576Y-98285736D01*
X176929575Y-98287469D01*
X176929240Y-98288576D01*
X176909328Y-98318504D01*
X176908229Y-98387755D01*
X176944742Y-98446604D01*
X177007475Y-98476465D01*
X177026857Y-98478006D01*
X177028505Y-98479140D01*
X177028346Y-98481134D01*
X177026699Y-98482000D01*
X176043305Y-98482000D01*
X176041573Y-98481000D01*
X176041573Y-98479000D01*
X176042742Y-98478081D01*
X176109754Y-98458405D01*
X176155109Y-98406062D01*
X176157743Y-98387746D01*
X176408225Y-98387746D01*
X176444736Y-98446598D01*
X176507466Y-98476463D01*
X176526782Y-98478000D01*
X176543014Y-98478000D01*
X176609753Y-98458404D01*
X176655108Y-98406061D01*
X176664965Y-98337508D01*
X176642098Y-98287437D01*
X176642166Y-98286729D01*
X176641657Y-98285849D01*
X176641433Y-98285635D01*
X176640994Y-98285019D01*
X176636103Y-98274310D01*
X176622306Y-98260731D01*
X176616629Y-98255968D01*
X176615192Y-98257681D01*
X176613313Y-98258366D01*
X176612280Y-98257844D01*
X176591312Y-98237855D01*
X176523305Y-98224754D01*
X176458915Y-98250540D01*
X176455326Y-98254682D01*
X176454602Y-98254932D01*
X176447864Y-98260586D01*
X176440172Y-98272145D01*
X176440019Y-98272347D01*
X176428471Y-98285675D01*
X176428575Y-98285735D01*
X176429575Y-98287467D01*
X176429240Y-98288575D01*
X176409330Y-98318497D01*
X176408225Y-98387746D01*
X176157743Y-98387746D01*
X176164966Y-98337509D01*
X176142098Y-98287437D01*
X176142166Y-98286729D01*
X176141657Y-98285849D01*
X176141434Y-98285636D01*
X176140995Y-98285020D01*
X176136104Y-98274311D01*
X176122309Y-98260733D01*
X176116631Y-98255969D01*
X176115193Y-98257683D01*
X176113314Y-98258367D01*
X176112281Y-98257845D01*
X176091312Y-98237855D01*
X176023305Y-98224754D01*
X175958914Y-98250540D01*
X175955318Y-98254690D01*
X175954594Y-98254940D01*
X175947854Y-98260596D01*
X175940166Y-98272152D01*
X175940013Y-98272354D01*
X175928471Y-98285675D01*
X175928575Y-98285735D01*
X175929575Y-98287467D01*
X175929240Y-98288575D01*
X175909327Y-98318506D01*
X175908228Y-98387758D01*
X175944741Y-98446606D01*
X176007476Y-98476466D01*
X176026843Y-98478006D01*
X176028491Y-98479140D01*
X176028332Y-98481134D01*
X176026685Y-98482000D01*
X175660199Y-98482000D01*
X175645616Y-98484901D01*
X175643722Y-98484258D01*
X175643332Y-98482296D01*
X175643691Y-98481656D01*
X175686885Y-98429970D01*
X175695516Y-98361254D01*
X175665527Y-98298572D01*
X175665127Y-98298185D01*
X175664578Y-98296262D01*
X175665969Y-98294825D01*
X175667629Y-98295085D01*
X175709242Y-98322891D01*
X175785000Y-98337960D01*
X175860758Y-98322891D01*
X175924979Y-98279979D01*
X175967891Y-98215758D01*
X175983000Y-98139801D01*
X175983000Y-97490199D01*
X175967891Y-97414242D01*
X175933050Y-97362099D01*
X175932919Y-97360103D01*
X175934582Y-97358992D01*
X175935999Y-97359456D01*
X175953370Y-97374032D01*
X175954808Y-97372318D01*
X175956687Y-97371634D01*
X175957720Y-97372156D01*
X175978688Y-97392145D01*
X176046695Y-97405246D01*
X176111085Y-97379460D01*
X176114679Y-97375312D01*
X176115403Y-97375062D01*
X176134002Y-97359455D01*
X176135972Y-97359108D01*
X176137258Y-97360640D01*
X176136951Y-97362098D01*
X176102109Y-97414242D01*
X176087000Y-97490199D01*
X176087000Y-98139801D01*
X176102109Y-98215758D01*
X176145021Y-98279979D01*
X176209242Y-98322891D01*
X176285000Y-98337960D01*
X176360758Y-98322891D01*
X176424979Y-98279979D01*
X176467891Y-98215758D01*
X176483000Y-98139801D01*
X176483000Y-97490199D01*
X176467891Y-97414242D01*
X176433050Y-97362099D01*
X176432919Y-97360103D01*
X176434582Y-97358992D01*
X176435999Y-97359456D01*
X176453370Y-97374032D01*
X176454808Y-97372318D01*
X176456687Y-97371634D01*
X176457720Y-97372156D01*
X176478688Y-97392145D01*
X176546695Y-97405246D01*
X176611085Y-97379460D01*
X176614679Y-97375312D01*
X176615403Y-97375062D01*
X176634002Y-97359455D01*
X176635972Y-97359108D01*
X176637258Y-97360640D01*
X176636951Y-97362098D01*
X176602109Y-97414242D01*
X176587000Y-97490199D01*
X176587000Y-98139801D01*
X176602109Y-98215758D01*
X176645021Y-98279979D01*
X176709242Y-98322891D01*
X176785000Y-98337960D01*
X176860758Y-98322891D01*
X176924979Y-98279979D01*
X176967891Y-98215758D01*
X176983000Y-98139801D01*
X176983000Y-97490199D01*
X176967891Y-97414242D01*
X176933050Y-97362099D01*
X176932919Y-97360103D01*
X176934582Y-97358992D01*
X176935999Y-97359456D01*
X176953370Y-97374032D01*
X176954808Y-97372318D01*
X176956687Y-97371634D01*
X176957720Y-97372156D01*
X176978688Y-97392145D01*
X177046695Y-97405246D01*
X177111085Y-97379460D01*
X177114679Y-97375312D01*
X177115403Y-97375062D01*
X177134002Y-97359455D01*
X177135972Y-97359108D01*
X177137258Y-97360640D01*
X177136951Y-97362098D01*
X177102109Y-97414242D01*
X177087000Y-97490199D01*
X177087000Y-98139801D01*
X177102109Y-98215758D01*
X177145021Y-98279979D01*
X177209242Y-98322891D01*
X177285000Y-98337960D01*
X177360758Y-98322891D01*
X177424979Y-98279979D01*
X177467891Y-98215758D01*
X177483000Y-98139801D01*
X177483000Y-97490199D01*
X177467891Y-97414242D01*
X177433050Y-97362099D01*
X177432919Y-97360103D01*
X177434582Y-97358992D01*
X177435999Y-97359456D01*
X177453370Y-97374032D01*
X177454808Y-97372318D01*
X177456687Y-97371634D01*
X177457720Y-97372156D01*
X177478688Y-97392145D01*
X177546695Y-97405246D01*
X177611085Y-97379460D01*
X177614679Y-97375312D01*
X177615403Y-97375062D01*
X177634002Y-97359455D01*
X177635972Y-97359108D01*
X177637258Y-97360640D01*
X177636951Y-97362098D01*
X177602109Y-97414242D01*
X177587000Y-97490199D01*
X177587000Y-98139801D01*
X177602109Y-98215758D01*
X177645021Y-98279979D01*
X177709242Y-98322891D01*
X177785000Y-98337960D01*
X177860758Y-98322891D01*
X177924979Y-98279979D01*
X177967891Y-98215758D01*
X177983000Y-98139801D01*
X177983000Y-97490199D01*
X177967891Y-97414242D01*
X177933050Y-97362099D01*
X177932919Y-97360103D01*
X177934582Y-97358992D01*
X177935999Y-97359456D01*
X177953370Y-97374032D01*
X177954808Y-97372318D01*
X177956687Y-97371634D01*
X177957720Y-97372156D01*
X177978688Y-97392145D01*
X178046695Y-97405246D01*
X178111085Y-97379460D01*
X178114679Y-97375312D01*
X178115403Y-97375062D01*
X178134002Y-97359455D01*
X178135972Y-97359108D01*
X178137258Y-97360640D01*
X178136951Y-97362098D01*
X178102109Y-97414242D01*
X178087000Y-97490199D01*
X178087000Y-98139801D01*
X178102109Y-98215758D01*
X178145021Y-98279979D01*
X178209242Y-98322891D01*
X178285000Y-98337960D01*
X178360758Y-98322891D01*
X178424979Y-98279979D01*
X178467891Y-98215758D01*
X178483000Y-98139801D01*
X178483000Y-97490199D01*
X178467891Y-97414242D01*
X178433050Y-97362099D01*
X178432919Y-97360103D01*
X178434582Y-97358992D01*
X178435999Y-97359456D01*
G37*
G36*
X155024962Y-92941923D02*
G01*
X155025424Y-92944247D01*
X155057663Y-93005879D01*
X155117847Y-93040152D01*
X155186976Y-93036447D01*
X155238577Y-92997009D01*
X155240560Y-92996752D01*
X155241774Y-92998341D01*
X155241523Y-92999598D01*
X155184810Y-93097827D01*
X155165000Y-93210177D01*
X155165000Y-93849823D01*
X155184810Y-93962173D01*
X155235011Y-94049124D01*
X155235011Y-94051124D01*
X155233279Y-94052124D01*
X155232252Y-94051840D01*
X155177246Y-94018937D01*
X155108024Y-94021161D01*
X155050954Y-94060485D01*
X155025741Y-94114164D01*
X155024962Y-94118080D01*
X155023643Y-94119584D01*
X155021681Y-94119194D01*
X155021000Y-94117690D01*
X155021000Y-92942313D01*
X155022000Y-92940581D01*
X155024000Y-92940581D01*
X155024962Y-92941923D01*
G37*
G36*
X168557861Y-93014876D02*
G01*
X168566243Y-93023944D01*
X168566577Y-93024436D01*
X168580245Y-93052900D01*
X168626802Y-93104581D01*
X168693616Y-93122808D01*
X168759782Y-93101987D01*
X168792539Y-93069694D01*
X168816239Y-93035404D01*
X168818046Y-93034548D01*
X168819691Y-93035685D01*
X168819616Y-93037541D01*
X168784810Y-93097827D01*
X168765000Y-93210177D01*
X168765000Y-93849823D01*
X168784810Y-93962173D01*
X168831340Y-94042766D01*
X168831340Y-94044766D01*
X168829608Y-94045766D01*
X168828139Y-94045124D01*
X168819757Y-94036056D01*
X168819423Y-94035564D01*
X168805755Y-94007100D01*
X168759198Y-93955419D01*
X168692384Y-93937192D01*
X168626218Y-93958013D01*
X168593461Y-93990306D01*
X168569761Y-94024596D01*
X168567954Y-94025452D01*
X168566309Y-94024315D01*
X168566384Y-94022459D01*
X168601190Y-93962173D01*
X168621000Y-93849823D01*
X168621000Y-93210177D01*
X168601190Y-93097827D01*
X168554660Y-93017234D01*
X168554660Y-93015234D01*
X168556392Y-93014234D01*
X168557861Y-93014876D01*
G37*
G36*
X167757861Y-93014876D02*
G01*
X167766243Y-93023944D01*
X167766577Y-93024436D01*
X167780245Y-93052900D01*
X167826802Y-93104581D01*
X167893616Y-93122808D01*
X167959782Y-93101987D01*
X167992539Y-93069694D01*
X168016239Y-93035404D01*
X168018046Y-93034548D01*
X168019691Y-93035685D01*
X168019616Y-93037541D01*
X167984810Y-93097827D01*
X167965000Y-93210177D01*
X167965000Y-93849823D01*
X167984810Y-93962173D01*
X168031340Y-94042766D01*
X168031340Y-94044766D01*
X168029608Y-94045766D01*
X168028139Y-94045124D01*
X168019757Y-94036056D01*
X168019423Y-94035564D01*
X168005755Y-94007100D01*
X167959198Y-93955419D01*
X167892384Y-93937192D01*
X167826218Y-93958013D01*
X167793461Y-93990306D01*
X167769761Y-94024596D01*
X167767954Y-94025452D01*
X167766309Y-94024315D01*
X167766384Y-94022459D01*
X167801190Y-93962173D01*
X167821000Y-93849823D01*
X167821000Y-93210177D01*
X167801190Y-93097827D01*
X167754660Y-93017234D01*
X167754660Y-93015234D01*
X167756392Y-93014234D01*
X167757861Y-93014876D01*
G37*
G36*
X165357861Y-93014876D02*
G01*
X165366243Y-93023944D01*
X165366577Y-93024436D01*
X165380245Y-93052900D01*
X165426802Y-93104581D01*
X165493616Y-93122808D01*
X165559782Y-93101987D01*
X165592539Y-93069694D01*
X165616239Y-93035404D01*
X165618046Y-93034548D01*
X165619691Y-93035685D01*
X165619616Y-93037541D01*
X165584810Y-93097827D01*
X165565000Y-93210177D01*
X165565000Y-93849823D01*
X165584810Y-93962173D01*
X165631340Y-94042766D01*
X165631340Y-94044766D01*
X165629608Y-94045766D01*
X165628139Y-94045124D01*
X165619757Y-94036056D01*
X165619423Y-94035564D01*
X165605755Y-94007100D01*
X165559198Y-93955419D01*
X165492384Y-93937192D01*
X165426218Y-93958013D01*
X165393461Y-93990306D01*
X165369761Y-94024596D01*
X165367954Y-94025452D01*
X165366309Y-94024315D01*
X165366384Y-94022459D01*
X165401190Y-93962173D01*
X165421000Y-93849823D01*
X165421000Y-93210177D01*
X165401190Y-93097827D01*
X165354660Y-93017234D01*
X165354660Y-93015234D01*
X165356392Y-93014234D01*
X165357861Y-93014876D01*
G37*
G36*
X173357861Y-93014876D02*
G01*
X173366243Y-93023944D01*
X173366577Y-93024436D01*
X173380245Y-93052900D01*
X173426802Y-93104581D01*
X173493616Y-93122808D01*
X173559782Y-93101987D01*
X173592539Y-93069694D01*
X173616239Y-93035404D01*
X173618046Y-93034548D01*
X173619691Y-93035685D01*
X173619616Y-93037541D01*
X173584810Y-93097827D01*
X173565000Y-93210177D01*
X173565000Y-93849823D01*
X173584810Y-93962173D01*
X173631340Y-94042766D01*
X173631340Y-94044766D01*
X173629608Y-94045766D01*
X173628139Y-94045124D01*
X173619757Y-94036056D01*
X173619423Y-94035564D01*
X173605755Y-94007100D01*
X173559198Y-93955419D01*
X173492384Y-93937192D01*
X173426218Y-93958013D01*
X173393461Y-93990306D01*
X173369761Y-94024596D01*
X173367954Y-94025452D01*
X173366309Y-94024315D01*
X173366384Y-94022459D01*
X173401190Y-93962173D01*
X173421000Y-93849823D01*
X173421000Y-93210177D01*
X173401190Y-93097827D01*
X173354660Y-93017234D01*
X173354660Y-93015234D01*
X173356392Y-93014234D01*
X173357861Y-93014876D01*
G37*
G36*
X174157861Y-93014876D02*
G01*
X174166243Y-93023944D01*
X174166577Y-93024436D01*
X174180245Y-93052900D01*
X174226802Y-93104581D01*
X174293616Y-93122808D01*
X174359782Y-93101987D01*
X174392539Y-93069694D01*
X174416239Y-93035404D01*
X174418046Y-93034548D01*
X174419691Y-93035685D01*
X174419616Y-93037541D01*
X174384810Y-93097827D01*
X174365000Y-93210177D01*
X174365000Y-93849823D01*
X174384810Y-93962173D01*
X174431340Y-94042766D01*
X174431340Y-94044766D01*
X174429608Y-94045766D01*
X174428139Y-94045124D01*
X174419757Y-94036056D01*
X174419423Y-94035564D01*
X174405755Y-94007100D01*
X174359198Y-93955419D01*
X174292384Y-93937192D01*
X174226218Y-93958013D01*
X174193461Y-93990306D01*
X174169761Y-94024596D01*
X174167954Y-94025452D01*
X174166309Y-94024315D01*
X174166384Y-94022459D01*
X174201190Y-93962173D01*
X174221000Y-93849823D01*
X174221000Y-93210177D01*
X174201190Y-93097827D01*
X174154660Y-93017234D01*
X174154660Y-93015234D01*
X174156392Y-93014234D01*
X174157861Y-93014876D01*
G37*
G36*
X170157861Y-93014876D02*
G01*
X170166243Y-93023944D01*
X170166577Y-93024436D01*
X170180245Y-93052900D01*
X170226802Y-93104581D01*
X170293616Y-93122808D01*
X170359782Y-93101987D01*
X170392539Y-93069694D01*
X170416239Y-93035404D01*
X170418046Y-93034548D01*
X170419691Y-93035685D01*
X170419616Y-93037541D01*
X170384810Y-93097827D01*
X170365000Y-93210177D01*
X170365000Y-93849823D01*
X170384810Y-93962173D01*
X170431340Y-94042766D01*
X170431340Y-94044766D01*
X170429608Y-94045766D01*
X170428139Y-94045124D01*
X170419757Y-94036056D01*
X170419423Y-94035564D01*
X170405755Y-94007100D01*
X170359198Y-93955419D01*
X170292384Y-93937192D01*
X170226218Y-93958013D01*
X170193461Y-93990306D01*
X170169761Y-94024596D01*
X170167954Y-94025452D01*
X170166309Y-94024315D01*
X170166384Y-94022459D01*
X170201190Y-93962173D01*
X170221000Y-93849823D01*
X170221000Y-93210177D01*
X170201190Y-93097827D01*
X170154660Y-93017234D01*
X170154660Y-93015234D01*
X170156392Y-93014234D01*
X170157861Y-93014876D01*
G37*
G36*
X166157861Y-93014876D02*
G01*
X166166243Y-93023944D01*
X166166577Y-93024436D01*
X166180245Y-93052900D01*
X166226802Y-93104581D01*
X166293616Y-93122808D01*
X166359782Y-93101987D01*
X166392539Y-93069694D01*
X166416239Y-93035404D01*
X166418046Y-93034548D01*
X166419691Y-93035685D01*
X166419616Y-93037541D01*
X166384810Y-93097827D01*
X166365000Y-93210177D01*
X166365000Y-93849823D01*
X166384810Y-93962173D01*
X166431340Y-94042766D01*
X166431340Y-94044766D01*
X166429608Y-94045766D01*
X166428139Y-94045124D01*
X166419757Y-94036056D01*
X166419423Y-94035564D01*
X166405755Y-94007100D01*
X166359198Y-93955419D01*
X166292384Y-93937192D01*
X166226218Y-93958013D01*
X166193461Y-93990306D01*
X166169761Y-94024596D01*
X166167954Y-94025452D01*
X166166309Y-94024315D01*
X166166384Y-94022459D01*
X166201190Y-93962173D01*
X166221000Y-93849823D01*
X166221000Y-93210177D01*
X166201190Y-93097827D01*
X166154660Y-93017234D01*
X166154660Y-93015234D01*
X166156392Y-93014234D01*
X166157861Y-93014876D01*
G37*
G36*
X164557861Y-93014876D02*
G01*
X164566243Y-93023944D01*
X164566577Y-93024436D01*
X164580245Y-93052900D01*
X164626802Y-93104581D01*
X164693616Y-93122808D01*
X164759782Y-93101987D01*
X164792539Y-93069694D01*
X164816239Y-93035404D01*
X164818046Y-93034548D01*
X164819691Y-93035685D01*
X164819616Y-93037541D01*
X164784810Y-93097827D01*
X164765000Y-93210177D01*
X164765000Y-93849823D01*
X164784810Y-93962173D01*
X164831340Y-94042766D01*
X164831340Y-94044766D01*
X164829608Y-94045766D01*
X164828139Y-94045124D01*
X164819757Y-94036056D01*
X164819423Y-94035564D01*
X164805755Y-94007100D01*
X164759198Y-93955419D01*
X164692384Y-93937192D01*
X164626218Y-93958013D01*
X164593461Y-93990306D01*
X164569761Y-94024596D01*
X164567954Y-94025452D01*
X164566309Y-94024315D01*
X164566384Y-94022459D01*
X164601190Y-93962173D01*
X164621000Y-93849823D01*
X164621000Y-93210177D01*
X164601190Y-93097827D01*
X164554660Y-93017234D01*
X164554660Y-93015234D01*
X164556392Y-93014234D01*
X164557861Y-93014876D01*
G37*
G36*
X174957861Y-93014876D02*
G01*
X174966243Y-93023944D01*
X174966577Y-93024436D01*
X174980245Y-93052900D01*
X175026802Y-93104581D01*
X175093616Y-93122808D01*
X175159782Y-93101987D01*
X175192539Y-93069694D01*
X175216239Y-93035404D01*
X175218046Y-93034548D01*
X175219691Y-93035685D01*
X175219616Y-93037541D01*
X175184810Y-93097827D01*
X175165000Y-93210177D01*
X175165000Y-93849823D01*
X175184810Y-93962173D01*
X175231340Y-94042766D01*
X175231340Y-94044766D01*
X175229608Y-94045766D01*
X175228139Y-94045124D01*
X175219757Y-94036056D01*
X175219423Y-94035564D01*
X175205755Y-94007100D01*
X175159198Y-93955419D01*
X175092384Y-93937192D01*
X175026218Y-93958013D01*
X174993461Y-93990306D01*
X174969761Y-94024596D01*
X174967954Y-94025452D01*
X174966309Y-94024315D01*
X174966384Y-94022459D01*
X175001190Y-93962173D01*
X175021000Y-93849823D01*
X175021000Y-93210177D01*
X175001190Y-93097827D01*
X174954660Y-93017234D01*
X174954660Y-93015234D01*
X174956392Y-93014234D01*
X174957861Y-93014876D01*
G37*
G36*
X160557861Y-93014876D02*
G01*
X160566243Y-93023944D01*
X160566577Y-93024436D01*
X160580245Y-93052900D01*
X160626802Y-93104581D01*
X160693616Y-93122808D01*
X160759782Y-93101987D01*
X160792539Y-93069694D01*
X160816239Y-93035404D01*
X160818046Y-93034548D01*
X160819691Y-93035685D01*
X160819616Y-93037541D01*
X160784810Y-93097827D01*
X160765000Y-93210177D01*
X160765000Y-93849823D01*
X160784810Y-93962173D01*
X160831340Y-94042766D01*
X160831340Y-94044766D01*
X160829608Y-94045766D01*
X160828139Y-94045124D01*
X160819757Y-94036056D01*
X160819423Y-94035564D01*
X160805755Y-94007100D01*
X160759198Y-93955419D01*
X160692384Y-93937192D01*
X160626218Y-93958013D01*
X160593461Y-93990306D01*
X160569761Y-94024596D01*
X160567954Y-94025452D01*
X160566309Y-94024315D01*
X160566384Y-94022459D01*
X160601190Y-93962173D01*
X160621000Y-93849823D01*
X160621000Y-93210177D01*
X160601190Y-93097827D01*
X160554660Y-93017234D01*
X160554660Y-93015234D01*
X160556392Y-93014234D01*
X160557861Y-93014876D01*
G37*
G36*
X162957861Y-93014876D02*
G01*
X162966243Y-93023944D01*
X162966577Y-93024436D01*
X162980245Y-93052900D01*
X163026802Y-93104581D01*
X163093616Y-93122808D01*
X163159782Y-93101987D01*
X163192539Y-93069694D01*
X163216239Y-93035404D01*
X163218046Y-93034548D01*
X163219691Y-93035685D01*
X163219616Y-93037541D01*
X163184810Y-93097827D01*
X163165000Y-93210177D01*
X163165000Y-93849823D01*
X163184810Y-93962173D01*
X163231340Y-94042766D01*
X163231340Y-94044766D01*
X163229608Y-94045766D01*
X163228139Y-94045124D01*
X163219757Y-94036056D01*
X163219423Y-94035564D01*
X163205755Y-94007100D01*
X163159198Y-93955419D01*
X163092384Y-93937192D01*
X163026218Y-93958013D01*
X162993461Y-93990306D01*
X162969761Y-94024596D01*
X162967954Y-94025452D01*
X162966309Y-94024315D01*
X162966384Y-94022459D01*
X163001190Y-93962173D01*
X163021000Y-93849823D01*
X163021000Y-93210177D01*
X163001190Y-93097827D01*
X162954660Y-93017234D01*
X162954660Y-93015234D01*
X162956392Y-93014234D01*
X162957861Y-93014876D01*
G37*
G36*
X155757861Y-93014876D02*
G01*
X155766243Y-93023944D01*
X155766577Y-93024436D01*
X155780245Y-93052900D01*
X155826802Y-93104581D01*
X155893616Y-93122808D01*
X155959782Y-93101987D01*
X155992539Y-93069694D01*
X156016239Y-93035404D01*
X156018046Y-93034548D01*
X156019691Y-93035685D01*
X156019616Y-93037541D01*
X155984810Y-93097827D01*
X155965000Y-93210177D01*
X155965000Y-93849823D01*
X155984810Y-93962173D01*
X156031340Y-94042766D01*
X156031340Y-94044766D01*
X156029608Y-94045766D01*
X156028139Y-94045124D01*
X156019757Y-94036056D01*
X156019423Y-94035564D01*
X156005755Y-94007100D01*
X155959198Y-93955419D01*
X155892384Y-93937192D01*
X155826218Y-93958013D01*
X155793461Y-93990306D01*
X155769761Y-94024596D01*
X155767954Y-94025452D01*
X155766309Y-94024315D01*
X155766384Y-94022459D01*
X155801190Y-93962173D01*
X155821000Y-93849823D01*
X155821000Y-93210177D01*
X155801190Y-93097827D01*
X155754660Y-93017234D01*
X155754660Y-93015234D01*
X155756392Y-93014234D01*
X155757861Y-93014876D01*
G37*
G36*
X159757861Y-93014876D02*
G01*
X159766243Y-93023944D01*
X159766577Y-93024436D01*
X159780245Y-93052900D01*
X159826802Y-93104581D01*
X159893616Y-93122808D01*
X159959782Y-93101987D01*
X159992539Y-93069694D01*
X160016239Y-93035404D01*
X160018046Y-93034548D01*
X160019691Y-93035685D01*
X160019616Y-93037541D01*
X159984810Y-93097827D01*
X159965000Y-93210177D01*
X159965000Y-93849823D01*
X159984810Y-93962173D01*
X160031340Y-94042766D01*
X160031340Y-94044766D01*
X160029608Y-94045766D01*
X160028139Y-94045124D01*
X160019757Y-94036056D01*
X160019423Y-94035564D01*
X160005755Y-94007100D01*
X159959198Y-93955419D01*
X159892384Y-93937192D01*
X159826218Y-93958013D01*
X159793461Y-93990306D01*
X159769761Y-94024596D01*
X159767954Y-94025452D01*
X159766309Y-94024315D01*
X159766384Y-94022459D01*
X159801190Y-93962173D01*
X159821000Y-93849823D01*
X159821000Y-93210177D01*
X159801190Y-93097827D01*
X159754660Y-93017234D01*
X159754660Y-93015234D01*
X159756392Y-93014234D01*
X159757861Y-93014876D01*
G37*
G36*
X169357861Y-93014876D02*
G01*
X169366243Y-93023944D01*
X169366577Y-93024436D01*
X169380245Y-93052900D01*
X169426802Y-93104581D01*
X169493616Y-93122808D01*
X169559782Y-93101987D01*
X169592539Y-93069694D01*
X169616239Y-93035404D01*
X169618046Y-93034548D01*
X169619691Y-93035685D01*
X169619616Y-93037541D01*
X169584810Y-93097827D01*
X169565000Y-93210177D01*
X169565000Y-93849823D01*
X169584810Y-93962173D01*
X169631340Y-94042766D01*
X169631340Y-94044766D01*
X169629608Y-94045766D01*
X169628139Y-94045124D01*
X169619757Y-94036056D01*
X169619423Y-94035564D01*
X169605755Y-94007100D01*
X169559198Y-93955419D01*
X169492384Y-93937192D01*
X169426218Y-93958013D01*
X169393461Y-93990306D01*
X169369761Y-94024596D01*
X169367954Y-94025452D01*
X169366309Y-94024315D01*
X169366384Y-94022459D01*
X169401190Y-93962173D01*
X169421000Y-93849823D01*
X169421000Y-93210177D01*
X169401190Y-93097827D01*
X169354660Y-93017234D01*
X169354660Y-93015234D01*
X169356392Y-93014234D01*
X169357861Y-93014876D01*
G37*
G36*
X158957861Y-93014876D02*
G01*
X158966243Y-93023944D01*
X158966577Y-93024436D01*
X158980245Y-93052900D01*
X159026802Y-93104581D01*
X159093616Y-93122808D01*
X159159782Y-93101987D01*
X159192539Y-93069694D01*
X159216239Y-93035404D01*
X159218046Y-93034548D01*
X159219691Y-93035685D01*
X159219616Y-93037541D01*
X159184810Y-93097827D01*
X159165000Y-93210177D01*
X159165000Y-93849823D01*
X159184810Y-93962173D01*
X159231340Y-94042766D01*
X159231340Y-94044766D01*
X159229608Y-94045766D01*
X159228139Y-94045124D01*
X159219757Y-94036056D01*
X159219423Y-94035564D01*
X159205755Y-94007100D01*
X159159198Y-93955419D01*
X159092384Y-93937192D01*
X159026218Y-93958013D01*
X158993461Y-93990306D01*
X158969761Y-94024596D01*
X158967954Y-94025452D01*
X158966309Y-94024315D01*
X158966384Y-94022459D01*
X159001190Y-93962173D01*
X159021000Y-93849823D01*
X159021000Y-93210177D01*
X159001190Y-93097827D01*
X158954660Y-93017234D01*
X158954660Y-93015234D01*
X158956392Y-93014234D01*
X158957861Y-93014876D01*
G37*
G36*
X166957861Y-93014876D02*
G01*
X166966243Y-93023944D01*
X166966577Y-93024436D01*
X166980245Y-93052900D01*
X167026802Y-93104581D01*
X167093616Y-93122808D01*
X167159782Y-93101987D01*
X167192539Y-93069694D01*
X167216239Y-93035404D01*
X167218046Y-93034548D01*
X167219691Y-93035685D01*
X167219616Y-93037541D01*
X167184810Y-93097827D01*
X167165000Y-93210177D01*
X167165000Y-93849823D01*
X167184810Y-93962173D01*
X167231340Y-94042766D01*
X167231340Y-94044766D01*
X167229608Y-94045766D01*
X167228139Y-94045124D01*
X167219757Y-94036056D01*
X167219423Y-94035564D01*
X167205755Y-94007100D01*
X167159198Y-93955419D01*
X167092384Y-93937192D01*
X167026218Y-93958013D01*
X166993461Y-93990306D01*
X166969761Y-94024596D01*
X166967954Y-94025452D01*
X166966309Y-94024315D01*
X166966384Y-94022459D01*
X167001190Y-93962173D01*
X167021000Y-93849823D01*
X167021000Y-93210177D01*
X167001190Y-93097827D01*
X166954660Y-93017234D01*
X166954660Y-93015234D01*
X166956392Y-93014234D01*
X166957861Y-93014876D01*
G37*
G36*
X170957861Y-93014876D02*
G01*
X170966243Y-93023944D01*
X170966577Y-93024436D01*
X170980245Y-93052900D01*
X171026802Y-93104581D01*
X171093616Y-93122808D01*
X171159782Y-93101987D01*
X171192539Y-93069694D01*
X171216239Y-93035404D01*
X171218046Y-93034548D01*
X171219691Y-93035685D01*
X171219616Y-93037541D01*
X171184810Y-93097827D01*
X171165000Y-93210177D01*
X171165000Y-93849823D01*
X171184810Y-93962173D01*
X171231340Y-94042766D01*
X171231340Y-94044766D01*
X171229608Y-94045766D01*
X171228139Y-94045124D01*
X171219757Y-94036056D01*
X171219423Y-94035564D01*
X171205755Y-94007100D01*
X171159198Y-93955419D01*
X171092384Y-93937192D01*
X171026218Y-93958013D01*
X170993461Y-93990306D01*
X170969761Y-94024596D01*
X170967954Y-94025452D01*
X170966309Y-94024315D01*
X170966384Y-94022459D01*
X171001190Y-93962173D01*
X171021000Y-93849823D01*
X171021000Y-93210177D01*
X171001190Y-93097827D01*
X170954660Y-93017234D01*
X170954660Y-93015234D01*
X170956392Y-93014234D01*
X170957861Y-93014876D01*
G37*
G36*
X158157861Y-93014876D02*
G01*
X158166243Y-93023944D01*
X158166577Y-93024436D01*
X158180245Y-93052900D01*
X158226802Y-93104581D01*
X158293616Y-93122808D01*
X158359782Y-93101987D01*
X158392539Y-93069694D01*
X158416239Y-93035404D01*
X158418046Y-93034548D01*
X158419691Y-93035685D01*
X158419616Y-93037541D01*
X158384810Y-93097827D01*
X158365000Y-93210177D01*
X158365000Y-93849823D01*
X158384810Y-93962173D01*
X158431340Y-94042766D01*
X158431340Y-94044766D01*
X158429608Y-94045766D01*
X158428139Y-94045124D01*
X158419757Y-94036056D01*
X158419423Y-94035564D01*
X158405755Y-94007100D01*
X158359198Y-93955419D01*
X158292384Y-93937192D01*
X158226218Y-93958013D01*
X158193461Y-93990306D01*
X158169761Y-94024596D01*
X158167954Y-94025452D01*
X158166309Y-94024315D01*
X158166384Y-94022459D01*
X158201190Y-93962173D01*
X158221000Y-93849823D01*
X158221000Y-93210177D01*
X158201190Y-93097827D01*
X158154660Y-93017234D01*
X158154660Y-93015234D01*
X158156392Y-93014234D01*
X158157861Y-93014876D01*
G37*
G36*
X161357861Y-93014876D02*
G01*
X161366243Y-93023944D01*
X161366577Y-93024436D01*
X161380245Y-93052900D01*
X161426802Y-93104581D01*
X161493616Y-93122808D01*
X161559782Y-93101987D01*
X161592539Y-93069694D01*
X161616239Y-93035404D01*
X161618046Y-93034548D01*
X161619691Y-93035685D01*
X161619616Y-93037541D01*
X161584810Y-93097827D01*
X161565000Y-93210177D01*
X161565000Y-93849823D01*
X161584810Y-93962173D01*
X161631340Y-94042766D01*
X161631340Y-94044766D01*
X161629608Y-94045766D01*
X161628139Y-94045124D01*
X161619757Y-94036056D01*
X161619423Y-94035564D01*
X161605755Y-94007100D01*
X161559198Y-93955419D01*
X161492384Y-93937192D01*
X161426218Y-93958013D01*
X161393461Y-93990306D01*
X161369761Y-94024596D01*
X161367954Y-94025452D01*
X161366309Y-94024315D01*
X161366384Y-94022459D01*
X161401190Y-93962173D01*
X161421000Y-93849823D01*
X161421000Y-93210177D01*
X161401190Y-93097827D01*
X161354660Y-93017234D01*
X161354660Y-93015234D01*
X161356392Y-93014234D01*
X161357861Y-93014876D01*
G37*
G36*
X156557861Y-93014876D02*
G01*
X156566243Y-93023944D01*
X156566577Y-93024436D01*
X156580245Y-93052900D01*
X156626802Y-93104581D01*
X156693616Y-93122808D01*
X156759782Y-93101987D01*
X156792539Y-93069694D01*
X156816239Y-93035404D01*
X156818046Y-93034548D01*
X156819691Y-93035685D01*
X156819616Y-93037541D01*
X156784810Y-93097827D01*
X156765000Y-93210177D01*
X156765000Y-93849823D01*
X156784810Y-93962173D01*
X156831340Y-94042766D01*
X156831340Y-94044766D01*
X156829608Y-94045766D01*
X156828139Y-94045124D01*
X156819757Y-94036056D01*
X156819423Y-94035564D01*
X156805755Y-94007100D01*
X156759198Y-93955419D01*
X156692384Y-93937192D01*
X156626218Y-93958013D01*
X156593461Y-93990306D01*
X156569761Y-94024596D01*
X156567954Y-94025452D01*
X156566309Y-94024315D01*
X156566384Y-94022459D01*
X156601190Y-93962173D01*
X156621000Y-93849823D01*
X156621000Y-93210177D01*
X156601190Y-93097827D01*
X156554660Y-93017234D01*
X156554660Y-93015234D01*
X156556392Y-93014234D01*
X156557861Y-93014876D01*
G37*
G36*
X172557861Y-93014876D02*
G01*
X172566243Y-93023944D01*
X172566577Y-93024436D01*
X172580245Y-93052900D01*
X172626802Y-93104581D01*
X172693616Y-93122808D01*
X172759782Y-93101987D01*
X172792539Y-93069694D01*
X172816239Y-93035404D01*
X172818046Y-93034548D01*
X172819691Y-93035685D01*
X172819616Y-93037541D01*
X172784810Y-93097827D01*
X172765000Y-93210177D01*
X172765000Y-93849823D01*
X172784810Y-93962173D01*
X172831340Y-94042766D01*
X172831340Y-94044766D01*
X172829608Y-94045766D01*
X172828139Y-94045124D01*
X172819757Y-94036056D01*
X172819423Y-94035564D01*
X172805755Y-94007100D01*
X172759198Y-93955419D01*
X172692384Y-93937192D01*
X172626218Y-93958013D01*
X172593461Y-93990306D01*
X172569761Y-94024596D01*
X172567954Y-94025452D01*
X172566309Y-94024315D01*
X172566384Y-94022459D01*
X172601190Y-93962173D01*
X172621000Y-93849823D01*
X172621000Y-93210177D01*
X172601190Y-93097827D01*
X172554660Y-93017234D01*
X172554660Y-93015234D01*
X172556392Y-93014234D01*
X172557861Y-93014876D01*
G37*
G36*
X171757861Y-93014876D02*
G01*
X171766243Y-93023944D01*
X171766577Y-93024436D01*
X171780245Y-93052900D01*
X171826802Y-93104581D01*
X171893616Y-93122808D01*
X171959782Y-93101987D01*
X171992539Y-93069694D01*
X172016239Y-93035404D01*
X172018046Y-93034548D01*
X172019691Y-93035685D01*
X172019616Y-93037541D01*
X171984810Y-93097827D01*
X171965000Y-93210177D01*
X171965000Y-93849823D01*
X171984810Y-93962173D01*
X172031340Y-94042766D01*
X172031340Y-94044766D01*
X172029608Y-94045766D01*
X172028139Y-94045124D01*
X172019757Y-94036056D01*
X172019423Y-94035564D01*
X172005755Y-94007100D01*
X171959198Y-93955419D01*
X171892384Y-93937192D01*
X171826218Y-93958013D01*
X171793461Y-93990306D01*
X171769761Y-94024596D01*
X171767954Y-94025452D01*
X171766309Y-94024315D01*
X171766384Y-94022459D01*
X171801190Y-93962173D01*
X171821000Y-93849823D01*
X171821000Y-93210177D01*
X171801190Y-93097827D01*
X171754660Y-93017234D01*
X171754660Y-93015234D01*
X171756392Y-93014234D01*
X171757861Y-93014876D01*
G37*
G36*
X162157861Y-93014876D02*
G01*
X162166243Y-93023944D01*
X162166577Y-93024436D01*
X162180245Y-93052900D01*
X162226802Y-93104581D01*
X162293616Y-93122808D01*
X162359782Y-93101987D01*
X162392539Y-93069694D01*
X162416239Y-93035404D01*
X162418046Y-93034548D01*
X162419691Y-93035685D01*
X162419616Y-93037541D01*
X162384810Y-93097827D01*
X162365000Y-93210177D01*
X162365000Y-93849823D01*
X162384810Y-93962173D01*
X162431340Y-94042766D01*
X162431340Y-94044766D01*
X162429608Y-94045766D01*
X162428139Y-94045124D01*
X162419757Y-94036056D01*
X162419423Y-94035564D01*
X162405755Y-94007100D01*
X162359198Y-93955419D01*
X162292384Y-93937192D01*
X162226218Y-93958013D01*
X162193461Y-93990306D01*
X162169761Y-94024596D01*
X162167954Y-94025452D01*
X162166309Y-94024315D01*
X162166384Y-94022459D01*
X162201190Y-93962173D01*
X162221000Y-93849823D01*
X162221000Y-93210177D01*
X162201190Y-93097827D01*
X162154660Y-93017234D01*
X162154660Y-93015234D01*
X162156392Y-93014234D01*
X162157861Y-93014876D01*
G37*
G36*
X157357861Y-93014876D02*
G01*
X157366243Y-93023944D01*
X157366577Y-93024436D01*
X157380245Y-93052900D01*
X157426802Y-93104581D01*
X157493616Y-93122808D01*
X157559782Y-93101987D01*
X157592539Y-93069694D01*
X157616239Y-93035404D01*
X157618046Y-93034548D01*
X157619691Y-93035685D01*
X157619616Y-93037541D01*
X157584810Y-93097827D01*
X157565000Y-93210177D01*
X157565000Y-93849823D01*
X157584810Y-93962173D01*
X157631340Y-94042766D01*
X157631340Y-94044766D01*
X157629608Y-94045766D01*
X157628139Y-94045124D01*
X157619757Y-94036056D01*
X157619423Y-94035564D01*
X157605755Y-94007100D01*
X157559198Y-93955419D01*
X157492384Y-93937192D01*
X157426218Y-93958013D01*
X157393461Y-93990306D01*
X157369761Y-94024596D01*
X157367954Y-94025452D01*
X157366309Y-94024315D01*
X157366384Y-94022459D01*
X157401190Y-93962173D01*
X157421000Y-93849823D01*
X157421000Y-93210177D01*
X157401190Y-93097827D01*
X157354660Y-93017234D01*
X157354660Y-93015234D01*
X157356392Y-93014234D01*
X157357861Y-93014876D01*
G37*
G36*
X163757861Y-93014876D02*
G01*
X163766243Y-93023944D01*
X163766577Y-93024436D01*
X163780245Y-93052900D01*
X163826802Y-93104581D01*
X163893616Y-93122808D01*
X163959782Y-93101987D01*
X163992539Y-93069694D01*
X164016239Y-93035404D01*
X164018046Y-93034548D01*
X164019691Y-93035685D01*
X164019616Y-93037541D01*
X163984810Y-93097827D01*
X163965000Y-93210177D01*
X163965000Y-93849823D01*
X163984810Y-93962173D01*
X164031340Y-94042766D01*
X164031340Y-94044766D01*
X164029608Y-94045766D01*
X164028139Y-94045124D01*
X164019757Y-94036056D01*
X164019423Y-94035564D01*
X164005755Y-94007100D01*
X163959198Y-93955419D01*
X163892384Y-93937192D01*
X163826218Y-93958013D01*
X163793461Y-93990306D01*
X163769761Y-94024596D01*
X163767954Y-94025452D01*
X163766309Y-94024315D01*
X163766384Y-94022459D01*
X163801190Y-93962173D01*
X163821000Y-93849823D01*
X163821000Y-93210177D01*
X163801190Y-93097827D01*
X163754660Y-93017234D01*
X163754660Y-93015234D01*
X163756392Y-93014234D01*
X163757861Y-93014876D01*
G37*
G36*
X174157861Y-81554876D02*
G01*
X174166243Y-81563944D01*
X174166577Y-81564436D01*
X174180245Y-81592900D01*
X174226802Y-81644581D01*
X174293616Y-81662808D01*
X174359782Y-81641987D01*
X174392539Y-81609694D01*
X174416239Y-81575404D01*
X174418046Y-81574548D01*
X174419691Y-81575685D01*
X174419616Y-81577541D01*
X174384810Y-81637827D01*
X174365000Y-81750177D01*
X174365000Y-82389823D01*
X174384810Y-82502173D01*
X174431340Y-82582766D01*
X174431340Y-82584766D01*
X174429608Y-82585766D01*
X174428139Y-82585124D01*
X174419757Y-82576056D01*
X174419423Y-82575564D01*
X174405755Y-82547100D01*
X174359198Y-82495419D01*
X174292384Y-82477192D01*
X174226218Y-82498013D01*
X174193461Y-82530306D01*
X174169761Y-82564596D01*
X174167954Y-82565452D01*
X174166309Y-82564315D01*
X174166384Y-82562459D01*
X174201190Y-82502173D01*
X174221000Y-82389823D01*
X174221000Y-81750177D01*
X174201190Y-81637827D01*
X174154660Y-81557234D01*
X174154660Y-81555234D01*
X174156392Y-81554234D01*
X174157861Y-81554876D01*
G37*
G36*
X170957861Y-81554876D02*
G01*
X170966243Y-81563944D01*
X170966577Y-81564436D01*
X170980245Y-81592900D01*
X171026802Y-81644581D01*
X171093616Y-81662808D01*
X171159782Y-81641987D01*
X171192539Y-81609694D01*
X171216239Y-81575404D01*
X171218046Y-81574548D01*
X171219691Y-81575685D01*
X171219616Y-81577541D01*
X171184810Y-81637827D01*
X171165000Y-81750177D01*
X171165000Y-82389823D01*
X171184810Y-82502173D01*
X171231340Y-82582766D01*
X171231340Y-82584766D01*
X171229608Y-82585766D01*
X171228139Y-82585124D01*
X171219757Y-82576056D01*
X171219423Y-82575564D01*
X171205755Y-82547100D01*
X171159198Y-82495419D01*
X171092384Y-82477192D01*
X171026218Y-82498013D01*
X170993461Y-82530306D01*
X170969761Y-82564596D01*
X170967954Y-82565452D01*
X170966309Y-82564315D01*
X170966384Y-82562459D01*
X171001190Y-82502173D01*
X171021000Y-82389823D01*
X171021000Y-81750177D01*
X171001190Y-81637827D01*
X170954660Y-81557234D01*
X170954660Y-81555234D01*
X170956392Y-81554234D01*
X170957861Y-81554876D01*
G37*
G36*
X156557861Y-81554876D02*
G01*
X156566243Y-81563944D01*
X156566577Y-81564436D01*
X156580245Y-81592900D01*
X156626802Y-81644581D01*
X156693616Y-81662808D01*
X156759782Y-81641987D01*
X156792539Y-81609694D01*
X156816239Y-81575404D01*
X156818046Y-81574548D01*
X156819691Y-81575685D01*
X156819616Y-81577541D01*
X156784810Y-81637827D01*
X156765000Y-81750177D01*
X156765000Y-82389823D01*
X156784810Y-82502173D01*
X156831340Y-82582766D01*
X156831340Y-82584766D01*
X156829608Y-82585766D01*
X156828139Y-82585124D01*
X156819757Y-82576056D01*
X156819423Y-82575564D01*
X156805755Y-82547100D01*
X156759198Y-82495419D01*
X156692384Y-82477192D01*
X156626218Y-82498013D01*
X156593461Y-82530306D01*
X156569761Y-82564596D01*
X156567954Y-82565452D01*
X156566309Y-82564315D01*
X156566384Y-82562459D01*
X156601190Y-82502173D01*
X156621000Y-82389823D01*
X156621000Y-81750177D01*
X156601190Y-81637827D01*
X156554660Y-81557234D01*
X156554660Y-81555234D01*
X156556392Y-81554234D01*
X156557861Y-81554876D01*
G37*
G36*
X168557861Y-81554876D02*
G01*
X168566243Y-81563944D01*
X168566577Y-81564436D01*
X168580245Y-81592900D01*
X168626802Y-81644581D01*
X168693616Y-81662808D01*
X168759782Y-81641987D01*
X168792539Y-81609694D01*
X168816239Y-81575404D01*
X168818046Y-81574548D01*
X168819691Y-81575685D01*
X168819616Y-81577541D01*
X168784810Y-81637827D01*
X168765000Y-81750177D01*
X168765000Y-82389823D01*
X168784810Y-82502173D01*
X168831340Y-82582766D01*
X168831340Y-82584766D01*
X168829608Y-82585766D01*
X168828139Y-82585124D01*
X168819757Y-82576056D01*
X168819423Y-82575564D01*
X168805755Y-82547100D01*
X168759198Y-82495419D01*
X168692384Y-82477192D01*
X168626218Y-82498013D01*
X168593461Y-82530306D01*
X168569761Y-82564596D01*
X168567954Y-82565452D01*
X168566309Y-82564315D01*
X168566384Y-82562459D01*
X168601190Y-82502173D01*
X168621000Y-82389823D01*
X168621000Y-81750177D01*
X168601190Y-81637827D01*
X168554660Y-81557234D01*
X168554660Y-81555234D01*
X168556392Y-81554234D01*
X168557861Y-81554876D01*
G37*
G36*
X158157861Y-81554876D02*
G01*
X158166243Y-81563944D01*
X158166577Y-81564436D01*
X158180245Y-81592900D01*
X158226802Y-81644581D01*
X158293616Y-81662808D01*
X158359782Y-81641987D01*
X158392539Y-81609694D01*
X158416239Y-81575404D01*
X158418046Y-81574548D01*
X158419691Y-81575685D01*
X158419616Y-81577541D01*
X158384810Y-81637827D01*
X158365000Y-81750177D01*
X158365000Y-82389823D01*
X158384810Y-82502173D01*
X158431340Y-82582766D01*
X158431340Y-82584766D01*
X158429608Y-82585766D01*
X158428139Y-82585124D01*
X158419757Y-82576056D01*
X158419423Y-82575564D01*
X158405755Y-82547100D01*
X158359198Y-82495419D01*
X158292384Y-82477192D01*
X158226218Y-82498013D01*
X158193461Y-82530306D01*
X158169761Y-82564596D01*
X158167954Y-82565452D01*
X158166309Y-82564315D01*
X158166384Y-82562459D01*
X158201190Y-82502173D01*
X158221000Y-82389823D01*
X158221000Y-81750177D01*
X158201190Y-81637827D01*
X158154660Y-81557234D01*
X158154660Y-81555234D01*
X158156392Y-81554234D01*
X158157861Y-81554876D01*
G37*
G36*
X167757861Y-81554876D02*
G01*
X167766243Y-81563944D01*
X167766577Y-81564436D01*
X167780245Y-81592900D01*
X167826802Y-81644581D01*
X167893616Y-81662808D01*
X167959782Y-81641987D01*
X167992539Y-81609694D01*
X168016239Y-81575404D01*
X168018046Y-81574548D01*
X168019691Y-81575685D01*
X168019616Y-81577541D01*
X167984810Y-81637827D01*
X167965000Y-81750177D01*
X167965000Y-82389823D01*
X167984810Y-82502173D01*
X168031340Y-82582766D01*
X168031340Y-82584766D01*
X168029608Y-82585766D01*
X168028139Y-82585124D01*
X168019757Y-82576056D01*
X168019423Y-82575564D01*
X168005755Y-82547100D01*
X167959198Y-82495419D01*
X167892384Y-82477192D01*
X167826218Y-82498013D01*
X167793461Y-82530306D01*
X167769761Y-82564596D01*
X167767954Y-82565452D01*
X167766309Y-82564315D01*
X167766384Y-82562459D01*
X167801190Y-82502173D01*
X167821000Y-82389823D01*
X167821000Y-81750177D01*
X167801190Y-81637827D01*
X167754660Y-81557234D01*
X167754660Y-81555234D01*
X167756392Y-81554234D01*
X167757861Y-81554876D01*
G37*
G36*
X160557861Y-81554876D02*
G01*
X160566243Y-81563944D01*
X160566577Y-81564436D01*
X160580245Y-81592900D01*
X160626802Y-81644581D01*
X160693616Y-81662808D01*
X160759782Y-81641987D01*
X160792539Y-81609694D01*
X160816239Y-81575404D01*
X160818046Y-81574548D01*
X160819691Y-81575685D01*
X160819616Y-81577541D01*
X160784810Y-81637827D01*
X160765000Y-81750177D01*
X160765000Y-82389823D01*
X160784810Y-82502173D01*
X160831340Y-82582766D01*
X160831340Y-82584766D01*
X160829608Y-82585766D01*
X160828139Y-82585124D01*
X160819757Y-82576056D01*
X160819423Y-82575564D01*
X160805755Y-82547100D01*
X160759198Y-82495419D01*
X160692384Y-82477192D01*
X160626218Y-82498013D01*
X160593461Y-82530306D01*
X160569761Y-82564596D01*
X160567954Y-82565452D01*
X160566309Y-82564315D01*
X160566384Y-82562459D01*
X160601190Y-82502173D01*
X160621000Y-82389823D01*
X160621000Y-81750177D01*
X160601190Y-81637827D01*
X160554660Y-81557234D01*
X160554660Y-81555234D01*
X160556392Y-81554234D01*
X160557861Y-81554876D01*
G37*
G36*
X166157861Y-81554876D02*
G01*
X166166243Y-81563944D01*
X166166577Y-81564436D01*
X166180245Y-81592900D01*
X166226802Y-81644581D01*
X166293616Y-81662808D01*
X166359782Y-81641987D01*
X166392539Y-81609694D01*
X166416239Y-81575404D01*
X166418046Y-81574548D01*
X166419691Y-81575685D01*
X166419616Y-81577541D01*
X166384810Y-81637827D01*
X166365000Y-81750177D01*
X166365000Y-82389823D01*
X166384810Y-82502173D01*
X166431340Y-82582766D01*
X166431340Y-82584766D01*
X166429608Y-82585766D01*
X166428139Y-82585124D01*
X166419757Y-82576056D01*
X166419423Y-82575564D01*
X166405755Y-82547100D01*
X166359198Y-82495419D01*
X166292384Y-82477192D01*
X166226218Y-82498013D01*
X166193461Y-82530306D01*
X166169761Y-82564596D01*
X166167954Y-82565452D01*
X166166309Y-82564315D01*
X166166384Y-82562459D01*
X166201190Y-82502173D01*
X166221000Y-82389823D01*
X166221000Y-81750177D01*
X166201190Y-81637827D01*
X166154660Y-81557234D01*
X166154660Y-81555234D01*
X166156392Y-81554234D01*
X166157861Y-81554876D01*
G37*
G36*
X162157861Y-81554876D02*
G01*
X162166243Y-81563944D01*
X162166577Y-81564436D01*
X162180245Y-81592900D01*
X162226802Y-81644581D01*
X162293616Y-81662808D01*
X162359782Y-81641987D01*
X162392539Y-81609694D01*
X162416239Y-81575404D01*
X162418046Y-81574548D01*
X162419691Y-81575685D01*
X162419616Y-81577541D01*
X162384810Y-81637827D01*
X162365000Y-81750177D01*
X162365000Y-82389823D01*
X162384810Y-82502173D01*
X162431340Y-82582766D01*
X162431340Y-82584766D01*
X162429608Y-82585766D01*
X162428139Y-82585124D01*
X162419757Y-82576056D01*
X162419423Y-82575564D01*
X162405755Y-82547100D01*
X162359198Y-82495419D01*
X162292384Y-82477192D01*
X162226218Y-82498013D01*
X162193461Y-82530306D01*
X162169761Y-82564596D01*
X162167954Y-82565452D01*
X162166309Y-82564315D01*
X162166384Y-82562459D01*
X162201190Y-82502173D01*
X162221000Y-82389823D01*
X162221000Y-81750177D01*
X162201190Y-81637827D01*
X162154660Y-81557234D01*
X162154660Y-81555234D01*
X162156392Y-81554234D01*
X162157861Y-81554876D01*
G37*
G36*
X172557861Y-81554876D02*
G01*
X172566243Y-81563944D01*
X172566577Y-81564436D01*
X172580245Y-81592900D01*
X172626802Y-81644581D01*
X172693616Y-81662808D01*
X172759782Y-81641987D01*
X172792539Y-81609694D01*
X172816239Y-81575404D01*
X172818046Y-81574548D01*
X172819691Y-81575685D01*
X172819616Y-81577541D01*
X172784810Y-81637827D01*
X172765000Y-81750177D01*
X172765000Y-82389823D01*
X172784810Y-82502173D01*
X172831340Y-82582766D01*
X172831340Y-82584766D01*
X172829608Y-82585766D01*
X172828139Y-82585124D01*
X172819757Y-82576056D01*
X172819423Y-82575564D01*
X172805755Y-82547100D01*
X172759198Y-82495419D01*
X172692384Y-82477192D01*
X172626218Y-82498013D01*
X172593461Y-82530306D01*
X172569761Y-82564596D01*
X172567954Y-82565452D01*
X172566309Y-82564315D01*
X172566384Y-82562459D01*
X172601190Y-82502173D01*
X172621000Y-82389823D01*
X172621000Y-81750177D01*
X172601190Y-81637827D01*
X172554660Y-81557234D01*
X172554660Y-81555234D01*
X172556392Y-81554234D01*
X172557861Y-81554876D01*
G37*
G36*
X158957861Y-81554876D02*
G01*
X158966243Y-81563944D01*
X158966577Y-81564436D01*
X158980245Y-81592900D01*
X159026802Y-81644581D01*
X159093616Y-81662808D01*
X159159782Y-81641987D01*
X159192539Y-81609694D01*
X159216239Y-81575404D01*
X159218046Y-81574548D01*
X159219691Y-81575685D01*
X159219616Y-81577541D01*
X159184810Y-81637827D01*
X159165000Y-81750177D01*
X159165000Y-82389823D01*
X159184810Y-82502173D01*
X159231340Y-82582766D01*
X159231340Y-82584766D01*
X159229608Y-82585766D01*
X159228139Y-82585124D01*
X159219757Y-82576056D01*
X159219423Y-82575564D01*
X159205755Y-82547100D01*
X159159198Y-82495419D01*
X159092384Y-82477192D01*
X159026218Y-82498013D01*
X158993461Y-82530306D01*
X158969761Y-82564596D01*
X158967954Y-82565452D01*
X158966309Y-82564315D01*
X158966384Y-82562459D01*
X159001190Y-82502173D01*
X159021000Y-82389823D01*
X159021000Y-81750177D01*
X159001190Y-81637827D01*
X158954660Y-81557234D01*
X158954660Y-81555234D01*
X158956392Y-81554234D01*
X158957861Y-81554876D01*
G37*
G36*
X170157861Y-81554876D02*
G01*
X170166243Y-81563944D01*
X170166577Y-81564436D01*
X170180245Y-81592900D01*
X170226802Y-81644581D01*
X170293616Y-81662808D01*
X170359782Y-81641987D01*
X170392539Y-81609694D01*
X170416239Y-81575404D01*
X170418046Y-81574548D01*
X170419691Y-81575685D01*
X170419616Y-81577541D01*
X170384810Y-81637827D01*
X170365000Y-81750177D01*
X170365000Y-82389823D01*
X170384810Y-82502173D01*
X170431340Y-82582766D01*
X170431340Y-82584766D01*
X170429608Y-82585766D01*
X170428139Y-82585124D01*
X170419757Y-82576056D01*
X170419423Y-82575564D01*
X170405755Y-82547100D01*
X170359198Y-82495419D01*
X170292384Y-82477192D01*
X170226218Y-82498013D01*
X170193461Y-82530306D01*
X170169761Y-82564596D01*
X170167954Y-82565452D01*
X170166309Y-82564315D01*
X170166384Y-82562459D01*
X170201190Y-82502173D01*
X170221000Y-82389823D01*
X170221000Y-81750177D01*
X170201190Y-81637827D01*
X170154660Y-81557234D01*
X170154660Y-81555234D01*
X170156392Y-81554234D01*
X170157861Y-81554876D01*
G37*
G36*
X159757861Y-81554876D02*
G01*
X159766243Y-81563944D01*
X159766577Y-81564436D01*
X159780245Y-81592900D01*
X159826802Y-81644581D01*
X159893616Y-81662808D01*
X159959782Y-81641987D01*
X159992539Y-81609694D01*
X160016239Y-81575404D01*
X160018046Y-81574548D01*
X160019691Y-81575685D01*
X160019616Y-81577541D01*
X159984810Y-81637827D01*
X159965000Y-81750177D01*
X159965000Y-82389823D01*
X159984810Y-82502173D01*
X160031340Y-82582766D01*
X160031340Y-82584766D01*
X160029608Y-82585766D01*
X160028139Y-82585124D01*
X160019757Y-82576056D01*
X160019423Y-82575564D01*
X160005755Y-82547100D01*
X159959198Y-82495419D01*
X159892384Y-82477192D01*
X159826218Y-82498013D01*
X159793461Y-82530306D01*
X159769761Y-82564596D01*
X159767954Y-82565452D01*
X159766309Y-82564315D01*
X159766384Y-82562459D01*
X159801190Y-82502173D01*
X159821000Y-82389823D01*
X159821000Y-81750177D01*
X159801190Y-81637827D01*
X159754660Y-81557234D01*
X159754660Y-81555234D01*
X159756392Y-81554234D01*
X159757861Y-81554876D01*
G37*
G36*
X166957861Y-81554876D02*
G01*
X166966243Y-81563944D01*
X166966577Y-81564436D01*
X166980245Y-81592900D01*
X167026802Y-81644581D01*
X167093616Y-81662808D01*
X167159782Y-81641987D01*
X167192539Y-81609694D01*
X167216239Y-81575404D01*
X167218046Y-81574548D01*
X167219691Y-81575685D01*
X167219616Y-81577541D01*
X167184810Y-81637827D01*
X167165000Y-81750177D01*
X167165000Y-82389823D01*
X167184810Y-82502173D01*
X167231340Y-82582766D01*
X167231340Y-82584766D01*
X167229608Y-82585766D01*
X167228139Y-82585124D01*
X167219757Y-82576056D01*
X167219423Y-82575564D01*
X167205755Y-82547100D01*
X167159198Y-82495419D01*
X167092384Y-82477192D01*
X167026218Y-82498013D01*
X166993461Y-82530306D01*
X166969761Y-82564596D01*
X166967954Y-82565452D01*
X166966309Y-82564315D01*
X166966384Y-82562459D01*
X167001190Y-82502173D01*
X167021000Y-82389823D01*
X167021000Y-81750177D01*
X167001190Y-81637827D01*
X166954660Y-81557234D01*
X166954660Y-81555234D01*
X166956392Y-81554234D01*
X166957861Y-81554876D01*
G37*
G36*
X157357861Y-81554876D02*
G01*
X157366243Y-81563944D01*
X157366577Y-81564436D01*
X157380245Y-81592900D01*
X157426802Y-81644581D01*
X157493616Y-81662808D01*
X157559782Y-81641987D01*
X157592539Y-81609694D01*
X157616239Y-81575404D01*
X157618046Y-81574548D01*
X157619691Y-81575685D01*
X157619616Y-81577541D01*
X157584810Y-81637827D01*
X157565000Y-81750177D01*
X157565000Y-82389823D01*
X157584810Y-82502173D01*
X157631340Y-82582766D01*
X157631340Y-82584766D01*
X157629608Y-82585766D01*
X157628139Y-82585124D01*
X157619757Y-82576056D01*
X157619423Y-82575564D01*
X157605755Y-82547100D01*
X157559198Y-82495419D01*
X157492384Y-82477192D01*
X157426218Y-82498013D01*
X157393461Y-82530306D01*
X157369761Y-82564596D01*
X157367954Y-82565452D01*
X157366309Y-82564315D01*
X157366384Y-82562459D01*
X157401190Y-82502173D01*
X157421000Y-82389823D01*
X157421000Y-81750177D01*
X157401190Y-81637827D01*
X157354660Y-81557234D01*
X157354660Y-81555234D01*
X157356392Y-81554234D01*
X157357861Y-81554876D01*
G37*
G36*
X171757861Y-81554876D02*
G01*
X171766243Y-81563944D01*
X171766577Y-81564436D01*
X171780245Y-81592900D01*
X171826802Y-81644581D01*
X171893616Y-81662808D01*
X171959782Y-81641987D01*
X171992539Y-81609694D01*
X172016239Y-81575404D01*
X172018046Y-81574548D01*
X172019691Y-81575685D01*
X172019616Y-81577541D01*
X171984810Y-81637827D01*
X171965000Y-81750177D01*
X171965000Y-82389823D01*
X171984810Y-82502173D01*
X172031340Y-82582766D01*
X172031340Y-82584766D01*
X172029608Y-82585766D01*
X172028139Y-82585124D01*
X172019757Y-82576056D01*
X172019423Y-82575564D01*
X172005755Y-82547100D01*
X171959198Y-82495419D01*
X171892384Y-82477192D01*
X171826218Y-82498013D01*
X171793461Y-82530306D01*
X171769761Y-82564596D01*
X171767954Y-82565452D01*
X171766309Y-82564315D01*
X171766384Y-82562459D01*
X171801190Y-82502173D01*
X171821000Y-82389823D01*
X171821000Y-81750177D01*
X171801190Y-81637827D01*
X171754660Y-81557234D01*
X171754660Y-81555234D01*
X171756392Y-81554234D01*
X171757861Y-81554876D01*
G37*
G36*
X162957861Y-81554876D02*
G01*
X162966243Y-81563944D01*
X162966577Y-81564436D01*
X162980245Y-81592900D01*
X163026802Y-81644581D01*
X163093616Y-81662808D01*
X163159782Y-81641987D01*
X163192539Y-81609694D01*
X163216239Y-81575404D01*
X163218046Y-81574548D01*
X163219691Y-81575685D01*
X163219616Y-81577541D01*
X163184810Y-81637827D01*
X163165000Y-81750177D01*
X163165000Y-82389823D01*
X163184810Y-82502173D01*
X163231340Y-82582766D01*
X163231340Y-82584766D01*
X163229608Y-82585766D01*
X163228139Y-82585124D01*
X163219757Y-82576056D01*
X163219423Y-82575564D01*
X163205755Y-82547100D01*
X163159198Y-82495419D01*
X163092384Y-82477192D01*
X163026218Y-82498013D01*
X162993461Y-82530306D01*
X162969761Y-82564596D01*
X162967954Y-82565452D01*
X162966309Y-82564315D01*
X162966384Y-82562459D01*
X163001190Y-82502173D01*
X163021000Y-82389823D01*
X163021000Y-81750177D01*
X163001190Y-81637827D01*
X162954660Y-81557234D01*
X162954660Y-81555234D01*
X162956392Y-81554234D01*
X162957861Y-81554876D01*
G37*
G36*
X154957861Y-81554876D02*
G01*
X154966243Y-81563944D01*
X154966577Y-81564436D01*
X154980245Y-81592900D01*
X155026802Y-81644581D01*
X155093616Y-81662808D01*
X155159782Y-81641987D01*
X155192539Y-81609694D01*
X155216239Y-81575404D01*
X155218046Y-81574548D01*
X155219691Y-81575685D01*
X155219616Y-81577541D01*
X155184810Y-81637827D01*
X155165000Y-81750177D01*
X155165000Y-82389823D01*
X155184810Y-82502173D01*
X155231340Y-82582766D01*
X155231340Y-82584766D01*
X155229608Y-82585766D01*
X155228139Y-82585124D01*
X155219757Y-82576056D01*
X155219423Y-82575564D01*
X155205755Y-82547100D01*
X155159198Y-82495419D01*
X155092384Y-82477192D01*
X155026218Y-82498013D01*
X154993461Y-82530306D01*
X154969761Y-82564596D01*
X154967954Y-82565452D01*
X154966309Y-82564315D01*
X154966384Y-82562459D01*
X155001190Y-82502173D01*
X155021000Y-82389823D01*
X155021000Y-81750177D01*
X155001190Y-81637827D01*
X154954660Y-81557234D01*
X154954660Y-81555234D01*
X154956392Y-81554234D01*
X154957861Y-81554876D01*
G37*
G36*
X161357861Y-81554876D02*
G01*
X161366243Y-81563944D01*
X161366577Y-81564436D01*
X161380245Y-81592900D01*
X161426802Y-81644581D01*
X161493616Y-81662808D01*
X161559782Y-81641987D01*
X161592539Y-81609694D01*
X161616239Y-81575404D01*
X161618046Y-81574548D01*
X161619691Y-81575685D01*
X161619616Y-81577541D01*
X161584810Y-81637827D01*
X161565000Y-81750177D01*
X161565000Y-82389823D01*
X161584810Y-82502173D01*
X161631340Y-82582766D01*
X161631340Y-82584766D01*
X161629608Y-82585766D01*
X161628139Y-82585124D01*
X161619757Y-82576056D01*
X161619423Y-82575564D01*
X161605755Y-82547100D01*
X161559198Y-82495419D01*
X161492384Y-82477192D01*
X161426218Y-82498013D01*
X161393461Y-82530306D01*
X161369761Y-82564596D01*
X161367954Y-82565452D01*
X161366309Y-82564315D01*
X161366384Y-82562459D01*
X161401190Y-82502173D01*
X161421000Y-82389823D01*
X161421000Y-81750177D01*
X161401190Y-81637827D01*
X161354660Y-81557234D01*
X161354660Y-81555234D01*
X161356392Y-81554234D01*
X161357861Y-81554876D01*
G37*
G36*
X173357861Y-81554876D02*
G01*
X173366243Y-81563944D01*
X173366577Y-81564436D01*
X173380245Y-81592900D01*
X173426802Y-81644581D01*
X173493616Y-81662808D01*
X173559782Y-81641987D01*
X173592539Y-81609694D01*
X173616239Y-81575404D01*
X173618046Y-81574548D01*
X173619691Y-81575685D01*
X173619616Y-81577541D01*
X173584810Y-81637827D01*
X173565000Y-81750177D01*
X173565000Y-82389823D01*
X173584810Y-82502173D01*
X173631340Y-82582766D01*
X173631340Y-82584766D01*
X173629608Y-82585766D01*
X173628139Y-82585124D01*
X173619757Y-82576056D01*
X173619423Y-82575564D01*
X173605755Y-82547100D01*
X173559198Y-82495419D01*
X173492384Y-82477192D01*
X173426218Y-82498013D01*
X173393461Y-82530306D01*
X173369761Y-82564596D01*
X173367954Y-82565452D01*
X173366309Y-82564315D01*
X173366384Y-82562459D01*
X173401190Y-82502173D01*
X173421000Y-82389823D01*
X173421000Y-81750177D01*
X173401190Y-81637827D01*
X173354660Y-81557234D01*
X173354660Y-81555234D01*
X173356392Y-81554234D01*
X173357861Y-81554876D01*
G37*
G36*
X165357861Y-81554876D02*
G01*
X165366243Y-81563944D01*
X165366577Y-81564436D01*
X165380245Y-81592900D01*
X165426802Y-81644581D01*
X165493616Y-81662808D01*
X165559782Y-81641987D01*
X165592539Y-81609694D01*
X165616239Y-81575404D01*
X165618046Y-81574548D01*
X165619691Y-81575685D01*
X165619616Y-81577541D01*
X165584810Y-81637827D01*
X165565000Y-81750177D01*
X165565000Y-82389823D01*
X165584810Y-82502173D01*
X165631340Y-82582766D01*
X165631340Y-82584766D01*
X165629608Y-82585766D01*
X165628139Y-82585124D01*
X165619757Y-82576056D01*
X165619423Y-82575564D01*
X165605755Y-82547100D01*
X165559198Y-82495419D01*
X165492384Y-82477192D01*
X165426218Y-82498013D01*
X165393461Y-82530306D01*
X165369761Y-82564596D01*
X165367954Y-82565452D01*
X165366309Y-82564315D01*
X165366384Y-82562459D01*
X165401190Y-82502173D01*
X165421000Y-82389823D01*
X165421000Y-81750177D01*
X165401190Y-81637827D01*
X165354660Y-81557234D01*
X165354660Y-81555234D01*
X165356392Y-81554234D01*
X165357861Y-81554876D01*
G37*
G36*
X164557861Y-81554876D02*
G01*
X164566243Y-81563944D01*
X164566577Y-81564436D01*
X164580245Y-81592900D01*
X164626802Y-81644581D01*
X164693616Y-81662808D01*
X164759782Y-81641987D01*
X164792539Y-81609694D01*
X164816239Y-81575404D01*
X164818046Y-81574548D01*
X164819691Y-81575685D01*
X164819616Y-81577541D01*
X164784810Y-81637827D01*
X164765000Y-81750177D01*
X164765000Y-82389823D01*
X164784810Y-82502173D01*
X164831340Y-82582766D01*
X164831340Y-82584766D01*
X164829608Y-82585766D01*
X164828139Y-82585124D01*
X164819757Y-82576056D01*
X164819423Y-82575564D01*
X164805755Y-82547100D01*
X164759198Y-82495419D01*
X164692384Y-82477192D01*
X164626218Y-82498013D01*
X164593461Y-82530306D01*
X164569761Y-82564596D01*
X164567954Y-82565452D01*
X164566309Y-82564315D01*
X164566384Y-82562459D01*
X164601190Y-82502173D01*
X164621000Y-82389823D01*
X164621000Y-81750177D01*
X164601190Y-81637827D01*
X164554660Y-81557234D01*
X164554660Y-81555234D01*
X164556392Y-81554234D01*
X164557861Y-81554876D01*
G37*
G36*
X169357861Y-81554876D02*
G01*
X169366243Y-81563944D01*
X169366577Y-81564436D01*
X169380245Y-81592900D01*
X169426802Y-81644581D01*
X169493616Y-81662808D01*
X169559782Y-81641987D01*
X169592539Y-81609694D01*
X169616239Y-81575404D01*
X169618046Y-81574548D01*
X169619691Y-81575685D01*
X169619616Y-81577541D01*
X169584810Y-81637827D01*
X169565000Y-81750177D01*
X169565000Y-82389823D01*
X169584810Y-82502173D01*
X169631340Y-82582766D01*
X169631340Y-82584766D01*
X169629608Y-82585766D01*
X169628139Y-82585124D01*
X169619757Y-82576056D01*
X169619423Y-82575564D01*
X169605755Y-82547100D01*
X169559198Y-82495419D01*
X169492384Y-82477192D01*
X169426218Y-82498013D01*
X169393461Y-82530306D01*
X169369761Y-82564596D01*
X169367954Y-82565452D01*
X169366309Y-82564315D01*
X169366384Y-82562459D01*
X169401190Y-82502173D01*
X169421000Y-82389823D01*
X169421000Y-81750177D01*
X169401190Y-81637827D01*
X169354660Y-81557234D01*
X169354660Y-81555234D01*
X169356392Y-81554234D01*
X169357861Y-81554876D01*
G37*
G36*
X163757861Y-81554876D02*
G01*
X163766243Y-81563944D01*
X163766577Y-81564436D01*
X163780245Y-81592900D01*
X163826802Y-81644581D01*
X163893616Y-81662808D01*
X163959782Y-81641987D01*
X163992539Y-81609694D01*
X164016239Y-81575404D01*
X164018046Y-81574548D01*
X164019691Y-81575685D01*
X164019616Y-81577541D01*
X163984810Y-81637827D01*
X163965000Y-81750177D01*
X163965000Y-82389823D01*
X163984810Y-82502173D01*
X164031340Y-82582766D01*
X164031340Y-82584766D01*
X164029608Y-82585766D01*
X164028139Y-82585124D01*
X164019757Y-82576056D01*
X164019423Y-82575564D01*
X164005755Y-82547100D01*
X163959198Y-82495419D01*
X163892384Y-82477192D01*
X163826218Y-82498013D01*
X163793461Y-82530306D01*
X163769761Y-82564596D01*
X163767954Y-82565452D01*
X163766309Y-82564315D01*
X163766384Y-82562459D01*
X163801190Y-82502173D01*
X163821000Y-82389823D01*
X163821000Y-81750177D01*
X163801190Y-81637827D01*
X163754660Y-81557234D01*
X163754660Y-81555234D01*
X163756392Y-81554234D01*
X163757861Y-81554876D01*
G37*
G36*
X174957861Y-81554876D02*
G01*
X174966243Y-81563944D01*
X174966577Y-81564436D01*
X174980245Y-81592900D01*
X175026802Y-81644581D01*
X175093616Y-81662808D01*
X175159782Y-81641987D01*
X175192539Y-81609694D01*
X175216239Y-81575404D01*
X175218046Y-81574548D01*
X175219691Y-81575685D01*
X175219616Y-81577541D01*
X175184810Y-81637827D01*
X175165000Y-81750177D01*
X175165000Y-82389823D01*
X175184810Y-82502173D01*
X175231340Y-82582766D01*
X175231340Y-82584766D01*
X175229608Y-82585766D01*
X175228139Y-82585124D01*
X175219757Y-82576056D01*
X175219423Y-82575564D01*
X175205755Y-82547100D01*
X175159198Y-82495419D01*
X175092384Y-82477192D01*
X175026218Y-82498013D01*
X174993461Y-82530306D01*
X174969761Y-82564596D01*
X174967954Y-82565452D01*
X174966309Y-82564315D01*
X174966384Y-82562459D01*
X175001190Y-82502173D01*
X175021000Y-82389823D01*
X175021000Y-81750177D01*
X175001190Y-81637827D01*
X174954660Y-81557234D01*
X174954660Y-81555234D01*
X174956392Y-81554234D01*
X174957861Y-81554876D01*
G37*
G36*
X155757861Y-81554876D02*
G01*
X155766243Y-81563944D01*
X155766577Y-81564436D01*
X155780245Y-81592900D01*
X155826802Y-81644581D01*
X155893616Y-81662808D01*
X155959782Y-81641987D01*
X155992539Y-81609694D01*
X156016239Y-81575404D01*
X156018046Y-81574548D01*
X156019691Y-81575685D01*
X156019616Y-81577541D01*
X155984810Y-81637827D01*
X155965000Y-81750177D01*
X155965000Y-82389823D01*
X155984810Y-82502173D01*
X156031340Y-82582766D01*
X156031340Y-82584766D01*
X156029608Y-82585766D01*
X156028139Y-82585124D01*
X156019757Y-82576056D01*
X156019423Y-82575564D01*
X156005755Y-82547100D01*
X155959198Y-82495419D01*
X155892384Y-82477192D01*
X155826218Y-82498013D01*
X155793461Y-82530306D01*
X155769761Y-82564596D01*
X155767954Y-82565452D01*
X155766309Y-82564315D01*
X155766384Y-82562459D01*
X155801190Y-82502173D01*
X155821000Y-82389823D01*
X155821000Y-81750177D01*
X155801190Y-81637827D01*
X155754660Y-81557234D01*
X155754660Y-81555234D01*
X155756392Y-81554234D01*
X155757861Y-81554876D01*
G37*
G36*
X118706859Y-81070572D02*
G01*
X118707092Y-81072558D01*
X118706112Y-81073574D01*
X118650400Y-81099984D01*
X118613791Y-81158777D01*
X118614780Y-81228073D01*
X118645409Y-81278867D01*
X118657037Y-81290495D01*
X118657555Y-81292427D01*
X118656141Y-81293841D01*
X118654512Y-81293572D01*
X118588317Y-81249342D01*
X118486051Y-81229000D01*
X117973949Y-81229000D01*
X117871683Y-81249342D01*
X117805488Y-81293572D01*
X117803492Y-81293703D01*
X117802381Y-81292040D01*
X117802963Y-81290495D01*
X117814561Y-81278897D01*
X117847895Y-81217848D01*
X117842955Y-81148766D01*
X117801422Y-81093284D01*
X117755263Y-81073777D01*
X117754057Y-81072182D01*
X117754836Y-81070340D01*
X117756274Y-81069948D01*
X117773871Y-81072000D01*
X118686136Y-81072000D01*
X118705022Y-81069781D01*
X118706859Y-81070572D01*
G37*
G36*
X108546859Y-81070572D02*
G01*
X108547092Y-81072558D01*
X108546112Y-81073574D01*
X108490400Y-81099984D01*
X108453791Y-81158777D01*
X108454780Y-81228073D01*
X108485409Y-81278867D01*
X108497037Y-81290495D01*
X108497555Y-81292427D01*
X108496141Y-81293841D01*
X108494512Y-81293572D01*
X108428317Y-81249342D01*
X108326051Y-81229000D01*
X107813949Y-81229000D01*
X107711683Y-81249342D01*
X107645488Y-81293572D01*
X107643492Y-81293703D01*
X107642381Y-81292040D01*
X107642963Y-81290495D01*
X107654561Y-81278897D01*
X107687895Y-81217848D01*
X107682955Y-81148766D01*
X107641422Y-81093284D01*
X107595263Y-81073777D01*
X107594057Y-81072182D01*
X107594836Y-81070340D01*
X107596274Y-81069948D01*
X107613871Y-81072000D01*
X108526136Y-81072000D01*
X108545022Y-81069781D01*
X108546859Y-81070572D01*
G37*
G36*
X116166859Y-81070572D02*
G01*
X116167092Y-81072558D01*
X116166112Y-81073574D01*
X116110400Y-81099984D01*
X116073791Y-81158777D01*
X116074780Y-81228073D01*
X116105409Y-81278867D01*
X116117037Y-81290495D01*
X116117555Y-81292427D01*
X116116141Y-81293841D01*
X116114512Y-81293572D01*
X116048317Y-81249342D01*
X115946051Y-81229000D01*
X115433949Y-81229000D01*
X115331683Y-81249342D01*
X115265488Y-81293572D01*
X115263492Y-81293703D01*
X115262381Y-81292040D01*
X115262963Y-81290495D01*
X115274561Y-81278897D01*
X115307895Y-81217848D01*
X115302955Y-81148766D01*
X115261422Y-81093284D01*
X115215263Y-81073777D01*
X115214057Y-81072182D01*
X115214836Y-81070340D01*
X115216274Y-81069948D01*
X115233871Y-81072000D01*
X116146136Y-81072000D01*
X116165022Y-81069781D01*
X116166859Y-81070572D01*
G37*
G36*
X121246859Y-81070572D02*
G01*
X121247092Y-81072558D01*
X121246112Y-81073574D01*
X121190400Y-81099984D01*
X121153791Y-81158777D01*
X121154780Y-81228073D01*
X121185409Y-81278867D01*
X121197037Y-81290495D01*
X121197555Y-81292427D01*
X121196141Y-81293841D01*
X121194512Y-81293572D01*
X121128317Y-81249342D01*
X121026051Y-81229000D01*
X120513949Y-81229000D01*
X120411683Y-81249342D01*
X120345488Y-81293572D01*
X120343492Y-81293703D01*
X120342381Y-81292040D01*
X120342963Y-81290495D01*
X120354561Y-81278897D01*
X120387895Y-81217848D01*
X120382955Y-81148766D01*
X120341422Y-81093284D01*
X120295263Y-81073777D01*
X120294057Y-81072182D01*
X120294836Y-81070340D01*
X120296274Y-81069948D01*
X120313871Y-81072000D01*
X121226136Y-81072000D01*
X121245022Y-81069781D01*
X121246859Y-81070572D01*
G37*
G36*
X113626859Y-81070572D02*
G01*
X113627092Y-81072558D01*
X113626112Y-81073574D01*
X113570400Y-81099984D01*
X113533791Y-81158777D01*
X113534780Y-81228073D01*
X113565409Y-81278867D01*
X113577037Y-81290495D01*
X113577555Y-81292427D01*
X113576141Y-81293841D01*
X113574512Y-81293572D01*
X113508317Y-81249342D01*
X113406051Y-81229000D01*
X112893949Y-81229000D01*
X112791683Y-81249342D01*
X112725488Y-81293572D01*
X112723492Y-81293703D01*
X112722381Y-81292040D01*
X112722963Y-81290495D01*
X112734561Y-81278897D01*
X112767895Y-81217848D01*
X112762955Y-81148766D01*
X112721422Y-81093284D01*
X112675263Y-81073777D01*
X112674057Y-81072182D01*
X112674836Y-81070340D01*
X112676274Y-81069948D01*
X112693871Y-81072000D01*
X113606136Y-81072000D01*
X113625022Y-81069781D01*
X113626859Y-81070572D01*
G37*
G36*
X105088870Y-81072000D02*
G01*
X106001136Y-81072000D01*
X106008559Y-81071128D01*
X106010396Y-81071919D01*
X106010629Y-81073905D01*
X106009649Y-81074921D01*
X105952451Y-81102035D01*
X105915842Y-81160828D01*
X105916831Y-81230124D01*
X105947460Y-81280918D01*
X105957037Y-81290495D01*
X105957555Y-81292427D01*
X105956141Y-81293841D01*
X105954512Y-81293572D01*
X105888317Y-81249342D01*
X105786051Y-81229000D01*
X105273949Y-81229000D01*
X105171683Y-81249342D01*
X105105488Y-81293572D01*
X105103492Y-81293703D01*
X105102381Y-81292040D01*
X105102963Y-81290495D01*
X105116612Y-81276846D01*
X105149946Y-81215797D01*
X105145006Y-81146715D01*
X105103473Y-81091233D01*
X105059081Y-81072474D01*
X105057875Y-81070879D01*
X105058654Y-81069037D01*
X105060092Y-81068645D01*
X105088870Y-81072000D01*
G37*
G36*
X111086859Y-81070572D02*
G01*
X111087092Y-81072558D01*
X111086112Y-81073574D01*
X111030400Y-81099984D01*
X110993791Y-81158777D01*
X110994780Y-81228073D01*
X111025409Y-81278867D01*
X111037037Y-81290495D01*
X111037555Y-81292427D01*
X111036141Y-81293841D01*
X111034512Y-81293572D01*
X110968317Y-81249342D01*
X110866051Y-81229000D01*
X110353949Y-81229000D01*
X110251683Y-81249342D01*
X110185488Y-81293572D01*
X110183492Y-81293703D01*
X110182381Y-81292040D01*
X110182963Y-81290495D01*
X110194561Y-81278897D01*
X110227895Y-81217848D01*
X110222955Y-81148766D01*
X110181422Y-81093284D01*
X110135263Y-81073777D01*
X110134057Y-81072182D01*
X110134836Y-81070340D01*
X110136274Y-81069948D01*
X110153871Y-81072000D01*
X111066136Y-81072000D01*
X111085022Y-81069781D01*
X111086859Y-81070572D01*
G37*
G36*
X103466859Y-81070572D02*
G01*
X103467092Y-81072558D01*
X103466112Y-81073574D01*
X103410400Y-81099984D01*
X103373791Y-81158777D01*
X103374780Y-81228073D01*
X103405409Y-81278867D01*
X103417037Y-81290495D01*
X103417555Y-81292427D01*
X103416141Y-81293841D01*
X103414512Y-81293572D01*
X103348317Y-81249342D01*
X103246051Y-81229000D01*
X102733949Y-81229000D01*
X102631683Y-81249342D01*
X102565488Y-81293572D01*
X102563492Y-81293703D01*
X102562381Y-81292040D01*
X102562963Y-81290495D01*
X102574561Y-81278897D01*
X102607895Y-81217848D01*
X102602955Y-81148766D01*
X102561422Y-81093284D01*
X102515263Y-81073777D01*
X102514057Y-81072182D01*
X102514836Y-81070340D01*
X102516274Y-81069948D01*
X102533871Y-81072000D01*
X103446136Y-81072000D01*
X103465022Y-81069781D01*
X103466859Y-81070572D01*
G37*
G36*
X142361119Y-69326554D02*
G01*
X142361683Y-69328473D01*
X142361402Y-69329112D01*
X142351691Y-69343645D01*
X142348000Y-69362199D01*
X142348000Y-71261801D01*
X142351691Y-71280355D01*
X142361308Y-71294747D01*
X142361439Y-71296743D01*
X142359776Y-71297854D01*
X142359047Y-71297767D01*
X142298212Y-71278718D01*
X142232824Y-71297918D01*
X142230881Y-71297446D01*
X142230317Y-71295527D01*
X142230598Y-71294888D01*
X142240309Y-71280355D01*
X142244000Y-71261801D01*
X142244000Y-69362199D01*
X142240309Y-69343645D01*
X142230692Y-69329253D01*
X142230561Y-69327257D01*
X142232224Y-69326146D01*
X142232953Y-69326233D01*
X142293788Y-69345282D01*
X142359176Y-69326082D01*
X142361119Y-69326554D01*
G37*
G36*
X145361119Y-69326554D02*
G01*
X145361683Y-69328473D01*
X145361402Y-69329112D01*
X145351691Y-69343645D01*
X145348000Y-69362199D01*
X145348000Y-71261801D01*
X145351691Y-71280355D01*
X145361308Y-71294747D01*
X145361439Y-71296743D01*
X145359776Y-71297854D01*
X145359047Y-71297767D01*
X145298212Y-71278718D01*
X145232824Y-71297918D01*
X145230881Y-71297446D01*
X145230317Y-71295527D01*
X145230598Y-71294888D01*
X145240309Y-71280355D01*
X145244000Y-71261801D01*
X145244000Y-69362199D01*
X145240309Y-69343645D01*
X145230692Y-69329253D01*
X145230561Y-69327257D01*
X145232224Y-69326146D01*
X145232953Y-69326233D01*
X145293788Y-69345282D01*
X145359176Y-69326082D01*
X145361119Y-69326554D01*
G37*
G36*
X147361119Y-69326554D02*
G01*
X147361683Y-69328473D01*
X147361402Y-69329112D01*
X147351691Y-69343645D01*
X147348000Y-69362199D01*
X147348000Y-71261801D01*
X147351691Y-71280355D01*
X147361308Y-71294747D01*
X147361439Y-71296743D01*
X147359776Y-71297854D01*
X147359047Y-71297767D01*
X147298212Y-71278718D01*
X147232824Y-71297918D01*
X147230881Y-71297446D01*
X147230317Y-71295527D01*
X147230598Y-71294888D01*
X147240309Y-71280355D01*
X147244000Y-71261801D01*
X147244000Y-69362199D01*
X147240309Y-69343645D01*
X147230692Y-69329253D01*
X147230561Y-69327257D01*
X147232224Y-69326146D01*
X147232953Y-69326233D01*
X147293788Y-69345282D01*
X147359176Y-69326082D01*
X147361119Y-69326554D01*
G37*
G36*
X148861119Y-69326554D02*
G01*
X148861683Y-69328473D01*
X148861402Y-69329112D01*
X148851691Y-69343645D01*
X148848000Y-69362199D01*
X148848000Y-71261801D01*
X148851691Y-71280355D01*
X148861308Y-71294747D01*
X148861439Y-71296743D01*
X148859776Y-71297854D01*
X148859047Y-71297767D01*
X148798212Y-71278718D01*
X148732824Y-71297918D01*
X148730881Y-71297446D01*
X148730317Y-71295527D01*
X148730598Y-71294888D01*
X148740309Y-71280355D01*
X148744000Y-71261801D01*
X148744000Y-69362199D01*
X148740309Y-69343645D01*
X148730692Y-69329253D01*
X148730561Y-69327257D01*
X148732224Y-69326146D01*
X148732953Y-69326233D01*
X148793788Y-69345282D01*
X148859176Y-69326082D01*
X148861119Y-69326554D01*
G37*
G36*
X141861119Y-69326554D02*
G01*
X141861683Y-69328473D01*
X141861402Y-69329112D01*
X141851691Y-69343645D01*
X141848000Y-69362199D01*
X141848000Y-71261801D01*
X141851691Y-71280355D01*
X141861308Y-71294747D01*
X141861439Y-71296743D01*
X141859776Y-71297854D01*
X141859047Y-71297767D01*
X141798212Y-71278718D01*
X141732824Y-71297918D01*
X141730881Y-71297446D01*
X141730317Y-71295527D01*
X141730598Y-71294888D01*
X141740309Y-71280355D01*
X141744000Y-71261801D01*
X141744000Y-69362199D01*
X141740309Y-69343645D01*
X141730692Y-69329253D01*
X141730561Y-69327257D01*
X141732224Y-69326146D01*
X141732953Y-69326233D01*
X141793788Y-69345282D01*
X141859176Y-69326082D01*
X141861119Y-69326554D01*
G37*
G36*
X142861119Y-69326554D02*
G01*
X142861683Y-69328473D01*
X142861402Y-69329112D01*
X142851691Y-69343645D01*
X142848000Y-69362199D01*
X142848000Y-71261801D01*
X142851691Y-71280355D01*
X142861308Y-71294747D01*
X142861439Y-71296743D01*
X142859776Y-71297854D01*
X142859047Y-71297767D01*
X142798212Y-71278718D01*
X142732824Y-71297918D01*
X142730881Y-71297446D01*
X142730317Y-71295527D01*
X142730598Y-71294888D01*
X142740309Y-71280355D01*
X142744000Y-71261801D01*
X142744000Y-69362199D01*
X142740309Y-69343645D01*
X142730692Y-69329253D01*
X142730561Y-69327257D01*
X142732224Y-69326146D01*
X142732953Y-69326233D01*
X142793788Y-69345282D01*
X142859176Y-69326082D01*
X142861119Y-69326554D01*
G37*
G36*
X147861119Y-69326554D02*
G01*
X147861683Y-69328473D01*
X147861402Y-69329112D01*
X147851691Y-69343645D01*
X147848000Y-69362199D01*
X147848000Y-71261801D01*
X147851691Y-71280355D01*
X147861308Y-71294747D01*
X147861439Y-71296743D01*
X147859776Y-71297854D01*
X147859047Y-71297767D01*
X147798212Y-71278718D01*
X147732824Y-71297918D01*
X147730881Y-71297446D01*
X147730317Y-71295527D01*
X147730598Y-71294888D01*
X147740309Y-71280355D01*
X147744000Y-71261801D01*
X147744000Y-69362199D01*
X147740309Y-69343645D01*
X147730692Y-69329253D01*
X147730561Y-69327257D01*
X147732224Y-69326146D01*
X147732953Y-69326233D01*
X147793788Y-69345282D01*
X147859176Y-69326082D01*
X147861119Y-69326554D01*
G37*
G36*
X145861119Y-69326554D02*
G01*
X145861683Y-69328473D01*
X145861402Y-69329112D01*
X145851691Y-69343645D01*
X145848000Y-69362199D01*
X145848000Y-71261801D01*
X145851691Y-71280355D01*
X145861308Y-71294747D01*
X145861439Y-71296743D01*
X145859776Y-71297854D01*
X145859047Y-71297767D01*
X145798212Y-71278718D01*
X145732824Y-71297918D01*
X145730881Y-71297446D01*
X145730317Y-71295527D01*
X145730598Y-71294888D01*
X145740309Y-71280355D01*
X145744000Y-71261801D01*
X145744000Y-69362199D01*
X145740309Y-69343645D01*
X145730692Y-69329253D01*
X145730561Y-69327257D01*
X145732224Y-69326146D01*
X145732953Y-69326233D01*
X145793788Y-69345282D01*
X145859176Y-69326082D01*
X145861119Y-69326554D01*
G37*
G36*
X143361119Y-69326554D02*
G01*
X143361683Y-69328473D01*
X143361402Y-69329112D01*
X143351691Y-69343645D01*
X143348000Y-69362199D01*
X143348000Y-71261801D01*
X143351691Y-71280355D01*
X143361308Y-71294747D01*
X143361439Y-71296743D01*
X143359776Y-71297854D01*
X143359047Y-71297767D01*
X143298212Y-71278718D01*
X143232824Y-71297918D01*
X143230881Y-71297446D01*
X143230317Y-71295527D01*
X143230598Y-71294888D01*
X143240309Y-71280355D01*
X143244000Y-71261801D01*
X143244000Y-69362199D01*
X143240309Y-69343645D01*
X143230692Y-69329253D01*
X143230561Y-69327257D01*
X143232224Y-69326146D01*
X143232953Y-69326233D01*
X143293788Y-69345282D01*
X143359176Y-69326082D01*
X143361119Y-69326554D01*
G37*
G36*
X149361119Y-69326554D02*
G01*
X149361683Y-69328473D01*
X149361402Y-69329112D01*
X149351691Y-69343645D01*
X149348000Y-69362199D01*
X149348000Y-71261801D01*
X149351691Y-71280355D01*
X149361308Y-71294747D01*
X149361439Y-71296743D01*
X149359776Y-71297854D01*
X149359047Y-71297767D01*
X149298212Y-71278718D01*
X149232824Y-71297918D01*
X149230881Y-71297446D01*
X149230317Y-71295527D01*
X149230598Y-71294888D01*
X149240309Y-71280355D01*
X149244000Y-71261801D01*
X149244000Y-69362199D01*
X149240309Y-69343645D01*
X149230692Y-69329253D01*
X149230561Y-69327257D01*
X149232224Y-69326146D01*
X149232953Y-69326233D01*
X149293788Y-69345282D01*
X149359176Y-69326082D01*
X149361119Y-69326554D01*
G37*
G36*
X146361119Y-69326554D02*
G01*
X146361683Y-69328473D01*
X146361402Y-69329112D01*
X146351691Y-69343645D01*
X146348000Y-69362199D01*
X146348000Y-71261801D01*
X146351691Y-71280355D01*
X146361308Y-71294747D01*
X146361439Y-71296743D01*
X146359776Y-71297854D01*
X146359047Y-71297767D01*
X146298212Y-71278718D01*
X146232824Y-71297918D01*
X146230881Y-71297446D01*
X146230317Y-71295527D01*
X146230598Y-71294888D01*
X146240309Y-71280355D01*
X146244000Y-71261801D01*
X146244000Y-69362199D01*
X146240309Y-69343645D01*
X146230692Y-69329253D01*
X146230561Y-69327257D01*
X146232224Y-69326146D01*
X146232953Y-69326233D01*
X146293788Y-69345282D01*
X146359176Y-69326082D01*
X146361119Y-69326554D01*
G37*
G36*
X144361119Y-69326554D02*
G01*
X144361683Y-69328473D01*
X144361402Y-69329112D01*
X144351691Y-69343645D01*
X144348000Y-69362199D01*
X144348000Y-71261801D01*
X144351691Y-71280355D01*
X144361308Y-71294747D01*
X144361439Y-71296743D01*
X144359776Y-71297854D01*
X144359047Y-71297767D01*
X144298212Y-71278718D01*
X144232824Y-71297918D01*
X144230881Y-71297446D01*
X144230317Y-71295527D01*
X144230598Y-71294888D01*
X144240309Y-71280355D01*
X144244000Y-71261801D01*
X144244000Y-69362199D01*
X144240309Y-69343645D01*
X144230692Y-69329253D01*
X144230561Y-69327257D01*
X144232224Y-69326146D01*
X144232953Y-69326233D01*
X144293788Y-69345282D01*
X144359176Y-69326082D01*
X144361119Y-69326554D01*
G37*
G36*
X148361119Y-69326554D02*
G01*
X148361683Y-69328473D01*
X148361402Y-69329112D01*
X148351691Y-69343645D01*
X148348000Y-69362199D01*
X148348000Y-71261801D01*
X148351691Y-71280355D01*
X148361308Y-71294747D01*
X148361439Y-71296743D01*
X148359776Y-71297854D01*
X148359047Y-71297767D01*
X148298212Y-71278718D01*
X148232824Y-71297918D01*
X148230881Y-71297446D01*
X148230317Y-71295527D01*
X148230598Y-71294888D01*
X148240309Y-71280355D01*
X148244000Y-71261801D01*
X148244000Y-69362199D01*
X148240309Y-69343645D01*
X148230692Y-69329253D01*
X148230561Y-69327257D01*
X148232224Y-69326146D01*
X148232953Y-69326233D01*
X148293788Y-69345282D01*
X148359176Y-69326082D01*
X148361119Y-69326554D01*
G37*
G36*
X141361119Y-69326554D02*
G01*
X141361683Y-69328473D01*
X141361402Y-69329112D01*
X141351691Y-69343645D01*
X141348000Y-69362199D01*
X141348000Y-71261801D01*
X141351691Y-71280355D01*
X141361308Y-71294747D01*
X141361439Y-71296743D01*
X141359776Y-71297854D01*
X141359047Y-71297767D01*
X141298212Y-71278718D01*
X141232824Y-71297918D01*
X141230881Y-71297446D01*
X141230317Y-71295527D01*
X141230598Y-71294888D01*
X141240309Y-71280355D01*
X141244000Y-71261801D01*
X141244000Y-69362199D01*
X141240309Y-69343645D01*
X141230692Y-69329253D01*
X141230561Y-69327257D01*
X141232224Y-69326146D01*
X141232953Y-69326233D01*
X141293788Y-69345282D01*
X141359176Y-69326082D01*
X141361119Y-69326554D01*
G37*
G36*
X146861119Y-69326554D02*
G01*
X146861683Y-69328473D01*
X146861402Y-69329112D01*
X146851691Y-69343645D01*
X146848000Y-69362199D01*
X146848000Y-71261801D01*
X146851691Y-71280355D01*
X146861308Y-71294747D01*
X146861439Y-71296743D01*
X146859776Y-71297854D01*
X146859047Y-71297767D01*
X146798212Y-71278718D01*
X146732824Y-71297918D01*
X146730881Y-71297446D01*
X146730317Y-71295527D01*
X146730598Y-71294888D01*
X146740309Y-71280355D01*
X146744000Y-71261801D01*
X146744000Y-69362199D01*
X146740309Y-69343645D01*
X146730692Y-69329253D01*
X146730561Y-69327257D01*
X146732224Y-69326146D01*
X146732953Y-69326233D01*
X146793788Y-69345282D01*
X146859176Y-69326082D01*
X146861119Y-69326554D01*
G37*
G36*
X143861119Y-69326554D02*
G01*
X143861683Y-69328473D01*
X143861402Y-69329112D01*
X143851691Y-69343645D01*
X143848000Y-69362199D01*
X143848000Y-71261801D01*
X143851691Y-71280355D01*
X143861308Y-71294747D01*
X143861439Y-71296743D01*
X143859776Y-71297854D01*
X143859047Y-71297767D01*
X143798212Y-71278718D01*
X143732824Y-71297918D01*
X143730881Y-71297446D01*
X143730317Y-71295527D01*
X143730598Y-71294888D01*
X143740309Y-71280355D01*
X143744000Y-71261801D01*
X143744000Y-69362199D01*
X143740309Y-69343645D01*
X143730692Y-69329253D01*
X143730561Y-69327257D01*
X143732224Y-69326146D01*
X143732953Y-69326233D01*
X143793788Y-69345282D01*
X143859176Y-69326082D01*
X143861119Y-69326554D01*
G37*
G36*
X140861119Y-69326554D02*
G01*
X140861683Y-69328473D01*
X140861402Y-69329112D01*
X140851691Y-69343645D01*
X140848000Y-69362199D01*
X140848000Y-71261801D01*
X140851691Y-71280355D01*
X140861308Y-71294747D01*
X140861439Y-71296743D01*
X140859776Y-71297854D01*
X140859047Y-71297767D01*
X140798212Y-71278718D01*
X140732824Y-71297918D01*
X140730881Y-71297446D01*
X140730317Y-71295527D01*
X140730598Y-71294888D01*
X140740309Y-71280355D01*
X140744000Y-71261801D01*
X140744000Y-69362199D01*
X140740309Y-69343645D01*
X140730692Y-69329253D01*
X140730561Y-69327257D01*
X140732224Y-69326146D01*
X140732953Y-69326233D01*
X140793788Y-69345282D01*
X140859176Y-69326082D01*
X140861119Y-69326554D01*
G37*
G36*
X144861119Y-69326554D02*
G01*
X144861683Y-69328473D01*
X144861402Y-69329112D01*
X144851691Y-69343645D01*
X144848000Y-69362199D01*
X144848000Y-71261801D01*
X144851691Y-71280355D01*
X144861308Y-71294747D01*
X144861439Y-71296743D01*
X144859776Y-71297854D01*
X144859047Y-71297767D01*
X144798212Y-71278718D01*
X144732824Y-71297918D01*
X144730881Y-71297446D01*
X144730317Y-71295527D01*
X144730598Y-71294888D01*
X144740309Y-71280355D01*
X144744000Y-71261801D01*
X144744000Y-69362199D01*
X144740309Y-69343645D01*
X144730692Y-69329253D01*
X144730561Y-69327257D01*
X144732224Y-69326146D01*
X144732953Y-69326233D01*
X144793788Y-69345282D01*
X144859176Y-69326082D01*
X144861119Y-69326554D01*
G37*
G36*
X111469953Y-65293200D02*
G01*
X111483745Y-65302416D01*
X111484707Y-65300976D01*
X111486501Y-65300091D01*
X111487652Y-65300552D01*
X111505950Y-65315842D01*
X111574668Y-65324469D01*
X111623359Y-65301170D01*
X111625353Y-65301324D01*
X111625885Y-65301863D01*
X111626255Y-65302416D01*
X111640047Y-65293201D01*
X111642043Y-65293070D01*
X111643154Y-65294733D01*
X111642821Y-65295975D01*
X111635691Y-65306645D01*
X111632000Y-65325199D01*
X111632000Y-66674801D01*
X111635691Y-66693355D01*
X111642821Y-66704026D01*
X111642952Y-66706022D01*
X111641289Y-66707133D01*
X111640047Y-66706800D01*
X111626255Y-66697584D01*
X111625293Y-66699024D01*
X111623499Y-66699909D01*
X111622348Y-66699448D01*
X111604050Y-66684158D01*
X111535332Y-66675531D01*
X111486641Y-66698830D01*
X111484647Y-66698676D01*
X111484115Y-66698137D01*
X111483745Y-66697584D01*
X111469953Y-66706799D01*
X111467957Y-66706930D01*
X111466846Y-66705267D01*
X111467179Y-66704025D01*
X111474309Y-66693355D01*
X111478000Y-66674801D01*
X111478000Y-65325199D01*
X111474309Y-65306645D01*
X111467179Y-65295974D01*
X111467048Y-65293978D01*
X111468711Y-65292867D01*
X111469953Y-65293200D01*
G37*
G36*
X171189953Y-65293200D02*
G01*
X171203745Y-65302416D01*
X171204707Y-65300976D01*
X171206501Y-65300091D01*
X171207652Y-65300552D01*
X171225950Y-65315842D01*
X171294668Y-65324469D01*
X171343359Y-65301170D01*
X171345353Y-65301324D01*
X171345885Y-65301863D01*
X171346255Y-65302416D01*
X171360047Y-65293201D01*
X171362043Y-65293070D01*
X171363154Y-65294733D01*
X171362821Y-65295975D01*
X171355691Y-65306645D01*
X171352000Y-65325199D01*
X171352000Y-66674801D01*
X171355691Y-66693355D01*
X171362821Y-66704026D01*
X171362952Y-66706022D01*
X171361289Y-66707133D01*
X171360047Y-66706800D01*
X171346255Y-66697584D01*
X171345293Y-66699024D01*
X171343499Y-66699909D01*
X171342348Y-66699448D01*
X171324050Y-66684158D01*
X171255332Y-66675531D01*
X171206641Y-66698830D01*
X171204647Y-66698676D01*
X171204115Y-66698137D01*
X171203745Y-66697584D01*
X171189953Y-66706799D01*
X171187957Y-66706930D01*
X171186846Y-66705267D01*
X171187179Y-66704025D01*
X171194309Y-66693355D01*
X171198000Y-66674801D01*
X171198000Y-65325199D01*
X171194309Y-65306645D01*
X171187179Y-65295974D01*
X171187048Y-65293978D01*
X171188711Y-65292867D01*
X171189953Y-65293200D01*
G37*
G36*
X170539953Y-65293200D02*
G01*
X170553745Y-65302416D01*
X170554707Y-65300976D01*
X170556501Y-65300091D01*
X170557652Y-65300552D01*
X170575950Y-65315842D01*
X170644668Y-65324469D01*
X170693359Y-65301170D01*
X170695353Y-65301324D01*
X170695885Y-65301863D01*
X170696255Y-65302416D01*
X170710047Y-65293201D01*
X170712043Y-65293070D01*
X170713154Y-65294733D01*
X170712821Y-65295975D01*
X170705691Y-65306645D01*
X170702000Y-65325199D01*
X170702000Y-66674801D01*
X170705691Y-66693355D01*
X170712821Y-66704026D01*
X170712952Y-66706022D01*
X170711289Y-66707133D01*
X170710047Y-66706800D01*
X170696255Y-66697584D01*
X170695293Y-66699024D01*
X170693499Y-66699909D01*
X170692348Y-66699448D01*
X170674050Y-66684158D01*
X170605332Y-66675531D01*
X170556641Y-66698830D01*
X170554647Y-66698676D01*
X170554115Y-66698137D01*
X170553745Y-66697584D01*
X170539953Y-66706799D01*
X170537957Y-66706930D01*
X170536846Y-66705267D01*
X170537179Y-66704025D01*
X170544309Y-66693355D01*
X170548000Y-66674801D01*
X170548000Y-65325199D01*
X170544309Y-65306645D01*
X170537179Y-65295974D01*
X170537048Y-65293978D01*
X170538711Y-65292867D01*
X170539953Y-65293200D01*
G37*
G36*
X112769953Y-65293200D02*
G01*
X112783745Y-65302416D01*
X112784707Y-65300976D01*
X112786501Y-65300091D01*
X112787652Y-65300552D01*
X112805950Y-65315842D01*
X112874668Y-65324469D01*
X112923359Y-65301170D01*
X112925353Y-65301324D01*
X112925885Y-65301863D01*
X112926255Y-65302416D01*
X112940047Y-65293201D01*
X112942043Y-65293070D01*
X112943154Y-65294733D01*
X112942821Y-65295975D01*
X112935691Y-65306645D01*
X112932000Y-65325199D01*
X112932000Y-66674801D01*
X112935691Y-66693355D01*
X112942821Y-66704026D01*
X112942952Y-66706022D01*
X112941289Y-66707133D01*
X112940047Y-66706800D01*
X112926255Y-66697584D01*
X112925293Y-66699024D01*
X112923499Y-66699909D01*
X112922348Y-66699448D01*
X112904050Y-66684158D01*
X112835332Y-66675531D01*
X112786641Y-66698830D01*
X112784647Y-66698676D01*
X112784115Y-66698137D01*
X112783745Y-66697584D01*
X112769953Y-66706799D01*
X112767957Y-66706930D01*
X112766846Y-66705267D01*
X112767179Y-66704025D01*
X112774309Y-66693355D01*
X112778000Y-66674801D01*
X112778000Y-65325199D01*
X112774309Y-65306645D01*
X112767179Y-65295974D01*
X112767048Y-65293978D01*
X112768711Y-65292867D01*
X112769953Y-65293200D01*
G37*
G36*
X110819953Y-65293200D02*
G01*
X110833745Y-65302416D01*
X110834707Y-65300976D01*
X110836501Y-65300091D01*
X110837652Y-65300552D01*
X110855950Y-65315842D01*
X110924668Y-65324469D01*
X110973359Y-65301170D01*
X110975353Y-65301324D01*
X110975885Y-65301863D01*
X110976255Y-65302416D01*
X110990047Y-65293201D01*
X110992043Y-65293070D01*
X110993154Y-65294733D01*
X110992821Y-65295975D01*
X110985691Y-65306645D01*
X110982000Y-65325199D01*
X110982000Y-66674801D01*
X110985691Y-66693355D01*
X110992821Y-66704026D01*
X110992952Y-66706022D01*
X110991289Y-66707133D01*
X110990047Y-66706800D01*
X110976255Y-66697584D01*
X110975293Y-66699024D01*
X110973499Y-66699909D01*
X110972348Y-66699448D01*
X110954050Y-66684158D01*
X110885332Y-66675531D01*
X110836641Y-66698830D01*
X110834647Y-66698676D01*
X110834115Y-66698137D01*
X110833745Y-66697584D01*
X110819953Y-66706799D01*
X110817957Y-66706930D01*
X110816846Y-66705267D01*
X110817179Y-66704025D01*
X110824309Y-66693355D01*
X110828000Y-66674801D01*
X110828000Y-65325199D01*
X110824309Y-65306645D01*
X110817179Y-65295974D01*
X110817048Y-65293978D01*
X110818711Y-65292867D01*
X110819953Y-65293200D01*
G37*
G36*
X169239953Y-65293200D02*
G01*
X169253745Y-65302416D01*
X169254707Y-65300976D01*
X169256501Y-65300091D01*
X169257652Y-65300552D01*
X169275950Y-65315842D01*
X169344668Y-65324469D01*
X169393359Y-65301170D01*
X169395353Y-65301324D01*
X169395885Y-65301863D01*
X169396255Y-65302416D01*
X169410047Y-65293201D01*
X169412043Y-65293070D01*
X169413154Y-65294733D01*
X169412821Y-65295975D01*
X169405691Y-65306645D01*
X169402000Y-65325199D01*
X169402000Y-66674801D01*
X169405691Y-66693355D01*
X169412821Y-66704026D01*
X169412952Y-66706022D01*
X169411289Y-66707133D01*
X169410047Y-66706800D01*
X169396255Y-66697584D01*
X169395293Y-66699024D01*
X169393499Y-66699909D01*
X169392348Y-66699448D01*
X169374050Y-66684158D01*
X169305332Y-66675531D01*
X169256641Y-66698830D01*
X169254647Y-66698676D01*
X169254115Y-66698137D01*
X169253745Y-66697584D01*
X169239953Y-66706799D01*
X169237957Y-66706930D01*
X169236846Y-66705267D01*
X169237179Y-66704025D01*
X169244309Y-66693355D01*
X169248000Y-66674801D01*
X169248000Y-65325199D01*
X169244309Y-65306645D01*
X169237179Y-65295974D01*
X169237048Y-65293978D01*
X169238711Y-65292867D01*
X169239953Y-65293200D01*
G37*
G36*
X169889953Y-65293200D02*
G01*
X169903745Y-65302416D01*
X169904707Y-65300976D01*
X169906501Y-65300091D01*
X169907652Y-65300552D01*
X169925950Y-65315842D01*
X169994668Y-65324469D01*
X170043359Y-65301170D01*
X170045353Y-65301324D01*
X170045885Y-65301863D01*
X170046255Y-65302416D01*
X170060047Y-65293201D01*
X170062043Y-65293070D01*
X170063154Y-65294733D01*
X170062821Y-65295975D01*
X170055691Y-65306645D01*
X170052000Y-65325199D01*
X170052000Y-66674801D01*
X170055691Y-66693355D01*
X170062821Y-66704026D01*
X170062952Y-66706022D01*
X170061289Y-66707133D01*
X170060047Y-66706800D01*
X170046255Y-66697584D01*
X170045293Y-66699024D01*
X170043499Y-66699909D01*
X170042348Y-66699448D01*
X170024050Y-66684158D01*
X169955332Y-66675531D01*
X169906641Y-66698830D01*
X169904647Y-66698676D01*
X169904115Y-66698137D01*
X169903745Y-66697584D01*
X169889953Y-66706799D01*
X169887957Y-66706930D01*
X169886846Y-66705267D01*
X169887179Y-66704025D01*
X169894309Y-66693355D01*
X169898000Y-66674801D01*
X169898000Y-65325199D01*
X169894309Y-65306645D01*
X169887179Y-65295974D01*
X169887048Y-65293978D01*
X169888711Y-65292867D01*
X169889953Y-65293200D01*
G37*
G36*
X112119953Y-65293200D02*
G01*
X112133745Y-65302416D01*
X112134707Y-65300976D01*
X112136501Y-65300091D01*
X112137652Y-65300552D01*
X112155950Y-65315842D01*
X112224668Y-65324469D01*
X112273359Y-65301170D01*
X112275353Y-65301324D01*
X112275885Y-65301863D01*
X112276255Y-65302416D01*
X112290047Y-65293201D01*
X112292043Y-65293070D01*
X112293154Y-65294733D01*
X112292821Y-65295975D01*
X112285691Y-65306645D01*
X112282000Y-65325199D01*
X112282000Y-66674801D01*
X112285691Y-66693355D01*
X112292821Y-66704026D01*
X112292952Y-66706022D01*
X112291289Y-66707133D01*
X112290047Y-66706800D01*
X112276255Y-66697584D01*
X112275293Y-66699024D01*
X112273499Y-66699909D01*
X112272348Y-66699448D01*
X112254050Y-66684158D01*
X112185332Y-66675531D01*
X112136641Y-66698830D01*
X112134647Y-66698676D01*
X112134115Y-66698137D01*
X112133745Y-66697584D01*
X112119953Y-66706799D01*
X112117957Y-66706930D01*
X112116846Y-66705267D01*
X112117179Y-66704025D01*
X112124309Y-66693355D01*
X112128000Y-66674801D01*
X112128000Y-65325199D01*
X112124309Y-65306645D01*
X112117179Y-65295974D01*
X112117048Y-65293978D01*
X112118711Y-65292867D01*
X112119953Y-65293200D01*
G37*
M02*
