G04 #@! TF.GenerationSoftware,KiCad,Pcbnew,6.0.11+dfsg-1*
G04 #@! TF.CreationDate,2023-04-22T14:08:22+02:00*
G04 #@! TF.ProjectId,ulx3s,756c7833-732e-46b6-9963-61645f706362,v3.1.8*
G04 #@! TF.SameCoordinates,Original*
G04 #@! TF.FileFunction,Paste,Bot*
G04 #@! TF.FilePolarity,Positive*
%FSLAX46Y46*%
G04 Gerber Fmt 4.6, Leading zero omitted, Abs format (unit mm)*
G04 Created by KiCad (PCBNEW 6.0.11+dfsg-1) date 2023-04-22 14:08:22*
%MOMM*%
%LPD*%
G01*
G04 APERTURE LIST*
G04 Aperture macros list*
%AMRoundRect*
0 Rectangle with rounded corners*
0 $1 Rounding radius*
0 $2 $3 $4 $5 $6 $7 $8 $9 X,Y pos of 4 corners*
0 Add a 4 corners polygon primitive as box body*
4,1,4,$2,$3,$4,$5,$6,$7,$8,$9,$2,$3,0*
0 Add four circle primitives for the rounded corners*
1,1,$1+$1,$2,$3*
1,1,$1+$1,$4,$5*
1,1,$1+$1,$6,$7*
1,1,$1+$1,$8,$9*
0 Add four rect primitives between the rounded corners*
20,1,$1+$1,$2,$3,$4,$5,0*
20,1,$1+$1,$4,$5,$6,$7,0*
20,1,$1+$1,$6,$7,$8,$9,0*
20,1,$1+$1,$8,$9,$2,$3,0*%
G04 Aperture macros list end*
%ADD10C,0.100000*%
%ADD11R,0.600000X1.100000*%
%ADD12R,3.300000X3.100000*%
%ADD13R,0.500000X1.450000*%
%ADD14O,0.500000X1.450000*%
%ADD15RoundRect,0.193750X-0.243750X-0.456250X0.243750X-0.456250X0.243750X0.456250X-0.243750X0.456250X0*%
%ADD16RoundRect,0.168750X-0.218750X-0.256250X0.218750X-0.256250X0.218750X0.256250X-0.218750X0.256250X0*%
%ADD17RoundRect,0.193750X0.456250X-0.243750X0.456250X0.243750X-0.456250X0.243750X-0.456250X-0.243750X0*%
%ADD18RoundRect,0.168750X0.218750X0.256250X-0.218750X0.256250X-0.218750X-0.256250X0.218750X-0.256250X0*%
%ADD19RoundRect,0.193750X0.243750X0.456250X-0.243750X0.456250X-0.243750X-0.456250X0.243750X-0.456250X0*%
%ADD20RoundRect,0.168750X-0.256250X0.218750X-0.256250X-0.218750X0.256250X-0.218750X0.256250X0.218750X0*%
%ADD21RoundRect,0.193750X-0.456250X0.243750X-0.456250X-0.243750X0.456250X-0.243750X0.456250X0.243750X0*%
%ADD22RoundRect,0.168750X0.256250X-0.218750X0.256250X0.218750X-0.256250X0.218750X-0.256250X-0.218750X0*%
%ADD23R,0.900000X0.900000*%
%ADD24R,1.450000X0.500000*%
%ADD25O,1.450000X0.500000*%
%ADD26R,1.200000X2.400000*%
%ADD27R,0.570000X0.900000*%
%ADD28R,0.800000X0.700000*%
%ADD29R,0.700000X0.800000*%
%ADD30RoundRect,0.199999X-0.450001X0.325001X-0.450001X-0.325001X0.450001X-0.325001X0.450001X0.325001X0*%
%ADD31R,0.500000X2.000000*%
%ADD32O,0.500000X2.000000*%
%ADD33R,2.200000X1.500000*%
%ADD34RoundRect,0.175000X0.250000X-0.225000X0.250000X0.225000X-0.250000X0.225000X-0.250000X-0.225000X0*%
%ADD35RoundRect,0.175000X-0.250000X0.225000X-0.250000X-0.225000X0.250000X-0.225000X0.250000X0.225000X0*%
%ADD36RoundRect,0.198400X0.201600X0.201600X-0.201600X0.201600X-0.201600X-0.201600X0.201600X-0.201600X0*%
%ADD37RoundRect,0.012500X0.350000X0.062500X-0.350000X0.062500X-0.350000X-0.062500X0.350000X-0.062500X0*%
%ADD38RoundRect,0.012500X0.062500X0.350000X-0.062500X0.350000X-0.062500X-0.350000X0.062500X-0.350000X0*%
%ADD39RoundRect,0.150000X-0.200000X-0.275000X0.200000X-0.275000X0.200000X0.275000X-0.200000X0.275000X0*%
%ADD40O,2.420000X0.820000*%
%ADD41R,1.600000X1.200000*%
G04 APERTURE END LIST*
G36*
X152646000Y-64912000D02*
G01*
X152946000Y-65112000D01*
X152946000Y-65412000D01*
X152446000Y-65112000D01*
X152146000Y-64612000D01*
X152446000Y-64612000D01*
X152646000Y-64912000D01*
G37*
D10*
X152646000Y-64912000D02*
X152946000Y-65112000D01*
X152946000Y-65412000D01*
X152446000Y-65112000D01*
X152146000Y-64612000D01*
X152446000Y-64612000D01*
X152646000Y-64912000D01*
G36*
X153246000Y-70012000D02*
G01*
X152746000Y-70312000D01*
X152746000Y-70012000D01*
X153046000Y-69812000D01*
X153246000Y-69512000D01*
X153546000Y-69512000D01*
X153246000Y-70012000D01*
G37*
X153246000Y-70012000D02*
X152746000Y-70312000D01*
X152746000Y-70012000D01*
X153046000Y-69812000D01*
X153246000Y-69512000D01*
X153546000Y-69512000D01*
X153246000Y-70012000D01*
G36*
X153846000Y-65112000D02*
G01*
X153346000Y-65412000D01*
X153346000Y-65112000D01*
X153646000Y-64912000D01*
X153846000Y-64612000D01*
X154146000Y-64612000D01*
X153846000Y-65112000D01*
G37*
X153846000Y-65112000D02*
X153346000Y-65412000D01*
X153346000Y-65112000D01*
X153646000Y-64912000D01*
X153846000Y-64612000D01*
X154146000Y-64612000D01*
X153846000Y-65112000D01*
G36*
X136946000Y-64912000D02*
G01*
X137246000Y-65112000D01*
X137246000Y-65412000D01*
X136746000Y-65112000D01*
X136446000Y-64612000D01*
X136746000Y-64612000D01*
X136946000Y-64912000D01*
G37*
X136946000Y-64912000D02*
X137246000Y-65112000D01*
X137246000Y-65412000D01*
X136746000Y-65112000D01*
X136446000Y-64612000D01*
X136746000Y-64612000D01*
X136946000Y-64912000D01*
G36*
X138146000Y-65112000D02*
G01*
X137646000Y-65412000D01*
X137646000Y-65112000D01*
X137946000Y-64912000D01*
X138146000Y-64612000D01*
X138446000Y-64612000D01*
X138146000Y-65112000D01*
G37*
X138146000Y-65112000D02*
X137646000Y-65412000D01*
X137646000Y-65112000D01*
X137946000Y-64912000D01*
X138146000Y-64612000D01*
X138446000Y-64612000D01*
X138146000Y-65112000D01*
G36*
X153846000Y-63712000D02*
G01*
X154146000Y-64212000D01*
X153846000Y-64212000D01*
X153646000Y-63912000D01*
X153346000Y-63712000D01*
X153346000Y-63412000D01*
X153846000Y-63712000D01*
G37*
X153846000Y-63712000D02*
X154146000Y-64212000D01*
X153846000Y-64212000D01*
X153646000Y-63912000D01*
X153346000Y-63712000D01*
X153346000Y-63412000D01*
X153846000Y-63712000D01*
G36*
X137246000Y-63712000D02*
G01*
X136946000Y-63912000D01*
X136746000Y-64212000D01*
X136446000Y-64212000D01*
X136746000Y-63712000D01*
X137246000Y-63412000D01*
X137246000Y-63712000D01*
G37*
X137246000Y-63712000D02*
X136946000Y-63912000D01*
X136746000Y-64212000D01*
X136446000Y-64212000D01*
X136746000Y-63712000D01*
X137246000Y-63412000D01*
X137246000Y-63712000D01*
G36*
X153246000Y-68612000D02*
G01*
X153546000Y-69112000D01*
X153246000Y-69112000D01*
X153046000Y-68812000D01*
X152746000Y-68612000D01*
X152746000Y-68312000D01*
X153246000Y-68612000D01*
G37*
X153246000Y-68612000D02*
X153546000Y-69112000D01*
X153246000Y-69112000D01*
X153046000Y-68812000D01*
X152746000Y-68612000D01*
X152746000Y-68312000D01*
X153246000Y-68612000D01*
G36*
X137846000Y-68612000D02*
G01*
X137546000Y-68812000D01*
X137346000Y-69112000D01*
X137046000Y-69112000D01*
X137346000Y-68612000D01*
X137846000Y-68312000D01*
X137846000Y-68612000D01*
G37*
X137846000Y-68612000D02*
X137546000Y-68812000D01*
X137346000Y-69112000D01*
X137046000Y-69112000D01*
X137346000Y-68612000D01*
X137846000Y-68312000D01*
X137846000Y-68612000D01*
G36*
X138146000Y-63712000D02*
G01*
X138446000Y-64212000D01*
X138146000Y-64212000D01*
X137946000Y-63912000D01*
X137646000Y-63712000D01*
X137646000Y-63412000D01*
X138146000Y-63712000D01*
G37*
X138146000Y-63712000D02*
X138446000Y-64212000D01*
X138146000Y-64212000D01*
X137946000Y-63912000D01*
X137646000Y-63712000D01*
X137646000Y-63412000D01*
X138146000Y-63712000D01*
G36*
X152346000Y-68612000D02*
G01*
X152046000Y-68812000D01*
X151846000Y-69112000D01*
X151546000Y-69112000D01*
X151846000Y-68612000D01*
X152346000Y-68312000D01*
X152346000Y-68612000D01*
G37*
X152346000Y-68612000D02*
X152046000Y-68812000D01*
X151846000Y-69112000D01*
X151546000Y-69112000D01*
X151846000Y-68612000D01*
X152346000Y-68312000D01*
X152346000Y-68612000D01*
G36*
X152046000Y-69812000D02*
G01*
X152346000Y-70012000D01*
X152346000Y-70312000D01*
X151846000Y-70012000D01*
X151546000Y-69512000D01*
X151846000Y-69512000D01*
X152046000Y-69812000D01*
G37*
X152046000Y-69812000D02*
X152346000Y-70012000D01*
X152346000Y-70312000D01*
X151846000Y-70012000D01*
X151546000Y-69512000D01*
X151846000Y-69512000D01*
X152046000Y-69812000D01*
G36*
X137546000Y-69812000D02*
G01*
X137846000Y-70012000D01*
X137846000Y-70312000D01*
X137346000Y-70012000D01*
X137046000Y-69512000D01*
X137346000Y-69512000D01*
X137546000Y-69812000D01*
G37*
X137546000Y-69812000D02*
X137846000Y-70012000D01*
X137846000Y-70312000D01*
X137346000Y-70012000D01*
X137046000Y-69512000D01*
X137346000Y-69512000D01*
X137546000Y-69812000D01*
G36*
X138746000Y-70012000D02*
G01*
X138246000Y-70312000D01*
X138246000Y-70012000D01*
X138546000Y-69812000D01*
X138746000Y-69512000D01*
X139046000Y-69512000D01*
X138746000Y-70012000D01*
G37*
X138746000Y-70012000D02*
X138246000Y-70312000D01*
X138246000Y-70012000D01*
X138546000Y-69812000D01*
X138746000Y-69512000D01*
X139046000Y-69512000D01*
X138746000Y-70012000D01*
G36*
X138746000Y-68612000D02*
G01*
X139046000Y-69112000D01*
X138746000Y-69112000D01*
X138546000Y-68812000D01*
X138246000Y-68612000D01*
X138246000Y-68312000D01*
X138746000Y-68612000D01*
G37*
X138746000Y-68612000D02*
X139046000Y-69112000D01*
X138746000Y-69112000D01*
X138546000Y-68812000D01*
X138246000Y-68612000D01*
X138246000Y-68312000D01*
X138746000Y-68612000D01*
G36*
X152946000Y-63712000D02*
G01*
X152646000Y-63912000D01*
X152446000Y-64212000D01*
X152146000Y-64212000D01*
X152446000Y-63712000D01*
X152946000Y-63412000D01*
X152946000Y-63712000D01*
G37*
X152946000Y-63712000D02*
X152646000Y-63912000D01*
X152446000Y-64212000D01*
X152146000Y-64212000D01*
X152446000Y-63712000D01*
X152946000Y-63412000D01*
X152946000Y-63712000D01*
D11*
X159825000Y-90600000D03*
X160775000Y-90600000D03*
X161725000Y-90600000D03*
X161725000Y-93200000D03*
X159825000Y-93200000D03*
X104775000Y-77115000D03*
X103825000Y-77115000D03*
X102875000Y-77115000D03*
X102875000Y-74515000D03*
X104775000Y-74515000D03*
X157285000Y-77392000D03*
X158235000Y-77392000D03*
X159185000Y-77392000D03*
X159185000Y-79992000D03*
X157285000Y-79992000D03*
D12*
X172485000Y-105870000D03*
X156685000Y-105870000D03*
D13*
X175395000Y-96015000D03*
D14*
X174125000Y-96015000D03*
X172855000Y-96015000D03*
X171585000Y-96015000D03*
X171585000Y-90615000D03*
X172855000Y-90615000D03*
X174125000Y-90615000D03*
X175395000Y-90615000D03*
D15*
X133563500Y-68550000D03*
X135438500Y-68550000D03*
D16*
X154072500Y-96910000D03*
X155647500Y-96910000D03*
D15*
X154122500Y-90630000D03*
X155997500Y-90630000D03*
X154122500Y-92535000D03*
X155997500Y-92535000D03*
D17*
X163315000Y-92837500D03*
X163315000Y-90962500D03*
D16*
X151732500Y-82375000D03*
X153307500Y-82375000D03*
D15*
X151582500Y-79200000D03*
X153457500Y-79200000D03*
X151582500Y-77295000D03*
X153457500Y-77295000D03*
D17*
X160775000Y-79502500D03*
X160775000Y-77627500D03*
D18*
X110327500Y-72005000D03*
X108752500Y-72005000D03*
D19*
X110477500Y-75180000D03*
X108602500Y-75180000D03*
D20*
X175380000Y-75237500D03*
X175380000Y-76812500D03*
D17*
X105276000Y-99949500D03*
X105276000Y-98074500D03*
D15*
X173441500Y-87473000D03*
X175316500Y-87473000D03*
D21*
X138500000Y-90682500D03*
X138500000Y-92557500D03*
D17*
X138500000Y-82357500D03*
X138500000Y-80482500D03*
D21*
X138500000Y-85682500D03*
X138500000Y-87557500D03*
D15*
X154376500Y-98504000D03*
X156251500Y-98504000D03*
D19*
X107683500Y-82292000D03*
X105808500Y-82292000D03*
D20*
X140900000Y-85432500D03*
X140900000Y-87007500D03*
X136900000Y-90432500D03*
X136900000Y-92007500D03*
X140100000Y-90432500D03*
X140100000Y-92007500D03*
X134900000Y-90232500D03*
X134900000Y-91807500D03*
D18*
X141687500Y-88420000D03*
X140112500Y-88420000D03*
D16*
X163512500Y-82220000D03*
X165087500Y-82220000D03*
D18*
X158287500Y-82220000D03*
X156712500Y-82220000D03*
D20*
X177300000Y-94112500D03*
X177300000Y-95687500D03*
D15*
X145942500Y-105200000D03*
X147817500Y-105200000D03*
D16*
X102812500Y-70020000D03*
X104387500Y-70020000D03*
D20*
X102736000Y-85651500D03*
X102736000Y-87226500D03*
D22*
X179063000Y-88768500D03*
X179063000Y-87193500D03*
D18*
X180385500Y-103711000D03*
X178810500Y-103711000D03*
X160307500Y-96490000D03*
X158732500Y-96490000D03*
D17*
X169172000Y-97173500D03*
X169172000Y-95298500D03*
D16*
X135312500Y-88420000D03*
X136887500Y-88420000D03*
D23*
X172479000Y-68550000D03*
X174979000Y-68550000D03*
X164585000Y-69060000D03*
X164585000Y-71560000D03*
D19*
X110477500Y-77085000D03*
X108602500Y-77085000D03*
X151171500Y-74882000D03*
X149296500Y-74882000D03*
D17*
X179190000Y-80772500D03*
X179190000Y-78897500D03*
D16*
X166718500Y-65738000D03*
X168293500Y-65738000D03*
D20*
X128980000Y-108012500D03*
X128980000Y-109587500D03*
D21*
X179078000Y-90980500D03*
X179078000Y-92855500D03*
D22*
X177300000Y-92705500D03*
X177300000Y-91130500D03*
X113000000Y-70372500D03*
X113000000Y-68797500D03*
X111500000Y-70372500D03*
X111500000Y-68797500D03*
D18*
X157117500Y-72487000D03*
X155542500Y-72487000D03*
D22*
X171331000Y-67940500D03*
X171331000Y-66365500D03*
X169919000Y-67940500D03*
X169919000Y-66365500D03*
D16*
X172814500Y-65502000D03*
X174389500Y-65502000D03*
D22*
X120008000Y-69872500D03*
X120008000Y-68297500D03*
X121532000Y-69872500D03*
X121532000Y-68297500D03*
X123056000Y-69872500D03*
X123056000Y-68297500D03*
X124580000Y-69872500D03*
X124580000Y-68297500D03*
D18*
X145567500Y-69900000D03*
X143992500Y-69900000D03*
D23*
X169030000Y-81085000D03*
X169030000Y-78585000D03*
X171550000Y-85837000D03*
X169050000Y-85837000D03*
X179190000Y-77275000D03*
X179190000Y-74775000D03*
X177285000Y-74775000D03*
X177285000Y-77275000D03*
X172987000Y-73503000D03*
X175487000Y-73503000D03*
X168756000Y-68659000D03*
X166256000Y-68659000D03*
X162700000Y-67262000D03*
X165200000Y-67262000D03*
X165200000Y-65357000D03*
X162700000Y-65357000D03*
D15*
X102966000Y-72785000D03*
X104841000Y-72785000D03*
X102179500Y-93061000D03*
X104054500Y-93061000D03*
D24*
X141980000Y-67706500D03*
D25*
X141980000Y-66436500D03*
X141980000Y-65166500D03*
X141980000Y-63896500D03*
X147380000Y-63896500D03*
X147380000Y-65166500D03*
X147380000Y-66436500D03*
X147380000Y-67706500D03*
D26*
X160140000Y-88090000D03*
X157600000Y-88090000D03*
X157600000Y-74755000D03*
X155060000Y-74755000D03*
D27*
X169425000Y-82375000D03*
X171175000Y-82375000D03*
D22*
X172840000Y-80622500D03*
X172840000Y-79047500D03*
X162480000Y-71097500D03*
X162480000Y-69522500D03*
D18*
X176802500Y-80470000D03*
X175227500Y-80470000D03*
D20*
X174110000Y-75237500D03*
X174110000Y-76812500D03*
X178555000Y-84127500D03*
X178555000Y-85702500D03*
D22*
X102228000Y-91290500D03*
X102228000Y-89715500D03*
X170935000Y-80622500D03*
X170935000Y-79047500D03*
D18*
X152926500Y-103076000D03*
X151351500Y-103076000D03*
D20*
X119200000Y-72332500D03*
X119200000Y-73907500D03*
D22*
X114800000Y-82507500D03*
X114800000Y-80932500D03*
D18*
X126383500Y-80260000D03*
X124808500Y-80260000D03*
X126383500Y-78736000D03*
X124808500Y-78736000D03*
X126383500Y-77212000D03*
X124808500Y-77212000D03*
X126383500Y-75670000D03*
X124808500Y-75670000D03*
D22*
X130422000Y-75560500D03*
X130422000Y-73985500D03*
X131961000Y-75560500D03*
X131961000Y-73985500D03*
X133485000Y-75560500D03*
X133485000Y-73985500D03*
X135009000Y-75560500D03*
X135009000Y-73985500D03*
X140025500Y-66017500D03*
X140025500Y-64442500D03*
D20*
X140597000Y-69413500D03*
X140597000Y-70988500D03*
D22*
X149980000Y-68687500D03*
X149980000Y-67112500D03*
D18*
X149962500Y-72487000D03*
X148387500Y-72487000D03*
X149967500Y-70200000D03*
X148392500Y-70200000D03*
D16*
X116980000Y-84700000D03*
X118555000Y-84700000D03*
D20*
X117695000Y-72330500D03*
X117695000Y-73905500D03*
D22*
X113300000Y-82507500D03*
X113300000Y-80932500D03*
D20*
X116200000Y-72332500D03*
X116200000Y-73907500D03*
D22*
X129080000Y-98775000D03*
X129080000Y-97200000D03*
D18*
X104539500Y-102060000D03*
X102964500Y-102060000D03*
X164102500Y-96345000D03*
X162527500Y-96345000D03*
D16*
X166718500Y-67135000D03*
X168293500Y-67135000D03*
D18*
X174387500Y-66899000D03*
X172812500Y-66899000D03*
D16*
X154072500Y-95640000D03*
X155647500Y-95640000D03*
D18*
X110327500Y-73275000D03*
X108752500Y-73275000D03*
D16*
X151732500Y-81105000D03*
X153307500Y-81105000D03*
D20*
X158235000Y-91112500D03*
X158235000Y-92687500D03*
D22*
X106365000Y-76602500D03*
X106365000Y-75027500D03*
D20*
X155695000Y-77777500D03*
X155695000Y-79352500D03*
D18*
X176802500Y-78565000D03*
X175227500Y-78565000D03*
D26*
X103825000Y-79625000D03*
X106365000Y-79625000D03*
D20*
X136100000Y-85432500D03*
X136100000Y-87007500D03*
D28*
X171935000Y-75075000D03*
X171935000Y-76975000D03*
X169935000Y-76025000D03*
D22*
X103576500Y-99817500D03*
X103576500Y-98242500D03*
D29*
X176965000Y-85280000D03*
X175065000Y-85280000D03*
X176015000Y-83280000D03*
D23*
X175502000Y-71740000D03*
X173002000Y-71740000D03*
D16*
X173210500Y-70201000D03*
X174785500Y-70201000D03*
D20*
X179078000Y-94686500D03*
X179078000Y-96261500D03*
D18*
X177071500Y-103711000D03*
X175496500Y-103711000D03*
D23*
X154141000Y-84186000D03*
X156641000Y-84186000D03*
X154121000Y-85964000D03*
X156621000Y-85964000D03*
D16*
X166210500Y-70310000D03*
X167785500Y-70310000D03*
D23*
X177285000Y-72594000D03*
X177285000Y-70094000D03*
X179190000Y-70094000D03*
X179190000Y-72594000D03*
D16*
X102964500Y-103600000D03*
X104539500Y-103600000D03*
D17*
X165982000Y-89408500D03*
X165982000Y-87533500D03*
D30*
X167887000Y-87446000D03*
X167887000Y-89496000D03*
X169792000Y-87446000D03*
X169792000Y-89496000D03*
D21*
X169157000Y-91978500D03*
X169157000Y-93853500D03*
D17*
X173221000Y-85725500D03*
X173221000Y-83850500D03*
D18*
X126387500Y-81770000D03*
X124812500Y-81770000D03*
D31*
X116440000Y-75920000D03*
D32*
X117710000Y-75920000D03*
X118980000Y-75920000D03*
X120250000Y-75920000D03*
X120250000Y-82524000D03*
X118980000Y-82524000D03*
X117710000Y-82524000D03*
X116440000Y-82524000D03*
D20*
X142000000Y-90332500D03*
X142000000Y-91907500D03*
D33*
X109980000Y-65200000D03*
X113980000Y-65200000D03*
D22*
X130580000Y-98787500D03*
X130580000Y-97212500D03*
D34*
X136180000Y-98775000D03*
X136180000Y-97225000D03*
D35*
X137680000Y-97225000D03*
X137680000Y-98775000D03*
D34*
X139180000Y-98775000D03*
X139180000Y-97225000D03*
D35*
X140680000Y-97225000D03*
X140680000Y-98775000D03*
D34*
X142180000Y-98775000D03*
X142180000Y-97225000D03*
D35*
X133580000Y-97225000D03*
X133580000Y-98775000D03*
D20*
X158312000Y-83525500D03*
X158312000Y-85100500D03*
D35*
X143680000Y-97225000D03*
X143680000Y-98775000D03*
D23*
X152930000Y-73850000D03*
X152930000Y-71350000D03*
D35*
X146680000Y-97225000D03*
X146680000Y-98775000D03*
D34*
X145180000Y-98775000D03*
X145180000Y-97225000D03*
X132080000Y-98775000D03*
X132080000Y-97225000D03*
D22*
X149980000Y-65687500D03*
X149980000Y-64112500D03*
D36*
X133335000Y-106100000D03*
X132335000Y-107100000D03*
X133335000Y-107100000D03*
X132335000Y-106100000D03*
D37*
X134772500Y-105600000D03*
X134772500Y-106100000D03*
X134772500Y-106600000D03*
X134772500Y-107100000D03*
X134772500Y-107600000D03*
D38*
X133835000Y-108537500D03*
X133335000Y-108537500D03*
X132835000Y-108537500D03*
X132335000Y-108537500D03*
X131835000Y-108537500D03*
D37*
X130897500Y-107600000D03*
X130897500Y-107100000D03*
X130897500Y-106600000D03*
X130897500Y-106100000D03*
X130897500Y-105600000D03*
D38*
X131835000Y-104662500D03*
X132335000Y-104662500D03*
X132835000Y-104662500D03*
X133335000Y-104662500D03*
X133835000Y-104662500D03*
D39*
X113214800Y-83932000D03*
X114864800Y-83932000D03*
D40*
X108300000Y-110975000D03*
X108300000Y-109705000D03*
X108300000Y-108435000D03*
X108300000Y-107165000D03*
X108300000Y-105895000D03*
X108300000Y-104625000D03*
X108300000Y-103355000D03*
X108300000Y-102085000D03*
X108300000Y-100815000D03*
X108300000Y-99545000D03*
X108300000Y-98275000D03*
X108300000Y-97005000D03*
X108300000Y-95735000D03*
X108300000Y-94465000D03*
X108300000Y-93195000D03*
X108300000Y-91925000D03*
X126300000Y-91925000D03*
X126300000Y-93195000D03*
X126300000Y-94465000D03*
X126300000Y-95735000D03*
X126300000Y-97005000D03*
X126300000Y-98275000D03*
X126300000Y-99545000D03*
X126300000Y-100815000D03*
X126300000Y-102085000D03*
X126300000Y-103355000D03*
X126300000Y-104625000D03*
X126300000Y-105895000D03*
X126300000Y-107165000D03*
X126300000Y-108435000D03*
X126300000Y-109705000D03*
X126300000Y-110975000D03*
D23*
X169050000Y-84059000D03*
X171550000Y-84059000D03*
D41*
X178568500Y-101322000D03*
X172968500Y-101322000D03*
X172968500Y-98522000D03*
X178568500Y-98522000D03*
M02*
