%TF.GenerationSoftware,KiCad,Pcbnew,6.0.11+dfsg-1*%
%TF.CreationDate,2023-04-22T14:08:25+02:00*%
%TF.ProjectId,ulx3s,756c7833-732e-46b6-9963-61645f706362,v3.1.8*%
%TF.SameCoordinates,Original*%
%TF.FileFunction,Drillmap*%
%TF.FilePolarity,Positive*%
%FSLAX45Y45*%
G04 Gerber Fmt 4.5, Leading zero omitted, Abs format (unit mm)*
G04 Created by KiCad (PCBNEW 6.0.11+dfsg-1) date 2023-04-22 14:08:25*
%MOMM*%
%LPD*%
G01*
G04 APERTURE LIST*
%ADD10C,0.300000*%
%ADD11C,0.200000*%
%ADD12C,0.170000*%
G04 APERTURE END LIST*
D10*
X18808000Y-11222000D02*
X18808000Y-6142000D01*
X9410000Y-6142000D02*
X9410000Y-11222000D01*
X18808000Y-6142000D02*
X9410000Y-6142000D01*
X9410000Y-11222000D02*
X18808000Y-11222000D01*
D11*
D12*
X12361800Y-6575000D02*
X12531800Y-6745000D01*
X12531800Y-6575000D02*
X12361800Y-6745000D01*
X12361800Y-7275000D02*
X12531800Y-7445000D01*
X12531800Y-7275000D02*
X12361800Y-7445000D01*
D11*
X9652619Y-11547476D02*
X9652619Y-11347476D01*
X9700238Y-11347476D01*
X9728810Y-11357000D01*
X9747857Y-11376048D01*
X9757381Y-11395095D01*
X9766905Y-11433190D01*
X9766905Y-11461762D01*
X9757381Y-11499857D01*
X9747857Y-11518905D01*
X9728810Y-11537952D01*
X9700238Y-11547476D01*
X9652619Y-11547476D01*
X9852619Y-11547476D02*
X9852619Y-11414143D01*
X9852619Y-11452238D02*
X9862143Y-11433190D01*
X9871667Y-11423667D01*
X9890714Y-11414143D01*
X9909762Y-11414143D01*
X9976429Y-11547476D02*
X9976429Y-11414143D01*
X9976429Y-11347476D02*
X9966905Y-11357000D01*
X9976429Y-11366524D01*
X9985952Y-11357000D01*
X9976429Y-11347476D01*
X9976429Y-11366524D01*
X10100238Y-11547476D02*
X10081190Y-11537952D01*
X10071667Y-11518905D01*
X10071667Y-11347476D01*
X10205000Y-11547476D02*
X10185952Y-11537952D01*
X10176429Y-11518905D01*
X10176429Y-11347476D01*
X10433571Y-11547476D02*
X10433571Y-11347476D01*
X10500238Y-11490333D01*
X10566905Y-11347476D01*
X10566905Y-11547476D01*
X10747857Y-11547476D02*
X10747857Y-11442714D01*
X10738333Y-11423667D01*
X10719286Y-11414143D01*
X10681190Y-11414143D01*
X10662143Y-11423667D01*
X10747857Y-11537952D02*
X10728810Y-11547476D01*
X10681190Y-11547476D01*
X10662143Y-11537952D01*
X10652619Y-11518905D01*
X10652619Y-11499857D01*
X10662143Y-11480809D01*
X10681190Y-11471286D01*
X10728810Y-11471286D01*
X10747857Y-11461762D01*
X10843095Y-11414143D02*
X10843095Y-11614143D01*
X10843095Y-11423667D02*
X10862143Y-11414143D01*
X10900238Y-11414143D01*
X10919286Y-11423667D01*
X10928810Y-11433190D01*
X10938333Y-11452238D01*
X10938333Y-11509381D01*
X10928810Y-11528428D01*
X10919286Y-11537952D01*
X10900238Y-11547476D01*
X10862143Y-11547476D01*
X10843095Y-11537952D01*
X11024048Y-11528428D02*
X11033571Y-11537952D01*
X11024048Y-11547476D01*
X11014524Y-11537952D01*
X11024048Y-11528428D01*
X11024048Y-11547476D01*
X11024048Y-11423667D02*
X11033571Y-11433190D01*
X11024048Y-11442714D01*
X11014524Y-11433190D01*
X11024048Y-11423667D01*
X11024048Y-11442714D01*
D12*
X9225000Y-11792000D02*
X9395000Y-11962000D01*
X9395000Y-11792000D02*
X9225000Y-11962000D01*
D11*
X9757381Y-11967476D02*
X9643095Y-11967476D01*
X9700238Y-11967476D02*
X9700238Y-11767476D01*
X9681190Y-11796048D01*
X9662143Y-11815095D01*
X9643095Y-11824619D01*
X9843095Y-11948428D02*
X9852619Y-11957952D01*
X9843095Y-11967476D01*
X9833571Y-11957952D01*
X9843095Y-11948428D01*
X9843095Y-11967476D01*
X9919286Y-11767476D02*
X10052619Y-11767476D01*
X9966905Y-11967476D01*
X10166905Y-11767476D02*
X10185952Y-11767476D01*
X10205000Y-11777000D01*
X10214524Y-11786524D01*
X10224048Y-11805571D01*
X10233571Y-11843667D01*
X10233571Y-11891286D01*
X10224048Y-11929381D01*
X10214524Y-11948428D01*
X10205000Y-11957952D01*
X10185952Y-11967476D01*
X10166905Y-11967476D01*
X10147857Y-11957952D01*
X10138333Y-11948428D01*
X10128810Y-11929381D01*
X10119286Y-11891286D01*
X10119286Y-11843667D01*
X10128810Y-11805571D01*
X10138333Y-11786524D01*
X10147857Y-11777000D01*
X10166905Y-11767476D01*
X10357381Y-11767476D02*
X10376429Y-11767476D01*
X10395476Y-11777000D01*
X10405000Y-11786524D01*
X10414524Y-11805571D01*
X10424048Y-11843667D01*
X10424048Y-11891286D01*
X10414524Y-11929381D01*
X10405000Y-11948428D01*
X10395476Y-11957952D01*
X10376429Y-11967476D01*
X10357381Y-11967476D01*
X10338333Y-11957952D01*
X10328810Y-11948428D01*
X10319286Y-11929381D01*
X10309762Y-11891286D01*
X10309762Y-11843667D01*
X10319286Y-11805571D01*
X10328810Y-11786524D01*
X10338333Y-11777000D01*
X10357381Y-11767476D01*
X10509762Y-11967476D02*
X10509762Y-11834143D01*
X10509762Y-11853190D02*
X10519286Y-11843667D01*
X10538333Y-11834143D01*
X10566905Y-11834143D01*
X10585952Y-11843667D01*
X10595476Y-11862714D01*
X10595476Y-11967476D01*
X10595476Y-11862714D02*
X10605000Y-11843667D01*
X10624048Y-11834143D01*
X10652619Y-11834143D01*
X10671667Y-11843667D01*
X10681190Y-11862714D01*
X10681190Y-11967476D01*
X10776429Y-11967476D02*
X10776429Y-11834143D01*
X10776429Y-11853190D02*
X10785952Y-11843667D01*
X10805000Y-11834143D01*
X10833571Y-11834143D01*
X10852619Y-11843667D01*
X10862143Y-11862714D01*
X10862143Y-11967476D01*
X10862143Y-11862714D02*
X10871667Y-11843667D01*
X10890714Y-11834143D01*
X10919286Y-11834143D01*
X10938333Y-11843667D01*
X10947857Y-11862714D01*
X10947857Y-11967476D01*
X11338333Y-11757952D02*
X11166905Y-12015095D01*
X11595476Y-11767476D02*
X11614524Y-11767476D01*
X11633571Y-11777000D01*
X11643095Y-11786524D01*
X11652619Y-11805571D01*
X11662143Y-11843667D01*
X11662143Y-11891286D01*
X11652619Y-11929381D01*
X11643095Y-11948428D01*
X11633571Y-11957952D01*
X11614524Y-11967476D01*
X11595476Y-11967476D01*
X11576428Y-11957952D01*
X11566905Y-11948428D01*
X11557381Y-11929381D01*
X11547857Y-11891286D01*
X11547857Y-11843667D01*
X11557381Y-11805571D01*
X11566905Y-11786524D01*
X11576428Y-11777000D01*
X11595476Y-11767476D01*
X11747857Y-11948428D02*
X11757381Y-11957952D01*
X11747857Y-11967476D01*
X11738333Y-11957952D01*
X11747857Y-11948428D01*
X11747857Y-11967476D01*
X11881190Y-11767476D02*
X11900238Y-11767476D01*
X11919286Y-11777000D01*
X11928809Y-11786524D01*
X11938333Y-11805571D01*
X11947857Y-11843667D01*
X11947857Y-11891286D01*
X11938333Y-11929381D01*
X11928809Y-11948428D01*
X11919286Y-11957952D01*
X11900238Y-11967476D01*
X11881190Y-11967476D01*
X11862143Y-11957952D01*
X11852619Y-11948428D01*
X11843095Y-11929381D01*
X11833571Y-11891286D01*
X11833571Y-11843667D01*
X11843095Y-11805571D01*
X11852619Y-11786524D01*
X11862143Y-11777000D01*
X11881190Y-11767476D01*
X12119286Y-11767476D02*
X12081190Y-11767476D01*
X12062143Y-11777000D01*
X12052619Y-11786524D01*
X12033571Y-11815095D01*
X12024048Y-11853190D01*
X12024048Y-11929381D01*
X12033571Y-11948428D01*
X12043095Y-11957952D01*
X12062143Y-11967476D01*
X12100238Y-11967476D01*
X12119286Y-11957952D01*
X12128809Y-11948428D01*
X12138333Y-11929381D01*
X12138333Y-11881762D01*
X12128809Y-11862714D01*
X12119286Y-11853190D01*
X12100238Y-11843667D01*
X12062143Y-11843667D01*
X12043095Y-11853190D01*
X12033571Y-11862714D01*
X12024048Y-11881762D01*
X12309762Y-11767476D02*
X12271667Y-11767476D01*
X12252619Y-11777000D01*
X12243095Y-11786524D01*
X12224048Y-11815095D01*
X12214524Y-11853190D01*
X12214524Y-11929381D01*
X12224048Y-11948428D01*
X12233571Y-11957952D01*
X12252619Y-11967476D01*
X12290714Y-11967476D01*
X12309762Y-11957952D01*
X12319286Y-11948428D01*
X12328809Y-11929381D01*
X12328809Y-11881762D01*
X12319286Y-11862714D01*
X12309762Y-11853190D01*
X12290714Y-11843667D01*
X12252619Y-11843667D01*
X12233571Y-11853190D01*
X12224048Y-11862714D01*
X12214524Y-11881762D01*
X12424048Y-11967476D02*
X12462143Y-11967476D01*
X12481190Y-11957952D01*
X12490714Y-11948428D01*
X12509762Y-11919857D01*
X12519286Y-11881762D01*
X12519286Y-11805571D01*
X12509762Y-11786524D01*
X12500238Y-11777000D01*
X12481190Y-11767476D01*
X12443095Y-11767476D01*
X12424048Y-11777000D01*
X12414524Y-11786524D01*
X12405000Y-11805571D01*
X12405000Y-11853190D01*
X12414524Y-11872238D01*
X12424048Y-11881762D01*
X12443095Y-11891286D01*
X12481190Y-11891286D01*
X12500238Y-11881762D01*
X12509762Y-11872238D01*
X12519286Y-11853190D01*
X12595476Y-11767476D02*
X12595476Y-11805571D01*
X12671667Y-11767476D02*
X12671667Y-11805571D01*
X12966905Y-12043667D02*
X12957381Y-12034143D01*
X12938333Y-12005571D01*
X12928809Y-11986524D01*
X12919286Y-11957952D01*
X12909762Y-11910333D01*
X12909762Y-11872238D01*
X12919286Y-11824619D01*
X12928809Y-11796048D01*
X12938333Y-11777000D01*
X12957381Y-11748428D01*
X12966905Y-11738905D01*
X13033571Y-11786524D02*
X13043095Y-11777000D01*
X13062143Y-11767476D01*
X13109762Y-11767476D01*
X13128809Y-11777000D01*
X13138333Y-11786524D01*
X13147857Y-11805571D01*
X13147857Y-11824619D01*
X13138333Y-11853190D01*
X13024048Y-11967476D01*
X13147857Y-11967476D01*
X13385952Y-11967476D02*
X13385952Y-11767476D01*
X13471667Y-11967476D02*
X13471667Y-11862714D01*
X13462143Y-11843667D01*
X13443095Y-11834143D01*
X13414524Y-11834143D01*
X13395476Y-11843667D01*
X13385952Y-11853190D01*
X13595476Y-11967476D02*
X13576428Y-11957952D01*
X13566905Y-11948428D01*
X13557381Y-11929381D01*
X13557381Y-11872238D01*
X13566905Y-11853190D01*
X13576428Y-11843667D01*
X13595476Y-11834143D01*
X13624048Y-11834143D01*
X13643095Y-11843667D01*
X13652619Y-11853190D01*
X13662143Y-11872238D01*
X13662143Y-11929381D01*
X13652619Y-11948428D01*
X13643095Y-11957952D01*
X13624048Y-11967476D01*
X13595476Y-11967476D01*
X13776428Y-11967476D02*
X13757381Y-11957952D01*
X13747857Y-11938905D01*
X13747857Y-11767476D01*
X13928809Y-11957952D02*
X13909762Y-11967476D01*
X13871667Y-11967476D01*
X13852619Y-11957952D01*
X13843095Y-11938905D01*
X13843095Y-11862714D01*
X13852619Y-11843667D01*
X13871667Y-11834143D01*
X13909762Y-11834143D01*
X13928809Y-11843667D01*
X13938333Y-11862714D01*
X13938333Y-11881762D01*
X13843095Y-11900809D01*
X14014524Y-11957952D02*
X14033571Y-11967476D01*
X14071667Y-11967476D01*
X14090714Y-11957952D01*
X14100238Y-11938905D01*
X14100238Y-11929381D01*
X14090714Y-11910333D01*
X14071667Y-11900809D01*
X14043095Y-11900809D01*
X14024048Y-11891286D01*
X14014524Y-11872238D01*
X14014524Y-11862714D01*
X14024048Y-11843667D01*
X14043095Y-11834143D01*
X14071667Y-11834143D01*
X14090714Y-11843667D01*
X14166905Y-12043667D02*
X14176428Y-12034143D01*
X14195476Y-12005571D01*
X14205000Y-11986524D01*
X14214524Y-11957952D01*
X14224048Y-11910333D01*
X14224048Y-11872238D01*
X14214524Y-11824619D01*
X14205000Y-11796048D01*
X14195476Y-11777000D01*
X14176428Y-11748428D01*
X14166905Y-11738905D01*
X14528809Y-12043667D02*
X14519286Y-12034143D01*
X14500238Y-12005571D01*
X14490714Y-11986524D01*
X14481190Y-11957952D01*
X14471667Y-11910333D01*
X14471667Y-11872238D01*
X14481190Y-11824619D01*
X14490714Y-11796048D01*
X14500238Y-11777000D01*
X14519286Y-11748428D01*
X14528809Y-11738905D01*
X14605000Y-11834143D02*
X14605000Y-11967476D01*
X14605000Y-11853190D02*
X14614524Y-11843667D01*
X14633571Y-11834143D01*
X14662143Y-11834143D01*
X14681190Y-11843667D01*
X14690714Y-11862714D01*
X14690714Y-11967476D01*
X14814524Y-11967476D02*
X14795476Y-11957952D01*
X14785952Y-11948428D01*
X14776428Y-11929381D01*
X14776428Y-11872238D01*
X14785952Y-11853190D01*
X14795476Y-11843667D01*
X14814524Y-11834143D01*
X14843095Y-11834143D01*
X14862143Y-11843667D01*
X14871667Y-11853190D01*
X14881190Y-11872238D01*
X14881190Y-11929381D01*
X14871667Y-11948428D01*
X14862143Y-11957952D01*
X14843095Y-11967476D01*
X14814524Y-11967476D01*
X14938333Y-11834143D02*
X15014524Y-11834143D01*
X14966905Y-11767476D02*
X14966905Y-11938905D01*
X14976428Y-11957952D01*
X14995476Y-11967476D01*
X15014524Y-11967476D01*
X15233571Y-11834143D02*
X15233571Y-12034143D01*
X15233571Y-11843667D02*
X15252619Y-11834143D01*
X15290714Y-11834143D01*
X15309762Y-11843667D01*
X15319286Y-11853190D01*
X15328809Y-11872238D01*
X15328809Y-11929381D01*
X15319286Y-11948428D01*
X15309762Y-11957952D01*
X15290714Y-11967476D01*
X15252619Y-11967476D01*
X15233571Y-11957952D01*
X15443095Y-11967476D02*
X15424048Y-11957952D01*
X15414524Y-11938905D01*
X15414524Y-11767476D01*
X15605000Y-11967476D02*
X15605000Y-11862714D01*
X15595476Y-11843667D01*
X15576428Y-11834143D01*
X15538333Y-11834143D01*
X15519286Y-11843667D01*
X15605000Y-11957952D02*
X15585952Y-11967476D01*
X15538333Y-11967476D01*
X15519286Y-11957952D01*
X15509762Y-11938905D01*
X15509762Y-11919857D01*
X15519286Y-11900809D01*
X15538333Y-11891286D01*
X15585952Y-11891286D01*
X15605000Y-11881762D01*
X15671667Y-11834143D02*
X15747857Y-11834143D01*
X15700238Y-11767476D02*
X15700238Y-11938905D01*
X15709762Y-11957952D01*
X15728809Y-11967476D01*
X15747857Y-11967476D01*
X15890714Y-11957952D02*
X15871667Y-11967476D01*
X15833571Y-11967476D01*
X15814524Y-11957952D01*
X15805000Y-11938905D01*
X15805000Y-11862714D01*
X15814524Y-11843667D01*
X15833571Y-11834143D01*
X15871667Y-11834143D01*
X15890714Y-11843667D01*
X15900238Y-11862714D01*
X15900238Y-11881762D01*
X15805000Y-11900809D01*
X16071667Y-11967476D02*
X16071667Y-11767476D01*
X16071667Y-11957952D02*
X16052619Y-11967476D01*
X16014524Y-11967476D01*
X15995476Y-11957952D01*
X15985952Y-11948428D01*
X15976428Y-11929381D01*
X15976428Y-11872238D01*
X15985952Y-11853190D01*
X15995476Y-11843667D01*
X16014524Y-11834143D01*
X16052619Y-11834143D01*
X16071667Y-11843667D01*
X16147857Y-12043667D02*
X16157381Y-12034143D01*
X16176428Y-12005571D01*
X16185952Y-11986524D01*
X16195476Y-11957952D01*
X16205000Y-11910333D01*
X16205000Y-11872238D01*
X16195476Y-11824619D01*
X16185952Y-11796048D01*
X16176428Y-11777000D01*
X16157381Y-11748428D01*
X16147857Y-11738905D01*
M02*
