%TF.GenerationSoftware,KiCad,Pcbnew,6.0.11+dfsg-1*%
%TF.CreationDate,2023-04-22T14:08:25+02:00*%
%TF.ProjectId,ulx3s,756c7833-732e-46b6-9963-61645f706362,v3.1.8*%
%TF.SameCoordinates,Original*%
%TF.FileFunction,Drillmap*%
%TF.FilePolarity,Positive*%
%FSLAX45Y45*%
G04 Gerber Fmt 4.5, Leading zero omitted, Abs format (unit mm)*
G04 Created by KiCad (PCBNEW 6.0.11+dfsg-1) date 2023-04-22 14:08:25*
%MOMM*%
%LPD*%
G01*
G04 APERTURE LIST*
%ADD10C,0.300000*%
%ADD11C,0.200000*%
%ADD12C,0.020000*%
%ADD13C,0.025000*%
%ADD14C,0.025400*%
%ADD15C,0.030000*%
%ADD16C,0.035000*%
%ADD17C,0.040000*%
%ADD18C,0.050000*%
%ADD19C,0.060000*%
%ADD20C,0.100000*%
%ADD21C,0.101600*%
%ADD22C,0.130000*%
%ADD23C,0.320000*%
G04 APERTURE END LIST*
D10*
X18808000Y-11222000D02*
X18808000Y-6142000D01*
X9410000Y-6142000D02*
X9410000Y-11222000D01*
X18808000Y-6142000D02*
X9410000Y-6142000D01*
X9410000Y-11222000D02*
X18808000Y-11222000D01*
D11*
D12*
X9650000Y-6954000D02*
X9670000Y-6974000D01*
X9670000Y-6954000D02*
X9650000Y-6974000D01*
X9650000Y-7216000D02*
X9670000Y-7236000D01*
X9670000Y-7216000D02*
X9650000Y-7236000D01*
X9650000Y-7469000D02*
X9670000Y-7489000D01*
X9670000Y-7469000D02*
X9650000Y-7489000D01*
X9650000Y-7724000D02*
X9670000Y-7744000D01*
X9670000Y-7724000D02*
X9650000Y-7744000D01*
X9651000Y-7973000D02*
X9671000Y-7993000D01*
X9671000Y-7973000D02*
X9651000Y-7993000D01*
X9651000Y-8228000D02*
X9671000Y-8248000D01*
X9671000Y-8228000D02*
X9651000Y-8248000D01*
X9651000Y-9109000D02*
X9671000Y-9129000D01*
X9671000Y-9109000D02*
X9651000Y-9129000D01*
X9651000Y-9362000D02*
X9671000Y-9382000D01*
X9671000Y-9362000D02*
X9651000Y-9382000D01*
X9652000Y-9611000D02*
X9672000Y-9631000D01*
X9672000Y-9611000D02*
X9652000Y-9631000D01*
X9652000Y-9875000D02*
X9672000Y-9895000D01*
X9672000Y-9875000D02*
X9652000Y-9895000D01*
X9653000Y-10126000D02*
X9673000Y-10146000D01*
X9673000Y-10126000D02*
X9653000Y-10146000D01*
X9654000Y-10669000D02*
X9674000Y-10689000D01*
X9674000Y-10669000D02*
X9654000Y-10689000D01*
X9655000Y-10374000D02*
X9675000Y-10394000D01*
X9675000Y-10374000D02*
X9655000Y-10394000D01*
X9969000Y-8676600D02*
X9989000Y-8696600D01*
X9989000Y-8676600D02*
X9969000Y-8696600D01*
X9990550Y-7986200D02*
X10010550Y-8006200D01*
X10010550Y-7986200D02*
X9990550Y-8006200D01*
X10007100Y-8752800D02*
X10027100Y-8772800D01*
X10027100Y-8752800D02*
X10007100Y-8772800D01*
X10030000Y-7622000D02*
X10050000Y-7642000D01*
X10050000Y-7622000D02*
X10030000Y-7642000D01*
X10032500Y-7393900D02*
X10052500Y-7413900D01*
X10052500Y-7393900D02*
X10032500Y-7413900D01*
X10032500Y-7686000D02*
X10052500Y-7706000D01*
X10052500Y-7686000D02*
X10032500Y-7706000D01*
X10035000Y-10094400D02*
X10055000Y-10114400D01*
X10055000Y-10094400D02*
X10035000Y-10114400D01*
X10035000Y-10373800D02*
X10055000Y-10393800D01*
X10055000Y-10373800D02*
X10035000Y-10393800D01*
X10200100Y-10373800D02*
X10220100Y-10393800D01*
X10220100Y-10373800D02*
X10200100Y-10393800D01*
X10200500Y-7795000D02*
X10220500Y-7815000D01*
X10220500Y-7795000D02*
X10200500Y-7815000D01*
X10318000Y-8940000D02*
X10338000Y-8960000D01*
X10338000Y-8940000D02*
X10318000Y-8960000D01*
X10341000Y-8702000D02*
X10361000Y-8722000D01*
X10361000Y-8702000D02*
X10341000Y-8722000D01*
X10373000Y-7612500D02*
X10393000Y-7632500D01*
X10393000Y-7612500D02*
X10373000Y-7632500D01*
X10398000Y-9080000D02*
X10418000Y-9100000D01*
X10418000Y-9080000D02*
X10398000Y-9100000D01*
X10488000Y-10470000D02*
X10508000Y-10490000D01*
X10508000Y-10470000D02*
X10488000Y-10490000D01*
X10517600Y-10094400D02*
X10537600Y-10114400D01*
X10537600Y-10094400D02*
X10517600Y-10114400D01*
X10524236Y-10406739D02*
X10544236Y-10426739D01*
X10544236Y-10406739D02*
X10524236Y-10426739D01*
X10538000Y-7625000D02*
X10558000Y-7645000D01*
X10558000Y-7625000D02*
X10538000Y-7645000D01*
X10538000Y-9090000D02*
X10558000Y-9110000D01*
X10558000Y-9090000D02*
X10538000Y-9110000D01*
X10550700Y-10313600D02*
X10570700Y-10333600D01*
X10570700Y-10313600D02*
X10550700Y-10333600D01*
X10563000Y-7767500D02*
X10583000Y-7787500D01*
X10583000Y-7767500D02*
X10563000Y-7787500D01*
X10609749Y-10492252D02*
X10629749Y-10512252D01*
X10629749Y-10492252D02*
X10609749Y-10512252D01*
X10640000Y-9992000D02*
X10660000Y-10012000D01*
X10660000Y-9992000D02*
X10640000Y-10012000D01*
X10652500Y-10139500D02*
X10672500Y-10159500D01*
X10672500Y-10139500D02*
X10652500Y-10159500D01*
X10668000Y-8310000D02*
X10688000Y-8330000D01*
X10688000Y-8310000D02*
X10668000Y-8330000D01*
X10688000Y-9080000D02*
X10708000Y-9100000D01*
X10708000Y-9080000D02*
X10688000Y-9100000D01*
X10703000Y-7620000D02*
X10723000Y-7640000D01*
X10723000Y-7620000D02*
X10703000Y-7640000D01*
X10713000Y-7735000D02*
X10733000Y-7755000D01*
X10733000Y-7735000D02*
X10713000Y-7755000D01*
X10746200Y-7681400D02*
X10766200Y-7701400D01*
X10766200Y-7681400D02*
X10746200Y-7701400D01*
X10923000Y-7697500D02*
X10943000Y-7717500D01*
X10943000Y-7697500D02*
X10923000Y-7717500D01*
X10928000Y-8310000D02*
X10948000Y-8330000D01*
X10948000Y-8310000D02*
X10928000Y-8330000D01*
X10935500Y-7604503D02*
X10955500Y-7624503D01*
X10955500Y-7604503D02*
X10935500Y-7624503D01*
X10969310Y-7801310D02*
X10989310Y-7821310D01*
X10989310Y-7801310D02*
X10969310Y-7821310D01*
X10996728Y-9868728D02*
X11016728Y-9888728D01*
X11016728Y-9868728D02*
X10996728Y-9888728D01*
X10998000Y-10330000D02*
X11018000Y-10350000D01*
X11018000Y-10330000D02*
X10998000Y-10350000D01*
X11039000Y-6761000D02*
X11059000Y-6781000D01*
X11059000Y-6761000D02*
X11039000Y-6781000D01*
X11100000Y-9209000D02*
X11120000Y-9229000D01*
X11120000Y-9209000D02*
X11100000Y-9229000D01*
X11130000Y-7332000D02*
X11150000Y-7352000D01*
X11150000Y-7332000D02*
X11130000Y-7352000D01*
X11140000Y-7112000D02*
X11160000Y-7132000D01*
X11160000Y-7112000D02*
X11140000Y-7132000D01*
X11150000Y-6762000D02*
X11170000Y-6782000D01*
X11170000Y-6762000D02*
X11150000Y-6782000D01*
X11158001Y-10090000D02*
X11178001Y-10110000D01*
X11178001Y-10090000D02*
X11158001Y-10110000D01*
X11178000Y-7630000D02*
X11198000Y-7650000D01*
X11198000Y-7630000D02*
X11178000Y-7650000D01*
X11178550Y-8240750D02*
X11198550Y-8260750D01*
X11198550Y-8240750D02*
X11178550Y-8260750D01*
X11205500Y-7822500D02*
X11225500Y-7842500D01*
X11225500Y-7822500D02*
X11205500Y-7842500D01*
X11238000Y-9970000D02*
X11258000Y-9990000D01*
X11258000Y-9970000D02*
X11238000Y-9990000D01*
X11270000Y-6762000D02*
X11290000Y-6782000D01*
X11290000Y-6762000D02*
X11270000Y-6782000D01*
X11290000Y-7112000D02*
X11310000Y-7132000D01*
X11310000Y-7112000D02*
X11290000Y-7132000D01*
X11303114Y-9947725D02*
X11323114Y-9967725D01*
X11323114Y-9947725D02*
X11303114Y-9967725D01*
X11310000Y-7342000D02*
X11330000Y-7362000D01*
X11330000Y-7342000D02*
X11310000Y-7362000D01*
X11326285Y-9898285D02*
X11346285Y-9918285D01*
X11346285Y-9898285D02*
X11326285Y-9918285D01*
X11394246Y-9866246D02*
X11414246Y-9886246D01*
X11414246Y-9866246D02*
X11394246Y-9886246D01*
X11470100Y-7427400D02*
X11490100Y-7447400D01*
X11490100Y-7427400D02*
X11470100Y-7447400D01*
X11480000Y-7152000D02*
X11500000Y-7172000D01*
X11500000Y-7152000D02*
X11480000Y-7172000D01*
X11514550Y-9827700D02*
X11534550Y-9847700D01*
X11534550Y-9827700D02*
X11514550Y-9847700D01*
X11551000Y-10646000D02*
X11571000Y-10666000D01*
X11571000Y-10646000D02*
X11551000Y-10666000D01*
X11573000Y-7780000D02*
X11593000Y-7800000D01*
X11593000Y-7780000D02*
X11573000Y-7800000D01*
X11590000Y-7112000D02*
X11610000Y-7132000D01*
X11610000Y-7112000D02*
X11590000Y-7132000D01*
X11616851Y-8601622D02*
X11636851Y-8621622D01*
X11636851Y-8601622D02*
X11616851Y-8621622D01*
X11633852Y-9827700D02*
X11653852Y-9847700D01*
X11653852Y-9827700D02*
X11633852Y-9847700D01*
X11666000Y-10650000D02*
X11686000Y-10670000D01*
X11686000Y-10650000D02*
X11666000Y-10670000D01*
X11686000Y-7757600D02*
X11706000Y-7777600D01*
X11706000Y-7757600D02*
X11686000Y-7777600D01*
X11725500Y-7820000D02*
X11745500Y-7840000D01*
X11745500Y-7820000D02*
X11725500Y-7840000D01*
X11777000Y-9514000D02*
X11797000Y-9534000D01*
X11797000Y-9514000D02*
X11777000Y-9534000D01*
X11782000Y-10649000D02*
X11802000Y-10669000D01*
X11802000Y-10649000D02*
X11782000Y-10669000D01*
X11883000Y-9660000D02*
X11903000Y-9680000D01*
X11903000Y-9660000D02*
X11883000Y-9680000D01*
X11958000Y-9330000D02*
X11978000Y-9350000D01*
X11978000Y-9330000D02*
X11958000Y-9350000D01*
X11986000Y-9772000D02*
X12006000Y-9792000D01*
X12006000Y-9772000D02*
X11986000Y-9792000D01*
X11986727Y-8878727D02*
X12006727Y-8898727D01*
X12006727Y-8878727D02*
X11986727Y-8898727D01*
X11990800Y-6690800D02*
X12010800Y-6710800D01*
X12010800Y-6690800D02*
X11990800Y-6710800D01*
X12015500Y-7710000D02*
X12035500Y-7730000D01*
X12035500Y-7710000D02*
X12015500Y-7730000D01*
X12068000Y-7780000D02*
X12088000Y-7800000D01*
X12088000Y-7780000D02*
X12068000Y-7800000D01*
X12069352Y-9387248D02*
X12089352Y-9407248D01*
X12089352Y-9387248D02*
X12069352Y-9407248D01*
X12180190Y-9481458D02*
X12200190Y-9501458D01*
X12200190Y-9481458D02*
X12180190Y-9501458D01*
X12189000Y-9551600D02*
X12209000Y-9571600D01*
X12209000Y-9551600D02*
X12189000Y-9571600D01*
X12219400Y-7656000D02*
X12239400Y-7676000D01*
X12239400Y-7656000D02*
X12219400Y-7676000D01*
X12225651Y-9151352D02*
X12245651Y-9171352D01*
X12245651Y-9151352D02*
X12225651Y-9171352D01*
X12258000Y-7390000D02*
X12278000Y-7410000D01*
X12278000Y-7390000D02*
X12258000Y-7410000D01*
X12282617Y-6643232D02*
X12302617Y-6663232D01*
X12302617Y-6643232D02*
X12282617Y-6663232D01*
X12283056Y-9006144D02*
X12303056Y-9026144D01*
X12303056Y-9006144D02*
X12283056Y-9026144D01*
X12298000Y-7470000D02*
X12318000Y-7490000D01*
X12318000Y-7470000D02*
X12298000Y-7490000D01*
X12299999Y-10424600D02*
X12319999Y-10444600D01*
X12319999Y-10424600D02*
X12299999Y-10444600D01*
X12301796Y-9677751D02*
X12321796Y-9697751D01*
X12321796Y-9677751D02*
X12301796Y-9697751D01*
X12329349Y-9949637D02*
X12349349Y-9969637D01*
X12349349Y-9949637D02*
X12329349Y-9969637D01*
X12370241Y-10586650D02*
X12390241Y-10606650D01*
X12390241Y-10586650D02*
X12370241Y-10606650D01*
X12378000Y-10190000D02*
X12398000Y-10210000D01*
X12398000Y-10190000D02*
X12378000Y-10210000D01*
X12410242Y-10710764D02*
X12430242Y-10730764D01*
X12430242Y-10710764D02*
X12410242Y-10730764D01*
X12430000Y-10902000D02*
X12450000Y-10922000D01*
X12450000Y-10902000D02*
X12430000Y-10922000D01*
X12448285Y-8723128D02*
X12468285Y-8743128D01*
X12468285Y-8723128D02*
X12448285Y-8743128D01*
X12458000Y-10809999D02*
X12478000Y-10829999D01*
X12478000Y-10809999D02*
X12458000Y-10829999D01*
X12478000Y-9490000D02*
X12498000Y-9510000D01*
X12498000Y-9490000D02*
X12478000Y-9510000D01*
X12478000Y-9620000D02*
X12498000Y-9640000D01*
X12498000Y-9620000D02*
X12478000Y-9640000D01*
X12478000Y-10005700D02*
X12498000Y-10025700D01*
X12498000Y-10005700D02*
X12478000Y-10025700D01*
X12490445Y-8930135D02*
X12510445Y-8950135D01*
X12510445Y-8930135D02*
X12490445Y-8950135D01*
X12566266Y-9064836D02*
X12586266Y-9084836D01*
X12586266Y-9064836D02*
X12566266Y-9084836D01*
X12613100Y-6538400D02*
X12633100Y-6558400D01*
X12633100Y-6538400D02*
X12613100Y-6558400D01*
X12712036Y-8706691D02*
X12732036Y-8726691D01*
X12732036Y-8706691D02*
X12712036Y-8726691D01*
X12740000Y-8321549D02*
X12760000Y-8341549D01*
X12760000Y-8321549D02*
X12740000Y-8341549D01*
X12746968Y-8845418D02*
X12766968Y-8865418D01*
X12766968Y-8845418D02*
X12746968Y-8865418D01*
X12754636Y-8407850D02*
X12774636Y-8427850D01*
X12774636Y-8407850D02*
X12754636Y-8427850D01*
X12804276Y-8847943D02*
X12824276Y-8867943D01*
X12824276Y-8847943D02*
X12804276Y-8867943D01*
X12808000Y-11040000D02*
X12828000Y-11060000D01*
X12828000Y-11040000D02*
X12808000Y-11060000D01*
X12809165Y-10308781D02*
X12829165Y-10328781D01*
X12829165Y-10308781D02*
X12809165Y-10328781D01*
X12828000Y-10540000D02*
X12848000Y-10560000D01*
X12848000Y-10540000D02*
X12828000Y-10560000D01*
X12829000Y-8030650D02*
X12849000Y-8050650D01*
X12849000Y-8030650D02*
X12829000Y-8050650D01*
X12833464Y-8350048D02*
X12853464Y-8370048D01*
X12853464Y-8350048D02*
X12833464Y-8370048D01*
X12848000Y-8608152D02*
X12868000Y-8628152D01*
X12868000Y-8608152D02*
X12848000Y-8628152D01*
X12871094Y-9004088D02*
X12891094Y-9024088D01*
X12891094Y-9004088D02*
X12871094Y-9024088D01*
X12873450Y-7998900D02*
X12893450Y-8018900D01*
X12893450Y-7998900D02*
X12873450Y-8018900D01*
X12878001Y-10189315D02*
X12898001Y-10209315D01*
X12898001Y-10189315D02*
X12878001Y-10209315D01*
X12881686Y-8417598D02*
X12901686Y-8437598D01*
X12901686Y-8417598D02*
X12881686Y-8437598D01*
X12885492Y-8277340D02*
X12905492Y-8297340D01*
X12905492Y-8277340D02*
X12885492Y-8297340D01*
X12892917Y-8846860D02*
X12912917Y-8866860D01*
X12912917Y-8846860D02*
X12892917Y-8866860D01*
X12893082Y-8954110D02*
X12913082Y-8974110D01*
X12913082Y-8954110D02*
X12893082Y-8974110D01*
X12893512Y-8575512D02*
X12913512Y-8595512D01*
X12913512Y-8575512D02*
X12893512Y-8595512D01*
X12902315Y-10307317D02*
X12922315Y-10327317D01*
X12922315Y-10307317D02*
X12902315Y-10327317D01*
X12916696Y-9375219D02*
X12936696Y-9395219D01*
X12936696Y-9375219D02*
X12916696Y-9395219D01*
X12931329Y-9212824D02*
X12951329Y-9232824D01*
X12951329Y-9212824D02*
X12931329Y-9232824D01*
X12940000Y-7712621D02*
X12960000Y-7732621D01*
X12960000Y-7712621D02*
X12940000Y-7732621D01*
X12940751Y-8030650D02*
X12960751Y-8050650D01*
X12960751Y-8030650D02*
X12940751Y-8050650D01*
X12944655Y-10656849D02*
X12964655Y-10676849D01*
X12964655Y-10656849D02*
X12944655Y-10676849D01*
X12948000Y-10870000D02*
X12968000Y-10890000D01*
X12968000Y-10870000D02*
X12948000Y-10890000D01*
X12948459Y-8368601D02*
X12968459Y-8388601D01*
X12968459Y-8368601D02*
X12948459Y-8388601D01*
X12962350Y-8273851D02*
X12982350Y-8293851D01*
X12982350Y-8273851D02*
X12962350Y-8293851D01*
X12967289Y-8994890D02*
X12987289Y-9014890D01*
X12987289Y-8994890D02*
X12967289Y-9014890D01*
X12972174Y-10572141D02*
X12992174Y-10592141D01*
X12992174Y-10572141D02*
X12972174Y-10592141D01*
X12978729Y-9428956D02*
X12998729Y-9448956D01*
X12998729Y-9428956D02*
X12978729Y-9448956D01*
X12979058Y-9320474D02*
X12999058Y-9340474D01*
X12999058Y-9320474D02*
X12979058Y-9340474D01*
X12982301Y-9189599D02*
X13002301Y-9209599D01*
X13002301Y-9189599D02*
X12982301Y-9209599D01*
X12984711Y-7994431D02*
X13004711Y-8014431D01*
X13004711Y-7994431D02*
X12984711Y-8014431D01*
X13011172Y-8843172D02*
X13031172Y-8863172D01*
X13031172Y-8843172D02*
X13011172Y-8863172D01*
X13019500Y-8087800D02*
X13039500Y-8107800D01*
X13039500Y-8087800D02*
X13019500Y-8107800D01*
X13020912Y-9150992D02*
X13040912Y-9170992D01*
X13040912Y-9150992D02*
X13020912Y-9170992D01*
X13022801Y-9275093D02*
X13042801Y-9295093D01*
X13042801Y-9275093D02*
X13022801Y-9295093D01*
X13023410Y-8375410D02*
X13043410Y-8395410D01*
X13043410Y-8375410D02*
X13023410Y-8395410D01*
X13023859Y-9531272D02*
X13043859Y-9551272D01*
X13043859Y-9531272D02*
X13023859Y-9551272D01*
X13033700Y-6718000D02*
X13053700Y-6738000D01*
X13053700Y-6718000D02*
X13033700Y-6738000D01*
X13038000Y-7810000D02*
X13058000Y-7830000D01*
X13058000Y-7810000D02*
X13038000Y-7830000D01*
X13058000Y-7752622D02*
X13078000Y-7772622D01*
X13078000Y-7752622D02*
X13058000Y-7772622D01*
X13088800Y-9502553D02*
X13108800Y-9522553D01*
X13108800Y-9502553D02*
X13088800Y-9522553D01*
X13116112Y-7778651D02*
X13136112Y-7798651D01*
X13136112Y-7778651D02*
X13116112Y-7798651D01*
X13118000Y-8052764D02*
X13138000Y-8072764D01*
X13138000Y-8052764D02*
X13118000Y-8072764D01*
X13118000Y-8610001D02*
X13138000Y-8630001D01*
X13138000Y-8610001D02*
X13118000Y-8630001D01*
X13118285Y-8930285D02*
X13138285Y-8950285D01*
X13138285Y-8930285D02*
X13118285Y-8950285D01*
X13119375Y-7972763D02*
X13139375Y-7992763D01*
X13139375Y-7972763D02*
X13119375Y-7992763D01*
X13132527Y-9469113D02*
X13152527Y-9489113D01*
X13152527Y-9469113D02*
X13132527Y-9489113D01*
X13133000Y-10190000D02*
X13153000Y-10210000D01*
X13153000Y-10190000D02*
X13133000Y-10210000D01*
X13139874Y-9603502D02*
X13159874Y-9623502D01*
X13159874Y-9603502D02*
X13139874Y-9623502D01*
X13156189Y-7892762D02*
X13176189Y-7912762D01*
X13176189Y-7892762D02*
X13156189Y-7912762D01*
X13158000Y-7830000D02*
X13178000Y-7850000D01*
X13178000Y-7830000D02*
X13158000Y-7850000D01*
X13178000Y-10330000D02*
X13198000Y-10350000D01*
X13198000Y-10330000D02*
X13178000Y-10350000D01*
X13178000Y-7770000D02*
X13198000Y-7790000D01*
X13198000Y-7770000D02*
X13178000Y-7790000D01*
X13178000Y-10995000D02*
X13198000Y-11015000D01*
X13198000Y-10995000D02*
X13178000Y-11015000D01*
X13197734Y-9090201D02*
X13217734Y-9110201D01*
X13217734Y-9090201D02*
X13197734Y-9110201D01*
X13197999Y-8610001D02*
X13217999Y-8630001D01*
X13217999Y-8610001D02*
X13197999Y-8630001D01*
X13198000Y-8130000D02*
X13218000Y-8150000D01*
X13218000Y-8130000D02*
X13198000Y-8150000D01*
X13198000Y-8209995D02*
X13218000Y-8229995D01*
X13218000Y-8209995D02*
X13198000Y-8229995D01*
X13198000Y-8289996D02*
X13218000Y-8309996D01*
X13218000Y-8289996D02*
X13198000Y-8309996D01*
X13198000Y-8369997D02*
X13218000Y-8389997D01*
X13218000Y-8369997D02*
X13198000Y-8389997D01*
X13198000Y-8449998D02*
X13218000Y-8469998D01*
X13218000Y-8449998D02*
X13198000Y-8469998D01*
X13198000Y-8529999D02*
X13218000Y-8549999D01*
X13218000Y-8529999D02*
X13198000Y-8549999D01*
X13198000Y-8690001D02*
X13218000Y-8710001D01*
X13218000Y-8690001D02*
X13198000Y-8710001D01*
X13198000Y-8930287D02*
X13218000Y-8950287D01*
X13218000Y-8930287D02*
X13198000Y-8950287D01*
X13198000Y-9010000D02*
X13218000Y-9030000D01*
X13218000Y-9010000D02*
X13198000Y-9030000D01*
X13198000Y-9250000D02*
X13218000Y-9270000D01*
X13218000Y-9250000D02*
X13198000Y-9270000D01*
X13198000Y-9330000D02*
X13218000Y-9350000D01*
X13218000Y-9330000D02*
X13198000Y-9350000D01*
X13198000Y-9410000D02*
X13218000Y-9430000D01*
X13218000Y-9410000D02*
X13198000Y-9430000D01*
X13198285Y-8850286D02*
X13218285Y-8870286D01*
X13218285Y-8850286D02*
X13198285Y-8870286D01*
X13215853Y-9608717D02*
X13235853Y-9628717D01*
X13235853Y-9608717D02*
X13215853Y-9628717D01*
X13223000Y-10950000D02*
X13243000Y-10970000D01*
X13243000Y-10950000D02*
X13223000Y-10970000D01*
X13225000Y-10685000D02*
X13245000Y-10705000D01*
X13245000Y-10685000D02*
X13225000Y-10705000D01*
X13238001Y-7821393D02*
X13258001Y-7841393D01*
X13258001Y-7821393D02*
X13238001Y-7841393D01*
X13239502Y-7637498D02*
X13259502Y-7657498D01*
X13259502Y-7637498D02*
X13239502Y-7657498D01*
X13239871Y-7698893D02*
X13259871Y-7718893D01*
X13259871Y-7698893D02*
X13239871Y-7718893D01*
X13245600Y-6416000D02*
X13265600Y-6436000D01*
X13265600Y-6416000D02*
X13245600Y-6436000D01*
X13258000Y-10249598D02*
X13278000Y-10269598D01*
X13278000Y-10249598D02*
X13258000Y-10269598D01*
X13258300Y-6657300D02*
X13278300Y-6677300D01*
X13278300Y-6657300D02*
X13258300Y-6677300D01*
X13269636Y-9648590D02*
X13289636Y-9668590D01*
X13289636Y-9648590D02*
X13269636Y-9668590D01*
X13273000Y-11000000D02*
X13293000Y-11020000D01*
X13293000Y-11000000D02*
X13273000Y-11020000D01*
X13277254Y-8130000D02*
X13297254Y-8150000D01*
X13297254Y-8130000D02*
X13277254Y-8150000D01*
X13278000Y-8210000D02*
X13298000Y-8230000D01*
X13298000Y-8210000D02*
X13278000Y-8230000D01*
X13278000Y-8290000D02*
X13298000Y-8310000D01*
X13298000Y-8290000D02*
X13278000Y-8310000D01*
X13278000Y-8370000D02*
X13298000Y-8390000D01*
X13298000Y-8370000D02*
X13278000Y-8390000D01*
X13278000Y-8450000D02*
X13298000Y-8470000D01*
X13298000Y-8450000D02*
X13278000Y-8470000D01*
X13278000Y-8530000D02*
X13298000Y-8550000D01*
X13298000Y-8530000D02*
X13278000Y-8550000D01*
X13278000Y-8850000D02*
X13298000Y-8870000D01*
X13298000Y-8850000D02*
X13278000Y-8870000D01*
X13278000Y-8930000D02*
X13298000Y-8950000D01*
X13298000Y-8930000D02*
X13278000Y-8950000D01*
X13278000Y-9010000D02*
X13298000Y-9030000D01*
X13298000Y-9010000D02*
X13278000Y-9030000D01*
X13278000Y-9090000D02*
X13298000Y-9110000D01*
X13298000Y-9090000D02*
X13278000Y-9110000D01*
X13278000Y-9170000D02*
X13298000Y-9190000D01*
X13298000Y-9170000D02*
X13278000Y-9190000D01*
X13278000Y-9250000D02*
X13298000Y-9270000D01*
X13298000Y-9250000D02*
X13278000Y-9270000D01*
X13278000Y-9330000D02*
X13298000Y-9350000D01*
X13298000Y-9330000D02*
X13278000Y-9350000D01*
X13278000Y-9410000D02*
X13298000Y-9430000D01*
X13298000Y-9410000D02*
X13278000Y-9430000D01*
X13278537Y-8690001D02*
X13298537Y-8710001D01*
X13298537Y-8690001D02*
X13278537Y-8710001D01*
X13280000Y-10624000D02*
X13300000Y-10644000D01*
X13300000Y-10624000D02*
X13280000Y-10644000D01*
X13308102Y-9565355D02*
X13328102Y-9585355D01*
X13328102Y-9565355D02*
X13308102Y-9585355D01*
X13321000Y-10682000D02*
X13341000Y-10702000D01*
X13341000Y-10682000D02*
X13321000Y-10702000D01*
X13323500Y-10949500D02*
X13343500Y-10969500D01*
X13343500Y-10949500D02*
X13323500Y-10969500D01*
X13334849Y-10270000D02*
X13354849Y-10290000D01*
X13354849Y-10270000D02*
X13334849Y-10290000D01*
X13355000Y-9490000D02*
X13375000Y-9510000D01*
X13375000Y-9490000D02*
X13355000Y-9510000D01*
X13357255Y-8130000D02*
X13377255Y-8150000D01*
X13377255Y-8130000D02*
X13357255Y-8150000D01*
X13357494Y-8690001D02*
X13377494Y-8710001D01*
X13377494Y-8690001D02*
X13357494Y-8710001D01*
X13358000Y-8210000D02*
X13378000Y-8230000D01*
X13378000Y-8210000D02*
X13358000Y-8230000D01*
X13358000Y-8290000D02*
X13378000Y-8310000D01*
X13378000Y-8290000D02*
X13358000Y-8310000D01*
X13358000Y-8370000D02*
X13378000Y-8390000D01*
X13378000Y-8370000D02*
X13358000Y-8390000D01*
X13358000Y-8450000D02*
X13378000Y-8470000D01*
X13378000Y-8450000D02*
X13358000Y-8470000D01*
X13358000Y-8530000D02*
X13378000Y-8550000D01*
X13378000Y-8530000D02*
X13358000Y-8550000D01*
X13358000Y-8770000D02*
X13378000Y-8790000D01*
X13378000Y-8770000D02*
X13358000Y-8790000D01*
X13358000Y-8850000D02*
X13378000Y-8870000D01*
X13378000Y-8850000D02*
X13358000Y-8870000D01*
X13358000Y-9010000D02*
X13378000Y-9030000D01*
X13378000Y-9010000D02*
X13358000Y-9030000D01*
X13358000Y-9170000D02*
X13378000Y-9190000D01*
X13378000Y-9170000D02*
X13358000Y-9190000D01*
X13358000Y-9250000D02*
X13378000Y-9270000D01*
X13378000Y-9250000D02*
X13358000Y-9270000D01*
X13358000Y-9330000D02*
X13378000Y-9350000D01*
X13378000Y-9330000D02*
X13358000Y-9350000D01*
X13391249Y-9596249D02*
X13411249Y-9616249D01*
X13411249Y-9596249D02*
X13391249Y-9616249D01*
X13418425Y-7735500D02*
X13438425Y-7755500D01*
X13438425Y-7735500D02*
X13418425Y-7755500D01*
X13425556Y-7663957D02*
X13445556Y-7683957D01*
X13445556Y-7663957D02*
X13425556Y-7683957D01*
X13431000Y-9481000D02*
X13451000Y-9501000D01*
X13451000Y-9481000D02*
X13431000Y-9501000D01*
X13437256Y-8130000D02*
X13457256Y-8150000D01*
X13457256Y-8130000D02*
X13437256Y-8150000D01*
X13437997Y-9410000D02*
X13457997Y-9430000D01*
X13457997Y-9410000D02*
X13437997Y-9430000D01*
X13438000Y-8210000D02*
X13458000Y-8230000D01*
X13458000Y-8210000D02*
X13438000Y-8230000D01*
X13438000Y-8290000D02*
X13458000Y-8310000D01*
X13458000Y-8290000D02*
X13438000Y-8310000D01*
X13438000Y-8370000D02*
X13458000Y-8390000D01*
X13458000Y-8370000D02*
X13438000Y-8390000D01*
X13438000Y-9090000D02*
X13458000Y-9110000D01*
X13458000Y-9090000D02*
X13438000Y-9110000D01*
X13443447Y-8771043D02*
X13463447Y-8791043D01*
X13463447Y-8771043D02*
X13443447Y-8791043D01*
X13458000Y-10825000D02*
X13478000Y-10845000D01*
X13478000Y-10825000D02*
X13458000Y-10845000D01*
X13461000Y-9910000D02*
X13481000Y-9930000D01*
X13481000Y-9910000D02*
X13461000Y-9930000D01*
X13469000Y-10225000D02*
X13489000Y-10245000D01*
X13489000Y-10225000D02*
X13469000Y-10245000D01*
X13497100Y-7849800D02*
X13517100Y-7869800D01*
X13517100Y-7849800D02*
X13497100Y-7869800D01*
X13499600Y-6416000D02*
X13519600Y-6436000D01*
X13519600Y-6416000D02*
X13499600Y-6436000D01*
X13502907Y-7791560D02*
X13522907Y-7811560D01*
X13522907Y-7791560D02*
X13502907Y-7811560D01*
X13515000Y-9925000D02*
X13535000Y-9945000D01*
X13535000Y-9925000D02*
X13515000Y-9945000D01*
X13517257Y-8130000D02*
X13537257Y-8150000D01*
X13537257Y-8130000D02*
X13517257Y-8150000D01*
X13517999Y-9410000D02*
X13537999Y-9430000D01*
X13537999Y-9410000D02*
X13517999Y-9430000D01*
X13518000Y-8050000D02*
X13538000Y-8070000D01*
X13538000Y-8050000D02*
X13518000Y-8070000D01*
X13518000Y-8210000D02*
X13538000Y-8230000D01*
X13538000Y-8210000D02*
X13518000Y-8230000D01*
X13518000Y-8290000D02*
X13538000Y-8310000D01*
X13538000Y-8290000D02*
X13518000Y-8310000D01*
X13518000Y-8450000D02*
X13538000Y-8470000D01*
X13538000Y-8450000D02*
X13518000Y-8470000D01*
X13518000Y-8530000D02*
X13538000Y-8550000D01*
X13538000Y-8530000D02*
X13518000Y-8550000D01*
X13518000Y-8610000D02*
X13538000Y-8630000D01*
X13538000Y-8610000D02*
X13518000Y-8630000D01*
X13518000Y-8690000D02*
X13538000Y-8710000D01*
X13538000Y-8690000D02*
X13518000Y-8710000D01*
X13518000Y-10480000D02*
X13538000Y-10500000D01*
X13538000Y-10480000D02*
X13518000Y-10500000D01*
X13522401Y-8925599D02*
X13542401Y-8945599D01*
X13542401Y-8925599D02*
X13522401Y-8945599D01*
X13527000Y-9636000D02*
X13547000Y-9656000D01*
X13547000Y-9636000D02*
X13527000Y-9656000D01*
X13538222Y-7662988D02*
X13558222Y-7682988D01*
X13558222Y-7662988D02*
X13538222Y-7682988D01*
X13540843Y-9583236D02*
X13560843Y-9603236D01*
X13560843Y-9583236D02*
X13540843Y-9603236D01*
X13553609Y-7715377D02*
X13573609Y-7735377D01*
X13573609Y-7715377D02*
X13553609Y-7735377D01*
X13558449Y-7795378D02*
X13578449Y-7815378D01*
X13578449Y-7795378D02*
X13558449Y-7815378D01*
X13562999Y-10750000D02*
X13582999Y-10770000D01*
X13582999Y-10750000D02*
X13562999Y-10770000D01*
X13568000Y-10600000D02*
X13588000Y-10620000D01*
X13588000Y-10600000D02*
X13568000Y-10620000D01*
X13573000Y-10275000D02*
X13593000Y-10295000D01*
X13593000Y-10275000D02*
X13573000Y-10295000D01*
X13588000Y-11040000D02*
X13608000Y-11060000D01*
X13608000Y-11040000D02*
X13588000Y-11060000D01*
X13595500Y-6765000D02*
X13615500Y-6785000D01*
X13615500Y-6765000D02*
X13595500Y-6785000D01*
X13597259Y-8130000D02*
X13617259Y-8150000D01*
X13617259Y-8130000D02*
X13597259Y-8150000D01*
X13598000Y-8210000D02*
X13618000Y-8230000D01*
X13618000Y-8210000D02*
X13598000Y-8230000D01*
X13598000Y-8290000D02*
X13618000Y-8310000D01*
X13618000Y-8290000D02*
X13598000Y-8310000D01*
X13598000Y-8450000D02*
X13618000Y-8470000D01*
X13618000Y-8450000D02*
X13598000Y-8470000D01*
X13598000Y-8770000D02*
X13618000Y-8790000D01*
X13618000Y-8770000D02*
X13598000Y-8790000D01*
X13598000Y-9250000D02*
X13618000Y-9270000D01*
X13618000Y-9250000D02*
X13598000Y-9270000D01*
X13598000Y-9330000D02*
X13618000Y-9350000D01*
X13618000Y-9330000D02*
X13598000Y-9350000D01*
X13598000Y-10700000D02*
X13618000Y-10720000D01*
X13618000Y-10700000D02*
X13598000Y-10720000D01*
X13610758Y-7731917D02*
X13630758Y-7751917D01*
X13630758Y-7731917D02*
X13610758Y-7751917D01*
X13614081Y-9580583D02*
X13634081Y-9600583D01*
X13634081Y-9580583D02*
X13614081Y-9600583D01*
X13672451Y-7539749D02*
X13692451Y-7559749D01*
X13692451Y-7539749D02*
X13672451Y-7559749D01*
X13678000Y-8290000D02*
X13698000Y-8310000D01*
X13698000Y-8290000D02*
X13678000Y-8310000D01*
X13678000Y-8450000D02*
X13698000Y-8470000D01*
X13698000Y-8450000D02*
X13678000Y-8470000D01*
X13678000Y-8610000D02*
X13698000Y-8630000D01*
X13698000Y-8610000D02*
X13678000Y-8630000D01*
X13678000Y-8930000D02*
X13698000Y-8950000D01*
X13698000Y-8930000D02*
X13678000Y-8950000D01*
X13678000Y-9250000D02*
X13698000Y-9270000D01*
X13698000Y-9250000D02*
X13678000Y-9270000D01*
X13678000Y-9330000D02*
X13698000Y-9350000D01*
X13698000Y-9330000D02*
X13678000Y-9350000D01*
X13682670Y-7778784D02*
X13702670Y-7798784D01*
X13702670Y-7778784D02*
X13682670Y-7798784D01*
X13690759Y-7718401D02*
X13710759Y-7738401D01*
X13710759Y-7718401D02*
X13690759Y-7738401D01*
X13693000Y-9553050D02*
X13713000Y-9573050D01*
X13713000Y-9553050D02*
X13693000Y-9573050D01*
X13696214Y-9633786D02*
X13716214Y-9653786D01*
X13716214Y-9633786D02*
X13696214Y-9653786D01*
X13707437Y-7652487D02*
X13727437Y-7672487D01*
X13727437Y-7652487D02*
X13707437Y-7672487D01*
X13721572Y-9113581D02*
X13741572Y-9133581D01*
X13741572Y-9113581D02*
X13721572Y-9133581D01*
X13742795Y-7485205D02*
X13762795Y-7505205D01*
X13762795Y-7485205D02*
X13742795Y-7505205D01*
X13758000Y-8130000D02*
X13778000Y-8150000D01*
X13778000Y-8130000D02*
X13758000Y-8150000D01*
X13758000Y-8450000D02*
X13778000Y-8470000D01*
X13778000Y-8450000D02*
X13758000Y-8470000D01*
X13758000Y-8850000D02*
X13778000Y-8870000D01*
X13778000Y-8850000D02*
X13758000Y-8870000D01*
X13758000Y-8930000D02*
X13778000Y-8950000D01*
X13778000Y-8930000D02*
X13758000Y-8950000D01*
X13758000Y-9330000D02*
X13778000Y-9350000D01*
X13778000Y-9330000D02*
X13758000Y-9350000D01*
X13781000Y-9515000D02*
X13801000Y-9535000D01*
X13801000Y-9515000D02*
X13781000Y-9535000D01*
X13790074Y-9578576D02*
X13810074Y-9598576D01*
X13810074Y-9578576D02*
X13790074Y-9598576D01*
X13828245Y-7746285D02*
X13848245Y-7766285D01*
X13848245Y-7746285D02*
X13828245Y-7766285D01*
X13838000Y-7965000D02*
X13858000Y-7985000D01*
X13858000Y-7965000D02*
X13838000Y-7985000D01*
X13838000Y-8850000D02*
X13858000Y-8870000D01*
X13858000Y-8850000D02*
X13838000Y-8870000D01*
X13838000Y-8930000D02*
X13858000Y-8950000D01*
X13858000Y-8930000D02*
X13838000Y-8950000D01*
X13862850Y-7818050D02*
X13882850Y-7838050D01*
X13882850Y-7818050D02*
X13862850Y-7838050D01*
X13888000Y-10170000D02*
X13908000Y-10190000D01*
X13908000Y-10170000D02*
X13888000Y-10190000D01*
X13888000Y-10260000D02*
X13908000Y-10280000D01*
X13908000Y-10260000D02*
X13888000Y-10280000D01*
X13894600Y-7881550D02*
X13914600Y-7901550D01*
X13914600Y-7881550D02*
X13894600Y-7901550D01*
X13895000Y-10784000D02*
X13915000Y-10804000D01*
X13915000Y-10784000D02*
X13895000Y-10804000D01*
X13910000Y-6603700D02*
X13930000Y-6623700D01*
X13930000Y-6603700D02*
X13910000Y-6623700D01*
X13918000Y-8130000D02*
X13938000Y-8150000D01*
X13938000Y-8130000D02*
X13918000Y-8150000D01*
X13918000Y-8450000D02*
X13938000Y-8470000D01*
X13938000Y-8450000D02*
X13918000Y-8470000D01*
X13918000Y-8850000D02*
X13938000Y-8870000D01*
X13938000Y-8850000D02*
X13918000Y-8870000D01*
X13918000Y-8930000D02*
X13938000Y-8950000D01*
X13938000Y-8930000D02*
X13918000Y-8950000D01*
X13918000Y-9330000D02*
X13938000Y-9350000D01*
X13938000Y-9330000D02*
X13918000Y-9350000D01*
X13918000Y-9490000D02*
X13938000Y-9510000D01*
X13938000Y-9490000D02*
X13918000Y-9510000D01*
X13945400Y-7932350D02*
X13965400Y-7952350D01*
X13965400Y-7932350D02*
X13945400Y-7952350D01*
X13987649Y-7567100D02*
X14007649Y-7587100D01*
X14007649Y-7567100D02*
X13987649Y-7587100D01*
X13996000Y-8292000D02*
X14016000Y-8312000D01*
X14016000Y-8292000D02*
X13996000Y-8312000D01*
X13998000Y-8130000D02*
X14018000Y-8150000D01*
X14018000Y-8130000D02*
X13998000Y-8150000D01*
X13998000Y-8210000D02*
X14018000Y-8230000D01*
X14018000Y-8210000D02*
X13998000Y-8230000D01*
X13998000Y-8450000D02*
X14018000Y-8470000D01*
X14018000Y-8450000D02*
X13998000Y-8470000D01*
X13998000Y-8610000D02*
X14018000Y-8630000D01*
X14018000Y-8610000D02*
X13998000Y-8630000D01*
X13998000Y-8930000D02*
X14018000Y-8950000D01*
X14018000Y-8930000D02*
X13998000Y-8950000D01*
X13998000Y-9250000D02*
X14018000Y-9270000D01*
X14018000Y-9250000D02*
X13998000Y-9270000D01*
X13998000Y-9330000D02*
X14018000Y-9350000D01*
X14018000Y-9330000D02*
X13998000Y-9350000D01*
X13998000Y-9490000D02*
X14018000Y-9510000D01*
X14018000Y-9490000D02*
X13998000Y-9510000D01*
X14054550Y-7567100D02*
X14074550Y-7587100D01*
X14074550Y-7567100D02*
X14054550Y-7587100D01*
X14078000Y-8130000D02*
X14098000Y-8150000D01*
X14098000Y-8130000D02*
X14078000Y-8150000D01*
X14078000Y-8210000D02*
X14098000Y-8230000D01*
X14098000Y-8210000D02*
X14078000Y-8230000D01*
X14078000Y-8290000D02*
X14098000Y-8310000D01*
X14098000Y-8290000D02*
X14078000Y-8310000D01*
X14078000Y-8450000D02*
X14098000Y-8470000D01*
X14098000Y-8450000D02*
X14078000Y-8470000D01*
X14078000Y-8770000D02*
X14098000Y-8790000D01*
X14098000Y-8770000D02*
X14078000Y-8790000D01*
X14078000Y-9130000D02*
X14098000Y-9150000D01*
X14098000Y-9130000D02*
X14078000Y-9150000D01*
X14078000Y-9250000D02*
X14098000Y-9270000D01*
X14098000Y-9250000D02*
X14078000Y-9270000D01*
X14078000Y-9330000D02*
X14098000Y-9350000D01*
X14098000Y-9330000D02*
X14078000Y-9350000D01*
X14108000Y-10831000D02*
X14128000Y-10851000D01*
X14128000Y-10831000D02*
X14108000Y-10851000D01*
X14124400Y-7567100D02*
X14144400Y-7587100D01*
X14144400Y-7567100D02*
X14124400Y-7587100D01*
X14124927Y-6884521D02*
X14144927Y-6904521D01*
X14144927Y-6884521D02*
X14124927Y-6904521D01*
X14134000Y-10593000D02*
X14154000Y-10613000D01*
X14154000Y-10593000D02*
X14134000Y-10613000D01*
X14135900Y-7786300D02*
X14155900Y-7806300D01*
X14155900Y-7786300D02*
X14135900Y-7806300D01*
X14148000Y-10170000D02*
X14168000Y-10190000D01*
X14168000Y-10170000D02*
X14148000Y-10190000D01*
X14148000Y-10270000D02*
X14168000Y-10290000D01*
X14168000Y-10270000D02*
X14148000Y-10290000D01*
X14154000Y-9100700D02*
X14174000Y-9120700D01*
X14174000Y-9100700D02*
X14154000Y-9120700D01*
X14158000Y-8210000D02*
X14178000Y-8230000D01*
X14178000Y-8210000D02*
X14158000Y-8230000D01*
X14158000Y-8290000D02*
X14178000Y-8310000D01*
X14178000Y-8290000D02*
X14158000Y-8310000D01*
X14158000Y-8450000D02*
X14178000Y-8470000D01*
X14178000Y-8450000D02*
X14158000Y-8470000D01*
X14158000Y-8530000D02*
X14178000Y-8550000D01*
X14178000Y-8530000D02*
X14158000Y-8550000D01*
X14158000Y-8610000D02*
X14178000Y-8630000D01*
X14178000Y-8610000D02*
X14158000Y-8630000D01*
X14158000Y-8690000D02*
X14178000Y-8710000D01*
X14178000Y-8690000D02*
X14158000Y-8710000D01*
X14158000Y-8930000D02*
X14178000Y-8950000D01*
X14178000Y-8930000D02*
X14158000Y-8950000D01*
X14206000Y-9635000D02*
X14226000Y-9655000D01*
X14226000Y-9635000D02*
X14206000Y-9655000D01*
X14218000Y-7410000D02*
X14238000Y-7430000D01*
X14238000Y-7410000D02*
X14218000Y-7430000D01*
X14236377Y-7893109D02*
X14256377Y-7913109D01*
X14256377Y-7893109D02*
X14236377Y-7913109D01*
X14238000Y-8130000D02*
X14258000Y-8150000D01*
X14258000Y-8130000D02*
X14238000Y-8150000D01*
X14238000Y-8210000D02*
X14258000Y-8230000D01*
X14258000Y-8210000D02*
X14238000Y-8230000D01*
X14238000Y-8292000D02*
X14258000Y-8312000D01*
X14258000Y-8292000D02*
X14238000Y-8312000D01*
X14238000Y-8370000D02*
X14258000Y-8390000D01*
X14258000Y-8370000D02*
X14238000Y-8390000D01*
X14238000Y-8770000D02*
X14258000Y-8790000D01*
X14258000Y-8770000D02*
X14238000Y-8790000D01*
X14238000Y-9410000D02*
X14258000Y-9430000D01*
X14258000Y-9410000D02*
X14238000Y-9430000D01*
X14238000Y-9490000D02*
X14258000Y-9510000D01*
X14258000Y-9490000D02*
X14238000Y-9510000D01*
X14245000Y-6892000D02*
X14265000Y-6912000D01*
X14265000Y-6892000D02*
X14245000Y-6912000D01*
X14267329Y-7833800D02*
X14287329Y-7853800D01*
X14287329Y-7833800D02*
X14267329Y-7853800D01*
X14268583Y-7723660D02*
X14288583Y-7743660D01*
X14288583Y-7723660D02*
X14268583Y-7743660D01*
X14298000Y-6760000D02*
X14318000Y-6780000D01*
X14318000Y-6760000D02*
X14298000Y-6780000D01*
X14316000Y-8452000D02*
X14336000Y-8472000D01*
X14336000Y-8452000D02*
X14316000Y-8472000D01*
X14318000Y-8130000D02*
X14338000Y-8150000D01*
X14338000Y-8130000D02*
X14318000Y-8150000D01*
X14318000Y-8210000D02*
X14338000Y-8230000D01*
X14338000Y-8210000D02*
X14318000Y-8230000D01*
X14318000Y-8290000D02*
X14338000Y-8310000D01*
X14338000Y-8290000D02*
X14318000Y-8310000D01*
X14318000Y-8370000D02*
X14338000Y-8390000D01*
X14338000Y-8370000D02*
X14318000Y-8390000D01*
X14318000Y-8610000D02*
X14338000Y-8630000D01*
X14338000Y-8610000D02*
X14318000Y-8630000D01*
X14318000Y-8690000D02*
X14338000Y-8710000D01*
X14338000Y-8690000D02*
X14318000Y-8710000D01*
X14318000Y-8850000D02*
X14338000Y-8870000D01*
X14338000Y-8850000D02*
X14318000Y-8870000D01*
X14318000Y-9010000D02*
X14338000Y-9030000D01*
X14338000Y-9010000D02*
X14318000Y-9030000D01*
X14318000Y-9090000D02*
X14338000Y-9110000D01*
X14338000Y-9090000D02*
X14318000Y-9110000D01*
X14318000Y-9170000D02*
X14338000Y-9190000D01*
X14338000Y-9170000D02*
X14318000Y-9190000D01*
X14318000Y-9330000D02*
X14338000Y-9350000D01*
X14338000Y-9330000D02*
X14318000Y-9350000D01*
X14318000Y-9410000D02*
X14338000Y-9430000D01*
X14338000Y-9410000D02*
X14318000Y-9430000D01*
X14318000Y-9490000D02*
X14338000Y-9510000D01*
X14338000Y-9490000D02*
X14318000Y-9510000D01*
X14327000Y-10520000D02*
X14347000Y-10540000D01*
X14347000Y-10520000D02*
X14327000Y-10540000D01*
X14331863Y-7387513D02*
X14351863Y-7407513D01*
X14351863Y-7387513D02*
X14331863Y-7407513D01*
X14353000Y-10853000D02*
X14373000Y-10873000D01*
X14373000Y-10853000D02*
X14353000Y-10873000D01*
X14355067Y-6376252D02*
X14375067Y-6396252D01*
X14375067Y-6376252D02*
X14355067Y-6396252D01*
X14360000Y-9637350D02*
X14380000Y-9657350D01*
X14380000Y-9637350D02*
X14360000Y-9657350D01*
X14360888Y-7571730D02*
X14380888Y-7591730D01*
X14380888Y-7571730D02*
X14360888Y-7591730D01*
X14394000Y-6891000D02*
X14414000Y-6911000D01*
X14414000Y-6891000D02*
X14394000Y-6911000D01*
X14398000Y-8130000D02*
X14418000Y-8150000D01*
X14418000Y-8130000D02*
X14398000Y-8150000D01*
X14398000Y-8210000D02*
X14418000Y-8230000D01*
X14418000Y-8210000D02*
X14398000Y-8230000D01*
X14398000Y-8290000D02*
X14418000Y-8310000D01*
X14418000Y-8290000D02*
X14398000Y-8310000D01*
X14398000Y-8370000D02*
X14418000Y-8390000D01*
X14418000Y-8370000D02*
X14398000Y-8390000D01*
X14398000Y-8450000D02*
X14418000Y-8470000D01*
X14418000Y-8450000D02*
X14398000Y-8470000D01*
X14398000Y-8530000D02*
X14418000Y-8550000D01*
X14418000Y-8530000D02*
X14398000Y-8550000D01*
X14398000Y-8610000D02*
X14418000Y-8630000D01*
X14418000Y-8610000D02*
X14398000Y-8630000D01*
X14398000Y-8850000D02*
X14418000Y-8870000D01*
X14418000Y-8850000D02*
X14398000Y-8870000D01*
X14398000Y-8930000D02*
X14418000Y-8950000D01*
X14418000Y-8930000D02*
X14398000Y-8950000D01*
X14398000Y-9010000D02*
X14418000Y-9030000D01*
X14418000Y-9010000D02*
X14398000Y-9030000D01*
X14398000Y-9090000D02*
X14418000Y-9110000D01*
X14418000Y-9090000D02*
X14398000Y-9110000D01*
X14398000Y-9170000D02*
X14418000Y-9190000D01*
X14418000Y-9170000D02*
X14398000Y-9190000D01*
X14398000Y-9250000D02*
X14418000Y-9270000D01*
X14418000Y-9250000D02*
X14398000Y-9270000D01*
X14398000Y-9330000D02*
X14418000Y-9350000D01*
X14418000Y-9330000D02*
X14398000Y-9350000D01*
X14398000Y-9410000D02*
X14418000Y-9430000D01*
X14418000Y-9410000D02*
X14398000Y-9430000D01*
X14432598Y-9586550D02*
X14452598Y-9606550D01*
X14452598Y-9586550D02*
X14432598Y-9606550D01*
X14432598Y-9653450D02*
X14452598Y-9673450D01*
X14452598Y-9653450D02*
X14432598Y-9673450D01*
X14441900Y-7802050D02*
X14461900Y-7822050D01*
X14461900Y-7802050D02*
X14441900Y-7822050D01*
X14453400Y-7942279D02*
X14473400Y-7962279D01*
X14473400Y-7942279D02*
X14453400Y-7962279D01*
X14478000Y-8130000D02*
X14498000Y-8150000D01*
X14498000Y-8130000D02*
X14478000Y-8150000D01*
X14478000Y-8210000D02*
X14498000Y-8230000D01*
X14498000Y-8210000D02*
X14478000Y-8230000D01*
X14478000Y-8290000D02*
X14498000Y-8310000D01*
X14498000Y-8290000D02*
X14478000Y-8310000D01*
X14478000Y-8370000D02*
X14498000Y-8390000D01*
X14498000Y-8370000D02*
X14478000Y-8390000D01*
X14478000Y-8450000D02*
X14498000Y-8470000D01*
X14498000Y-8450000D02*
X14478000Y-8470000D01*
X14478000Y-8530000D02*
X14498000Y-8550000D01*
X14498000Y-8530000D02*
X14478000Y-8550000D01*
X14478000Y-8610000D02*
X14498000Y-8630000D01*
X14498000Y-8610000D02*
X14478000Y-8630000D01*
X14478000Y-8690000D02*
X14498000Y-8710000D01*
X14498000Y-8690000D02*
X14478000Y-8710000D01*
X14478000Y-8850000D02*
X14498000Y-8870000D01*
X14498000Y-8850000D02*
X14478000Y-8870000D01*
X14478000Y-8930000D02*
X14498000Y-8950000D01*
X14498000Y-8930000D02*
X14478000Y-8950000D01*
X14478000Y-9010000D02*
X14498000Y-9030000D01*
X14498000Y-9010000D02*
X14478000Y-9030000D01*
X14478000Y-9090000D02*
X14498000Y-9110000D01*
X14498000Y-9090000D02*
X14478000Y-9110000D01*
X14478000Y-9170000D02*
X14498000Y-9190000D01*
X14498000Y-9170000D02*
X14478000Y-9190000D01*
X14478000Y-9250000D02*
X14498000Y-9270000D01*
X14498000Y-9250000D02*
X14478000Y-9270000D01*
X14478000Y-9330000D02*
X14498000Y-9350000D01*
X14498000Y-9330000D02*
X14478000Y-9350000D01*
X14478000Y-9410000D02*
X14498000Y-9430000D01*
X14498000Y-9410000D02*
X14478000Y-9430000D01*
X14485000Y-10452000D02*
X14505000Y-10472000D01*
X14505000Y-10452000D02*
X14485000Y-10472000D01*
X14511750Y-7802050D02*
X14531750Y-7822050D01*
X14531750Y-7802050D02*
X14511750Y-7822050D01*
X14519784Y-6886786D02*
X14539784Y-6906786D01*
X14539784Y-6886786D02*
X14519784Y-6906786D01*
X14558000Y-8130000D02*
X14578000Y-8150000D01*
X14578000Y-8130000D02*
X14558000Y-8150000D01*
X14558000Y-8530000D02*
X14578000Y-8550000D01*
X14578000Y-8530000D02*
X14558000Y-8550000D01*
X14558000Y-9090000D02*
X14578000Y-9110000D01*
X14578000Y-9090000D02*
X14558000Y-9110000D01*
X14558000Y-9410000D02*
X14578000Y-9430000D01*
X14578000Y-9410000D02*
X14558000Y-9430000D01*
X14558000Y-9490000D02*
X14578000Y-9510000D01*
X14578000Y-9490000D02*
X14558000Y-9510000D01*
X14598000Y-6870000D02*
X14618000Y-6890000D01*
X14618000Y-6870000D02*
X14598000Y-6890000D01*
X14600000Y-7972000D02*
X14620000Y-7992000D01*
X14620000Y-7972000D02*
X14600000Y-7992000D01*
X14618000Y-9540000D02*
X14638000Y-9560000D01*
X14638000Y-9540000D02*
X14618000Y-9560000D01*
X14621285Y-9600000D02*
X14641285Y-9620000D01*
X14641285Y-9600000D02*
X14621285Y-9620000D01*
X14638000Y-8530000D02*
X14658000Y-8550000D01*
X14658000Y-8530000D02*
X14638000Y-8550000D01*
X14645949Y-7187841D02*
X14665949Y-7207841D01*
X14665949Y-7187841D02*
X14645949Y-7207841D01*
X14660029Y-7625502D02*
X14680029Y-7645502D01*
X14680029Y-7625502D02*
X14660029Y-7645502D01*
X14676850Y-7560750D02*
X14696850Y-7580750D01*
X14696850Y-7560750D02*
X14676850Y-7580750D01*
X14720100Y-8116500D02*
X14740100Y-8136500D01*
X14740100Y-8116500D02*
X14720100Y-8136500D01*
X14724389Y-9311713D02*
X14744389Y-9331713D01*
X14744389Y-9311713D02*
X14724389Y-9331713D01*
X14733095Y-9010001D02*
X14753095Y-9030001D01*
X14753095Y-9010001D02*
X14733095Y-9030001D01*
X14748200Y-7146252D02*
X14768200Y-7166252D01*
X14768200Y-7146252D02*
X14748200Y-7166252D01*
X14751215Y-8517186D02*
X14771215Y-8537186D01*
X14771215Y-8517186D02*
X14751215Y-8537186D01*
X14760000Y-9366849D02*
X14780000Y-9386849D01*
X14780000Y-9366849D02*
X14760000Y-9386849D01*
X14781079Y-8758342D02*
X14801079Y-8778342D01*
X14801079Y-8758342D02*
X14781079Y-8778342D01*
X14784800Y-6855900D02*
X14804800Y-6875900D01*
X14804800Y-6855900D02*
X14784800Y-6875900D01*
X14789801Y-9519309D02*
X14809801Y-9539309D01*
X14809801Y-9519309D02*
X14789801Y-9539309D01*
X14810200Y-8024300D02*
X14830200Y-8044300D01*
X14830200Y-8024300D02*
X14810200Y-8044300D01*
X14813402Y-9709999D02*
X14833402Y-9729999D01*
X14833402Y-9709999D02*
X14813402Y-9729999D01*
X14824901Y-9322231D02*
X14844901Y-9342231D01*
X14844901Y-9322231D02*
X14824901Y-9342231D01*
X14838354Y-8752346D02*
X14858354Y-8772346D01*
X14858354Y-8752346D02*
X14838354Y-8772346D01*
X14841950Y-8164000D02*
X14861950Y-8184000D01*
X14861950Y-8164000D02*
X14841950Y-8184000D01*
X14843300Y-9498908D02*
X14863300Y-9518908D01*
X14863300Y-9498908D02*
X14843300Y-9518908D01*
X14845000Y-6825000D02*
X14865000Y-6845000D01*
X14865000Y-6825000D02*
X14845000Y-6845000D01*
X14853000Y-6332405D02*
X14873000Y-6352405D01*
X14873000Y-6332405D02*
X14853000Y-6352405D01*
X14858001Y-6750000D02*
X14878001Y-6770000D01*
X14878001Y-6750000D02*
X14858001Y-6770000D01*
X14886400Y-8329101D02*
X14906400Y-8349101D01*
X14906400Y-8329101D02*
X14886400Y-8349101D01*
X14891068Y-9636956D02*
X14911068Y-9656956D01*
X14911068Y-9636956D02*
X14891068Y-9656956D01*
X14894600Y-6860400D02*
X14914600Y-6880400D01*
X14914600Y-6860400D02*
X14894600Y-6880400D01*
X14922454Y-9518954D02*
X14942454Y-9538954D01*
X14942454Y-9518954D02*
X14922454Y-9538954D01*
X14923145Y-8097780D02*
X14943145Y-8117780D01*
X14943145Y-8097780D02*
X14923145Y-8117780D01*
X14947550Y-8699301D02*
X14967550Y-8719301D01*
X14967550Y-8699301D02*
X14947550Y-8719301D01*
X14966401Y-8381402D02*
X14986401Y-8401402D01*
X14986401Y-8381402D02*
X14966401Y-8401402D01*
X14976016Y-8111417D02*
X14996016Y-8131417D01*
X14996016Y-8111417D02*
X14976016Y-8131417D01*
X14981204Y-9475803D02*
X15001204Y-9495803D01*
X15001204Y-9475803D02*
X14981204Y-9495803D01*
X14993799Y-8164000D02*
X15013799Y-8184000D01*
X15013799Y-8164000D02*
X14993799Y-8184000D01*
X15004000Y-10219000D02*
X15024000Y-10239000D01*
X15024000Y-10219000D02*
X15004000Y-10239000D01*
X15025763Y-8088912D02*
X15045763Y-8108912D01*
X15045763Y-8088912D02*
X15025763Y-8108912D01*
X15043950Y-9386500D02*
X15063950Y-9406500D01*
X15063950Y-9386500D02*
X15043950Y-9406500D01*
X15046500Y-9475803D02*
X15066500Y-9495803D01*
X15066500Y-9475803D02*
X15046500Y-9495803D01*
X15070500Y-6397500D02*
X15090500Y-6417500D01*
X15090500Y-6397500D02*
X15070500Y-6417500D01*
X15073800Y-8167300D02*
X15093800Y-8187300D01*
X15093800Y-8167300D02*
X15073800Y-8187300D01*
X15109016Y-9411900D02*
X15129016Y-9431900D01*
X15129016Y-9411900D02*
X15109016Y-9431900D01*
X15167300Y-6337000D02*
X15187300Y-6357000D01*
X15187300Y-6337000D02*
X15167300Y-6357000D01*
X15201400Y-10429200D02*
X15221400Y-10449200D01*
X15221400Y-10429200D02*
X15201400Y-10449200D01*
X15225500Y-7287500D02*
X15245500Y-7307500D01*
X15245500Y-7287500D02*
X15225500Y-7307500D01*
X15239707Y-7880000D02*
X15259707Y-7900000D01*
X15259707Y-7880000D02*
X15239707Y-7900000D01*
X15283000Y-7210000D02*
X15303000Y-7230000D01*
X15303000Y-7210000D02*
X15283000Y-7230000D01*
X15290300Y-10429200D02*
X15310300Y-10449200D01*
X15310300Y-10429200D02*
X15290300Y-10449200D01*
X15303000Y-10099000D02*
X15323000Y-10119000D01*
X15323000Y-10099000D02*
X15303000Y-10119000D01*
X15394400Y-6740000D02*
X15414400Y-6760000D01*
X15414400Y-6740000D02*
X15394400Y-6760000D01*
X15432558Y-10288777D02*
X15452558Y-10308777D01*
X15452558Y-10288777D02*
X15432558Y-10308777D01*
X15459400Y-7238700D02*
X15479400Y-7258700D01*
X15479400Y-7238700D02*
X15459400Y-7258700D01*
X15584900Y-8114958D02*
X15604900Y-8134958D01*
X15604900Y-8114958D02*
X15584900Y-8134958D01*
X15662600Y-10820100D02*
X15682600Y-10840100D01*
X15682600Y-10820100D02*
X15662600Y-10840100D01*
X15700700Y-6311600D02*
X15720700Y-6331600D01*
X15720700Y-6311600D02*
X15700700Y-6331600D01*
X15752461Y-6738631D02*
X15772461Y-6758631D01*
X15772461Y-6738631D02*
X15752461Y-6758631D01*
X15758000Y-6980000D02*
X15778000Y-7000000D01*
X15778000Y-6980000D02*
X15758000Y-7000000D01*
X15770000Y-6847000D02*
X15790000Y-6867000D01*
X15790000Y-6847000D02*
X15770000Y-6867000D01*
X15975500Y-7853100D02*
X15995500Y-7873100D01*
X15995500Y-7853100D02*
X15975500Y-7873100D01*
X16146000Y-6446900D02*
X16166000Y-6466900D01*
X16166000Y-6446900D02*
X16146000Y-6466900D01*
X16209000Y-9449000D02*
X16229000Y-9469000D01*
X16229000Y-9449000D02*
X16209000Y-9469000D01*
X16217147Y-6618496D02*
X16237147Y-6638496D01*
X16237147Y-6618496D02*
X16217147Y-6638496D01*
X16234100Y-9717000D02*
X16254100Y-9737000D01*
X16254100Y-9717000D02*
X16234100Y-9737000D01*
X16256000Y-6831000D02*
X16276000Y-6851000D01*
X16276000Y-6831000D02*
X16256000Y-6851000D01*
X16358000Y-7150000D02*
X16378000Y-7170000D01*
X16378000Y-7150000D02*
X16358000Y-7170000D01*
X16487300Y-8105000D02*
X16507300Y-8125000D01*
X16507300Y-8105000D02*
X16487300Y-8125000D01*
X16570337Y-9724488D02*
X16590337Y-9744488D01*
X16590337Y-9724488D02*
X16570337Y-9744488D01*
X16588200Y-7102746D02*
X16608200Y-7122746D01*
X16608200Y-7102746D02*
X16588200Y-7122746D01*
X16618469Y-9492515D02*
X16638469Y-9512515D01*
X16638469Y-9492515D02*
X16618469Y-9512515D01*
X16626300Y-7744900D02*
X16646300Y-7764900D01*
X16646300Y-7744900D02*
X16626300Y-7764900D01*
X16626301Y-7937352D02*
X16646301Y-7957352D01*
X16646301Y-7937352D02*
X16626301Y-7957352D01*
X16683000Y-8097000D02*
X16703000Y-8117000D01*
X16703000Y-8097000D02*
X16683000Y-8117000D01*
X16687000Y-9446000D02*
X16707000Y-9466000D01*
X16707000Y-9446000D02*
X16687000Y-9466000D01*
X16747000Y-8096000D02*
X16767000Y-8116000D01*
X16767000Y-8096000D02*
X16747000Y-8116000D01*
X16753300Y-9065700D02*
X16773300Y-9085700D01*
X16773300Y-9065700D02*
X16753300Y-9085700D01*
X16791400Y-7922700D02*
X16811400Y-7942700D01*
X16811400Y-7922700D02*
X16791400Y-7942700D01*
X16804100Y-9103800D02*
X16824100Y-9123800D01*
X16824100Y-9103800D02*
X16804100Y-9123800D01*
X16804608Y-9776390D02*
X16824608Y-9796390D01*
X16824608Y-9776390D02*
X16804608Y-9796390D01*
X16810000Y-8100000D02*
X16830000Y-8120000D01*
X16830000Y-8100000D02*
X16810000Y-8120000D01*
X16816800Y-9946228D02*
X16836800Y-9966228D01*
X16836800Y-9946228D02*
X16816800Y-9966228D01*
X16880300Y-7465500D02*
X16900300Y-7485500D01*
X16900300Y-7465500D02*
X16880300Y-7485500D01*
X16880300Y-7687203D02*
X16900300Y-7707203D01*
X16900300Y-7687203D02*
X16880300Y-7707203D01*
X16941704Y-6958649D02*
X16961704Y-6978649D01*
X16961704Y-6958649D02*
X16941704Y-6978649D01*
X16962549Y-10564300D02*
X16982549Y-10584300D01*
X16982549Y-10564300D02*
X16962549Y-10584300D01*
X17007300Y-6703500D02*
X17027300Y-6723500D01*
X17027300Y-6703500D02*
X17007300Y-6723500D01*
X17010000Y-8101000D02*
X17030000Y-8121000D01*
X17030000Y-8101000D02*
X17010000Y-8121000D01*
X17032700Y-10773850D02*
X17052700Y-10793850D01*
X17052700Y-10773850D02*
X17032700Y-10793850D01*
X17058000Y-7450000D02*
X17078000Y-7470000D01*
X17078000Y-7450000D02*
X17058000Y-7470000D01*
X17075950Y-10097700D02*
X17095950Y-10117700D01*
X17095950Y-10097700D02*
X17075950Y-10117700D01*
X17083500Y-6703500D02*
X17103500Y-6723500D01*
X17103500Y-6703500D02*
X17083500Y-6723500D01*
X17089000Y-9445000D02*
X17109000Y-9465000D01*
X17109000Y-9445000D02*
X17089000Y-9465000D01*
X17095000Y-10034200D02*
X17115000Y-10054200D01*
X17115000Y-10034200D02*
X17095000Y-10054200D01*
X17095000Y-10152849D02*
X17115000Y-10172849D01*
X17115000Y-10152849D02*
X17095000Y-10172849D01*
X17173900Y-7102746D02*
X17193900Y-7122746D01*
X17193900Y-7102746D02*
X17173900Y-7122746D01*
X17185000Y-8091000D02*
X17205000Y-8111000D01*
X17205000Y-8091000D02*
X17185000Y-8111000D01*
X17205500Y-7940000D02*
X17225500Y-7960000D01*
X17225500Y-7940000D02*
X17205500Y-7960000D01*
X17229000Y-9450000D02*
X17249000Y-9470000D01*
X17249000Y-9450000D02*
X17229000Y-9470000D01*
X17288200Y-7416500D02*
X17308200Y-7436500D01*
X17308200Y-7416500D02*
X17288200Y-7436500D01*
X17377000Y-8088000D02*
X17397000Y-8108000D01*
X17397000Y-8088000D02*
X17377000Y-8108000D01*
X17400500Y-7747500D02*
X17420500Y-7767500D01*
X17420500Y-7747500D02*
X17400500Y-7767500D01*
X17421312Y-7102746D02*
X17441312Y-7122746D01*
X17441312Y-7102746D02*
X17421312Y-7122746D01*
X17427900Y-8564300D02*
X17447900Y-8584300D01*
X17447900Y-8564300D02*
X17427900Y-8584300D01*
X17510500Y-7930000D02*
X17530500Y-7950000D01*
X17530500Y-7930000D02*
X17510500Y-7950000D01*
X17514451Y-10716700D02*
X17534451Y-10736700D01*
X17534451Y-10716700D02*
X17514451Y-10736700D01*
X17540700Y-10500800D02*
X17560700Y-10520800D01*
X17560700Y-10500800D02*
X17540700Y-10520800D01*
X17566100Y-8418000D02*
X17586100Y-8438000D01*
X17586100Y-8418000D02*
X17566100Y-8438000D01*
X17603000Y-7737500D02*
X17623000Y-7757500D01*
X17623000Y-7737500D02*
X17603000Y-7757500D01*
X17616900Y-10437300D02*
X17636900Y-10457300D01*
X17636900Y-10437300D02*
X17616900Y-10457300D01*
X17642300Y-8138600D02*
X17662300Y-8158600D01*
X17662300Y-8138600D02*
X17642300Y-8158600D01*
X17650543Y-8840716D02*
X17670543Y-8860716D01*
X17670543Y-8840716D02*
X17650543Y-8860716D01*
X17669708Y-7102746D02*
X17689708Y-7122746D01*
X17689708Y-7102746D02*
X17669708Y-7122746D01*
X17708899Y-8866403D02*
X17728899Y-8886403D01*
X17728899Y-8866403D02*
X17708899Y-8886403D01*
X17718798Y-9667866D02*
X17738798Y-9687866D01*
X17738798Y-9667866D02*
X17718798Y-9687866D01*
X17792200Y-8956000D02*
X17812200Y-8976000D01*
X17812200Y-8956000D02*
X17792200Y-8976000D01*
X17965500Y-8770000D02*
X17985500Y-8790000D01*
X17985500Y-8770000D02*
X17965500Y-8790000D01*
X17970000Y-8308300D02*
X17990000Y-8328300D01*
X17990000Y-8308300D02*
X17970000Y-8328300D01*
X17998000Y-9470000D02*
X18018000Y-9490000D01*
X18018000Y-9470000D02*
X17998000Y-9490000D01*
X18015551Y-7730221D02*
X18035551Y-7750221D01*
X18035551Y-7730221D02*
X18015551Y-7750221D01*
X18034471Y-6919244D02*
X18054471Y-6939244D01*
X18054471Y-6919244D02*
X18034471Y-6939244D01*
X18036000Y-7427400D02*
X18056000Y-7447400D01*
X18056000Y-7427400D02*
X18036000Y-7447400D01*
X18158000Y-9310000D02*
X18178000Y-9330000D01*
X18178000Y-9310000D02*
X18158000Y-9330000D01*
X18177200Y-11150300D02*
X18197200Y-11170300D01*
X18197200Y-11150300D02*
X18177200Y-11170300D01*
X18212000Y-10133000D02*
X18232000Y-10153000D01*
X18232000Y-10133000D02*
X18212000Y-10153000D01*
X18221000Y-9618000D02*
X18241000Y-9638000D01*
X18241000Y-9618000D02*
X18221000Y-9638000D01*
X18224000Y-7458000D02*
X18244000Y-7478000D01*
X18244000Y-7458000D02*
X18224000Y-7478000D01*
X18262000Y-10382000D02*
X18282000Y-10402000D01*
X18282000Y-10382000D02*
X18262000Y-10402000D01*
X18277000Y-6964000D02*
X18297000Y-6984000D01*
X18297000Y-6964000D02*
X18277000Y-6984000D01*
X18278000Y-7976000D02*
X18298000Y-7996000D01*
X18298000Y-7976000D02*
X18278000Y-7996000D01*
X18278000Y-8225000D02*
X18298000Y-8245000D01*
X18298000Y-8225000D02*
X18278000Y-8245000D01*
X18280000Y-7086000D02*
X18300000Y-7106000D01*
X18300000Y-7086000D02*
X18280000Y-7106000D01*
X18280000Y-7718000D02*
X18300000Y-7738000D01*
X18300000Y-7718000D02*
X18280000Y-7738000D01*
X18280000Y-7848000D02*
X18300000Y-7868000D01*
X18300000Y-7848000D02*
X18280000Y-7868000D01*
X18281000Y-7217000D02*
X18301000Y-7237000D01*
X18301000Y-7217000D02*
X18281000Y-7237000D01*
X18281000Y-7336000D02*
X18301000Y-7356000D01*
X18301000Y-7336000D02*
X18281000Y-7356000D01*
X18289000Y-9245000D02*
X18309000Y-9265000D01*
X18309000Y-9245000D02*
X18289000Y-9265000D01*
X18291000Y-8988000D02*
X18311000Y-9008000D01*
X18311000Y-8988000D02*
X18291000Y-9008000D01*
X18321000Y-6659000D02*
X18341000Y-6679000D01*
X18341000Y-6659000D02*
X18321000Y-6679000D01*
X18540000Y-6966000D02*
X18560000Y-6986000D01*
X18560000Y-6966000D02*
X18540000Y-6986000D01*
X18543000Y-8229000D02*
X18563000Y-8249000D01*
X18563000Y-8229000D02*
X18543000Y-8249000D01*
X18543000Y-9612000D02*
X18563000Y-9632000D01*
X18563000Y-9612000D02*
X18543000Y-9632000D01*
X18544000Y-7982000D02*
X18564000Y-8002000D01*
X18564000Y-7982000D02*
X18544000Y-8002000D01*
X18544000Y-9872000D02*
X18564000Y-9892000D01*
X18564000Y-9872000D02*
X18544000Y-9892000D01*
X18544000Y-10135000D02*
X18564000Y-10155000D01*
X18564000Y-10135000D02*
X18544000Y-10155000D01*
X18544000Y-10653000D02*
X18564000Y-10673000D01*
X18564000Y-10653000D02*
X18544000Y-10673000D01*
X18545000Y-7216000D02*
X18565000Y-7236000D01*
X18565000Y-7216000D02*
X18545000Y-7236000D01*
X18545000Y-10375000D02*
X18565000Y-10395000D01*
X18565000Y-10375000D02*
X18545000Y-10395000D01*
X18546000Y-7466000D02*
X18566000Y-7486000D01*
X18566000Y-7466000D02*
X18546000Y-7486000D01*
X18546000Y-7730000D02*
X18566000Y-7750000D01*
X18566000Y-7730000D02*
X18546000Y-7750000D01*
X18547000Y-6661000D02*
X18567000Y-6681000D01*
X18567000Y-6661000D02*
X18547000Y-6681000D01*
X18547000Y-9111000D02*
X18567000Y-9131000D01*
X18567000Y-9111000D02*
X18547000Y-9131000D01*
X18547000Y-9366000D02*
X18567000Y-9386000D01*
X18567000Y-9366000D02*
X18547000Y-9386000D01*
D13*
X15416900Y-8174000D02*
G75*
G03*
X15416900Y-8174000I-12500J0D01*
G01*
X15798000Y-7867500D02*
G75*
G03*
X15798000Y-7867500I-12500J0D01*
G01*
X15880450Y-8116850D02*
G75*
G03*
X15880450Y-8116850I-12500J0D01*
G01*
X16147150Y-8110500D02*
G75*
G03*
X16147150Y-8110500I-12500J0D01*
G01*
X16363050Y-8116850D02*
G75*
G03*
X16363050Y-8116850I-12500J0D01*
G01*
D14*
X13393000Y-10207300D02*
X13393000Y-10232700D01*
X13380300Y-10220000D02*
X13405700Y-10220000D01*
X15950500Y-10294900D02*
X15950500Y-10320300D01*
X15937800Y-10307600D02*
X15963200Y-10307600D01*
X16991900Y-10294900D02*
X16991900Y-10320300D01*
X16979200Y-10307600D02*
X17004600Y-10307600D01*
X17055400Y-10294900D02*
X17055400Y-10320300D01*
X17042700Y-10307600D02*
X17068100Y-10307600D01*
D15*
X10438607Y-7116055D02*
X10438607Y-7094841D01*
X10417393Y-7094841D01*
X10417393Y-7116055D01*
X10438607Y-7116055D01*
X10495607Y-9227607D02*
X10495607Y-9206393D01*
X10474393Y-9206393D01*
X10474393Y-9227607D01*
X10495607Y-9227607D01*
X10570342Y-7192342D02*
X10570342Y-7171128D01*
X10549129Y-7171128D01*
X10549129Y-7192342D01*
X10570342Y-7192342D01*
X10659607Y-9238457D02*
X10659607Y-9217243D01*
X10638393Y-9217243D01*
X10638393Y-9238457D01*
X10659607Y-9238457D01*
X10686607Y-11111607D02*
X10686607Y-11090393D01*
X10665393Y-11090393D01*
X10665393Y-11111607D01*
X10686607Y-11111607D01*
X10754107Y-6762207D02*
X10754107Y-6740993D01*
X10732893Y-6740993D01*
X10732893Y-6762207D01*
X10754107Y-6762207D01*
X10773607Y-7183107D02*
X10773607Y-7161893D01*
X10752393Y-7161893D01*
X10752393Y-7183107D01*
X10773607Y-7183107D01*
X11015607Y-10173607D02*
X11015607Y-10152393D01*
X10994393Y-10152393D01*
X10994393Y-10173607D01*
X11015607Y-10173607D01*
X11017607Y-10735607D02*
X11017607Y-10714393D01*
X10996393Y-10714393D01*
X10996393Y-10735607D01*
X11017607Y-10735607D01*
X11400607Y-6742607D02*
X11400607Y-6721393D01*
X11379393Y-6721393D01*
X11379393Y-6742607D01*
X11400607Y-6742607D01*
X12084607Y-10393057D02*
X12084607Y-10371843D01*
X12063393Y-10371843D01*
X12063393Y-10393057D01*
X12084607Y-10393057D01*
X12101607Y-10233607D02*
X12101607Y-10212393D01*
X12080393Y-10212393D01*
X12080393Y-10233607D01*
X12101607Y-10233607D01*
X12213607Y-7818107D02*
X12213607Y-7796893D01*
X12192393Y-7796893D01*
X12192393Y-7818107D01*
X12213607Y-7818107D01*
X12321607Y-10796607D02*
X12321607Y-10775393D01*
X12300393Y-10775393D01*
X12300393Y-10796607D01*
X12321607Y-10796607D01*
X12354307Y-10907807D02*
X12354307Y-10886593D01*
X12333093Y-10886593D01*
X12333093Y-10907807D01*
X12354307Y-10907807D01*
X12782607Y-11110607D02*
X12782607Y-11089393D01*
X12761393Y-11089393D01*
X12761393Y-11110607D01*
X12782607Y-11110607D01*
X12848607Y-9992561D02*
X12848607Y-9971348D01*
X12827393Y-9971348D01*
X12827393Y-9992561D01*
X12848607Y-9992561D01*
X14869607Y-10300607D02*
X14869607Y-10279393D01*
X14848393Y-10279393D01*
X14848393Y-10300607D01*
X14869607Y-10300607D01*
X15156107Y-7305607D02*
X15156107Y-7284393D01*
X15134893Y-7284393D01*
X15134893Y-7305607D01*
X15156107Y-7305607D01*
X15251407Y-9310357D02*
X15251407Y-9289143D01*
X15230193Y-9289143D01*
X15230193Y-9310357D01*
X15251407Y-9310357D01*
X15467307Y-7928459D02*
X15467307Y-7907245D01*
X15446093Y-7907245D01*
X15446093Y-7928459D01*
X15467307Y-7928459D01*
X15469997Y-9471401D02*
X15469997Y-9450188D01*
X15448783Y-9450188D01*
X15448783Y-9471401D01*
X15469997Y-9471401D01*
X15619707Y-9469107D02*
X15619707Y-9447893D01*
X15598493Y-9447893D01*
X15598493Y-9469107D01*
X15619707Y-9469107D01*
X15810207Y-7259307D02*
X15810207Y-7238093D01*
X15788993Y-7238093D01*
X15788993Y-7259307D01*
X15810207Y-7259307D01*
X16148607Y-10465607D02*
X16148607Y-10444393D01*
X16127393Y-10444393D01*
X16127393Y-10465607D01*
X16148607Y-10465607D01*
X16149607Y-10682607D02*
X16149607Y-10661393D01*
X16128393Y-10661393D01*
X16128393Y-10682607D01*
X16149607Y-10682607D01*
X16588607Y-10628607D02*
X16588607Y-10607393D01*
X16567393Y-10607393D01*
X16567393Y-10628607D01*
X16588607Y-10628607D01*
X16768607Y-10466607D02*
X16768607Y-10445393D01*
X16747393Y-10445393D01*
X16747393Y-10466607D01*
X16768607Y-10466607D01*
X16932657Y-7975057D02*
X16932657Y-7953843D01*
X16911443Y-7953843D01*
X16911443Y-7975057D01*
X16932657Y-7975057D01*
X17038607Y-9463607D02*
X17038607Y-9442393D01*
X17017393Y-9442393D01*
X17017393Y-9463607D01*
X17038607Y-9463607D01*
X17038607Y-9540607D02*
X17038607Y-9519393D01*
X17017393Y-9519393D01*
X17017393Y-9540607D01*
X17038607Y-9540607D01*
X17041561Y-8554760D02*
X17041561Y-8533546D01*
X17020347Y-8533546D01*
X17020347Y-8554760D01*
X17041561Y-8554760D01*
X17168607Y-9503107D02*
X17168607Y-9481893D01*
X17147393Y-9481893D01*
X17147393Y-9503107D01*
X17168607Y-9503107D01*
X17707607Y-10465607D02*
X17707607Y-10444393D01*
X17686393Y-10444393D01*
X17686393Y-10465607D01*
X17707607Y-10465607D01*
X17948607Y-10506082D02*
X17948607Y-10484868D01*
X17927393Y-10484868D01*
X17927393Y-10506082D01*
X17948607Y-10506082D01*
X18054107Y-7071607D02*
X18054107Y-7050393D01*
X18032893Y-7050393D01*
X18032893Y-7071607D01*
X18054107Y-7071607D01*
X18126199Y-10508678D02*
X18126199Y-10487464D01*
X18104985Y-10487464D01*
X18104985Y-10508678D01*
X18126199Y-10508678D01*
D16*
X10118000Y-9837500D02*
X10135500Y-9820000D01*
X10118000Y-9802500D01*
X10100500Y-9820000D01*
X10118000Y-9837500D01*
X10248200Y-9842500D02*
X10265700Y-9825000D01*
X10248200Y-9807500D01*
X10230700Y-9825000D01*
X10248200Y-9842500D01*
D17*
X10698100Y-8928700D02*
X10738100Y-8968700D01*
X10738100Y-8928700D02*
X10698100Y-8968700D01*
X10738100Y-8948700D02*
G75*
G03*
X10738100Y-8948700I-20000J0D01*
G01*
X11039391Y-10843646D02*
X11079391Y-10883646D01*
X11079391Y-10843646D02*
X11039391Y-10883646D01*
X11079391Y-10863646D02*
G75*
G03*
X11079391Y-10863646I-20000J0D01*
G01*
X11041000Y-8928700D02*
X11081000Y-8968700D01*
X11081000Y-8928700D02*
X11041000Y-8968700D01*
X11081000Y-8948700D02*
G75*
G03*
X11081000Y-8948700I-20000J0D01*
G01*
X11254999Y-10169661D02*
X11294999Y-10209661D01*
X11294999Y-10169661D02*
X11254999Y-10209661D01*
X11294999Y-10189661D02*
G75*
G03*
X11294999Y-10189661I-20000J0D01*
G01*
X16730600Y-6845900D02*
X16770600Y-6885900D01*
X16770600Y-6845900D02*
X16730600Y-6885900D01*
X16770600Y-6865900D02*
G75*
G03*
X16770600Y-6865900I-20000J0D01*
G01*
X17149700Y-8725500D02*
X17189700Y-8765500D01*
X17189700Y-8725500D02*
X17149700Y-8765500D01*
X17189700Y-8745500D02*
G75*
G03*
X17189700Y-8745500I-20000J0D01*
G01*
X17283050Y-7701248D02*
X17323050Y-7741248D01*
X17323050Y-7701248D02*
X17283050Y-7741248D01*
X17323050Y-7721248D02*
G75*
G03*
X17323050Y-7721248I-20000J0D01*
G01*
X17391000Y-7938100D02*
X17431000Y-7978100D01*
X17431000Y-7938100D02*
X17391000Y-7978100D01*
X17431000Y-7958100D02*
G75*
G03*
X17431000Y-7958100I-20000J0D01*
G01*
X17619600Y-8700100D02*
X17659600Y-8740100D01*
X17659600Y-8700100D02*
X17619600Y-8740100D01*
X17659600Y-8720100D02*
G75*
G03*
X17659600Y-8720100I-20000J0D01*
G01*
D18*
X10060589Y-7132486D02*
X10110589Y-7182486D01*
X10110589Y-7132486D02*
X10060589Y-7182486D01*
X10085589Y-7132486D02*
X10085589Y-7182486D01*
X10060589Y-7157486D02*
X10110589Y-7157486D01*
X10064450Y-9463450D02*
X10114450Y-9513450D01*
X10114450Y-9463450D02*
X10064450Y-9513450D01*
X10089450Y-9463450D02*
X10089450Y-9513450D01*
X10064450Y-9488450D02*
X10114450Y-9488450D01*
X10159700Y-10054000D02*
X10209700Y-10104000D01*
X10209700Y-10054000D02*
X10159700Y-10104000D01*
X10184700Y-10054000D02*
X10184700Y-10104000D01*
X10159700Y-10079000D02*
X10209700Y-10079000D01*
X10604000Y-6311000D02*
X10654000Y-6361000D01*
X10654000Y-6311000D02*
X10604000Y-6361000D01*
X10629000Y-6311000D02*
X10629000Y-6361000D01*
X10604000Y-6336000D02*
X10654000Y-6336000D01*
X10672481Y-6470397D02*
X10722481Y-6520397D01*
X10722481Y-6470397D02*
X10672481Y-6520397D01*
X10697481Y-6470397D02*
X10697481Y-6520397D01*
X10672481Y-6495397D02*
X10722481Y-6495397D01*
X11429700Y-7704500D02*
X11479700Y-7754500D01*
X11479700Y-7704500D02*
X11429700Y-7754500D01*
X11454700Y-7704500D02*
X11454700Y-7754500D01*
X11429700Y-7729500D02*
X11479700Y-7729500D01*
X11556700Y-10777900D02*
X11606700Y-10827900D01*
X11606700Y-10777900D02*
X11556700Y-10827900D01*
X11581700Y-10777900D02*
X11581700Y-10827900D01*
X11556700Y-10802900D02*
X11606700Y-10802900D01*
X11663050Y-6455294D02*
X11713050Y-6505294D01*
X11713050Y-6455294D02*
X11663050Y-6505294D01*
X11688050Y-6455294D02*
X11688050Y-6505294D01*
X11663050Y-6480294D02*
X11713050Y-6480294D01*
X11775000Y-6657000D02*
X11825000Y-6707000D01*
X11825000Y-6657000D02*
X11775000Y-6707000D01*
X11800000Y-6657000D02*
X11800000Y-6707000D01*
X11775000Y-6682000D02*
X11825000Y-6682000D01*
X11874200Y-10714400D02*
X11924200Y-10764400D01*
X11924200Y-10714400D02*
X11874200Y-10764400D01*
X11899200Y-10714400D02*
X11899200Y-10764400D01*
X11874200Y-10739400D02*
X11924200Y-10739400D01*
X11996200Y-10838350D02*
X12046200Y-10888350D01*
X12046200Y-10838350D02*
X11996200Y-10888350D01*
X12021200Y-10838350D02*
X12021200Y-10888350D01*
X11996200Y-10863350D02*
X12046200Y-10863350D01*
X12305000Y-6337000D02*
X12355000Y-6387000D01*
X12355000Y-6337000D02*
X12305000Y-6387000D01*
X12330000Y-6337000D02*
X12330000Y-6387000D01*
X12305000Y-6362000D02*
X12355000Y-6362000D01*
X13706000Y-6625000D02*
X13756000Y-6675000D01*
X13756000Y-6625000D02*
X13706000Y-6675000D01*
X13731000Y-6625000D02*
X13731000Y-6675000D01*
X13706000Y-6650000D02*
X13756000Y-6650000D01*
X14720500Y-10678100D02*
X14770500Y-10728100D01*
X14770500Y-10678100D02*
X14720500Y-10728100D01*
X14745500Y-10678100D02*
X14745500Y-10728100D01*
X14720500Y-10703100D02*
X14770500Y-10703100D01*
X14801839Y-7890602D02*
X14851839Y-7940602D01*
X14851839Y-7890602D02*
X14801839Y-7940602D01*
X14826839Y-7890602D02*
X14826839Y-7940602D01*
X14801839Y-7915602D02*
X14851839Y-7915602D01*
X14949100Y-10855900D02*
X14999100Y-10905900D01*
X14999100Y-10855900D02*
X14949100Y-10905900D01*
X14974100Y-10855900D02*
X14974100Y-10905900D01*
X14949100Y-10880900D02*
X14999100Y-10880900D01*
X15150800Y-9952400D02*
X15200800Y-10002400D01*
X15200800Y-9952400D02*
X15150800Y-10002400D01*
X15175800Y-9952400D02*
X15175800Y-10002400D01*
X15150800Y-9977400D02*
X15200800Y-9977400D01*
X15828999Y-9461877D02*
X15878999Y-9511877D01*
X15878999Y-9461877D02*
X15828999Y-9511877D01*
X15853999Y-9461877D02*
X15853999Y-9511877D01*
X15828999Y-9486877D02*
X15878999Y-9486877D01*
X15839500Y-9838500D02*
X15889500Y-9888500D01*
X15889500Y-9838500D02*
X15839500Y-9888500D01*
X15864500Y-9838500D02*
X15864500Y-9888500D01*
X15839500Y-9863500D02*
X15889500Y-9863500D01*
X15963600Y-9838100D02*
X16013600Y-9888100D01*
X16013600Y-9838100D02*
X15963600Y-9888100D01*
X15988600Y-9838100D02*
X15988600Y-9888100D01*
X15963600Y-9863100D02*
X16013600Y-9863100D01*
X16065001Y-9477000D02*
X16115001Y-9527000D01*
X16115001Y-9477000D02*
X16065001Y-9527000D01*
X16090001Y-9477000D02*
X16090001Y-9527000D01*
X16065001Y-9502000D02*
X16115001Y-9502000D01*
X16295300Y-9471600D02*
X16345300Y-9521600D01*
X16345300Y-9471600D02*
X16295300Y-9521600D01*
X16320300Y-9471600D02*
X16320300Y-9521600D01*
X16295300Y-9496600D02*
X16345300Y-9496600D01*
X16437573Y-9473247D02*
X16487573Y-9523247D01*
X16487573Y-9473247D02*
X16437573Y-9523247D01*
X16462573Y-9473247D02*
X16462573Y-9523247D01*
X16437573Y-9498247D02*
X16487573Y-9498247D01*
X16460400Y-6309300D02*
X16510400Y-6359300D01*
X16510400Y-6309300D02*
X16460400Y-6359300D01*
X16485400Y-6309300D02*
X16485400Y-6359300D01*
X16460400Y-6334300D02*
X16510400Y-6334300D01*
X16638200Y-9611300D02*
X16688200Y-9661300D01*
X16688200Y-9611300D02*
X16638200Y-9661300D01*
X16663200Y-9611300D02*
X16663200Y-9661300D01*
X16638200Y-9636300D02*
X16688200Y-9636300D01*
X16883000Y-9471000D02*
X16933000Y-9521000D01*
X16933000Y-9471000D02*
X16883000Y-9521000D01*
X16908000Y-9471000D02*
X16908000Y-9521000D01*
X16883000Y-9496000D02*
X16933000Y-9496000D01*
X17347900Y-6828200D02*
X17397900Y-6878200D01*
X17397900Y-6828200D02*
X17347900Y-6878200D01*
X17372900Y-6828200D02*
X17372900Y-6878200D01*
X17347900Y-6853200D02*
X17397900Y-6853200D01*
X17458000Y-9456000D02*
X17508000Y-9506000D01*
X17508000Y-9456000D02*
X17458000Y-9506000D01*
X17483000Y-9456000D02*
X17483000Y-9506000D01*
X17458000Y-9481000D02*
X17508000Y-9481000D01*
X17552600Y-6309300D02*
X17602600Y-6359300D01*
X17602600Y-6309300D02*
X17552600Y-6359300D01*
X17577600Y-6309300D02*
X17577600Y-6359300D01*
X17552600Y-6334300D02*
X17602600Y-6334300D01*
X17589200Y-9431700D02*
X17639200Y-9481700D01*
X17639200Y-9431700D02*
X17589200Y-9481700D01*
X17614200Y-9431700D02*
X17614200Y-9481700D01*
X17589200Y-9456700D02*
X17639200Y-9456700D01*
X17740844Y-8203135D02*
X17790844Y-8253135D01*
X17790844Y-8203135D02*
X17740844Y-8253135D01*
X17765844Y-8203135D02*
X17765844Y-8253135D01*
X17740844Y-8228135D02*
X17790844Y-8228135D01*
X17767000Y-10460400D02*
X17817000Y-10510400D01*
X17817000Y-10460400D02*
X17767000Y-10510400D01*
X17792000Y-10460400D02*
X17792000Y-10510400D01*
X17767000Y-10485400D02*
X17817000Y-10485400D01*
X18046400Y-9165000D02*
X18096400Y-9215000D01*
X18096400Y-9165000D02*
X18046400Y-9215000D01*
X18071400Y-9165000D02*
X18071400Y-9215000D01*
X18046400Y-9190000D02*
X18096400Y-9190000D01*
X18145500Y-8534600D02*
X18195500Y-8584600D01*
X18195500Y-8534600D02*
X18145500Y-8584600D01*
X18170500Y-8534600D02*
X18170500Y-8584600D01*
X18145500Y-8559600D02*
X18195500Y-8559600D01*
X14255000Y-10328000D02*
X14305000Y-10378000D01*
X14305000Y-10328000D02*
X14255000Y-10378000D01*
X14297678Y-10370678D02*
X14297678Y-10335322D01*
X14262322Y-10335322D01*
X14262322Y-10370678D01*
X14297678Y-10370678D01*
X14355000Y-10328000D02*
X14405000Y-10378000D01*
X14405000Y-10328000D02*
X14355000Y-10378000D01*
X14397678Y-10370678D02*
X14397678Y-10335322D01*
X14362322Y-10335322D01*
X14362322Y-10370678D01*
X14397678Y-10370678D01*
X14513000Y-10330000D02*
X14563000Y-10380000D01*
X14563000Y-10330000D02*
X14513000Y-10380000D01*
X14555678Y-10372678D02*
X14555678Y-10337322D01*
X14520322Y-10337322D01*
X14520322Y-10372678D01*
X14555678Y-10372678D01*
X14613000Y-10330000D02*
X14663000Y-10380000D01*
X14663000Y-10330000D02*
X14613000Y-10380000D01*
X14655678Y-10372678D02*
X14655678Y-10337322D01*
X14620322Y-10337322D01*
X14620322Y-10372678D01*
X14655678Y-10372678D01*
D19*
X17319000Y-9439400D02*
X17379000Y-9499400D01*
X17379000Y-9439400D02*
X17319000Y-9499400D01*
X17349000Y-9499400D02*
X17379000Y-9469400D01*
X17349000Y-9439400D01*
X17319000Y-9469400D01*
X17349000Y-9499400D01*
D20*
X10299000Y-9521000D02*
X10299000Y-9621000D01*
X10249000Y-9571000D02*
X10349000Y-9571000D01*
X10349000Y-9571000D02*
G75*
G03*
X10349000Y-9571000I-50000J0D01*
G01*
X10553000Y-9521000D02*
X10553000Y-9621000D01*
X10503000Y-9571000D02*
X10603000Y-9571000D01*
X10603000Y-9571000D02*
G75*
G03*
X10603000Y-9571000I-50000J0D01*
G01*
X13005600Y-7122500D02*
X13005600Y-7222500D01*
X12955600Y-7172500D02*
X13055600Y-7172500D01*
X13055600Y-7172500D02*
G75*
G03*
X13055600Y-7172500I-50000J0D01*
G01*
X13259600Y-7122500D02*
X13259600Y-7222500D01*
X13209600Y-7172500D02*
X13309600Y-7172500D01*
X13309600Y-7172500D02*
G75*
G03*
X13309600Y-7172500I-50000J0D01*
G01*
X13513600Y-7122500D02*
X13513600Y-7222500D01*
X13463600Y-7172500D02*
X13563600Y-7172500D01*
X13563600Y-7172500D02*
G75*
G03*
X13563600Y-7172500I-50000J0D01*
G01*
D21*
X9572921Y-6304921D02*
X9572921Y-6233079D01*
X9501079Y-6233079D01*
X9501079Y-6304921D01*
X9572921Y-6304921D01*
X9587800Y-6269000D02*
G75*
G03*
X9587800Y-6269000I-50800J0D01*
G01*
X9572921Y-6558921D02*
X9572921Y-6487079D01*
X9501079Y-6487079D01*
X9501079Y-6558921D01*
X9572921Y-6558921D01*
X9587800Y-6523000D02*
G75*
G03*
X9587800Y-6523000I-50800J0D01*
G01*
X9572921Y-6812921D02*
X9572921Y-6741079D01*
X9501079Y-6741079D01*
X9501079Y-6812921D01*
X9572921Y-6812921D01*
X9587800Y-6777000D02*
G75*
G03*
X9587800Y-6777000I-50800J0D01*
G01*
X9572921Y-7066921D02*
X9572921Y-6995079D01*
X9501079Y-6995079D01*
X9501079Y-7066921D01*
X9572921Y-7066921D01*
X9587800Y-7031000D02*
G75*
G03*
X9587800Y-7031000I-50800J0D01*
G01*
X9572921Y-7320921D02*
X9572921Y-7249079D01*
X9501079Y-7249079D01*
X9501079Y-7320921D01*
X9572921Y-7320921D01*
X9587800Y-7285000D02*
G75*
G03*
X9587800Y-7285000I-50800J0D01*
G01*
X9572921Y-7574921D02*
X9572921Y-7503079D01*
X9501079Y-7503079D01*
X9501079Y-7574921D01*
X9572921Y-7574921D01*
X9587800Y-7539000D02*
G75*
G03*
X9587800Y-7539000I-50800J0D01*
G01*
X9572921Y-7828921D02*
X9572921Y-7757079D01*
X9501079Y-7757079D01*
X9501079Y-7828921D01*
X9572921Y-7828921D01*
X9587800Y-7793000D02*
G75*
G03*
X9587800Y-7793000I-50800J0D01*
G01*
X9572921Y-8082921D02*
X9572921Y-8011079D01*
X9501079Y-8011079D01*
X9501079Y-8082921D01*
X9572921Y-8082921D01*
X9587800Y-8047000D02*
G75*
G03*
X9587800Y-8047000I-50800J0D01*
G01*
X9572921Y-8336921D02*
X9572921Y-8265079D01*
X9501079Y-8265079D01*
X9501079Y-8336921D01*
X9572921Y-8336921D01*
X9587800Y-8301000D02*
G75*
G03*
X9587800Y-8301000I-50800J0D01*
G01*
X9572921Y-8590921D02*
X9572921Y-8519079D01*
X9501079Y-8519079D01*
X9501079Y-8590921D01*
X9572921Y-8590921D01*
X9587800Y-8555000D02*
G75*
G03*
X9587800Y-8555000I-50800J0D01*
G01*
X9572921Y-8844921D02*
X9572921Y-8773079D01*
X9501079Y-8773079D01*
X9501079Y-8844921D01*
X9572921Y-8844921D01*
X9587800Y-8809000D02*
G75*
G03*
X9587800Y-8809000I-50800J0D01*
G01*
X9572921Y-9098921D02*
X9572921Y-9027079D01*
X9501079Y-9027079D01*
X9501079Y-9098921D01*
X9572921Y-9098921D01*
X9587800Y-9063000D02*
G75*
G03*
X9587800Y-9063000I-50800J0D01*
G01*
X9572921Y-9352921D02*
X9572921Y-9281079D01*
X9501079Y-9281079D01*
X9501079Y-9352921D01*
X9572921Y-9352921D01*
X9587800Y-9317000D02*
G75*
G03*
X9587800Y-9317000I-50800J0D01*
G01*
X9572921Y-9606921D02*
X9572921Y-9535079D01*
X9501079Y-9535079D01*
X9501079Y-9606921D01*
X9572921Y-9606921D01*
X9587800Y-9571000D02*
G75*
G03*
X9587800Y-9571000I-50800J0D01*
G01*
X9572921Y-9860921D02*
X9572921Y-9789079D01*
X9501079Y-9789079D01*
X9501079Y-9860921D01*
X9572921Y-9860921D01*
X9587800Y-9825000D02*
G75*
G03*
X9587800Y-9825000I-50800J0D01*
G01*
X9572921Y-10114921D02*
X9572921Y-10043079D01*
X9501079Y-10043079D01*
X9501079Y-10114921D01*
X9572921Y-10114921D01*
X9587800Y-10079000D02*
G75*
G03*
X9587800Y-10079000I-50800J0D01*
G01*
X9572921Y-10368921D02*
X9572921Y-10297079D01*
X9501079Y-10297079D01*
X9501079Y-10368921D01*
X9572921Y-10368921D01*
X9587800Y-10333000D02*
G75*
G03*
X9587800Y-10333000I-50800J0D01*
G01*
X9572921Y-10622921D02*
X9572921Y-10551079D01*
X9501079Y-10551079D01*
X9501079Y-10622921D01*
X9572921Y-10622921D01*
X9587800Y-10587000D02*
G75*
G03*
X9587800Y-10587000I-50800J0D01*
G01*
X9572921Y-10876921D02*
X9572921Y-10805079D01*
X9501079Y-10805079D01*
X9501079Y-10876921D01*
X9572921Y-10876921D01*
X9587800Y-10841000D02*
G75*
G03*
X9587800Y-10841000I-50800J0D01*
G01*
X9572921Y-11130921D02*
X9572921Y-11059079D01*
X9501079Y-11059079D01*
X9501079Y-11130921D01*
X9572921Y-11130921D01*
X9587800Y-11095000D02*
G75*
G03*
X9587800Y-11095000I-50800J0D01*
G01*
X9826921Y-6304921D02*
X9826921Y-6233079D01*
X9755079Y-6233079D01*
X9755079Y-6304921D01*
X9826921Y-6304921D01*
X9841800Y-6269000D02*
G75*
G03*
X9841800Y-6269000I-50800J0D01*
G01*
X9826921Y-6558921D02*
X9826921Y-6487079D01*
X9755079Y-6487079D01*
X9755079Y-6558921D01*
X9826921Y-6558921D01*
X9841800Y-6523000D02*
G75*
G03*
X9841800Y-6523000I-50800J0D01*
G01*
X9826921Y-6812921D02*
X9826921Y-6741079D01*
X9755079Y-6741079D01*
X9755079Y-6812921D01*
X9826921Y-6812921D01*
X9841800Y-6777000D02*
G75*
G03*
X9841800Y-6777000I-50800J0D01*
G01*
X9826921Y-7066921D02*
X9826921Y-6995079D01*
X9755079Y-6995079D01*
X9755079Y-7066921D01*
X9826921Y-7066921D01*
X9841800Y-7031000D02*
G75*
G03*
X9841800Y-7031000I-50800J0D01*
G01*
X9826921Y-7320921D02*
X9826921Y-7249079D01*
X9755079Y-7249079D01*
X9755079Y-7320921D01*
X9826921Y-7320921D01*
X9841800Y-7285000D02*
G75*
G03*
X9841800Y-7285000I-50800J0D01*
G01*
X9826921Y-7574921D02*
X9826921Y-7503079D01*
X9755079Y-7503079D01*
X9755079Y-7574921D01*
X9826921Y-7574921D01*
X9841800Y-7539000D02*
G75*
G03*
X9841800Y-7539000I-50800J0D01*
G01*
X9826921Y-7828921D02*
X9826921Y-7757079D01*
X9755079Y-7757079D01*
X9755079Y-7828921D01*
X9826921Y-7828921D01*
X9841800Y-7793000D02*
G75*
G03*
X9841800Y-7793000I-50800J0D01*
G01*
X9826921Y-8082921D02*
X9826921Y-8011079D01*
X9755079Y-8011079D01*
X9755079Y-8082921D01*
X9826921Y-8082921D01*
X9841800Y-8047000D02*
G75*
G03*
X9841800Y-8047000I-50800J0D01*
G01*
X9826921Y-8336921D02*
X9826921Y-8265079D01*
X9755079Y-8265079D01*
X9755079Y-8336921D01*
X9826921Y-8336921D01*
X9841800Y-8301000D02*
G75*
G03*
X9841800Y-8301000I-50800J0D01*
G01*
X9826921Y-8590921D02*
X9826921Y-8519079D01*
X9755079Y-8519079D01*
X9755079Y-8590921D01*
X9826921Y-8590921D01*
X9841800Y-8555000D02*
G75*
G03*
X9841800Y-8555000I-50800J0D01*
G01*
X9826921Y-8844921D02*
X9826921Y-8773079D01*
X9755079Y-8773079D01*
X9755079Y-8844921D01*
X9826921Y-8844921D01*
X9841800Y-8809000D02*
G75*
G03*
X9841800Y-8809000I-50800J0D01*
G01*
X9826921Y-9098921D02*
X9826921Y-9027079D01*
X9755079Y-9027079D01*
X9755079Y-9098921D01*
X9826921Y-9098921D01*
X9841800Y-9063000D02*
G75*
G03*
X9841800Y-9063000I-50800J0D01*
G01*
X9826921Y-9352921D02*
X9826921Y-9281079D01*
X9755079Y-9281079D01*
X9755079Y-9352921D01*
X9826921Y-9352921D01*
X9841800Y-9317000D02*
G75*
G03*
X9841800Y-9317000I-50800J0D01*
G01*
X9826921Y-9606921D02*
X9826921Y-9535079D01*
X9755079Y-9535079D01*
X9755079Y-9606921D01*
X9826921Y-9606921D01*
X9841800Y-9571000D02*
G75*
G03*
X9841800Y-9571000I-50800J0D01*
G01*
X9826921Y-9860921D02*
X9826921Y-9789079D01*
X9755079Y-9789079D01*
X9755079Y-9860921D01*
X9826921Y-9860921D01*
X9841800Y-9825000D02*
G75*
G03*
X9841800Y-9825000I-50800J0D01*
G01*
X9826921Y-10114921D02*
X9826921Y-10043079D01*
X9755079Y-10043079D01*
X9755079Y-10114921D01*
X9826921Y-10114921D01*
X9841800Y-10079000D02*
G75*
G03*
X9841800Y-10079000I-50800J0D01*
G01*
X9826921Y-10368921D02*
X9826921Y-10297079D01*
X9755079Y-10297079D01*
X9755079Y-10368921D01*
X9826921Y-10368921D01*
X9841800Y-10333000D02*
G75*
G03*
X9841800Y-10333000I-50800J0D01*
G01*
X9826921Y-10622921D02*
X9826921Y-10551079D01*
X9755079Y-10551079D01*
X9755079Y-10622921D01*
X9826921Y-10622921D01*
X9841800Y-10587000D02*
G75*
G03*
X9841800Y-10587000I-50800J0D01*
G01*
X9826921Y-10876921D02*
X9826921Y-10805079D01*
X9755079Y-10805079D01*
X9755079Y-10876921D01*
X9826921Y-10876921D01*
X9841800Y-10841000D02*
G75*
G03*
X9841800Y-10841000I-50800J0D01*
G01*
X9826921Y-11130921D02*
X9826921Y-11059079D01*
X9755079Y-11059079D01*
X9755079Y-11130921D01*
X9826921Y-11130921D01*
X9841800Y-11095000D02*
G75*
G03*
X9841800Y-11095000I-50800J0D01*
G01*
X13049921Y-10114921D02*
X13049921Y-10043079D01*
X12978079Y-10043079D01*
X12978079Y-10114921D01*
X13049921Y-10114921D01*
X13064800Y-10079000D02*
G75*
G03*
X13064800Y-10079000I-50800J0D01*
G01*
X13303921Y-10114921D02*
X13303921Y-10043079D01*
X13232079Y-10043079D01*
X13232079Y-10114921D01*
X13303921Y-10114921D01*
X13318800Y-10079000D02*
G75*
G03*
X13318800Y-10079000I-50800J0D01*
G01*
X13557921Y-10114921D02*
X13557921Y-10043079D01*
X13486079Y-10043079D01*
X13486079Y-10114921D01*
X13557921Y-10114921D01*
X13572800Y-10079000D02*
G75*
G03*
X13572800Y-10079000I-50800J0D01*
G01*
X13811921Y-10114921D02*
X13811921Y-10043079D01*
X13740079Y-10043079D01*
X13740079Y-10114921D01*
X13811921Y-10114921D01*
X13826800Y-10079000D02*
G75*
G03*
X13826800Y-10079000I-50800J0D01*
G01*
X13811921Y-10495921D02*
X13811921Y-10424079D01*
X13740079Y-10424079D01*
X13740079Y-10495921D01*
X13811921Y-10495921D01*
X13826800Y-10460000D02*
G75*
G03*
X13826800Y-10460000I-50800J0D01*
G01*
X13811921Y-10749921D02*
X13811921Y-10678079D01*
X13740079Y-10678079D01*
X13740079Y-10749921D01*
X13811921Y-10749921D01*
X13826800Y-10714000D02*
G75*
G03*
X13826800Y-10714000I-50800J0D01*
G01*
X13811921Y-11003921D02*
X13811921Y-10932079D01*
X13740079Y-10932079D01*
X13740079Y-11003921D01*
X13811921Y-11003921D01*
X13826800Y-10968000D02*
G75*
G03*
X13826800Y-10968000I-50800J0D01*
G01*
X14062421Y-10114921D02*
X14062421Y-10043079D01*
X13990579Y-10043079D01*
X13990579Y-10114921D01*
X14062421Y-10114921D01*
X14077300Y-10079000D02*
G75*
G03*
X14077300Y-10079000I-50800J0D01*
G01*
X14065921Y-10495921D02*
X14065921Y-10424079D01*
X13994079Y-10424079D01*
X13994079Y-10495921D01*
X14065921Y-10495921D01*
X14080800Y-10460000D02*
G75*
G03*
X14080800Y-10460000I-50800J0D01*
G01*
X14065921Y-10749921D02*
X14065921Y-10678079D01*
X13994079Y-10678079D01*
X13994079Y-10749921D01*
X14065921Y-10749921D01*
X14080800Y-10714000D02*
G75*
G03*
X14080800Y-10714000I-50800J0D01*
G01*
X14065921Y-11003921D02*
X14065921Y-10932079D01*
X13994079Y-10932079D01*
X13994079Y-11003921D01*
X14065921Y-11003921D01*
X14080800Y-10968000D02*
G75*
G03*
X14080800Y-10968000I-50800J0D01*
G01*
X14319921Y-10114921D02*
X14319921Y-10043079D01*
X14248079Y-10043079D01*
X14248079Y-10114921D01*
X14319921Y-10114921D01*
X14334800Y-10079000D02*
G75*
G03*
X14334800Y-10079000I-50800J0D01*
G01*
X14573921Y-10114921D02*
X14573921Y-10043079D01*
X14502079Y-10043079D01*
X14502079Y-10114921D01*
X14573921Y-10114921D01*
X14588800Y-10079000D02*
G75*
G03*
X14588800Y-10079000I-50800J0D01*
G01*
X14827921Y-10114921D02*
X14827921Y-10043079D01*
X14756079Y-10043079D01*
X14756079Y-10114921D01*
X14827921Y-10114921D01*
X14842800Y-10079000D02*
G75*
G03*
X14842800Y-10079000I-50800J0D01*
G01*
X18462921Y-6304921D02*
X18462921Y-6233079D01*
X18391079Y-6233079D01*
X18391079Y-6304921D01*
X18462921Y-6304921D01*
X18477800Y-6269000D02*
G75*
G03*
X18477800Y-6269000I-50800J0D01*
G01*
X18462921Y-6558921D02*
X18462921Y-6487079D01*
X18391079Y-6487079D01*
X18391079Y-6558921D01*
X18462921Y-6558921D01*
X18477800Y-6523000D02*
G75*
G03*
X18477800Y-6523000I-50800J0D01*
G01*
X18462921Y-6812921D02*
X18462921Y-6741079D01*
X18391079Y-6741079D01*
X18391079Y-6812921D01*
X18462921Y-6812921D01*
X18477800Y-6777000D02*
G75*
G03*
X18477800Y-6777000I-50800J0D01*
G01*
X18462921Y-7066921D02*
X18462921Y-6995079D01*
X18391079Y-6995079D01*
X18391079Y-7066921D01*
X18462921Y-7066921D01*
X18477800Y-7031000D02*
G75*
G03*
X18477800Y-7031000I-50800J0D01*
G01*
X18462921Y-7320921D02*
X18462921Y-7249079D01*
X18391079Y-7249079D01*
X18391079Y-7320921D01*
X18462921Y-7320921D01*
X18477800Y-7285000D02*
G75*
G03*
X18477800Y-7285000I-50800J0D01*
G01*
X18462921Y-7574921D02*
X18462921Y-7503079D01*
X18391079Y-7503079D01*
X18391079Y-7574921D01*
X18462921Y-7574921D01*
X18477800Y-7539000D02*
G75*
G03*
X18477800Y-7539000I-50800J0D01*
G01*
X18462921Y-7828921D02*
X18462921Y-7757079D01*
X18391079Y-7757079D01*
X18391079Y-7828921D01*
X18462921Y-7828921D01*
X18477800Y-7793000D02*
G75*
G03*
X18477800Y-7793000I-50800J0D01*
G01*
X18462921Y-8082921D02*
X18462921Y-8011079D01*
X18391079Y-8011079D01*
X18391079Y-8082921D01*
X18462921Y-8082921D01*
X18477800Y-8047000D02*
G75*
G03*
X18477800Y-8047000I-50800J0D01*
G01*
X18462921Y-8336921D02*
X18462921Y-8265079D01*
X18391079Y-8265079D01*
X18391079Y-8336921D01*
X18462921Y-8336921D01*
X18477800Y-8301000D02*
G75*
G03*
X18477800Y-8301000I-50800J0D01*
G01*
X18462921Y-8590921D02*
X18462921Y-8519079D01*
X18391079Y-8519079D01*
X18391079Y-8590921D01*
X18462921Y-8590921D01*
X18477800Y-8555000D02*
G75*
G03*
X18477800Y-8555000I-50800J0D01*
G01*
X18462921Y-8844921D02*
X18462921Y-8773079D01*
X18391079Y-8773079D01*
X18391079Y-8844921D01*
X18462921Y-8844921D01*
X18477800Y-8809000D02*
G75*
G03*
X18477800Y-8809000I-50800J0D01*
G01*
X18462921Y-9098921D02*
X18462921Y-9027079D01*
X18391079Y-9027079D01*
X18391079Y-9098921D01*
X18462921Y-9098921D01*
X18477800Y-9063000D02*
G75*
G03*
X18477800Y-9063000I-50800J0D01*
G01*
X18462921Y-9352921D02*
X18462921Y-9281079D01*
X18391079Y-9281079D01*
X18391079Y-9352921D01*
X18462921Y-9352921D01*
X18477800Y-9317000D02*
G75*
G03*
X18477800Y-9317000I-50800J0D01*
G01*
X18462921Y-9606921D02*
X18462921Y-9535079D01*
X18391079Y-9535079D01*
X18391079Y-9606921D01*
X18462921Y-9606921D01*
X18477800Y-9571000D02*
G75*
G03*
X18477800Y-9571000I-50800J0D01*
G01*
X18462921Y-9860921D02*
X18462921Y-9789079D01*
X18391079Y-9789079D01*
X18391079Y-9860921D01*
X18462921Y-9860921D01*
X18477800Y-9825000D02*
G75*
G03*
X18477800Y-9825000I-50800J0D01*
G01*
X18462921Y-10114921D02*
X18462921Y-10043079D01*
X18391079Y-10043079D01*
X18391079Y-10114921D01*
X18462921Y-10114921D01*
X18477800Y-10079000D02*
G75*
G03*
X18477800Y-10079000I-50800J0D01*
G01*
X18462921Y-10368921D02*
X18462921Y-10297079D01*
X18391079Y-10297079D01*
X18391079Y-10368921D01*
X18462921Y-10368921D01*
X18477800Y-10333000D02*
G75*
G03*
X18477800Y-10333000I-50800J0D01*
G01*
X18462921Y-10622921D02*
X18462921Y-10551079D01*
X18391079Y-10551079D01*
X18391079Y-10622921D01*
X18462921Y-10622921D01*
X18477800Y-10587000D02*
G75*
G03*
X18477800Y-10587000I-50800J0D01*
G01*
X18462921Y-10876921D02*
X18462921Y-10805079D01*
X18391079Y-10805079D01*
X18391079Y-10876921D01*
X18462921Y-10876921D01*
X18477800Y-10841000D02*
G75*
G03*
X18477800Y-10841000I-50800J0D01*
G01*
X18462921Y-11130921D02*
X18462921Y-11059079D01*
X18391079Y-11059079D01*
X18391079Y-11130921D01*
X18462921Y-11130921D01*
X18477800Y-11095000D02*
G75*
G03*
X18477800Y-11095000I-50800J0D01*
G01*
X18716921Y-6304921D02*
X18716921Y-6233079D01*
X18645079Y-6233079D01*
X18645079Y-6304921D01*
X18716921Y-6304921D01*
X18731800Y-6269000D02*
G75*
G03*
X18731800Y-6269000I-50800J0D01*
G01*
X18716921Y-6558921D02*
X18716921Y-6487079D01*
X18645079Y-6487079D01*
X18645079Y-6558921D01*
X18716921Y-6558921D01*
X18731800Y-6523000D02*
G75*
G03*
X18731800Y-6523000I-50800J0D01*
G01*
X18716921Y-6812921D02*
X18716921Y-6741079D01*
X18645079Y-6741079D01*
X18645079Y-6812921D01*
X18716921Y-6812921D01*
X18731800Y-6777000D02*
G75*
G03*
X18731800Y-6777000I-50800J0D01*
G01*
X18716921Y-7066921D02*
X18716921Y-6995079D01*
X18645079Y-6995079D01*
X18645079Y-7066921D01*
X18716921Y-7066921D01*
X18731800Y-7031000D02*
G75*
G03*
X18731800Y-7031000I-50800J0D01*
G01*
X18716921Y-7320921D02*
X18716921Y-7249079D01*
X18645079Y-7249079D01*
X18645079Y-7320921D01*
X18716921Y-7320921D01*
X18731800Y-7285000D02*
G75*
G03*
X18731800Y-7285000I-50800J0D01*
G01*
X18716921Y-7574921D02*
X18716921Y-7503079D01*
X18645079Y-7503079D01*
X18645079Y-7574921D01*
X18716921Y-7574921D01*
X18731800Y-7539000D02*
G75*
G03*
X18731800Y-7539000I-50800J0D01*
G01*
X18716921Y-7828921D02*
X18716921Y-7757079D01*
X18645079Y-7757079D01*
X18645079Y-7828921D01*
X18716921Y-7828921D01*
X18731800Y-7793000D02*
G75*
G03*
X18731800Y-7793000I-50800J0D01*
G01*
X18716921Y-8082921D02*
X18716921Y-8011079D01*
X18645079Y-8011079D01*
X18645079Y-8082921D01*
X18716921Y-8082921D01*
X18731800Y-8047000D02*
G75*
G03*
X18731800Y-8047000I-50800J0D01*
G01*
X18716921Y-8336921D02*
X18716921Y-8265079D01*
X18645079Y-8265079D01*
X18645079Y-8336921D01*
X18716921Y-8336921D01*
X18731800Y-8301000D02*
G75*
G03*
X18731800Y-8301000I-50800J0D01*
G01*
X18716921Y-8590921D02*
X18716921Y-8519079D01*
X18645079Y-8519079D01*
X18645079Y-8590921D01*
X18716921Y-8590921D01*
X18731800Y-8555000D02*
G75*
G03*
X18731800Y-8555000I-50800J0D01*
G01*
X18716921Y-8844921D02*
X18716921Y-8773079D01*
X18645079Y-8773079D01*
X18645079Y-8844921D01*
X18716921Y-8844921D01*
X18731800Y-8809000D02*
G75*
G03*
X18731800Y-8809000I-50800J0D01*
G01*
X18716921Y-9098921D02*
X18716921Y-9027079D01*
X18645079Y-9027079D01*
X18645079Y-9098921D01*
X18716921Y-9098921D01*
X18731800Y-9063000D02*
G75*
G03*
X18731800Y-9063000I-50800J0D01*
G01*
X18716921Y-9352921D02*
X18716921Y-9281079D01*
X18645079Y-9281079D01*
X18645079Y-9352921D01*
X18716921Y-9352921D01*
X18731800Y-9317000D02*
G75*
G03*
X18731800Y-9317000I-50800J0D01*
G01*
X18716921Y-9606921D02*
X18716921Y-9535079D01*
X18645079Y-9535079D01*
X18645079Y-9606921D01*
X18716921Y-9606921D01*
X18731800Y-9571000D02*
G75*
G03*
X18731800Y-9571000I-50800J0D01*
G01*
X18716921Y-9860921D02*
X18716921Y-9789079D01*
X18645079Y-9789079D01*
X18645079Y-9860921D01*
X18716921Y-9860921D01*
X18731800Y-9825000D02*
G75*
G03*
X18731800Y-9825000I-50800J0D01*
G01*
X18716921Y-10114921D02*
X18716921Y-10043079D01*
X18645079Y-10043079D01*
X18645079Y-10114921D01*
X18716921Y-10114921D01*
X18731800Y-10079000D02*
G75*
G03*
X18731800Y-10079000I-50800J0D01*
G01*
X18716921Y-10368921D02*
X18716921Y-10297079D01*
X18645079Y-10297079D01*
X18645079Y-10368921D01*
X18716921Y-10368921D01*
X18731800Y-10333000D02*
G75*
G03*
X18731800Y-10333000I-50800J0D01*
G01*
X18716921Y-10622921D02*
X18716921Y-10551079D01*
X18645079Y-10551079D01*
X18645079Y-10622921D01*
X18716921Y-10622921D01*
X18731800Y-10587000D02*
G75*
G03*
X18731800Y-10587000I-50800J0D01*
G01*
X18716921Y-10876921D02*
X18716921Y-10805079D01*
X18645079Y-10805079D01*
X18645079Y-10876921D01*
X18716921Y-10876921D01*
X18731800Y-10841000D02*
G75*
G03*
X18731800Y-10841000I-50800J0D01*
G01*
X18716921Y-11130921D02*
X18716921Y-11059079D01*
X18645079Y-11059079D01*
X18645079Y-11130921D01*
X18716921Y-11130921D01*
X18731800Y-11095000D02*
G75*
G03*
X18731800Y-11095000I-50800J0D01*
G01*
D22*
X13744600Y-6506200D02*
X13809600Y-6441200D01*
X13744600Y-6376200D01*
X13679600Y-6441200D01*
X13744600Y-6506200D01*
X13809600Y-6441200D02*
G75*
G03*
X13809600Y-6441200I-65000J0D01*
G01*
X13804600Y-6996200D02*
X13869600Y-6931200D01*
X13804600Y-6866200D01*
X13739600Y-6931200D01*
X13804600Y-6996200D01*
X13869600Y-6931200D02*
G75*
G03*
X13869600Y-6931200I-65000J0D01*
G01*
X15254600Y-6996200D02*
X15319600Y-6931200D01*
X15254600Y-6866200D01*
X15189600Y-6931200D01*
X15254600Y-6996200D01*
X15319600Y-6931200D02*
G75*
G03*
X15319600Y-6931200I-65000J0D01*
G01*
X15314600Y-6506200D02*
X15379600Y-6441200D01*
X15314600Y-6376200D01*
X15249600Y-6441200D01*
X15314600Y-6506200D01*
X15379600Y-6441200D02*
G75*
G03*
X15379600Y-6441200I-65000J0D01*
G01*
D23*
X10299000Y-6363000D02*
X10299000Y-6683000D01*
X10139000Y-6523000D02*
X10459000Y-6523000D01*
X10412138Y-6636138D02*
X10412138Y-6409862D01*
X10185862Y-6409862D01*
X10185862Y-6636138D01*
X10412138Y-6636138D01*
X10299000Y-10681000D02*
X10299000Y-11001000D01*
X10139000Y-10841000D02*
X10459000Y-10841000D01*
X10412138Y-10954138D02*
X10412138Y-10727862D01*
X10185862Y-10727862D01*
X10185862Y-10954138D01*
X10412138Y-10954138D01*
X17919000Y-6363000D02*
X17919000Y-6683000D01*
X17759000Y-6523000D02*
X18079000Y-6523000D01*
X18032138Y-6636138D02*
X18032138Y-6409862D01*
X17805862Y-6409862D01*
X17805862Y-6636138D01*
X18032138Y-6636138D01*
X17919000Y-10681000D02*
X17919000Y-11001000D01*
X17759000Y-10841000D02*
X18079000Y-10841000D01*
X18032138Y-10954138D02*
X18032138Y-10727862D01*
X17805862Y-10727862D01*
X17805862Y-10954138D01*
X18032138Y-10954138D01*
D11*
X9652619Y-11547476D02*
X9652619Y-11347476D01*
X9700238Y-11347476D01*
X9728810Y-11357000D01*
X9747857Y-11376048D01*
X9757381Y-11395095D01*
X9766905Y-11433190D01*
X9766905Y-11461762D01*
X9757381Y-11499857D01*
X9747857Y-11518905D01*
X9728810Y-11537952D01*
X9700238Y-11547476D01*
X9652619Y-11547476D01*
X9852619Y-11547476D02*
X9852619Y-11414143D01*
X9852619Y-11452238D02*
X9862143Y-11433190D01*
X9871667Y-11423667D01*
X9890714Y-11414143D01*
X9909762Y-11414143D01*
X9976429Y-11547476D02*
X9976429Y-11414143D01*
X9976429Y-11347476D02*
X9966905Y-11357000D01*
X9976429Y-11366524D01*
X9985952Y-11357000D01*
X9976429Y-11347476D01*
X9976429Y-11366524D01*
X10100238Y-11547476D02*
X10081190Y-11537952D01*
X10071667Y-11518905D01*
X10071667Y-11347476D01*
X10205000Y-11547476D02*
X10185952Y-11537952D01*
X10176429Y-11518905D01*
X10176429Y-11347476D01*
X10433571Y-11547476D02*
X10433571Y-11347476D01*
X10500238Y-11490333D01*
X10566905Y-11347476D01*
X10566905Y-11547476D01*
X10747857Y-11547476D02*
X10747857Y-11442714D01*
X10738333Y-11423667D01*
X10719286Y-11414143D01*
X10681190Y-11414143D01*
X10662143Y-11423667D01*
X10747857Y-11537952D02*
X10728810Y-11547476D01*
X10681190Y-11547476D01*
X10662143Y-11537952D01*
X10652619Y-11518905D01*
X10652619Y-11499857D01*
X10662143Y-11480809D01*
X10681190Y-11471286D01*
X10728810Y-11471286D01*
X10747857Y-11461762D01*
X10843095Y-11414143D02*
X10843095Y-11614143D01*
X10843095Y-11423667D02*
X10862143Y-11414143D01*
X10900238Y-11414143D01*
X10919286Y-11423667D01*
X10928810Y-11433190D01*
X10938333Y-11452238D01*
X10938333Y-11509381D01*
X10928810Y-11528428D01*
X10919286Y-11537952D01*
X10900238Y-11547476D01*
X10862143Y-11547476D01*
X10843095Y-11537952D01*
X11024048Y-11528428D02*
X11033571Y-11537952D01*
X11024048Y-11547476D01*
X11014524Y-11537952D01*
X11024048Y-11528428D01*
X11024048Y-11547476D01*
X11024048Y-11423667D02*
X11033571Y-11433190D01*
X11024048Y-11442714D01*
X11014524Y-11433190D01*
X11024048Y-11423667D01*
X11024048Y-11442714D01*
D12*
X9375000Y-11867000D02*
X9395000Y-11887000D01*
X9395000Y-11867000D02*
X9375000Y-11887000D01*
D11*
X9690714Y-11767476D02*
X9709762Y-11767476D01*
X9728810Y-11777000D01*
X9738333Y-11786524D01*
X9747857Y-11805571D01*
X9757381Y-11843667D01*
X9757381Y-11891286D01*
X9747857Y-11929381D01*
X9738333Y-11948428D01*
X9728810Y-11957952D01*
X9709762Y-11967476D01*
X9690714Y-11967476D01*
X9671667Y-11957952D01*
X9662143Y-11948428D01*
X9652619Y-11929381D01*
X9643095Y-11891286D01*
X9643095Y-11843667D01*
X9652619Y-11805571D01*
X9662143Y-11786524D01*
X9671667Y-11777000D01*
X9690714Y-11767476D01*
X9843095Y-11948428D02*
X9852619Y-11957952D01*
X9843095Y-11967476D01*
X9833571Y-11957952D01*
X9843095Y-11948428D01*
X9843095Y-11967476D01*
X9928810Y-11786524D02*
X9938333Y-11777000D01*
X9957381Y-11767476D01*
X10005000Y-11767476D01*
X10024048Y-11777000D01*
X10033571Y-11786524D01*
X10043095Y-11805571D01*
X10043095Y-11824619D01*
X10033571Y-11853190D01*
X9919286Y-11967476D01*
X10043095Y-11967476D01*
X10166905Y-11767476D02*
X10185952Y-11767476D01*
X10205000Y-11777000D01*
X10214524Y-11786524D01*
X10224048Y-11805571D01*
X10233571Y-11843667D01*
X10233571Y-11891286D01*
X10224048Y-11929381D01*
X10214524Y-11948428D01*
X10205000Y-11957952D01*
X10185952Y-11967476D01*
X10166905Y-11967476D01*
X10147857Y-11957952D01*
X10138333Y-11948428D01*
X10128810Y-11929381D01*
X10119286Y-11891286D01*
X10119286Y-11843667D01*
X10128810Y-11805571D01*
X10138333Y-11786524D01*
X10147857Y-11777000D01*
X10166905Y-11767476D01*
X10357381Y-11767476D02*
X10376429Y-11767476D01*
X10395476Y-11777000D01*
X10405000Y-11786524D01*
X10414524Y-11805571D01*
X10424048Y-11843667D01*
X10424048Y-11891286D01*
X10414524Y-11929381D01*
X10405000Y-11948428D01*
X10395476Y-11957952D01*
X10376429Y-11967476D01*
X10357381Y-11967476D01*
X10338333Y-11957952D01*
X10328810Y-11948428D01*
X10319286Y-11929381D01*
X10309762Y-11891286D01*
X10309762Y-11843667D01*
X10319286Y-11805571D01*
X10328810Y-11786524D01*
X10338333Y-11777000D01*
X10357381Y-11767476D01*
X10509762Y-11967476D02*
X10509762Y-11834143D01*
X10509762Y-11853190D02*
X10519286Y-11843667D01*
X10538333Y-11834143D01*
X10566905Y-11834143D01*
X10585952Y-11843667D01*
X10595476Y-11862714D01*
X10595476Y-11967476D01*
X10595476Y-11862714D02*
X10605000Y-11843667D01*
X10624048Y-11834143D01*
X10652619Y-11834143D01*
X10671667Y-11843667D01*
X10681190Y-11862714D01*
X10681190Y-11967476D01*
X10776429Y-11967476D02*
X10776429Y-11834143D01*
X10776429Y-11853190D02*
X10785952Y-11843667D01*
X10805000Y-11834143D01*
X10833571Y-11834143D01*
X10852619Y-11843667D01*
X10862143Y-11862714D01*
X10862143Y-11967476D01*
X10862143Y-11862714D02*
X10871667Y-11843667D01*
X10890714Y-11834143D01*
X10919286Y-11834143D01*
X10938333Y-11843667D01*
X10947857Y-11862714D01*
X10947857Y-11967476D01*
X11338333Y-11757952D02*
X11166905Y-12015095D01*
X11595476Y-11767476D02*
X11614524Y-11767476D01*
X11633571Y-11777000D01*
X11643095Y-11786524D01*
X11652619Y-11805571D01*
X11662143Y-11843667D01*
X11662143Y-11891286D01*
X11652619Y-11929381D01*
X11643095Y-11948428D01*
X11633571Y-11957952D01*
X11614524Y-11967476D01*
X11595476Y-11967476D01*
X11576428Y-11957952D01*
X11566905Y-11948428D01*
X11557381Y-11929381D01*
X11547857Y-11891286D01*
X11547857Y-11843667D01*
X11557381Y-11805571D01*
X11566905Y-11786524D01*
X11576428Y-11777000D01*
X11595476Y-11767476D01*
X11747857Y-11948428D02*
X11757381Y-11957952D01*
X11747857Y-11967476D01*
X11738333Y-11957952D01*
X11747857Y-11948428D01*
X11747857Y-11967476D01*
X11881190Y-11767476D02*
X11900238Y-11767476D01*
X11919286Y-11777000D01*
X11928809Y-11786524D01*
X11938333Y-11805571D01*
X11947857Y-11843667D01*
X11947857Y-11891286D01*
X11938333Y-11929381D01*
X11928809Y-11948428D01*
X11919286Y-11957952D01*
X11900238Y-11967476D01*
X11881190Y-11967476D01*
X11862143Y-11957952D01*
X11852619Y-11948428D01*
X11843095Y-11929381D01*
X11833571Y-11891286D01*
X11833571Y-11843667D01*
X11843095Y-11805571D01*
X11852619Y-11786524D01*
X11862143Y-11777000D01*
X11881190Y-11767476D01*
X12071667Y-11767476D02*
X12090714Y-11767476D01*
X12109762Y-11777000D01*
X12119286Y-11786524D01*
X12128809Y-11805571D01*
X12138333Y-11843667D01*
X12138333Y-11891286D01*
X12128809Y-11929381D01*
X12119286Y-11948428D01*
X12109762Y-11957952D01*
X12090714Y-11967476D01*
X12071667Y-11967476D01*
X12052619Y-11957952D01*
X12043095Y-11948428D01*
X12033571Y-11929381D01*
X12024048Y-11891286D01*
X12024048Y-11843667D01*
X12033571Y-11805571D01*
X12043095Y-11786524D01*
X12052619Y-11777000D01*
X12071667Y-11767476D01*
X12205000Y-11767476D02*
X12338333Y-11767476D01*
X12252619Y-11967476D01*
X12424048Y-11967476D02*
X12462143Y-11967476D01*
X12481190Y-11957952D01*
X12490714Y-11948428D01*
X12509762Y-11919857D01*
X12519286Y-11881762D01*
X12519286Y-11805571D01*
X12509762Y-11786524D01*
X12500238Y-11777000D01*
X12481190Y-11767476D01*
X12443095Y-11767476D01*
X12424048Y-11777000D01*
X12414524Y-11786524D01*
X12405000Y-11805571D01*
X12405000Y-11853190D01*
X12414524Y-11872238D01*
X12424048Y-11881762D01*
X12443095Y-11891286D01*
X12481190Y-11891286D01*
X12500238Y-11881762D01*
X12509762Y-11872238D01*
X12519286Y-11853190D01*
X12595476Y-11767476D02*
X12595476Y-11805571D01*
X12671667Y-11767476D02*
X12671667Y-11805571D01*
X12966905Y-12043667D02*
X12957381Y-12034143D01*
X12938333Y-12005571D01*
X12928809Y-11986524D01*
X12919286Y-11957952D01*
X12909762Y-11910333D01*
X12909762Y-11872238D01*
X12919286Y-11824619D01*
X12928809Y-11796048D01*
X12938333Y-11777000D01*
X12957381Y-11748428D01*
X12966905Y-11738905D01*
X13138333Y-11767476D02*
X13043095Y-11767476D01*
X13033571Y-11862714D01*
X13043095Y-11853190D01*
X13062143Y-11843667D01*
X13109762Y-11843667D01*
X13128809Y-11853190D01*
X13138333Y-11862714D01*
X13147857Y-11881762D01*
X13147857Y-11929381D01*
X13138333Y-11948428D01*
X13128809Y-11957952D01*
X13109762Y-11967476D01*
X13062143Y-11967476D01*
X13043095Y-11957952D01*
X13033571Y-11948428D01*
X13214524Y-11767476D02*
X13347857Y-11767476D01*
X13262143Y-11967476D01*
X13509762Y-11767476D02*
X13471667Y-11767476D01*
X13452619Y-11777000D01*
X13443095Y-11786524D01*
X13424048Y-11815095D01*
X13414524Y-11853190D01*
X13414524Y-11929381D01*
X13424048Y-11948428D01*
X13433571Y-11957952D01*
X13452619Y-11967476D01*
X13490714Y-11967476D01*
X13509762Y-11957952D01*
X13519286Y-11948428D01*
X13528809Y-11929381D01*
X13528809Y-11881762D01*
X13519286Y-11862714D01*
X13509762Y-11853190D01*
X13490714Y-11843667D01*
X13452619Y-11843667D01*
X13433571Y-11853190D01*
X13424048Y-11862714D01*
X13414524Y-11881762D01*
X13766905Y-11967476D02*
X13766905Y-11767476D01*
X13852619Y-11967476D02*
X13852619Y-11862714D01*
X13843095Y-11843667D01*
X13824048Y-11834143D01*
X13795476Y-11834143D01*
X13776428Y-11843667D01*
X13766905Y-11853190D01*
X13976428Y-11967476D02*
X13957381Y-11957952D01*
X13947857Y-11948428D01*
X13938333Y-11929381D01*
X13938333Y-11872238D01*
X13947857Y-11853190D01*
X13957381Y-11843667D01*
X13976428Y-11834143D01*
X14005000Y-11834143D01*
X14024048Y-11843667D01*
X14033571Y-11853190D01*
X14043095Y-11872238D01*
X14043095Y-11929381D01*
X14033571Y-11948428D01*
X14024048Y-11957952D01*
X14005000Y-11967476D01*
X13976428Y-11967476D01*
X14157381Y-11967476D02*
X14138333Y-11957952D01*
X14128809Y-11938905D01*
X14128809Y-11767476D01*
X14309762Y-11957952D02*
X14290714Y-11967476D01*
X14252619Y-11967476D01*
X14233571Y-11957952D01*
X14224048Y-11938905D01*
X14224048Y-11862714D01*
X14233571Y-11843667D01*
X14252619Y-11834143D01*
X14290714Y-11834143D01*
X14309762Y-11843667D01*
X14319286Y-11862714D01*
X14319286Y-11881762D01*
X14224048Y-11900809D01*
X14395476Y-11957952D02*
X14414524Y-11967476D01*
X14452619Y-11967476D01*
X14471667Y-11957952D01*
X14481190Y-11938905D01*
X14481190Y-11929381D01*
X14471667Y-11910333D01*
X14452619Y-11900809D01*
X14424048Y-11900809D01*
X14405000Y-11891286D01*
X14395476Y-11872238D01*
X14395476Y-11862714D01*
X14405000Y-11843667D01*
X14424048Y-11834143D01*
X14452619Y-11834143D01*
X14471667Y-11843667D01*
X14547857Y-12043667D02*
X14557381Y-12034143D01*
X14576428Y-12005571D01*
X14585952Y-11986524D01*
X14595476Y-11957952D01*
X14605000Y-11910333D01*
X14605000Y-11872238D01*
X14595476Y-11824619D01*
X14585952Y-11796048D01*
X14576428Y-11777000D01*
X14557381Y-11748428D01*
X14547857Y-11738905D01*
D13*
X9395000Y-12141000D02*
G75*
G03*
X9395000Y-12141000I-12500J0D01*
G01*
D11*
X9690714Y-12031476D02*
X9709762Y-12031476D01*
X9728810Y-12041000D01*
X9738333Y-12050524D01*
X9747857Y-12069571D01*
X9757381Y-12107667D01*
X9757381Y-12155286D01*
X9747857Y-12193381D01*
X9738333Y-12212428D01*
X9728810Y-12221952D01*
X9709762Y-12231476D01*
X9690714Y-12231476D01*
X9671667Y-12221952D01*
X9662143Y-12212428D01*
X9652619Y-12193381D01*
X9643095Y-12155286D01*
X9643095Y-12107667D01*
X9652619Y-12069571D01*
X9662143Y-12050524D01*
X9671667Y-12041000D01*
X9690714Y-12031476D01*
X9843095Y-12212428D02*
X9852619Y-12221952D01*
X9843095Y-12231476D01*
X9833571Y-12221952D01*
X9843095Y-12212428D01*
X9843095Y-12231476D01*
X9928810Y-12050524D02*
X9938333Y-12041000D01*
X9957381Y-12031476D01*
X10005000Y-12031476D01*
X10024048Y-12041000D01*
X10033571Y-12050524D01*
X10043095Y-12069571D01*
X10043095Y-12088619D01*
X10033571Y-12117190D01*
X9919286Y-12231476D01*
X10043095Y-12231476D01*
X10224048Y-12031476D02*
X10128810Y-12031476D01*
X10119286Y-12126714D01*
X10128810Y-12117190D01*
X10147857Y-12107667D01*
X10195476Y-12107667D01*
X10214524Y-12117190D01*
X10224048Y-12126714D01*
X10233571Y-12145762D01*
X10233571Y-12193381D01*
X10224048Y-12212428D01*
X10214524Y-12221952D01*
X10195476Y-12231476D01*
X10147857Y-12231476D01*
X10128810Y-12221952D01*
X10119286Y-12212428D01*
X10357381Y-12031476D02*
X10376429Y-12031476D01*
X10395476Y-12041000D01*
X10405000Y-12050524D01*
X10414524Y-12069571D01*
X10424048Y-12107667D01*
X10424048Y-12155286D01*
X10414524Y-12193381D01*
X10405000Y-12212428D01*
X10395476Y-12221952D01*
X10376429Y-12231476D01*
X10357381Y-12231476D01*
X10338333Y-12221952D01*
X10328810Y-12212428D01*
X10319286Y-12193381D01*
X10309762Y-12155286D01*
X10309762Y-12107667D01*
X10319286Y-12069571D01*
X10328810Y-12050524D01*
X10338333Y-12041000D01*
X10357381Y-12031476D01*
X10509762Y-12231476D02*
X10509762Y-12098143D01*
X10509762Y-12117190D02*
X10519286Y-12107667D01*
X10538333Y-12098143D01*
X10566905Y-12098143D01*
X10585952Y-12107667D01*
X10595476Y-12126714D01*
X10595476Y-12231476D01*
X10595476Y-12126714D02*
X10605000Y-12107667D01*
X10624048Y-12098143D01*
X10652619Y-12098143D01*
X10671667Y-12107667D01*
X10681190Y-12126714D01*
X10681190Y-12231476D01*
X10776429Y-12231476D02*
X10776429Y-12098143D01*
X10776429Y-12117190D02*
X10785952Y-12107667D01*
X10805000Y-12098143D01*
X10833571Y-12098143D01*
X10852619Y-12107667D01*
X10862143Y-12126714D01*
X10862143Y-12231476D01*
X10862143Y-12126714D02*
X10871667Y-12107667D01*
X10890714Y-12098143D01*
X10919286Y-12098143D01*
X10938333Y-12107667D01*
X10947857Y-12126714D01*
X10947857Y-12231476D01*
X11338333Y-12021952D02*
X11166905Y-12279095D01*
X11595476Y-12031476D02*
X11614524Y-12031476D01*
X11633571Y-12041000D01*
X11643095Y-12050524D01*
X11652619Y-12069571D01*
X11662143Y-12107667D01*
X11662143Y-12155286D01*
X11652619Y-12193381D01*
X11643095Y-12212428D01*
X11633571Y-12221952D01*
X11614524Y-12231476D01*
X11595476Y-12231476D01*
X11576428Y-12221952D01*
X11566905Y-12212428D01*
X11557381Y-12193381D01*
X11547857Y-12155286D01*
X11547857Y-12107667D01*
X11557381Y-12069571D01*
X11566905Y-12050524D01*
X11576428Y-12041000D01*
X11595476Y-12031476D01*
X11747857Y-12212428D02*
X11757381Y-12221952D01*
X11747857Y-12231476D01*
X11738333Y-12221952D01*
X11747857Y-12212428D01*
X11747857Y-12231476D01*
X11881190Y-12031476D02*
X11900238Y-12031476D01*
X11919286Y-12041000D01*
X11928809Y-12050524D01*
X11938333Y-12069571D01*
X11947857Y-12107667D01*
X11947857Y-12155286D01*
X11938333Y-12193381D01*
X11928809Y-12212428D01*
X11919286Y-12221952D01*
X11900238Y-12231476D01*
X11881190Y-12231476D01*
X11862143Y-12221952D01*
X11852619Y-12212428D01*
X11843095Y-12193381D01*
X11833571Y-12155286D01*
X11833571Y-12107667D01*
X11843095Y-12069571D01*
X11852619Y-12050524D01*
X11862143Y-12041000D01*
X11881190Y-12031476D01*
X12071667Y-12031476D02*
X12090714Y-12031476D01*
X12109762Y-12041000D01*
X12119286Y-12050524D01*
X12128809Y-12069571D01*
X12138333Y-12107667D01*
X12138333Y-12155286D01*
X12128809Y-12193381D01*
X12119286Y-12212428D01*
X12109762Y-12221952D01*
X12090714Y-12231476D01*
X12071667Y-12231476D01*
X12052619Y-12221952D01*
X12043095Y-12212428D01*
X12033571Y-12193381D01*
X12024048Y-12155286D01*
X12024048Y-12107667D01*
X12033571Y-12069571D01*
X12043095Y-12050524D01*
X12052619Y-12041000D01*
X12071667Y-12031476D01*
X12233571Y-12231476D02*
X12271667Y-12231476D01*
X12290714Y-12221952D01*
X12300238Y-12212428D01*
X12319286Y-12183857D01*
X12328809Y-12145762D01*
X12328809Y-12069571D01*
X12319286Y-12050524D01*
X12309762Y-12041000D01*
X12290714Y-12031476D01*
X12252619Y-12031476D01*
X12233571Y-12041000D01*
X12224048Y-12050524D01*
X12214524Y-12069571D01*
X12214524Y-12117190D01*
X12224048Y-12136238D01*
X12233571Y-12145762D01*
X12252619Y-12155286D01*
X12290714Y-12155286D01*
X12309762Y-12145762D01*
X12319286Y-12136238D01*
X12328809Y-12117190D01*
X12443095Y-12117190D02*
X12424048Y-12107667D01*
X12414524Y-12098143D01*
X12405000Y-12079095D01*
X12405000Y-12069571D01*
X12414524Y-12050524D01*
X12424048Y-12041000D01*
X12443095Y-12031476D01*
X12481190Y-12031476D01*
X12500238Y-12041000D01*
X12509762Y-12050524D01*
X12519286Y-12069571D01*
X12519286Y-12079095D01*
X12509762Y-12098143D01*
X12500238Y-12107667D01*
X12481190Y-12117190D01*
X12443095Y-12117190D01*
X12424048Y-12126714D01*
X12414524Y-12136238D01*
X12405000Y-12155286D01*
X12405000Y-12193381D01*
X12414524Y-12212428D01*
X12424048Y-12221952D01*
X12443095Y-12231476D01*
X12481190Y-12231476D01*
X12500238Y-12221952D01*
X12509762Y-12212428D01*
X12519286Y-12193381D01*
X12519286Y-12155286D01*
X12509762Y-12136238D01*
X12500238Y-12126714D01*
X12481190Y-12117190D01*
X12595476Y-12031476D02*
X12595476Y-12069571D01*
X12671667Y-12031476D02*
X12671667Y-12069571D01*
X12966905Y-12307667D02*
X12957381Y-12298143D01*
X12938333Y-12269571D01*
X12928809Y-12250524D01*
X12919286Y-12221952D01*
X12909762Y-12174333D01*
X12909762Y-12136238D01*
X12919286Y-12088619D01*
X12928809Y-12060048D01*
X12938333Y-12041000D01*
X12957381Y-12012428D01*
X12966905Y-12002905D01*
X13138333Y-12031476D02*
X13043095Y-12031476D01*
X13033571Y-12126714D01*
X13043095Y-12117190D01*
X13062143Y-12107667D01*
X13109762Y-12107667D01*
X13128809Y-12117190D01*
X13138333Y-12126714D01*
X13147857Y-12145762D01*
X13147857Y-12193381D01*
X13138333Y-12212428D01*
X13128809Y-12221952D01*
X13109762Y-12231476D01*
X13062143Y-12231476D01*
X13043095Y-12221952D01*
X13033571Y-12212428D01*
X13385952Y-12231476D02*
X13385952Y-12031476D01*
X13471667Y-12231476D02*
X13471667Y-12126714D01*
X13462143Y-12107667D01*
X13443095Y-12098143D01*
X13414524Y-12098143D01*
X13395476Y-12107667D01*
X13385952Y-12117190D01*
X13595476Y-12231476D02*
X13576428Y-12221952D01*
X13566905Y-12212428D01*
X13557381Y-12193381D01*
X13557381Y-12136238D01*
X13566905Y-12117190D01*
X13576428Y-12107667D01*
X13595476Y-12098143D01*
X13624048Y-12098143D01*
X13643095Y-12107667D01*
X13652619Y-12117190D01*
X13662143Y-12136238D01*
X13662143Y-12193381D01*
X13652619Y-12212428D01*
X13643095Y-12221952D01*
X13624048Y-12231476D01*
X13595476Y-12231476D01*
X13776428Y-12231476D02*
X13757381Y-12221952D01*
X13747857Y-12202905D01*
X13747857Y-12031476D01*
X13928809Y-12221952D02*
X13909762Y-12231476D01*
X13871667Y-12231476D01*
X13852619Y-12221952D01*
X13843095Y-12202905D01*
X13843095Y-12126714D01*
X13852619Y-12107667D01*
X13871667Y-12098143D01*
X13909762Y-12098143D01*
X13928809Y-12107667D01*
X13938333Y-12126714D01*
X13938333Y-12145762D01*
X13843095Y-12164809D01*
X14014524Y-12221952D02*
X14033571Y-12231476D01*
X14071667Y-12231476D01*
X14090714Y-12221952D01*
X14100238Y-12202905D01*
X14100238Y-12193381D01*
X14090714Y-12174333D01*
X14071667Y-12164809D01*
X14043095Y-12164809D01*
X14024048Y-12155286D01*
X14014524Y-12136238D01*
X14014524Y-12126714D01*
X14024048Y-12107667D01*
X14043095Y-12098143D01*
X14071667Y-12098143D01*
X14090714Y-12107667D01*
X14166905Y-12307667D02*
X14176428Y-12298143D01*
X14195476Y-12269571D01*
X14205000Y-12250524D01*
X14214524Y-12221952D01*
X14224048Y-12174333D01*
X14224048Y-12136238D01*
X14214524Y-12088619D01*
X14205000Y-12060048D01*
X14195476Y-12041000D01*
X14176428Y-12012428D01*
X14166905Y-12002905D01*
D14*
X9382300Y-12392300D02*
X9382300Y-12417700D01*
X9369600Y-12405000D02*
X9395000Y-12405000D01*
D11*
X9690714Y-12295476D02*
X9709762Y-12295476D01*
X9728810Y-12305000D01*
X9738333Y-12314524D01*
X9747857Y-12333571D01*
X9757381Y-12371667D01*
X9757381Y-12419286D01*
X9747857Y-12457381D01*
X9738333Y-12476428D01*
X9728810Y-12485952D01*
X9709762Y-12495476D01*
X9690714Y-12495476D01*
X9671667Y-12485952D01*
X9662143Y-12476428D01*
X9652619Y-12457381D01*
X9643095Y-12419286D01*
X9643095Y-12371667D01*
X9652619Y-12333571D01*
X9662143Y-12314524D01*
X9671667Y-12305000D01*
X9690714Y-12295476D01*
X9843095Y-12476428D02*
X9852619Y-12485952D01*
X9843095Y-12495476D01*
X9833571Y-12485952D01*
X9843095Y-12476428D01*
X9843095Y-12495476D01*
X9928810Y-12314524D02*
X9938333Y-12305000D01*
X9957381Y-12295476D01*
X10005000Y-12295476D01*
X10024048Y-12305000D01*
X10033571Y-12314524D01*
X10043095Y-12333571D01*
X10043095Y-12352619D01*
X10033571Y-12381190D01*
X9919286Y-12495476D01*
X10043095Y-12495476D01*
X10224048Y-12295476D02*
X10128810Y-12295476D01*
X10119286Y-12390714D01*
X10128810Y-12381190D01*
X10147857Y-12371667D01*
X10195476Y-12371667D01*
X10214524Y-12381190D01*
X10224048Y-12390714D01*
X10233571Y-12409762D01*
X10233571Y-12457381D01*
X10224048Y-12476428D01*
X10214524Y-12485952D01*
X10195476Y-12495476D01*
X10147857Y-12495476D01*
X10128810Y-12485952D01*
X10119286Y-12476428D01*
X10405000Y-12362143D02*
X10405000Y-12495476D01*
X10357381Y-12285952D02*
X10309762Y-12428809D01*
X10433571Y-12428809D01*
X10509762Y-12495476D02*
X10509762Y-12362143D01*
X10509762Y-12381190D02*
X10519286Y-12371667D01*
X10538333Y-12362143D01*
X10566905Y-12362143D01*
X10585952Y-12371667D01*
X10595476Y-12390714D01*
X10595476Y-12495476D01*
X10595476Y-12390714D02*
X10605000Y-12371667D01*
X10624048Y-12362143D01*
X10652619Y-12362143D01*
X10671667Y-12371667D01*
X10681190Y-12390714D01*
X10681190Y-12495476D01*
X10776429Y-12495476D02*
X10776429Y-12362143D01*
X10776429Y-12381190D02*
X10785952Y-12371667D01*
X10805000Y-12362143D01*
X10833571Y-12362143D01*
X10852619Y-12371667D01*
X10862143Y-12390714D01*
X10862143Y-12495476D01*
X10862143Y-12390714D02*
X10871667Y-12371667D01*
X10890714Y-12362143D01*
X10919286Y-12362143D01*
X10938333Y-12371667D01*
X10947857Y-12390714D01*
X10947857Y-12495476D01*
X11338333Y-12285952D02*
X11166905Y-12543095D01*
X11595476Y-12295476D02*
X11614524Y-12295476D01*
X11633571Y-12305000D01*
X11643095Y-12314524D01*
X11652619Y-12333571D01*
X11662143Y-12371667D01*
X11662143Y-12419286D01*
X11652619Y-12457381D01*
X11643095Y-12476428D01*
X11633571Y-12485952D01*
X11614524Y-12495476D01*
X11595476Y-12495476D01*
X11576428Y-12485952D01*
X11566905Y-12476428D01*
X11557381Y-12457381D01*
X11547857Y-12419286D01*
X11547857Y-12371667D01*
X11557381Y-12333571D01*
X11566905Y-12314524D01*
X11576428Y-12305000D01*
X11595476Y-12295476D01*
X11747857Y-12476428D02*
X11757381Y-12485952D01*
X11747857Y-12495476D01*
X11738333Y-12485952D01*
X11747857Y-12476428D01*
X11747857Y-12495476D01*
X11881190Y-12295476D02*
X11900238Y-12295476D01*
X11919286Y-12305000D01*
X11928809Y-12314524D01*
X11938333Y-12333571D01*
X11947857Y-12371667D01*
X11947857Y-12419286D01*
X11938333Y-12457381D01*
X11928809Y-12476428D01*
X11919286Y-12485952D01*
X11900238Y-12495476D01*
X11881190Y-12495476D01*
X11862143Y-12485952D01*
X11852619Y-12476428D01*
X11843095Y-12457381D01*
X11833571Y-12419286D01*
X11833571Y-12371667D01*
X11843095Y-12333571D01*
X11852619Y-12314524D01*
X11862143Y-12305000D01*
X11881190Y-12295476D01*
X12138333Y-12495476D02*
X12024048Y-12495476D01*
X12081190Y-12495476D02*
X12081190Y-12295476D01*
X12062143Y-12324048D01*
X12043095Y-12343095D01*
X12024048Y-12352619D01*
X12262143Y-12295476D02*
X12281190Y-12295476D01*
X12300238Y-12305000D01*
X12309762Y-12314524D01*
X12319286Y-12333571D01*
X12328809Y-12371667D01*
X12328809Y-12419286D01*
X12319286Y-12457381D01*
X12309762Y-12476428D01*
X12300238Y-12485952D01*
X12281190Y-12495476D01*
X12262143Y-12495476D01*
X12243095Y-12485952D01*
X12233571Y-12476428D01*
X12224048Y-12457381D01*
X12214524Y-12419286D01*
X12214524Y-12371667D01*
X12224048Y-12333571D01*
X12233571Y-12314524D01*
X12243095Y-12305000D01*
X12262143Y-12295476D01*
X12452619Y-12295476D02*
X12471667Y-12295476D01*
X12490714Y-12305000D01*
X12500238Y-12314524D01*
X12509762Y-12333571D01*
X12519286Y-12371667D01*
X12519286Y-12419286D01*
X12509762Y-12457381D01*
X12500238Y-12476428D01*
X12490714Y-12485952D01*
X12471667Y-12495476D01*
X12452619Y-12495476D01*
X12433571Y-12485952D01*
X12424048Y-12476428D01*
X12414524Y-12457381D01*
X12405000Y-12419286D01*
X12405000Y-12371667D01*
X12414524Y-12333571D01*
X12424048Y-12314524D01*
X12433571Y-12305000D01*
X12452619Y-12295476D01*
X12595476Y-12295476D02*
X12595476Y-12333571D01*
X12671667Y-12295476D02*
X12671667Y-12333571D01*
X12966905Y-12571667D02*
X12957381Y-12562143D01*
X12938333Y-12533571D01*
X12928809Y-12514524D01*
X12919286Y-12485952D01*
X12909762Y-12438333D01*
X12909762Y-12400238D01*
X12919286Y-12352619D01*
X12928809Y-12324048D01*
X12938333Y-12305000D01*
X12957381Y-12276428D01*
X12966905Y-12266905D01*
X13128809Y-12362143D02*
X13128809Y-12495476D01*
X13081190Y-12285952D02*
X13033571Y-12428809D01*
X13157381Y-12428809D01*
X13385952Y-12495476D02*
X13385952Y-12295476D01*
X13471667Y-12495476D02*
X13471667Y-12390714D01*
X13462143Y-12371667D01*
X13443095Y-12362143D01*
X13414524Y-12362143D01*
X13395476Y-12371667D01*
X13385952Y-12381190D01*
X13595476Y-12495476D02*
X13576428Y-12485952D01*
X13566905Y-12476428D01*
X13557381Y-12457381D01*
X13557381Y-12400238D01*
X13566905Y-12381190D01*
X13576428Y-12371667D01*
X13595476Y-12362143D01*
X13624048Y-12362143D01*
X13643095Y-12371667D01*
X13652619Y-12381190D01*
X13662143Y-12400238D01*
X13662143Y-12457381D01*
X13652619Y-12476428D01*
X13643095Y-12485952D01*
X13624048Y-12495476D01*
X13595476Y-12495476D01*
X13776428Y-12495476D02*
X13757381Y-12485952D01*
X13747857Y-12466905D01*
X13747857Y-12295476D01*
X13928809Y-12485952D02*
X13909762Y-12495476D01*
X13871667Y-12495476D01*
X13852619Y-12485952D01*
X13843095Y-12466905D01*
X13843095Y-12390714D01*
X13852619Y-12371667D01*
X13871667Y-12362143D01*
X13909762Y-12362143D01*
X13928809Y-12371667D01*
X13938333Y-12390714D01*
X13938333Y-12409762D01*
X13843095Y-12428809D01*
X14014524Y-12485952D02*
X14033571Y-12495476D01*
X14071667Y-12495476D01*
X14090714Y-12485952D01*
X14100238Y-12466905D01*
X14100238Y-12457381D01*
X14090714Y-12438333D01*
X14071667Y-12428809D01*
X14043095Y-12428809D01*
X14024048Y-12419286D01*
X14014524Y-12400238D01*
X14014524Y-12390714D01*
X14024048Y-12371667D01*
X14043095Y-12362143D01*
X14071667Y-12362143D01*
X14090714Y-12371667D01*
X14166905Y-12571667D02*
X14176428Y-12562143D01*
X14195476Y-12533571D01*
X14205000Y-12514524D01*
X14214524Y-12485952D01*
X14224048Y-12438333D01*
X14224048Y-12400238D01*
X14214524Y-12352619D01*
X14205000Y-12324048D01*
X14195476Y-12305000D01*
X14176428Y-12276428D01*
X14166905Y-12266905D01*
D15*
X9390607Y-12679607D02*
X9390607Y-12658393D01*
X9369393Y-12658393D01*
X9369393Y-12679607D01*
X9390607Y-12679607D01*
D11*
X9690714Y-12559476D02*
X9709762Y-12559476D01*
X9728810Y-12569000D01*
X9738333Y-12578524D01*
X9747857Y-12597571D01*
X9757381Y-12635667D01*
X9757381Y-12683286D01*
X9747857Y-12721381D01*
X9738333Y-12740428D01*
X9728810Y-12749952D01*
X9709762Y-12759476D01*
X9690714Y-12759476D01*
X9671667Y-12749952D01*
X9662143Y-12740428D01*
X9652619Y-12721381D01*
X9643095Y-12683286D01*
X9643095Y-12635667D01*
X9652619Y-12597571D01*
X9662143Y-12578524D01*
X9671667Y-12569000D01*
X9690714Y-12559476D01*
X9843095Y-12740428D02*
X9852619Y-12749952D01*
X9843095Y-12759476D01*
X9833571Y-12749952D01*
X9843095Y-12740428D01*
X9843095Y-12759476D01*
X9919286Y-12559476D02*
X10043095Y-12559476D01*
X9976429Y-12635667D01*
X10005000Y-12635667D01*
X10024048Y-12645190D01*
X10033571Y-12654714D01*
X10043095Y-12673762D01*
X10043095Y-12721381D01*
X10033571Y-12740428D01*
X10024048Y-12749952D01*
X10005000Y-12759476D01*
X9947857Y-12759476D01*
X9928810Y-12749952D01*
X9919286Y-12740428D01*
X10166905Y-12559476D02*
X10185952Y-12559476D01*
X10205000Y-12569000D01*
X10214524Y-12578524D01*
X10224048Y-12597571D01*
X10233571Y-12635667D01*
X10233571Y-12683286D01*
X10224048Y-12721381D01*
X10214524Y-12740428D01*
X10205000Y-12749952D01*
X10185952Y-12759476D01*
X10166905Y-12759476D01*
X10147857Y-12749952D01*
X10138333Y-12740428D01*
X10128810Y-12721381D01*
X10119286Y-12683286D01*
X10119286Y-12635667D01*
X10128810Y-12597571D01*
X10138333Y-12578524D01*
X10147857Y-12569000D01*
X10166905Y-12559476D01*
X10357381Y-12559476D02*
X10376429Y-12559476D01*
X10395476Y-12569000D01*
X10405000Y-12578524D01*
X10414524Y-12597571D01*
X10424048Y-12635667D01*
X10424048Y-12683286D01*
X10414524Y-12721381D01*
X10405000Y-12740428D01*
X10395476Y-12749952D01*
X10376429Y-12759476D01*
X10357381Y-12759476D01*
X10338333Y-12749952D01*
X10328810Y-12740428D01*
X10319286Y-12721381D01*
X10309762Y-12683286D01*
X10309762Y-12635667D01*
X10319286Y-12597571D01*
X10328810Y-12578524D01*
X10338333Y-12569000D01*
X10357381Y-12559476D01*
X10509762Y-12759476D02*
X10509762Y-12626143D01*
X10509762Y-12645190D02*
X10519286Y-12635667D01*
X10538333Y-12626143D01*
X10566905Y-12626143D01*
X10585952Y-12635667D01*
X10595476Y-12654714D01*
X10595476Y-12759476D01*
X10595476Y-12654714D02*
X10605000Y-12635667D01*
X10624048Y-12626143D01*
X10652619Y-12626143D01*
X10671667Y-12635667D01*
X10681190Y-12654714D01*
X10681190Y-12759476D01*
X10776429Y-12759476D02*
X10776429Y-12626143D01*
X10776429Y-12645190D02*
X10785952Y-12635667D01*
X10805000Y-12626143D01*
X10833571Y-12626143D01*
X10852619Y-12635667D01*
X10862143Y-12654714D01*
X10862143Y-12759476D01*
X10862143Y-12654714D02*
X10871667Y-12635667D01*
X10890714Y-12626143D01*
X10919286Y-12626143D01*
X10938333Y-12635667D01*
X10947857Y-12654714D01*
X10947857Y-12759476D01*
X11338333Y-12549952D02*
X11166905Y-12807095D01*
X11595476Y-12559476D02*
X11614524Y-12559476D01*
X11633571Y-12569000D01*
X11643095Y-12578524D01*
X11652619Y-12597571D01*
X11662143Y-12635667D01*
X11662143Y-12683286D01*
X11652619Y-12721381D01*
X11643095Y-12740428D01*
X11633571Y-12749952D01*
X11614524Y-12759476D01*
X11595476Y-12759476D01*
X11576428Y-12749952D01*
X11566905Y-12740428D01*
X11557381Y-12721381D01*
X11547857Y-12683286D01*
X11547857Y-12635667D01*
X11557381Y-12597571D01*
X11566905Y-12578524D01*
X11576428Y-12569000D01*
X11595476Y-12559476D01*
X11747857Y-12740428D02*
X11757381Y-12749952D01*
X11747857Y-12759476D01*
X11738333Y-12749952D01*
X11747857Y-12740428D01*
X11747857Y-12759476D01*
X11881190Y-12559476D02*
X11900238Y-12559476D01*
X11919286Y-12569000D01*
X11928809Y-12578524D01*
X11938333Y-12597571D01*
X11947857Y-12635667D01*
X11947857Y-12683286D01*
X11938333Y-12721381D01*
X11928809Y-12740428D01*
X11919286Y-12749952D01*
X11900238Y-12759476D01*
X11881190Y-12759476D01*
X11862143Y-12749952D01*
X11852619Y-12740428D01*
X11843095Y-12721381D01*
X11833571Y-12683286D01*
X11833571Y-12635667D01*
X11843095Y-12597571D01*
X11852619Y-12578524D01*
X11862143Y-12569000D01*
X11881190Y-12559476D01*
X12138333Y-12759476D02*
X12024048Y-12759476D01*
X12081190Y-12759476D02*
X12081190Y-12559476D01*
X12062143Y-12588048D01*
X12043095Y-12607095D01*
X12024048Y-12616619D01*
X12328809Y-12759476D02*
X12214524Y-12759476D01*
X12271667Y-12759476D02*
X12271667Y-12559476D01*
X12252619Y-12588048D01*
X12233571Y-12607095D01*
X12214524Y-12616619D01*
X12443095Y-12645190D02*
X12424048Y-12635667D01*
X12414524Y-12626143D01*
X12405000Y-12607095D01*
X12405000Y-12597571D01*
X12414524Y-12578524D01*
X12424048Y-12569000D01*
X12443095Y-12559476D01*
X12481190Y-12559476D01*
X12500238Y-12569000D01*
X12509762Y-12578524D01*
X12519286Y-12597571D01*
X12519286Y-12607095D01*
X12509762Y-12626143D01*
X12500238Y-12635667D01*
X12481190Y-12645190D01*
X12443095Y-12645190D01*
X12424048Y-12654714D01*
X12414524Y-12664238D01*
X12405000Y-12683286D01*
X12405000Y-12721381D01*
X12414524Y-12740428D01*
X12424048Y-12749952D01*
X12443095Y-12759476D01*
X12481190Y-12759476D01*
X12500238Y-12749952D01*
X12509762Y-12740428D01*
X12519286Y-12721381D01*
X12519286Y-12683286D01*
X12509762Y-12664238D01*
X12500238Y-12654714D01*
X12481190Y-12645190D01*
X12595476Y-12559476D02*
X12595476Y-12597571D01*
X12671667Y-12559476D02*
X12671667Y-12597571D01*
X12966905Y-12835667D02*
X12957381Y-12826143D01*
X12938333Y-12797571D01*
X12928809Y-12778524D01*
X12919286Y-12749952D01*
X12909762Y-12702333D01*
X12909762Y-12664238D01*
X12919286Y-12616619D01*
X12928809Y-12588048D01*
X12938333Y-12569000D01*
X12957381Y-12540428D01*
X12966905Y-12530905D01*
X13024048Y-12559476D02*
X13147857Y-12559476D01*
X13081190Y-12635667D01*
X13109762Y-12635667D01*
X13128809Y-12645190D01*
X13138333Y-12654714D01*
X13147857Y-12673762D01*
X13147857Y-12721381D01*
X13138333Y-12740428D01*
X13128809Y-12749952D01*
X13109762Y-12759476D01*
X13052619Y-12759476D01*
X13033571Y-12749952D01*
X13024048Y-12740428D01*
X13214524Y-12559476D02*
X13347857Y-12559476D01*
X13262143Y-12759476D01*
X13576428Y-12759476D02*
X13576428Y-12559476D01*
X13662143Y-12759476D02*
X13662143Y-12654714D01*
X13652619Y-12635667D01*
X13633571Y-12626143D01*
X13605000Y-12626143D01*
X13585952Y-12635667D01*
X13576428Y-12645190D01*
X13785952Y-12759476D02*
X13766905Y-12749952D01*
X13757381Y-12740428D01*
X13747857Y-12721381D01*
X13747857Y-12664238D01*
X13757381Y-12645190D01*
X13766905Y-12635667D01*
X13785952Y-12626143D01*
X13814524Y-12626143D01*
X13833571Y-12635667D01*
X13843095Y-12645190D01*
X13852619Y-12664238D01*
X13852619Y-12721381D01*
X13843095Y-12740428D01*
X13833571Y-12749952D01*
X13814524Y-12759476D01*
X13785952Y-12759476D01*
X13966905Y-12759476D02*
X13947857Y-12749952D01*
X13938333Y-12730905D01*
X13938333Y-12559476D01*
X14119286Y-12749952D02*
X14100238Y-12759476D01*
X14062143Y-12759476D01*
X14043095Y-12749952D01*
X14033571Y-12730905D01*
X14033571Y-12654714D01*
X14043095Y-12635667D01*
X14062143Y-12626143D01*
X14100238Y-12626143D01*
X14119286Y-12635667D01*
X14128809Y-12654714D01*
X14128809Y-12673762D01*
X14033571Y-12692809D01*
X14205000Y-12749952D02*
X14224048Y-12759476D01*
X14262143Y-12759476D01*
X14281190Y-12749952D01*
X14290714Y-12730905D01*
X14290714Y-12721381D01*
X14281190Y-12702333D01*
X14262143Y-12692809D01*
X14233571Y-12692809D01*
X14214524Y-12683286D01*
X14205000Y-12664238D01*
X14205000Y-12654714D01*
X14214524Y-12635667D01*
X14233571Y-12626143D01*
X14262143Y-12626143D01*
X14281190Y-12635667D01*
X14357381Y-12835667D02*
X14366905Y-12826143D01*
X14385952Y-12797571D01*
X14395476Y-12778524D01*
X14405000Y-12749952D01*
X14414524Y-12702333D01*
X14414524Y-12664238D01*
X14405000Y-12616619D01*
X14395476Y-12588048D01*
X14385952Y-12569000D01*
X14366905Y-12540428D01*
X14357381Y-12530905D01*
D16*
X9377500Y-12950500D02*
X9395000Y-12933000D01*
X9377500Y-12915500D01*
X9360000Y-12933000D01*
X9377500Y-12950500D01*
D11*
X9690714Y-12823476D02*
X9709762Y-12823476D01*
X9728810Y-12833000D01*
X9738333Y-12842524D01*
X9747857Y-12861571D01*
X9757381Y-12899667D01*
X9757381Y-12947286D01*
X9747857Y-12985381D01*
X9738333Y-13004428D01*
X9728810Y-13013952D01*
X9709762Y-13023476D01*
X9690714Y-13023476D01*
X9671667Y-13013952D01*
X9662143Y-13004428D01*
X9652619Y-12985381D01*
X9643095Y-12947286D01*
X9643095Y-12899667D01*
X9652619Y-12861571D01*
X9662143Y-12842524D01*
X9671667Y-12833000D01*
X9690714Y-12823476D01*
X9843095Y-13004428D02*
X9852619Y-13013952D01*
X9843095Y-13023476D01*
X9833571Y-13013952D01*
X9843095Y-13004428D01*
X9843095Y-13023476D01*
X9919286Y-12823476D02*
X10043095Y-12823476D01*
X9976429Y-12899667D01*
X10005000Y-12899667D01*
X10024048Y-12909190D01*
X10033571Y-12918714D01*
X10043095Y-12937762D01*
X10043095Y-12985381D01*
X10033571Y-13004428D01*
X10024048Y-13013952D01*
X10005000Y-13023476D01*
X9947857Y-13023476D01*
X9928810Y-13013952D01*
X9919286Y-13004428D01*
X10224048Y-12823476D02*
X10128810Y-12823476D01*
X10119286Y-12918714D01*
X10128810Y-12909190D01*
X10147857Y-12899667D01*
X10195476Y-12899667D01*
X10214524Y-12909190D01*
X10224048Y-12918714D01*
X10233571Y-12937762D01*
X10233571Y-12985381D01*
X10224048Y-13004428D01*
X10214524Y-13013952D01*
X10195476Y-13023476D01*
X10147857Y-13023476D01*
X10128810Y-13013952D01*
X10119286Y-13004428D01*
X10357381Y-12823476D02*
X10376429Y-12823476D01*
X10395476Y-12833000D01*
X10405000Y-12842524D01*
X10414524Y-12861571D01*
X10424048Y-12899667D01*
X10424048Y-12947286D01*
X10414524Y-12985381D01*
X10405000Y-13004428D01*
X10395476Y-13013952D01*
X10376429Y-13023476D01*
X10357381Y-13023476D01*
X10338333Y-13013952D01*
X10328810Y-13004428D01*
X10319286Y-12985381D01*
X10309762Y-12947286D01*
X10309762Y-12899667D01*
X10319286Y-12861571D01*
X10328810Y-12842524D01*
X10338333Y-12833000D01*
X10357381Y-12823476D01*
X10509762Y-13023476D02*
X10509762Y-12890143D01*
X10509762Y-12909190D02*
X10519286Y-12899667D01*
X10538333Y-12890143D01*
X10566905Y-12890143D01*
X10585952Y-12899667D01*
X10595476Y-12918714D01*
X10595476Y-13023476D01*
X10595476Y-12918714D02*
X10605000Y-12899667D01*
X10624048Y-12890143D01*
X10652619Y-12890143D01*
X10671667Y-12899667D01*
X10681190Y-12918714D01*
X10681190Y-13023476D01*
X10776429Y-13023476D02*
X10776429Y-12890143D01*
X10776429Y-12909190D02*
X10785952Y-12899667D01*
X10805000Y-12890143D01*
X10833571Y-12890143D01*
X10852619Y-12899667D01*
X10862143Y-12918714D01*
X10862143Y-13023476D01*
X10862143Y-12918714D02*
X10871667Y-12899667D01*
X10890714Y-12890143D01*
X10919286Y-12890143D01*
X10938333Y-12899667D01*
X10947857Y-12918714D01*
X10947857Y-13023476D01*
X11338333Y-12813952D02*
X11166905Y-13071095D01*
X11595476Y-12823476D02*
X11614524Y-12823476D01*
X11633571Y-12833000D01*
X11643095Y-12842524D01*
X11652619Y-12861571D01*
X11662143Y-12899667D01*
X11662143Y-12947286D01*
X11652619Y-12985381D01*
X11643095Y-13004428D01*
X11633571Y-13013952D01*
X11614524Y-13023476D01*
X11595476Y-13023476D01*
X11576428Y-13013952D01*
X11566905Y-13004428D01*
X11557381Y-12985381D01*
X11547857Y-12947286D01*
X11547857Y-12899667D01*
X11557381Y-12861571D01*
X11566905Y-12842524D01*
X11576428Y-12833000D01*
X11595476Y-12823476D01*
X11747857Y-13004428D02*
X11757381Y-13013952D01*
X11747857Y-13023476D01*
X11738333Y-13013952D01*
X11747857Y-13004428D01*
X11747857Y-13023476D01*
X11881190Y-12823476D02*
X11900238Y-12823476D01*
X11919286Y-12833000D01*
X11928809Y-12842524D01*
X11938333Y-12861571D01*
X11947857Y-12899667D01*
X11947857Y-12947286D01*
X11938333Y-12985381D01*
X11928809Y-13004428D01*
X11919286Y-13013952D01*
X11900238Y-13023476D01*
X11881190Y-13023476D01*
X11862143Y-13013952D01*
X11852619Y-13004428D01*
X11843095Y-12985381D01*
X11833571Y-12947286D01*
X11833571Y-12899667D01*
X11843095Y-12861571D01*
X11852619Y-12842524D01*
X11862143Y-12833000D01*
X11881190Y-12823476D01*
X12138333Y-13023476D02*
X12024048Y-13023476D01*
X12081190Y-13023476D02*
X12081190Y-12823476D01*
X12062143Y-12852048D01*
X12043095Y-12871095D01*
X12024048Y-12880619D01*
X12205000Y-12823476D02*
X12328809Y-12823476D01*
X12262143Y-12899667D01*
X12290714Y-12899667D01*
X12309762Y-12909190D01*
X12319286Y-12918714D01*
X12328809Y-12937762D01*
X12328809Y-12985381D01*
X12319286Y-13004428D01*
X12309762Y-13013952D01*
X12290714Y-13023476D01*
X12233571Y-13023476D01*
X12214524Y-13013952D01*
X12205000Y-13004428D01*
X12443095Y-12909190D02*
X12424048Y-12899667D01*
X12414524Y-12890143D01*
X12405000Y-12871095D01*
X12405000Y-12861571D01*
X12414524Y-12842524D01*
X12424048Y-12833000D01*
X12443095Y-12823476D01*
X12481190Y-12823476D01*
X12500238Y-12833000D01*
X12509762Y-12842524D01*
X12519286Y-12861571D01*
X12519286Y-12871095D01*
X12509762Y-12890143D01*
X12500238Y-12899667D01*
X12481190Y-12909190D01*
X12443095Y-12909190D01*
X12424048Y-12918714D01*
X12414524Y-12928238D01*
X12405000Y-12947286D01*
X12405000Y-12985381D01*
X12414524Y-13004428D01*
X12424048Y-13013952D01*
X12443095Y-13023476D01*
X12481190Y-13023476D01*
X12500238Y-13013952D01*
X12509762Y-13004428D01*
X12519286Y-12985381D01*
X12519286Y-12947286D01*
X12509762Y-12928238D01*
X12500238Y-12918714D01*
X12481190Y-12909190D01*
X12595476Y-12823476D02*
X12595476Y-12861571D01*
X12671667Y-12823476D02*
X12671667Y-12861571D01*
X12966905Y-13099667D02*
X12957381Y-13090143D01*
X12938333Y-13061571D01*
X12928809Y-13042524D01*
X12919286Y-13013952D01*
X12909762Y-12966333D01*
X12909762Y-12928238D01*
X12919286Y-12880619D01*
X12928809Y-12852048D01*
X12938333Y-12833000D01*
X12957381Y-12804428D01*
X12966905Y-12794905D01*
X13033571Y-12842524D02*
X13043095Y-12833000D01*
X13062143Y-12823476D01*
X13109762Y-12823476D01*
X13128809Y-12833000D01*
X13138333Y-12842524D01*
X13147857Y-12861571D01*
X13147857Y-12880619D01*
X13138333Y-12909190D01*
X13024048Y-13023476D01*
X13147857Y-13023476D01*
X13385952Y-13023476D02*
X13385952Y-12823476D01*
X13471667Y-13023476D02*
X13471667Y-12918714D01*
X13462143Y-12899667D01*
X13443095Y-12890143D01*
X13414524Y-12890143D01*
X13395476Y-12899667D01*
X13385952Y-12909190D01*
X13595476Y-13023476D02*
X13576428Y-13013952D01*
X13566905Y-13004428D01*
X13557381Y-12985381D01*
X13557381Y-12928238D01*
X13566905Y-12909190D01*
X13576428Y-12899667D01*
X13595476Y-12890143D01*
X13624048Y-12890143D01*
X13643095Y-12899667D01*
X13652619Y-12909190D01*
X13662143Y-12928238D01*
X13662143Y-12985381D01*
X13652619Y-13004428D01*
X13643095Y-13013952D01*
X13624048Y-13023476D01*
X13595476Y-13023476D01*
X13776428Y-13023476D02*
X13757381Y-13013952D01*
X13747857Y-12994905D01*
X13747857Y-12823476D01*
X13928809Y-13013952D02*
X13909762Y-13023476D01*
X13871667Y-13023476D01*
X13852619Y-13013952D01*
X13843095Y-12994905D01*
X13843095Y-12918714D01*
X13852619Y-12899667D01*
X13871667Y-12890143D01*
X13909762Y-12890143D01*
X13928809Y-12899667D01*
X13938333Y-12918714D01*
X13938333Y-12937762D01*
X13843095Y-12956809D01*
X14014524Y-13013952D02*
X14033571Y-13023476D01*
X14071667Y-13023476D01*
X14090714Y-13013952D01*
X14100238Y-12994905D01*
X14100238Y-12985381D01*
X14090714Y-12966333D01*
X14071667Y-12956809D01*
X14043095Y-12956809D01*
X14024048Y-12947286D01*
X14014524Y-12928238D01*
X14014524Y-12918714D01*
X14024048Y-12899667D01*
X14043095Y-12890143D01*
X14071667Y-12890143D01*
X14090714Y-12899667D01*
X14166905Y-13099667D02*
X14176428Y-13090143D01*
X14195476Y-13061571D01*
X14205000Y-13042524D01*
X14214524Y-13013952D01*
X14224048Y-12966333D01*
X14224048Y-12928238D01*
X14214524Y-12880619D01*
X14205000Y-12852048D01*
X14195476Y-12833000D01*
X14176428Y-12804428D01*
X14166905Y-12794905D01*
D17*
X9355000Y-13177000D02*
X9395000Y-13217000D01*
X9395000Y-13177000D02*
X9355000Y-13217000D01*
X9395000Y-13197000D02*
G75*
G03*
X9395000Y-13197000I-20000J0D01*
G01*
D11*
X9690714Y-13087476D02*
X9709762Y-13087476D01*
X9728810Y-13097000D01*
X9738333Y-13106524D01*
X9747857Y-13125571D01*
X9757381Y-13163667D01*
X9757381Y-13211286D01*
X9747857Y-13249381D01*
X9738333Y-13268428D01*
X9728810Y-13277952D01*
X9709762Y-13287476D01*
X9690714Y-13287476D01*
X9671667Y-13277952D01*
X9662143Y-13268428D01*
X9652619Y-13249381D01*
X9643095Y-13211286D01*
X9643095Y-13163667D01*
X9652619Y-13125571D01*
X9662143Y-13106524D01*
X9671667Y-13097000D01*
X9690714Y-13087476D01*
X9843095Y-13268428D02*
X9852619Y-13277952D01*
X9843095Y-13287476D01*
X9833571Y-13277952D01*
X9843095Y-13268428D01*
X9843095Y-13287476D01*
X10024048Y-13154143D02*
X10024048Y-13287476D01*
X9976429Y-13077952D02*
X9928810Y-13220809D01*
X10052619Y-13220809D01*
X10166905Y-13087476D02*
X10185952Y-13087476D01*
X10205000Y-13097000D01*
X10214524Y-13106524D01*
X10224048Y-13125571D01*
X10233571Y-13163667D01*
X10233571Y-13211286D01*
X10224048Y-13249381D01*
X10214524Y-13268428D01*
X10205000Y-13277952D01*
X10185952Y-13287476D01*
X10166905Y-13287476D01*
X10147857Y-13277952D01*
X10138333Y-13268428D01*
X10128810Y-13249381D01*
X10119286Y-13211286D01*
X10119286Y-13163667D01*
X10128810Y-13125571D01*
X10138333Y-13106524D01*
X10147857Y-13097000D01*
X10166905Y-13087476D01*
X10357381Y-13087476D02*
X10376429Y-13087476D01*
X10395476Y-13097000D01*
X10405000Y-13106524D01*
X10414524Y-13125571D01*
X10424048Y-13163667D01*
X10424048Y-13211286D01*
X10414524Y-13249381D01*
X10405000Y-13268428D01*
X10395476Y-13277952D01*
X10376429Y-13287476D01*
X10357381Y-13287476D01*
X10338333Y-13277952D01*
X10328810Y-13268428D01*
X10319286Y-13249381D01*
X10309762Y-13211286D01*
X10309762Y-13163667D01*
X10319286Y-13125571D01*
X10328810Y-13106524D01*
X10338333Y-13097000D01*
X10357381Y-13087476D01*
X10509762Y-13287476D02*
X10509762Y-13154143D01*
X10509762Y-13173190D02*
X10519286Y-13163667D01*
X10538333Y-13154143D01*
X10566905Y-13154143D01*
X10585952Y-13163667D01*
X10595476Y-13182714D01*
X10595476Y-13287476D01*
X10595476Y-13182714D02*
X10605000Y-13163667D01*
X10624048Y-13154143D01*
X10652619Y-13154143D01*
X10671667Y-13163667D01*
X10681190Y-13182714D01*
X10681190Y-13287476D01*
X10776429Y-13287476D02*
X10776429Y-13154143D01*
X10776429Y-13173190D02*
X10785952Y-13163667D01*
X10805000Y-13154143D01*
X10833571Y-13154143D01*
X10852619Y-13163667D01*
X10862143Y-13182714D01*
X10862143Y-13287476D01*
X10862143Y-13182714D02*
X10871667Y-13163667D01*
X10890714Y-13154143D01*
X10919286Y-13154143D01*
X10938333Y-13163667D01*
X10947857Y-13182714D01*
X10947857Y-13287476D01*
X11338333Y-13077952D02*
X11166905Y-13335095D01*
X11595476Y-13087476D02*
X11614524Y-13087476D01*
X11633571Y-13097000D01*
X11643095Y-13106524D01*
X11652619Y-13125571D01*
X11662143Y-13163667D01*
X11662143Y-13211286D01*
X11652619Y-13249381D01*
X11643095Y-13268428D01*
X11633571Y-13277952D01*
X11614524Y-13287476D01*
X11595476Y-13287476D01*
X11576428Y-13277952D01*
X11566905Y-13268428D01*
X11557381Y-13249381D01*
X11547857Y-13211286D01*
X11547857Y-13163667D01*
X11557381Y-13125571D01*
X11566905Y-13106524D01*
X11576428Y-13097000D01*
X11595476Y-13087476D01*
X11747857Y-13268428D02*
X11757381Y-13277952D01*
X11747857Y-13287476D01*
X11738333Y-13277952D01*
X11747857Y-13268428D01*
X11747857Y-13287476D01*
X11881190Y-13087476D02*
X11900238Y-13087476D01*
X11919286Y-13097000D01*
X11928809Y-13106524D01*
X11938333Y-13125571D01*
X11947857Y-13163667D01*
X11947857Y-13211286D01*
X11938333Y-13249381D01*
X11928809Y-13268428D01*
X11919286Y-13277952D01*
X11900238Y-13287476D01*
X11881190Y-13287476D01*
X11862143Y-13277952D01*
X11852619Y-13268428D01*
X11843095Y-13249381D01*
X11833571Y-13211286D01*
X11833571Y-13163667D01*
X11843095Y-13125571D01*
X11852619Y-13106524D01*
X11862143Y-13097000D01*
X11881190Y-13087476D01*
X12138333Y-13287476D02*
X12024048Y-13287476D01*
X12081190Y-13287476D02*
X12081190Y-13087476D01*
X12062143Y-13116048D01*
X12043095Y-13135095D01*
X12024048Y-13144619D01*
X12319286Y-13087476D02*
X12224048Y-13087476D01*
X12214524Y-13182714D01*
X12224048Y-13173190D01*
X12243095Y-13163667D01*
X12290714Y-13163667D01*
X12309762Y-13173190D01*
X12319286Y-13182714D01*
X12328809Y-13201762D01*
X12328809Y-13249381D01*
X12319286Y-13268428D01*
X12309762Y-13277952D01*
X12290714Y-13287476D01*
X12243095Y-13287476D01*
X12224048Y-13277952D01*
X12214524Y-13268428D01*
X12395476Y-13087476D02*
X12528809Y-13087476D01*
X12443095Y-13287476D01*
X12595476Y-13087476D02*
X12595476Y-13125571D01*
X12671667Y-13087476D02*
X12671667Y-13125571D01*
X12966905Y-13363667D02*
X12957381Y-13354143D01*
X12938333Y-13325571D01*
X12928809Y-13306524D01*
X12919286Y-13277952D01*
X12909762Y-13230333D01*
X12909762Y-13192238D01*
X12919286Y-13144619D01*
X12928809Y-13116048D01*
X12938333Y-13097000D01*
X12957381Y-13068428D01*
X12966905Y-13058905D01*
X13052619Y-13287476D02*
X13090714Y-13287476D01*
X13109762Y-13277952D01*
X13119286Y-13268428D01*
X13138333Y-13239857D01*
X13147857Y-13201762D01*
X13147857Y-13125571D01*
X13138333Y-13106524D01*
X13128809Y-13097000D01*
X13109762Y-13087476D01*
X13071667Y-13087476D01*
X13052619Y-13097000D01*
X13043095Y-13106524D01*
X13033571Y-13125571D01*
X13033571Y-13173190D01*
X13043095Y-13192238D01*
X13052619Y-13201762D01*
X13071667Y-13211286D01*
X13109762Y-13211286D01*
X13128809Y-13201762D01*
X13138333Y-13192238D01*
X13147857Y-13173190D01*
X13385952Y-13287476D02*
X13385952Y-13087476D01*
X13471667Y-13287476D02*
X13471667Y-13182714D01*
X13462143Y-13163667D01*
X13443095Y-13154143D01*
X13414524Y-13154143D01*
X13395476Y-13163667D01*
X13385952Y-13173190D01*
X13595476Y-13287476D02*
X13576428Y-13277952D01*
X13566905Y-13268428D01*
X13557381Y-13249381D01*
X13557381Y-13192238D01*
X13566905Y-13173190D01*
X13576428Y-13163667D01*
X13595476Y-13154143D01*
X13624048Y-13154143D01*
X13643095Y-13163667D01*
X13652619Y-13173190D01*
X13662143Y-13192238D01*
X13662143Y-13249381D01*
X13652619Y-13268428D01*
X13643095Y-13277952D01*
X13624048Y-13287476D01*
X13595476Y-13287476D01*
X13776428Y-13287476D02*
X13757381Y-13277952D01*
X13747857Y-13258905D01*
X13747857Y-13087476D01*
X13928809Y-13277952D02*
X13909762Y-13287476D01*
X13871667Y-13287476D01*
X13852619Y-13277952D01*
X13843095Y-13258905D01*
X13843095Y-13182714D01*
X13852619Y-13163667D01*
X13871667Y-13154143D01*
X13909762Y-13154143D01*
X13928809Y-13163667D01*
X13938333Y-13182714D01*
X13938333Y-13201762D01*
X13843095Y-13220809D01*
X14014524Y-13277952D02*
X14033571Y-13287476D01*
X14071667Y-13287476D01*
X14090714Y-13277952D01*
X14100238Y-13258905D01*
X14100238Y-13249381D01*
X14090714Y-13230333D01*
X14071667Y-13220809D01*
X14043095Y-13220809D01*
X14024048Y-13211286D01*
X14014524Y-13192238D01*
X14014524Y-13182714D01*
X14024048Y-13163667D01*
X14043095Y-13154143D01*
X14071667Y-13154143D01*
X14090714Y-13163667D01*
X14166905Y-13363667D02*
X14176428Y-13354143D01*
X14195476Y-13325571D01*
X14205000Y-13306524D01*
X14214524Y-13277952D01*
X14224048Y-13230333D01*
X14224048Y-13192238D01*
X14214524Y-13144619D01*
X14205000Y-13116048D01*
X14195476Y-13097000D01*
X14176428Y-13068428D01*
X14166905Y-13058905D01*
D18*
X9345000Y-13436000D02*
X9395000Y-13486000D01*
X9395000Y-13436000D02*
X9345000Y-13486000D01*
X9370000Y-13436000D02*
X9370000Y-13486000D01*
X9345000Y-13461000D02*
X9395000Y-13461000D01*
D11*
X9690714Y-13351476D02*
X9709762Y-13351476D01*
X9728810Y-13361000D01*
X9738333Y-13370524D01*
X9747857Y-13389571D01*
X9757381Y-13427667D01*
X9757381Y-13475286D01*
X9747857Y-13513381D01*
X9738333Y-13532428D01*
X9728810Y-13541952D01*
X9709762Y-13551476D01*
X9690714Y-13551476D01*
X9671667Y-13541952D01*
X9662143Y-13532428D01*
X9652619Y-13513381D01*
X9643095Y-13475286D01*
X9643095Y-13427667D01*
X9652619Y-13389571D01*
X9662143Y-13370524D01*
X9671667Y-13361000D01*
X9690714Y-13351476D01*
X9843095Y-13532428D02*
X9852619Y-13541952D01*
X9843095Y-13551476D01*
X9833571Y-13541952D01*
X9843095Y-13532428D01*
X9843095Y-13551476D01*
X10033571Y-13351476D02*
X9938333Y-13351476D01*
X9928810Y-13446714D01*
X9938333Y-13437190D01*
X9957381Y-13427667D01*
X10005000Y-13427667D01*
X10024048Y-13437190D01*
X10033571Y-13446714D01*
X10043095Y-13465762D01*
X10043095Y-13513381D01*
X10033571Y-13532428D01*
X10024048Y-13541952D01*
X10005000Y-13551476D01*
X9957381Y-13551476D01*
X9938333Y-13541952D01*
X9928810Y-13532428D01*
X10166905Y-13351476D02*
X10185952Y-13351476D01*
X10205000Y-13361000D01*
X10214524Y-13370524D01*
X10224048Y-13389571D01*
X10233571Y-13427667D01*
X10233571Y-13475286D01*
X10224048Y-13513381D01*
X10214524Y-13532428D01*
X10205000Y-13541952D01*
X10185952Y-13551476D01*
X10166905Y-13551476D01*
X10147857Y-13541952D01*
X10138333Y-13532428D01*
X10128810Y-13513381D01*
X10119286Y-13475286D01*
X10119286Y-13427667D01*
X10128810Y-13389571D01*
X10138333Y-13370524D01*
X10147857Y-13361000D01*
X10166905Y-13351476D01*
X10357381Y-13351476D02*
X10376429Y-13351476D01*
X10395476Y-13361000D01*
X10405000Y-13370524D01*
X10414524Y-13389571D01*
X10424048Y-13427667D01*
X10424048Y-13475286D01*
X10414524Y-13513381D01*
X10405000Y-13532428D01*
X10395476Y-13541952D01*
X10376429Y-13551476D01*
X10357381Y-13551476D01*
X10338333Y-13541952D01*
X10328810Y-13532428D01*
X10319286Y-13513381D01*
X10309762Y-13475286D01*
X10309762Y-13427667D01*
X10319286Y-13389571D01*
X10328810Y-13370524D01*
X10338333Y-13361000D01*
X10357381Y-13351476D01*
X10509762Y-13551476D02*
X10509762Y-13418143D01*
X10509762Y-13437190D02*
X10519286Y-13427667D01*
X10538333Y-13418143D01*
X10566905Y-13418143D01*
X10585952Y-13427667D01*
X10595476Y-13446714D01*
X10595476Y-13551476D01*
X10595476Y-13446714D02*
X10605000Y-13427667D01*
X10624048Y-13418143D01*
X10652619Y-13418143D01*
X10671667Y-13427667D01*
X10681190Y-13446714D01*
X10681190Y-13551476D01*
X10776429Y-13551476D02*
X10776429Y-13418143D01*
X10776429Y-13437190D02*
X10785952Y-13427667D01*
X10805000Y-13418143D01*
X10833571Y-13418143D01*
X10852619Y-13427667D01*
X10862143Y-13446714D01*
X10862143Y-13551476D01*
X10862143Y-13446714D02*
X10871667Y-13427667D01*
X10890714Y-13418143D01*
X10919286Y-13418143D01*
X10938333Y-13427667D01*
X10947857Y-13446714D01*
X10947857Y-13551476D01*
X11338333Y-13341952D02*
X11166905Y-13599095D01*
X11595476Y-13351476D02*
X11614524Y-13351476D01*
X11633571Y-13361000D01*
X11643095Y-13370524D01*
X11652619Y-13389571D01*
X11662143Y-13427667D01*
X11662143Y-13475286D01*
X11652619Y-13513381D01*
X11643095Y-13532428D01*
X11633571Y-13541952D01*
X11614524Y-13551476D01*
X11595476Y-13551476D01*
X11576428Y-13541952D01*
X11566905Y-13532428D01*
X11557381Y-13513381D01*
X11547857Y-13475286D01*
X11547857Y-13427667D01*
X11557381Y-13389571D01*
X11566905Y-13370524D01*
X11576428Y-13361000D01*
X11595476Y-13351476D01*
X11747857Y-13532428D02*
X11757381Y-13541952D01*
X11747857Y-13551476D01*
X11738333Y-13541952D01*
X11747857Y-13532428D01*
X11747857Y-13551476D01*
X11881190Y-13351476D02*
X11900238Y-13351476D01*
X11919286Y-13361000D01*
X11928809Y-13370524D01*
X11938333Y-13389571D01*
X11947857Y-13427667D01*
X11947857Y-13475286D01*
X11938333Y-13513381D01*
X11928809Y-13532428D01*
X11919286Y-13541952D01*
X11900238Y-13551476D01*
X11881190Y-13551476D01*
X11862143Y-13541952D01*
X11852619Y-13532428D01*
X11843095Y-13513381D01*
X11833571Y-13475286D01*
X11833571Y-13427667D01*
X11843095Y-13389571D01*
X11852619Y-13370524D01*
X11862143Y-13361000D01*
X11881190Y-13351476D01*
X12138333Y-13551476D02*
X12024048Y-13551476D01*
X12081190Y-13551476D02*
X12081190Y-13351476D01*
X12062143Y-13380048D01*
X12043095Y-13399095D01*
X12024048Y-13408619D01*
X12233571Y-13551476D02*
X12271667Y-13551476D01*
X12290714Y-13541952D01*
X12300238Y-13532428D01*
X12319286Y-13503857D01*
X12328809Y-13465762D01*
X12328809Y-13389571D01*
X12319286Y-13370524D01*
X12309762Y-13361000D01*
X12290714Y-13351476D01*
X12252619Y-13351476D01*
X12233571Y-13361000D01*
X12224048Y-13370524D01*
X12214524Y-13389571D01*
X12214524Y-13437190D01*
X12224048Y-13456238D01*
X12233571Y-13465762D01*
X12252619Y-13475286D01*
X12290714Y-13475286D01*
X12309762Y-13465762D01*
X12319286Y-13456238D01*
X12328809Y-13437190D01*
X12395476Y-13351476D02*
X12528809Y-13351476D01*
X12443095Y-13551476D01*
X12595476Y-13351476D02*
X12595476Y-13389571D01*
X12671667Y-13351476D02*
X12671667Y-13389571D01*
X12966905Y-13627667D02*
X12957381Y-13618143D01*
X12938333Y-13589571D01*
X12928809Y-13570524D01*
X12919286Y-13541952D01*
X12909762Y-13494333D01*
X12909762Y-13456238D01*
X12919286Y-13408619D01*
X12928809Y-13380048D01*
X12938333Y-13361000D01*
X12957381Y-13332428D01*
X12966905Y-13322905D01*
X13024048Y-13351476D02*
X13147857Y-13351476D01*
X13081190Y-13427667D01*
X13109762Y-13427667D01*
X13128809Y-13437190D01*
X13138333Y-13446714D01*
X13147857Y-13465762D01*
X13147857Y-13513381D01*
X13138333Y-13532428D01*
X13128809Y-13541952D01*
X13109762Y-13551476D01*
X13052619Y-13551476D01*
X13033571Y-13541952D01*
X13024048Y-13532428D01*
X13319286Y-13418143D02*
X13319286Y-13551476D01*
X13271667Y-13341952D02*
X13224048Y-13484809D01*
X13347857Y-13484809D01*
X13576428Y-13551476D02*
X13576428Y-13351476D01*
X13662143Y-13551476D02*
X13662143Y-13446714D01*
X13652619Y-13427667D01*
X13633571Y-13418143D01*
X13605000Y-13418143D01*
X13585952Y-13427667D01*
X13576428Y-13437190D01*
X13785952Y-13551476D02*
X13766905Y-13541952D01*
X13757381Y-13532428D01*
X13747857Y-13513381D01*
X13747857Y-13456238D01*
X13757381Y-13437190D01*
X13766905Y-13427667D01*
X13785952Y-13418143D01*
X13814524Y-13418143D01*
X13833571Y-13427667D01*
X13843095Y-13437190D01*
X13852619Y-13456238D01*
X13852619Y-13513381D01*
X13843095Y-13532428D01*
X13833571Y-13541952D01*
X13814524Y-13551476D01*
X13785952Y-13551476D01*
X13966905Y-13551476D02*
X13947857Y-13541952D01*
X13938333Y-13522905D01*
X13938333Y-13351476D01*
X14119286Y-13541952D02*
X14100238Y-13551476D01*
X14062143Y-13551476D01*
X14043095Y-13541952D01*
X14033571Y-13522905D01*
X14033571Y-13446714D01*
X14043095Y-13427667D01*
X14062143Y-13418143D01*
X14100238Y-13418143D01*
X14119286Y-13427667D01*
X14128809Y-13446714D01*
X14128809Y-13465762D01*
X14033571Y-13484809D01*
X14205000Y-13541952D02*
X14224048Y-13551476D01*
X14262143Y-13551476D01*
X14281190Y-13541952D01*
X14290714Y-13522905D01*
X14290714Y-13513381D01*
X14281190Y-13494333D01*
X14262143Y-13484809D01*
X14233571Y-13484809D01*
X14214524Y-13475286D01*
X14205000Y-13456238D01*
X14205000Y-13446714D01*
X14214524Y-13427667D01*
X14233571Y-13418143D01*
X14262143Y-13418143D01*
X14281190Y-13427667D01*
X14357381Y-13627667D02*
X14366905Y-13618143D01*
X14385952Y-13589571D01*
X14395476Y-13570524D01*
X14405000Y-13541952D01*
X14414524Y-13494333D01*
X14414524Y-13456238D01*
X14405000Y-13408619D01*
X14395476Y-13380048D01*
X14385952Y-13361000D01*
X14366905Y-13332428D01*
X14357381Y-13322905D01*
D18*
X9345000Y-13700000D02*
X9395000Y-13750000D01*
X9395000Y-13700000D02*
X9345000Y-13750000D01*
X9387678Y-13742678D02*
X9387678Y-13707322D01*
X9352322Y-13707322D01*
X9352322Y-13742678D01*
X9387678Y-13742678D01*
D11*
X9690714Y-13615476D02*
X9709762Y-13615476D01*
X9728810Y-13625000D01*
X9738333Y-13634524D01*
X9747857Y-13653571D01*
X9757381Y-13691667D01*
X9757381Y-13739286D01*
X9747857Y-13777381D01*
X9738333Y-13796428D01*
X9728810Y-13805952D01*
X9709762Y-13815476D01*
X9690714Y-13815476D01*
X9671667Y-13805952D01*
X9662143Y-13796428D01*
X9652619Y-13777381D01*
X9643095Y-13739286D01*
X9643095Y-13691667D01*
X9652619Y-13653571D01*
X9662143Y-13634524D01*
X9671667Y-13625000D01*
X9690714Y-13615476D01*
X9843095Y-13796428D02*
X9852619Y-13805952D01*
X9843095Y-13815476D01*
X9833571Y-13805952D01*
X9843095Y-13796428D01*
X9843095Y-13815476D01*
X10033571Y-13615476D02*
X9938333Y-13615476D01*
X9928810Y-13710714D01*
X9938333Y-13701190D01*
X9957381Y-13691667D01*
X10005000Y-13691667D01*
X10024048Y-13701190D01*
X10033571Y-13710714D01*
X10043095Y-13729762D01*
X10043095Y-13777381D01*
X10033571Y-13796428D01*
X10024048Y-13805952D01*
X10005000Y-13815476D01*
X9957381Y-13815476D01*
X9938333Y-13805952D01*
X9928810Y-13796428D01*
X10166905Y-13615476D02*
X10185952Y-13615476D01*
X10205000Y-13625000D01*
X10214524Y-13634524D01*
X10224048Y-13653571D01*
X10233571Y-13691667D01*
X10233571Y-13739286D01*
X10224048Y-13777381D01*
X10214524Y-13796428D01*
X10205000Y-13805952D01*
X10185952Y-13815476D01*
X10166905Y-13815476D01*
X10147857Y-13805952D01*
X10138333Y-13796428D01*
X10128810Y-13777381D01*
X10119286Y-13739286D01*
X10119286Y-13691667D01*
X10128810Y-13653571D01*
X10138333Y-13634524D01*
X10147857Y-13625000D01*
X10166905Y-13615476D01*
X10357381Y-13615476D02*
X10376429Y-13615476D01*
X10395476Y-13625000D01*
X10405000Y-13634524D01*
X10414524Y-13653571D01*
X10424048Y-13691667D01*
X10424048Y-13739286D01*
X10414524Y-13777381D01*
X10405000Y-13796428D01*
X10395476Y-13805952D01*
X10376429Y-13815476D01*
X10357381Y-13815476D01*
X10338333Y-13805952D01*
X10328810Y-13796428D01*
X10319286Y-13777381D01*
X10309762Y-13739286D01*
X10309762Y-13691667D01*
X10319286Y-13653571D01*
X10328810Y-13634524D01*
X10338333Y-13625000D01*
X10357381Y-13615476D01*
X10509762Y-13815476D02*
X10509762Y-13682143D01*
X10509762Y-13701190D02*
X10519286Y-13691667D01*
X10538333Y-13682143D01*
X10566905Y-13682143D01*
X10585952Y-13691667D01*
X10595476Y-13710714D01*
X10595476Y-13815476D01*
X10595476Y-13710714D02*
X10605000Y-13691667D01*
X10624048Y-13682143D01*
X10652619Y-13682143D01*
X10671667Y-13691667D01*
X10681190Y-13710714D01*
X10681190Y-13815476D01*
X10776429Y-13815476D02*
X10776429Y-13682143D01*
X10776429Y-13701190D02*
X10785952Y-13691667D01*
X10805000Y-13682143D01*
X10833571Y-13682143D01*
X10852619Y-13691667D01*
X10862143Y-13710714D01*
X10862143Y-13815476D01*
X10862143Y-13710714D02*
X10871667Y-13691667D01*
X10890714Y-13682143D01*
X10919286Y-13682143D01*
X10938333Y-13691667D01*
X10947857Y-13710714D01*
X10947857Y-13815476D01*
X11338333Y-13605952D02*
X11166905Y-13863095D01*
X11595476Y-13615476D02*
X11614524Y-13615476D01*
X11633571Y-13625000D01*
X11643095Y-13634524D01*
X11652619Y-13653571D01*
X11662143Y-13691667D01*
X11662143Y-13739286D01*
X11652619Y-13777381D01*
X11643095Y-13796428D01*
X11633571Y-13805952D01*
X11614524Y-13815476D01*
X11595476Y-13815476D01*
X11576428Y-13805952D01*
X11566905Y-13796428D01*
X11557381Y-13777381D01*
X11547857Y-13739286D01*
X11547857Y-13691667D01*
X11557381Y-13653571D01*
X11566905Y-13634524D01*
X11576428Y-13625000D01*
X11595476Y-13615476D01*
X11747857Y-13796428D02*
X11757381Y-13805952D01*
X11747857Y-13815476D01*
X11738333Y-13805952D01*
X11747857Y-13796428D01*
X11747857Y-13815476D01*
X11881190Y-13615476D02*
X11900238Y-13615476D01*
X11919286Y-13625000D01*
X11928809Y-13634524D01*
X11938333Y-13653571D01*
X11947857Y-13691667D01*
X11947857Y-13739286D01*
X11938333Y-13777381D01*
X11928809Y-13796428D01*
X11919286Y-13805952D01*
X11900238Y-13815476D01*
X11881190Y-13815476D01*
X11862143Y-13805952D01*
X11852619Y-13796428D01*
X11843095Y-13777381D01*
X11833571Y-13739286D01*
X11833571Y-13691667D01*
X11843095Y-13653571D01*
X11852619Y-13634524D01*
X11862143Y-13625000D01*
X11881190Y-13615476D01*
X12138333Y-13815476D02*
X12024048Y-13815476D01*
X12081190Y-13815476D02*
X12081190Y-13615476D01*
X12062143Y-13644048D01*
X12043095Y-13663095D01*
X12024048Y-13672619D01*
X12233571Y-13815476D02*
X12271667Y-13815476D01*
X12290714Y-13805952D01*
X12300238Y-13796428D01*
X12319286Y-13767857D01*
X12328809Y-13729762D01*
X12328809Y-13653571D01*
X12319286Y-13634524D01*
X12309762Y-13625000D01*
X12290714Y-13615476D01*
X12252619Y-13615476D01*
X12233571Y-13625000D01*
X12224048Y-13634524D01*
X12214524Y-13653571D01*
X12214524Y-13701190D01*
X12224048Y-13720238D01*
X12233571Y-13729762D01*
X12252619Y-13739286D01*
X12290714Y-13739286D01*
X12309762Y-13729762D01*
X12319286Y-13720238D01*
X12328809Y-13701190D01*
X12395476Y-13615476D02*
X12528809Y-13615476D01*
X12443095Y-13815476D01*
X12595476Y-13615476D02*
X12595476Y-13653571D01*
X12671667Y-13615476D02*
X12671667Y-13653571D01*
X12966905Y-13891667D02*
X12957381Y-13882143D01*
X12938333Y-13853571D01*
X12928809Y-13834524D01*
X12919286Y-13805952D01*
X12909762Y-13758333D01*
X12909762Y-13720238D01*
X12919286Y-13672619D01*
X12928809Y-13644048D01*
X12938333Y-13625000D01*
X12957381Y-13596428D01*
X12966905Y-13586905D01*
X13128809Y-13682143D02*
X13128809Y-13815476D01*
X13081190Y-13605952D02*
X13033571Y-13748809D01*
X13157381Y-13748809D01*
X13385952Y-13815476D02*
X13385952Y-13615476D01*
X13471667Y-13815476D02*
X13471667Y-13710714D01*
X13462143Y-13691667D01*
X13443095Y-13682143D01*
X13414524Y-13682143D01*
X13395476Y-13691667D01*
X13385952Y-13701190D01*
X13595476Y-13815476D02*
X13576428Y-13805952D01*
X13566905Y-13796428D01*
X13557381Y-13777381D01*
X13557381Y-13720238D01*
X13566905Y-13701190D01*
X13576428Y-13691667D01*
X13595476Y-13682143D01*
X13624048Y-13682143D01*
X13643095Y-13691667D01*
X13652619Y-13701190D01*
X13662143Y-13720238D01*
X13662143Y-13777381D01*
X13652619Y-13796428D01*
X13643095Y-13805952D01*
X13624048Y-13815476D01*
X13595476Y-13815476D01*
X13776428Y-13815476D02*
X13757381Y-13805952D01*
X13747857Y-13786905D01*
X13747857Y-13615476D01*
X13928809Y-13805952D02*
X13909762Y-13815476D01*
X13871667Y-13815476D01*
X13852619Y-13805952D01*
X13843095Y-13786905D01*
X13843095Y-13710714D01*
X13852619Y-13691667D01*
X13871667Y-13682143D01*
X13909762Y-13682143D01*
X13928809Y-13691667D01*
X13938333Y-13710714D01*
X13938333Y-13729762D01*
X13843095Y-13748809D01*
X14014524Y-13805952D02*
X14033571Y-13815476D01*
X14071667Y-13815476D01*
X14090714Y-13805952D01*
X14100238Y-13786905D01*
X14100238Y-13777381D01*
X14090714Y-13758333D01*
X14071667Y-13748809D01*
X14043095Y-13748809D01*
X14024048Y-13739286D01*
X14014524Y-13720238D01*
X14014524Y-13710714D01*
X14024048Y-13691667D01*
X14043095Y-13682143D01*
X14071667Y-13682143D01*
X14090714Y-13691667D01*
X14166905Y-13891667D02*
X14176428Y-13882143D01*
X14195476Y-13853571D01*
X14205000Y-13834524D01*
X14214524Y-13805952D01*
X14224048Y-13758333D01*
X14224048Y-13720238D01*
X14214524Y-13672619D01*
X14205000Y-13644048D01*
X14195476Y-13625000D01*
X14176428Y-13596428D01*
X14166905Y-13586905D01*
D19*
X9335000Y-13959000D02*
X9395000Y-14019000D01*
X9395000Y-13959000D02*
X9335000Y-14019000D01*
X9365000Y-14019000D02*
X9395000Y-13989000D01*
X9365000Y-13959000D01*
X9335000Y-13989000D01*
X9365000Y-14019000D01*
D11*
X9690714Y-13879476D02*
X9709762Y-13879476D01*
X9728810Y-13889000D01*
X9738333Y-13898524D01*
X9747857Y-13917571D01*
X9757381Y-13955667D01*
X9757381Y-14003286D01*
X9747857Y-14041381D01*
X9738333Y-14060428D01*
X9728810Y-14069952D01*
X9709762Y-14079476D01*
X9690714Y-14079476D01*
X9671667Y-14069952D01*
X9662143Y-14060428D01*
X9652619Y-14041381D01*
X9643095Y-14003286D01*
X9643095Y-13955667D01*
X9652619Y-13917571D01*
X9662143Y-13898524D01*
X9671667Y-13889000D01*
X9690714Y-13879476D01*
X9843095Y-14060428D02*
X9852619Y-14069952D01*
X9843095Y-14079476D01*
X9833571Y-14069952D01*
X9843095Y-14060428D01*
X9843095Y-14079476D01*
X10024048Y-13879476D02*
X9985952Y-13879476D01*
X9966905Y-13889000D01*
X9957381Y-13898524D01*
X9938333Y-13927095D01*
X9928810Y-13965190D01*
X9928810Y-14041381D01*
X9938333Y-14060428D01*
X9947857Y-14069952D01*
X9966905Y-14079476D01*
X10005000Y-14079476D01*
X10024048Y-14069952D01*
X10033571Y-14060428D01*
X10043095Y-14041381D01*
X10043095Y-13993762D01*
X10033571Y-13974714D01*
X10024048Y-13965190D01*
X10005000Y-13955667D01*
X9966905Y-13955667D01*
X9947857Y-13965190D01*
X9938333Y-13974714D01*
X9928810Y-13993762D01*
X10166905Y-13879476D02*
X10185952Y-13879476D01*
X10205000Y-13889000D01*
X10214524Y-13898524D01*
X10224048Y-13917571D01*
X10233571Y-13955667D01*
X10233571Y-14003286D01*
X10224048Y-14041381D01*
X10214524Y-14060428D01*
X10205000Y-14069952D01*
X10185952Y-14079476D01*
X10166905Y-14079476D01*
X10147857Y-14069952D01*
X10138333Y-14060428D01*
X10128810Y-14041381D01*
X10119286Y-14003286D01*
X10119286Y-13955667D01*
X10128810Y-13917571D01*
X10138333Y-13898524D01*
X10147857Y-13889000D01*
X10166905Y-13879476D01*
X10357381Y-13879476D02*
X10376429Y-13879476D01*
X10395476Y-13889000D01*
X10405000Y-13898524D01*
X10414524Y-13917571D01*
X10424048Y-13955667D01*
X10424048Y-14003286D01*
X10414524Y-14041381D01*
X10405000Y-14060428D01*
X10395476Y-14069952D01*
X10376429Y-14079476D01*
X10357381Y-14079476D01*
X10338333Y-14069952D01*
X10328810Y-14060428D01*
X10319286Y-14041381D01*
X10309762Y-14003286D01*
X10309762Y-13955667D01*
X10319286Y-13917571D01*
X10328810Y-13898524D01*
X10338333Y-13889000D01*
X10357381Y-13879476D01*
X10509762Y-14079476D02*
X10509762Y-13946143D01*
X10509762Y-13965190D02*
X10519286Y-13955667D01*
X10538333Y-13946143D01*
X10566905Y-13946143D01*
X10585952Y-13955667D01*
X10595476Y-13974714D01*
X10595476Y-14079476D01*
X10595476Y-13974714D02*
X10605000Y-13955667D01*
X10624048Y-13946143D01*
X10652619Y-13946143D01*
X10671667Y-13955667D01*
X10681190Y-13974714D01*
X10681190Y-14079476D01*
X10776429Y-14079476D02*
X10776429Y-13946143D01*
X10776429Y-13965190D02*
X10785952Y-13955667D01*
X10805000Y-13946143D01*
X10833571Y-13946143D01*
X10852619Y-13955667D01*
X10862143Y-13974714D01*
X10862143Y-14079476D01*
X10862143Y-13974714D02*
X10871667Y-13955667D01*
X10890714Y-13946143D01*
X10919286Y-13946143D01*
X10938333Y-13955667D01*
X10947857Y-13974714D01*
X10947857Y-14079476D01*
X11338333Y-13869952D02*
X11166905Y-14127095D01*
X11595476Y-13879476D02*
X11614524Y-13879476D01*
X11633571Y-13889000D01*
X11643095Y-13898524D01*
X11652619Y-13917571D01*
X11662143Y-13955667D01*
X11662143Y-14003286D01*
X11652619Y-14041381D01*
X11643095Y-14060428D01*
X11633571Y-14069952D01*
X11614524Y-14079476D01*
X11595476Y-14079476D01*
X11576428Y-14069952D01*
X11566905Y-14060428D01*
X11557381Y-14041381D01*
X11547857Y-14003286D01*
X11547857Y-13955667D01*
X11557381Y-13917571D01*
X11566905Y-13898524D01*
X11576428Y-13889000D01*
X11595476Y-13879476D01*
X11747857Y-14060428D02*
X11757381Y-14069952D01*
X11747857Y-14079476D01*
X11738333Y-14069952D01*
X11747857Y-14060428D01*
X11747857Y-14079476D01*
X11881190Y-13879476D02*
X11900238Y-13879476D01*
X11919286Y-13889000D01*
X11928809Y-13898524D01*
X11938333Y-13917571D01*
X11947857Y-13955667D01*
X11947857Y-14003286D01*
X11938333Y-14041381D01*
X11928809Y-14060428D01*
X11919286Y-14069952D01*
X11900238Y-14079476D01*
X11881190Y-14079476D01*
X11862143Y-14069952D01*
X11852619Y-14060428D01*
X11843095Y-14041381D01*
X11833571Y-14003286D01*
X11833571Y-13955667D01*
X11843095Y-13917571D01*
X11852619Y-13898524D01*
X11862143Y-13889000D01*
X11881190Y-13879476D01*
X12024048Y-13898524D02*
X12033571Y-13889000D01*
X12052619Y-13879476D01*
X12100238Y-13879476D01*
X12119286Y-13889000D01*
X12128809Y-13898524D01*
X12138333Y-13917571D01*
X12138333Y-13936619D01*
X12128809Y-13965190D01*
X12014524Y-14079476D01*
X12138333Y-14079476D01*
X12205000Y-13879476D02*
X12328809Y-13879476D01*
X12262143Y-13955667D01*
X12290714Y-13955667D01*
X12309762Y-13965190D01*
X12319286Y-13974714D01*
X12328809Y-13993762D01*
X12328809Y-14041381D01*
X12319286Y-14060428D01*
X12309762Y-14069952D01*
X12290714Y-14079476D01*
X12233571Y-14079476D01*
X12214524Y-14069952D01*
X12205000Y-14060428D01*
X12500238Y-13879476D02*
X12462143Y-13879476D01*
X12443095Y-13889000D01*
X12433571Y-13898524D01*
X12414524Y-13927095D01*
X12405000Y-13965190D01*
X12405000Y-14041381D01*
X12414524Y-14060428D01*
X12424048Y-14069952D01*
X12443095Y-14079476D01*
X12481190Y-14079476D01*
X12500238Y-14069952D01*
X12509762Y-14060428D01*
X12519286Y-14041381D01*
X12519286Y-13993762D01*
X12509762Y-13974714D01*
X12500238Y-13965190D01*
X12481190Y-13955667D01*
X12443095Y-13955667D01*
X12424048Y-13965190D01*
X12414524Y-13974714D01*
X12405000Y-13993762D01*
X12595476Y-13879476D02*
X12595476Y-13917571D01*
X12671667Y-13879476D02*
X12671667Y-13917571D01*
X12966905Y-14155667D02*
X12957381Y-14146143D01*
X12938333Y-14117571D01*
X12928809Y-14098524D01*
X12919286Y-14069952D01*
X12909762Y-14022333D01*
X12909762Y-13984238D01*
X12919286Y-13936619D01*
X12928809Y-13908048D01*
X12938333Y-13889000D01*
X12957381Y-13860428D01*
X12966905Y-13850905D01*
X13147857Y-14079476D02*
X13033571Y-14079476D01*
X13090714Y-14079476D02*
X13090714Y-13879476D01*
X13071667Y-13908048D01*
X13052619Y-13927095D01*
X13033571Y-13936619D01*
X13385952Y-14079476D02*
X13385952Y-13879476D01*
X13471667Y-14079476D02*
X13471667Y-13974714D01*
X13462143Y-13955667D01*
X13443095Y-13946143D01*
X13414524Y-13946143D01*
X13395476Y-13955667D01*
X13385952Y-13965190D01*
X13595476Y-14079476D02*
X13576428Y-14069952D01*
X13566905Y-14060428D01*
X13557381Y-14041381D01*
X13557381Y-13984238D01*
X13566905Y-13965190D01*
X13576428Y-13955667D01*
X13595476Y-13946143D01*
X13624048Y-13946143D01*
X13643095Y-13955667D01*
X13652619Y-13965190D01*
X13662143Y-13984238D01*
X13662143Y-14041381D01*
X13652619Y-14060428D01*
X13643095Y-14069952D01*
X13624048Y-14079476D01*
X13595476Y-14079476D01*
X13776428Y-14079476D02*
X13757381Y-14069952D01*
X13747857Y-14050905D01*
X13747857Y-13879476D01*
X13928809Y-14069952D02*
X13909762Y-14079476D01*
X13871667Y-14079476D01*
X13852619Y-14069952D01*
X13843095Y-14050905D01*
X13843095Y-13974714D01*
X13852619Y-13955667D01*
X13871667Y-13946143D01*
X13909762Y-13946143D01*
X13928809Y-13955667D01*
X13938333Y-13974714D01*
X13938333Y-13993762D01*
X13843095Y-14012809D01*
X14005000Y-14155667D02*
X14014524Y-14146143D01*
X14033571Y-14117571D01*
X14043095Y-14098524D01*
X14052619Y-14069952D01*
X14062143Y-14022333D01*
X14062143Y-13984238D01*
X14052619Y-13936619D01*
X14043095Y-13908048D01*
X14033571Y-13889000D01*
X14014524Y-13860428D01*
X14005000Y-13850905D01*
D20*
X9345000Y-14203000D02*
X9345000Y-14303000D01*
X9295000Y-14253000D02*
X9395000Y-14253000D01*
X9395000Y-14253000D02*
G75*
G03*
X9395000Y-14253000I-50000J0D01*
G01*
D11*
X9757381Y-14343476D02*
X9643095Y-14343476D01*
X9700238Y-14343476D02*
X9700238Y-14143476D01*
X9681190Y-14172048D01*
X9662143Y-14191095D01*
X9643095Y-14200619D01*
X9843095Y-14324428D02*
X9852619Y-14333952D01*
X9843095Y-14343476D01*
X9833571Y-14333952D01*
X9843095Y-14324428D01*
X9843095Y-14343476D01*
X9976429Y-14143476D02*
X9995476Y-14143476D01*
X10014524Y-14153000D01*
X10024048Y-14162524D01*
X10033571Y-14181571D01*
X10043095Y-14219667D01*
X10043095Y-14267286D01*
X10033571Y-14305381D01*
X10024048Y-14324428D01*
X10014524Y-14333952D01*
X9995476Y-14343476D01*
X9976429Y-14343476D01*
X9957381Y-14333952D01*
X9947857Y-14324428D01*
X9938333Y-14305381D01*
X9928810Y-14267286D01*
X9928810Y-14219667D01*
X9938333Y-14181571D01*
X9947857Y-14162524D01*
X9957381Y-14153000D01*
X9976429Y-14143476D01*
X10166905Y-14143476D02*
X10185952Y-14143476D01*
X10205000Y-14153000D01*
X10214524Y-14162524D01*
X10224048Y-14181571D01*
X10233571Y-14219667D01*
X10233571Y-14267286D01*
X10224048Y-14305381D01*
X10214524Y-14324428D01*
X10205000Y-14333952D01*
X10185952Y-14343476D01*
X10166905Y-14343476D01*
X10147857Y-14333952D01*
X10138333Y-14324428D01*
X10128810Y-14305381D01*
X10119286Y-14267286D01*
X10119286Y-14219667D01*
X10128810Y-14181571D01*
X10138333Y-14162524D01*
X10147857Y-14153000D01*
X10166905Y-14143476D01*
X10357381Y-14143476D02*
X10376429Y-14143476D01*
X10395476Y-14153000D01*
X10405000Y-14162524D01*
X10414524Y-14181571D01*
X10424048Y-14219667D01*
X10424048Y-14267286D01*
X10414524Y-14305381D01*
X10405000Y-14324428D01*
X10395476Y-14333952D01*
X10376429Y-14343476D01*
X10357381Y-14343476D01*
X10338333Y-14333952D01*
X10328810Y-14324428D01*
X10319286Y-14305381D01*
X10309762Y-14267286D01*
X10309762Y-14219667D01*
X10319286Y-14181571D01*
X10328810Y-14162524D01*
X10338333Y-14153000D01*
X10357381Y-14143476D01*
X10509762Y-14343476D02*
X10509762Y-14210143D01*
X10509762Y-14229190D02*
X10519286Y-14219667D01*
X10538333Y-14210143D01*
X10566905Y-14210143D01*
X10585952Y-14219667D01*
X10595476Y-14238714D01*
X10595476Y-14343476D01*
X10595476Y-14238714D02*
X10605000Y-14219667D01*
X10624048Y-14210143D01*
X10652619Y-14210143D01*
X10671667Y-14219667D01*
X10681190Y-14238714D01*
X10681190Y-14343476D01*
X10776429Y-14343476D02*
X10776429Y-14210143D01*
X10776429Y-14229190D02*
X10785952Y-14219667D01*
X10805000Y-14210143D01*
X10833571Y-14210143D01*
X10852619Y-14219667D01*
X10862143Y-14238714D01*
X10862143Y-14343476D01*
X10862143Y-14238714D02*
X10871667Y-14219667D01*
X10890714Y-14210143D01*
X10919286Y-14210143D01*
X10938333Y-14219667D01*
X10947857Y-14238714D01*
X10947857Y-14343476D01*
X11338333Y-14133952D02*
X11166905Y-14391095D01*
X11595476Y-14143476D02*
X11614524Y-14143476D01*
X11633571Y-14153000D01*
X11643095Y-14162524D01*
X11652619Y-14181571D01*
X11662143Y-14219667D01*
X11662143Y-14267286D01*
X11652619Y-14305381D01*
X11643095Y-14324428D01*
X11633571Y-14333952D01*
X11614524Y-14343476D01*
X11595476Y-14343476D01*
X11576428Y-14333952D01*
X11566905Y-14324428D01*
X11557381Y-14305381D01*
X11547857Y-14267286D01*
X11547857Y-14219667D01*
X11557381Y-14181571D01*
X11566905Y-14162524D01*
X11576428Y-14153000D01*
X11595476Y-14143476D01*
X11747857Y-14324428D02*
X11757381Y-14333952D01*
X11747857Y-14343476D01*
X11738333Y-14333952D01*
X11747857Y-14324428D01*
X11747857Y-14343476D01*
X11881190Y-14143476D02*
X11900238Y-14143476D01*
X11919286Y-14153000D01*
X11928809Y-14162524D01*
X11938333Y-14181571D01*
X11947857Y-14219667D01*
X11947857Y-14267286D01*
X11938333Y-14305381D01*
X11928809Y-14324428D01*
X11919286Y-14333952D01*
X11900238Y-14343476D01*
X11881190Y-14343476D01*
X11862143Y-14333952D01*
X11852619Y-14324428D01*
X11843095Y-14305381D01*
X11833571Y-14267286D01*
X11833571Y-14219667D01*
X11843095Y-14181571D01*
X11852619Y-14162524D01*
X11862143Y-14153000D01*
X11881190Y-14143476D01*
X12014524Y-14143476D02*
X12138333Y-14143476D01*
X12071667Y-14219667D01*
X12100238Y-14219667D01*
X12119286Y-14229190D01*
X12128809Y-14238714D01*
X12138333Y-14257762D01*
X12138333Y-14305381D01*
X12128809Y-14324428D01*
X12119286Y-14333952D01*
X12100238Y-14343476D01*
X12043095Y-14343476D01*
X12024048Y-14333952D01*
X12014524Y-14324428D01*
X12233571Y-14343476D02*
X12271667Y-14343476D01*
X12290714Y-14333952D01*
X12300238Y-14324428D01*
X12319286Y-14295857D01*
X12328809Y-14257762D01*
X12328809Y-14181571D01*
X12319286Y-14162524D01*
X12309762Y-14153000D01*
X12290714Y-14143476D01*
X12252619Y-14143476D01*
X12233571Y-14153000D01*
X12224048Y-14162524D01*
X12214524Y-14181571D01*
X12214524Y-14229190D01*
X12224048Y-14248238D01*
X12233571Y-14257762D01*
X12252619Y-14267286D01*
X12290714Y-14267286D01*
X12309762Y-14257762D01*
X12319286Y-14248238D01*
X12328809Y-14229190D01*
X12500238Y-14210143D02*
X12500238Y-14343476D01*
X12452619Y-14133952D02*
X12405000Y-14276809D01*
X12528809Y-14276809D01*
X12595476Y-14143476D02*
X12595476Y-14181571D01*
X12671667Y-14143476D02*
X12671667Y-14181571D01*
X12966905Y-14419667D02*
X12957381Y-14410143D01*
X12938333Y-14381571D01*
X12928809Y-14362524D01*
X12919286Y-14333952D01*
X12909762Y-14286333D01*
X12909762Y-14248238D01*
X12919286Y-14200619D01*
X12928809Y-14172048D01*
X12938333Y-14153000D01*
X12957381Y-14124428D01*
X12966905Y-14114905D01*
X13138333Y-14143476D02*
X13043095Y-14143476D01*
X13033571Y-14238714D01*
X13043095Y-14229190D01*
X13062143Y-14219667D01*
X13109762Y-14219667D01*
X13128809Y-14229190D01*
X13138333Y-14238714D01*
X13147857Y-14257762D01*
X13147857Y-14305381D01*
X13138333Y-14324428D01*
X13128809Y-14333952D01*
X13109762Y-14343476D01*
X13062143Y-14343476D01*
X13043095Y-14333952D01*
X13033571Y-14324428D01*
X13385952Y-14343476D02*
X13385952Y-14143476D01*
X13471667Y-14343476D02*
X13471667Y-14238714D01*
X13462143Y-14219667D01*
X13443095Y-14210143D01*
X13414524Y-14210143D01*
X13395476Y-14219667D01*
X13385952Y-14229190D01*
X13595476Y-14343476D02*
X13576428Y-14333952D01*
X13566905Y-14324428D01*
X13557381Y-14305381D01*
X13557381Y-14248238D01*
X13566905Y-14229190D01*
X13576428Y-14219667D01*
X13595476Y-14210143D01*
X13624048Y-14210143D01*
X13643095Y-14219667D01*
X13652619Y-14229190D01*
X13662143Y-14248238D01*
X13662143Y-14305381D01*
X13652619Y-14324428D01*
X13643095Y-14333952D01*
X13624048Y-14343476D01*
X13595476Y-14343476D01*
X13776428Y-14343476D02*
X13757381Y-14333952D01*
X13747857Y-14314905D01*
X13747857Y-14143476D01*
X13928809Y-14333952D02*
X13909762Y-14343476D01*
X13871667Y-14343476D01*
X13852619Y-14333952D01*
X13843095Y-14314905D01*
X13843095Y-14238714D01*
X13852619Y-14219667D01*
X13871667Y-14210143D01*
X13909762Y-14210143D01*
X13928809Y-14219667D01*
X13938333Y-14238714D01*
X13938333Y-14257762D01*
X13843095Y-14276809D01*
X14014524Y-14333952D02*
X14033571Y-14343476D01*
X14071667Y-14343476D01*
X14090714Y-14333952D01*
X14100238Y-14314905D01*
X14100238Y-14305381D01*
X14090714Y-14286333D01*
X14071667Y-14276809D01*
X14043095Y-14276809D01*
X14024048Y-14267286D01*
X14014524Y-14248238D01*
X14014524Y-14238714D01*
X14024048Y-14219667D01*
X14043095Y-14210143D01*
X14071667Y-14210143D01*
X14090714Y-14219667D01*
X14166905Y-14419667D02*
X14176428Y-14410143D01*
X14195476Y-14381571D01*
X14205000Y-14362524D01*
X14214524Y-14333952D01*
X14224048Y-14286333D01*
X14224048Y-14248238D01*
X14214524Y-14200619D01*
X14205000Y-14172048D01*
X14195476Y-14153000D01*
X14176428Y-14124428D01*
X14166905Y-14114905D01*
D21*
X9380121Y-14552921D02*
X9380121Y-14481079D01*
X9308279Y-14481079D01*
X9308279Y-14552921D01*
X9380121Y-14552921D01*
X9395000Y-14517000D02*
G75*
G03*
X9395000Y-14517000I-50800J0D01*
G01*
D11*
X9757381Y-14607476D02*
X9643095Y-14607476D01*
X9700238Y-14607476D02*
X9700238Y-14407476D01*
X9681190Y-14436048D01*
X9662143Y-14455095D01*
X9643095Y-14464619D01*
X9843095Y-14588428D02*
X9852619Y-14597952D01*
X9843095Y-14607476D01*
X9833571Y-14597952D01*
X9843095Y-14588428D01*
X9843095Y-14607476D01*
X9976429Y-14407476D02*
X9995476Y-14407476D01*
X10014524Y-14417000D01*
X10024048Y-14426524D01*
X10033571Y-14445571D01*
X10043095Y-14483667D01*
X10043095Y-14531286D01*
X10033571Y-14569381D01*
X10024048Y-14588428D01*
X10014524Y-14597952D01*
X9995476Y-14607476D01*
X9976429Y-14607476D01*
X9957381Y-14597952D01*
X9947857Y-14588428D01*
X9938333Y-14569381D01*
X9928810Y-14531286D01*
X9928810Y-14483667D01*
X9938333Y-14445571D01*
X9947857Y-14426524D01*
X9957381Y-14417000D01*
X9976429Y-14407476D01*
X10233571Y-14607476D02*
X10119286Y-14607476D01*
X10176429Y-14607476D02*
X10176429Y-14407476D01*
X10157381Y-14436048D01*
X10138333Y-14455095D01*
X10119286Y-14464619D01*
X10405000Y-14407476D02*
X10366905Y-14407476D01*
X10347857Y-14417000D01*
X10338333Y-14426524D01*
X10319286Y-14455095D01*
X10309762Y-14493190D01*
X10309762Y-14569381D01*
X10319286Y-14588428D01*
X10328810Y-14597952D01*
X10347857Y-14607476D01*
X10385952Y-14607476D01*
X10405000Y-14597952D01*
X10414524Y-14588428D01*
X10424048Y-14569381D01*
X10424048Y-14521762D01*
X10414524Y-14502714D01*
X10405000Y-14493190D01*
X10385952Y-14483667D01*
X10347857Y-14483667D01*
X10328810Y-14493190D01*
X10319286Y-14502714D01*
X10309762Y-14521762D01*
X10509762Y-14607476D02*
X10509762Y-14474143D01*
X10509762Y-14493190D02*
X10519286Y-14483667D01*
X10538333Y-14474143D01*
X10566905Y-14474143D01*
X10585952Y-14483667D01*
X10595476Y-14502714D01*
X10595476Y-14607476D01*
X10595476Y-14502714D02*
X10605000Y-14483667D01*
X10624048Y-14474143D01*
X10652619Y-14474143D01*
X10671667Y-14483667D01*
X10681190Y-14502714D01*
X10681190Y-14607476D01*
X10776429Y-14607476D02*
X10776429Y-14474143D01*
X10776429Y-14493190D02*
X10785952Y-14483667D01*
X10805000Y-14474143D01*
X10833571Y-14474143D01*
X10852619Y-14483667D01*
X10862143Y-14502714D01*
X10862143Y-14607476D01*
X10862143Y-14502714D02*
X10871667Y-14483667D01*
X10890714Y-14474143D01*
X10919286Y-14474143D01*
X10938333Y-14483667D01*
X10947857Y-14502714D01*
X10947857Y-14607476D01*
X11338333Y-14397952D02*
X11166905Y-14655095D01*
X11595476Y-14407476D02*
X11614524Y-14407476D01*
X11633571Y-14417000D01*
X11643095Y-14426524D01*
X11652619Y-14445571D01*
X11662143Y-14483667D01*
X11662143Y-14531286D01*
X11652619Y-14569381D01*
X11643095Y-14588428D01*
X11633571Y-14597952D01*
X11614524Y-14607476D01*
X11595476Y-14607476D01*
X11576428Y-14597952D01*
X11566905Y-14588428D01*
X11557381Y-14569381D01*
X11547857Y-14531286D01*
X11547857Y-14483667D01*
X11557381Y-14445571D01*
X11566905Y-14426524D01*
X11576428Y-14417000D01*
X11595476Y-14407476D01*
X11747857Y-14588428D02*
X11757381Y-14597952D01*
X11747857Y-14607476D01*
X11738333Y-14597952D01*
X11747857Y-14588428D01*
X11747857Y-14607476D01*
X11881190Y-14407476D02*
X11900238Y-14407476D01*
X11919286Y-14417000D01*
X11928809Y-14426524D01*
X11938333Y-14445571D01*
X11947857Y-14483667D01*
X11947857Y-14531286D01*
X11938333Y-14569381D01*
X11928809Y-14588428D01*
X11919286Y-14597952D01*
X11900238Y-14607476D01*
X11881190Y-14607476D01*
X11862143Y-14597952D01*
X11852619Y-14588428D01*
X11843095Y-14569381D01*
X11833571Y-14531286D01*
X11833571Y-14483667D01*
X11843095Y-14445571D01*
X11852619Y-14426524D01*
X11862143Y-14417000D01*
X11881190Y-14407476D01*
X12119286Y-14474143D02*
X12119286Y-14607476D01*
X12071667Y-14397952D02*
X12024048Y-14540809D01*
X12147857Y-14540809D01*
X12262143Y-14407476D02*
X12281190Y-14407476D01*
X12300238Y-14417000D01*
X12309762Y-14426524D01*
X12319286Y-14445571D01*
X12328809Y-14483667D01*
X12328809Y-14531286D01*
X12319286Y-14569381D01*
X12309762Y-14588428D01*
X12300238Y-14597952D01*
X12281190Y-14607476D01*
X12262143Y-14607476D01*
X12243095Y-14597952D01*
X12233571Y-14588428D01*
X12224048Y-14569381D01*
X12214524Y-14531286D01*
X12214524Y-14483667D01*
X12224048Y-14445571D01*
X12233571Y-14426524D01*
X12243095Y-14417000D01*
X12262143Y-14407476D01*
X12452619Y-14407476D02*
X12471667Y-14407476D01*
X12490714Y-14417000D01*
X12500238Y-14426524D01*
X12509762Y-14445571D01*
X12519286Y-14483667D01*
X12519286Y-14531286D01*
X12509762Y-14569381D01*
X12500238Y-14588428D01*
X12490714Y-14597952D01*
X12471667Y-14607476D01*
X12452619Y-14607476D01*
X12433571Y-14597952D01*
X12424048Y-14588428D01*
X12414524Y-14569381D01*
X12405000Y-14531286D01*
X12405000Y-14483667D01*
X12414524Y-14445571D01*
X12424048Y-14426524D01*
X12433571Y-14417000D01*
X12452619Y-14407476D01*
X12595476Y-14407476D02*
X12595476Y-14445571D01*
X12671667Y-14407476D02*
X12671667Y-14445571D01*
X12966905Y-14683667D02*
X12957381Y-14674143D01*
X12938333Y-14645571D01*
X12928809Y-14626524D01*
X12919286Y-14597952D01*
X12909762Y-14550333D01*
X12909762Y-14512238D01*
X12919286Y-14464619D01*
X12928809Y-14436048D01*
X12938333Y-14417000D01*
X12957381Y-14388428D01*
X12966905Y-14378905D01*
X13052619Y-14607476D02*
X13090714Y-14607476D01*
X13109762Y-14597952D01*
X13119286Y-14588428D01*
X13138333Y-14559857D01*
X13147857Y-14521762D01*
X13147857Y-14445571D01*
X13138333Y-14426524D01*
X13128809Y-14417000D01*
X13109762Y-14407476D01*
X13071667Y-14407476D01*
X13052619Y-14417000D01*
X13043095Y-14426524D01*
X13033571Y-14445571D01*
X13033571Y-14493190D01*
X13043095Y-14512238D01*
X13052619Y-14521762D01*
X13071667Y-14531286D01*
X13109762Y-14531286D01*
X13128809Y-14521762D01*
X13138333Y-14512238D01*
X13147857Y-14493190D01*
X13319286Y-14474143D02*
X13319286Y-14607476D01*
X13271667Y-14397952D02*
X13224048Y-14540809D01*
X13347857Y-14540809D01*
X13576428Y-14607476D02*
X13576428Y-14407476D01*
X13662143Y-14607476D02*
X13662143Y-14502714D01*
X13652619Y-14483667D01*
X13633571Y-14474143D01*
X13605000Y-14474143D01*
X13585952Y-14483667D01*
X13576428Y-14493190D01*
X13785952Y-14607476D02*
X13766905Y-14597952D01*
X13757381Y-14588428D01*
X13747857Y-14569381D01*
X13747857Y-14512238D01*
X13757381Y-14493190D01*
X13766905Y-14483667D01*
X13785952Y-14474143D01*
X13814524Y-14474143D01*
X13833571Y-14483667D01*
X13843095Y-14493190D01*
X13852619Y-14512238D01*
X13852619Y-14569381D01*
X13843095Y-14588428D01*
X13833571Y-14597952D01*
X13814524Y-14607476D01*
X13785952Y-14607476D01*
X13966905Y-14607476D02*
X13947857Y-14597952D01*
X13938333Y-14578905D01*
X13938333Y-14407476D01*
X14119286Y-14597952D02*
X14100238Y-14607476D01*
X14062143Y-14607476D01*
X14043095Y-14597952D01*
X14033571Y-14578905D01*
X14033571Y-14502714D01*
X14043095Y-14483667D01*
X14062143Y-14474143D01*
X14100238Y-14474143D01*
X14119286Y-14483667D01*
X14128809Y-14502714D01*
X14128809Y-14521762D01*
X14033571Y-14540809D01*
X14205000Y-14597952D02*
X14224048Y-14607476D01*
X14262143Y-14607476D01*
X14281190Y-14597952D01*
X14290714Y-14578905D01*
X14290714Y-14569381D01*
X14281190Y-14550333D01*
X14262143Y-14540809D01*
X14233571Y-14540809D01*
X14214524Y-14531286D01*
X14205000Y-14512238D01*
X14205000Y-14502714D01*
X14214524Y-14483667D01*
X14233571Y-14474143D01*
X14262143Y-14474143D01*
X14281190Y-14483667D01*
X14357381Y-14683667D02*
X14366905Y-14674143D01*
X14385952Y-14645571D01*
X14395476Y-14626524D01*
X14405000Y-14597952D01*
X14414524Y-14550333D01*
X14414524Y-14512238D01*
X14405000Y-14464619D01*
X14395476Y-14436048D01*
X14385952Y-14417000D01*
X14366905Y-14388428D01*
X14357381Y-14378905D01*
D22*
X9330000Y-14846000D02*
X9395000Y-14781000D01*
X9330000Y-14716000D01*
X9265000Y-14781000D01*
X9330000Y-14846000D01*
X9395000Y-14781000D02*
G75*
G03*
X9395000Y-14781000I-65000J0D01*
G01*
D11*
X9757381Y-14871476D02*
X9643095Y-14871476D01*
X9700238Y-14871476D02*
X9700238Y-14671476D01*
X9681190Y-14700048D01*
X9662143Y-14719095D01*
X9643095Y-14728619D01*
X9843095Y-14852428D02*
X9852619Y-14861952D01*
X9843095Y-14871476D01*
X9833571Y-14861952D01*
X9843095Y-14852428D01*
X9843095Y-14871476D01*
X9919286Y-14671476D02*
X10043095Y-14671476D01*
X9976429Y-14747667D01*
X10005000Y-14747667D01*
X10024048Y-14757190D01*
X10033571Y-14766714D01*
X10043095Y-14785762D01*
X10043095Y-14833381D01*
X10033571Y-14852428D01*
X10024048Y-14861952D01*
X10005000Y-14871476D01*
X9947857Y-14871476D01*
X9928810Y-14861952D01*
X9919286Y-14852428D01*
X10166905Y-14671476D02*
X10185952Y-14671476D01*
X10205000Y-14681000D01*
X10214524Y-14690524D01*
X10224048Y-14709571D01*
X10233571Y-14747667D01*
X10233571Y-14795286D01*
X10224048Y-14833381D01*
X10214524Y-14852428D01*
X10205000Y-14861952D01*
X10185952Y-14871476D01*
X10166905Y-14871476D01*
X10147857Y-14861952D01*
X10138333Y-14852428D01*
X10128810Y-14833381D01*
X10119286Y-14795286D01*
X10119286Y-14747667D01*
X10128810Y-14709571D01*
X10138333Y-14690524D01*
X10147857Y-14681000D01*
X10166905Y-14671476D01*
X10357381Y-14671476D02*
X10376429Y-14671476D01*
X10395476Y-14681000D01*
X10405000Y-14690524D01*
X10414524Y-14709571D01*
X10424048Y-14747667D01*
X10424048Y-14795286D01*
X10414524Y-14833381D01*
X10405000Y-14852428D01*
X10395476Y-14861952D01*
X10376429Y-14871476D01*
X10357381Y-14871476D01*
X10338333Y-14861952D01*
X10328810Y-14852428D01*
X10319286Y-14833381D01*
X10309762Y-14795286D01*
X10309762Y-14747667D01*
X10319286Y-14709571D01*
X10328810Y-14690524D01*
X10338333Y-14681000D01*
X10357381Y-14671476D01*
X10509762Y-14871476D02*
X10509762Y-14738143D01*
X10509762Y-14757190D02*
X10519286Y-14747667D01*
X10538333Y-14738143D01*
X10566905Y-14738143D01*
X10585952Y-14747667D01*
X10595476Y-14766714D01*
X10595476Y-14871476D01*
X10595476Y-14766714D02*
X10605000Y-14747667D01*
X10624048Y-14738143D01*
X10652619Y-14738143D01*
X10671667Y-14747667D01*
X10681190Y-14766714D01*
X10681190Y-14871476D01*
X10776429Y-14871476D02*
X10776429Y-14738143D01*
X10776429Y-14757190D02*
X10785952Y-14747667D01*
X10805000Y-14738143D01*
X10833571Y-14738143D01*
X10852619Y-14747667D01*
X10862143Y-14766714D01*
X10862143Y-14871476D01*
X10862143Y-14766714D02*
X10871667Y-14747667D01*
X10890714Y-14738143D01*
X10919286Y-14738143D01*
X10938333Y-14747667D01*
X10947857Y-14766714D01*
X10947857Y-14871476D01*
X11338333Y-14661952D02*
X11166905Y-14919095D01*
X11595476Y-14671476D02*
X11614524Y-14671476D01*
X11633571Y-14681000D01*
X11643095Y-14690524D01*
X11652619Y-14709571D01*
X11662143Y-14747667D01*
X11662143Y-14795286D01*
X11652619Y-14833381D01*
X11643095Y-14852428D01*
X11633571Y-14861952D01*
X11614524Y-14871476D01*
X11595476Y-14871476D01*
X11576428Y-14861952D01*
X11566905Y-14852428D01*
X11557381Y-14833381D01*
X11547857Y-14795286D01*
X11547857Y-14747667D01*
X11557381Y-14709571D01*
X11566905Y-14690524D01*
X11576428Y-14681000D01*
X11595476Y-14671476D01*
X11747857Y-14852428D02*
X11757381Y-14861952D01*
X11747857Y-14871476D01*
X11738333Y-14861952D01*
X11747857Y-14852428D01*
X11747857Y-14871476D01*
X11881190Y-14671476D02*
X11900238Y-14671476D01*
X11919286Y-14681000D01*
X11928809Y-14690524D01*
X11938333Y-14709571D01*
X11947857Y-14747667D01*
X11947857Y-14795286D01*
X11938333Y-14833381D01*
X11928809Y-14852428D01*
X11919286Y-14861952D01*
X11900238Y-14871476D01*
X11881190Y-14871476D01*
X11862143Y-14861952D01*
X11852619Y-14852428D01*
X11843095Y-14833381D01*
X11833571Y-14795286D01*
X11833571Y-14747667D01*
X11843095Y-14709571D01*
X11852619Y-14690524D01*
X11862143Y-14681000D01*
X11881190Y-14671476D01*
X12128809Y-14671476D02*
X12033571Y-14671476D01*
X12024048Y-14766714D01*
X12033571Y-14757190D01*
X12052619Y-14747667D01*
X12100238Y-14747667D01*
X12119286Y-14757190D01*
X12128809Y-14766714D01*
X12138333Y-14785762D01*
X12138333Y-14833381D01*
X12128809Y-14852428D01*
X12119286Y-14861952D01*
X12100238Y-14871476D01*
X12052619Y-14871476D01*
X12033571Y-14861952D01*
X12024048Y-14852428D01*
X12328809Y-14871476D02*
X12214524Y-14871476D01*
X12271667Y-14871476D02*
X12271667Y-14671476D01*
X12252619Y-14700048D01*
X12233571Y-14719095D01*
X12214524Y-14728619D01*
X12405000Y-14690524D02*
X12414524Y-14681000D01*
X12433571Y-14671476D01*
X12481190Y-14671476D01*
X12500238Y-14681000D01*
X12509762Y-14690524D01*
X12519286Y-14709571D01*
X12519286Y-14728619D01*
X12509762Y-14757190D01*
X12395476Y-14871476D01*
X12519286Y-14871476D01*
X12595476Y-14671476D02*
X12595476Y-14709571D01*
X12671667Y-14671476D02*
X12671667Y-14709571D01*
X12966905Y-14947667D02*
X12957381Y-14938143D01*
X12938333Y-14909571D01*
X12928809Y-14890524D01*
X12919286Y-14861952D01*
X12909762Y-14814333D01*
X12909762Y-14776238D01*
X12919286Y-14728619D01*
X12928809Y-14700048D01*
X12938333Y-14681000D01*
X12957381Y-14652428D01*
X12966905Y-14642905D01*
X13128809Y-14738143D02*
X13128809Y-14871476D01*
X13081190Y-14661952D02*
X13033571Y-14804809D01*
X13157381Y-14804809D01*
X13385952Y-14871476D02*
X13385952Y-14671476D01*
X13471667Y-14871476D02*
X13471667Y-14766714D01*
X13462143Y-14747667D01*
X13443095Y-14738143D01*
X13414524Y-14738143D01*
X13395476Y-14747667D01*
X13385952Y-14757190D01*
X13595476Y-14871476D02*
X13576428Y-14861952D01*
X13566905Y-14852428D01*
X13557381Y-14833381D01*
X13557381Y-14776238D01*
X13566905Y-14757190D01*
X13576428Y-14747667D01*
X13595476Y-14738143D01*
X13624048Y-14738143D01*
X13643095Y-14747667D01*
X13652619Y-14757190D01*
X13662143Y-14776238D01*
X13662143Y-14833381D01*
X13652619Y-14852428D01*
X13643095Y-14861952D01*
X13624048Y-14871476D01*
X13595476Y-14871476D01*
X13776428Y-14871476D02*
X13757381Y-14861952D01*
X13747857Y-14842905D01*
X13747857Y-14671476D01*
X13928809Y-14861952D02*
X13909762Y-14871476D01*
X13871667Y-14871476D01*
X13852619Y-14861952D01*
X13843095Y-14842905D01*
X13843095Y-14766714D01*
X13852619Y-14747667D01*
X13871667Y-14738143D01*
X13909762Y-14738143D01*
X13928809Y-14747667D01*
X13938333Y-14766714D01*
X13938333Y-14785762D01*
X13843095Y-14804809D01*
X14014524Y-14861952D02*
X14033571Y-14871476D01*
X14071667Y-14871476D01*
X14090714Y-14861952D01*
X14100238Y-14842905D01*
X14100238Y-14833381D01*
X14090714Y-14814333D01*
X14071667Y-14804809D01*
X14043095Y-14804809D01*
X14024048Y-14795286D01*
X14014524Y-14776238D01*
X14014524Y-14766714D01*
X14024048Y-14747667D01*
X14043095Y-14738143D01*
X14071667Y-14738143D01*
X14090714Y-14747667D01*
X14166905Y-14947667D02*
X14176428Y-14938143D01*
X14195476Y-14909571D01*
X14205000Y-14890524D01*
X14214524Y-14861952D01*
X14224048Y-14814333D01*
X14224048Y-14776238D01*
X14214524Y-14728619D01*
X14205000Y-14700048D01*
X14195476Y-14681000D01*
X14176428Y-14652428D01*
X14166905Y-14642905D01*
X9295000Y-14945000D02*
X9295000Y-15145000D01*
X9195000Y-15045000D02*
X9395000Y-15045000D01*
X9365711Y-15115711D02*
X9365711Y-14974289D01*
X9224289Y-14974289D01*
X9224289Y-15115711D01*
X9365711Y-15115711D01*
X9633571Y-14935476D02*
X9757381Y-14935476D01*
X9690714Y-15011667D01*
X9719286Y-15011667D01*
X9738333Y-15021190D01*
X9747857Y-15030714D01*
X9757381Y-15049762D01*
X9757381Y-15097381D01*
X9747857Y-15116428D01*
X9738333Y-15125952D01*
X9719286Y-15135476D01*
X9662143Y-15135476D01*
X9643095Y-15125952D01*
X9633571Y-15116428D01*
X9843095Y-15116428D02*
X9852619Y-15125952D01*
X9843095Y-15135476D01*
X9833571Y-15125952D01*
X9843095Y-15116428D01*
X9843095Y-15135476D01*
X9928810Y-14954524D02*
X9938333Y-14945000D01*
X9957381Y-14935476D01*
X10005000Y-14935476D01*
X10024048Y-14945000D01*
X10033571Y-14954524D01*
X10043095Y-14973571D01*
X10043095Y-14992619D01*
X10033571Y-15021190D01*
X9919286Y-15135476D01*
X10043095Y-15135476D01*
X10166905Y-14935476D02*
X10185952Y-14935476D01*
X10205000Y-14945000D01*
X10214524Y-14954524D01*
X10224048Y-14973571D01*
X10233571Y-15011667D01*
X10233571Y-15059286D01*
X10224048Y-15097381D01*
X10214524Y-15116428D01*
X10205000Y-15125952D01*
X10185952Y-15135476D01*
X10166905Y-15135476D01*
X10147857Y-15125952D01*
X10138333Y-15116428D01*
X10128810Y-15097381D01*
X10119286Y-15059286D01*
X10119286Y-15011667D01*
X10128810Y-14973571D01*
X10138333Y-14954524D01*
X10147857Y-14945000D01*
X10166905Y-14935476D01*
X10357381Y-14935476D02*
X10376429Y-14935476D01*
X10395476Y-14945000D01*
X10405000Y-14954524D01*
X10414524Y-14973571D01*
X10424048Y-15011667D01*
X10424048Y-15059286D01*
X10414524Y-15097381D01*
X10405000Y-15116428D01*
X10395476Y-15125952D01*
X10376429Y-15135476D01*
X10357381Y-15135476D01*
X10338333Y-15125952D01*
X10328810Y-15116428D01*
X10319286Y-15097381D01*
X10309762Y-15059286D01*
X10309762Y-15011667D01*
X10319286Y-14973571D01*
X10328810Y-14954524D01*
X10338333Y-14945000D01*
X10357381Y-14935476D01*
X10509762Y-15135476D02*
X10509762Y-15002143D01*
X10509762Y-15021190D02*
X10519286Y-15011667D01*
X10538333Y-15002143D01*
X10566905Y-15002143D01*
X10585952Y-15011667D01*
X10595476Y-15030714D01*
X10595476Y-15135476D01*
X10595476Y-15030714D02*
X10605000Y-15011667D01*
X10624048Y-15002143D01*
X10652619Y-15002143D01*
X10671667Y-15011667D01*
X10681190Y-15030714D01*
X10681190Y-15135476D01*
X10776429Y-15135476D02*
X10776429Y-15002143D01*
X10776429Y-15021190D02*
X10785952Y-15011667D01*
X10805000Y-15002143D01*
X10833571Y-15002143D01*
X10852619Y-15011667D01*
X10862143Y-15030714D01*
X10862143Y-15135476D01*
X10862143Y-15030714D02*
X10871667Y-15011667D01*
X10890714Y-15002143D01*
X10919286Y-15002143D01*
X10938333Y-15011667D01*
X10947857Y-15030714D01*
X10947857Y-15135476D01*
X11338333Y-14925952D02*
X11166905Y-15183095D01*
X11595476Y-14935476D02*
X11614524Y-14935476D01*
X11633571Y-14945000D01*
X11643095Y-14954524D01*
X11652619Y-14973571D01*
X11662143Y-15011667D01*
X11662143Y-15059286D01*
X11652619Y-15097381D01*
X11643095Y-15116428D01*
X11633571Y-15125952D01*
X11614524Y-15135476D01*
X11595476Y-15135476D01*
X11576428Y-15125952D01*
X11566905Y-15116428D01*
X11557381Y-15097381D01*
X11547857Y-15059286D01*
X11547857Y-15011667D01*
X11557381Y-14973571D01*
X11566905Y-14954524D01*
X11576428Y-14945000D01*
X11595476Y-14935476D01*
X11747857Y-15116428D02*
X11757381Y-15125952D01*
X11747857Y-15135476D01*
X11738333Y-15125952D01*
X11747857Y-15116428D01*
X11747857Y-15135476D01*
X11947857Y-15135476D02*
X11833571Y-15135476D01*
X11890714Y-15135476D02*
X11890714Y-14935476D01*
X11871667Y-14964048D01*
X11852619Y-14983095D01*
X11833571Y-14992619D01*
X12024048Y-14954524D02*
X12033571Y-14945000D01*
X12052619Y-14935476D01*
X12100238Y-14935476D01*
X12119286Y-14945000D01*
X12128809Y-14954524D01*
X12138333Y-14973571D01*
X12138333Y-14992619D01*
X12128809Y-15021190D01*
X12014524Y-15135476D01*
X12138333Y-15135476D01*
X12309762Y-14935476D02*
X12271667Y-14935476D01*
X12252619Y-14945000D01*
X12243095Y-14954524D01*
X12224048Y-14983095D01*
X12214524Y-15021190D01*
X12214524Y-15097381D01*
X12224048Y-15116428D01*
X12233571Y-15125952D01*
X12252619Y-15135476D01*
X12290714Y-15135476D01*
X12309762Y-15125952D01*
X12319286Y-15116428D01*
X12328809Y-15097381D01*
X12328809Y-15049762D01*
X12319286Y-15030714D01*
X12309762Y-15021190D01*
X12290714Y-15011667D01*
X12252619Y-15011667D01*
X12233571Y-15021190D01*
X12224048Y-15030714D01*
X12214524Y-15049762D01*
X12452619Y-14935476D02*
X12471667Y-14935476D01*
X12490714Y-14945000D01*
X12500238Y-14954524D01*
X12509762Y-14973571D01*
X12519286Y-15011667D01*
X12519286Y-15059286D01*
X12509762Y-15097381D01*
X12500238Y-15116428D01*
X12490714Y-15125952D01*
X12471667Y-15135476D01*
X12452619Y-15135476D01*
X12433571Y-15125952D01*
X12424048Y-15116428D01*
X12414524Y-15097381D01*
X12405000Y-15059286D01*
X12405000Y-15011667D01*
X12414524Y-14973571D01*
X12424048Y-14954524D01*
X12433571Y-14945000D01*
X12452619Y-14935476D01*
X12595476Y-14935476D02*
X12595476Y-14973571D01*
X12671667Y-14935476D02*
X12671667Y-14973571D01*
X12966905Y-15211667D02*
X12957381Y-15202143D01*
X12938333Y-15173571D01*
X12928809Y-15154524D01*
X12919286Y-15125952D01*
X12909762Y-15078333D01*
X12909762Y-15040238D01*
X12919286Y-14992619D01*
X12928809Y-14964048D01*
X12938333Y-14945000D01*
X12957381Y-14916428D01*
X12966905Y-14906905D01*
X13128809Y-15002143D02*
X13128809Y-15135476D01*
X13081190Y-14925952D02*
X13033571Y-15068809D01*
X13157381Y-15068809D01*
X13385952Y-15135476D02*
X13385952Y-14935476D01*
X13471667Y-15135476D02*
X13471667Y-15030714D01*
X13462143Y-15011667D01*
X13443095Y-15002143D01*
X13414524Y-15002143D01*
X13395476Y-15011667D01*
X13385952Y-15021190D01*
X13595476Y-15135476D02*
X13576428Y-15125952D01*
X13566905Y-15116428D01*
X13557381Y-15097381D01*
X13557381Y-15040238D01*
X13566905Y-15021190D01*
X13576428Y-15011667D01*
X13595476Y-15002143D01*
X13624048Y-15002143D01*
X13643095Y-15011667D01*
X13652619Y-15021190D01*
X13662143Y-15040238D01*
X13662143Y-15097381D01*
X13652619Y-15116428D01*
X13643095Y-15125952D01*
X13624048Y-15135476D01*
X13595476Y-15135476D01*
X13776428Y-15135476D02*
X13757381Y-15125952D01*
X13747857Y-15106905D01*
X13747857Y-14935476D01*
X13928809Y-15125952D02*
X13909762Y-15135476D01*
X13871667Y-15135476D01*
X13852619Y-15125952D01*
X13843095Y-15106905D01*
X13843095Y-15030714D01*
X13852619Y-15011667D01*
X13871667Y-15002143D01*
X13909762Y-15002143D01*
X13928809Y-15011667D01*
X13938333Y-15030714D01*
X13938333Y-15049762D01*
X13843095Y-15068809D01*
X14014524Y-15125952D02*
X14033571Y-15135476D01*
X14071667Y-15135476D01*
X14090714Y-15125952D01*
X14100238Y-15106905D01*
X14100238Y-15097381D01*
X14090714Y-15078333D01*
X14071667Y-15068809D01*
X14043095Y-15068809D01*
X14024048Y-15059286D01*
X14014524Y-15040238D01*
X14014524Y-15030714D01*
X14024048Y-15011667D01*
X14043095Y-15002143D01*
X14071667Y-15002143D01*
X14090714Y-15011667D01*
X14166905Y-15211667D02*
X14176428Y-15202143D01*
X14195476Y-15173571D01*
X14205000Y-15154524D01*
X14214524Y-15125952D01*
X14224048Y-15078333D01*
X14224048Y-15040238D01*
X14214524Y-14992619D01*
X14205000Y-14964048D01*
X14195476Y-14945000D01*
X14176428Y-14916428D01*
X14166905Y-14906905D01*
M02*
