M48
; DRILL file {KiCad 6.0.11+dfsg-1} date Sat 22 Apr 2023 02:08:24 PM CEST
; FORMAT={-:-/ absolute / metric / decimal}
; #@! TF.CreationDate,2023-04-22T14:08:24+02:00
; #@! TF.GenerationSoftware,Kicad,Pcbnew,6.0.11+dfsg-1
; #@! TF.FileFunction,Plated,1,6,PTH
FMAT,2
METRIC
; #@! TA.AperFunction,Plated,PTH,ViaDrill
T1C0.200
; #@! TA.AperFunction,Plated,PTH,ViaDrill
T2C0.250
; #@! TA.AperFunction,Plated,PTH,ViaDrill
T3C0.254
; #@! TA.AperFunction,Plated,PTH,ViaDrill
T4C0.300
; #@! TA.AperFunction,Plated,PTH,ViaDrill
T5C0.350
; #@! TA.AperFunction,Plated,PTH,ViaDrill
T6C0.400
; #@! TA.AperFunction,Plated,PTH,ViaDrill
T7C0.500
; #@! TA.AperFunction,Plated,PTH,ComponentDrill
T8C0.500
; #@! TA.AperFunction,Plated,PTH,ViaDrill
T9C0.600
; #@! TA.AperFunction,Plated,PTH,ComponentDrill
T10C1.000
; #@! TA.AperFunction,Plated,PTH,ComponentDrill
T11C1.016
; #@! TA.AperFunction,Plated,PTH,ComponentDrill
T12C1.300
; #@! TA.AperFunction,Plated,PTH,ComponentDrill
T13C3.200
%
G90
G05
T1
X96.6Y-69.64
X96.6Y-72.26
X96.6Y-74.79
X96.6Y-77.34
X96.61Y-79.83
X96.61Y-82.38
X96.61Y-91.19
X96.61Y-93.72
X96.62Y-96.21
X96.62Y-98.85
X96.63Y-101.36
X96.64Y-106.79
X96.65Y-103.84
X99.79Y-86.866
X100.005Y-79.962
X100.171Y-87.628
X100.4Y-76.32
X100.425Y-74.039
X100.425Y-76.96
X100.45Y-101.044
X100.45Y-103.838
X102.101Y-103.838
X102.105Y-78.05
X103.28Y-89.5
X103.51Y-87.12
X103.83Y-76.225
X104.08Y-90.9
X104.98Y-104.8
X105.276Y-101.044
X105.342Y-104.167
X105.48Y-76.35
X105.48Y-91.0
X105.607Y-103.236
X105.73Y-77.775
X106.197Y-105.023
X106.5Y-100.02
X106.625Y-101.495
X106.78Y-83.2
X106.98Y-90.9
X107.13Y-76.3
X107.23Y-77.45
X107.562Y-76.914
X109.33Y-77.075
X109.38Y-83.2
X109.455Y-76.145
X109.793Y-78.113
X110.067Y-98.787
X110.08Y-103.4
X110.49Y-67.71
X111.1Y-92.19
X111.4Y-73.42
X111.5Y-71.22
X111.6Y-67.72
X111.68Y-101.0
X111.88Y-76.4
X111.885Y-82.507
X112.155Y-78.325
X112.48Y-99.8
X112.8Y-67.72
X113.0Y-71.22
X113.131Y-99.577
X113.2Y-73.52
X113.363Y-99.083
X114.042Y-98.762
X114.801Y-74.374
X114.9Y-71.62
X115.245Y-98.377
X115.61Y-106.56
X115.83Y-77.9
X116.0Y-71.22
X116.269Y-86.116
X116.439Y-98.377
X116.76Y-106.6
X116.96Y-77.676
X117.355Y-78.3
X117.87Y-95.24
X117.92Y-106.59
X118.93Y-96.7
X119.68Y-93.4
X119.96Y-97.82
X119.967Y-88.887
X120.008Y-67.008
X120.255Y-77.2
X120.78Y-77.9
X120.794Y-93.972
X121.902Y-94.915
X121.99Y-95.616
X122.294Y-76.66
X122.357Y-91.614
X122.68Y-74.0
X122.926Y-66.532
X122.931Y-90.161
X123.08Y-74.8
X123.1Y-104.346
X123.118Y-96.878
X123.393Y-99.596
X123.802Y-105.966
X123.88Y-102.0
X124.202Y-107.208
X124.4Y-109.12
X124.583Y-87.331
X124.68Y-108.2
X124.88Y-95.0
X124.88Y-96.3
X124.88Y-100.157
X125.004Y-89.401
X125.763Y-90.748
X126.231Y-65.484
X127.22Y-87.167
X127.5Y-83.315
X127.57Y-88.554
X127.646Y-84.179
X128.143Y-88.579
X128.18Y-110.5
X128.192Y-103.188
X128.38Y-105.5
X128.39Y-80.406
X128.435Y-83.6
X128.58Y-86.182
X128.811Y-90.141
X128.834Y-80.089
X128.88Y-101.993
X128.917Y-84.276
X128.955Y-82.873
X129.029Y-88.569
X129.031Y-89.641
X129.035Y-85.855
X129.123Y-103.173
X129.267Y-93.852
X129.413Y-92.228
X129.5Y-77.226
X129.508Y-80.406
X129.547Y-106.668
X129.58Y-108.8
X129.585Y-83.786
X129.724Y-82.839
X129.773Y-90.049
X129.822Y-105.821
X129.887Y-94.39
X129.891Y-93.305
X129.923Y-91.996
X129.947Y-80.044
X130.212Y-88.532
X130.295Y-80.978
X130.309Y-91.61
X130.328Y-92.851
X130.334Y-83.854
X130.339Y-95.413
X130.437Y-67.28
X130.48Y-78.2
X130.68Y-77.626
X130.988Y-95.126
X131.261Y-77.887
X131.28Y-80.628
X131.28Y-86.2
X131.283Y-89.403
X131.294Y-79.828
X131.425Y-94.791
X131.43Y-102.0
X131.499Y-96.135
X131.662Y-79.028
X131.68Y-78.4
X131.88Y-103.4
X131.88Y-77.8
X131.88Y-110.05
X132.077Y-91.002
X132.08Y-86.2
X132.08Y-81.4
X132.08Y-82.2
X132.08Y-83.0
X132.08Y-83.8
X132.08Y-84.6
X132.08Y-85.4
X132.08Y-87.0
X132.08Y-89.403
X132.08Y-90.2
X132.08Y-92.6
X132.08Y-93.4
X132.08Y-94.2
X132.083Y-88.603
X132.259Y-96.187
X132.33Y-109.6
X132.35Y-106.95
X132.48Y-78.314
X132.495Y-76.475
X132.499Y-77.089
X132.556Y-64.26
X132.68Y-102.596
X132.683Y-66.673
X132.796Y-96.586
X132.83Y-110.1
X132.873Y-81.4
X132.88Y-82.2
X132.88Y-83.0
X132.88Y-83.8
X132.88Y-84.6
X132.88Y-85.4
X132.88Y-88.6
X132.88Y-89.4
X132.88Y-90.2
X132.88Y-91.0
X132.88Y-91.8
X132.88Y-92.6
X132.88Y-93.4
X132.88Y-94.2
X132.885Y-87.0
X132.9Y-106.34
X133.181Y-95.754
X133.31Y-106.92
X133.335Y-109.595
X133.448Y-102.8
X133.65Y-95.0
X133.673Y-81.4
X133.675Y-87.0
X133.68Y-82.2
X133.68Y-83.0
X133.68Y-83.8
X133.68Y-84.6
X133.68Y-85.4
X133.68Y-87.8
X133.68Y-88.6
X133.68Y-90.2
X133.68Y-91.8
X133.68Y-92.6
X133.68Y-93.4
X134.012Y-96.062
X134.284Y-77.455
X134.356Y-76.74
X134.41Y-94.91
X134.473Y-81.4
X134.48Y-94.2
X134.48Y-82.2
X134.48Y-83.0
X134.48Y-83.8
X134.48Y-91.0
X134.534Y-87.81
X134.68Y-108.35
X134.71Y-99.2
X134.79Y-102.35
X135.071Y-78.598
X135.096Y-64.26
X135.129Y-78.016
X135.25Y-99.35
X135.273Y-81.4
X135.28Y-94.2
X135.28Y-80.6
X135.28Y-82.2
X135.28Y-83.0
X135.28Y-84.6
X135.28Y-85.4
X135.28Y-86.2
X135.28Y-87.0
X135.28Y-104.9
X135.324Y-89.356
X135.37Y-96.46
X135.482Y-76.73
X135.508Y-95.932
X135.636Y-77.254
X135.684Y-78.054
X135.73Y-107.6
X135.78Y-106.1
X135.83Y-102.85
X135.98Y-110.5
X136.055Y-67.75
X136.073Y-81.4
X136.08Y-82.2
X136.08Y-83.0
X136.08Y-84.6
X136.08Y-87.8
X136.08Y-92.6
X136.08Y-93.4
X136.08Y-107.1
X136.208Y-77.419
X136.241Y-95.906
X136.825Y-75.497
X136.88Y-83.0
X136.88Y-84.6
X136.88Y-86.2
X136.88Y-89.4
X136.88Y-92.6
X136.88Y-93.4
X136.927Y-77.888
X137.008Y-77.284
X137.03Y-95.63
X137.062Y-96.438
X137.174Y-76.625
X137.316Y-91.236
X137.528Y-74.952
X137.68Y-81.4
X137.68Y-84.6
X137.68Y-88.6
X137.68Y-89.4
X137.68Y-93.4
X137.91Y-95.25
X138.001Y-95.886
X138.382Y-77.563
X138.48Y-79.75
X138.48Y-88.6
X138.48Y-89.4
X138.728Y-78.281
X138.98Y-101.8
X138.98Y-102.7
X139.046Y-78.915
X139.05Y-107.94
X139.2Y-66.137
X139.28Y-81.4
X139.28Y-84.6
X139.28Y-88.6
X139.28Y-89.4
X139.28Y-93.4
X139.28Y-95.0
X139.554Y-79.423
X139.976Y-75.771
X140.06Y-83.02
X140.08Y-81.4
X140.08Y-82.2
X140.08Y-84.6
X140.08Y-86.2
X140.08Y-89.4
X140.08Y-92.6
X140.08Y-93.4
X140.08Y-95.0
X140.645Y-75.771
X140.88Y-81.4
X140.88Y-82.2
X140.88Y-83.0
X140.88Y-84.6
X140.88Y-87.8
X140.88Y-91.4
X140.88Y-92.6
X140.88Y-93.4
X141.18Y-108.41
X141.344Y-75.771
X141.349Y-68.945
X141.44Y-106.03
X141.459Y-77.963
X141.58Y-101.8
X141.58Y-102.8
X141.64Y-91.107
X141.68Y-82.2
X141.68Y-83.0
X141.68Y-84.6
X141.68Y-85.4
X141.68Y-86.2
X141.68Y-87.0
X141.68Y-89.4
X142.16Y-96.45
X142.28Y-74.2
X142.464Y-79.031
X142.48Y-81.4
X142.48Y-82.2
X142.48Y-83.02
X142.48Y-83.8
X142.48Y-87.8
X142.48Y-94.2
X142.48Y-95.0
X142.55Y-69.02
X142.773Y-78.438
X142.786Y-77.337
X143.08Y-67.7
X143.26Y-84.62
X143.28Y-81.4
X143.28Y-82.2
X143.28Y-83.0
X143.28Y-83.8
X143.28Y-86.2
X143.28Y-87.0
X143.28Y-88.6
X143.28Y-90.2
X143.28Y-91.0
X143.28Y-91.8
X143.28Y-93.4
X143.28Y-94.2
X143.28Y-95.0
X143.37Y-105.3
X143.419Y-73.975
X143.63Y-108.63
X143.651Y-63.863
X143.7Y-96.473
X143.709Y-75.817
X144.04Y-69.01
X144.08Y-81.4
X144.08Y-82.2
X144.08Y-83.0
X144.08Y-83.8
X144.08Y-84.6
X144.08Y-85.4
X144.08Y-86.2
X144.08Y-88.6
X144.08Y-89.4
X144.08Y-90.2
X144.08Y-91.0
X144.08Y-91.8
X144.08Y-92.6
X144.08Y-93.4
X144.08Y-94.2
X144.426Y-95.965
X144.426Y-96.635
X144.519Y-78.12
X144.634Y-79.523
X144.88Y-81.4
X144.88Y-82.2
X144.88Y-83.0
X144.88Y-83.8
X144.88Y-84.6
X144.88Y-85.4
X144.88Y-86.2
X144.88Y-87.0
X144.88Y-88.6
X144.88Y-89.4
X144.88Y-90.2
X144.88Y-91.0
X144.88Y-91.8
X144.88Y-92.6
X144.88Y-93.4
X144.88Y-94.2
X144.95Y-104.62
X145.218Y-78.12
X145.298Y-68.968
X145.68Y-81.4
X145.68Y-85.4
X145.68Y-91.0
X145.68Y-94.2
X145.68Y-95.0
X146.08Y-68.8
X146.1Y-79.82
X146.28Y-95.5
X146.313Y-96.1
X146.48Y-85.4
X146.559Y-71.978
X146.7Y-76.355
X146.868Y-75.707
X147.301Y-81.265
X147.344Y-93.217
X147.431Y-90.2
X147.582Y-71.563
X147.612Y-85.272
X147.7Y-93.768
X147.911Y-87.683
X147.948Y-68.659
X147.998Y-95.293
X148.202Y-80.343
X148.234Y-97.2
X148.349Y-93.322
X148.484Y-87.623
X148.519Y-81.74
X148.533Y-95.089
X148.55Y-68.35
X148.63Y-63.424
X148.68Y-67.6
X148.964Y-83.391
X149.011Y-96.47
X149.046Y-68.704
X149.325Y-95.29
X149.331Y-81.078
X149.575Y-87.093
X149.764Y-83.914
X149.86Y-81.214
X149.912Y-94.858
X150.038Y-81.74
X150.14Y-102.29
X150.358Y-80.989
X150.54Y-93.965
X150.565Y-94.858
X150.805Y-64.075
X150.838Y-81.773
X151.19Y-94.219
X151.773Y-63.47
X152.114Y-104.392
X152.355Y-72.975
X152.497Y-78.9
X152.93Y-72.2
X153.003Y-104.392
X153.13Y-101.09
X154.044Y-67.5
X154.426Y-102.988
X154.694Y-72.487
X155.949Y-81.25
X156.726Y-108.301
X157.107Y-63.216
X157.625Y-67.486
X157.68Y-69.9
X157.8Y-68.57
X159.855Y-78.631
X161.56Y-64.569
X162.19Y-94.59
X162.271Y-66.285
X162.441Y-97.27
X162.66Y-68.41
X163.68Y-71.6
X164.973Y-81.15
X165.803Y-97.345
X165.982Y-71.127
X166.285Y-95.025
X166.363Y-77.549
X166.363Y-79.474
X166.93Y-81.07
X166.97Y-94.56
X167.57Y-81.06
X167.633Y-90.757
X168.014Y-79.327
X168.141Y-91.138
X168.146Y-97.864
X168.2Y-81.1
X168.268Y-99.562
X168.903Y-74.755
X168.903Y-76.972
X169.517Y-69.686
X169.725Y-105.743
X170.173Y-67.135
X170.2Y-81.11
X170.427Y-107.838
X170.68Y-74.6
X170.859Y-101.077
X170.935Y-67.135
X170.99Y-94.55
X171.05Y-100.442
X171.05Y-101.628
X171.839Y-71.127
X171.95Y-81.01
X172.155Y-79.5
X172.39Y-94.6
X172.982Y-74.265
X173.87Y-80.98
X174.105Y-77.575
X174.313Y-71.127
X174.379Y-85.743
X175.205Y-79.4
X175.245Y-107.267
X175.507Y-105.108
X175.761Y-84.28
X176.13Y-77.475
X176.269Y-104.473
X176.523Y-81.486
X176.605Y-88.507
X176.797Y-71.127
X177.189Y-88.764
X177.288Y-96.779
X178.022Y-89.66
X179.755Y-87.8
X179.8Y-83.183
X180.08Y-94.8
X180.256Y-77.402
X180.445Y-69.292
X180.46Y-74.374
X181.68Y-93.2
X181.872Y-111.603
X182.22Y-101.43
X182.31Y-96.28
X182.34Y-74.68
X182.72Y-103.92
X182.87Y-69.74
X182.88Y-79.86
X182.88Y-82.35
X182.9Y-70.96
X182.9Y-77.28
X182.9Y-78.58
X182.91Y-72.27
X182.91Y-73.46
X182.99Y-92.55
X183.01Y-89.98
X183.31Y-66.69
X185.5Y-69.76
X185.53Y-82.39
X185.53Y-96.22
X185.54Y-79.92
X185.54Y-98.82
X185.54Y-101.45
X185.54Y-106.63
X185.55Y-72.26
X185.55Y-103.85
X185.56Y-74.76
X185.56Y-77.4
X185.57Y-66.71
X185.57Y-91.21
X185.57Y-93.76
T2
X154.044Y-81.74
X157.855Y-78.675
X158.679Y-81.168
X161.346Y-81.105
X163.505Y-81.168
T3
X133.93Y-102.2
X159.505Y-103.076
X169.919Y-103.076
X170.554Y-103.076
T4
X104.28Y-71.054
X104.85Y-92.17
X105.597Y-71.817
X106.49Y-92.278
X106.76Y-111.01
X107.435Y-67.516
X107.63Y-71.725
X110.05Y-101.63
X110.07Y-107.25
X113.9Y-67.32
X120.74Y-103.825
X120.91Y-102.23
X122.03Y-78.075
X123.11Y-107.86
X123.437Y-108.972
X127.72Y-111.0
X128.38Y-99.82
X148.59Y-102.9
X151.455Y-72.95
X152.408Y-92.998
X154.567Y-79.179
X154.594Y-94.608
X156.091Y-94.585
X157.996Y-72.487
X161.38Y-104.55
X161.39Y-106.72
X165.78Y-106.18
X167.58Y-104.56
X169.22Y-79.644
X170.28Y-94.53
X170.28Y-95.3
X170.31Y-85.442
X171.58Y-94.925
X176.97Y-104.55
X179.38Y-104.955
X180.435Y-70.61
X181.156Y-104.981
T5
X101.18Y-98.2
X102.482Y-98.25
T6
X107.181Y-89.487
X110.594Y-108.636
X110.61Y-89.487
X112.75Y-101.897
X167.506Y-68.659
X171.697Y-87.455
X173.03Y-77.212
X174.11Y-79.581
X176.396Y-87.201
T7
X100.856Y-71.575
X100.894Y-94.885
X101.847Y-100.79
X106.29Y-63.36
X106.975Y-64.954
X114.547Y-77.295
X115.817Y-108.029
X116.881Y-64.803
X118.0Y-66.82
X118.992Y-107.394
X120.212Y-108.633
X123.3Y-63.62
X137.31Y-66.5
X147.455Y-107.031
X148.268Y-79.156
X149.741Y-108.809
X151.758Y-99.774
X158.54Y-94.869
X158.645Y-98.635
X159.886Y-98.631
X160.9Y-95.02
X163.203Y-94.966
X164.626Y-94.982
X164.854Y-63.343
X166.632Y-96.363
X169.08Y-94.96
X173.729Y-68.532
X174.83Y-94.81
X175.776Y-63.343
X176.142Y-94.567
X177.658Y-82.281
X177.92Y-104.854
X180.714Y-91.9
X181.705Y-85.596
T8
X142.8Y-103.53
X143.8Y-103.53
X145.38Y-103.55
X146.38Y-103.55
T9
X173.49Y-94.694
T10
X102.99Y-95.71
X105.53Y-95.71
X130.056Y-71.725
X132.596Y-71.725
X135.136Y-71.725
T11
X95.37Y-62.69
X95.37Y-65.23
X95.37Y-67.77
X95.37Y-70.31
X95.37Y-72.85
X95.37Y-75.39
X95.37Y-77.93
X95.37Y-80.47
X95.37Y-83.01
X95.37Y-85.55
X95.37Y-88.09
X95.37Y-90.63
X95.37Y-93.17
X95.37Y-95.71
X95.37Y-98.25
X95.37Y-100.79
X95.37Y-103.33
X95.37Y-105.87
X95.37Y-108.41
X95.37Y-110.95
X97.91Y-62.69
X97.91Y-65.23
X97.91Y-67.77
X97.91Y-70.31
X97.91Y-72.85
X97.91Y-75.39
X97.91Y-77.93
X97.91Y-80.47
X97.91Y-83.01
X97.91Y-85.55
X97.91Y-88.09
X97.91Y-90.63
X97.91Y-93.17
X97.91Y-95.71
X97.91Y-98.25
X97.91Y-100.79
X97.91Y-103.33
X97.91Y-105.87
X97.91Y-108.41
X97.91Y-110.95
X130.14Y-100.79
X132.68Y-100.79
X135.22Y-100.79
X137.76Y-100.79
X137.76Y-104.6
X137.76Y-107.14
X137.76Y-109.68
X140.265Y-100.79
X140.3Y-104.6
X140.3Y-107.14
X140.3Y-109.68
X142.84Y-100.79
X145.38Y-100.79
X147.92Y-100.79
X184.27Y-62.69
X184.27Y-65.23
X184.27Y-67.77
X184.27Y-70.31
X184.27Y-72.85
X184.27Y-75.39
X184.27Y-77.93
X184.27Y-80.47
X184.27Y-83.01
X184.27Y-85.55
X184.27Y-88.09
X184.27Y-90.63
X184.27Y-93.17
X184.27Y-95.71
X184.27Y-98.25
X184.27Y-100.79
X184.27Y-103.33
X184.27Y-105.87
X184.27Y-108.41
X184.27Y-110.95
X186.81Y-62.69
X186.81Y-65.23
X186.81Y-67.77
X186.81Y-70.31
X186.81Y-72.85
X186.81Y-75.39
X186.81Y-77.93
X186.81Y-80.47
X186.81Y-83.01
X186.81Y-85.55
X186.81Y-88.09
X186.81Y-90.63
X186.81Y-93.17
X186.81Y-95.71
X186.81Y-98.25
X186.81Y-100.79
X186.81Y-103.33
X186.81Y-105.87
X186.81Y-108.41
X186.81Y-110.95
T12
X137.446Y-64.412
X138.046Y-69.312
X152.546Y-69.312
X153.146Y-64.412
T13
X102.99Y-65.23
X102.99Y-108.41
X179.19Y-65.23
X179.19Y-108.41
T0
M30
