G04 #@! TF.GenerationSoftware,KiCad,Pcbnew,6.0.11+dfsg-1*
G04 #@! TF.CreationDate,2023-04-22T14:08:22+02:00*
G04 #@! TF.ProjectId,ulx3s,756c7833-732e-46b6-9963-61645f706362,v3.1.8*
G04 #@! TF.SameCoordinates,Original*
G04 #@! TF.FileFunction,Copper,L6,Bot*
G04 #@! TF.FilePolarity,Positive*
%FSLAX46Y46*%
G04 Gerber Fmt 4.6, Leading zero omitted, Abs format (unit mm)*
G04 Created by KiCad (PCBNEW 6.0.11+dfsg-1) date 2023-04-22 14:08:22*
%MOMM*%
%LPD*%
G01*
G04 APERTURE LIST*
G04 Aperture macros list*
%AMRoundRect*
0 Rectangle with rounded corners*
0 $1 Rounding radius*
0 $2 $3 $4 $5 $6 $7 $8 $9 X,Y pos of 4 corners*
0 Add a 4 corners polygon primitive as box body*
4,1,4,$2,$3,$4,$5,$6,$7,$8,$9,$2,$3,0*
0 Add four circle primitives for the rounded corners*
1,1,$1+$1,$2,$3*
1,1,$1+$1,$4,$5*
1,1,$1+$1,$6,$7*
1,1,$1+$1,$8,$9*
0 Add four rect primitives between the rounded corners*
20,1,$1+$1,$2,$3,$4,$5,0*
20,1,$1+$1,$4,$5,$6,$7,0*
20,1,$1+$1,$6,$7,$8,$9,0*
20,1,$1+$1,$8,$9,$2,$3,0*%
G04 Aperture macros list end*
G04 #@! TA.AperFunction,EtchedComponent*
%ADD10C,0.100000*%
G04 #@! TD*
G04 #@! TA.AperFunction,ComponentPad*
%ADD11C,5.500000*%
G04 #@! TD*
G04 #@! TA.AperFunction,ComponentPad*
%ADD12O,1.727200X1.727200*%
G04 #@! TD*
G04 #@! TA.AperFunction,ComponentPad*
%ADD13R,1.727200X1.727200*%
G04 #@! TD*
G04 #@! TA.AperFunction,ComponentPad*
%ADD14R,1.727200X2.032000*%
G04 #@! TD*
G04 #@! TA.AperFunction,ComponentPad*
%ADD15O,1.727200X2.032000*%
G04 #@! TD*
G04 #@! TA.AperFunction,ComponentPad*
%ADD16C,2.000000*%
G04 #@! TD*
G04 #@! TA.AperFunction,ComponentPad*
%ADD17R,1.700000X1.700000*%
G04 #@! TD*
G04 #@! TA.AperFunction,ComponentPad*
%ADD18O,1.700000X1.700000*%
G04 #@! TD*
G04 #@! TA.AperFunction,ComponentPad*
%ADD19R,0.850000X0.850000*%
G04 #@! TD*
G04 #@! TA.AperFunction,ComponentPad*
%ADD20O,0.850000X0.850000*%
G04 #@! TD*
G04 #@! TA.AperFunction,SMDPad,CuDef*
%ADD21R,0.700000X1.200000*%
G04 #@! TD*
G04 #@! TA.AperFunction,SMDPad,CuDef*
%ADD22R,3.700000X3.500000*%
G04 #@! TD*
G04 #@! TA.AperFunction,SMDPad,CuDef*
%ADD23C,9.000000*%
G04 #@! TD*
G04 #@! TA.AperFunction,SMDPad,CuDef*
%ADD24R,0.600000X1.550000*%
G04 #@! TD*
G04 #@! TA.AperFunction,SMDPad,CuDef*
%ADD25O,0.600000X1.550000*%
G04 #@! TD*
G04 #@! TA.AperFunction,SMDPad,CuDef*
%ADD26RoundRect,0.243750X-0.243750X-0.456250X0.243750X-0.456250X0.243750X0.456250X-0.243750X0.456250X0*%
G04 #@! TD*
G04 #@! TA.AperFunction,SMDPad,CuDef*
%ADD27RoundRect,0.218750X-0.218750X-0.256250X0.218750X-0.256250X0.218750X0.256250X-0.218750X0.256250X0*%
G04 #@! TD*
G04 #@! TA.AperFunction,SMDPad,CuDef*
%ADD28RoundRect,0.243750X0.456250X-0.243750X0.456250X0.243750X-0.456250X0.243750X-0.456250X-0.243750X0*%
G04 #@! TD*
G04 #@! TA.AperFunction,SMDPad,CuDef*
%ADD29RoundRect,0.218750X0.218750X0.256250X-0.218750X0.256250X-0.218750X-0.256250X0.218750X-0.256250X0*%
G04 #@! TD*
G04 #@! TA.AperFunction,SMDPad,CuDef*
%ADD30RoundRect,0.243750X0.243750X0.456250X-0.243750X0.456250X-0.243750X-0.456250X0.243750X-0.456250X0*%
G04 #@! TD*
G04 #@! TA.AperFunction,SMDPad,CuDef*
%ADD31RoundRect,0.218750X-0.256250X0.218750X-0.256250X-0.218750X0.256250X-0.218750X0.256250X0.218750X0*%
G04 #@! TD*
G04 #@! TA.AperFunction,SMDPad,CuDef*
%ADD32RoundRect,0.243750X-0.456250X0.243750X-0.456250X-0.243750X0.456250X-0.243750X0.456250X0.243750X0*%
G04 #@! TD*
G04 #@! TA.AperFunction,SMDPad,CuDef*
%ADD33RoundRect,0.218750X0.256250X-0.218750X0.256250X0.218750X-0.256250X0.218750X-0.256250X-0.218750X0*%
G04 #@! TD*
G04 #@! TA.AperFunction,SMDPad,CuDef*
%ADD34R,1.000000X1.000000*%
G04 #@! TD*
G04 #@! TA.AperFunction,SMDPad,CuDef*
%ADD35R,1.550000X0.600000*%
G04 #@! TD*
G04 #@! TA.AperFunction,SMDPad,CuDef*
%ADD36O,1.550000X0.600000*%
G04 #@! TD*
G04 #@! TA.AperFunction,SMDPad,CuDef*
%ADD37R,1.500000X2.700000*%
G04 #@! TD*
G04 #@! TA.AperFunction,SMDPad,CuDef*
%ADD38R,0.670000X1.000000*%
G04 #@! TD*
G04 #@! TA.AperFunction,SMDPad,CuDef*
%ADD39C,0.300000*%
G04 #@! TD*
G04 #@! TA.AperFunction,SMDPad,CuDef*
%ADD40R,0.900000X0.800000*%
G04 #@! TD*
G04 #@! TA.AperFunction,SMDPad,CuDef*
%ADD41R,0.800000X0.900000*%
G04 #@! TD*
G04 #@! TA.AperFunction,SMDPad,CuDef*
%ADD42RoundRect,0.323750X-0.376250X0.323750X-0.376250X-0.323750X0.376250X-0.323750X0.376250X0.323750X0*%
G04 #@! TD*
G04 #@! TA.AperFunction,SMDPad,CuDef*
%ADD43RoundRect,0.450000X0.800000X0.450000X-0.800000X0.450000X-0.800000X-0.450000X0.800000X-0.450000X0*%
G04 #@! TD*
G04 #@! TA.AperFunction,SMDPad,CuDef*
%ADD44RoundRect,0.450000X-0.450000X0.800000X-0.450000X-0.800000X0.450000X-0.800000X0.450000X0.800000X0*%
G04 #@! TD*
G04 #@! TA.AperFunction,SMDPad,CuDef*
%ADD45RoundRect,0.450000X0.450000X-0.800000X0.450000X0.800000X-0.450000X0.800000X-0.450000X-0.800000X0*%
G04 #@! TD*
G04 #@! TA.AperFunction,SMDPad,CuDef*
%ADD46RoundRect,0.249999X-0.450001X0.325001X-0.450001X-0.325001X0.450001X-0.325001X0.450001X0.325001X0*%
G04 #@! TD*
G04 #@! TA.AperFunction,SMDPad,CuDef*
%ADD47R,0.600000X2.100000*%
G04 #@! TD*
G04 #@! TA.AperFunction,SMDPad,CuDef*
%ADD48O,0.600000X2.100000*%
G04 #@! TD*
G04 #@! TA.AperFunction,SMDPad,CuDef*
%ADD49R,2.500000X1.800000*%
G04 #@! TD*
G04 #@! TA.AperFunction,SMDPad,CuDef*
%ADD50RoundRect,0.225000X0.250000X-0.225000X0.250000X0.225000X-0.250000X0.225000X-0.250000X-0.225000X0*%
G04 #@! TD*
G04 #@! TA.AperFunction,SMDPad,CuDef*
%ADD51RoundRect,0.225000X-0.250000X0.225000X-0.250000X-0.225000X0.250000X-0.225000X0.250000X0.225000X0*%
G04 #@! TD*
G04 #@! TA.AperFunction,SMDPad,CuDef*
%ADD52RoundRect,0.062500X0.350000X0.062500X-0.350000X0.062500X-0.350000X-0.062500X0.350000X-0.062500X0*%
G04 #@! TD*
G04 #@! TA.AperFunction,SMDPad,CuDef*
%ADD53RoundRect,0.062500X0.062500X0.350000X-0.062500X0.350000X-0.062500X-0.350000X0.062500X-0.350000X0*%
G04 #@! TD*
G04 #@! TA.AperFunction,SMDPad,CuDef*
%ADD54R,2.000000X2.000000*%
G04 #@! TD*
G04 #@! TA.AperFunction,SMDPad,CuDef*
%ADD55RoundRect,0.200000X-0.200000X-0.275000X0.200000X-0.275000X0.200000X0.275000X-0.200000X0.275000X0*%
G04 #@! TD*
G04 #@! TA.AperFunction,SMDPad,CuDef*
%ADD56O,2.500000X0.900000*%
G04 #@! TD*
G04 #@! TA.AperFunction,SMDPad,CuDef*
%ADD57O,0.900000X2.500000*%
G04 #@! TD*
G04 #@! TA.AperFunction,SMDPad,CuDef*
%ADD58R,1.800000X1.400000*%
G04 #@! TD*
G04 #@! TA.AperFunction,ViaPad*
%ADD59C,0.419000*%
G04 #@! TD*
G04 #@! TA.AperFunction,ViaPad*
%ADD60C,1.000000*%
G04 #@! TD*
G04 #@! TA.AperFunction,ViaPad*
%ADD61C,0.800000*%
G04 #@! TD*
G04 #@! TA.AperFunction,ViaPad*
%ADD62C,0.600000*%
G04 #@! TD*
G04 #@! TA.AperFunction,ViaPad*
%ADD63C,0.420000*%
G04 #@! TD*
G04 #@! TA.AperFunction,ViaPad*
%ADD64C,0.500000*%
G04 #@! TD*
G04 #@! TA.AperFunction,ViaPad*
%ADD65C,0.700000*%
G04 #@! TD*
G04 #@! TA.AperFunction,ViaPad*
%ADD66C,0.454000*%
G04 #@! TD*
G04 #@! TA.AperFunction,Conductor*
%ADD67C,0.500000*%
G04 #@! TD*
G04 #@! TA.AperFunction,Conductor*
%ADD68C,0.300000*%
G04 #@! TD*
G04 #@! TA.AperFunction,Conductor*
%ADD69C,0.127000*%
G04 #@! TD*
G04 #@! TA.AperFunction,Conductor*
%ADD70C,0.200000*%
G04 #@! TD*
G04 #@! TA.AperFunction,Conductor*
%ADD71C,0.600000*%
G04 #@! TD*
G04 #@! TA.AperFunction,Conductor*
%ADD72C,1.000000*%
G04 #@! TD*
G04 #@! TA.AperFunction,Conductor*
%ADD73C,0.190000*%
G04 #@! TD*
G04 #@! TA.AperFunction,Conductor*
%ADD74C,0.800000*%
G04 #@! TD*
G04 #@! TA.AperFunction,Conductor*
%ADD75C,0.400000*%
G04 #@! TD*
G04 #@! TA.AperFunction,Conductor*
%ADD76C,0.700000*%
G04 #@! TD*
G04 APERTURE END LIST*
G36*
X152781000Y-97761000D02*
G01*
X151781000Y-97761000D01*
X151781000Y-96961000D01*
X152781000Y-96961000D01*
X152781000Y-97761000D01*
G37*
D10*
X152781000Y-97761000D02*
X151781000Y-97761000D01*
X151781000Y-96961000D01*
X152781000Y-96961000D01*
X152781000Y-97761000D01*
G36*
X149972000Y-78711000D02*
G01*
X148972000Y-78711000D01*
X148972000Y-77911000D01*
X149972000Y-77911000D01*
X149972000Y-78711000D01*
G37*
X149972000Y-78711000D02*
X148972000Y-78711000D01*
X148972000Y-77911000D01*
X149972000Y-77911000D01*
X149972000Y-78711000D01*
G36*
X110309000Y-80932000D02*
G01*
X109309000Y-80932000D01*
X109309000Y-80132000D01*
X110309000Y-80132000D01*
X110309000Y-80932000D01*
G37*
X110309000Y-80932000D02*
X109309000Y-80932000D01*
X109309000Y-80132000D01*
X110309000Y-80132000D01*
X110309000Y-80932000D01*
G36*
X165754000Y-74400000D02*
G01*
X163954000Y-74400000D01*
X163954000Y-73400000D01*
X165754000Y-73400000D01*
X165754000Y-74400000D01*
G37*
X165754000Y-74400000D02*
X163954000Y-74400000D01*
X163954000Y-73400000D01*
X165754000Y-73400000D01*
X165754000Y-74400000D01*
G36*
X160655000Y-68000000D02*
G01*
X159655000Y-68000000D01*
X159655000Y-66200000D01*
X160655000Y-66200000D01*
X160655000Y-68000000D01*
G37*
X160655000Y-68000000D02*
X159655000Y-68000000D01*
X159655000Y-66200000D01*
X160655000Y-66200000D01*
X160655000Y-68000000D01*
G36*
X156180000Y-68000000D02*
G01*
X155180000Y-68000000D01*
X155180000Y-66200000D01*
X156180000Y-66200000D01*
X156180000Y-68000000D01*
G37*
X156180000Y-68000000D02*
X155180000Y-68000000D01*
X155180000Y-66200000D01*
X156180000Y-66200000D01*
X156180000Y-68000000D01*
D11*
X102990000Y-108410000D03*
X179190000Y-108410000D03*
X179190000Y-65230000D03*
X102990000Y-65230000D03*
D12*
X97910000Y-62690000D03*
X95370000Y-62690000D03*
D13*
X97910000Y-65230000D03*
X95370000Y-65230000D03*
D12*
X97910000Y-67770000D03*
X95370000Y-67770000D03*
X97910000Y-70310000D03*
X95370000Y-70310000D03*
X97910000Y-72850000D03*
X95370000Y-72850000D03*
X97910000Y-75390000D03*
X95370000Y-75390000D03*
X97910000Y-77930000D03*
X95370000Y-77930000D03*
X97910000Y-80470000D03*
X95370000Y-80470000D03*
X97910000Y-83010000D03*
X95370000Y-83010000D03*
X97910000Y-85550000D03*
X95370000Y-85550000D03*
D13*
X97910000Y-88090000D03*
X95370000Y-88090000D03*
D12*
X97910000Y-90630000D03*
X95370000Y-90630000D03*
X97910000Y-93170000D03*
X95370000Y-93170000D03*
X97910000Y-95710000D03*
X95370000Y-95710000D03*
X97910000Y-98250000D03*
X95370000Y-98250000D03*
X97910000Y-100790000D03*
X95370000Y-100790000D03*
X97910000Y-103330000D03*
X95370000Y-103330000D03*
X97910000Y-105870000D03*
X95370000Y-105870000D03*
D13*
X97910000Y-108410000D03*
X95370000Y-108410000D03*
D12*
X97910000Y-110950000D03*
X95370000Y-110950000D03*
X184270000Y-110950000D03*
X186810000Y-110950000D03*
D13*
X184270000Y-108410000D03*
X186810000Y-108410000D03*
D12*
X184270000Y-105870000D03*
X186810000Y-105870000D03*
X184270000Y-103330000D03*
X186810000Y-103330000D03*
X184270000Y-100790000D03*
X186810000Y-100790000D03*
X184270000Y-98250000D03*
X186810000Y-98250000D03*
X184270000Y-95710000D03*
X186810000Y-95710000D03*
X184270000Y-93170000D03*
X186810000Y-93170000D03*
X184270000Y-90630000D03*
X186810000Y-90630000D03*
X184270000Y-88090000D03*
X186810000Y-88090000D03*
D13*
X184270000Y-85550000D03*
X186810000Y-85550000D03*
D12*
X184270000Y-83010000D03*
X186810000Y-83010000D03*
X184270000Y-80470000D03*
X186810000Y-80470000D03*
X184270000Y-77930000D03*
X186810000Y-77930000D03*
X184270000Y-75390000D03*
X186810000Y-75390000D03*
X184270000Y-72850000D03*
X186810000Y-72850000D03*
X184270000Y-70310000D03*
X186810000Y-70310000D03*
X184270000Y-67770000D03*
X186810000Y-67770000D03*
D13*
X184270000Y-65230000D03*
X186810000Y-65230000D03*
D12*
X184270000Y-62690000D03*
X186810000Y-62690000D03*
D14*
X147920000Y-100790000D03*
D15*
X145380000Y-100790000D03*
X142840000Y-100790000D03*
X140265000Y-100790000D03*
X137760000Y-100790000D03*
X135220000Y-100790000D03*
X132680000Y-100790000D03*
X130140000Y-100790000D03*
D16*
X138046000Y-69312000D03*
X152546000Y-69312000D03*
X137446000Y-64412000D03*
X153146000Y-64412000D03*
D17*
X130056000Y-71725000D03*
D18*
X132596000Y-71725000D03*
X135136000Y-71725000D03*
D13*
X140300000Y-104600000D03*
D12*
X137760000Y-104600000D03*
X140300000Y-107140000D03*
X137760000Y-107140000D03*
X140300000Y-109680000D03*
X137760000Y-109680000D03*
D17*
X105530000Y-95710000D03*
D18*
X102990000Y-95710000D03*
D19*
X145380000Y-103550000D03*
D20*
X146380000Y-103550000D03*
D19*
X142800000Y-103530000D03*
D20*
X143800000Y-103530000D03*
D21*
X159825000Y-90600000D03*
X160775000Y-90600000D03*
X161725000Y-90600000D03*
X161725000Y-93200000D03*
X159825000Y-93200000D03*
X104775000Y-77115000D03*
X103825000Y-77115000D03*
X102875000Y-77115000D03*
X102875000Y-74515000D03*
X104775000Y-74515000D03*
X157285000Y-77392000D03*
X158235000Y-77392000D03*
X159185000Y-77392000D03*
X159185000Y-79992000D03*
X157285000Y-79992000D03*
D22*
X172485000Y-105870000D03*
X156685000Y-105870000D03*
D23*
X164585000Y-105870000D03*
D24*
X175395000Y-96015000D03*
D25*
X174125000Y-96015000D03*
X172855000Y-96015000D03*
X171585000Y-96015000D03*
X171585000Y-90615000D03*
X172855000Y-90615000D03*
X174125000Y-90615000D03*
X175395000Y-90615000D03*
D26*
X133563500Y-68550000D03*
X135438500Y-68550000D03*
D27*
X154072500Y-96910000D03*
X155647500Y-96910000D03*
D26*
X154122500Y-90630000D03*
X155997500Y-90630000D03*
X154122500Y-92535000D03*
X155997500Y-92535000D03*
D28*
X163315000Y-92837500D03*
X163315000Y-90962500D03*
D27*
X151732500Y-82375000D03*
X153307500Y-82375000D03*
D26*
X151582500Y-79200000D03*
X153457500Y-79200000D03*
X151582500Y-77295000D03*
X153457500Y-77295000D03*
D28*
X160775000Y-79502500D03*
X160775000Y-77627500D03*
D29*
X110327500Y-72005000D03*
X108752500Y-72005000D03*
D30*
X110477500Y-75180000D03*
X108602500Y-75180000D03*
D31*
X175380000Y-75237500D03*
X175380000Y-76812500D03*
D28*
X105276000Y-99949500D03*
X105276000Y-98074500D03*
D26*
X173441500Y-87473000D03*
X175316500Y-87473000D03*
D32*
X138500000Y-90682500D03*
X138500000Y-92557500D03*
D28*
X138500000Y-82357500D03*
X138500000Y-80482500D03*
D32*
X138500000Y-85682500D03*
X138500000Y-87557500D03*
D26*
X154376500Y-98504000D03*
X156251500Y-98504000D03*
D30*
X107683500Y-82292000D03*
X105808500Y-82292000D03*
D31*
X140900000Y-85432500D03*
X140900000Y-87007500D03*
X136900000Y-90432500D03*
X136900000Y-92007500D03*
X140100000Y-90432500D03*
X140100000Y-92007500D03*
X134900000Y-90232500D03*
X134900000Y-91807500D03*
D29*
X141687500Y-88420000D03*
X140112500Y-88420000D03*
D27*
X163512500Y-82220000D03*
X165087500Y-82220000D03*
D29*
X158287500Y-82220000D03*
X156712500Y-82220000D03*
D31*
X177300000Y-94112500D03*
X177300000Y-95687500D03*
D26*
X145942500Y-105200000D03*
X147817500Y-105200000D03*
D27*
X102812500Y-70020000D03*
X104387500Y-70020000D03*
D31*
X102736000Y-85651500D03*
X102736000Y-87226500D03*
D33*
X179063000Y-88768500D03*
X179063000Y-87193500D03*
D29*
X180385500Y-103711000D03*
X178810500Y-103711000D03*
X160307500Y-96490000D03*
X158732500Y-96490000D03*
D28*
X169172000Y-97173500D03*
X169172000Y-95298500D03*
D27*
X135312500Y-88420000D03*
X136887500Y-88420000D03*
D34*
X172479000Y-68550000D03*
X174979000Y-68550000D03*
X164585000Y-69060000D03*
X164585000Y-71560000D03*
D30*
X110477500Y-77085000D03*
X108602500Y-77085000D03*
X151171500Y-74882000D03*
X149296500Y-74882000D03*
D28*
X179190000Y-80772500D03*
X179190000Y-78897500D03*
D27*
X166718500Y-65738000D03*
X168293500Y-65738000D03*
D31*
X128980000Y-108012500D03*
X128980000Y-109587500D03*
D32*
X179078000Y-90980500D03*
X179078000Y-92855500D03*
D33*
X177300000Y-92705500D03*
X177300000Y-91130500D03*
X113000000Y-70372500D03*
X113000000Y-68797500D03*
X111500000Y-70372500D03*
X111500000Y-68797500D03*
D29*
X157117500Y-72487000D03*
X155542500Y-72487000D03*
D33*
X171331000Y-67940500D03*
X171331000Y-66365500D03*
X169919000Y-67940500D03*
X169919000Y-66365500D03*
D27*
X172814500Y-65502000D03*
X174389500Y-65502000D03*
D33*
X120008000Y-69872500D03*
X120008000Y-68297500D03*
X121532000Y-69872500D03*
X121532000Y-68297500D03*
X123056000Y-69872500D03*
X123056000Y-68297500D03*
X124580000Y-69872500D03*
X124580000Y-68297500D03*
D29*
X145567500Y-69900000D03*
X143992500Y-69900000D03*
D34*
X169030000Y-81085000D03*
X169030000Y-78585000D03*
X171550000Y-85837000D03*
X169050000Y-85837000D03*
X179190000Y-77275000D03*
X179190000Y-74775000D03*
X177285000Y-74775000D03*
X177285000Y-77275000D03*
X172987000Y-73503000D03*
X175487000Y-73503000D03*
X168756000Y-68659000D03*
X166256000Y-68659000D03*
X162700000Y-67262000D03*
X165200000Y-67262000D03*
X165200000Y-65357000D03*
X162700000Y-65357000D03*
D26*
X102966000Y-72785000D03*
X104841000Y-72785000D03*
X102179500Y-93061000D03*
X104054500Y-93061000D03*
D35*
X141980000Y-67706500D03*
D36*
X141980000Y-66436500D03*
X141980000Y-65166500D03*
X141980000Y-63896500D03*
X147380000Y-63896500D03*
X147380000Y-65166500D03*
X147380000Y-66436500D03*
X147380000Y-67706500D03*
D37*
X160140000Y-88090000D03*
X157600000Y-88090000D03*
X157600000Y-74755000D03*
X155060000Y-74755000D03*
D38*
X169425000Y-82375000D03*
X171175000Y-82375000D03*
D33*
X172840000Y-80622500D03*
X172840000Y-79047500D03*
X162480000Y-71097500D03*
X162480000Y-69522500D03*
D29*
X176802500Y-80470000D03*
X175227500Y-80470000D03*
D31*
X174110000Y-75237500D03*
X174110000Y-76812500D03*
X178555000Y-84127500D03*
X178555000Y-85702500D03*
D33*
X102228000Y-91290500D03*
X102228000Y-89715500D03*
X170935000Y-80622500D03*
X170935000Y-79047500D03*
D29*
X152926500Y-103076000D03*
X151351500Y-103076000D03*
D31*
X119200000Y-72332500D03*
X119200000Y-73907500D03*
D33*
X114800000Y-82507500D03*
X114800000Y-80932500D03*
D29*
X126383500Y-80260000D03*
X124808500Y-80260000D03*
X126383500Y-78736000D03*
X124808500Y-78736000D03*
X126383500Y-77212000D03*
X124808500Y-77212000D03*
X126383500Y-75670000D03*
X124808500Y-75670000D03*
D33*
X130422000Y-75560500D03*
X130422000Y-73985500D03*
X131961000Y-75560500D03*
X131961000Y-73985500D03*
X133485000Y-75560500D03*
X133485000Y-73985500D03*
X135009000Y-75560500D03*
X135009000Y-73985500D03*
X140025500Y-66017500D03*
X140025500Y-64442500D03*
D31*
X140597000Y-69413500D03*
X140597000Y-70988500D03*
D33*
X149980000Y-68687500D03*
X149980000Y-67112500D03*
D29*
X149962500Y-72487000D03*
X148387500Y-72487000D03*
X149967500Y-70200000D03*
X148392500Y-70200000D03*
D27*
X116980000Y-84700000D03*
X118555000Y-84700000D03*
D31*
X117695000Y-72330500D03*
X117695000Y-73905500D03*
D33*
X113300000Y-82507500D03*
X113300000Y-80932500D03*
D31*
X116200000Y-72332500D03*
X116200000Y-73907500D03*
D33*
X129080000Y-98775000D03*
X129080000Y-97200000D03*
D29*
X104539500Y-102060000D03*
X102964500Y-102060000D03*
X164102500Y-96345000D03*
X162527500Y-96345000D03*
D27*
X166718500Y-67135000D03*
X168293500Y-67135000D03*
D29*
X174387500Y-66899000D03*
X172812500Y-66899000D03*
D27*
X154072500Y-95640000D03*
X155647500Y-95640000D03*
D29*
X110327500Y-73275000D03*
X108752500Y-73275000D03*
D27*
X151732500Y-81105000D03*
X153307500Y-81105000D03*
D31*
X158235000Y-91112500D03*
X158235000Y-92687500D03*
D33*
X106365000Y-76602500D03*
X106365000Y-75027500D03*
D31*
X155695000Y-77777500D03*
X155695000Y-79352500D03*
D29*
X176802500Y-78565000D03*
X175227500Y-78565000D03*
D37*
X103825000Y-79625000D03*
X106365000Y-79625000D03*
D31*
X136100000Y-85432500D03*
X136100000Y-87007500D03*
D39*
X181872000Y-111603000D03*
D40*
X171935000Y-75075000D03*
X171935000Y-76975000D03*
X169935000Y-76025000D03*
D33*
X103576500Y-99817500D03*
X103576500Y-98242500D03*
D41*
X176965000Y-85280000D03*
X175065000Y-85280000D03*
X176015000Y-83280000D03*
D34*
X175502000Y-71740000D03*
X173002000Y-71740000D03*
D27*
X173210500Y-70201000D03*
X174785500Y-70201000D03*
D31*
X179078000Y-94686500D03*
X179078000Y-96261500D03*
D29*
X177071500Y-103711000D03*
X175496500Y-103711000D03*
D34*
X154141000Y-84186000D03*
X156641000Y-84186000D03*
D42*
X152281000Y-96393500D03*
X152281000Y-98328500D03*
X149472000Y-77343500D03*
X149472000Y-79278500D03*
X109809000Y-79564500D03*
X109809000Y-81499500D03*
D34*
X154121000Y-85964000D03*
X156621000Y-85964000D03*
D27*
X166210500Y-70310000D03*
X167785500Y-70310000D03*
D43*
X166854000Y-73900000D03*
X162854000Y-73900000D03*
D44*
X160155000Y-65100000D03*
X160155000Y-69100000D03*
D45*
X155680000Y-69100000D03*
X155680000Y-65100000D03*
D34*
X177285000Y-72594000D03*
X177285000Y-70094000D03*
X179190000Y-70094000D03*
X179190000Y-72594000D03*
D27*
X102964500Y-103600000D03*
X104539500Y-103600000D03*
D28*
X165982000Y-89408500D03*
X165982000Y-87533500D03*
D46*
X167887000Y-87446000D03*
X167887000Y-89496000D03*
X169792000Y-87446000D03*
X169792000Y-89496000D03*
D32*
X169157000Y-91978500D03*
X169157000Y-93853500D03*
D28*
X173221000Y-85725500D03*
X173221000Y-83850500D03*
D29*
X126387500Y-81770000D03*
X124812500Y-81770000D03*
D47*
X116440000Y-75920000D03*
D48*
X117710000Y-75920000D03*
X118980000Y-75920000D03*
X120250000Y-75920000D03*
X120250000Y-82524000D03*
X118980000Y-82524000D03*
X117710000Y-82524000D03*
X116440000Y-82524000D03*
D31*
X142000000Y-90332500D03*
X142000000Y-91907500D03*
D49*
X109980000Y-65200000D03*
X113980000Y-65200000D03*
D33*
X130580000Y-98787500D03*
X130580000Y-97212500D03*
D50*
X136180000Y-98775000D03*
X136180000Y-97225000D03*
D51*
X137680000Y-97225000D03*
X137680000Y-98775000D03*
D50*
X139180000Y-98775000D03*
X139180000Y-97225000D03*
D51*
X140680000Y-97225000D03*
X140680000Y-98775000D03*
D50*
X142180000Y-98775000D03*
X142180000Y-97225000D03*
D51*
X133580000Y-97225000D03*
X133580000Y-98775000D03*
D31*
X158312000Y-83525500D03*
X158312000Y-85100500D03*
D51*
X143680000Y-97225000D03*
X143680000Y-98775000D03*
D34*
X152930000Y-73850000D03*
X152930000Y-71350000D03*
D51*
X146680000Y-97225000D03*
X146680000Y-98775000D03*
D50*
X145180000Y-98775000D03*
X145180000Y-97225000D03*
X132080000Y-98775000D03*
X132080000Y-97225000D03*
D33*
X149980000Y-65687500D03*
X149980000Y-64112500D03*
D52*
X134772500Y-105600000D03*
X134772500Y-106100000D03*
X134772500Y-106600000D03*
X134772500Y-107100000D03*
X134772500Y-107600000D03*
D53*
X133835000Y-108537500D03*
X133335000Y-108537500D03*
X132835000Y-108537500D03*
X132335000Y-108537500D03*
X131835000Y-108537500D03*
D52*
X130897500Y-107600000D03*
X130897500Y-107100000D03*
X130897500Y-106600000D03*
X130897500Y-106100000D03*
X130897500Y-105600000D03*
D53*
X131835000Y-104662500D03*
X132335000Y-104662500D03*
X132835000Y-104662500D03*
X133335000Y-104662500D03*
X133835000Y-104662500D03*
D54*
X132835000Y-106600000D03*
D55*
X113214800Y-83932000D03*
X114864800Y-83932000D03*
D56*
X108300000Y-110975000D03*
X108300000Y-109705000D03*
X108300000Y-108435000D03*
X108300000Y-107165000D03*
X108300000Y-105895000D03*
X108300000Y-104625000D03*
X108300000Y-103355000D03*
X108300000Y-102085000D03*
X108300000Y-100815000D03*
X108300000Y-99545000D03*
X108300000Y-98275000D03*
X108300000Y-97005000D03*
X108300000Y-95735000D03*
X108300000Y-94465000D03*
D57*
X111585000Y-92965000D03*
D56*
X108300000Y-93195000D03*
D57*
X112855000Y-92965000D03*
D56*
X108300000Y-91925000D03*
D57*
X121745000Y-92965000D03*
D56*
X126300000Y-91925000D03*
D57*
X123015000Y-92965000D03*
D56*
X126300000Y-93195000D03*
X126300000Y-94465000D03*
X126300000Y-95735000D03*
X126300000Y-97005000D03*
X126300000Y-98275000D03*
X126300000Y-99545000D03*
X126300000Y-100815000D03*
X126300000Y-102085000D03*
X126300000Y-103355000D03*
X126300000Y-104625000D03*
X126300000Y-105895000D03*
X126300000Y-107165000D03*
X126300000Y-108435000D03*
X126300000Y-109705000D03*
X126300000Y-110975000D03*
D34*
X169050000Y-84059000D03*
X171550000Y-84059000D03*
D58*
X178568500Y-101322000D03*
X172968500Y-101322000D03*
X172968500Y-98522000D03*
X178568500Y-98522000D03*
D59*
X114801000Y-74374000D03*
D60*
X118992000Y-107394000D03*
X115817000Y-108029000D03*
D61*
X107181000Y-89487000D03*
D59*
X116960000Y-77676000D03*
X123080000Y-74800000D03*
D61*
X110610000Y-89487000D03*
D59*
X107562000Y-76914000D03*
X141580000Y-101800000D03*
X106980000Y-90900000D03*
X182870000Y-69740000D03*
X182910000Y-72270000D03*
D62*
X110070000Y-107250000D03*
D63*
X96600000Y-77340000D03*
D59*
X134790000Y-102350000D03*
X139280000Y-93400000D03*
X140080000Y-95000000D03*
X135324015Y-89355985D03*
D63*
X96610000Y-79830000D03*
D59*
X180080000Y-94800000D03*
X185550000Y-103850000D03*
D62*
X161380000Y-104550000D03*
D59*
X132880000Y-82200000D03*
X185540000Y-101450000D03*
D63*
X96600000Y-74790000D03*
D60*
X158539988Y-94868772D03*
D59*
X178022000Y-89660000D03*
D63*
X139050000Y-107940000D03*
X138480000Y-79750000D03*
X111100000Y-92190000D03*
D59*
X138480000Y-88600000D03*
D63*
X96610000Y-82380000D03*
D59*
X164972998Y-81150000D03*
X152930000Y-72200000D03*
X139280000Y-88600000D03*
X143280000Y-94200000D03*
X120780000Y-77900000D03*
X107230000Y-77450000D03*
D62*
X165780000Y-106180000D03*
D59*
X132880000Y-93400000D03*
D60*
X180714000Y-91900000D03*
D59*
X162190000Y-94590000D03*
X185540000Y-106630000D03*
X131280000Y-86200011D03*
D63*
X96610000Y-91190000D03*
D59*
X100425000Y-76960000D03*
X185570000Y-66710000D03*
D63*
X141440000Y-106030000D03*
D60*
X147455000Y-107031000D03*
D61*
X174110000Y-79581000D03*
D59*
X141680000Y-87000000D03*
D62*
X106490000Y-92278500D03*
D59*
X152114000Y-104392000D03*
X140080000Y-84600000D03*
X120255000Y-77200000D03*
D60*
X158645000Y-98635000D03*
D64*
X170554000Y-103076000D03*
D59*
X145680000Y-95000000D03*
X183310000Y-66690000D03*
X109793096Y-78113096D03*
D60*
X181705000Y-85596000D03*
D62*
X179380000Y-104954750D03*
D59*
X185560000Y-74760000D03*
X174105000Y-77575000D03*
D62*
X104850000Y-92170000D03*
D59*
X136880000Y-93400000D03*
X167570000Y-81060000D03*
X137680000Y-88600000D03*
X172155000Y-79500000D03*
X129580000Y-108800000D03*
X131282850Y-89402850D03*
X177287984Y-96778661D03*
D63*
X116760000Y-106600000D03*
X148550000Y-68350000D03*
X115610000Y-106560000D03*
D62*
X169220500Y-79644500D03*
X148590000Y-102900000D03*
D59*
X132556000Y-64260000D03*
X140880000Y-84600000D03*
X145680000Y-91000000D03*
X170990000Y-94550000D03*
D62*
X104280000Y-71054479D03*
X127720000Y-111000000D03*
D64*
X159505000Y-103076000D03*
D59*
X185570000Y-93760000D03*
X185540000Y-79920000D03*
D60*
X169080000Y-94960000D03*
X173490000Y-94694000D03*
X101847000Y-100790000D03*
X177658444Y-82281349D03*
D59*
X153130000Y-101090000D03*
X102105000Y-78050000D03*
D62*
X170280000Y-94530000D03*
D59*
X162660000Y-68410000D03*
X182310000Y-96280000D03*
X166970000Y-94560000D03*
X182900000Y-70960000D03*
X143280000Y-95000000D03*
D63*
X143370000Y-105300000D03*
D62*
X106760000Y-111010000D03*
D64*
X154044000Y-81740000D03*
D59*
X140080000Y-93400000D03*
X182880000Y-82350000D03*
X100005500Y-79962000D03*
X185570000Y-91210000D03*
D61*
X167506000Y-68659000D03*
D60*
X163203000Y-94966000D03*
D59*
X105730000Y-77775000D03*
X173870000Y-80980000D03*
X145680000Y-81400000D03*
D60*
X173729000Y-68532000D03*
D59*
X109330000Y-77075000D03*
X138980000Y-101800000D03*
X132880000Y-84600000D03*
X142480000Y-95000000D03*
X100450000Y-103838000D03*
X115830000Y-77900000D03*
X99790000Y-86866000D03*
X105480000Y-91000000D03*
D62*
X110050000Y-101630000D03*
D59*
X136055000Y-67750000D03*
X171950000Y-81010000D03*
D63*
X117920000Y-106590000D03*
X142550000Y-69020000D03*
D62*
X152408000Y-92997500D03*
D59*
X141680000Y-89400000D03*
X141580000Y-102800000D03*
D63*
X143630000Y-108630000D03*
D61*
X176396000Y-87201000D03*
D59*
X185550000Y-72260000D03*
X106780000Y-83200000D03*
X182340000Y-74680000D03*
X109455000Y-76145030D03*
D62*
X107630000Y-71725000D03*
D59*
X183010000Y-89980000D03*
X132683000Y-66673000D03*
X182720000Y-103920000D03*
D60*
X164854000Y-63343000D03*
X120212000Y-108633500D03*
D59*
X155949000Y-81249578D03*
X100400000Y-76320000D03*
X100425000Y-74039000D03*
D63*
X117870000Y-95240000D03*
D59*
X132880000Y-91800000D03*
X143080000Y-67700000D03*
X117355000Y-78300000D03*
X182900000Y-77280000D03*
X136080000Y-93400000D03*
X139280000Y-89400000D03*
D63*
X96600000Y-72260000D03*
D59*
X137680000Y-89400000D03*
X172390000Y-94600000D03*
X109380000Y-83200000D03*
D65*
X101180000Y-98200000D03*
D59*
X140080000Y-92600000D03*
D63*
X132350000Y-106950000D03*
X144040000Y-69010000D03*
D62*
X151455000Y-72950000D03*
D59*
X142480000Y-94200000D03*
D60*
X106290000Y-63360000D03*
D62*
X122030000Y-78075000D03*
D59*
X110490000Y-67710000D03*
D62*
X167580000Y-104560000D03*
D59*
X135096000Y-64260000D03*
X168200000Y-81100000D03*
D64*
X157855000Y-78675000D03*
D59*
X175205000Y-79400000D03*
X135280000Y-80600000D03*
X140880000Y-81400000D03*
X185530000Y-82390000D03*
X139280000Y-95000000D03*
D62*
X170280000Y-95300000D03*
D59*
X145680000Y-85400000D03*
X122680000Y-74000000D03*
X136080000Y-92600000D03*
D62*
X161390000Y-106720000D03*
X171580000Y-94925000D03*
D59*
X144080000Y-84600000D03*
D62*
X105597352Y-71817352D03*
D63*
X96630000Y-101360000D03*
D62*
X120910000Y-102230000D03*
D60*
X175776000Y-63343000D03*
D59*
X166930000Y-81070000D03*
X150805000Y-64075000D03*
X136080000Y-84600000D03*
X140880000Y-93400000D03*
X135280000Y-84600000D03*
D62*
X123110000Y-107860000D03*
D59*
X103830000Y-76225000D03*
D62*
X154567000Y-79178521D03*
D59*
X138480000Y-89400000D03*
D60*
X159886000Y-98631000D03*
D61*
X173030500Y-77212479D03*
D63*
X96620000Y-96210000D03*
D59*
X134479975Y-94200000D03*
X180460000Y-74374000D03*
X185500000Y-69760000D03*
D62*
X123437000Y-108972000D03*
D59*
X141680000Y-84600000D03*
X182880000Y-79860000D03*
X135280000Y-87000000D03*
X104080000Y-90900000D03*
X182910000Y-73460000D03*
X145680000Y-94200000D03*
X136880000Y-92600000D03*
D62*
X120740000Y-103824500D03*
D63*
X141349269Y-68945214D03*
D59*
X144880000Y-94200000D03*
X129546554Y-106668490D03*
X126231000Y-65484000D03*
D60*
X118000000Y-66820000D03*
X116880503Y-64802940D03*
D64*
X161346500Y-81105000D03*
D63*
X96650000Y-103840000D03*
D62*
X170309539Y-85441529D03*
D63*
X96640000Y-106790000D03*
D59*
X138980000Y-102700000D03*
D63*
X96620000Y-98850000D03*
D59*
X107130000Y-76300000D03*
D60*
X174830000Y-94810000D03*
D59*
X176130000Y-77475000D03*
X113200000Y-73520000D03*
D63*
X145297843Y-68967860D03*
X96600000Y-69640000D03*
X96610000Y-93720000D03*
D59*
X185530000Y-96220000D03*
X182900000Y-78580000D03*
X112155000Y-78325000D03*
D62*
X176970000Y-104550000D03*
D59*
X153003000Y-104392000D03*
D63*
X141180000Y-108410000D03*
D60*
X123300000Y-63620000D03*
D59*
X159855000Y-78631000D03*
D63*
X133310000Y-106920000D03*
D59*
X182220000Y-101430000D03*
D63*
X103510000Y-87120000D03*
D59*
X135279986Y-94200000D03*
X185560000Y-77400000D03*
X174313117Y-71127457D03*
X136880000Y-84600000D03*
D60*
X106974809Y-64953974D03*
D59*
X182990000Y-92550000D03*
D60*
X166632000Y-96363000D03*
D61*
X112749991Y-101896607D03*
D59*
X179755000Y-87800000D03*
X140880000Y-91400000D03*
X170200000Y-81110000D03*
D64*
X169919000Y-103076000D03*
D62*
X180435000Y-70610000D03*
D59*
X185540000Y-98820000D03*
X179800000Y-83183000D03*
X100171000Y-87628000D03*
D63*
X132900000Y-106340000D03*
D60*
X149741000Y-108809000D03*
D59*
X140880000Y-92600000D03*
X174379000Y-85743000D03*
X166284693Y-95025145D03*
X166363000Y-77549000D03*
X157624607Y-67486315D03*
D62*
X107435000Y-67516000D03*
D59*
X149046001Y-68703999D03*
X166363006Y-79473521D03*
X157800000Y-68570000D03*
X157107000Y-63216000D03*
X161560000Y-64569000D03*
X180444709Y-69292440D03*
D61*
X110593913Y-108636458D03*
D59*
X132080000Y-92600000D03*
D60*
X137310000Y-66500000D03*
D59*
X134534474Y-87810434D03*
D60*
X160900006Y-95020000D03*
D59*
X132880000Y-92600000D03*
D64*
X158679500Y-81168500D03*
D59*
X139280000Y-84600000D03*
D62*
X128380000Y-99819543D03*
D59*
X116000000Y-71220000D03*
X111880000Y-76400000D03*
X111885500Y-82507500D03*
D60*
X100894500Y-94884500D03*
D59*
X124400000Y-109120000D03*
X137315720Y-91235806D03*
X141680000Y-86200000D03*
D65*
X102482000Y-98250000D03*
D60*
X176142000Y-94567000D03*
D59*
X165803369Y-97344883D03*
X141680000Y-85400000D03*
D64*
X163505500Y-81168500D03*
D62*
X181155918Y-104980708D03*
D59*
X148680006Y-67600000D03*
D61*
X171697000Y-87455000D03*
D60*
X148268387Y-79156021D03*
D62*
X156091000Y-94585000D03*
D59*
X180255508Y-77402208D03*
D60*
X177920000Y-104854000D03*
D62*
X154593901Y-94607945D03*
D59*
X111400000Y-73420000D03*
X142480000Y-87800000D03*
X102101000Y-103838000D03*
X144950000Y-104620000D03*
D60*
X164625730Y-94982471D03*
D59*
X130309122Y-91609922D03*
X122930564Y-90161435D03*
X130328011Y-92850932D03*
X122356507Y-91613521D03*
X175507000Y-105108000D03*
X143280000Y-86200000D03*
X146480000Y-85400000D03*
X181680000Y-93200000D03*
X147700000Y-93768490D03*
X148234021Y-97199990D03*
X144880000Y-91800000D03*
X142480000Y-83800000D03*
X144080000Y-94200000D03*
X137680000Y-93400000D03*
X139200000Y-66137000D03*
X134480000Y-83800000D03*
X133680000Y-90200000D03*
X134480000Y-91000000D03*
D60*
X114547000Y-77295000D03*
D59*
X141640000Y-91107000D03*
X105480000Y-76350000D03*
X122926170Y-66532324D03*
X157680000Y-69900000D03*
X156725998Y-108301000D03*
X170426996Y-107838500D03*
X135980000Y-110500000D03*
X128180000Y-110500000D03*
X133680000Y-91800000D03*
X135250000Y-99350000D03*
X135780000Y-106100000D03*
D66*
X133930004Y-102200000D03*
D59*
X134710000Y-99200000D03*
X136080000Y-107100000D03*
X133680000Y-92600000D03*
X133680000Y-93400000D03*
X135729990Y-107600000D03*
X124880000Y-100156998D03*
X131430000Y-102000000D03*
X132880000Y-94200000D03*
X132258531Y-96187169D03*
X123099990Y-104346000D03*
X134680000Y-108350000D03*
X110080000Y-103400000D03*
X176523000Y-81486000D03*
X175761000Y-84280000D03*
X143260000Y-84620000D03*
X147948000Y-68659000D03*
X147582000Y-71562521D03*
X121990000Y-95616000D03*
X116438522Y-98377000D03*
X115245500Y-98377000D03*
X121901902Y-94914578D03*
X132079993Y-86200005D03*
X127220365Y-87166912D03*
X124880000Y-96300000D03*
X120793521Y-93972480D03*
X114900000Y-71620000D03*
X128380000Y-105500000D03*
D62*
X113900000Y-67320000D03*
D59*
X132680000Y-102595979D03*
X150037990Y-81740000D03*
X144080000Y-86200000D03*
X144880000Y-87000000D03*
X149575498Y-87093010D03*
X149860161Y-81214169D03*
X144880000Y-83800000D03*
X147343891Y-93217126D03*
X144080000Y-92600000D03*
X144880000Y-86200000D03*
X150357635Y-80989117D03*
X149331452Y-81077804D03*
X144880000Y-83000000D03*
X148349010Y-93322307D03*
X144880000Y-92600000D03*
X144880000Y-91000000D03*
X148533000Y-95089080D03*
X144880000Y-90200000D03*
X149912040Y-94858026D03*
X144880000Y-89400000D03*
X150565000Y-94858026D03*
X144880000Y-88600000D03*
X150539500Y-93965002D03*
X151190159Y-94219000D03*
X143280000Y-87000000D03*
X129890582Y-93304742D03*
X130988003Y-95125529D03*
X130338594Y-95412719D03*
X131425267Y-94791127D03*
X129887295Y-94389562D03*
X132080000Y-93400000D03*
X129266964Y-93852191D03*
X133181024Y-95753552D03*
X137062137Y-96437863D03*
X146312850Y-96100000D03*
X131498745Y-96135023D03*
X132080000Y-94200000D03*
X133674944Y-87000010D03*
X110067281Y-98787281D03*
X113131142Y-99577246D03*
X105607000Y-103236000D03*
X129772895Y-90048899D03*
X132080000Y-89402867D03*
X133448490Y-102800000D03*
X129123152Y-103173174D03*
X129030819Y-89641098D03*
X132880000Y-88600000D03*
X135830000Y-102850000D03*
X132080000Y-87000012D03*
X123802408Y-105966500D03*
X127569682Y-88554180D03*
X124880000Y-95000000D03*
X119680000Y-93400000D03*
X119967274Y-88887274D03*
X128916857Y-84275976D03*
X124202418Y-107207639D03*
X132830000Y-110100000D03*
X111500000Y-71220000D03*
X132330000Y-109600000D03*
X113000000Y-71220000D03*
X118930000Y-96700000D03*
X131293755Y-79827630D03*
X132080000Y-81400000D03*
X132080000Y-82199947D03*
X132880000Y-83000000D03*
X133672551Y-81400000D03*
X133680000Y-82200000D03*
X132480011Y-78313930D03*
X131261117Y-77886513D03*
X132880000Y-91000000D03*
X129923010Y-91995987D03*
X132077338Y-91002010D03*
X129413291Y-92228236D03*
X130295000Y-80978000D03*
X131280000Y-80627642D03*
X132080000Y-85399991D03*
X128580000Y-86181519D03*
X134284246Y-77455000D03*
X134480000Y-82200000D03*
X163680000Y-71600000D03*
X146559490Y-71978411D03*
X133335000Y-109595000D03*
X131879996Y-103400000D03*
X150140000Y-102290000D03*
X119960000Y-97820000D03*
X103280000Y-89500000D03*
X116268510Y-86116224D03*
X162441000Y-97270000D03*
X175244514Y-107267000D03*
X169725488Y-105743002D03*
X142480000Y-82200000D03*
X143280000Y-83000000D03*
X168903000Y-74755000D03*
X154425580Y-102987766D03*
X168014000Y-79327000D03*
X112800000Y-67720000D03*
X111600000Y-67720000D03*
X176269000Y-104473000D03*
X143280000Y-93400000D03*
X171050000Y-101628490D03*
X143280000Y-91800000D03*
X170859500Y-101077000D03*
X144080000Y-91800000D03*
X144080000Y-91000000D03*
X171050000Y-100442000D03*
X135280000Y-82200000D03*
X135684486Y-78053778D03*
X135482216Y-76729884D03*
X136080000Y-82200000D03*
X136080000Y-83000000D03*
X135636086Y-77253767D03*
X170680000Y-74600000D03*
X142785835Y-77336599D03*
X143280000Y-83800000D03*
X142480000Y-83020000D03*
X170173000Y-67135000D03*
X170935000Y-67135000D03*
X124582850Y-87331276D03*
X181872000Y-111603000D03*
X132082846Y-88602855D03*
X128191654Y-103187806D03*
X128810940Y-90140880D03*
X120008000Y-67008000D03*
X129947106Y-80044312D03*
X133680000Y-83000000D03*
X129507513Y-80406500D03*
X133680000Y-83800000D03*
X128834500Y-80089000D03*
X130334100Y-83854100D03*
X128434644Y-83600484D03*
X133680000Y-85400000D03*
X128390000Y-80406500D03*
X129035124Y-85855124D03*
X136880000Y-86200000D03*
X136080000Y-87800000D03*
X140880000Y-87800000D03*
X136880000Y-89400000D03*
X140080000Y-89400000D03*
D60*
X151758000Y-99774000D03*
D59*
X140080000Y-86200000D03*
X135280000Y-83000000D03*
X135070999Y-78598001D03*
X154694000Y-72487000D03*
X100450000Y-101044000D03*
X135280000Y-104900000D03*
X131880000Y-110050000D03*
X139280000Y-81400000D03*
X139554000Y-79423500D03*
X139046000Y-78915500D03*
X138728500Y-78280500D03*
X138382448Y-77562851D03*
X137527946Y-74952055D03*
X137680000Y-81400000D03*
X136824510Y-75497491D03*
X137174375Y-76624866D03*
X137007589Y-77284008D03*
X136926702Y-77887838D03*
X136207577Y-77419167D03*
X136072586Y-81400000D03*
X135129075Y-78015596D03*
X135272575Y-81400000D03*
X134355563Y-76739572D03*
X134472563Y-81400000D03*
X144080000Y-93400000D03*
X149010682Y-96469558D03*
X144880000Y-93400000D03*
X147998013Y-95293088D03*
X143280000Y-91000000D03*
X149324536Y-95289536D03*
X144080000Y-90200000D03*
X144080000Y-89400000D03*
X147430953Y-90200010D03*
X143280000Y-90200000D03*
X144080000Y-88600000D03*
X147910791Y-87683418D03*
X148483539Y-87623462D03*
X143280000Y-88600000D03*
X144080000Y-85400000D03*
X147612154Y-85271855D03*
X144880000Y-85400000D03*
X144880000Y-84600000D03*
X149764011Y-83914020D03*
X144080000Y-83800000D03*
X148964000Y-83391010D03*
X144080000Y-83000000D03*
X148519500Y-81740000D03*
X144880000Y-82200000D03*
X144080000Y-82200000D03*
X148202000Y-80343000D03*
X147301000Y-81265000D03*
X144880000Y-81400000D03*
X142773292Y-78438000D03*
X142480000Y-81400000D03*
X142463773Y-79031095D03*
X144519000Y-78120500D03*
X144080000Y-81400000D03*
X145217500Y-78120500D03*
X146700290Y-76355020D03*
X143280000Y-82200000D03*
X146868500Y-75707500D03*
X143280000Y-81400000D03*
X143708879Y-75817300D03*
X141680000Y-83000000D03*
X141680000Y-82200000D03*
X140080000Y-82200000D03*
X141459000Y-77962998D03*
X140880000Y-83000000D03*
X142280000Y-74200000D03*
X140880000Y-82200000D03*
X143418626Y-73975126D03*
X132498714Y-77088928D03*
X132495017Y-76474983D03*
X129500000Y-77226215D03*
X131880000Y-77800000D03*
X130480000Y-78200000D03*
X130680000Y-77626225D03*
X131661891Y-79027618D03*
X132872540Y-81400000D03*
X131680002Y-78400000D03*
X129723500Y-82838510D03*
X132080000Y-82999958D03*
X128954920Y-82873403D03*
X132880000Y-83800000D03*
X132080000Y-83799969D03*
X129584592Y-83786008D03*
X106625000Y-101495000D03*
X106500000Y-100020000D03*
X132080000Y-84599980D03*
X127646357Y-84178502D03*
X105342361Y-104167391D03*
X106197485Y-105022515D03*
X133680000Y-84600000D03*
X104980000Y-104800000D03*
X132880000Y-85400000D03*
X162271466Y-66284958D03*
X139976487Y-75771000D03*
X140645500Y-75771000D03*
X176797084Y-71127457D03*
X140080000Y-81400000D03*
X143650666Y-63862520D03*
X146100000Y-79820000D03*
X151773000Y-63470000D03*
X154044000Y-67500000D03*
X176605426Y-88507160D03*
X152497066Y-78900000D03*
X141344000Y-75771000D03*
X148630000Y-63424051D03*
X140060000Y-83020000D03*
X177188990Y-88764025D03*
D60*
X100855891Y-71574861D03*
D62*
X157996000Y-72487000D03*
D59*
X135280000Y-85400000D03*
X137680000Y-84600000D03*
X135280000Y-86200000D03*
X127500000Y-83315491D03*
X169517039Y-69686488D03*
X171839000Y-71127457D03*
X122294000Y-76660000D03*
X130437000Y-67280000D03*
X168141000Y-91138000D03*
X168146081Y-97863904D03*
X150838000Y-81773000D03*
X165982000Y-71127457D03*
X172982000Y-74265000D03*
X168903000Y-76972035D03*
X146280000Y-95500000D03*
X132880000Y-89400000D03*
X128142763Y-88579429D03*
X133680000Y-88600000D03*
X129821745Y-105821405D03*
X123393490Y-99596370D03*
X168268000Y-99562279D03*
X167633000Y-90757000D03*
X125762663Y-90748364D03*
X132880000Y-90200000D03*
X124680000Y-108199990D03*
X133680000Y-87799999D03*
X123117957Y-96877508D03*
X125004452Y-89401351D03*
X132885371Y-87000010D03*
X123880000Y-102000000D03*
X128880009Y-101993151D03*
X129029169Y-88568597D03*
X132080000Y-90200000D03*
X114042462Y-98762462D03*
X130211724Y-88531724D03*
X113362850Y-99082850D03*
X112480000Y-99800000D03*
X136880000Y-83000000D03*
X134480000Y-83000000D03*
X111680008Y-101000000D03*
X105276000Y-101044000D03*
X144425983Y-96634500D03*
X144425983Y-95965500D03*
X146080000Y-68800000D03*
X144634000Y-79522787D03*
X152355000Y-72975000D03*
X132796356Y-96585904D03*
X134012490Y-96062490D03*
X136240810Y-95905830D03*
X137030000Y-95630500D03*
X133650000Y-95000000D03*
X135370000Y-96460000D03*
X134410000Y-94910000D03*
X135508434Y-95932356D03*
X142160000Y-96450000D03*
X138000740Y-95885760D03*
X137910000Y-95250000D03*
X143700002Y-96473498D03*
D67*
X172607500Y-79047500D02*
X172155000Y-79500000D01*
D68*
X134968500Y-91963500D02*
X134900000Y-91895000D01*
X105808500Y-82292000D02*
X105872000Y-82292000D01*
D67*
X165982000Y-87533500D02*
X165246500Y-87533500D01*
D68*
X138500000Y-87557500D02*
X138517500Y-87557500D01*
D69*
X132880000Y-93400000D02*
X133680000Y-94200000D01*
X132480000Y-93000000D02*
X132480000Y-92200000D01*
D67*
X158432500Y-91112500D02*
X159250000Y-91930000D01*
X179078000Y-92855500D02*
X179758500Y-92855500D01*
D68*
X134900000Y-91807500D02*
X134900000Y-92441000D01*
D67*
X122755000Y-80200000D02*
X122755000Y-79100000D01*
X155997500Y-92535000D02*
X155997500Y-90630000D01*
X152930000Y-72200000D02*
X152930000Y-71350000D01*
D68*
X156712500Y-82013078D02*
X155949000Y-81249578D01*
D67*
X167455000Y-69625000D02*
X167455000Y-68710000D01*
D68*
X108270000Y-75160000D02*
X108290000Y-75180000D01*
D70*
X130897500Y-106600000D02*
X132835000Y-106600000D01*
D68*
X166256000Y-68659000D02*
X167506000Y-68659000D01*
X136070000Y-87000000D02*
X136100000Y-86970000D01*
X134900000Y-91770000D02*
X134450000Y-91770000D01*
X106827500Y-76602500D02*
X107130000Y-76300000D01*
X169947068Y-85804000D02*
X170309539Y-85441529D01*
X155958522Y-81240056D02*
X155949000Y-81249578D01*
X141387500Y-91907500D02*
X140880000Y-91400000D01*
X138550000Y-92769000D02*
X138649000Y-92769000D01*
D71*
X105555000Y-82056000D02*
X105791000Y-82292000D01*
D67*
X175316500Y-87473000D02*
X176124000Y-87473000D01*
X154567000Y-78905500D02*
X155695000Y-77777500D01*
X163097500Y-90962500D02*
X163315000Y-90962500D01*
X162350000Y-91710000D02*
X163097500Y-90962500D01*
D68*
X105872000Y-82292000D02*
X106780000Y-83200000D01*
D67*
X172840000Y-79047500D02*
X172607500Y-79047500D01*
D68*
X103825000Y-77115000D02*
X103825000Y-76230000D01*
D69*
X137080000Y-88315000D02*
X136975000Y-88420000D01*
D68*
X141153500Y-89926500D02*
X141680000Y-89400000D01*
D67*
X106795000Y-110975000D02*
X106760000Y-111010000D01*
X149296500Y-74882000D02*
X149296500Y-74683500D01*
X165087500Y-82220000D02*
X165087500Y-81264502D01*
D68*
X139280000Y-88600000D02*
X139230000Y-88600000D01*
D72*
X184270000Y-65230000D02*
X186810000Y-65230000D01*
D67*
X123130000Y-80575000D02*
X122755000Y-80200000D01*
D68*
X138500000Y-80482500D02*
X138500000Y-79770000D01*
D67*
X171585000Y-94930000D02*
X171580000Y-94925000D01*
X141980000Y-67706500D02*
X143073500Y-67706500D01*
X103403500Y-87226500D02*
X103510000Y-87120000D01*
X158235000Y-77392000D02*
X158235000Y-78295000D01*
X176124000Y-87473000D02*
X176396000Y-87201000D01*
D68*
X141020000Y-92600000D02*
X141065000Y-92645000D01*
D67*
X165982000Y-86348000D02*
X166493000Y-85837000D01*
D68*
X136110990Y-86995403D02*
X136110990Y-87288031D01*
D67*
X179148500Y-87193500D02*
X179755000Y-87800000D01*
D68*
X133680000Y-91000000D02*
X132880000Y-91800000D01*
D69*
X141065000Y-93153000D02*
X141089499Y-93177499D01*
X111515000Y-93000000D02*
X111515000Y-92200000D01*
D68*
X138517500Y-87557500D02*
X138525000Y-87565000D01*
X139880000Y-87000000D02*
X139880000Y-87565000D01*
D67*
X174979000Y-68550000D02*
X173747000Y-68550000D01*
D68*
X156712500Y-82220000D02*
X156712500Y-82013078D01*
D67*
X150455000Y-73525000D02*
X150905000Y-73525000D01*
X154545521Y-79200000D02*
X154567000Y-79178521D01*
X169157000Y-93853500D02*
X169603500Y-93853500D01*
D68*
X120250000Y-75920000D02*
X120250000Y-77195000D01*
X111585000Y-92965000D02*
X111585000Y-92675000D01*
D67*
X179966500Y-94686500D02*
X180080000Y-94800000D01*
D69*
X135883000Y-92090500D02*
X135887500Y-92095000D01*
D68*
X135280000Y-92600000D02*
X136080000Y-93400000D01*
X177300000Y-95850000D02*
X177300000Y-96766645D01*
D67*
X152546000Y-69312000D02*
X152892000Y-69312000D01*
D68*
X105276000Y-95964000D02*
X105530000Y-95710000D01*
X136080000Y-93400000D02*
X136080000Y-93103723D01*
D72*
X184270000Y-85550000D02*
X186810000Y-85550000D01*
D67*
X157752500Y-90630000D02*
X158235000Y-91112500D01*
D68*
X137680000Y-88600000D02*
X138480000Y-88600000D01*
D67*
X153457500Y-79200000D02*
X154545521Y-79200000D01*
D68*
X108602500Y-75292530D02*
X109455000Y-76145030D01*
X177300000Y-96766645D02*
X177287984Y-96778661D01*
X111585000Y-92675000D02*
X111100000Y-92190000D01*
D67*
X174110000Y-76812500D02*
X174110000Y-77570000D01*
D68*
X139880000Y-87000000D02*
X141680000Y-87000000D01*
X138480000Y-88600000D02*
X139280000Y-88600000D01*
X169050000Y-85804000D02*
X169947068Y-85804000D01*
D67*
X104841000Y-72573704D02*
X104841000Y-72785000D01*
D69*
X132880000Y-93400000D02*
X133280000Y-93000000D01*
D68*
X138525000Y-87565000D02*
X138525000Y-86676000D01*
D69*
X132880000Y-93400000D02*
X132480000Y-93000000D01*
D67*
X167785500Y-70310000D02*
X167785500Y-69955500D01*
D68*
X137080000Y-86995403D02*
X137080000Y-87565000D01*
X135883000Y-89914970D02*
X135533514Y-89565484D01*
D67*
X175227500Y-78565000D02*
X175227500Y-79377500D01*
D69*
X139414000Y-88031000D02*
X139880000Y-87565000D01*
D67*
X159250000Y-91930000D02*
X160910000Y-91930000D01*
D68*
X141383723Y-87000000D02*
X141680000Y-87000000D01*
D67*
X160775000Y-91355000D02*
X161130000Y-91710000D01*
X135438500Y-68550000D02*
X135438500Y-68366500D01*
X175227500Y-79377500D02*
X175205000Y-79400000D01*
X161130000Y-91710000D02*
X162350000Y-91710000D01*
D68*
X138500000Y-79770000D02*
X138480000Y-79750000D01*
D67*
X173747000Y-68550000D02*
X173729000Y-68532000D01*
D68*
X138480000Y-87577500D02*
X138500000Y-87557500D01*
D72*
X95370000Y-88090000D02*
X97910000Y-88090000D01*
D67*
X165087500Y-81264502D02*
X164972998Y-81150000D01*
X174110000Y-77570000D02*
X174105000Y-77575000D01*
X167785500Y-69955500D02*
X167455000Y-69625000D01*
D68*
X135280000Y-87000000D02*
X136070000Y-87000000D01*
D67*
X179063000Y-87193500D02*
X179148500Y-87193500D01*
D68*
X138500000Y-92620000D02*
X139280000Y-93400000D01*
D70*
X134772500Y-106600000D02*
X132835000Y-106600000D01*
D68*
X138480000Y-88600000D02*
X138480000Y-87577500D01*
X108602500Y-75180000D02*
X108602500Y-75292530D01*
D67*
X150255000Y-73725000D02*
X150455000Y-73525000D01*
D69*
X137080000Y-86995403D02*
X137080000Y-86978000D01*
D67*
X153457500Y-77295000D02*
X153457500Y-79200000D01*
X135438500Y-68366500D02*
X136055000Y-67750000D01*
D68*
X138525000Y-86676000D02*
X139556000Y-86676000D01*
D72*
X95370000Y-65230000D02*
X97910000Y-65230000D01*
D67*
X171585000Y-96015000D02*
X171585000Y-94930000D01*
X160775000Y-77711000D02*
X159855000Y-78631000D01*
D68*
X134450000Y-91770000D02*
X133680000Y-91000000D01*
D67*
X177071500Y-104448500D02*
X176970000Y-104550000D01*
D68*
X135883000Y-92906723D02*
X135883000Y-92090500D01*
X138500000Y-92557500D02*
X138500000Y-92620000D01*
D67*
X102736000Y-87226500D02*
X103403500Y-87226500D01*
D68*
X139880000Y-87565000D02*
X139880000Y-87800000D01*
D69*
X140880000Y-91400000D02*
X140880000Y-91444000D01*
D68*
X104054500Y-93061000D02*
X104054500Y-92965500D01*
D67*
X154567000Y-79178521D02*
X154567000Y-78905500D01*
D68*
X139930000Y-91800000D02*
X140100000Y-91970000D01*
X135533514Y-89565484D02*
X135324015Y-89355985D01*
D69*
X139280000Y-88600000D02*
X139414000Y-88466000D01*
D67*
X151455000Y-72975000D02*
X151455000Y-72950000D01*
D68*
X137080000Y-87565000D02*
X137080000Y-88315000D01*
D67*
X178810500Y-104385250D02*
X179380000Y-104954750D01*
X104387500Y-70946979D02*
X104280000Y-71054479D01*
D68*
X141065000Y-92645000D02*
X141065000Y-93153000D01*
X158645000Y-96490000D02*
X158645000Y-98635000D01*
X105276000Y-98074500D02*
X105276000Y-95964000D01*
D69*
X132480000Y-92200000D02*
X132880000Y-91800000D01*
D68*
X141089499Y-93190501D02*
X140880000Y-93400000D01*
D67*
X150767500Y-64112500D02*
X150805000Y-64075000D01*
D68*
X104858500Y-72785000D02*
X104858500Y-72530500D01*
D67*
X175467500Y-76812500D02*
X176130000Y-77475000D01*
D68*
X140880000Y-91444000D02*
X141065000Y-91629000D01*
D67*
X124325000Y-81770000D02*
X123130000Y-80575000D01*
D69*
X141089499Y-93177499D02*
X141089499Y-93190501D01*
D68*
X136110990Y-86995403D02*
X137080000Y-86995403D01*
X140880000Y-92600000D02*
X141020000Y-92600000D01*
D67*
X147817500Y-106668500D02*
X147455000Y-107031000D01*
X170278500Y-95298500D02*
X170280000Y-95300000D01*
D68*
X141065000Y-91629000D02*
X141065000Y-92645000D01*
D67*
X126300000Y-110975000D02*
X127695000Y-110975000D01*
X143073500Y-67706500D02*
X143080000Y-67700000D01*
D68*
X103825000Y-76230000D02*
X103830000Y-76225000D01*
X156251500Y-98504000D02*
X158514000Y-98504000D01*
D67*
X178810500Y-103711000D02*
X178810500Y-104385250D01*
D68*
X173960000Y-76975000D02*
X174110000Y-77125000D01*
D67*
X158235000Y-78295000D02*
X157855000Y-78675000D01*
X166493000Y-85837000D02*
X169050000Y-85837000D01*
D68*
X107406500Y-93195000D02*
X106490000Y-92278500D01*
D67*
X124812500Y-81770000D02*
X124325000Y-81770000D01*
X108300000Y-110975000D02*
X106795000Y-110975000D01*
X164200000Y-88580000D02*
X164200000Y-90077500D01*
D68*
X134900000Y-92441000D02*
X135059000Y-92600000D01*
D67*
X165246500Y-87533500D02*
X164200000Y-88580000D01*
X177071500Y-103711000D02*
X177071500Y-104448500D01*
D68*
X141153500Y-91126500D02*
X141153500Y-89926500D01*
D67*
X150905000Y-73525000D02*
X151455000Y-72975000D01*
X172793021Y-76975000D02*
X173030500Y-77212479D01*
X165982000Y-87533500D02*
X165982000Y-86348000D01*
D68*
X140773938Y-86994997D02*
X140778941Y-87000000D01*
X108602500Y-77085000D02*
X109320000Y-77085000D01*
D67*
X179078000Y-94686500D02*
X179966500Y-94686500D01*
X122755000Y-78800000D02*
X122030000Y-78075000D01*
D68*
X172840000Y-78960000D02*
X172840000Y-77087000D01*
D72*
X95370000Y-108410000D02*
X97910000Y-108410000D01*
D67*
X167455000Y-68710000D02*
X167506000Y-68659000D01*
D69*
X137680000Y-88165000D02*
X137080000Y-87565000D01*
D67*
X155997500Y-90630000D02*
X157752500Y-90630000D01*
X122755000Y-79100000D02*
X122755000Y-78800000D01*
X164200000Y-90077500D02*
X163315000Y-90962500D01*
D68*
X120250000Y-77195000D02*
X120255000Y-77200000D01*
D67*
X160910000Y-91930000D02*
X161130000Y-91710000D01*
D69*
X137680000Y-88600000D02*
X137680000Y-88165000D01*
D68*
X158514000Y-98504000D02*
X158645000Y-98635000D01*
D67*
X104387500Y-70020000D02*
X104387500Y-70946979D01*
X158235000Y-91112500D02*
X158432500Y-91112500D01*
X127695000Y-110975000D02*
X127720000Y-111000000D01*
X147817500Y-105200000D02*
X147817500Y-106668500D01*
D68*
X137080000Y-86978000D02*
X137382000Y-86676000D01*
X108300000Y-93195000D02*
X107406500Y-93195000D01*
D67*
X171935000Y-76975000D02*
X172793021Y-76975000D01*
D68*
X109320000Y-77085000D02*
X109330000Y-77075000D01*
X135883000Y-92090500D02*
X135883000Y-89914970D01*
X138550000Y-92769000D02*
X138311000Y-92769000D01*
D67*
X160775000Y-77627500D02*
X160775000Y-77711000D01*
D68*
X136080000Y-93103723D02*
X135883000Y-92906723D01*
X142000000Y-91907500D02*
X141387500Y-91907500D01*
D67*
X149296500Y-74683500D02*
X150255000Y-73725000D01*
X169603500Y-93853500D02*
X170280000Y-94530000D01*
X160775000Y-90600000D02*
X160775000Y-91355000D01*
X169172000Y-95298500D02*
X170278500Y-95298500D01*
D69*
X139880000Y-88275000D02*
X140025000Y-88420000D01*
D68*
X139556000Y-86676000D02*
X139880000Y-87000000D01*
D67*
X149980000Y-64112500D02*
X150767500Y-64112500D01*
D68*
X135059000Y-92600000D02*
X135280000Y-92600000D01*
X140880000Y-91400000D02*
X141153500Y-91126500D01*
X106365000Y-76844374D02*
X106365000Y-76915000D01*
D69*
X139414000Y-88466000D02*
X139414000Y-88031000D01*
D68*
X106365000Y-76602500D02*
X106827500Y-76602500D01*
D67*
X105597352Y-71817352D02*
X104841000Y-72573704D01*
D68*
X139880000Y-87800000D02*
X139880000Y-88275000D01*
D67*
X175380000Y-76812500D02*
X175467500Y-76812500D01*
D72*
X184270000Y-108410000D02*
X186810000Y-108410000D01*
D68*
X140778941Y-87000000D02*
X141383723Y-87000000D01*
X104054500Y-92965500D02*
X104850000Y-92170000D01*
D69*
X133280000Y-93000000D02*
X133280000Y-92200000D01*
X133280000Y-92200000D02*
X132880000Y-91800000D01*
D68*
X137382000Y-86676000D02*
X138525000Y-86676000D01*
D67*
X179758500Y-92855500D02*
X180714000Y-91900000D01*
D68*
X167473000Y-68692000D02*
X167506000Y-68659000D01*
X162108500Y-93170000D02*
X162426000Y-92852500D01*
D71*
X108705000Y-67516000D02*
X107435000Y-67516000D01*
D68*
X102875000Y-74515000D02*
X102295000Y-74515000D01*
X165863001Y-77049001D02*
X166363000Y-77549000D01*
X174602000Y-85743000D02*
X175065000Y-85280000D01*
X154710000Y-68518000D02*
X155710000Y-68518000D01*
X101666000Y-73402000D02*
X101666000Y-72402185D01*
X160155000Y-70422000D02*
X160155000Y-68391000D01*
X160140000Y-70437000D02*
X160155000Y-70422000D01*
X149046001Y-69266001D02*
X149046001Y-68703999D01*
X166316527Y-79520000D02*
X166363006Y-79473521D01*
X151580000Y-67650000D02*
X153330000Y-67650000D01*
X161918000Y-93170000D02*
X162108500Y-93170000D01*
X154198000Y-68518000D02*
X154710000Y-68518000D01*
X155695000Y-69000000D02*
X157800000Y-69000000D01*
X157807568Y-68376375D02*
X157807561Y-68376375D01*
X160775000Y-79520000D02*
X166316527Y-79520000D01*
X157800000Y-68383943D02*
X157800000Y-69000000D01*
X102295000Y-74515000D02*
X101666000Y-73886000D01*
X150980000Y-69000000D02*
X150980000Y-68250000D01*
X155710000Y-68985000D02*
X155695000Y-69000000D01*
X162480000Y-72256000D02*
X162480000Y-71100000D01*
X163972044Y-76301044D02*
X162854000Y-75183000D01*
X160755000Y-79835000D02*
X160775000Y-79815000D01*
X102295000Y-71625000D02*
X104905000Y-71625000D01*
X162854000Y-73630000D02*
X162854000Y-72630000D01*
X162854000Y-75183000D02*
X162854000Y-73630000D01*
X162426000Y-92852500D02*
X162807000Y-92852500D01*
X101811000Y-72785000D02*
X102948500Y-72785000D01*
X157800000Y-69000000D02*
X160140000Y-69000000D01*
X101666000Y-72402185D02*
X101680000Y-72388185D01*
X162854000Y-72630000D02*
X162480000Y-72256000D01*
X162480000Y-71100000D02*
X160803000Y-71100000D01*
X166284693Y-94494693D02*
X166284693Y-95025145D01*
X149980000Y-68387500D02*
X149980000Y-68900000D01*
X163378500Y-92852500D02*
X164642500Y-92852500D01*
X104905000Y-71625000D02*
X107435000Y-69095000D01*
X160742000Y-79520000D02*
X160536000Y-79726000D01*
X149980000Y-68687500D02*
X149980000Y-69300000D01*
X149967500Y-70200000D02*
X149967500Y-69512500D01*
X165115044Y-76301044D02*
X165863001Y-77049001D01*
D71*
X109980000Y-66241000D02*
X108705000Y-67516000D01*
D68*
X160803000Y-71100000D02*
X160140000Y-70437000D01*
X101666000Y-72254000D02*
X102295000Y-71625000D01*
X101793000Y-72767000D02*
X101811000Y-72785000D01*
X149967500Y-69512500D02*
X150080000Y-69400000D01*
X149180000Y-70900000D02*
X149980000Y-71700000D01*
X150080000Y-69400000D02*
X150580000Y-69400000D01*
X149980000Y-71700000D02*
X149980000Y-72469000D01*
X160790000Y-79800000D02*
X160775000Y-79815000D01*
D71*
X109980000Y-65200000D02*
X109980000Y-66241000D01*
D68*
X157807568Y-68376375D02*
X157800000Y-68383943D01*
X149180000Y-69400000D02*
X149046001Y-69266001D01*
X174379000Y-85743000D02*
X174602000Y-85743000D01*
X101666000Y-73886000D02*
X101666000Y-73402000D01*
X150580000Y-69400000D02*
X150980000Y-69000000D01*
X164642500Y-92852500D02*
X166284693Y-94494693D01*
X160775000Y-79520000D02*
X160742000Y-79520000D01*
X163981044Y-76301044D02*
X165115044Y-76301044D01*
X173221000Y-85743000D02*
X174379000Y-85743000D01*
X149180000Y-69400000D02*
X150080000Y-69400000D01*
X163265000Y-93200000D02*
X163315000Y-93150000D01*
X153330000Y-67650000D02*
X154198000Y-68518000D01*
X155710000Y-67485500D02*
X155710000Y-68985000D01*
X157624607Y-68193421D02*
X157624607Y-67486315D01*
X160711500Y-79517500D02*
X159886000Y-79517500D01*
X107435000Y-69095000D02*
X107435000Y-67516000D01*
X150980000Y-68250000D02*
X151580000Y-67650000D01*
X163981044Y-76301044D02*
X163972044Y-76301044D01*
X159441500Y-79962000D02*
X159314500Y-79962000D01*
X160155000Y-68985000D02*
X160140000Y-69000000D01*
X157807561Y-68376375D02*
X157624607Y-68193421D01*
X159886000Y-79517500D02*
X159441500Y-79962000D01*
X149180000Y-69400000D02*
X149180000Y-70900000D01*
X101666000Y-72402185D02*
X101666000Y-72254000D01*
X102825000Y-74565000D02*
X102875000Y-74515000D01*
X160155000Y-67358500D02*
X160155000Y-68985000D01*
X156607001Y-63715999D02*
X157107000Y-63216000D01*
X155710000Y-64613000D02*
X156607001Y-63715999D01*
X155710000Y-65550500D02*
X155710000Y-64613000D01*
X180817560Y-69292440D02*
X180444709Y-69292440D01*
X161560000Y-64569000D02*
X161382000Y-64391000D01*
X181030000Y-69080000D02*
X180817560Y-69292440D01*
X185640000Y-63860000D02*
X182740000Y-63860000D01*
X186810000Y-62690000D02*
X185640000Y-63860000D01*
X182740000Y-67390000D02*
X181050000Y-69080000D01*
X181050000Y-69080000D02*
X181030000Y-69080000D01*
X160155000Y-64476000D02*
X159784000Y-64105000D01*
X182740000Y-63860000D02*
X182740000Y-67390000D01*
X161382000Y-64391000D02*
X160155000Y-64391000D01*
D73*
X129080000Y-98402500D02*
X129080000Y-99119543D01*
D68*
X135144040Y-88420000D02*
X134534474Y-87810434D01*
X114800000Y-82507500D02*
X116247851Y-82507500D01*
D67*
X163505500Y-82064500D02*
X163505500Y-81592764D01*
D68*
X177300000Y-92793000D02*
X177300000Y-93424000D01*
X116440000Y-82524000D02*
X116440000Y-83614400D01*
X113300000Y-82507500D02*
X111885500Y-82507500D01*
X179190000Y-78735000D02*
X179190000Y-77275000D01*
D67*
X160307500Y-95612506D02*
X160900006Y-95020000D01*
D68*
X141687500Y-88420000D02*
X141860000Y-88420000D01*
X113505900Y-82509600D02*
X114986100Y-82509600D01*
X113484000Y-82531500D02*
X113505900Y-82509600D01*
X140112500Y-85432500D02*
X140900000Y-85432500D01*
D74*
X108260434Y-109760338D02*
X110310434Y-109760338D01*
D68*
X168687000Y-87446000D02*
X169792000Y-87446000D01*
X138696000Y-84600000D02*
X139280000Y-84600000D01*
X179517208Y-77402208D02*
X179959231Y-77402208D01*
D69*
X130567500Y-98775000D02*
X130580000Y-98787500D01*
D67*
X158287500Y-82220000D02*
X158287500Y-81560500D01*
D68*
X114986100Y-82509600D02*
X115008000Y-82531500D01*
D67*
X159152000Y-82220000D02*
X159314500Y-82057500D01*
D73*
X129080000Y-99119543D02*
X128380000Y-99819543D01*
D67*
X163505500Y-81592764D02*
X163505500Y-81168500D01*
D68*
X173424000Y-87473000D02*
X173406000Y-87455000D01*
D71*
X180460000Y-103711000D02*
X180460000Y-104284790D01*
D68*
X165603370Y-97134770D02*
X164813600Y-96345000D01*
D69*
X171688000Y-87446000D02*
X171697000Y-87455000D01*
D72*
X184270000Y-110950000D02*
X186810000Y-110950000D01*
D74*
X102101000Y-93678000D02*
X101394499Y-94384501D01*
D68*
X138500000Y-84796000D02*
X138696000Y-84600000D01*
D74*
X110593913Y-109202143D02*
X110593913Y-108636458D01*
D68*
X116980000Y-84154400D02*
X116980000Y-84700000D01*
X163350000Y-82220000D02*
X163505500Y-82064500D01*
D71*
X180460000Y-104284790D02*
X181155918Y-104980708D01*
D67*
X162779000Y-82220000D02*
X162553000Y-81994000D01*
D68*
X116440000Y-83614400D02*
X116980000Y-84154400D01*
X169792000Y-87446000D02*
X171688000Y-87446000D01*
D73*
X128780000Y-98673000D02*
X129050500Y-98402500D01*
D68*
X147380000Y-67706500D02*
X148573506Y-67706500D01*
X141860000Y-88420000D02*
X142480000Y-87800000D01*
X177300000Y-94112500D02*
X176596500Y-94112500D01*
D67*
X138500000Y-85682500D02*
X138500000Y-84796000D01*
X158287500Y-82220000D02*
X159152000Y-82220000D01*
D68*
X140830000Y-85470000D02*
X140900000Y-85400000D01*
X102877000Y-103600000D02*
X102242000Y-103600000D01*
X176596500Y-94112500D02*
X176142000Y-94567000D01*
D74*
X110310434Y-109760338D02*
X110593913Y-109476859D01*
D68*
X119200000Y-72243000D02*
X116200000Y-72243000D01*
D74*
X101394499Y-94384501D02*
X100894500Y-94884500D01*
D67*
X162743500Y-81168500D02*
X163505500Y-81168500D01*
D68*
X135263000Y-88333000D02*
X135350000Y-88420000D01*
X138851000Y-85314000D02*
X138500000Y-85665000D01*
D75*
X103576500Y-98242500D02*
X102489500Y-98242500D01*
D71*
X172262685Y-87455000D02*
X171697000Y-87455000D01*
D74*
X110593913Y-109476859D02*
X110593913Y-109202143D01*
D67*
X145150000Y-104420000D02*
X144950000Y-104620000D01*
D72*
X148975493Y-79156021D02*
X148268387Y-79156021D01*
D69*
X158312000Y-82244500D02*
X158287500Y-82220000D01*
D67*
X162553000Y-81359000D02*
X162743500Y-81168500D01*
D68*
X149080093Y-79019093D02*
X149472000Y-79411000D01*
D67*
X184270000Y-88090000D02*
X181353000Y-88090000D01*
X159314500Y-81803500D02*
X158679500Y-81168500D01*
D69*
X116247851Y-82507500D02*
X116268510Y-82486841D01*
D67*
X158287500Y-81560500D02*
X158679500Y-81168500D01*
D73*
X102228000Y-93012500D02*
X102179500Y-93061000D01*
D67*
X160307500Y-96490000D02*
X160307500Y-95612506D01*
D68*
X102101000Y-103741000D02*
X102101000Y-103838000D01*
D71*
X173406000Y-87455000D02*
X172262685Y-87455000D01*
D68*
X179959231Y-77402208D02*
X180255508Y-77402208D01*
D67*
X159314500Y-82057500D02*
X159314500Y-81803500D01*
D72*
X149472000Y-79273500D02*
X149354521Y-79156021D01*
D68*
X165603370Y-97144884D02*
X165603370Y-97134770D01*
X165803369Y-97344883D02*
X165603370Y-97144884D01*
D72*
X184270000Y-88090000D02*
X186810000Y-88090000D01*
D68*
X139280000Y-84600000D02*
X140112500Y-85432500D01*
D74*
X102101000Y-93043000D02*
X102101000Y-93678000D01*
D68*
X164415000Y-96345000D02*
X164813600Y-96345000D01*
D73*
X102228000Y-91290500D02*
X102228000Y-93012500D01*
D67*
X145880000Y-105200000D02*
X145880000Y-104420000D01*
D68*
X167887000Y-87446000D02*
X168687000Y-87446000D01*
D72*
X149354521Y-79156021D02*
X148975493Y-79156021D01*
D69*
X128780000Y-98700000D02*
X128780000Y-98673000D01*
D75*
X141680000Y-85400000D02*
X140900000Y-85400000D01*
D71*
X102489500Y-98242500D02*
X102482000Y-98250000D01*
D73*
X113214800Y-83836800D02*
X113214800Y-83932000D01*
D68*
X111885500Y-82507500D02*
X113214800Y-83836800D01*
D69*
X116200000Y-71420000D02*
X116000000Y-71220000D01*
D67*
X145880000Y-104420000D02*
X145150000Y-104420000D01*
X179063000Y-88768500D02*
X180674500Y-88768500D01*
X163512500Y-82220000D02*
X162779000Y-82220000D01*
D69*
X116200000Y-72332500D02*
X116200000Y-71420000D01*
D67*
X162553000Y-81994000D02*
X162553000Y-81359000D01*
X180674500Y-88768500D02*
X181353000Y-88090000D01*
D68*
X177300000Y-93424000D02*
X177300000Y-94025000D01*
D76*
X103576500Y-98155000D02*
X103562500Y-98141000D01*
D68*
X102242000Y-103600000D02*
X102101000Y-103741000D01*
X148573506Y-67706500D02*
X148680006Y-67600000D01*
X135312500Y-88420000D02*
X135144040Y-88420000D01*
X179190000Y-77075000D02*
X179517208Y-77402208D01*
X138530000Y-85400000D02*
X138500000Y-85370000D01*
D73*
X129080000Y-98775000D02*
X130567500Y-98775000D01*
D69*
X158312000Y-83525500D02*
X158312000Y-82244500D01*
D67*
X160307500Y-96490000D02*
X160267000Y-97742000D01*
D68*
X140500000Y-85470000D02*
X140830000Y-85470000D01*
D69*
X116974000Y-84694000D02*
X116980000Y-84700000D01*
X147490501Y-93977989D02*
X147490501Y-95710501D01*
X147490501Y-95710501D02*
X148234021Y-96454021D01*
X147700000Y-93768490D02*
X147490501Y-93977989D01*
X148234021Y-96454021D02*
X148234021Y-97199990D01*
D68*
X155647500Y-96910000D02*
X155647500Y-95640000D01*
X157145126Y-95181874D02*
X156687000Y-95640000D01*
X157320500Y-92687500D02*
X157145126Y-92862874D01*
X157920000Y-93000000D02*
X158235000Y-93000000D01*
X155735000Y-95640000D02*
X156687000Y-95640000D01*
X158810000Y-92687500D02*
X158235000Y-92687500D01*
X157145126Y-92862874D02*
X157145126Y-95181874D01*
X158235000Y-92687500D02*
X157320500Y-92687500D01*
X156590500Y-96910000D02*
X156687000Y-96813500D01*
X156687000Y-96813500D02*
X156687000Y-95640000D01*
X155647500Y-96910000D02*
X156590500Y-96910000D01*
X159825000Y-93200000D02*
X159322500Y-93200000D01*
X159322500Y-93200000D02*
X158810000Y-92687500D01*
D75*
X133680000Y-89800000D02*
X134258000Y-89222000D01*
D68*
X134900000Y-90851000D02*
X134751000Y-91000000D01*
X140597000Y-67915000D02*
X140032430Y-67350430D01*
D75*
X138550000Y-83800000D02*
X142480000Y-83800000D01*
D73*
X134296398Y-85383602D02*
X134296398Y-85314000D01*
D69*
X134900000Y-90145000D02*
X134825000Y-90145000D01*
D68*
X142650000Y-89650000D02*
X142480000Y-89820000D01*
D72*
X112007000Y-79835000D02*
X112007000Y-80531200D01*
D75*
X133680000Y-90200000D02*
X133680000Y-89800000D01*
X142679999Y-89620001D02*
X142521001Y-89778999D01*
D69*
X111225100Y-81313100D02*
X111393100Y-81313100D01*
D68*
X134751000Y-91000000D02*
X134480000Y-91000000D01*
D75*
X143280000Y-87800000D02*
X142679999Y-87199999D01*
X142521001Y-89778999D02*
X142480000Y-89820000D01*
X142679999Y-87199999D02*
X142679999Y-83999999D01*
X142480000Y-89820000D02*
X142280331Y-90019669D01*
X134480000Y-83800000D02*
X134480000Y-85144500D01*
D73*
X141963000Y-91107000D02*
X141640000Y-91107000D01*
X142100000Y-90970000D02*
X141963000Y-91107000D01*
D68*
X140032430Y-67286930D02*
X140026862Y-66518000D01*
D72*
X114547000Y-77295000D02*
X112007000Y-79835000D01*
D68*
X140032430Y-67350430D02*
X140032430Y-67286930D01*
X140036900Y-66093600D02*
X140025500Y-66105000D01*
X140597000Y-69326000D02*
X140597000Y-67915000D01*
D69*
X142679999Y-88400000D02*
X142680000Y-88400000D01*
X134134473Y-88254473D02*
X134258000Y-88378000D01*
D68*
X140025500Y-66330000D02*
X140026862Y-66518000D01*
D72*
X109809000Y-81499500D02*
X111029500Y-81499500D01*
D68*
X141980000Y-66436500D02*
X141026500Y-66436500D01*
D75*
X142679999Y-83999999D02*
X142480000Y-83800000D01*
D68*
X142650000Y-89420000D02*
X142650000Y-89650000D01*
D73*
X142100000Y-90970000D02*
X142100000Y-90432500D01*
D68*
X140683600Y-66093600D02*
X140036900Y-66093600D01*
D72*
X111216900Y-81313100D02*
X111225100Y-81313100D01*
D68*
X139232000Y-66105000D02*
X139200000Y-66137000D01*
D75*
X134258000Y-89590500D02*
X134258000Y-89222000D01*
D68*
X140025500Y-66105000D02*
X139232000Y-66105000D01*
X141980000Y-66435000D02*
X141612000Y-66435000D01*
D72*
X111030000Y-81500000D02*
X111216900Y-81313100D01*
D75*
X142680000Y-88400000D02*
X143280000Y-87800000D01*
D73*
X134134473Y-87094473D02*
X134296398Y-86932548D01*
D72*
X111029500Y-81499500D02*
X111030000Y-81500000D01*
D75*
X134480000Y-83800000D02*
X138550000Y-83800000D01*
X134900000Y-90232500D02*
X134258000Y-89590500D01*
D68*
X141026500Y-66436500D02*
X140683600Y-66093600D01*
D67*
X138500000Y-82375000D02*
X138500000Y-83750000D01*
D72*
X112007000Y-80531200D02*
X111225100Y-81313100D01*
D75*
X142679999Y-88400000D02*
X142679999Y-89620001D01*
D68*
X134900000Y-90232500D02*
X134900000Y-90851000D01*
D69*
X134134473Y-87094473D02*
X134134473Y-88254473D01*
D75*
X134480000Y-85144500D02*
X134310500Y-85314000D01*
D68*
X138500000Y-83750000D02*
X138550000Y-83800000D01*
D73*
X134296398Y-86932548D02*
X134296398Y-85383602D01*
D75*
X134258000Y-89222000D02*
X134258000Y-88378000D01*
D68*
X158880000Y-86158000D02*
X158880000Y-90132000D01*
X167740000Y-80620000D02*
X167160000Y-80040000D01*
X160790000Y-72110000D02*
X160790000Y-74519000D01*
X159348000Y-90600000D02*
X159825000Y-90600000D01*
X164667548Y-78396548D02*
X166667740Y-78396548D01*
X158580000Y-71200000D02*
X159880000Y-71200000D01*
X172557500Y-80340000D02*
X172840000Y-80622500D01*
X105480000Y-76410000D02*
X105480000Y-76350000D01*
X169030000Y-81085000D02*
X169685000Y-80430000D01*
X104775000Y-77115000D02*
X105480000Y-76410000D01*
X157680000Y-70300000D02*
X158580000Y-71200000D01*
X166265000Y-80895000D02*
X166265000Y-83600000D01*
X171175000Y-82375000D02*
X171175000Y-80862500D01*
X158880000Y-90132000D02*
X159348000Y-90600000D01*
X156319773Y-71660227D02*
X157680000Y-70300000D01*
X161438000Y-83600000D02*
X158880000Y-86158000D01*
X156319773Y-76398773D02*
X156319773Y-71660227D01*
X168565000Y-80620000D02*
X167740000Y-80620000D01*
X171217500Y-80340000D02*
X172557500Y-80340000D01*
X172840000Y-80622500D02*
X172992500Y-80470000D01*
X159880000Y-71200000D02*
X160790000Y-72110000D01*
X169685000Y-80430000D02*
X170742500Y-80430000D01*
X167183550Y-79976450D02*
X166265000Y-80895000D01*
X171175000Y-80862500D02*
X170935000Y-80622500D01*
X157680000Y-70300000D02*
X157680000Y-69900000D01*
X166667740Y-78396548D02*
X167183550Y-78912358D01*
X170935000Y-80622500D02*
X171217500Y-80340000D01*
X169030000Y-81085000D02*
X168565000Y-80620000D01*
X166265000Y-83600000D02*
X161438000Y-83600000D01*
X167183550Y-78912358D02*
X167183550Y-79976450D01*
X160790000Y-74519000D02*
X164667548Y-78396548D01*
X172992500Y-80470000D02*
X175140000Y-80470000D01*
X157285000Y-77235000D02*
X157156000Y-77235000D01*
X170742500Y-80430000D02*
X170935000Y-80622500D01*
X157156000Y-77235000D02*
X156319773Y-76398773D01*
X157115000Y-79665000D02*
X157285000Y-79835000D01*
X155695000Y-79352500D02*
X155288500Y-79352500D01*
X153409000Y-80343000D02*
X153307500Y-80444500D01*
X153307500Y-81105000D02*
X153307500Y-82375000D01*
X153307500Y-80444500D02*
X153307500Y-81105000D01*
X156228500Y-79352500D02*
X156868000Y-79992000D01*
X154298000Y-80343000D02*
X153409000Y-80343000D01*
X153409000Y-82314000D02*
X153470000Y-82375000D01*
X155288500Y-79352500D02*
X154298000Y-80343000D01*
X156868000Y-79992000D02*
X157285000Y-79992000D01*
X155695000Y-79352500D02*
X156228500Y-79352500D01*
X108502000Y-74100500D02*
X106809500Y-74100500D01*
X108752500Y-73850000D02*
X108502000Y-74100500D01*
X104775000Y-74515000D02*
X105940000Y-74515000D01*
X105940000Y-74515000D02*
X106365000Y-74940000D01*
X106365000Y-74545000D02*
X106365000Y-75027500D01*
X108752500Y-73275000D02*
X108752500Y-73850000D01*
X104975000Y-74715000D02*
X104775000Y-74515000D01*
X106809500Y-74100500D02*
X106365000Y-74545000D01*
X108665000Y-73275000D02*
X108665000Y-72005000D01*
X169314000Y-98377000D02*
X169172000Y-98235000D01*
X172855000Y-97011291D02*
X172567532Y-97298759D01*
X156685000Y-105870000D02*
X156685000Y-108260002D01*
X172485000Y-103920000D02*
X172485000Y-105870000D01*
X172585000Y-105870000D02*
X172485000Y-105870000D01*
X172567532Y-97298759D02*
X171943379Y-97298759D01*
X156685000Y-108260002D02*
X156725998Y-108301000D01*
X172395496Y-105870000D02*
X170636495Y-107629001D01*
X172485000Y-105870000D02*
X172395496Y-105870000D01*
X170619505Y-97676005D02*
X170619505Y-98184495D01*
X169172000Y-97173500D02*
X169172000Y-98235000D01*
X170619505Y-98184495D02*
X170427000Y-98377000D01*
X170117000Y-97173500D02*
X170619505Y-97676005D01*
X169172000Y-97173500D02*
X170117000Y-97173500D01*
X170636495Y-107629001D02*
X170426996Y-107838500D01*
X170427000Y-98377000D02*
X169314000Y-98377000D01*
X171943379Y-97298759D02*
X171566133Y-97676005D01*
X172855000Y-96015000D02*
X172855000Y-97011291D01*
X171566133Y-103001133D02*
X172485000Y-103920000D01*
X170619505Y-97676005D02*
X171566133Y-97676005D01*
X171566133Y-97676005D02*
X171566133Y-103001133D01*
X126230000Y-109730000D02*
X127410000Y-109730000D01*
D69*
X134960000Y-98884314D02*
X134960000Y-95284896D01*
D73*
X127107096Y-109807000D02*
X127234096Y-109680000D01*
X136006731Y-105873269D02*
X135780000Y-106100000D01*
D69*
X134772500Y-106100000D02*
X135780000Y-106100000D01*
D68*
X127410000Y-109730000D02*
X127970501Y-110290501D01*
D69*
X135133975Y-95026025D02*
X135680000Y-94480000D01*
X135680000Y-94480000D02*
X135680000Y-93800000D01*
X135133975Y-95110921D02*
X135133975Y-95026025D01*
X135110000Y-99210000D02*
X135110000Y-99034314D01*
D75*
X139405000Y-106090000D02*
X140455000Y-107140000D01*
D69*
X135680000Y-93800000D02*
X133680000Y-91800000D01*
X134960000Y-95284896D02*
X135133975Y-95110921D01*
D73*
X138693269Y-105873269D02*
X138910000Y-106090000D01*
X137254415Y-105873269D02*
X138693269Y-105873269D01*
D68*
X127970501Y-110290501D02*
X128180000Y-110500000D01*
D69*
X135110000Y-99034314D02*
X134960000Y-98884314D01*
X137254415Y-105873269D02*
X137206731Y-105873269D01*
D75*
X138910000Y-106090000D02*
X139405000Y-106090000D01*
D73*
X137206731Y-105873269D02*
X136006731Y-105873269D01*
D69*
X135250000Y-99350000D02*
X135110000Y-99210000D01*
X134772500Y-107100000D02*
X136080000Y-107100000D01*
X134690000Y-99180000D02*
X134690000Y-95195686D01*
X134879975Y-95005711D02*
X134879975Y-93799975D01*
D73*
X131442551Y-102741672D02*
X132019745Y-102164478D01*
D69*
X134879975Y-93799975D02*
X133680000Y-92600000D01*
D73*
X132019745Y-102164478D02*
X133894482Y-102164478D01*
X128131488Y-102338431D02*
X128534729Y-102741672D01*
X133894482Y-102164478D02*
X133930004Y-102200000D01*
D68*
X137760000Y-107140000D02*
X136120000Y-107140000D01*
D73*
X128534729Y-102741672D02*
X131442551Y-102741672D01*
D68*
X136120000Y-107140000D02*
X136080000Y-107100000D01*
D73*
X128131488Y-102338431D02*
X128131488Y-101551488D01*
D68*
X127450338Y-100870338D02*
X127880000Y-101300000D01*
D73*
X128131488Y-101551488D02*
X127880000Y-101300000D01*
D69*
X134690000Y-95195686D02*
X134879975Y-95005711D01*
D68*
X126260434Y-100870338D02*
X127450338Y-100870338D01*
D69*
X134710000Y-99200000D02*
X134690000Y-99180000D01*
D73*
X131401990Y-102028010D02*
X131430000Y-102000000D01*
X128448499Y-100668499D02*
X127780000Y-100000000D01*
D75*
X138850000Y-108600000D02*
X139375000Y-108600000D01*
D73*
X131430000Y-102000000D02*
X131005339Y-102424661D01*
D75*
X139375000Y-108600000D02*
X140455000Y-109680000D01*
D68*
X125088000Y-99570000D02*
X124880000Y-99778000D01*
D73*
X128448499Y-100760604D02*
X128448499Y-100668499D01*
X128666039Y-102424661D02*
X128448499Y-102207121D01*
D68*
X126300000Y-99545000D02*
X127325000Y-99545000D01*
D69*
X125088000Y-99570000D02*
X126230000Y-99570000D01*
D73*
X138850000Y-108600000D02*
X138844400Y-108594400D01*
D68*
X125292000Y-99570000D02*
X126230000Y-99570000D01*
X127325000Y-99545000D02*
X127780000Y-100000000D01*
D73*
X136724390Y-108594400D02*
X135729990Y-107600000D01*
X131005339Y-102424661D02*
X128666039Y-102424661D01*
X128448499Y-102207121D02*
X128448499Y-100760604D01*
D69*
X134772500Y-107600000D02*
X135729990Y-107600000D01*
D68*
X124880000Y-99778000D02*
X124880000Y-100156998D01*
D73*
X138844400Y-108594400D02*
X136724390Y-108594400D01*
D68*
X108230000Y-104650000D02*
X109126277Y-104650000D01*
D69*
X133835000Y-108537500D02*
X133835000Y-109555000D01*
X134960000Y-109680000D02*
X134660000Y-109680000D01*
X134680000Y-108350000D02*
X134680000Y-109660000D01*
D73*
X132670501Y-95775199D02*
X132258531Y-96187169D01*
D69*
X136030000Y-109680000D02*
X134960000Y-109680000D01*
X133960000Y-109680000D02*
X134660000Y-109680000D01*
D73*
X132670501Y-94409499D02*
X132670501Y-95775199D01*
D68*
X109126277Y-104650000D02*
X110080000Y-103696277D01*
D69*
X133835000Y-109555000D02*
X133960000Y-109680000D01*
D73*
X132880000Y-94200000D02*
X132670501Y-94409499D01*
D68*
X110080000Y-103696277D02*
X110080000Y-103400000D01*
D75*
X137915000Y-109680000D02*
X136030000Y-109680000D01*
D69*
X134680000Y-109660000D02*
X134660000Y-109680000D01*
D68*
X175502000Y-72106000D02*
X175502000Y-73488000D01*
X177368623Y-89424377D02*
X177781000Y-89012000D01*
X177781000Y-89012000D02*
X177781000Y-86476500D01*
X180910000Y-73630000D02*
X181700000Y-74420000D01*
X174125000Y-90615000D02*
X174125000Y-90140000D01*
X174125000Y-90140000D02*
X174840623Y-89424377D01*
X175487000Y-73503000D02*
X175614000Y-73630000D01*
X177781000Y-86476500D02*
X178555000Y-85702500D01*
X175502000Y-73488000D02*
X175487000Y-73503000D01*
X181700000Y-74420000D02*
X181700000Y-82720000D01*
X181700000Y-82720000D02*
X178555000Y-85865000D01*
X174840623Y-89424377D02*
X177368623Y-89424377D01*
X175614000Y-73630000D02*
X180910000Y-73630000D01*
X178555000Y-85790000D02*
X178555000Y-85804000D01*
X171550000Y-84280000D02*
X171550000Y-85804000D01*
X173221000Y-83833000D02*
X171776000Y-83833000D01*
X176015000Y-83280000D02*
X173774000Y-83280000D01*
X171776000Y-83833000D02*
X171550000Y-84059000D01*
X173774000Y-83280000D02*
X173221000Y-83833000D01*
X174110000Y-75150000D02*
X175380000Y-75150000D01*
X174110000Y-75150000D02*
X172010000Y-75150000D01*
X177285000Y-74775000D02*
X179190000Y-74775000D01*
X175380000Y-75150000D02*
X176191500Y-75150000D01*
X176566500Y-74775000D02*
X177285000Y-74775000D01*
X176191500Y-75150000D02*
X176566500Y-74775000D01*
X172010000Y-75150000D02*
X171935000Y-75075000D01*
X174035000Y-75075000D02*
X174110000Y-75150000D01*
X169050000Y-84280000D02*
X169050000Y-83404000D01*
X169050000Y-83404000D02*
X169425000Y-83029000D01*
X169425000Y-83029000D02*
X169425000Y-82375000D01*
X177968500Y-80772500D02*
X179190000Y-80772500D01*
X177666000Y-80470000D02*
X177968500Y-80772500D01*
X176802500Y-80470000D02*
X177666000Y-80470000D01*
X178169000Y-84026000D02*
X178529600Y-84026000D01*
X176965000Y-85230000D02*
X178169000Y-84026000D01*
X179078000Y-98020000D02*
X178576000Y-98522000D01*
X175395000Y-96949042D02*
X176967958Y-98522000D01*
X179078000Y-96274000D02*
X179078000Y-98020000D01*
X176967958Y-98522000D02*
X178576000Y-98522000D01*
X175395000Y-96015000D02*
X175395000Y-96949042D01*
X174125000Y-96995000D02*
X174125000Y-96015000D01*
X175357000Y-103662600D02*
X175357000Y-101316000D01*
X175380000Y-103685600D02*
X175357000Y-103662600D01*
X175357000Y-101316000D02*
X175357000Y-98227000D01*
X178576000Y-101322000D02*
X175363000Y-101322000D01*
X175363000Y-101322000D02*
X175357000Y-101316000D01*
X175357000Y-98227000D02*
X174125000Y-96995000D01*
X176802500Y-77757500D02*
X177285000Y-77275000D01*
D73*
X176107500Y-79835000D02*
X176361500Y-79581000D01*
D68*
X176802500Y-78565000D02*
X176802500Y-77757500D01*
D73*
X176523000Y-81486000D02*
X176100000Y-81063000D01*
X176100000Y-81063000D02*
X176100000Y-79835000D01*
D68*
X176802500Y-79140000D02*
X176361500Y-79581000D01*
X176802500Y-78565000D02*
X176802500Y-79140000D01*
D69*
X176100000Y-79835000D02*
X176107500Y-79835000D01*
D73*
X148608485Y-65471704D02*
X148608485Y-64128485D01*
X147059000Y-68659000D02*
X146058000Y-67658000D01*
D68*
X148392500Y-70200000D02*
X148392500Y-69103500D01*
X148392500Y-69103500D02*
X147948000Y-68659000D01*
D73*
X148608485Y-64128485D02*
X148375000Y-63895000D01*
X148375000Y-63895000D02*
X147380000Y-63895000D01*
X147948000Y-68659000D02*
X147059000Y-68659000D01*
X146058000Y-66264000D02*
X146566000Y-65756000D01*
X146566000Y-65756000D02*
X148324189Y-65756000D01*
X148324189Y-65756000D02*
X148608485Y-65471704D01*
X146058000Y-67658000D02*
X146058000Y-66264000D01*
X146708679Y-65165000D02*
X145740989Y-66132690D01*
X145740989Y-67789310D02*
X146737679Y-68786000D01*
X146737679Y-70718200D02*
X147582000Y-71562521D01*
X145740989Y-66132690D02*
X145740989Y-67789310D01*
D68*
X148387500Y-72487000D02*
X147582000Y-71681500D01*
D73*
X146737679Y-68786000D02*
X146737679Y-70718200D01*
D68*
X147582000Y-71681500D02*
X147582000Y-71562521D01*
D73*
X147380000Y-65165000D02*
X146708679Y-65165000D01*
D68*
X147380000Y-66436500D02*
X149980000Y-66436500D01*
X149980000Y-66436500D02*
X149980000Y-67100000D01*
X149980000Y-66436500D02*
X149980000Y-65687500D01*
X123807011Y-91127011D02*
X121987989Y-91127011D01*
X121396000Y-95616000D02*
X121990000Y-95616000D01*
X121080000Y-94900000D02*
X121080000Y-95300000D01*
X126300000Y-91925000D02*
X124605000Y-91925000D01*
X124605000Y-91925000D02*
X123807011Y-91127011D01*
X121987989Y-91127011D02*
X121745000Y-91370000D01*
X121080000Y-95300000D02*
X121396000Y-95616000D01*
X121745000Y-91370000D02*
X121745000Y-92435000D01*
D69*
X126358000Y-92154000D02*
X126358000Y-91514549D01*
D68*
X121675000Y-93000000D02*
X121675000Y-94305000D01*
X121675000Y-94305000D02*
X121080000Y-94900000D01*
X114949223Y-98377000D02*
X115245500Y-98377000D01*
X114357000Y-98377000D02*
X114949223Y-98377000D01*
X108230000Y-95760000D02*
X111740000Y-95760000D01*
D73*
X115245500Y-98377000D02*
X116438522Y-98377000D01*
D68*
X111740000Y-95760000D02*
X114357000Y-98377000D01*
D69*
X131279988Y-87000010D02*
X127387267Y-87000010D01*
D68*
X122565422Y-94914578D02*
X121901902Y-94914578D01*
X122945000Y-93000000D02*
X122945000Y-94535000D01*
D69*
X127387267Y-87000010D02*
X127220365Y-87166912D01*
D68*
X126300000Y-93195000D02*
X124375000Y-93195000D01*
D69*
X132079993Y-86200005D02*
X131279988Y-87000010D01*
D68*
X124145000Y-92965000D02*
X123015000Y-92965000D01*
X124375000Y-93195000D02*
X124145000Y-92965000D01*
X122945000Y-94535000D02*
X122565422Y-94914578D01*
X126230000Y-95760000D02*
X125420000Y-95760000D01*
X125420000Y-95760000D02*
X124880000Y-96300000D01*
X113900000Y-70620000D02*
X114900000Y-71620000D01*
D73*
X128380000Y-106238778D02*
X128380000Y-105500000D01*
X130897500Y-107100000D02*
X129241222Y-107100000D01*
D71*
X113900000Y-65200000D02*
X113900000Y-67320000D01*
D73*
X129241222Y-107100000D02*
X128380000Y-106238778D01*
D68*
X113900000Y-67320000D02*
X113900000Y-70620000D01*
D69*
X130897500Y-107600000D02*
X129480000Y-107600000D01*
X129480000Y-107600000D02*
X129080000Y-108000000D01*
X132835000Y-104662500D02*
X132835000Y-102750979D01*
X132835000Y-102750979D02*
X132680000Y-102595979D01*
X144080000Y-86200000D02*
X144480000Y-85800000D01*
X144480000Y-85800000D02*
X148470033Y-85800000D01*
X150183989Y-84086044D02*
X150183989Y-81885999D01*
X148470033Y-85800000D02*
X150183989Y-84086044D01*
X150183989Y-81885999D02*
X150037990Y-81740000D01*
X149082488Y-86600000D02*
X149365999Y-86883511D01*
X145280000Y-86600000D02*
X149082488Y-86600000D01*
X149365999Y-86883511D02*
X149575498Y-87093010D01*
X144880000Y-87000000D02*
X145280000Y-86600000D01*
X144880000Y-83800000D02*
X149210502Y-83800000D01*
X149210502Y-83800000D02*
X149637989Y-83372513D01*
X149637989Y-81436341D02*
X149860161Y-81214169D01*
X149637989Y-83372513D02*
X149637989Y-81436341D01*
X144080000Y-92600000D02*
X144480000Y-93000000D01*
X144480000Y-93000000D02*
X146805739Y-93000000D01*
X146805739Y-93000000D02*
X147022865Y-93217126D01*
X147022865Y-93217126D02*
X147343891Y-93217126D01*
X144880000Y-86200000D02*
X148567225Y-86200000D01*
X148567225Y-86200000D02*
X150438000Y-84329225D01*
X150438000Y-81069482D02*
X150357635Y-80989117D01*
X150438000Y-84329225D02*
X150438000Y-81069482D01*
X149331452Y-81901548D02*
X149331452Y-81077804D01*
X144880000Y-83000000D02*
X148233000Y-83000000D01*
X148233000Y-83000000D02*
X149331452Y-81901548D01*
X147626703Y-92600000D02*
X148122011Y-93095308D01*
X144880000Y-92600000D02*
X147626703Y-92600000D01*
X148122011Y-93095308D02*
X148349010Y-93322307D01*
X144880000Y-91000000D02*
X145298647Y-91418647D01*
X145298647Y-91418647D02*
X148291913Y-91418647D01*
X148291913Y-91418647D02*
X149123499Y-92250233D01*
X149123499Y-94498581D02*
X148533000Y-95089080D01*
X149123499Y-92250233D02*
X149123499Y-94498581D01*
D73*
X144880000Y-90200000D02*
X144886085Y-90193915D01*
D69*
X149702541Y-91932634D02*
X149702541Y-94648527D01*
X144886085Y-90193915D02*
X146768083Y-90193915D01*
X149702541Y-94648527D02*
X149912040Y-94858026D01*
X148424131Y-90654224D02*
X149702541Y-91932634D01*
X146768083Y-90193915D02*
X147228392Y-90654224D01*
X147228392Y-90654224D02*
X148424131Y-90654224D01*
X150057022Y-91838795D02*
X150057022Y-94350048D01*
X144880000Y-89400000D02*
X147618227Y-89400000D01*
X150057022Y-94350048D02*
X150565000Y-94858026D01*
X147618227Y-89400000D02*
X150057022Y-91838795D01*
X144880000Y-88600000D02*
X147266548Y-88600000D01*
X147266548Y-88600000D02*
X150539500Y-91872952D01*
X150539500Y-91872952D02*
X150539500Y-93965002D01*
X143280000Y-87000000D02*
X143680000Y-87400000D01*
X147335594Y-86944406D02*
X148834892Y-86944406D01*
X143680000Y-87400000D02*
X146880000Y-87400000D01*
X148834892Y-86944406D02*
X151190159Y-89299673D01*
X146880000Y-87400000D02*
X147335594Y-86944406D01*
X151190159Y-89299673D02*
X151190159Y-94219000D01*
D73*
X118980000Y-75920000D02*
X118980000Y-76670000D01*
D69*
X118980000Y-75920000D02*
X118980000Y-77937500D01*
X126820364Y-88742308D02*
X129013290Y-90935234D01*
D73*
X119200000Y-73920000D02*
X119200000Y-74420000D01*
D69*
X129013290Y-90935234D02*
X129013290Y-92427450D01*
D73*
X118980000Y-74640000D02*
X118980000Y-75180000D01*
X119200000Y-74420000D02*
X118980000Y-74640000D01*
D69*
X129013290Y-92427450D02*
X129890582Y-93304742D01*
X118980000Y-77937500D02*
X126820364Y-85777864D01*
X126820364Y-85777864D02*
X126820364Y-88742308D01*
D68*
X114789000Y-80869000D02*
X117325000Y-80869000D01*
D69*
X129305119Y-95412719D02*
X130338594Y-95412719D01*
X121980000Y-85700000D02*
X127740510Y-91460510D01*
D68*
X117710000Y-81254000D02*
X117710000Y-82524000D01*
D73*
X117710000Y-82524000D02*
X117710000Y-85330000D01*
D69*
X127740510Y-91460510D02*
X127740510Y-93848110D01*
X118080000Y-85700000D02*
X121980000Y-85700000D01*
D73*
X117710000Y-85330000D02*
X118080000Y-85700000D01*
D68*
X117325000Y-80869000D02*
X117710000Y-81254000D01*
D69*
X127740510Y-93848110D02*
X129305119Y-95412719D01*
X130939902Y-94581628D02*
X131215768Y-94581628D01*
X131215768Y-94581628D02*
X131425267Y-94791127D01*
D68*
X120250000Y-83830000D02*
X119380000Y-84700000D01*
D69*
X120250000Y-82524000D02*
X120250000Y-83701000D01*
D68*
X120250000Y-82524000D02*
X120250000Y-83830000D01*
D69*
X130146592Y-95012717D02*
X130508813Y-95012717D01*
X130508813Y-95012717D02*
X130939902Y-94581628D01*
X130041295Y-95118014D02*
X130146592Y-95012717D01*
D68*
X120677000Y-84035844D02*
X120455844Y-84035844D01*
D69*
X127997246Y-91356089D02*
X127997246Y-93673046D01*
D68*
X120455844Y-84035844D02*
X120250000Y-83830000D01*
D69*
X127997246Y-93673046D02*
X129442214Y-95118014D01*
D68*
X119380000Y-84700000D02*
X118555000Y-84700000D01*
D69*
X129442214Y-95118014D02*
X130041295Y-95118014D01*
X120677000Y-84035844D02*
X127997246Y-91356089D01*
X129887295Y-93887171D02*
X129887295Y-94389562D01*
X126566353Y-88847522D02*
X128759279Y-91040448D01*
D73*
X117695000Y-73920000D02*
X117695000Y-75905000D01*
D69*
X126566353Y-85953353D02*
X126566353Y-88847522D01*
X117710000Y-77097000D02*
X126566353Y-85953353D01*
D73*
X117695000Y-75905000D02*
X117710000Y-75920000D01*
X117710000Y-75920000D02*
X117710000Y-76180000D01*
D69*
X117710000Y-75920000D02*
X117710000Y-77097000D01*
X128759279Y-92759155D02*
X129887295Y-93887171D01*
X128759279Y-91040448D02*
X128759279Y-92759155D01*
X130199916Y-94758706D02*
X130041378Y-94758706D01*
D73*
X118965000Y-81635000D02*
X118965000Y-80380000D01*
D69*
X128251257Y-91250876D02*
X126058331Y-89057950D01*
X132080000Y-93400000D02*
X131558622Y-93400000D01*
D73*
X118965000Y-81269000D02*
X118965000Y-81635000D01*
D69*
X119804225Y-80365000D02*
X118980000Y-80365000D01*
D73*
X118965000Y-81635000D02*
X118965000Y-82920000D01*
D68*
X118600000Y-80020000D02*
X113800000Y-80020000D01*
D69*
X126058331Y-86619106D02*
X119804225Y-80365000D01*
X130041378Y-94758706D02*
X129948583Y-94851501D01*
D73*
X118965000Y-82920000D02*
X118965000Y-82445000D01*
D68*
X113800000Y-80020000D02*
X113277800Y-80542200D01*
D69*
X126058331Y-89057950D02*
X126058331Y-86619106D01*
X128251257Y-93470843D02*
X128251257Y-91250876D01*
X131558622Y-93400000D02*
X130199916Y-94758706D01*
D73*
X118980000Y-80365000D02*
X118945000Y-80365000D01*
D68*
X118945000Y-80365000D02*
X118600000Y-80020000D01*
X113277800Y-80542200D02*
X113277800Y-80909400D01*
D73*
X118965000Y-80380000D02*
X118980000Y-80365000D01*
D69*
X129631915Y-94851501D02*
X128251257Y-93470843D01*
X129948583Y-94851501D02*
X129631915Y-94851501D01*
X116440000Y-76575970D02*
X126312342Y-86448312D01*
X126312342Y-86448312D02*
X126312342Y-88952736D01*
D73*
X129202500Y-93873765D02*
X129245390Y-93873765D01*
X116200000Y-74420000D02*
X116440000Y-74660000D01*
D69*
X126312342Y-88952736D02*
X128505268Y-91145662D01*
X128505268Y-93176533D02*
X129202500Y-93873765D01*
D73*
X116440000Y-74660000D02*
X116440000Y-75920000D01*
D69*
X128505268Y-91145662D02*
X128505268Y-93176533D01*
X116440000Y-75920000D02*
X116440000Y-76260000D01*
D73*
X116200000Y-73907500D02*
X116200000Y-74420000D01*
D69*
X116440000Y-75920000D02*
X116440000Y-76575970D01*
D73*
X129245390Y-93873765D02*
X129266964Y-93852191D01*
D69*
X148588924Y-97900000D02*
X147680000Y-97900000D01*
X147580000Y-96700000D02*
X146980000Y-96100000D01*
X156641000Y-84186000D02*
X156641000Y-85055000D01*
X156641000Y-85055000D02*
X156641000Y-85837000D01*
X147680000Y-97900000D02*
X147580000Y-97800000D01*
X146980000Y-96100000D02*
X146312850Y-96100000D01*
X156621000Y-85964000D02*
X153280176Y-89304824D01*
X153280176Y-89304824D02*
X153280176Y-93208748D01*
X153280176Y-93208748D02*
X148588924Y-97900000D01*
X158312000Y-85100500D02*
X156686500Y-85100500D01*
X147580000Y-97800000D02*
X147580000Y-96700000D01*
X156686500Y-85100500D02*
X156641000Y-85055000D01*
X131498745Y-96135023D02*
X131034977Y-96135023D01*
X130580000Y-96590000D02*
X130580000Y-97212500D01*
X131034977Y-96135023D02*
X130580000Y-96590000D01*
X131360000Y-95750000D02*
X130700000Y-95750000D01*
X129610000Y-96140000D02*
X129080000Y-96670000D01*
X129080000Y-96670000D02*
X129080000Y-97200000D01*
X130310000Y-96140000D02*
X129610000Y-96140000D01*
X132080000Y-95030000D02*
X131360000Y-95750000D01*
X132080000Y-94200000D02*
X132080000Y-95030000D01*
X130700000Y-95750000D02*
X130310000Y-96140000D01*
X137680000Y-100710000D02*
X137760000Y-100790000D01*
X137680000Y-98775000D02*
X137680000Y-99520000D01*
D75*
X137760000Y-100790000D02*
X137760000Y-99600000D01*
D69*
X137680000Y-99520000D02*
X137760000Y-99600000D01*
X137760000Y-98855000D02*
X137680000Y-98775000D01*
X137780000Y-98800000D02*
X137780000Y-98775000D01*
X137780000Y-100630000D02*
X137940000Y-100790000D01*
X137940000Y-100160000D02*
X137780000Y-100000000D01*
D75*
X136180000Y-100010000D02*
X135400000Y-100790000D01*
X136180000Y-99600000D02*
X136180000Y-100010000D01*
D69*
X136180000Y-98775000D02*
X136180000Y-99600000D01*
X132860000Y-100790000D02*
X132860000Y-100520000D01*
X133580000Y-98775000D02*
X133580000Y-99600000D01*
X133580000Y-99600000D02*
X133680000Y-99700000D01*
D75*
X132860000Y-100520000D02*
X133680000Y-99700000D01*
D68*
X110067281Y-98787281D02*
X112341177Y-98787281D01*
X112341177Y-98787281D02*
X113131142Y-99577246D01*
X104627000Y-102060000D02*
X104627000Y-103600000D01*
D73*
X105243000Y-103600000D02*
X105607000Y-103236000D01*
X104627000Y-103600000D02*
X105243000Y-103600000D01*
D69*
X133335000Y-104662500D02*
X133335000Y-102913490D01*
X133335000Y-102913490D02*
X133448490Y-102800000D01*
X131433968Y-90048899D02*
X129772895Y-90048899D01*
X132080000Y-89402867D02*
X131433968Y-90048899D01*
X132072002Y-102999998D02*
X131587998Y-102999998D01*
X131587998Y-102999998D02*
X131414822Y-103173174D01*
X132335000Y-103262996D02*
X132072002Y-102999998D01*
X131414822Y-103173174D02*
X129123152Y-103173174D01*
X132335000Y-104662500D02*
X132335000Y-103262996D01*
X135630000Y-105600000D02*
X134772500Y-105600000D01*
X132880000Y-88600000D02*
X132477143Y-89002857D01*
X131890844Y-89002857D02*
X131887987Y-89000000D01*
X132477143Y-89002857D02*
X131890844Y-89002857D01*
X130884838Y-89000000D02*
X130243740Y-89641098D01*
X135830000Y-102850000D02*
X135830000Y-105400000D01*
X135830000Y-105400000D02*
X135630000Y-105600000D01*
X130243740Y-89641098D02*
X129030819Y-89641098D01*
X131887987Y-89000000D02*
X130884838Y-89000000D01*
X132080000Y-87000012D02*
X131826001Y-87254011D01*
D68*
X126230000Y-105920000D02*
X123848908Y-105920000D01*
D69*
X128869851Y-87254011D02*
X127569682Y-88554180D01*
X131826001Y-87254011D02*
X128869851Y-87254011D01*
D68*
X123848908Y-105920000D02*
X123802408Y-105966500D01*
D69*
X126300000Y-94465000D02*
X125415000Y-94465000D01*
D68*
X119880000Y-88974548D02*
X119967274Y-88887274D01*
D69*
X126260434Y-94520338D02*
X126260434Y-94362444D01*
D68*
X114852600Y-85405200D02*
X118334674Y-88887274D01*
X114852600Y-83957400D02*
X114852600Y-85405200D01*
X119880000Y-93200000D02*
X119880000Y-88974548D01*
X119680000Y-93400000D02*
X119880000Y-93200000D01*
X126230000Y-94490000D02*
X125490000Y-94490000D01*
X125415000Y-94465000D02*
X124880000Y-95000000D01*
X118334674Y-88887274D02*
X119967274Y-88887274D01*
X126260434Y-107220338D02*
X124215117Y-107220338D01*
D73*
X124215117Y-107220338D02*
X124202418Y-107207639D01*
D69*
X132835000Y-108537500D02*
X132830000Y-108542500D01*
D73*
X111500000Y-71220000D02*
X111500000Y-70372500D01*
D69*
X132830000Y-108542500D02*
X132830000Y-110100000D01*
X132335000Y-108537500D02*
X132335000Y-109595000D01*
D73*
X113000000Y-71220000D02*
X113000000Y-70372500D01*
D69*
X132335000Y-109595000D02*
X132330000Y-109600000D01*
D68*
X112880000Y-94300000D02*
X115280000Y-96700000D01*
X112785000Y-93000000D02*
X112880000Y-93095000D01*
X111080000Y-90800000D02*
X112380000Y-90800000D01*
X115280000Y-96700000D02*
X118930000Y-96700000D01*
X112880000Y-93095000D02*
X112880000Y-94300000D01*
X109955000Y-91925000D02*
X111080000Y-90800000D01*
X108300000Y-91925000D02*
X109955000Y-91925000D01*
X112380000Y-90800000D02*
X112855000Y-91275000D01*
X112855000Y-91275000D02*
X112855000Y-92965000D01*
D69*
X126400000Y-75720000D02*
X127300000Y-75720000D01*
X127714490Y-76134490D02*
X127714490Y-80322992D01*
X129745552Y-80820000D02*
X130737922Y-79827630D01*
X130737922Y-79827630D02*
X131293755Y-79827630D01*
X127714490Y-80322992D02*
X128211498Y-80820000D01*
X127300000Y-75720000D02*
X127714490Y-76134490D01*
X128211498Y-80820000D02*
X129745552Y-80820000D01*
X130124996Y-81400000D02*
X132080000Y-81400000D01*
X127100000Y-77220000D02*
X127460480Y-77580480D01*
X126400000Y-77220000D02*
X127100000Y-77220000D01*
X127460480Y-77580480D02*
X127460481Y-80428207D01*
X128432274Y-81400000D02*
X130124996Y-81400000D01*
X127460481Y-80428207D02*
X128432274Y-81400000D01*
X131534064Y-81654011D02*
X132080000Y-82199947D01*
X126471000Y-78571000D02*
X126471000Y-78736000D01*
X126400000Y-78720000D02*
X127206472Y-79526472D01*
X127206472Y-79526472D02*
X127206472Y-80672494D01*
X128187989Y-81654011D02*
X131534064Y-81654011D01*
X127206472Y-80672494D02*
X128187989Y-81654011D01*
X126400000Y-80220000D02*
X126400000Y-80225246D01*
X132479956Y-82599956D02*
X132880000Y-83000000D01*
X131887998Y-82599956D02*
X132479956Y-82599956D01*
X126400000Y-80225246D02*
X128082776Y-81908022D01*
X131196064Y-81908022D02*
X131887998Y-82599956D01*
X128082776Y-81908022D02*
X131196064Y-81908022D01*
X135009000Y-75648000D02*
X134761998Y-75648000D01*
X134761998Y-75648000D02*
X133654999Y-76754999D01*
X133654999Y-81382448D02*
X133672551Y-81400000D01*
X133654999Y-76754999D02*
X133654999Y-81382448D01*
X133272550Y-81792550D02*
X133272550Y-75860450D01*
X133680000Y-82200000D02*
X133272550Y-81792550D01*
X133272550Y-75860450D02*
X133485000Y-75648000D01*
X132480011Y-77808009D02*
X132480011Y-78313930D01*
X131961000Y-75648000D02*
X131961000Y-77288998D01*
X131961000Y-77288998D02*
X132480011Y-77808009D01*
X130422000Y-75648000D02*
X131261117Y-76487117D01*
X131261117Y-76487117D02*
X131261117Y-77886513D01*
X142840000Y-100790000D02*
X142840000Y-100760000D01*
X140980000Y-98775000D02*
X141005000Y-98775000D01*
D75*
X142840000Y-100760000D02*
X141680000Y-99600000D01*
D69*
X140680000Y-99137500D02*
X140680000Y-98775000D01*
X130132509Y-92205486D02*
X129923010Y-91995987D01*
X142670000Y-100790000D02*
X142840000Y-100790000D01*
X140855000Y-98775000D02*
X141680000Y-99600000D01*
X140680000Y-98775000D02*
X140855000Y-98775000D01*
X140680000Y-98775000D02*
X140680000Y-98800000D01*
X132880000Y-91000000D02*
X131674514Y-92205486D01*
X131674514Y-92205486D02*
X130132509Y-92205486D01*
X129413291Y-91521845D02*
X129413291Y-92228236D01*
X139180000Y-98775000D02*
X139180000Y-99705000D01*
X129933126Y-91002010D02*
X129413291Y-91521845D01*
X132077338Y-91002010D02*
X129933126Y-91002010D01*
D75*
X139180000Y-99705000D02*
X140265000Y-100790000D01*
D73*
X130645358Y-80627642D02*
X131280000Y-80627642D01*
X130295000Y-80978000D02*
X130645358Y-80627642D01*
D69*
X129227125Y-86255125D02*
X128653606Y-86255125D01*
X128653606Y-86255125D02*
X128580000Y-86181519D01*
X132080000Y-85399991D02*
X130082259Y-85399991D01*
X130082259Y-85399991D02*
X129227125Y-86255125D01*
X134072561Y-81792561D02*
X134072561Y-77666685D01*
X134072561Y-77666685D02*
X134284246Y-77455000D01*
X164585000Y-71360000D02*
X164345000Y-71600000D01*
X134480000Y-82200000D02*
X134072561Y-81792561D01*
X164345000Y-71600000D02*
X163680000Y-71600000D01*
X133335000Y-108537500D02*
X133335000Y-109295000D01*
X133335000Y-109295000D02*
X133335000Y-109595000D01*
D73*
X150140000Y-102290000D02*
X150926000Y-103076000D01*
D69*
X131835000Y-103444996D02*
X131879996Y-103400000D01*
D73*
X150926000Y-103076000D02*
X151351500Y-103076000D01*
D69*
X131835000Y-104662500D02*
X131835000Y-103444996D01*
D68*
X108230000Y-94490000D02*
X111270000Y-94490000D01*
X114600000Y-97820000D02*
X119960000Y-97820000D01*
X111270000Y-94490000D02*
X114600000Y-97820000D01*
X103064500Y-89715500D02*
X103280000Y-89500000D01*
X102228000Y-89715500D02*
X103064500Y-89715500D01*
X162440000Y-97269000D02*
X162441000Y-97270000D01*
X162440000Y-96345000D02*
X162440000Y-97269000D01*
X162215000Y-96345000D02*
X162365000Y-96345000D01*
D73*
X169813000Y-68659000D02*
X169919000Y-68659000D01*
X169919000Y-67940500D02*
X169919000Y-68659000D01*
D69*
X168381000Y-68284000D02*
X168756000Y-68659000D01*
D73*
X168381000Y-67915000D02*
X168456000Y-67840000D01*
X168456000Y-67840000D02*
X169919000Y-67840000D01*
D68*
X168381000Y-67915000D02*
X168381000Y-68284000D01*
D73*
X168903000Y-74755000D02*
X168903000Y-73993000D01*
X170025000Y-68659000D02*
X170260999Y-68894999D01*
X168903000Y-73993000D02*
X170260999Y-72635001D01*
D68*
X168381000Y-67135000D02*
X168381000Y-67915000D01*
D73*
X170260999Y-72635001D02*
X170260999Y-68894999D01*
X169919000Y-68659000D02*
X170025000Y-68659000D01*
X169813000Y-68659000D02*
X168756000Y-68659000D01*
D68*
X168381000Y-65738000D02*
X168381000Y-67135000D01*
X169030000Y-78785000D02*
X168488000Y-79327000D01*
X153239000Y-103076000D02*
X154337346Y-103076000D01*
X168310277Y-79327000D02*
X168014000Y-79327000D01*
X168488000Y-79327000D02*
X168310277Y-79327000D01*
X154337346Y-103076000D02*
X154425580Y-102987766D01*
X113000000Y-68797500D02*
X113000000Y-67920000D01*
X113000000Y-67920000D02*
X112800000Y-67720000D01*
X111500000Y-67820000D02*
X111600000Y-67720000D01*
X111500000Y-68797500D02*
X111500000Y-67820000D01*
D69*
X136607579Y-77227165D02*
X136399579Y-77019165D01*
X135870688Y-77019165D02*
X135636086Y-77253767D01*
X136607579Y-77611169D02*
X136607579Y-77227165D01*
X136480026Y-82599974D02*
X136480026Y-77738722D01*
X136399579Y-77019165D02*
X135870688Y-77019165D01*
X136080000Y-83000000D02*
X136480026Y-82599974D01*
X136480026Y-77738722D02*
X136607579Y-77611169D01*
D68*
X172725000Y-67915000D02*
X172725000Y-68413000D01*
X172725000Y-67120000D02*
X172725000Y-67915000D01*
X172727000Y-65738000D02*
X172727000Y-67118000D01*
D69*
X171349000Y-68659000D02*
X171331000Y-68677000D01*
D73*
X171316000Y-67840000D02*
X172650000Y-67840000D01*
X170680000Y-74600000D02*
X171331000Y-73949000D01*
X171331000Y-73949000D02*
X171331000Y-68677000D01*
D69*
X172852000Y-67118000D02*
X172850000Y-67120000D01*
D73*
X172479000Y-68659000D02*
X171349000Y-68659000D01*
X171331000Y-68677000D02*
X171331000Y-68028000D01*
X172725000Y-68413000D02*
X172479000Y-68659000D01*
D69*
X172650000Y-67840000D02*
X172725000Y-67915000D01*
X172727000Y-67118000D02*
X172725000Y-67120000D01*
D68*
X169919000Y-67008000D02*
X170046000Y-67135000D01*
X169919000Y-66365500D02*
X169919000Y-67008000D01*
X170046000Y-67135000D02*
X170173000Y-67135000D01*
X171189000Y-67135000D02*
X171331000Y-66993000D01*
X171331000Y-66993000D02*
X171331000Y-66365500D01*
X170935000Y-67135000D02*
X171189000Y-67135000D01*
X153030000Y-74755000D02*
X154330000Y-74755000D01*
X151645000Y-79280000D02*
X151565000Y-79200000D01*
X151732500Y-81105000D02*
X151732500Y-82375000D01*
X151582500Y-77295000D02*
X151582500Y-76357500D01*
X151582500Y-80231000D02*
X151582500Y-79200000D01*
X150869000Y-79200000D02*
X151582500Y-79200000D01*
X152903000Y-74882000D02*
X153030000Y-74755000D01*
X151582500Y-79200000D02*
X151582500Y-78961000D01*
X150282500Y-77343500D02*
X149472000Y-77343500D01*
X150615000Y-78946000D02*
X150869000Y-79200000D01*
X151732500Y-80381000D02*
X151582500Y-80231000D01*
X151565000Y-79200000D02*
X151565000Y-77295000D01*
X151171500Y-75946500D02*
X151171500Y-74882000D01*
X151732500Y-81105000D02*
X151732500Y-80381000D01*
X151171500Y-74882000D02*
X152903000Y-74882000D01*
X150615000Y-77211000D02*
X151186000Y-77211000D01*
X151582500Y-76357500D02*
X151171500Y-75946500D01*
X150615000Y-77211000D02*
X150615000Y-78946000D01*
X149472000Y-77211000D02*
X150615000Y-77211000D01*
X108100000Y-80811000D02*
X107730000Y-81181000D01*
X110270000Y-77605000D02*
X110790000Y-77085000D01*
X110495000Y-77085000D02*
X110495000Y-78098500D01*
X110495000Y-78098500D02*
X109809000Y-78784500D01*
X107730000Y-81181000D02*
X107730000Y-82026000D01*
X108137000Y-79561500D02*
X108140000Y-79564500D01*
X108140000Y-79564500D02*
X109809000Y-79564500D01*
X110495000Y-75180000D02*
X110495000Y-77085000D01*
X110415000Y-73275000D02*
X110415000Y-75100000D01*
X107730000Y-82026000D02*
X107996000Y-82292000D01*
X110415000Y-72005000D02*
X110415000Y-73275000D01*
X110415000Y-75100000D02*
X110495000Y-75180000D01*
X108100000Y-79604500D02*
X108100000Y-80811000D01*
X108100000Y-79604500D02*
X108140000Y-79564500D01*
X106428500Y-79561500D02*
X108137000Y-79561500D01*
X106365000Y-79625000D02*
X106428500Y-79561500D01*
X109809000Y-78784500D02*
X109809000Y-79564500D01*
X160870000Y-88090000D02*
X161283000Y-88090000D01*
X161725000Y-88532000D02*
X161725000Y-90600000D01*
X161283000Y-88090000D02*
X161725000Y-88532000D01*
X159185000Y-77235000D02*
X159185000Y-75197000D01*
X158743000Y-74755000D02*
X158330000Y-74755000D01*
X159185000Y-75197000D02*
X158743000Y-74755000D01*
X103300000Y-79195000D02*
X103730000Y-79625000D01*
X103300000Y-78592000D02*
X103300000Y-79195000D01*
X102875000Y-77115000D02*
X102875000Y-78167000D01*
X102875000Y-78167000D02*
X103300000Y-78592000D01*
D69*
X130538531Y-88987083D02*
X129059788Y-88987083D01*
X130280000Y-105600000D02*
X128191654Y-103511654D01*
X128601441Y-89931381D02*
X128810940Y-90140880D01*
X132082846Y-88602855D02*
X130922759Y-88602855D01*
X128191654Y-103511654D02*
X128191654Y-103187806D01*
X130922759Y-88602855D02*
X130538531Y-88987083D01*
X129059788Y-88987083D02*
X128601441Y-89445430D01*
X128601441Y-89445430D02*
X128601441Y-89931381D01*
X130897500Y-105600000D02*
X130280000Y-105600000D01*
D68*
X123036500Y-68297500D02*
X123056000Y-68278000D01*
X123056000Y-68297500D02*
X124580000Y-68297500D01*
X120750500Y-67369500D02*
X120750500Y-68297500D01*
X120008000Y-67008000D02*
X120389000Y-67008000D01*
X120750500Y-68297500D02*
X121532000Y-68297500D01*
X120389000Y-67008000D02*
X120750500Y-67369500D01*
X121532000Y-68297500D02*
X123036500Y-68297500D01*
X120008000Y-68297500D02*
X120750500Y-68297500D01*
D73*
X125197463Y-69872500D02*
X124580000Y-69872500D01*
X129947106Y-80044312D02*
X129017011Y-79114217D01*
X129017011Y-73692048D02*
X125197463Y-69872500D01*
X129017011Y-79114217D02*
X129017011Y-73692048D01*
X129507513Y-80110223D02*
X128634022Y-79236732D01*
X128634022Y-79236732D02*
X128634022Y-73757380D01*
X124001500Y-70818000D02*
X123056000Y-69872500D01*
X129507513Y-80406500D02*
X129507513Y-80110223D01*
X128634022Y-73757380D02*
X125694642Y-70818000D01*
X123056000Y-69872500D02*
X123056000Y-69917000D01*
X125694642Y-70818000D02*
X124001500Y-70818000D01*
X128317011Y-79571511D02*
X128317011Y-73888690D01*
X128317011Y-73888690D02*
X125564310Y-71135989D01*
X122795489Y-71135989D02*
X121532000Y-69872500D01*
X125564310Y-71135989D02*
X122795489Y-71135989D01*
X128834500Y-80089000D02*
X128317011Y-79571511D01*
X128000000Y-74020000D02*
X125433000Y-71453000D01*
D69*
X129890259Y-84999989D02*
X129035124Y-85855124D01*
D73*
X128390000Y-80406500D02*
X128000000Y-80016500D01*
X128000000Y-80016500D02*
X128000000Y-74020000D01*
D69*
X133680000Y-85400000D02*
X133280000Y-85000000D01*
X133280000Y-85000000D02*
X132272013Y-85000000D01*
X132272002Y-84999989D02*
X129890259Y-84999989D01*
D73*
X121588500Y-71453000D02*
X120008000Y-69872500D01*
D69*
X132272013Y-85000000D02*
X132272002Y-84999989D01*
D73*
X125433000Y-71453000D02*
X121588500Y-71453000D01*
D68*
X154107500Y-89169500D02*
X155187000Y-88090000D01*
X152717000Y-95640000D02*
X152281000Y-96076000D01*
X153282000Y-96853000D02*
X153339000Y-96910000D01*
X154107500Y-89296500D02*
X154171000Y-89233000D01*
X154072500Y-95640000D02*
X153282000Y-95640000D01*
X153620686Y-94482314D02*
X153620686Y-93783814D01*
X153282000Y-95640000D02*
X153282000Y-96853000D01*
X152281000Y-95822000D02*
X153620686Y-94482314D01*
X154072500Y-97453000D02*
X154376500Y-97757000D01*
X153339000Y-96910000D02*
X154072500Y-96910000D01*
X154376500Y-98504000D02*
X154376500Y-100233500D01*
X155187000Y-88090000D02*
X156870000Y-88090000D01*
X154107500Y-93297000D02*
X154107500Y-89296500D01*
X152281000Y-96076000D02*
X152281000Y-96393500D01*
X153620686Y-93783814D02*
X154107500Y-93297000D01*
X152281000Y-96393500D02*
X152281000Y-95822000D01*
X154072500Y-95640000D02*
X154072500Y-96910000D01*
X154072500Y-96910000D02*
X154072500Y-97453000D01*
X154376500Y-97757000D02*
X154376500Y-98504000D01*
X153282000Y-95640000D02*
X152717000Y-95640000D01*
D72*
X152281000Y-98328500D02*
X152281000Y-99251000D01*
D68*
X136900000Y-90470000D02*
X137661000Y-90470000D01*
X139439000Y-90470000D02*
X138600000Y-90470000D01*
D69*
X138480000Y-90662500D02*
X138500000Y-90682500D01*
D68*
X136880000Y-89400000D02*
X136880000Y-90412500D01*
D69*
X140080000Y-90412500D02*
X140100000Y-90432500D01*
X136880000Y-90412500D02*
X136900000Y-90432500D01*
D68*
X137661000Y-90470000D02*
X138400000Y-90470000D01*
D69*
X137680000Y-90451000D02*
X137661000Y-90470000D01*
D68*
X140080000Y-89400000D02*
X140080000Y-90412500D01*
D72*
X152281000Y-99251000D02*
X151758000Y-99774000D01*
D68*
X138400000Y-90470000D02*
X138500000Y-90370000D01*
X138600000Y-90470000D02*
X138500000Y-90370000D01*
X140100000Y-90470000D02*
X139439000Y-90470000D01*
D69*
X134872573Y-81592002D02*
X134872573Y-78796427D01*
X135280000Y-83000000D02*
X134880000Y-82600000D01*
X134880000Y-81599429D02*
X134872573Y-81592002D01*
X134872573Y-78796427D02*
X135070999Y-78598001D01*
X134880000Y-82600000D02*
X134880000Y-81599429D01*
D68*
X155455000Y-72487000D02*
X154694000Y-72487000D01*
X107460434Y-108490338D02*
X108260434Y-108490338D01*
X103752000Y-104672000D02*
X103752000Y-102822000D01*
X101466000Y-102060000D02*
X100450000Y-101044000D01*
X102990000Y-102060000D02*
X101466000Y-102060000D01*
X107540000Y-108460000D02*
X103752000Y-104672000D01*
X103752000Y-102822000D02*
X102990000Y-102060000D01*
X109060434Y-108490338D02*
X108260434Y-108490338D01*
X108230000Y-108460000D02*
X107540000Y-108460000D01*
D69*
X134980000Y-103900000D02*
X135280000Y-104200000D01*
X133835000Y-104045000D02*
X133980000Y-103900000D01*
X135280000Y-104200000D02*
X135280000Y-104900000D01*
X128980000Y-109600000D02*
X131430000Y-109600000D01*
X131430000Y-109600000D02*
X131880000Y-110050000D01*
X131835000Y-108537500D02*
X131835000Y-110005000D01*
X133835000Y-104662500D02*
X133835000Y-104045000D01*
X133980000Y-103900000D02*
X134980000Y-103900000D01*
X131835000Y-110005000D02*
X131880000Y-110050000D01*
X136072586Y-78257680D02*
X136207577Y-78122689D01*
X136207577Y-78122689D02*
X136207577Y-77419167D01*
X136072586Y-81400000D02*
X136072586Y-78257680D01*
X135272575Y-81400000D02*
X135680000Y-80992575D01*
X135129075Y-78064067D02*
X135129075Y-78015596D01*
X135680000Y-80992575D02*
X135680000Y-78614992D01*
X135680000Y-78614992D02*
X135129075Y-78064067D01*
X134472563Y-81400000D02*
X134472563Y-77858685D01*
X134684247Y-77647001D02*
X134684247Y-77068256D01*
X134472563Y-77858685D02*
X134684247Y-77647001D01*
X134684247Y-77068256D02*
X134355563Y-76739572D01*
X143280000Y-91000000D02*
X143680000Y-91400000D01*
X148798012Y-94196812D02*
X147998013Y-94996811D01*
X143680000Y-91400000D02*
X144280000Y-91400000D01*
X144480000Y-92000000D02*
X144680000Y-92200000D01*
X148798012Y-93106785D02*
X148798012Y-94196812D01*
X147891227Y-92200000D02*
X148798012Y-93106785D01*
X144280000Y-91400000D02*
X144480000Y-91600000D01*
X147998013Y-94996811D02*
X147998013Y-95293088D01*
X144680000Y-92200000D02*
X147891227Y-92200000D01*
X144480000Y-91600000D02*
X144480000Y-92000000D01*
X144080000Y-90200000D02*
X144480000Y-90600000D01*
X149422000Y-95192072D02*
X149324536Y-95289536D01*
X148292821Y-90971235D02*
X149422000Y-92100414D01*
X147048101Y-90971235D02*
X148292821Y-90971235D01*
X146676866Y-90600000D02*
X147048101Y-90971235D01*
X144480000Y-90600000D02*
X146676866Y-90600000D01*
X149422000Y-92100414D02*
X149422000Y-95192072D01*
X144480000Y-89800000D02*
X147030943Y-89800000D01*
X147030943Y-89800000D02*
X147430953Y-90200010D01*
X144080000Y-89400000D02*
X144480000Y-89800000D01*
X147710792Y-87883417D02*
X147910791Y-87683418D01*
X144502010Y-88177990D02*
X147416219Y-88177990D01*
X147416219Y-88177990D02*
X147710792Y-87883417D01*
X144080000Y-88600000D02*
X144502010Y-88177990D01*
X147080000Y-87800000D02*
X147618583Y-87261417D01*
X148283540Y-87423463D02*
X148483539Y-87623462D01*
X143280000Y-88600000D02*
X144080000Y-87800000D01*
X148121494Y-87261417D02*
X148283540Y-87423463D01*
X147618583Y-87261417D02*
X148121494Y-87261417D01*
X144080000Y-87800000D02*
X147080000Y-87800000D01*
X144880000Y-85400000D02*
X145305939Y-84974061D01*
X145305939Y-84974061D02*
X147314360Y-84974061D01*
X147314360Y-84974061D02*
X147402655Y-85062356D01*
X147402655Y-85062356D02*
X147612154Y-85271855D01*
X149554512Y-84123519D02*
X149764011Y-83914020D01*
X149078031Y-84600000D02*
X149554512Y-84123519D01*
X144880000Y-84600000D02*
X149078031Y-84600000D01*
X148658733Y-83400000D02*
X148667723Y-83391010D01*
X144080000Y-83800000D02*
X144480000Y-83400000D01*
X148667723Y-83391010D02*
X148964000Y-83391010D01*
X144480000Y-83400000D02*
X148658733Y-83400000D01*
X147659500Y-82600000D02*
X144480000Y-82600000D01*
X144480000Y-82600000D02*
X144080000Y-83000000D01*
X148519500Y-81740000D02*
X147659500Y-82600000D01*
X144480000Y-81800000D02*
X144080000Y-82200000D01*
X147567000Y-81740000D02*
X147507000Y-81800000D01*
X147507000Y-81800000D02*
X144480000Y-81800000D01*
X148202000Y-80343000D02*
X148202000Y-81118927D01*
X147580927Y-81740000D02*
X147567000Y-81740000D01*
X148202000Y-81118927D02*
X147580927Y-81740000D01*
X146856500Y-80820500D02*
X145399196Y-80820500D01*
X145399196Y-80820500D02*
X144880000Y-81339696D01*
X147301000Y-81265000D02*
X146856500Y-80820500D01*
X144880000Y-81339696D02*
X144880000Y-81400000D01*
X142991011Y-78655719D02*
X142982791Y-78647499D01*
X142982791Y-78647499D02*
X142773292Y-78438000D01*
X142480000Y-81400000D02*
X142991011Y-80888989D01*
X142991011Y-80888989D02*
X142991011Y-78655719D01*
X144080000Y-81400000D02*
X144080000Y-78559500D01*
X144080000Y-78559500D02*
X144309501Y-78329999D01*
X144309501Y-78329999D02*
X144519000Y-78120500D01*
X146404013Y-76355020D02*
X146700290Y-76355020D01*
X145690324Y-76355020D02*
X146404013Y-76355020D01*
X143680000Y-78365344D02*
X145690324Y-76355020D01*
X143680000Y-81800000D02*
X143680000Y-78365344D01*
X143280000Y-82200000D02*
X143680000Y-81800000D01*
X145804394Y-75707500D02*
X146572223Y-75707500D01*
X146572223Y-75707500D02*
X146868500Y-75707500D01*
X145794070Y-75718100D02*
X145804000Y-75718100D01*
X143280000Y-81400000D02*
X143280000Y-78232170D01*
X145804000Y-75707894D02*
X145804394Y-75707500D01*
X143280000Y-78232170D02*
X145794070Y-75718100D01*
X141680000Y-83000000D02*
X142080000Y-82600000D01*
X142080000Y-82600000D02*
X142080000Y-81923365D01*
X142363825Y-78248374D02*
X142363825Y-77162354D01*
X142080000Y-81923365D02*
X141938136Y-81781501D01*
X142363825Y-77162354D02*
X143508880Y-76017299D01*
X141938136Y-78674063D02*
X142363825Y-78248374D01*
X141938136Y-81781501D02*
X141938136Y-78674063D01*
D73*
X143508880Y-76017299D02*
X143708879Y-75817300D01*
D69*
X140480000Y-82600000D02*
X140880000Y-83000000D01*
X142436989Y-74356989D02*
X142436989Y-76083011D01*
X142280000Y-74200000D02*
X142436989Y-74356989D01*
X142436989Y-76083011D02*
X140480000Y-78040000D01*
X140480000Y-78040000D02*
X140480000Y-82600000D01*
X143191001Y-74202751D02*
X143209127Y-74184625D01*
X143209127Y-74184625D02*
X143418626Y-73975126D01*
X140880000Y-82200000D02*
X141593193Y-81486807D01*
X141593193Y-81486807D02*
X141593193Y-78570685D01*
X142046814Y-78117064D02*
X142046814Y-77018013D01*
X142046814Y-77018013D02*
X143191001Y-75873826D01*
X143191001Y-75873826D02*
X143191001Y-74202751D01*
X141593193Y-78570685D02*
X142046814Y-78117064D01*
X132872540Y-81400000D02*
X132872540Y-79592538D01*
X132872540Y-79592538D02*
X131680002Y-78400000D01*
X129723500Y-82838510D02*
X129884948Y-82999958D01*
X129884948Y-82999958D02*
X132080000Y-82999958D01*
X129776593Y-83386007D02*
X129467524Y-83386007D01*
X132880000Y-83800000D02*
X132479967Y-83399967D01*
X129467524Y-83386007D02*
X128954920Y-82873403D01*
X132479967Y-83399967D02*
X129790553Y-83399967D01*
X129790553Y-83399967D02*
X129776593Y-83386007D01*
D68*
X108230000Y-102110000D02*
X107240000Y-102110000D01*
D69*
X132080000Y-83799969D02*
X131561949Y-84318020D01*
D68*
X107240000Y-102110000D02*
X106625000Y-101495000D01*
D69*
X130116604Y-84318020D02*
X129584592Y-83786008D01*
D73*
X106625000Y-101445000D02*
X106625000Y-101495000D01*
D69*
X131561949Y-84318020D02*
X130116604Y-84318020D01*
X108153000Y-100917000D02*
X108230000Y-100840000D01*
X128422329Y-84178502D02*
X127646357Y-84178502D01*
X132080000Y-84599980D02*
X129832863Y-84599980D01*
X129832863Y-84599980D02*
X129108858Y-83875975D01*
D68*
X107320000Y-100840000D02*
X106500000Y-100020000D01*
D69*
X128724856Y-83875975D02*
X128422329Y-84178502D01*
X129108858Y-83875975D02*
X128724856Y-83875975D01*
D68*
X108230000Y-100840000D02*
X107320000Y-100840000D01*
X106197485Y-105017485D02*
X105347391Y-104167391D01*
X106197485Y-105022515D02*
X106197485Y-105017485D01*
X107094970Y-105920000D02*
X106197485Y-105022515D01*
X105347391Y-104167391D02*
X105342361Y-104167391D01*
D73*
X108230000Y-105920000D02*
X107094970Y-105920000D01*
D68*
X104980000Y-104900000D02*
X104980000Y-104800000D01*
X107270000Y-107190000D02*
X104980000Y-104900000D01*
D73*
X108230000Y-107190000D02*
X107270000Y-107190000D01*
X162700000Y-65357000D02*
X162700000Y-66246000D01*
X162661042Y-66284958D02*
X162700000Y-66246000D01*
X162271466Y-66284958D02*
X162661042Y-66284958D01*
X162700000Y-66246000D02*
X162700000Y-67262000D01*
D69*
X140080000Y-81400000D02*
X140080000Y-76800000D01*
D68*
X179190000Y-72594000D02*
X178237500Y-72594000D01*
X178237500Y-72594000D02*
X178237500Y-71834000D01*
D69*
X140080000Y-76696277D02*
X140261713Y-76514564D01*
X140080000Y-76800000D02*
X140080000Y-76696277D01*
D73*
X140645500Y-76130777D02*
X140645500Y-76067277D01*
D68*
X178018873Y-71615373D02*
X177285000Y-71615373D01*
D73*
X140645500Y-76067277D02*
X140645500Y-75771000D01*
D68*
X177285000Y-71615373D02*
X177006583Y-71336956D01*
X178237500Y-72594000D02*
X177285000Y-72594000D01*
X177006583Y-71336956D02*
X176797084Y-71127457D01*
X178237500Y-71834000D02*
X178018873Y-71615373D01*
D73*
X140261713Y-76514564D02*
X140645500Y-76130777D01*
D68*
X165200000Y-67262000D02*
X165855000Y-67262000D01*
X165982000Y-67135000D02*
X166756000Y-67135000D01*
X165855000Y-67262000D02*
X165982000Y-67135000D01*
X165855000Y-65357000D02*
X166236000Y-65738000D01*
X165200000Y-65357000D02*
X165855000Y-65357000D01*
X166236000Y-65738000D02*
X166631000Y-65738000D01*
X177285000Y-70094000D02*
X177285000Y-69294000D01*
X174872000Y-66881000D02*
X174854000Y-66899000D01*
X174854000Y-66899000D02*
X174475000Y-66899000D01*
X174350000Y-67268000D02*
X174350000Y-67120000D01*
X177285000Y-69294000D02*
X174872000Y-66881000D01*
X178827000Y-68931000D02*
X177681000Y-68931000D01*
X175268000Y-66518000D02*
X175268000Y-65658000D01*
X177681000Y-68931000D02*
X175268000Y-66518000D01*
X179190000Y-69294000D02*
X178827000Y-68931000D01*
X175268000Y-65658000D02*
X175112000Y-65502000D01*
X179190000Y-70094000D02*
X179190000Y-69294000D01*
X175112000Y-65502000D02*
X174477000Y-65502000D01*
D73*
X151773000Y-65229000D02*
X154044000Y-67500000D01*
X141980000Y-63895000D02*
X143618186Y-63895000D01*
X141980000Y-63896500D02*
X141059500Y-63896500D01*
X143618186Y-63895000D02*
X143650666Y-63862520D01*
X173217840Y-88507160D02*
X171585000Y-90140000D01*
X151773000Y-63470000D02*
X151773000Y-65229000D01*
X140601000Y-64355000D02*
X140025500Y-64355000D01*
X176605426Y-88507160D02*
X173217840Y-88507160D01*
X141059500Y-63896500D02*
X140601000Y-64355000D01*
X171585000Y-90140000D02*
X171585000Y-90615000D01*
X141134501Y-75561501D02*
X141344000Y-75771000D01*
X176988991Y-88964024D02*
X177188990Y-88764025D01*
X138565000Y-65629000D02*
X138565000Y-66899000D01*
X138565000Y-66899000D02*
X139581000Y-67915000D01*
X141980000Y-65166500D02*
X139027500Y-65166500D01*
X148420501Y-63214552D02*
X148630000Y-63424051D01*
X174030976Y-88964024D02*
X176988991Y-88964024D01*
X139581000Y-74008000D02*
X141134501Y-75561501D01*
X141980000Y-65166500D02*
X144062966Y-65166500D01*
X146014914Y-63214552D02*
X148420501Y-63214552D01*
X172855000Y-90140000D02*
X174030976Y-88964024D01*
X139027500Y-65166500D02*
X138565000Y-65629000D01*
X172855000Y-90615000D02*
X172855000Y-90140000D01*
X139581000Y-71008500D02*
X139581000Y-74008000D01*
X144062966Y-65166500D02*
X146014914Y-63214552D01*
X139601000Y-70988500D02*
X139581000Y-71008500D01*
D68*
X140597000Y-70988500D02*
X139601000Y-70988500D01*
D73*
X139581000Y-67915000D02*
X139581000Y-71008500D01*
D74*
X132596000Y-71725000D02*
X132596000Y-68771000D01*
D72*
X95370000Y-62690000D02*
X97910000Y-62690000D01*
D68*
X137680000Y-84600000D02*
X136935000Y-85345000D01*
D72*
X95370000Y-85550000D02*
X97910000Y-85550000D01*
D68*
X135370000Y-86200000D02*
X136100000Y-85470000D01*
D75*
X127500000Y-82120000D02*
X127500000Y-83315491D01*
X126387500Y-81770000D02*
X127150000Y-81770000D01*
D67*
X102800000Y-70020000D02*
X102000000Y-70020000D01*
D74*
X132817000Y-68550000D02*
X133563500Y-68550000D01*
D67*
X102000000Y-70020000D02*
X100855891Y-71164109D01*
D68*
X136935000Y-85345000D02*
X136100000Y-85345000D01*
D67*
X100855891Y-71164109D02*
X100855891Y-71574861D01*
D72*
X95370000Y-110950000D02*
X97910000Y-110950000D01*
D75*
X127150000Y-81770000D02*
X127500000Y-82120000D01*
D67*
X102736000Y-85651500D02*
X101339000Y-85651500D01*
D68*
X157205000Y-72487000D02*
X157996000Y-72487000D01*
D72*
X97910000Y-85550000D02*
X100958000Y-85550000D01*
D67*
X102736000Y-85651500D02*
X103726500Y-85651500D01*
X102736000Y-85651500D02*
X102736000Y-84788000D01*
X101339000Y-85651500D02*
X101237500Y-85550000D01*
D68*
X135280000Y-86200000D02*
X135370000Y-86200000D01*
D67*
X101237500Y-85550000D02*
X100958000Y-85550000D01*
D75*
X136152023Y-85438343D02*
X136153680Y-85440000D01*
D74*
X132596000Y-68771000D02*
X132817000Y-68550000D01*
D68*
X168156000Y-73630000D02*
X169538000Y-72248000D01*
X165821500Y-73630000D02*
X168156000Y-73630000D01*
X169538000Y-72248000D02*
X169538000Y-69707449D01*
X169538000Y-69707449D02*
X169517039Y-69686488D01*
X170935000Y-77679000D02*
X169935000Y-76679000D01*
X169935000Y-76679000D02*
X169935000Y-76025000D01*
X170935000Y-78735000D02*
X170935000Y-77679000D01*
X175395000Y-90615000D02*
X175995000Y-90615000D01*
X178204500Y-90980500D02*
X179078000Y-90980500D01*
X176518000Y-91138000D02*
X176525500Y-91130500D01*
X176525500Y-91130500D02*
X177300000Y-91130500D01*
X178054500Y-91130500D02*
X178204500Y-90980500D01*
X175995000Y-90615000D02*
X176518000Y-91138000D01*
X177300000Y-91130500D02*
X178054500Y-91130500D01*
X173002000Y-72106000D02*
X173002000Y-71743000D01*
X173002000Y-71743000D02*
X174104044Y-70640956D01*
X174104044Y-70640956D02*
X174544000Y-70201000D01*
X172048499Y-70917958D02*
X171839000Y-71127457D01*
X172944000Y-70201000D02*
X172765457Y-70201000D01*
X172765457Y-70201000D02*
X172048499Y-70917958D01*
X124808500Y-77212000D02*
X124808500Y-78736000D01*
X124700000Y-76420000D02*
X124808500Y-76528500D01*
X124808500Y-76528500D02*
X124808500Y-77212000D01*
X124808500Y-75670000D02*
X124808500Y-76528500D01*
X123960000Y-76660000D02*
X124200000Y-76420000D01*
X124200000Y-76420000D02*
X124700000Y-76420000D01*
X124808500Y-78736000D02*
X124808500Y-80260000D01*
X122294000Y-76660000D02*
X123960000Y-76660000D01*
X130422000Y-73985500D02*
X130165500Y-73985500D01*
X133485000Y-73985500D02*
X131961000Y-73985500D01*
X130237001Y-67479999D02*
X130437000Y-67280000D01*
X128532000Y-72352000D02*
X128532000Y-69185000D01*
X135009000Y-73985500D02*
X133485000Y-73985500D01*
X128532000Y-69185000D02*
X130237001Y-67479999D01*
X131961000Y-73985500D02*
X130422000Y-73985500D01*
X130165500Y-73985500D02*
X128532000Y-72352000D01*
X169157000Y-91138000D02*
X169792000Y-90503000D01*
X169157000Y-91978500D02*
X169157000Y-91138000D01*
X168316500Y-91138000D02*
X168141000Y-91138000D01*
X169792000Y-90503000D02*
X169792000Y-89496000D01*
X169157000Y-91978500D02*
X168316500Y-91138000D01*
X172982000Y-74265000D02*
X172982000Y-73508000D01*
X150838000Y-81773000D02*
X150838000Y-83189000D01*
X166191499Y-70917958D02*
X165982000Y-71127457D01*
X151835000Y-84186000D02*
X154141000Y-84186000D01*
X150838000Y-83189000D02*
X151835000Y-84186000D01*
X164605000Y-69060000D02*
X164585000Y-69060000D01*
X172982000Y-73508000D02*
X172987000Y-73503000D01*
X166210500Y-70310000D02*
X165835000Y-70310000D01*
X165835000Y-70310000D02*
X164585000Y-69060000D01*
X163523600Y-69060000D02*
X164585000Y-69060000D01*
X162480000Y-69500000D02*
X163083600Y-69500000D01*
X163083600Y-69500000D02*
X163523600Y-69060000D01*
X172987000Y-74260000D02*
X172982000Y-74265000D01*
X166210500Y-70898957D02*
X166191499Y-70917958D01*
X166210500Y-70310000D02*
X166210500Y-70898957D01*
D69*
X147980000Y-97600000D02*
X147834011Y-97454011D01*
X151917499Y-94169993D02*
X148487492Y-97600000D01*
X151917499Y-88167501D02*
X151917499Y-94169993D01*
X147834011Y-96594786D02*
X146739225Y-95500000D01*
X147834011Y-97454011D02*
X147834011Y-96594786D01*
X154121000Y-85964000D02*
X151917499Y-88167501D01*
X148487492Y-97600000D02*
X147980000Y-97600000D01*
X146739225Y-95500000D02*
X146280000Y-95500000D01*
X130100340Y-106100000D02*
X129821745Y-105821405D01*
X130897500Y-106100000D02*
X130100340Y-106100000D01*
D68*
X166363000Y-90503000D02*
X165982000Y-90122000D01*
X167379000Y-90503000D02*
X167633000Y-90757000D01*
X165982000Y-89408500D02*
X167799500Y-89408500D01*
X166363000Y-90503000D02*
X167379000Y-90503000D01*
X167799500Y-89408500D02*
X167887000Y-89496000D01*
X165982000Y-90122000D02*
X165982000Y-89408500D01*
X125714300Y-90700001D02*
X125762663Y-90748364D01*
X123980000Y-96500000D02*
X123480000Y-96000000D01*
X120307011Y-92204106D02*
X121811116Y-90700001D01*
X122580000Y-96300000D02*
X121383884Y-96300000D01*
X121811116Y-90700001D02*
X125714300Y-90700001D01*
X121383884Y-96300000D02*
X120307011Y-95223127D01*
X123480000Y-96000000D02*
X122880000Y-96000000D01*
X122880000Y-96000000D02*
X122580000Y-96300000D01*
X123980000Y-101400000D02*
X123980000Y-96500000D01*
X120307011Y-95223127D02*
X120307011Y-92204106D01*
X124690000Y-102110000D02*
X123980000Y-101400000D01*
X126230000Y-102110000D02*
X124690000Y-102110000D01*
X124915010Y-108435000D02*
X124680000Y-108199990D01*
X126300000Y-108435000D02*
X124915010Y-108435000D01*
X124580000Y-104650000D02*
X122680000Y-102750000D01*
X122680000Y-97315465D02*
X123117957Y-96877508D01*
X122680000Y-102750000D02*
X122680000Y-97315465D01*
X126230000Y-104650000D02*
X124580000Y-104650000D01*
D69*
X130140000Y-100790000D02*
X130140000Y-100740000D01*
X132085381Y-87800000D02*
X129797766Y-87800000D01*
X132080000Y-98775000D02*
X132080000Y-98800000D01*
X129797766Y-87800000D02*
X129029169Y-88568597D01*
X130320000Y-100790000D02*
X130320000Y-100535000D01*
X131080000Y-99800000D02*
X131080000Y-99775000D01*
X132885371Y-87000010D02*
X132085381Y-87800000D01*
D75*
X130140000Y-100740000D02*
X131280000Y-99600000D01*
D69*
X132080000Y-98800000D02*
X131280000Y-99600000D01*
D68*
X108300000Y-97005000D02*
X112285000Y-97005000D01*
X112285000Y-97005000D02*
X114042462Y-98762462D01*
X108300000Y-98275000D02*
X112555000Y-98275000D01*
D69*
X108153000Y-98377000D02*
X108230000Y-98300000D01*
D68*
X112555000Y-98275000D02*
X113362850Y-99082850D01*
X112225000Y-99545000D02*
X112480000Y-99800000D01*
X108300000Y-99545000D02*
X112225000Y-99545000D01*
D73*
X111470509Y-101209499D02*
X111680008Y-101000000D01*
D68*
X108230000Y-103380000D02*
X109300008Y-103380000D01*
X109300008Y-103380000D02*
X111470509Y-101209499D01*
X104872000Y-99858000D02*
X105276000Y-100262000D01*
X103576500Y-100868500D02*
X103576500Y-99817500D01*
X105276000Y-101044000D02*
X103752000Y-101044000D01*
X103752000Y-101044000D02*
X103576500Y-100868500D01*
X105276000Y-101044000D02*
X105276000Y-99949500D01*
D70*
X144535482Y-96525001D02*
X145215000Y-96525000D01*
X144425983Y-96634500D02*
X144535482Y-96525001D01*
X145330000Y-96640000D02*
X145330000Y-97075000D01*
X145215000Y-96525000D02*
X145330000Y-96640000D01*
X145330000Y-97075000D02*
X145180000Y-97225000D01*
X145530000Y-96075000D02*
X146680000Y-97225000D01*
X144535482Y-96074999D02*
X145530000Y-96075000D01*
X144425983Y-95965500D02*
X144535482Y-96074999D01*
D73*
X145655000Y-69900000D02*
X145655000Y-69210000D01*
X146065000Y-68800000D02*
X146080000Y-68800000D01*
X145655000Y-69210000D02*
X146065000Y-68800000D01*
X147440000Y-74691500D02*
X147440000Y-76716787D01*
X143905000Y-71156500D02*
X147440000Y-74691500D01*
D69*
X144843499Y-79313288D02*
X144634000Y-79522787D01*
X143905000Y-69900000D02*
X143905000Y-70065000D01*
D73*
X143905000Y-70065000D02*
X143905000Y-71156500D01*
D69*
X147440000Y-76716787D02*
X144843499Y-79313288D01*
D68*
X152930000Y-73850000D02*
X152355000Y-73275000D01*
X152355000Y-73275000D02*
X152355000Y-72975000D01*
D69*
X132080000Y-97225000D02*
X132161437Y-97225000D01*
X132719096Y-96585904D02*
X132080000Y-97225000D01*
X132796356Y-96585904D02*
X132719096Y-96585904D01*
X133580000Y-96494980D02*
X133580000Y-97225000D01*
X134012490Y-96062490D02*
X133580000Y-96494980D01*
X136364980Y-96030000D02*
X136240810Y-95905830D01*
X138290000Y-96560000D02*
X137500000Y-96560000D01*
X138955000Y-97225000D02*
X138290000Y-96560000D01*
X137462137Y-96522137D02*
X137462137Y-96272177D01*
X137500000Y-96560000D02*
X137462137Y-96522137D01*
X139180000Y-97225000D02*
X138955000Y-97225000D01*
X137462137Y-96272177D02*
X137219960Y-96030000D01*
X137219960Y-96030000D02*
X136364980Y-96030000D01*
X140680000Y-97225000D02*
X139935000Y-96480000D01*
X138436000Y-96306000D02*
X137716137Y-96306000D01*
X138610000Y-96480000D02*
X138436000Y-96306000D01*
X137179670Y-95630500D02*
X137030000Y-95630500D01*
X139935000Y-96480000D02*
X138610000Y-96480000D01*
X137716137Y-96166967D02*
X137179670Y-95630500D01*
X137716137Y-96306000D02*
X137716137Y-96166967D01*
X135370000Y-96460000D02*
X135415000Y-96460000D01*
X135415000Y-96460000D02*
X136180000Y-97225000D01*
X136365124Y-96305830D02*
X137284294Y-97225000D01*
X137780000Y-97225000D02*
X137405000Y-97225000D01*
X137284294Y-97225000D02*
X137680000Y-97225000D01*
X135881908Y-96305830D02*
X136365124Y-96305830D01*
X135508434Y-95932356D02*
X135881908Y-96305830D01*
X142160000Y-97205000D02*
X142180000Y-97225000D01*
X142160000Y-96450000D02*
X142160000Y-97205000D01*
X143700002Y-96473498D02*
X143700002Y-97204998D01*
X143700002Y-97204998D02*
X143680000Y-97225000D01*
X143990000Y-102340000D02*
X142800000Y-103530000D01*
X142565000Y-98775000D02*
X143990000Y-100200000D01*
X142180000Y-98775000D02*
X142565000Y-98775000D01*
X143990000Y-100200000D02*
X143990000Y-102340000D01*
X144280000Y-100130790D02*
X144280000Y-102420000D01*
X144280000Y-102420000D02*
X143800000Y-102900000D01*
X143680000Y-98775000D02*
X143680000Y-99530790D01*
X143800000Y-102900000D02*
X143800000Y-103530000D01*
X143680000Y-99530790D02*
X144280000Y-100130790D01*
X146480000Y-100075000D02*
X146480000Y-102450000D01*
X146480000Y-102450000D02*
X145380000Y-103550000D01*
X145180000Y-98775000D02*
X146480000Y-100075000D01*
X146800000Y-98895000D02*
X146800000Y-102489210D01*
X146680000Y-98775000D02*
X146800000Y-98895000D01*
X146380000Y-102909210D02*
X146380000Y-103550000D01*
X146800000Y-102489210D02*
X146380000Y-102909210D01*
M02*
