G04 #@! TF.GenerationSoftware,KiCad,Pcbnew,7.0.2*
G04 #@! TF.CreationDate,2023-07-26T12:10:01+02:00*
G04 #@! TF.ProjectId,ulx3s_panel,756c7833-735f-4706-916e-656c2e6b6963,v3.1.8*
G04 #@! TF.SameCoordinates,Original*
G04 #@! TF.FileFunction,Paste,Top*
G04 #@! TF.FilePolarity,Positive*
%FSLAX46Y46*%
G04 Gerber Fmt 4.6, Leading zero omitted, Abs format (unit mm)*
G04 Created by KiCad (PCBNEW 7.0.2) date 2023-07-26 12:10:01*
%MOMM*%
%LPD*%
G01*
G04 APERTURE LIST*
G04 Aperture macros list*
%AMRoundRect*
0 Rectangle with rounded corners*
0 $1 Rounding radius*
0 $2 $3 $4 $5 $6 $7 $8 $9 X,Y pos of 4 corners*
0 Add a 4 corners polygon primitive as box body*
4,1,4,$2,$3,$4,$5,$6,$7,$8,$9,$2,$3,0*
0 Add four circle primitives for the rounded corners*
1,1,$1+$1,$2,$3*
1,1,$1+$1,$4,$5*
1,1,$1+$1,$6,$7*
1,1,$1+$1,$8,$9*
0 Add four rect primitives between the rounded corners*
20,1,$1+$1,$2,$3,$4,$5,0*
20,1,$1+$1,$4,$5,$6,$7,0*
20,1,$1+$1,$6,$7,$8,$9,0*
20,1,$1+$1,$8,$9,$2,$3,0*%
G04 Aperture macros list end*
%ADD10C,0.100000*%
%ADD11R,1.296000X1.046000*%
%ADD12R,1.095000X1.200000*%
%ADD13RoundRect,0.193750X0.456250X-0.243750X0.456250X0.243750X-0.456250X0.243750X-0.456250X-0.243750X0*%
%ADD14RoundRect,0.168750X0.256250X-0.218750X0.256250X0.218750X-0.256250X0.218750X-0.256250X-0.218750X0*%
%ADD15R,0.300000X1.250000*%
%ADD16R,1.546000X1.646000*%
%ADD17R,1.846000X1.346000*%
%ADD18R,1.646000X1.646000*%
%ADD19RoundRect,0.193750X-0.456250X0.243750X-0.456250X-0.243750X0.456250X-0.243750X0.456250X0.243750X0*%
%ADD20R,0.200000X1.800000*%
%ADD21RoundRect,0.150000X0.275000X-0.200000X0.275000X0.200000X-0.275000X0.200000X-0.275000X-0.200000X0*%
%ADD22RoundRect,0.168750X-0.256250X0.218750X-0.256250X-0.218750X0.256250X-0.218750X0.256250X0.218750X0*%
%ADD23R,1.900000X1.500000*%
%ADD24C,0.350000*%
%ADD25RoundRect,0.125000X-0.175000X-0.575000X0.175000X-0.575000X0.175000X0.575000X-0.175000X0.575000X0*%
%ADD26RoundRect,0.200000X0.350000X-0.250000X0.350000X0.250000X-0.350000X0.250000X-0.350000X-0.250000X0*%
%ADD27RoundRect,0.175000X-0.500000X-0.225000X0.500000X-0.225000X0.500000X0.225000X-0.500000X0.225000X0*%
%ADD28RoundRect,0.175000X0.500000X-0.225000X0.500000X0.225000X-0.500000X0.225000X-0.500000X-0.225000X0*%
%ADD29RoundRect,0.287500X-0.437500X0.337500X-0.437500X-0.337500X0.437500X-0.337500X0.437500X0.337500X0*%
%ADD30RoundRect,0.242500X-0.292500X0.607500X-0.292500X-0.607500X0.292500X-0.607500X0.292500X0.607500X0*%
%ADD31RoundRect,0.287500X-0.612500X0.337500X-0.612500X-0.337500X0.612500X-0.337500X0.612500X0.337500X0*%
%ADD32RoundRect,0.312500X-0.362500X-0.637500X0.362500X-0.637500X0.362500X0.637500X-0.362500X0.637500X0*%
%ADD33RoundRect,0.200000X-0.350000X0.250000X-0.350000X-0.250000X0.350000X-0.250000X0.350000X0.250000X0*%
%ADD34R,2.546000X1.746000*%
%ADD35R,2.546000X2.546000*%
%ADD36R,2.546000X1.946000*%
%ADD37R,0.850000X0.200000*%
%ADD38O,0.850000X0.200000*%
%ADD39O,0.200000X0.850000*%
%ADD40R,0.875000X0.875000*%
%ADD41R,0.920000X2.240000*%
%ADD42R,0.460000X1.100000*%
%ADD43O,0.460000X1.100000*%
G04 APERTURE END LIST*
D10*
X212746000Y-211092000D02*
X212246000Y-211392000D01*
X212246000Y-210792000D01*
X212446000Y-210592000D01*
X213046000Y-210592000D01*
X212746000Y-211092000D01*
G36*
X212746000Y-211092000D02*
G01*
X212246000Y-211392000D01*
X212246000Y-210792000D01*
X212446000Y-210592000D01*
X213046000Y-210592000D01*
X212746000Y-211092000D01*
G37*
X212746000Y-209692000D02*
X213046000Y-210192000D01*
X212446000Y-210192000D01*
X212246000Y-209992000D01*
X212246000Y-209392000D01*
X212746000Y-209692000D01*
G36*
X212746000Y-209692000D02*
G01*
X213046000Y-210192000D01*
X212446000Y-210192000D01*
X212246000Y-209992000D01*
X212246000Y-209392000D01*
X212746000Y-209692000D01*
G37*
X212146000Y-215992000D02*
X211646000Y-216292000D01*
X211646000Y-215692000D01*
X211846000Y-215492000D01*
X212446000Y-215492000D01*
X212146000Y-215992000D01*
G36*
X212146000Y-215992000D02*
G01*
X211646000Y-216292000D01*
X211646000Y-215692000D01*
X211846000Y-215492000D01*
X212446000Y-215492000D01*
X212146000Y-215992000D01*
G37*
X212146000Y-214592000D02*
X212446000Y-215092000D01*
X211846000Y-215092000D01*
X211646000Y-214892000D01*
X211646000Y-214292000D01*
X212146000Y-214592000D01*
G36*
X212146000Y-214592000D02*
G01*
X212446000Y-215092000D01*
X211846000Y-215092000D01*
X211646000Y-214892000D01*
X211646000Y-214292000D01*
X212146000Y-214592000D01*
G37*
X211846000Y-210792000D02*
X211846000Y-211392000D01*
X211346000Y-211092000D01*
X211046000Y-210592000D01*
X211646000Y-210592000D01*
X211846000Y-210792000D01*
G36*
X211846000Y-210792000D02*
G01*
X211846000Y-211392000D01*
X211346000Y-211092000D01*
X211046000Y-210592000D01*
X211646000Y-210592000D01*
X211846000Y-210792000D01*
G37*
X211846000Y-209992000D02*
X211646000Y-210192000D01*
X211046000Y-210192000D01*
X211346000Y-209692000D01*
X211846000Y-209392000D01*
X211846000Y-209992000D01*
G36*
X211846000Y-209992000D02*
G01*
X211646000Y-210192000D01*
X211046000Y-210192000D01*
X211346000Y-209692000D01*
X211846000Y-209392000D01*
X211846000Y-209992000D01*
G37*
X211246000Y-215692000D02*
X211246000Y-216292000D01*
X210746000Y-215992000D01*
X210446000Y-215492000D01*
X211046000Y-215492000D01*
X211246000Y-215692000D01*
G36*
X211246000Y-215692000D02*
G01*
X211246000Y-216292000D01*
X210746000Y-215992000D01*
X210446000Y-215492000D01*
X211046000Y-215492000D01*
X211246000Y-215692000D01*
G37*
X211246000Y-214892000D02*
X211046000Y-215092000D01*
X210446000Y-215092000D01*
X210746000Y-214592000D01*
X211246000Y-214292000D01*
X211246000Y-214892000D01*
G36*
X211246000Y-214892000D02*
G01*
X211046000Y-215092000D01*
X210446000Y-215092000D01*
X210746000Y-214592000D01*
X211246000Y-214292000D01*
X211246000Y-214892000D01*
G37*
X197646000Y-215992000D02*
X197146000Y-216292000D01*
X197146000Y-215692000D01*
X197346000Y-215492000D01*
X197946000Y-215492000D01*
X197646000Y-215992000D01*
G36*
X197646000Y-215992000D02*
G01*
X197146000Y-216292000D01*
X197146000Y-215692000D01*
X197346000Y-215492000D01*
X197946000Y-215492000D01*
X197646000Y-215992000D01*
G37*
X197646000Y-214592000D02*
X197946000Y-215092000D01*
X197346000Y-215092000D01*
X197146000Y-214892000D01*
X197146000Y-214292000D01*
X197646000Y-214592000D01*
G36*
X197646000Y-214592000D02*
G01*
X197946000Y-215092000D01*
X197346000Y-215092000D01*
X197146000Y-214892000D01*
X197146000Y-214292000D01*
X197646000Y-214592000D01*
G37*
X197046000Y-211092000D02*
X196546000Y-211392000D01*
X196546000Y-210792000D01*
X196746000Y-210592000D01*
X197346000Y-210592000D01*
X197046000Y-211092000D01*
G36*
X197046000Y-211092000D02*
G01*
X196546000Y-211392000D01*
X196546000Y-210792000D01*
X196746000Y-210592000D01*
X197346000Y-210592000D01*
X197046000Y-211092000D01*
G37*
X197046000Y-209692000D02*
X197346000Y-210192000D01*
X196746000Y-210192000D01*
X196546000Y-209992000D01*
X196546000Y-209392000D01*
X197046000Y-209692000D01*
G36*
X197046000Y-209692000D02*
G01*
X197346000Y-210192000D01*
X196746000Y-210192000D01*
X196546000Y-209992000D01*
X196546000Y-209392000D01*
X197046000Y-209692000D01*
G37*
X196746000Y-215692000D02*
X196746000Y-216292000D01*
X196246000Y-215992000D01*
X195946000Y-215492000D01*
X196546000Y-215492000D01*
X196746000Y-215692000D01*
G36*
X196746000Y-215692000D02*
G01*
X196746000Y-216292000D01*
X196246000Y-215992000D01*
X195946000Y-215492000D01*
X196546000Y-215492000D01*
X196746000Y-215692000D01*
G37*
X196746000Y-214892000D02*
X196546000Y-215092000D01*
X195946000Y-215092000D01*
X196246000Y-214592000D01*
X196746000Y-214292000D01*
X196746000Y-214892000D01*
G36*
X196746000Y-214892000D02*
G01*
X196546000Y-215092000D01*
X195946000Y-215092000D01*
X196246000Y-214592000D01*
X196746000Y-214292000D01*
X196746000Y-214892000D01*
G37*
X196146000Y-210792000D02*
X196146000Y-211392000D01*
X195646000Y-211092000D01*
X195346000Y-210592000D01*
X195946000Y-210592000D01*
X196146000Y-210792000D01*
G36*
X196146000Y-210792000D02*
G01*
X196146000Y-211392000D01*
X195646000Y-211092000D01*
X195346000Y-210592000D01*
X195946000Y-210592000D01*
X196146000Y-210792000D01*
G37*
X196146000Y-209992000D02*
X195946000Y-210192000D01*
X195346000Y-210192000D01*
X195646000Y-209692000D01*
X196146000Y-209392000D01*
X196146000Y-209992000D01*
G36*
X196146000Y-209992000D02*
G01*
X195946000Y-210192000D01*
X195346000Y-210192000D01*
X195646000Y-209692000D01*
X196146000Y-209392000D01*
X196146000Y-209992000D01*
G37*
X212746000Y-151292000D02*
X212246000Y-151592000D01*
X212246000Y-150992000D01*
X212446000Y-150792000D01*
X213046000Y-150792000D01*
X212746000Y-151292000D01*
G36*
X212746000Y-151292000D02*
G01*
X212246000Y-151592000D01*
X212246000Y-150992000D01*
X212446000Y-150792000D01*
X213046000Y-150792000D01*
X212746000Y-151292000D01*
G37*
X212746000Y-149892000D02*
X213046000Y-150392000D01*
X212446000Y-150392000D01*
X212246000Y-150192000D01*
X212246000Y-149592000D01*
X212746000Y-149892000D01*
G36*
X212746000Y-149892000D02*
G01*
X213046000Y-150392000D01*
X212446000Y-150392000D01*
X212246000Y-150192000D01*
X212246000Y-149592000D01*
X212746000Y-149892000D01*
G37*
X212146000Y-156192000D02*
X211646000Y-156492000D01*
X211646000Y-155892000D01*
X211846000Y-155692000D01*
X212446000Y-155692000D01*
X212146000Y-156192000D01*
G36*
X212146000Y-156192000D02*
G01*
X211646000Y-156492000D01*
X211646000Y-155892000D01*
X211846000Y-155692000D01*
X212446000Y-155692000D01*
X212146000Y-156192000D01*
G37*
X212146000Y-154792000D02*
X212446000Y-155292000D01*
X211846000Y-155292000D01*
X211646000Y-155092000D01*
X211646000Y-154492000D01*
X212146000Y-154792000D01*
G36*
X212146000Y-154792000D02*
G01*
X212446000Y-155292000D01*
X211846000Y-155292000D01*
X211646000Y-155092000D01*
X211646000Y-154492000D01*
X212146000Y-154792000D01*
G37*
X211846000Y-150992000D02*
X211846000Y-151592000D01*
X211346000Y-151292000D01*
X211046000Y-150792000D01*
X211646000Y-150792000D01*
X211846000Y-150992000D01*
G36*
X211846000Y-150992000D02*
G01*
X211846000Y-151592000D01*
X211346000Y-151292000D01*
X211046000Y-150792000D01*
X211646000Y-150792000D01*
X211846000Y-150992000D01*
G37*
X211846000Y-150192000D02*
X211646000Y-150392000D01*
X211046000Y-150392000D01*
X211346000Y-149892000D01*
X211846000Y-149592000D01*
X211846000Y-150192000D01*
G36*
X211846000Y-150192000D02*
G01*
X211646000Y-150392000D01*
X211046000Y-150392000D01*
X211346000Y-149892000D01*
X211846000Y-149592000D01*
X211846000Y-150192000D01*
G37*
X211246000Y-155892000D02*
X211246000Y-156492000D01*
X210746000Y-156192000D01*
X210446000Y-155692000D01*
X211046000Y-155692000D01*
X211246000Y-155892000D01*
G36*
X211246000Y-155892000D02*
G01*
X211246000Y-156492000D01*
X210746000Y-156192000D01*
X210446000Y-155692000D01*
X211046000Y-155692000D01*
X211246000Y-155892000D01*
G37*
X211246000Y-155092000D02*
X211046000Y-155292000D01*
X210446000Y-155292000D01*
X210746000Y-154792000D01*
X211246000Y-154492000D01*
X211246000Y-155092000D01*
G36*
X211246000Y-155092000D02*
G01*
X211046000Y-155292000D01*
X210446000Y-155292000D01*
X210746000Y-154792000D01*
X211246000Y-154492000D01*
X211246000Y-155092000D01*
G37*
X197646000Y-156192000D02*
X197146000Y-156492000D01*
X197146000Y-155892000D01*
X197346000Y-155692000D01*
X197946000Y-155692000D01*
X197646000Y-156192000D01*
G36*
X197646000Y-156192000D02*
G01*
X197146000Y-156492000D01*
X197146000Y-155892000D01*
X197346000Y-155692000D01*
X197946000Y-155692000D01*
X197646000Y-156192000D01*
G37*
X197646000Y-154792000D02*
X197946000Y-155292000D01*
X197346000Y-155292000D01*
X197146000Y-155092000D01*
X197146000Y-154492000D01*
X197646000Y-154792000D01*
G36*
X197646000Y-154792000D02*
G01*
X197946000Y-155292000D01*
X197346000Y-155292000D01*
X197146000Y-155092000D01*
X197146000Y-154492000D01*
X197646000Y-154792000D01*
G37*
X197046000Y-151292000D02*
X196546000Y-151592000D01*
X196546000Y-150992000D01*
X196746000Y-150792000D01*
X197346000Y-150792000D01*
X197046000Y-151292000D01*
G36*
X197046000Y-151292000D02*
G01*
X196546000Y-151592000D01*
X196546000Y-150992000D01*
X196746000Y-150792000D01*
X197346000Y-150792000D01*
X197046000Y-151292000D01*
G37*
X197046000Y-149892000D02*
X197346000Y-150392000D01*
X196746000Y-150392000D01*
X196546000Y-150192000D01*
X196546000Y-149592000D01*
X197046000Y-149892000D01*
G36*
X197046000Y-149892000D02*
G01*
X197346000Y-150392000D01*
X196746000Y-150392000D01*
X196546000Y-150192000D01*
X196546000Y-149592000D01*
X197046000Y-149892000D01*
G37*
X196746000Y-155892000D02*
X196746000Y-156492000D01*
X196246000Y-156192000D01*
X195946000Y-155692000D01*
X196546000Y-155692000D01*
X196746000Y-155892000D01*
G36*
X196746000Y-155892000D02*
G01*
X196746000Y-156492000D01*
X196246000Y-156192000D01*
X195946000Y-155692000D01*
X196546000Y-155692000D01*
X196746000Y-155892000D01*
G37*
X196746000Y-155092000D02*
X196546000Y-155292000D01*
X195946000Y-155292000D01*
X196246000Y-154792000D01*
X196746000Y-154492000D01*
X196746000Y-155092000D01*
G36*
X196746000Y-155092000D02*
G01*
X196546000Y-155292000D01*
X195946000Y-155292000D01*
X196246000Y-154792000D01*
X196746000Y-154492000D01*
X196746000Y-155092000D01*
G37*
X196146000Y-150992000D02*
X196146000Y-151592000D01*
X195646000Y-151292000D01*
X195346000Y-150792000D01*
X195946000Y-150792000D01*
X196146000Y-150992000D01*
G36*
X196146000Y-150992000D02*
G01*
X196146000Y-151592000D01*
X195646000Y-151292000D01*
X195346000Y-150792000D01*
X195946000Y-150792000D01*
X196146000Y-150992000D01*
G37*
X196146000Y-150192000D02*
X195946000Y-150392000D01*
X195346000Y-150392000D01*
X195646000Y-149892000D01*
X196146000Y-149592000D01*
X196146000Y-150192000D01*
G36*
X196146000Y-150192000D02*
G01*
X195946000Y-150392000D01*
X195346000Y-150392000D01*
X195646000Y-149892000D01*
X196146000Y-149592000D01*
X196146000Y-150192000D01*
G37*
X109766000Y-31692000D02*
X109266000Y-31992000D01*
X109266000Y-31392000D01*
X109466000Y-31192000D01*
X110066000Y-31192000D01*
X109766000Y-31692000D01*
G36*
X109766000Y-31692000D02*
G01*
X109266000Y-31992000D01*
X109266000Y-31392000D01*
X109466000Y-31192000D01*
X110066000Y-31192000D01*
X109766000Y-31692000D01*
G37*
X109766000Y-30292000D02*
X110066000Y-30792000D01*
X109466000Y-30792000D01*
X109266000Y-30592000D01*
X109266000Y-29992000D01*
X109766000Y-30292000D01*
G36*
X109766000Y-30292000D02*
G01*
X110066000Y-30792000D01*
X109466000Y-30792000D01*
X109266000Y-30592000D01*
X109266000Y-29992000D01*
X109766000Y-30292000D01*
G37*
X109166000Y-36592000D02*
X108666000Y-36892000D01*
X108666000Y-36292000D01*
X108866000Y-36092000D01*
X109466000Y-36092000D01*
X109166000Y-36592000D01*
G36*
X109166000Y-36592000D02*
G01*
X108666000Y-36892000D01*
X108666000Y-36292000D01*
X108866000Y-36092000D01*
X109466000Y-36092000D01*
X109166000Y-36592000D01*
G37*
X109166000Y-35192000D02*
X109466000Y-35692000D01*
X108866000Y-35692000D01*
X108666000Y-35492000D01*
X108666000Y-34892000D01*
X109166000Y-35192000D01*
G36*
X109166000Y-35192000D02*
G01*
X109466000Y-35692000D01*
X108866000Y-35692000D01*
X108666000Y-35492000D01*
X108666000Y-34892000D01*
X109166000Y-35192000D01*
G37*
X108866000Y-31392000D02*
X108866000Y-31992000D01*
X108366000Y-31692000D01*
X108066000Y-31192000D01*
X108666000Y-31192000D01*
X108866000Y-31392000D01*
G36*
X108866000Y-31392000D02*
G01*
X108866000Y-31992000D01*
X108366000Y-31692000D01*
X108066000Y-31192000D01*
X108666000Y-31192000D01*
X108866000Y-31392000D01*
G37*
X108866000Y-30592000D02*
X108666000Y-30792000D01*
X108066000Y-30792000D01*
X108366000Y-30292000D01*
X108866000Y-29992000D01*
X108866000Y-30592000D01*
G36*
X108866000Y-30592000D02*
G01*
X108666000Y-30792000D01*
X108066000Y-30792000D01*
X108366000Y-30292000D01*
X108866000Y-29992000D01*
X108866000Y-30592000D01*
G37*
X108266000Y-36292000D02*
X108266000Y-36892000D01*
X107766000Y-36592000D01*
X107466000Y-36092000D01*
X108066000Y-36092000D01*
X108266000Y-36292000D01*
G36*
X108266000Y-36292000D02*
G01*
X108266000Y-36892000D01*
X107766000Y-36592000D01*
X107466000Y-36092000D01*
X108066000Y-36092000D01*
X108266000Y-36292000D01*
G37*
X108266000Y-35492000D02*
X108066000Y-35692000D01*
X107466000Y-35692000D01*
X107766000Y-35192000D01*
X108266000Y-34892000D01*
X108266000Y-35492000D01*
G36*
X108266000Y-35492000D02*
G01*
X108066000Y-35692000D01*
X107466000Y-35692000D01*
X107766000Y-35192000D01*
X108266000Y-34892000D01*
X108266000Y-35492000D01*
G37*
X94666000Y-36592000D02*
X94166000Y-36892000D01*
X94166000Y-36292000D01*
X94366000Y-36092000D01*
X94966000Y-36092000D01*
X94666000Y-36592000D01*
G36*
X94666000Y-36592000D02*
G01*
X94166000Y-36892000D01*
X94166000Y-36292000D01*
X94366000Y-36092000D01*
X94966000Y-36092000D01*
X94666000Y-36592000D01*
G37*
X94666000Y-35192000D02*
X94966000Y-35692000D01*
X94366000Y-35692000D01*
X94166000Y-35492000D01*
X94166000Y-34892000D01*
X94666000Y-35192000D01*
G36*
X94666000Y-35192000D02*
G01*
X94966000Y-35692000D01*
X94366000Y-35692000D01*
X94166000Y-35492000D01*
X94166000Y-34892000D01*
X94666000Y-35192000D01*
G37*
X94066000Y-31692000D02*
X93566000Y-31992000D01*
X93566000Y-31392000D01*
X93766000Y-31192000D01*
X94366000Y-31192000D01*
X94066000Y-31692000D01*
G36*
X94066000Y-31692000D02*
G01*
X93566000Y-31992000D01*
X93566000Y-31392000D01*
X93766000Y-31192000D01*
X94366000Y-31192000D01*
X94066000Y-31692000D01*
G37*
X94066000Y-30292000D02*
X94366000Y-30792000D01*
X93766000Y-30792000D01*
X93566000Y-30592000D01*
X93566000Y-29992000D01*
X94066000Y-30292000D01*
G36*
X94066000Y-30292000D02*
G01*
X94366000Y-30792000D01*
X93766000Y-30792000D01*
X93566000Y-30592000D01*
X93566000Y-29992000D01*
X94066000Y-30292000D01*
G37*
X93766000Y-36292000D02*
X93766000Y-36892000D01*
X93266000Y-36592000D01*
X92966000Y-36092000D01*
X93566000Y-36092000D01*
X93766000Y-36292000D01*
G36*
X93766000Y-36292000D02*
G01*
X93766000Y-36892000D01*
X93266000Y-36592000D01*
X92966000Y-36092000D01*
X93566000Y-36092000D01*
X93766000Y-36292000D01*
G37*
X93766000Y-35492000D02*
X93566000Y-35692000D01*
X92966000Y-35692000D01*
X93266000Y-35192000D01*
X93766000Y-34892000D01*
X93766000Y-35492000D01*
G36*
X93766000Y-35492000D02*
G01*
X93566000Y-35692000D01*
X92966000Y-35692000D01*
X93266000Y-35192000D01*
X93766000Y-34892000D01*
X93766000Y-35492000D01*
G37*
X93166000Y-31392000D02*
X93166000Y-31992000D01*
X92666000Y-31692000D01*
X92366000Y-31192000D01*
X92966000Y-31192000D01*
X93166000Y-31392000D01*
G36*
X93166000Y-31392000D02*
G01*
X93166000Y-31992000D01*
X92666000Y-31692000D01*
X92366000Y-31192000D01*
X92966000Y-31192000D01*
X93166000Y-31392000D01*
G37*
X93166000Y-30592000D02*
X92966000Y-30792000D01*
X92366000Y-30792000D01*
X92666000Y-30292000D01*
X93166000Y-29992000D01*
X93166000Y-30592000D01*
G36*
X93166000Y-30592000D02*
G01*
X92966000Y-30792000D01*
X92366000Y-30792000D01*
X92666000Y-30292000D01*
X93166000Y-29992000D01*
X93166000Y-30592000D01*
G37*
X109766000Y-211092000D02*
X109266000Y-211392000D01*
X109266000Y-210792000D01*
X109466000Y-210592000D01*
X110066000Y-210592000D01*
X109766000Y-211092000D01*
G36*
X109766000Y-211092000D02*
G01*
X109266000Y-211392000D01*
X109266000Y-210792000D01*
X109466000Y-210592000D01*
X110066000Y-210592000D01*
X109766000Y-211092000D01*
G37*
X109766000Y-209692000D02*
X110066000Y-210192000D01*
X109466000Y-210192000D01*
X109266000Y-209992000D01*
X109266000Y-209392000D01*
X109766000Y-209692000D01*
G36*
X109766000Y-209692000D02*
G01*
X110066000Y-210192000D01*
X109466000Y-210192000D01*
X109266000Y-209992000D01*
X109266000Y-209392000D01*
X109766000Y-209692000D01*
G37*
X109166000Y-215992000D02*
X108666000Y-216292000D01*
X108666000Y-215692000D01*
X108866000Y-215492000D01*
X109466000Y-215492000D01*
X109166000Y-215992000D01*
G36*
X109166000Y-215992000D02*
G01*
X108666000Y-216292000D01*
X108666000Y-215692000D01*
X108866000Y-215492000D01*
X109466000Y-215492000D01*
X109166000Y-215992000D01*
G37*
X109166000Y-214592000D02*
X109466000Y-215092000D01*
X108866000Y-215092000D01*
X108666000Y-214892000D01*
X108666000Y-214292000D01*
X109166000Y-214592000D01*
G36*
X109166000Y-214592000D02*
G01*
X109466000Y-215092000D01*
X108866000Y-215092000D01*
X108666000Y-214892000D01*
X108666000Y-214292000D01*
X109166000Y-214592000D01*
G37*
X108866000Y-210792000D02*
X108866000Y-211392000D01*
X108366000Y-211092000D01*
X108066000Y-210592000D01*
X108666000Y-210592000D01*
X108866000Y-210792000D01*
G36*
X108866000Y-210792000D02*
G01*
X108866000Y-211392000D01*
X108366000Y-211092000D01*
X108066000Y-210592000D01*
X108666000Y-210592000D01*
X108866000Y-210792000D01*
G37*
X108866000Y-209992000D02*
X108666000Y-210192000D01*
X108066000Y-210192000D01*
X108366000Y-209692000D01*
X108866000Y-209392000D01*
X108866000Y-209992000D01*
G36*
X108866000Y-209992000D02*
G01*
X108666000Y-210192000D01*
X108066000Y-210192000D01*
X108366000Y-209692000D01*
X108866000Y-209392000D01*
X108866000Y-209992000D01*
G37*
X108266000Y-215692000D02*
X108266000Y-216292000D01*
X107766000Y-215992000D01*
X107466000Y-215492000D01*
X108066000Y-215492000D01*
X108266000Y-215692000D01*
G36*
X108266000Y-215692000D02*
G01*
X108266000Y-216292000D01*
X107766000Y-215992000D01*
X107466000Y-215492000D01*
X108066000Y-215492000D01*
X108266000Y-215692000D01*
G37*
X108266000Y-214892000D02*
X108066000Y-215092000D01*
X107466000Y-215092000D01*
X107766000Y-214592000D01*
X108266000Y-214292000D01*
X108266000Y-214892000D01*
G36*
X108266000Y-214892000D02*
G01*
X108066000Y-215092000D01*
X107466000Y-215092000D01*
X107766000Y-214592000D01*
X108266000Y-214292000D01*
X108266000Y-214892000D01*
G37*
X94666000Y-215992000D02*
X94166000Y-216292000D01*
X94166000Y-215692000D01*
X94366000Y-215492000D01*
X94966000Y-215492000D01*
X94666000Y-215992000D01*
G36*
X94666000Y-215992000D02*
G01*
X94166000Y-216292000D01*
X94166000Y-215692000D01*
X94366000Y-215492000D01*
X94966000Y-215492000D01*
X94666000Y-215992000D01*
G37*
X94666000Y-214592000D02*
X94966000Y-215092000D01*
X94366000Y-215092000D01*
X94166000Y-214892000D01*
X94166000Y-214292000D01*
X94666000Y-214592000D01*
G36*
X94666000Y-214592000D02*
G01*
X94966000Y-215092000D01*
X94366000Y-215092000D01*
X94166000Y-214892000D01*
X94166000Y-214292000D01*
X94666000Y-214592000D01*
G37*
X94066000Y-211092000D02*
X93566000Y-211392000D01*
X93566000Y-210792000D01*
X93766000Y-210592000D01*
X94366000Y-210592000D01*
X94066000Y-211092000D01*
G36*
X94066000Y-211092000D02*
G01*
X93566000Y-211392000D01*
X93566000Y-210792000D01*
X93766000Y-210592000D01*
X94366000Y-210592000D01*
X94066000Y-211092000D01*
G37*
X94066000Y-209692000D02*
X94366000Y-210192000D01*
X93766000Y-210192000D01*
X93566000Y-209992000D01*
X93566000Y-209392000D01*
X94066000Y-209692000D01*
G36*
X94066000Y-209692000D02*
G01*
X94366000Y-210192000D01*
X93766000Y-210192000D01*
X93566000Y-209992000D01*
X93566000Y-209392000D01*
X94066000Y-209692000D01*
G37*
X93766000Y-215692000D02*
X93766000Y-216292000D01*
X93266000Y-215992000D01*
X92966000Y-215492000D01*
X93566000Y-215492000D01*
X93766000Y-215692000D01*
G36*
X93766000Y-215692000D02*
G01*
X93766000Y-216292000D01*
X93266000Y-215992000D01*
X92966000Y-215492000D01*
X93566000Y-215492000D01*
X93766000Y-215692000D01*
G37*
X93766000Y-214892000D02*
X93566000Y-215092000D01*
X92966000Y-215092000D01*
X93266000Y-214592000D01*
X93766000Y-214292000D01*
X93766000Y-214892000D01*
G36*
X93766000Y-214892000D02*
G01*
X93566000Y-215092000D01*
X92966000Y-215092000D01*
X93266000Y-214592000D01*
X93766000Y-214292000D01*
X93766000Y-214892000D01*
G37*
X93166000Y-210792000D02*
X93166000Y-211392000D01*
X92666000Y-211092000D01*
X92366000Y-210592000D01*
X92966000Y-210592000D01*
X93166000Y-210792000D01*
G36*
X93166000Y-210792000D02*
G01*
X93166000Y-211392000D01*
X92666000Y-211092000D01*
X92366000Y-210592000D01*
X92966000Y-210592000D01*
X93166000Y-210792000D01*
G37*
X93166000Y-209992000D02*
X92966000Y-210192000D01*
X92366000Y-210192000D01*
X92666000Y-209692000D01*
X93166000Y-209392000D01*
X93166000Y-209992000D01*
G36*
X93166000Y-209992000D02*
G01*
X92966000Y-210192000D01*
X92366000Y-210192000D01*
X92666000Y-209692000D01*
X93166000Y-209392000D01*
X93166000Y-209992000D01*
G37*
X109766000Y-151292000D02*
X109266000Y-151592000D01*
X109266000Y-150992000D01*
X109466000Y-150792000D01*
X110066000Y-150792000D01*
X109766000Y-151292000D01*
G36*
X109766000Y-151292000D02*
G01*
X109266000Y-151592000D01*
X109266000Y-150992000D01*
X109466000Y-150792000D01*
X110066000Y-150792000D01*
X109766000Y-151292000D01*
G37*
X109766000Y-149892000D02*
X110066000Y-150392000D01*
X109466000Y-150392000D01*
X109266000Y-150192000D01*
X109266000Y-149592000D01*
X109766000Y-149892000D01*
G36*
X109766000Y-149892000D02*
G01*
X110066000Y-150392000D01*
X109466000Y-150392000D01*
X109266000Y-150192000D01*
X109266000Y-149592000D01*
X109766000Y-149892000D01*
G37*
X109166000Y-156192000D02*
X108666000Y-156492000D01*
X108666000Y-155892000D01*
X108866000Y-155692000D01*
X109466000Y-155692000D01*
X109166000Y-156192000D01*
G36*
X109166000Y-156192000D02*
G01*
X108666000Y-156492000D01*
X108666000Y-155892000D01*
X108866000Y-155692000D01*
X109466000Y-155692000D01*
X109166000Y-156192000D01*
G37*
X109166000Y-154792000D02*
X109466000Y-155292000D01*
X108866000Y-155292000D01*
X108666000Y-155092000D01*
X108666000Y-154492000D01*
X109166000Y-154792000D01*
G36*
X109166000Y-154792000D02*
G01*
X109466000Y-155292000D01*
X108866000Y-155292000D01*
X108666000Y-155092000D01*
X108666000Y-154492000D01*
X109166000Y-154792000D01*
G37*
X108866000Y-150992000D02*
X108866000Y-151592000D01*
X108366000Y-151292000D01*
X108066000Y-150792000D01*
X108666000Y-150792000D01*
X108866000Y-150992000D01*
G36*
X108866000Y-150992000D02*
G01*
X108866000Y-151592000D01*
X108366000Y-151292000D01*
X108066000Y-150792000D01*
X108666000Y-150792000D01*
X108866000Y-150992000D01*
G37*
X108866000Y-150192000D02*
X108666000Y-150392000D01*
X108066000Y-150392000D01*
X108366000Y-149892000D01*
X108866000Y-149592000D01*
X108866000Y-150192000D01*
G36*
X108866000Y-150192000D02*
G01*
X108666000Y-150392000D01*
X108066000Y-150392000D01*
X108366000Y-149892000D01*
X108866000Y-149592000D01*
X108866000Y-150192000D01*
G37*
X108266000Y-155892000D02*
X108266000Y-156492000D01*
X107766000Y-156192000D01*
X107466000Y-155692000D01*
X108066000Y-155692000D01*
X108266000Y-155892000D01*
G36*
X108266000Y-155892000D02*
G01*
X108266000Y-156492000D01*
X107766000Y-156192000D01*
X107466000Y-155692000D01*
X108066000Y-155692000D01*
X108266000Y-155892000D01*
G37*
X108266000Y-155092000D02*
X108066000Y-155292000D01*
X107466000Y-155292000D01*
X107766000Y-154792000D01*
X108266000Y-154492000D01*
X108266000Y-155092000D01*
G36*
X108266000Y-155092000D02*
G01*
X108066000Y-155292000D01*
X107466000Y-155292000D01*
X107766000Y-154792000D01*
X108266000Y-154492000D01*
X108266000Y-155092000D01*
G37*
X94666000Y-156192000D02*
X94166000Y-156492000D01*
X94166000Y-155892000D01*
X94366000Y-155692000D01*
X94966000Y-155692000D01*
X94666000Y-156192000D01*
G36*
X94666000Y-156192000D02*
G01*
X94166000Y-156492000D01*
X94166000Y-155892000D01*
X94366000Y-155692000D01*
X94966000Y-155692000D01*
X94666000Y-156192000D01*
G37*
X94666000Y-154792000D02*
X94966000Y-155292000D01*
X94366000Y-155292000D01*
X94166000Y-155092000D01*
X94166000Y-154492000D01*
X94666000Y-154792000D01*
G36*
X94666000Y-154792000D02*
G01*
X94966000Y-155292000D01*
X94366000Y-155292000D01*
X94166000Y-155092000D01*
X94166000Y-154492000D01*
X94666000Y-154792000D01*
G37*
X94066000Y-151292000D02*
X93566000Y-151592000D01*
X93566000Y-150992000D01*
X93766000Y-150792000D01*
X94366000Y-150792000D01*
X94066000Y-151292000D01*
G36*
X94066000Y-151292000D02*
G01*
X93566000Y-151592000D01*
X93566000Y-150992000D01*
X93766000Y-150792000D01*
X94366000Y-150792000D01*
X94066000Y-151292000D01*
G37*
X94066000Y-149892000D02*
X94366000Y-150392000D01*
X93766000Y-150392000D01*
X93566000Y-150192000D01*
X93566000Y-149592000D01*
X94066000Y-149892000D01*
G36*
X94066000Y-149892000D02*
G01*
X94366000Y-150392000D01*
X93766000Y-150392000D01*
X93566000Y-150192000D01*
X93566000Y-149592000D01*
X94066000Y-149892000D01*
G37*
X93766000Y-155892000D02*
X93766000Y-156492000D01*
X93266000Y-156192000D01*
X92966000Y-155692000D01*
X93566000Y-155692000D01*
X93766000Y-155892000D01*
G36*
X93766000Y-155892000D02*
G01*
X93766000Y-156492000D01*
X93266000Y-156192000D01*
X92966000Y-155692000D01*
X93566000Y-155692000D01*
X93766000Y-155892000D01*
G37*
X93766000Y-155092000D02*
X93566000Y-155292000D01*
X92966000Y-155292000D01*
X93266000Y-154792000D01*
X93766000Y-154492000D01*
X93766000Y-155092000D01*
G36*
X93766000Y-155092000D02*
G01*
X93566000Y-155292000D01*
X92966000Y-155292000D01*
X93266000Y-154792000D01*
X93766000Y-154492000D01*
X93766000Y-155092000D01*
G37*
X93166000Y-150992000D02*
X93166000Y-151592000D01*
X92666000Y-151292000D01*
X92366000Y-150792000D01*
X92966000Y-150792000D01*
X93166000Y-150992000D01*
G36*
X93166000Y-150992000D02*
G01*
X93166000Y-151592000D01*
X92666000Y-151292000D01*
X92366000Y-150792000D01*
X92966000Y-150792000D01*
X93166000Y-150992000D01*
G37*
X93166000Y-150192000D02*
X92966000Y-150392000D01*
X92366000Y-150392000D01*
X92666000Y-149892000D01*
X93166000Y-149592000D01*
X93166000Y-150192000D01*
G36*
X93166000Y-150192000D02*
G01*
X92966000Y-150392000D01*
X92366000Y-150392000D01*
X92666000Y-149892000D01*
X93166000Y-149592000D01*
X93166000Y-150192000D01*
G37*
X109766000Y-91492000D02*
X109266000Y-91792000D01*
X109266000Y-91192000D01*
X109466000Y-90992000D01*
X110066000Y-90992000D01*
X109766000Y-91492000D01*
G36*
X109766000Y-91492000D02*
G01*
X109266000Y-91792000D01*
X109266000Y-91192000D01*
X109466000Y-90992000D01*
X110066000Y-90992000D01*
X109766000Y-91492000D01*
G37*
X109766000Y-90092000D02*
X110066000Y-90592000D01*
X109466000Y-90592000D01*
X109266000Y-90392000D01*
X109266000Y-89792000D01*
X109766000Y-90092000D01*
G36*
X109766000Y-90092000D02*
G01*
X110066000Y-90592000D01*
X109466000Y-90592000D01*
X109266000Y-90392000D01*
X109266000Y-89792000D01*
X109766000Y-90092000D01*
G37*
X109166000Y-96392000D02*
X108666000Y-96692000D01*
X108666000Y-96092000D01*
X108866000Y-95892000D01*
X109466000Y-95892000D01*
X109166000Y-96392000D01*
G36*
X109166000Y-96392000D02*
G01*
X108666000Y-96692000D01*
X108666000Y-96092000D01*
X108866000Y-95892000D01*
X109466000Y-95892000D01*
X109166000Y-96392000D01*
G37*
X109166000Y-94992000D02*
X109466000Y-95492000D01*
X108866000Y-95492000D01*
X108666000Y-95292000D01*
X108666000Y-94692000D01*
X109166000Y-94992000D01*
G36*
X109166000Y-94992000D02*
G01*
X109466000Y-95492000D01*
X108866000Y-95492000D01*
X108666000Y-95292000D01*
X108666000Y-94692000D01*
X109166000Y-94992000D01*
G37*
X108866000Y-91192000D02*
X108866000Y-91792000D01*
X108366000Y-91492000D01*
X108066000Y-90992000D01*
X108666000Y-90992000D01*
X108866000Y-91192000D01*
G36*
X108866000Y-91192000D02*
G01*
X108866000Y-91792000D01*
X108366000Y-91492000D01*
X108066000Y-90992000D01*
X108666000Y-90992000D01*
X108866000Y-91192000D01*
G37*
X108866000Y-90392000D02*
X108666000Y-90592000D01*
X108066000Y-90592000D01*
X108366000Y-90092000D01*
X108866000Y-89792000D01*
X108866000Y-90392000D01*
G36*
X108866000Y-90392000D02*
G01*
X108666000Y-90592000D01*
X108066000Y-90592000D01*
X108366000Y-90092000D01*
X108866000Y-89792000D01*
X108866000Y-90392000D01*
G37*
X108266000Y-96092000D02*
X108266000Y-96692000D01*
X107766000Y-96392000D01*
X107466000Y-95892000D01*
X108066000Y-95892000D01*
X108266000Y-96092000D01*
G36*
X108266000Y-96092000D02*
G01*
X108266000Y-96692000D01*
X107766000Y-96392000D01*
X107466000Y-95892000D01*
X108066000Y-95892000D01*
X108266000Y-96092000D01*
G37*
X108266000Y-95292000D02*
X108066000Y-95492000D01*
X107466000Y-95492000D01*
X107766000Y-94992000D01*
X108266000Y-94692000D01*
X108266000Y-95292000D01*
G36*
X108266000Y-95292000D02*
G01*
X108066000Y-95492000D01*
X107466000Y-95492000D01*
X107766000Y-94992000D01*
X108266000Y-94692000D01*
X108266000Y-95292000D01*
G37*
X94666000Y-96392000D02*
X94166000Y-96692000D01*
X94166000Y-96092000D01*
X94366000Y-95892000D01*
X94966000Y-95892000D01*
X94666000Y-96392000D01*
G36*
X94666000Y-96392000D02*
G01*
X94166000Y-96692000D01*
X94166000Y-96092000D01*
X94366000Y-95892000D01*
X94966000Y-95892000D01*
X94666000Y-96392000D01*
G37*
X94666000Y-94992000D02*
X94966000Y-95492000D01*
X94366000Y-95492000D01*
X94166000Y-95292000D01*
X94166000Y-94692000D01*
X94666000Y-94992000D01*
G36*
X94666000Y-94992000D02*
G01*
X94966000Y-95492000D01*
X94366000Y-95492000D01*
X94166000Y-95292000D01*
X94166000Y-94692000D01*
X94666000Y-94992000D01*
G37*
X94066000Y-91492000D02*
X93566000Y-91792000D01*
X93566000Y-91192000D01*
X93766000Y-90992000D01*
X94366000Y-90992000D01*
X94066000Y-91492000D01*
G36*
X94066000Y-91492000D02*
G01*
X93566000Y-91792000D01*
X93566000Y-91192000D01*
X93766000Y-90992000D01*
X94366000Y-90992000D01*
X94066000Y-91492000D01*
G37*
X94066000Y-90092000D02*
X94366000Y-90592000D01*
X93766000Y-90592000D01*
X93566000Y-90392000D01*
X93566000Y-89792000D01*
X94066000Y-90092000D01*
G36*
X94066000Y-90092000D02*
G01*
X94366000Y-90592000D01*
X93766000Y-90592000D01*
X93566000Y-90392000D01*
X93566000Y-89792000D01*
X94066000Y-90092000D01*
G37*
X93766000Y-96092000D02*
X93766000Y-96692000D01*
X93266000Y-96392000D01*
X92966000Y-95892000D01*
X93566000Y-95892000D01*
X93766000Y-96092000D01*
G36*
X93766000Y-96092000D02*
G01*
X93766000Y-96692000D01*
X93266000Y-96392000D01*
X92966000Y-95892000D01*
X93566000Y-95892000D01*
X93766000Y-96092000D01*
G37*
X93766000Y-95292000D02*
X93566000Y-95492000D01*
X92966000Y-95492000D01*
X93266000Y-94992000D01*
X93766000Y-94692000D01*
X93766000Y-95292000D01*
G36*
X93766000Y-95292000D02*
G01*
X93566000Y-95492000D01*
X92966000Y-95492000D01*
X93266000Y-94992000D01*
X93766000Y-94692000D01*
X93766000Y-95292000D01*
G37*
X93166000Y-91192000D02*
X93166000Y-91792000D01*
X92666000Y-91492000D01*
X92366000Y-90992000D01*
X92966000Y-90992000D01*
X93166000Y-91192000D01*
G36*
X93166000Y-91192000D02*
G01*
X93166000Y-91792000D01*
X92666000Y-91492000D01*
X92366000Y-90992000D01*
X92966000Y-90992000D01*
X93166000Y-91192000D01*
G37*
X93166000Y-90392000D02*
X92966000Y-90592000D01*
X92366000Y-90592000D01*
X92666000Y-90092000D01*
X93166000Y-89792000D01*
X93166000Y-90392000D01*
G36*
X93166000Y-90392000D02*
G01*
X92966000Y-90592000D01*
X92366000Y-90592000D01*
X92666000Y-90092000D01*
X93166000Y-89792000D01*
X93166000Y-90392000D01*
G37*
X212746000Y-31692000D02*
X212246000Y-31992000D01*
X212246000Y-31392000D01*
X212446000Y-31192000D01*
X213046000Y-31192000D01*
X212746000Y-31692000D01*
G36*
X212746000Y-31692000D02*
G01*
X212246000Y-31992000D01*
X212246000Y-31392000D01*
X212446000Y-31192000D01*
X213046000Y-31192000D01*
X212746000Y-31692000D01*
G37*
X212746000Y-30292000D02*
X213046000Y-30792000D01*
X212446000Y-30792000D01*
X212246000Y-30592000D01*
X212246000Y-29992000D01*
X212746000Y-30292000D01*
G36*
X212746000Y-30292000D02*
G01*
X213046000Y-30792000D01*
X212446000Y-30792000D01*
X212246000Y-30592000D01*
X212246000Y-29992000D01*
X212746000Y-30292000D01*
G37*
X212146000Y-36592000D02*
X211646000Y-36892000D01*
X211646000Y-36292000D01*
X211846000Y-36092000D01*
X212446000Y-36092000D01*
X212146000Y-36592000D01*
G36*
X212146000Y-36592000D02*
G01*
X211646000Y-36892000D01*
X211646000Y-36292000D01*
X211846000Y-36092000D01*
X212446000Y-36092000D01*
X212146000Y-36592000D01*
G37*
X212146000Y-35192000D02*
X212446000Y-35692000D01*
X211846000Y-35692000D01*
X211646000Y-35492000D01*
X211646000Y-34892000D01*
X212146000Y-35192000D01*
G36*
X212146000Y-35192000D02*
G01*
X212446000Y-35692000D01*
X211846000Y-35692000D01*
X211646000Y-35492000D01*
X211646000Y-34892000D01*
X212146000Y-35192000D01*
G37*
X211846000Y-31392000D02*
X211846000Y-31992000D01*
X211346000Y-31692000D01*
X211046000Y-31192000D01*
X211646000Y-31192000D01*
X211846000Y-31392000D01*
G36*
X211846000Y-31392000D02*
G01*
X211846000Y-31992000D01*
X211346000Y-31692000D01*
X211046000Y-31192000D01*
X211646000Y-31192000D01*
X211846000Y-31392000D01*
G37*
X211846000Y-30592000D02*
X211646000Y-30792000D01*
X211046000Y-30792000D01*
X211346000Y-30292000D01*
X211846000Y-29992000D01*
X211846000Y-30592000D01*
G36*
X211846000Y-30592000D02*
G01*
X211646000Y-30792000D01*
X211046000Y-30792000D01*
X211346000Y-30292000D01*
X211846000Y-29992000D01*
X211846000Y-30592000D01*
G37*
X211246000Y-36292000D02*
X211246000Y-36892000D01*
X210746000Y-36592000D01*
X210446000Y-36092000D01*
X211046000Y-36092000D01*
X211246000Y-36292000D01*
G36*
X211246000Y-36292000D02*
G01*
X211246000Y-36892000D01*
X210746000Y-36592000D01*
X210446000Y-36092000D01*
X211046000Y-36092000D01*
X211246000Y-36292000D01*
G37*
X211246000Y-35492000D02*
X211046000Y-35692000D01*
X210446000Y-35692000D01*
X210746000Y-35192000D01*
X211246000Y-34892000D01*
X211246000Y-35492000D01*
G36*
X211246000Y-35492000D02*
G01*
X211046000Y-35692000D01*
X210446000Y-35692000D01*
X210746000Y-35192000D01*
X211246000Y-34892000D01*
X211246000Y-35492000D01*
G37*
X197646000Y-36592000D02*
X197146000Y-36892000D01*
X197146000Y-36292000D01*
X197346000Y-36092000D01*
X197946000Y-36092000D01*
X197646000Y-36592000D01*
G36*
X197646000Y-36592000D02*
G01*
X197146000Y-36892000D01*
X197146000Y-36292000D01*
X197346000Y-36092000D01*
X197946000Y-36092000D01*
X197646000Y-36592000D01*
G37*
X197646000Y-35192000D02*
X197946000Y-35692000D01*
X197346000Y-35692000D01*
X197146000Y-35492000D01*
X197146000Y-34892000D01*
X197646000Y-35192000D01*
G36*
X197646000Y-35192000D02*
G01*
X197946000Y-35692000D01*
X197346000Y-35692000D01*
X197146000Y-35492000D01*
X197146000Y-34892000D01*
X197646000Y-35192000D01*
G37*
X197046000Y-31692000D02*
X196546000Y-31992000D01*
X196546000Y-31392000D01*
X196746000Y-31192000D01*
X197346000Y-31192000D01*
X197046000Y-31692000D01*
G36*
X197046000Y-31692000D02*
G01*
X196546000Y-31992000D01*
X196546000Y-31392000D01*
X196746000Y-31192000D01*
X197346000Y-31192000D01*
X197046000Y-31692000D01*
G37*
X197046000Y-30292000D02*
X197346000Y-30792000D01*
X196746000Y-30792000D01*
X196546000Y-30592000D01*
X196546000Y-29992000D01*
X197046000Y-30292000D01*
G36*
X197046000Y-30292000D02*
G01*
X197346000Y-30792000D01*
X196746000Y-30792000D01*
X196546000Y-30592000D01*
X196546000Y-29992000D01*
X197046000Y-30292000D01*
G37*
X196746000Y-36292000D02*
X196746000Y-36892000D01*
X196246000Y-36592000D01*
X195946000Y-36092000D01*
X196546000Y-36092000D01*
X196746000Y-36292000D01*
G36*
X196746000Y-36292000D02*
G01*
X196746000Y-36892000D01*
X196246000Y-36592000D01*
X195946000Y-36092000D01*
X196546000Y-36092000D01*
X196746000Y-36292000D01*
G37*
X196746000Y-35492000D02*
X196546000Y-35692000D01*
X195946000Y-35692000D01*
X196246000Y-35192000D01*
X196746000Y-34892000D01*
X196746000Y-35492000D01*
G36*
X196746000Y-35492000D02*
G01*
X196546000Y-35692000D01*
X195946000Y-35692000D01*
X196246000Y-35192000D01*
X196746000Y-34892000D01*
X196746000Y-35492000D01*
G37*
X196146000Y-31392000D02*
X196146000Y-31992000D01*
X195646000Y-31692000D01*
X195346000Y-31192000D01*
X195946000Y-31192000D01*
X196146000Y-31392000D01*
G36*
X196146000Y-31392000D02*
G01*
X196146000Y-31992000D01*
X195646000Y-31692000D01*
X195346000Y-31192000D01*
X195946000Y-31192000D01*
X196146000Y-31392000D01*
G37*
X196146000Y-30592000D02*
X195946000Y-30792000D01*
X195346000Y-30792000D01*
X195646000Y-30292000D01*
X196146000Y-29992000D01*
X196146000Y-30592000D01*
G36*
X196146000Y-30592000D02*
G01*
X195946000Y-30792000D01*
X195346000Y-30792000D01*
X195646000Y-30292000D01*
X196146000Y-29992000D01*
X196146000Y-30592000D01*
G37*
X212746000Y-91492000D02*
X212246000Y-91792000D01*
X212246000Y-91192000D01*
X212446000Y-90992000D01*
X213046000Y-90992000D01*
X212746000Y-91492000D01*
G36*
X212746000Y-91492000D02*
G01*
X212246000Y-91792000D01*
X212246000Y-91192000D01*
X212446000Y-90992000D01*
X213046000Y-90992000D01*
X212746000Y-91492000D01*
G37*
X212746000Y-90092000D02*
X213046000Y-90592000D01*
X212446000Y-90592000D01*
X212246000Y-90392000D01*
X212246000Y-89792000D01*
X212746000Y-90092000D01*
G36*
X212746000Y-90092000D02*
G01*
X213046000Y-90592000D01*
X212446000Y-90592000D01*
X212246000Y-90392000D01*
X212246000Y-89792000D01*
X212746000Y-90092000D01*
G37*
X212146000Y-96392000D02*
X211646000Y-96692000D01*
X211646000Y-96092000D01*
X211846000Y-95892000D01*
X212446000Y-95892000D01*
X212146000Y-96392000D01*
G36*
X212146000Y-96392000D02*
G01*
X211646000Y-96692000D01*
X211646000Y-96092000D01*
X211846000Y-95892000D01*
X212446000Y-95892000D01*
X212146000Y-96392000D01*
G37*
X212146000Y-94992000D02*
X212446000Y-95492000D01*
X211846000Y-95492000D01*
X211646000Y-95292000D01*
X211646000Y-94692000D01*
X212146000Y-94992000D01*
G36*
X212146000Y-94992000D02*
G01*
X212446000Y-95492000D01*
X211846000Y-95492000D01*
X211646000Y-95292000D01*
X211646000Y-94692000D01*
X212146000Y-94992000D01*
G37*
X211846000Y-91192000D02*
X211846000Y-91792000D01*
X211346000Y-91492000D01*
X211046000Y-90992000D01*
X211646000Y-90992000D01*
X211846000Y-91192000D01*
G36*
X211846000Y-91192000D02*
G01*
X211846000Y-91792000D01*
X211346000Y-91492000D01*
X211046000Y-90992000D01*
X211646000Y-90992000D01*
X211846000Y-91192000D01*
G37*
X211846000Y-90392000D02*
X211646000Y-90592000D01*
X211046000Y-90592000D01*
X211346000Y-90092000D01*
X211846000Y-89792000D01*
X211846000Y-90392000D01*
G36*
X211846000Y-90392000D02*
G01*
X211646000Y-90592000D01*
X211046000Y-90592000D01*
X211346000Y-90092000D01*
X211846000Y-89792000D01*
X211846000Y-90392000D01*
G37*
X211246000Y-96092000D02*
X211246000Y-96692000D01*
X210746000Y-96392000D01*
X210446000Y-95892000D01*
X211046000Y-95892000D01*
X211246000Y-96092000D01*
G36*
X211246000Y-96092000D02*
G01*
X211246000Y-96692000D01*
X210746000Y-96392000D01*
X210446000Y-95892000D01*
X211046000Y-95892000D01*
X211246000Y-96092000D01*
G37*
X211246000Y-95292000D02*
X211046000Y-95492000D01*
X210446000Y-95492000D01*
X210746000Y-94992000D01*
X211246000Y-94692000D01*
X211246000Y-95292000D01*
G36*
X211246000Y-95292000D02*
G01*
X211046000Y-95492000D01*
X210446000Y-95492000D01*
X210746000Y-94992000D01*
X211246000Y-94692000D01*
X211246000Y-95292000D01*
G37*
X197646000Y-96392000D02*
X197146000Y-96692000D01*
X197146000Y-96092000D01*
X197346000Y-95892000D01*
X197946000Y-95892000D01*
X197646000Y-96392000D01*
G36*
X197646000Y-96392000D02*
G01*
X197146000Y-96692000D01*
X197146000Y-96092000D01*
X197346000Y-95892000D01*
X197946000Y-95892000D01*
X197646000Y-96392000D01*
G37*
X197646000Y-94992000D02*
X197946000Y-95492000D01*
X197346000Y-95492000D01*
X197146000Y-95292000D01*
X197146000Y-94692000D01*
X197646000Y-94992000D01*
G36*
X197646000Y-94992000D02*
G01*
X197946000Y-95492000D01*
X197346000Y-95492000D01*
X197146000Y-95292000D01*
X197146000Y-94692000D01*
X197646000Y-94992000D01*
G37*
X197046000Y-91492000D02*
X196546000Y-91792000D01*
X196546000Y-91192000D01*
X196746000Y-90992000D01*
X197346000Y-90992000D01*
X197046000Y-91492000D01*
G36*
X197046000Y-91492000D02*
G01*
X196546000Y-91792000D01*
X196546000Y-91192000D01*
X196746000Y-90992000D01*
X197346000Y-90992000D01*
X197046000Y-91492000D01*
G37*
X197046000Y-90092000D02*
X197346000Y-90592000D01*
X196746000Y-90592000D01*
X196546000Y-90392000D01*
X196546000Y-89792000D01*
X197046000Y-90092000D01*
G36*
X197046000Y-90092000D02*
G01*
X197346000Y-90592000D01*
X196746000Y-90592000D01*
X196546000Y-90392000D01*
X196546000Y-89792000D01*
X197046000Y-90092000D01*
G37*
X196746000Y-96092000D02*
X196746000Y-96692000D01*
X196246000Y-96392000D01*
X195946000Y-95892000D01*
X196546000Y-95892000D01*
X196746000Y-96092000D01*
G36*
X196746000Y-96092000D02*
G01*
X196746000Y-96692000D01*
X196246000Y-96392000D01*
X195946000Y-95892000D01*
X196546000Y-95892000D01*
X196746000Y-96092000D01*
G37*
X196746000Y-95292000D02*
X196546000Y-95492000D01*
X195946000Y-95492000D01*
X196246000Y-94992000D01*
X196746000Y-94692000D01*
X196746000Y-95292000D01*
G36*
X196746000Y-95292000D02*
G01*
X196546000Y-95492000D01*
X195946000Y-95492000D01*
X196246000Y-94992000D01*
X196746000Y-94692000D01*
X196746000Y-95292000D01*
G37*
X196146000Y-91192000D02*
X196146000Y-91792000D01*
X195646000Y-91492000D01*
X195346000Y-90992000D01*
X195946000Y-90992000D01*
X196146000Y-91192000D01*
G36*
X196146000Y-91192000D02*
G01*
X196146000Y-91792000D01*
X195646000Y-91492000D01*
X195346000Y-90992000D01*
X195946000Y-90992000D01*
X196146000Y-91192000D01*
G37*
X196146000Y-90392000D02*
X195946000Y-90592000D01*
X195346000Y-90592000D01*
X195646000Y-90092000D01*
X196146000Y-89792000D01*
X196146000Y-90392000D01*
G36*
X196146000Y-90392000D02*
G01*
X195946000Y-90592000D01*
X195346000Y-90592000D01*
X195646000Y-90092000D01*
X196146000Y-89792000D01*
X196146000Y-90392000D01*
G37*
D11*
X57470000Y-113490000D03*
X65430000Y-113490000D03*
X57470000Y-117990000D03*
X65430000Y-117990000D03*
D12*
X89199500Y-215546000D03*
X91134500Y-215546000D03*
D11*
X68900000Y-53690000D03*
X76860000Y-53690000D03*
X68900000Y-58190000D03*
X76860000Y-58190000D03*
X112080000Y-63850000D03*
X120040000Y-63850000D03*
X112080000Y-68350000D03*
X120040000Y-68350000D03*
D13*
X189700000Y-252417500D03*
X189700000Y-250542500D03*
D14*
X74150000Y-169469500D03*
X74150000Y-167894500D03*
D15*
X172080000Y-211980000D03*
X171430000Y-211980000D03*
X170780000Y-211980000D03*
X170130000Y-211980000D03*
X169480000Y-211980000D03*
D16*
X174580000Y-209305000D03*
D17*
X173880000Y-211855000D03*
D18*
X171980000Y-209305000D03*
X169580000Y-209305000D03*
D17*
X167680000Y-211855000D03*
D16*
X166980000Y-209305000D03*
D13*
X86720000Y-73017500D03*
X86720000Y-71142500D03*
D12*
X89199500Y-95946000D03*
X91134500Y-95946000D03*
D14*
X98915000Y-162738500D03*
X98915000Y-161163500D03*
D11*
X57470000Y-53690000D03*
X65430000Y-53690000D03*
X57470000Y-58190000D03*
X65430000Y-58190000D03*
D14*
X101709000Y-162738500D03*
X101709000Y-161163500D03*
D19*
X164445000Y-224641500D03*
X164445000Y-226516500D03*
D11*
X120040000Y-256640000D03*
X112080000Y-256640000D03*
X120040000Y-252140000D03*
X112080000Y-252140000D03*
D13*
X86720000Y-192617500D03*
X86720000Y-190742500D03*
D11*
X131470000Y-196840000D03*
X123510000Y-196840000D03*
X131470000Y-192340000D03*
X123510000Y-192340000D03*
D20*
X199446000Y-216292000D03*
X199946000Y-216292000D03*
X200446000Y-216292000D03*
X200946000Y-216292000D03*
X201446000Y-216292000D03*
X201946000Y-216292000D03*
X202446000Y-216292000D03*
X202946000Y-216292000D03*
X203446000Y-216292000D03*
X203946000Y-216292000D03*
X204446000Y-216292000D03*
X204946000Y-216292000D03*
X205446000Y-216292000D03*
X205946000Y-216292000D03*
X206446000Y-216292000D03*
X206946000Y-216292000D03*
X207446000Y-216292000D03*
X207946000Y-216292000D03*
X208446000Y-216292000D03*
D11*
X112080000Y-243250000D03*
X120040000Y-243250000D03*
X112080000Y-247750000D03*
X120040000Y-247750000D03*
X211590000Y-137040000D03*
X203630000Y-137040000D03*
X211590000Y-132540000D03*
X203630000Y-132540000D03*
D19*
X76690000Y-105041500D03*
X76690000Y-106916500D03*
D12*
X89199500Y-36146000D03*
X91134500Y-36146000D03*
D21*
X210658000Y-162776000D03*
X210658000Y-161126000D03*
D12*
X85516500Y-155746000D03*
X87451500Y-155746000D03*
D14*
X199101000Y-43138500D03*
X199101000Y-41563500D03*
X128887000Y-184074500D03*
X128887000Y-182499500D03*
D22*
X81720000Y-194092500D03*
X81720000Y-195667500D03*
D12*
X192179500Y-155746000D03*
X194114500Y-155746000D03*
D11*
X234450000Y-102750000D03*
X226490000Y-102750000D03*
X234450000Y-98250000D03*
X226490000Y-98250000D03*
D14*
X97518000Y-222538500D03*
X97518000Y-220963500D03*
X101709000Y-43138500D03*
X101709000Y-41563500D03*
D22*
X128887000Y-69122500D03*
X128887000Y-70697500D03*
D11*
X131470000Y-162550000D03*
X123510000Y-162550000D03*
X131470000Y-158050000D03*
X123510000Y-158050000D03*
D23*
X64132000Y-96540000D03*
X59052000Y-96540000D03*
X59052000Y-100940000D03*
X64132000Y-100940000D03*
D14*
X69070000Y-49869500D03*
X69070000Y-48294500D03*
D22*
X84220000Y-194092500D03*
X84220000Y-195667500D03*
X128887000Y-188722500D03*
X128887000Y-190297500D03*
D11*
X160450000Y-113490000D03*
X168410000Y-113490000D03*
X160450000Y-117990000D03*
X168410000Y-117990000D03*
D22*
X128887000Y-248522500D03*
X128887000Y-250097500D03*
D19*
X184700000Y-190742500D03*
X184700000Y-192617500D03*
D15*
X69100000Y-92380000D03*
X68450000Y-92380000D03*
X67800000Y-92380000D03*
X67150000Y-92380000D03*
X66500000Y-92380000D03*
D16*
X71600000Y-89705000D03*
D17*
X70900000Y-92255000D03*
D18*
X69000000Y-89705000D03*
X66600000Y-89705000D03*
D17*
X64700000Y-92255000D03*
D16*
X64000000Y-89705000D03*
D11*
X120040000Y-196840000D03*
X112080000Y-196840000D03*
X120040000Y-192340000D03*
X112080000Y-192340000D03*
D14*
X58910000Y-229269500D03*
X58910000Y-227694500D03*
X128887000Y-124274500D03*
X128887000Y-122699500D03*
D13*
X84220000Y-252417500D03*
X84220000Y-250542500D03*
D24*
X87600000Y-46780000D03*
X88400000Y-46780000D03*
X89200000Y-46780000D03*
X90000000Y-46780000D03*
X90800000Y-46780000D03*
X91600000Y-46780000D03*
X92400000Y-46780000D03*
X93200000Y-46780000D03*
X94000000Y-46780000D03*
X94800000Y-46780000D03*
X95600000Y-46780000D03*
X96400000Y-46780000D03*
X97200000Y-46780000D03*
X98000000Y-46780000D03*
X98800000Y-46780000D03*
X99600000Y-46780000D03*
X100400000Y-46780000D03*
X101200000Y-46780000D03*
X86800000Y-47580000D03*
X87600000Y-47580000D03*
X88400000Y-47580000D03*
X89200000Y-47580000D03*
X90000000Y-47580000D03*
X90800000Y-47580000D03*
X91600000Y-47580000D03*
X92400000Y-47580000D03*
X93200000Y-47580000D03*
X94000000Y-47580000D03*
X94800000Y-47580000D03*
X95600000Y-47580000D03*
X96400000Y-47580000D03*
X97200000Y-47580000D03*
X98000000Y-47580000D03*
X98800000Y-47580000D03*
X99600000Y-47580000D03*
X100400000Y-47580000D03*
X101200000Y-47580000D03*
X102000000Y-47580000D03*
X86800000Y-48380000D03*
X87600000Y-48380000D03*
X88400000Y-48380000D03*
X89200000Y-48380000D03*
X90000000Y-48380000D03*
X90800000Y-48380000D03*
X91600000Y-48380000D03*
X92400000Y-48380000D03*
X93200000Y-48380000D03*
X94000000Y-48380000D03*
X94800000Y-48380000D03*
X95600000Y-48380000D03*
X96400000Y-48380000D03*
X97200000Y-48380000D03*
X98000000Y-48380000D03*
X98800000Y-48380000D03*
X99600000Y-48380000D03*
X100400000Y-48380000D03*
X101200000Y-48380000D03*
X102000000Y-48380000D03*
X86800000Y-49180000D03*
X87600000Y-49180000D03*
X88400000Y-49180000D03*
X89200000Y-49180000D03*
X90000000Y-49180000D03*
X90800000Y-49180000D03*
X91600000Y-49180000D03*
X92400000Y-49180000D03*
X93200000Y-49180000D03*
X94000000Y-49180000D03*
X94800000Y-49180000D03*
X95600000Y-49180000D03*
X96400000Y-49180000D03*
X97200000Y-49180000D03*
X98000000Y-49180000D03*
X98800000Y-49180000D03*
X99600000Y-49180000D03*
X100400000Y-49180000D03*
X101200000Y-49180000D03*
X102000000Y-49180000D03*
X86800000Y-49980000D03*
X87600000Y-49980000D03*
X88400000Y-49980000D03*
X89200000Y-49980000D03*
X90000000Y-49980000D03*
X90800000Y-49980000D03*
X91600000Y-49980000D03*
X92400000Y-49980000D03*
X93200000Y-49980000D03*
X94000000Y-49980000D03*
X94800000Y-49980000D03*
X95600000Y-49980000D03*
X96400000Y-49980000D03*
X97200000Y-49980000D03*
X98000000Y-49980000D03*
X98800000Y-49980000D03*
X99600000Y-49980000D03*
X100400000Y-49980000D03*
X101200000Y-49980000D03*
X102000000Y-49980000D03*
X86800000Y-50780000D03*
X87600000Y-50780000D03*
X88400000Y-50780000D03*
X89200000Y-50780000D03*
X90000000Y-50780000D03*
X90800000Y-50780000D03*
X91600000Y-50780000D03*
X92400000Y-50780000D03*
X93200000Y-50780000D03*
X94000000Y-50780000D03*
X94800000Y-50780000D03*
X95600000Y-50780000D03*
X96400000Y-50780000D03*
X97200000Y-50780000D03*
X98000000Y-50780000D03*
X98800000Y-50780000D03*
X99600000Y-50780000D03*
X100400000Y-50780000D03*
X101200000Y-50780000D03*
X102000000Y-50780000D03*
X86800000Y-51580000D03*
X87600000Y-51580000D03*
X88400000Y-51580000D03*
X89200000Y-51580000D03*
X90000000Y-51580000D03*
X90800000Y-51580000D03*
X91600000Y-51580000D03*
X92400000Y-51580000D03*
X93200000Y-51580000D03*
X94000000Y-51580000D03*
X94800000Y-51580000D03*
X95600000Y-51580000D03*
X96400000Y-51580000D03*
X97200000Y-51580000D03*
X98000000Y-51580000D03*
X98800000Y-51580000D03*
X99600000Y-51580000D03*
X100400000Y-51580000D03*
X101200000Y-51580000D03*
X102000000Y-51580000D03*
X86800000Y-52380000D03*
X87600000Y-52380000D03*
X88400000Y-52380000D03*
X89200000Y-52380000D03*
X90000000Y-52380000D03*
X90800000Y-52380000D03*
X91600000Y-52380000D03*
X92400000Y-52380000D03*
X93200000Y-52380000D03*
X94000000Y-52380000D03*
X94800000Y-52380000D03*
X95600000Y-52380000D03*
X96400000Y-52380000D03*
X97200000Y-52380000D03*
X98000000Y-52380000D03*
X98800000Y-52380000D03*
X99600000Y-52380000D03*
X100400000Y-52380000D03*
X101200000Y-52380000D03*
X102000000Y-52380000D03*
X86800000Y-53180000D03*
X87600000Y-53180000D03*
X88400000Y-53180000D03*
X89200000Y-53180000D03*
X90000000Y-53180000D03*
X90800000Y-53180000D03*
X91600000Y-53180000D03*
X92400000Y-53180000D03*
X93200000Y-53180000D03*
X94000000Y-53180000D03*
X94800000Y-53180000D03*
X95600000Y-53180000D03*
X96400000Y-53180000D03*
X97200000Y-53180000D03*
X98000000Y-53180000D03*
X98800000Y-53180000D03*
X99600000Y-53180000D03*
X100400000Y-53180000D03*
X101200000Y-53180000D03*
X102000000Y-53180000D03*
X86800000Y-53980000D03*
X87600000Y-53980000D03*
X88400000Y-53980000D03*
X89200000Y-53980000D03*
X90000000Y-53980000D03*
X90800000Y-53980000D03*
X91600000Y-53980000D03*
X92400000Y-53980000D03*
X93200000Y-53980000D03*
X94000000Y-53980000D03*
X94800000Y-53980000D03*
X95600000Y-53980000D03*
X96400000Y-53980000D03*
X97200000Y-53980000D03*
X98000000Y-53980000D03*
X98800000Y-53980000D03*
X99600000Y-53980000D03*
X100400000Y-53980000D03*
X101200000Y-53980000D03*
X102000000Y-53980000D03*
X86800000Y-54780000D03*
X87600000Y-54780000D03*
X88400000Y-54780000D03*
X89200000Y-54780000D03*
X90000000Y-54780000D03*
X90800000Y-54780000D03*
X91600000Y-54780000D03*
X92400000Y-54780000D03*
X93200000Y-54780000D03*
X94000000Y-54780000D03*
X94800000Y-54780000D03*
X95600000Y-54780000D03*
X96400000Y-54780000D03*
X97200000Y-54780000D03*
X98000000Y-54780000D03*
X98800000Y-54780000D03*
X99600000Y-54780000D03*
X100400000Y-54780000D03*
X101200000Y-54780000D03*
X102000000Y-54780000D03*
X86800000Y-55580000D03*
X87600000Y-55580000D03*
X88400000Y-55580000D03*
X89200000Y-55580000D03*
X90000000Y-55580000D03*
X90800000Y-55580000D03*
X91600000Y-55580000D03*
X92400000Y-55580000D03*
X93200000Y-55580000D03*
X94000000Y-55580000D03*
X94800000Y-55580000D03*
X95600000Y-55580000D03*
X96400000Y-55580000D03*
X97200000Y-55580000D03*
X98000000Y-55580000D03*
X98800000Y-55580000D03*
X99600000Y-55580000D03*
X100400000Y-55580000D03*
X101200000Y-55580000D03*
X102000000Y-55580000D03*
X86800000Y-56380000D03*
X87600000Y-56380000D03*
X88400000Y-56380000D03*
X89200000Y-56380000D03*
X90000000Y-56380000D03*
X90800000Y-56380000D03*
X91600000Y-56380000D03*
X92400000Y-56380000D03*
X93200000Y-56380000D03*
X94000000Y-56380000D03*
X94800000Y-56380000D03*
X95600000Y-56380000D03*
X96400000Y-56380000D03*
X97200000Y-56380000D03*
X98000000Y-56380000D03*
X98800000Y-56380000D03*
X99600000Y-56380000D03*
X100400000Y-56380000D03*
X101200000Y-56380000D03*
X102000000Y-56380000D03*
X86800000Y-57180000D03*
X87600000Y-57180000D03*
X88400000Y-57180000D03*
X89200000Y-57180000D03*
X90000000Y-57180000D03*
X90800000Y-57180000D03*
X91600000Y-57180000D03*
X92400000Y-57180000D03*
X93200000Y-57180000D03*
X94000000Y-57180000D03*
X94800000Y-57180000D03*
X95600000Y-57180000D03*
X96400000Y-57180000D03*
X97200000Y-57180000D03*
X98000000Y-57180000D03*
X98800000Y-57180000D03*
X99600000Y-57180000D03*
X100400000Y-57180000D03*
X101200000Y-57180000D03*
X102000000Y-57180000D03*
X86800000Y-57980000D03*
X87600000Y-57980000D03*
X88400000Y-57980000D03*
X89200000Y-57980000D03*
X90000000Y-57980000D03*
X98800000Y-57980000D03*
X99600000Y-57980000D03*
X100400000Y-57980000D03*
X101200000Y-57980000D03*
X102000000Y-57980000D03*
X86800000Y-58780000D03*
X87600000Y-58780000D03*
X88400000Y-58780000D03*
X89200000Y-58780000D03*
X90000000Y-58780000D03*
X90800000Y-58780000D03*
X91600000Y-58780000D03*
X92400000Y-58780000D03*
X93200000Y-58780000D03*
X94000000Y-58780000D03*
X94800000Y-58780000D03*
X95600000Y-58780000D03*
X96400000Y-58780000D03*
X97200000Y-58780000D03*
X98000000Y-58780000D03*
X98800000Y-58780000D03*
X99600000Y-58780000D03*
X100400000Y-58780000D03*
X101200000Y-58780000D03*
X102000000Y-58780000D03*
X86800000Y-59580000D03*
X87600000Y-59580000D03*
X88400000Y-59580000D03*
X89200000Y-59580000D03*
X90000000Y-59580000D03*
X90800000Y-59580000D03*
X91600000Y-59580000D03*
X92400000Y-59580000D03*
X93200000Y-59580000D03*
X94000000Y-59580000D03*
X94800000Y-59580000D03*
X95600000Y-59580000D03*
X96400000Y-59580000D03*
X97200000Y-59580000D03*
X98000000Y-59580000D03*
X98800000Y-59580000D03*
X99600000Y-59580000D03*
X100400000Y-59580000D03*
X101200000Y-59580000D03*
X102000000Y-59580000D03*
X86800000Y-60380000D03*
X87600000Y-60380000D03*
X88400000Y-60380000D03*
X89200000Y-60380000D03*
X90000000Y-60380000D03*
X90800000Y-60380000D03*
X91600000Y-60380000D03*
X92400000Y-60380000D03*
X93200000Y-60380000D03*
X94000000Y-60380000D03*
X94800000Y-60380000D03*
X95600000Y-60380000D03*
X96400000Y-60380000D03*
X97200000Y-60380000D03*
X98000000Y-60380000D03*
X98800000Y-60380000D03*
X99600000Y-60380000D03*
X100400000Y-60380000D03*
X101200000Y-60380000D03*
X102000000Y-60380000D03*
X86800000Y-61180000D03*
X87600000Y-61180000D03*
X88400000Y-61180000D03*
X89200000Y-61180000D03*
X90000000Y-61180000D03*
X90800000Y-61180000D03*
X91600000Y-61180000D03*
X92400000Y-61180000D03*
X93200000Y-61180000D03*
X94000000Y-61180000D03*
X94800000Y-61180000D03*
X95600000Y-61180000D03*
X96400000Y-61180000D03*
X97200000Y-61180000D03*
X98000000Y-61180000D03*
X98800000Y-61180000D03*
X99600000Y-61180000D03*
X100400000Y-61180000D03*
X101200000Y-61180000D03*
X102000000Y-61180000D03*
X87600000Y-61980000D03*
X88400000Y-61980000D03*
X90000000Y-61980000D03*
X90800000Y-61980000D03*
X91600000Y-61980000D03*
X92400000Y-61980000D03*
X94800000Y-61980000D03*
X95600000Y-61980000D03*
X97200000Y-61980000D03*
X98000000Y-61980000D03*
X98800000Y-61980000D03*
X99600000Y-61980000D03*
X101200000Y-61980000D03*
X190580000Y-46780000D03*
X191380000Y-46780000D03*
X192180000Y-46780000D03*
X192980000Y-46780000D03*
X193780000Y-46780000D03*
X194580000Y-46780000D03*
X195380000Y-46780000D03*
X196180000Y-46780000D03*
X196980000Y-46780000D03*
X197780000Y-46780000D03*
X198580000Y-46780000D03*
X199380000Y-46780000D03*
X200180000Y-46780000D03*
X200980000Y-46780000D03*
X201780000Y-46780000D03*
X202580000Y-46780000D03*
X203380000Y-46780000D03*
X204180000Y-46780000D03*
X189780000Y-47580000D03*
X190580000Y-47580000D03*
X191380000Y-47580000D03*
X192180000Y-47580000D03*
X192980000Y-47580000D03*
X193780000Y-47580000D03*
X194580000Y-47580000D03*
X195380000Y-47580000D03*
X196180000Y-47580000D03*
X196980000Y-47580000D03*
X197780000Y-47580000D03*
X198580000Y-47580000D03*
X199380000Y-47580000D03*
X200180000Y-47580000D03*
X200980000Y-47580000D03*
X201780000Y-47580000D03*
X202580000Y-47580000D03*
X203380000Y-47580000D03*
X204180000Y-47580000D03*
X204980000Y-47580000D03*
X189780000Y-48380000D03*
X190580000Y-48380000D03*
X191380000Y-48380000D03*
X192180000Y-48380000D03*
X192980000Y-48380000D03*
X193780000Y-48380000D03*
X194580000Y-48380000D03*
X195380000Y-48380000D03*
X196180000Y-48380000D03*
X196980000Y-48380000D03*
X197780000Y-48380000D03*
X198580000Y-48380000D03*
X199380000Y-48380000D03*
X200180000Y-48380000D03*
X200980000Y-48380000D03*
X201780000Y-48380000D03*
X202580000Y-48380000D03*
X203380000Y-48380000D03*
X204180000Y-48380000D03*
X204980000Y-48380000D03*
X189780000Y-49180000D03*
X190580000Y-49180000D03*
X191380000Y-49180000D03*
X192180000Y-49180000D03*
X192980000Y-49180000D03*
X193780000Y-49180000D03*
X194580000Y-49180000D03*
X195380000Y-49180000D03*
X196180000Y-49180000D03*
X196980000Y-49180000D03*
X197780000Y-49180000D03*
X198580000Y-49180000D03*
X199380000Y-49180000D03*
X200180000Y-49180000D03*
X200980000Y-49180000D03*
X201780000Y-49180000D03*
X202580000Y-49180000D03*
X203380000Y-49180000D03*
X204180000Y-49180000D03*
X204980000Y-49180000D03*
X189780000Y-49980000D03*
X190580000Y-49980000D03*
X191380000Y-49980000D03*
X192180000Y-49980000D03*
X192980000Y-49980000D03*
X193780000Y-49980000D03*
X194580000Y-49980000D03*
X195380000Y-49980000D03*
X196180000Y-49980000D03*
X196980000Y-49980000D03*
X197780000Y-49980000D03*
X198580000Y-49980000D03*
X199380000Y-49980000D03*
X200180000Y-49980000D03*
X200980000Y-49980000D03*
X201780000Y-49980000D03*
X202580000Y-49980000D03*
X203380000Y-49980000D03*
X204180000Y-49980000D03*
X204980000Y-49980000D03*
X189780000Y-50780000D03*
X190580000Y-50780000D03*
X191380000Y-50780000D03*
X192180000Y-50780000D03*
X192980000Y-50780000D03*
X193780000Y-50780000D03*
X194580000Y-50780000D03*
X195380000Y-50780000D03*
X196180000Y-50780000D03*
X196980000Y-50780000D03*
X197780000Y-50780000D03*
X198580000Y-50780000D03*
X199380000Y-50780000D03*
X200180000Y-50780000D03*
X200980000Y-50780000D03*
X201780000Y-50780000D03*
X202580000Y-50780000D03*
X203380000Y-50780000D03*
X204180000Y-50780000D03*
X204980000Y-50780000D03*
X189780000Y-51580000D03*
X190580000Y-51580000D03*
X191380000Y-51580000D03*
X192180000Y-51580000D03*
X192980000Y-51580000D03*
X193780000Y-51580000D03*
X194580000Y-51580000D03*
X195380000Y-51580000D03*
X196180000Y-51580000D03*
X196980000Y-51580000D03*
X197780000Y-51580000D03*
X198580000Y-51580000D03*
X199380000Y-51580000D03*
X200180000Y-51580000D03*
X200980000Y-51580000D03*
X201780000Y-51580000D03*
X202580000Y-51580000D03*
X203380000Y-51580000D03*
X204180000Y-51580000D03*
X204980000Y-51580000D03*
X189780000Y-52380000D03*
X190580000Y-52380000D03*
X191380000Y-52380000D03*
X192180000Y-52380000D03*
X192980000Y-52380000D03*
X193780000Y-52380000D03*
X194580000Y-52380000D03*
X195380000Y-52380000D03*
X196180000Y-52380000D03*
X196980000Y-52380000D03*
X197780000Y-52380000D03*
X198580000Y-52380000D03*
X199380000Y-52380000D03*
X200180000Y-52380000D03*
X200980000Y-52380000D03*
X201780000Y-52380000D03*
X202580000Y-52380000D03*
X203380000Y-52380000D03*
X204180000Y-52380000D03*
X204980000Y-52380000D03*
X189780000Y-53180000D03*
X190580000Y-53180000D03*
X191380000Y-53180000D03*
X192180000Y-53180000D03*
X192980000Y-53180000D03*
X193780000Y-53180000D03*
X194580000Y-53180000D03*
X195380000Y-53180000D03*
X196180000Y-53180000D03*
X196980000Y-53180000D03*
X197780000Y-53180000D03*
X198580000Y-53180000D03*
X199380000Y-53180000D03*
X200180000Y-53180000D03*
X200980000Y-53180000D03*
X201780000Y-53180000D03*
X202580000Y-53180000D03*
X203380000Y-53180000D03*
X204180000Y-53180000D03*
X204980000Y-53180000D03*
X189780000Y-53980000D03*
X190580000Y-53980000D03*
X191380000Y-53980000D03*
X192180000Y-53980000D03*
X192980000Y-53980000D03*
X193780000Y-53980000D03*
X194580000Y-53980000D03*
X195380000Y-53980000D03*
X196180000Y-53980000D03*
X196980000Y-53980000D03*
X197780000Y-53980000D03*
X198580000Y-53980000D03*
X199380000Y-53980000D03*
X200180000Y-53980000D03*
X200980000Y-53980000D03*
X201780000Y-53980000D03*
X202580000Y-53980000D03*
X203380000Y-53980000D03*
X204180000Y-53980000D03*
X204980000Y-53980000D03*
X189780000Y-54780000D03*
X190580000Y-54780000D03*
X191380000Y-54780000D03*
X192180000Y-54780000D03*
X192980000Y-54780000D03*
X193780000Y-54780000D03*
X194580000Y-54780000D03*
X195380000Y-54780000D03*
X196180000Y-54780000D03*
X196980000Y-54780000D03*
X197780000Y-54780000D03*
X198580000Y-54780000D03*
X199380000Y-54780000D03*
X200180000Y-54780000D03*
X200980000Y-54780000D03*
X201780000Y-54780000D03*
X202580000Y-54780000D03*
X203380000Y-54780000D03*
X204180000Y-54780000D03*
X204980000Y-54780000D03*
X189780000Y-55580000D03*
X190580000Y-55580000D03*
X191380000Y-55580000D03*
X192180000Y-55580000D03*
X192980000Y-55580000D03*
X193780000Y-55580000D03*
X194580000Y-55580000D03*
X195380000Y-55580000D03*
X196180000Y-55580000D03*
X196980000Y-55580000D03*
X197780000Y-55580000D03*
X198580000Y-55580000D03*
X199380000Y-55580000D03*
X200180000Y-55580000D03*
X200980000Y-55580000D03*
X201780000Y-55580000D03*
X202580000Y-55580000D03*
X203380000Y-55580000D03*
X204180000Y-55580000D03*
X204980000Y-55580000D03*
X189780000Y-56380000D03*
X190580000Y-56380000D03*
X191380000Y-56380000D03*
X192180000Y-56380000D03*
X192980000Y-56380000D03*
X193780000Y-56380000D03*
X194580000Y-56380000D03*
X195380000Y-56380000D03*
X196180000Y-56380000D03*
X196980000Y-56380000D03*
X197780000Y-56380000D03*
X198580000Y-56380000D03*
X199380000Y-56380000D03*
X200180000Y-56380000D03*
X200980000Y-56380000D03*
X201780000Y-56380000D03*
X202580000Y-56380000D03*
X203380000Y-56380000D03*
X204180000Y-56380000D03*
X204980000Y-56380000D03*
X189780000Y-57180000D03*
X190580000Y-57180000D03*
X191380000Y-57180000D03*
X192180000Y-57180000D03*
X192980000Y-57180000D03*
X193780000Y-57180000D03*
X194580000Y-57180000D03*
X195380000Y-57180000D03*
X196180000Y-57180000D03*
X196980000Y-57180000D03*
X197780000Y-57180000D03*
X198580000Y-57180000D03*
X199380000Y-57180000D03*
X200180000Y-57180000D03*
X200980000Y-57180000D03*
X201780000Y-57180000D03*
X202580000Y-57180000D03*
X203380000Y-57180000D03*
X204180000Y-57180000D03*
X204980000Y-57180000D03*
X189780000Y-57980000D03*
X190580000Y-57980000D03*
X191380000Y-57980000D03*
X192180000Y-57980000D03*
X192980000Y-57980000D03*
X201780000Y-57980000D03*
X202580000Y-57980000D03*
X203380000Y-57980000D03*
X204180000Y-57980000D03*
X204980000Y-57980000D03*
X189780000Y-58780000D03*
X190580000Y-58780000D03*
X191380000Y-58780000D03*
X192180000Y-58780000D03*
X192980000Y-58780000D03*
X193780000Y-58780000D03*
X194580000Y-58780000D03*
X195380000Y-58780000D03*
X196180000Y-58780000D03*
X196980000Y-58780000D03*
X197780000Y-58780000D03*
X198580000Y-58780000D03*
X199380000Y-58780000D03*
X200180000Y-58780000D03*
X200980000Y-58780000D03*
X201780000Y-58780000D03*
X202580000Y-58780000D03*
X203380000Y-58780000D03*
X204180000Y-58780000D03*
X204980000Y-58780000D03*
X189780000Y-59580000D03*
X190580000Y-59580000D03*
X191380000Y-59580000D03*
X192180000Y-59580000D03*
X192980000Y-59580000D03*
X193780000Y-59580000D03*
X194580000Y-59580000D03*
X195380000Y-59580000D03*
X196180000Y-59580000D03*
X196980000Y-59580000D03*
X197780000Y-59580000D03*
X198580000Y-59580000D03*
X199380000Y-59580000D03*
X200180000Y-59580000D03*
X200980000Y-59580000D03*
X201780000Y-59580000D03*
X202580000Y-59580000D03*
X203380000Y-59580000D03*
X204180000Y-59580000D03*
X204980000Y-59580000D03*
X189780000Y-60380000D03*
X190580000Y-60380000D03*
X191380000Y-60380000D03*
X192180000Y-60380000D03*
X192980000Y-60380000D03*
X193780000Y-60380000D03*
X194580000Y-60380000D03*
X195380000Y-60380000D03*
X196180000Y-60380000D03*
X196980000Y-60380000D03*
X197780000Y-60380000D03*
X198580000Y-60380000D03*
X199380000Y-60380000D03*
X200180000Y-60380000D03*
X200980000Y-60380000D03*
X201780000Y-60380000D03*
X202580000Y-60380000D03*
X203380000Y-60380000D03*
X204180000Y-60380000D03*
X204980000Y-60380000D03*
X189780000Y-61180000D03*
X190580000Y-61180000D03*
X191380000Y-61180000D03*
X192180000Y-61180000D03*
X192980000Y-61180000D03*
X193780000Y-61180000D03*
X194580000Y-61180000D03*
X195380000Y-61180000D03*
X196180000Y-61180000D03*
X196980000Y-61180000D03*
X197780000Y-61180000D03*
X198580000Y-61180000D03*
X199380000Y-61180000D03*
X200180000Y-61180000D03*
X200980000Y-61180000D03*
X201780000Y-61180000D03*
X202580000Y-61180000D03*
X203380000Y-61180000D03*
X204180000Y-61180000D03*
X204980000Y-61180000D03*
X190580000Y-61980000D03*
X191380000Y-61980000D03*
X192980000Y-61980000D03*
X193780000Y-61980000D03*
X194580000Y-61980000D03*
X195380000Y-61980000D03*
X197780000Y-61980000D03*
X198580000Y-61980000D03*
X200180000Y-61980000D03*
X200980000Y-61980000D03*
X201780000Y-61980000D03*
X202580000Y-61980000D03*
X204180000Y-61980000D03*
D11*
X211590000Y-196840000D03*
X203630000Y-196840000D03*
X211590000Y-192340000D03*
X203630000Y-192340000D03*
D19*
X161890000Y-164841500D03*
X161890000Y-166716500D03*
D14*
X174590000Y-49869500D03*
X174590000Y-48294500D03*
X169510000Y-229269500D03*
X169510000Y-227694500D03*
X86720000Y-76067500D03*
X86720000Y-74492500D03*
D19*
X81720000Y-190742500D03*
X81720000Y-192617500D03*
D25*
X74252000Y-71830000D03*
X73152000Y-71830000D03*
X72052000Y-71830000D03*
X70952000Y-71830000D03*
X69852000Y-71830000D03*
X68752000Y-71830000D03*
X67652000Y-71830000D03*
X66552000Y-71830000D03*
D26*
X76852000Y-61780000D03*
D27*
X77927000Y-76130000D03*
D28*
X64177000Y-64430000D03*
D29*
X76652000Y-71480000D03*
D30*
X65352000Y-71280000D03*
D31*
X67352000Y-60780000D03*
X73352000Y-60780000D03*
D32*
X77927000Y-74430000D03*
X64177000Y-74430000D03*
X64177000Y-66130000D03*
D33*
X76852000Y-65480000D03*
D32*
X77927000Y-66130000D03*
D22*
X231867000Y-128922500D03*
X231867000Y-130497500D03*
D19*
X172050000Y-164841500D03*
X172050000Y-166716500D03*
D13*
X189700000Y-132817500D03*
X189700000Y-130942500D03*
X187200000Y-73017500D03*
X187200000Y-71142500D03*
D19*
X169510000Y-164841500D03*
X169510000Y-166716500D03*
D14*
X61450000Y-229269500D03*
X61450000Y-227694500D03*
X100312000Y-162738500D03*
X100312000Y-161163500D03*
X199101000Y-222538500D03*
X199101000Y-220963500D03*
X201895000Y-162738500D03*
X201895000Y-161163500D03*
D21*
X209261000Y-102976000D03*
X209261000Y-101326000D03*
D22*
X187200000Y-74492500D03*
X187200000Y-76067500D03*
D14*
X66530000Y-49869500D03*
X66530000Y-48294500D03*
D11*
X131470000Y-77240000D03*
X123510000Y-77240000D03*
X131470000Y-72740000D03*
X123510000Y-72740000D03*
D14*
X58910000Y-109669500D03*
X58910000Y-108094500D03*
D22*
X231867000Y-248522500D03*
X231867000Y-250097500D03*
D19*
X58910000Y-164841500D03*
X58910000Y-166716500D03*
D15*
X230500000Y-211980000D03*
X229850000Y-211980000D03*
X229200000Y-211980000D03*
X228550000Y-211980000D03*
X227900000Y-211980000D03*
D16*
X233000000Y-209305000D03*
D17*
X232300000Y-211855000D03*
D18*
X230400000Y-209305000D03*
X228000000Y-209305000D03*
D17*
X226100000Y-211855000D03*
D16*
X225400000Y-209305000D03*
D14*
X189700000Y-76067500D03*
X189700000Y-74492500D03*
D24*
X190580000Y-166380000D03*
X191380000Y-166380000D03*
X192180000Y-166380000D03*
X192980000Y-166380000D03*
X193780000Y-166380000D03*
X194580000Y-166380000D03*
X195380000Y-166380000D03*
X196180000Y-166380000D03*
X196980000Y-166380000D03*
X197780000Y-166380000D03*
X198580000Y-166380000D03*
X199380000Y-166380000D03*
X200180000Y-166380000D03*
X200980000Y-166380000D03*
X201780000Y-166380000D03*
X202580000Y-166380000D03*
X203380000Y-166380000D03*
X204180000Y-166380000D03*
X189780000Y-167180000D03*
X190580000Y-167180000D03*
X191380000Y-167180000D03*
X192180000Y-167180000D03*
X192980000Y-167180000D03*
X193780000Y-167180000D03*
X194580000Y-167180000D03*
X195380000Y-167180000D03*
X196180000Y-167180000D03*
X196980000Y-167180000D03*
X197780000Y-167180000D03*
X198580000Y-167180000D03*
X199380000Y-167180000D03*
X200180000Y-167180000D03*
X200980000Y-167180000D03*
X201780000Y-167180000D03*
X202580000Y-167180000D03*
X203380000Y-167180000D03*
X204180000Y-167180000D03*
X204980000Y-167180000D03*
X189780000Y-167980000D03*
X190580000Y-167980000D03*
X191380000Y-167980000D03*
X192180000Y-167980000D03*
X192980000Y-167980000D03*
X193780000Y-167980000D03*
X194580000Y-167980000D03*
X195380000Y-167980000D03*
X196180000Y-167980000D03*
X196980000Y-167980000D03*
X197780000Y-167980000D03*
X198580000Y-167980000D03*
X199380000Y-167980000D03*
X200180000Y-167980000D03*
X200980000Y-167980000D03*
X201780000Y-167980000D03*
X202580000Y-167980000D03*
X203380000Y-167980000D03*
X204180000Y-167980000D03*
X204980000Y-167980000D03*
X189780000Y-168780000D03*
X190580000Y-168780000D03*
X191380000Y-168780000D03*
X192180000Y-168780000D03*
X192980000Y-168780000D03*
X193780000Y-168780000D03*
X194580000Y-168780000D03*
X195380000Y-168780000D03*
X196180000Y-168780000D03*
X196980000Y-168780000D03*
X197780000Y-168780000D03*
X198580000Y-168780000D03*
X199380000Y-168780000D03*
X200180000Y-168780000D03*
X200980000Y-168780000D03*
X201780000Y-168780000D03*
X202580000Y-168780000D03*
X203380000Y-168780000D03*
X204180000Y-168780000D03*
X204980000Y-168780000D03*
X189780000Y-169580000D03*
X190580000Y-169580000D03*
X191380000Y-169580000D03*
X192180000Y-169580000D03*
X192980000Y-169580000D03*
X193780000Y-169580000D03*
X194580000Y-169580000D03*
X195380000Y-169580000D03*
X196180000Y-169580000D03*
X196980000Y-169580000D03*
X197780000Y-169580000D03*
X198580000Y-169580000D03*
X199380000Y-169580000D03*
X200180000Y-169580000D03*
X200980000Y-169580000D03*
X201780000Y-169580000D03*
X202580000Y-169580000D03*
X203380000Y-169580000D03*
X204180000Y-169580000D03*
X204980000Y-169580000D03*
X189780000Y-170380000D03*
X190580000Y-170380000D03*
X191380000Y-170380000D03*
X192180000Y-170380000D03*
X192980000Y-170380000D03*
X193780000Y-170380000D03*
X194580000Y-170380000D03*
X195380000Y-170380000D03*
X196180000Y-170380000D03*
X196980000Y-170380000D03*
X197780000Y-170380000D03*
X198580000Y-170380000D03*
X199380000Y-170380000D03*
X200180000Y-170380000D03*
X200980000Y-170380000D03*
X201780000Y-170380000D03*
X202580000Y-170380000D03*
X203380000Y-170380000D03*
X204180000Y-170380000D03*
X204980000Y-170380000D03*
X189780000Y-171180000D03*
X190580000Y-171180000D03*
X191380000Y-171180000D03*
X192180000Y-171180000D03*
X192980000Y-171180000D03*
X193780000Y-171180000D03*
X194580000Y-171180000D03*
X195380000Y-171180000D03*
X196180000Y-171180000D03*
X196980000Y-171180000D03*
X197780000Y-171180000D03*
X198580000Y-171180000D03*
X199380000Y-171180000D03*
X200180000Y-171180000D03*
X200980000Y-171180000D03*
X201780000Y-171180000D03*
X202580000Y-171180000D03*
X203380000Y-171180000D03*
X204180000Y-171180000D03*
X204980000Y-171180000D03*
X189780000Y-171980000D03*
X190580000Y-171980000D03*
X191380000Y-171980000D03*
X192180000Y-171980000D03*
X192980000Y-171980000D03*
X193780000Y-171980000D03*
X194580000Y-171980000D03*
X195380000Y-171980000D03*
X196180000Y-171980000D03*
X196980000Y-171980000D03*
X197780000Y-171980000D03*
X198580000Y-171980000D03*
X199380000Y-171980000D03*
X200180000Y-171980000D03*
X200980000Y-171980000D03*
X201780000Y-171980000D03*
X202580000Y-171980000D03*
X203380000Y-171980000D03*
X204180000Y-171980000D03*
X204980000Y-171980000D03*
X189780000Y-172780000D03*
X190580000Y-172780000D03*
X191380000Y-172780000D03*
X192180000Y-172780000D03*
X192980000Y-172780000D03*
X193780000Y-172780000D03*
X194580000Y-172780000D03*
X195380000Y-172780000D03*
X196180000Y-172780000D03*
X196980000Y-172780000D03*
X197780000Y-172780000D03*
X198580000Y-172780000D03*
X199380000Y-172780000D03*
X200180000Y-172780000D03*
X200980000Y-172780000D03*
X201780000Y-172780000D03*
X202580000Y-172780000D03*
X203380000Y-172780000D03*
X204180000Y-172780000D03*
X204980000Y-172780000D03*
X189780000Y-173580000D03*
X190580000Y-173580000D03*
X191380000Y-173580000D03*
X192180000Y-173580000D03*
X192980000Y-173580000D03*
X193780000Y-173580000D03*
X194580000Y-173580000D03*
X195380000Y-173580000D03*
X196180000Y-173580000D03*
X196980000Y-173580000D03*
X197780000Y-173580000D03*
X198580000Y-173580000D03*
X199380000Y-173580000D03*
X200180000Y-173580000D03*
X200980000Y-173580000D03*
X201780000Y-173580000D03*
X202580000Y-173580000D03*
X203380000Y-173580000D03*
X204180000Y-173580000D03*
X204980000Y-173580000D03*
X189780000Y-174380000D03*
X190580000Y-174380000D03*
X191380000Y-174380000D03*
X192180000Y-174380000D03*
X192980000Y-174380000D03*
X193780000Y-174380000D03*
X194580000Y-174380000D03*
X195380000Y-174380000D03*
X196180000Y-174380000D03*
X196980000Y-174380000D03*
X197780000Y-174380000D03*
X198580000Y-174380000D03*
X199380000Y-174380000D03*
X200180000Y-174380000D03*
X200980000Y-174380000D03*
X201780000Y-174380000D03*
X202580000Y-174380000D03*
X203380000Y-174380000D03*
X204180000Y-174380000D03*
X204980000Y-174380000D03*
X189780000Y-175180000D03*
X190580000Y-175180000D03*
X191380000Y-175180000D03*
X192180000Y-175180000D03*
X192980000Y-175180000D03*
X193780000Y-175180000D03*
X194580000Y-175180000D03*
X195380000Y-175180000D03*
X196180000Y-175180000D03*
X196980000Y-175180000D03*
X197780000Y-175180000D03*
X198580000Y-175180000D03*
X199380000Y-175180000D03*
X200180000Y-175180000D03*
X200980000Y-175180000D03*
X201780000Y-175180000D03*
X202580000Y-175180000D03*
X203380000Y-175180000D03*
X204180000Y-175180000D03*
X204980000Y-175180000D03*
X189780000Y-175980000D03*
X190580000Y-175980000D03*
X191380000Y-175980000D03*
X192180000Y-175980000D03*
X192980000Y-175980000D03*
X193780000Y-175980000D03*
X194580000Y-175980000D03*
X195380000Y-175980000D03*
X196180000Y-175980000D03*
X196980000Y-175980000D03*
X197780000Y-175980000D03*
X198580000Y-175980000D03*
X199380000Y-175980000D03*
X200180000Y-175980000D03*
X200980000Y-175980000D03*
X201780000Y-175980000D03*
X202580000Y-175980000D03*
X203380000Y-175980000D03*
X204180000Y-175980000D03*
X204980000Y-175980000D03*
X189780000Y-176780000D03*
X190580000Y-176780000D03*
X191380000Y-176780000D03*
X192180000Y-176780000D03*
X192980000Y-176780000D03*
X193780000Y-176780000D03*
X194580000Y-176780000D03*
X195380000Y-176780000D03*
X196180000Y-176780000D03*
X196980000Y-176780000D03*
X197780000Y-176780000D03*
X198580000Y-176780000D03*
X199380000Y-176780000D03*
X200180000Y-176780000D03*
X200980000Y-176780000D03*
X201780000Y-176780000D03*
X202580000Y-176780000D03*
X203380000Y-176780000D03*
X204180000Y-176780000D03*
X204980000Y-176780000D03*
X189780000Y-177580000D03*
X190580000Y-177580000D03*
X191380000Y-177580000D03*
X192180000Y-177580000D03*
X192980000Y-177580000D03*
X201780000Y-177580000D03*
X202580000Y-177580000D03*
X203380000Y-177580000D03*
X204180000Y-177580000D03*
X204980000Y-177580000D03*
X189780000Y-178380000D03*
X190580000Y-178380000D03*
X191380000Y-178380000D03*
X192180000Y-178380000D03*
X192980000Y-178380000D03*
X193780000Y-178380000D03*
X194580000Y-178380000D03*
X195380000Y-178380000D03*
X196180000Y-178380000D03*
X196980000Y-178380000D03*
X197780000Y-178380000D03*
X198580000Y-178380000D03*
X199380000Y-178380000D03*
X200180000Y-178380000D03*
X200980000Y-178380000D03*
X201780000Y-178380000D03*
X202580000Y-178380000D03*
X203380000Y-178380000D03*
X204180000Y-178380000D03*
X204980000Y-178380000D03*
X189780000Y-179180000D03*
X190580000Y-179180000D03*
X191380000Y-179180000D03*
X192180000Y-179180000D03*
X192980000Y-179180000D03*
X193780000Y-179180000D03*
X194580000Y-179180000D03*
X195380000Y-179180000D03*
X196180000Y-179180000D03*
X196980000Y-179180000D03*
X197780000Y-179180000D03*
X198580000Y-179180000D03*
X199380000Y-179180000D03*
X200180000Y-179180000D03*
X200980000Y-179180000D03*
X201780000Y-179180000D03*
X202580000Y-179180000D03*
X203380000Y-179180000D03*
X204180000Y-179180000D03*
X204980000Y-179180000D03*
X189780000Y-179980000D03*
X190580000Y-179980000D03*
X191380000Y-179980000D03*
X192180000Y-179980000D03*
X192980000Y-179980000D03*
X193780000Y-179980000D03*
X194580000Y-179980000D03*
X195380000Y-179980000D03*
X196180000Y-179980000D03*
X196980000Y-179980000D03*
X197780000Y-179980000D03*
X198580000Y-179980000D03*
X199380000Y-179980000D03*
X200180000Y-179980000D03*
X200980000Y-179980000D03*
X201780000Y-179980000D03*
X202580000Y-179980000D03*
X203380000Y-179980000D03*
X204180000Y-179980000D03*
X204980000Y-179980000D03*
X189780000Y-180780000D03*
X190580000Y-180780000D03*
X191380000Y-180780000D03*
X192180000Y-180780000D03*
X192980000Y-180780000D03*
X193780000Y-180780000D03*
X194580000Y-180780000D03*
X195380000Y-180780000D03*
X196180000Y-180780000D03*
X196980000Y-180780000D03*
X197780000Y-180780000D03*
X198580000Y-180780000D03*
X199380000Y-180780000D03*
X200180000Y-180780000D03*
X200980000Y-180780000D03*
X201780000Y-180780000D03*
X202580000Y-180780000D03*
X203380000Y-180780000D03*
X204180000Y-180780000D03*
X204980000Y-180780000D03*
X190580000Y-181580000D03*
X191380000Y-181580000D03*
X192980000Y-181580000D03*
X193780000Y-181580000D03*
X194580000Y-181580000D03*
X195380000Y-181580000D03*
X197780000Y-181580000D03*
X198580000Y-181580000D03*
X200180000Y-181580000D03*
X200980000Y-181580000D03*
X201780000Y-181580000D03*
X202580000Y-181580000D03*
X204180000Y-181580000D03*
D13*
X189700000Y-73017500D03*
X189700000Y-71142500D03*
D14*
X98915000Y-222538500D03*
X98915000Y-220963500D03*
D12*
X188496500Y-215546000D03*
X190431500Y-215546000D03*
D13*
X187200000Y-192617500D03*
X187200000Y-190742500D03*
D14*
X204689000Y-162738500D03*
X204689000Y-161163500D03*
D19*
X74150000Y-164841500D03*
X74150000Y-166716500D03*
D14*
X61450000Y-109669500D03*
X61450000Y-108094500D03*
D11*
X131470000Y-42950000D03*
X123510000Y-42950000D03*
X131470000Y-38450000D03*
X123510000Y-38450000D03*
D34*
X76588000Y-208680000D03*
D35*
X76588000Y-220880000D03*
D36*
X84188000Y-213380000D03*
X76588000Y-211480000D03*
D35*
X81138000Y-224980000D03*
D34*
X84188000Y-210580000D03*
D37*
X238525000Y-187835000D03*
D38*
X238525000Y-187335000D03*
X238525000Y-186835000D03*
X238525000Y-186335000D03*
X238525000Y-185835000D03*
X238525000Y-185335000D03*
X238525000Y-184835000D03*
D39*
X237685000Y-183995000D03*
X237185000Y-183995000D03*
X236685000Y-183995000D03*
X236185000Y-183995000D03*
X235685000Y-183995000D03*
X235185000Y-183995000D03*
X234685000Y-183995000D03*
D38*
X233845000Y-184835000D03*
X233845000Y-185335000D03*
X233845000Y-185835000D03*
X233845000Y-186335000D03*
X233845000Y-186835000D03*
X233845000Y-187335000D03*
X233845000Y-187835000D03*
D39*
X234685000Y-188675000D03*
X235185000Y-188675000D03*
X235685000Y-188675000D03*
X236185000Y-188675000D03*
X236685000Y-188675000D03*
X237185000Y-188675000D03*
X237685000Y-188675000D03*
D40*
X236997500Y-187147500D03*
X236997500Y-185522500D03*
X235372500Y-187147500D03*
X235372500Y-185522500D03*
D34*
X76588000Y-29280000D03*
D35*
X76588000Y-41480000D03*
D36*
X84188000Y-33980000D03*
X76588000Y-32080000D03*
D35*
X81138000Y-45580000D03*
D34*
X84188000Y-31180000D03*
D21*
X106281000Y-162776000D03*
X106281000Y-161126000D03*
X210658000Y-222576000D03*
X210658000Y-220926000D03*
D14*
X189700000Y-255467500D03*
X189700000Y-253892500D03*
X200498000Y-43138500D03*
X200498000Y-41563500D03*
D19*
X74150000Y-224641500D03*
X74150000Y-226516500D03*
D22*
X184700000Y-194092500D03*
X184700000Y-195667500D03*
D19*
X69070000Y-224641500D03*
X69070000Y-226516500D03*
D14*
X66530000Y-169469500D03*
X66530000Y-167894500D03*
X231867000Y-184074500D03*
X231867000Y-182499500D03*
X169510000Y-49869500D03*
X169510000Y-48294500D03*
D22*
X184700000Y-134292500D03*
X184700000Y-135867500D03*
D25*
X177232000Y-131630000D03*
X176132000Y-131630000D03*
X175032000Y-131630000D03*
X173932000Y-131630000D03*
X172832000Y-131630000D03*
X171732000Y-131630000D03*
X170632000Y-131630000D03*
X169532000Y-131630000D03*
D26*
X179832000Y-121580000D03*
D27*
X180907000Y-135930000D03*
D28*
X167157000Y-124230000D03*
D29*
X179632000Y-131280000D03*
D30*
X168332000Y-131080000D03*
D31*
X170332000Y-120580000D03*
X176332000Y-120580000D03*
D32*
X180907000Y-134230000D03*
X167157000Y-134230000D03*
X167157000Y-125930000D03*
D33*
X179832000Y-125280000D03*
D32*
X180907000Y-125930000D03*
D14*
X101709000Y-102938500D03*
X101709000Y-101363500D03*
D11*
X131470000Y-222350000D03*
X123510000Y-222350000D03*
X131470000Y-217850000D03*
X123510000Y-217850000D03*
D14*
X231867000Y-124274500D03*
X231867000Y-122699500D03*
D19*
X61465000Y-45241500D03*
X61465000Y-47116500D03*
D11*
X234450000Y-222350000D03*
X226490000Y-222350000D03*
X234450000Y-217850000D03*
X226490000Y-217850000D03*
D19*
X76690000Y-45241500D03*
X76690000Y-47116500D03*
D23*
X64132000Y-156340000D03*
X59052000Y-156340000D03*
X59052000Y-160740000D03*
X64132000Y-160740000D03*
D14*
X177130000Y-49869500D03*
X177130000Y-48294500D03*
D19*
X177130000Y-105041500D03*
X177130000Y-106916500D03*
D41*
X112250000Y-224405000D03*
X114790000Y-224405000D03*
X117330000Y-224405000D03*
X119870000Y-224405000D03*
X119870000Y-215795000D03*
X117330000Y-215795000D03*
X114790000Y-215795000D03*
X112250000Y-215795000D03*
D14*
X128887000Y-243874500D03*
X128887000Y-242299500D03*
X74150000Y-229269500D03*
X74150000Y-227694500D03*
X201895000Y-102938500D03*
X201895000Y-101363500D03*
X74150000Y-109669500D03*
X74150000Y-108094500D03*
D19*
X63990000Y-164841500D03*
X63990000Y-166716500D03*
D24*
X87600000Y-106580000D03*
X88400000Y-106580000D03*
X89200000Y-106580000D03*
X90000000Y-106580000D03*
X90800000Y-106580000D03*
X91600000Y-106580000D03*
X92400000Y-106580000D03*
X93200000Y-106580000D03*
X94000000Y-106580000D03*
X94800000Y-106580000D03*
X95600000Y-106580000D03*
X96400000Y-106580000D03*
X97200000Y-106580000D03*
X98000000Y-106580000D03*
X98800000Y-106580000D03*
X99600000Y-106580000D03*
X100400000Y-106580000D03*
X101200000Y-106580000D03*
X86800000Y-107380000D03*
X87600000Y-107380000D03*
X88400000Y-107380000D03*
X89200000Y-107380000D03*
X90000000Y-107380000D03*
X90800000Y-107380000D03*
X91600000Y-107380000D03*
X92400000Y-107380000D03*
X93200000Y-107380000D03*
X94000000Y-107380000D03*
X94800000Y-107380000D03*
X95600000Y-107380000D03*
X96400000Y-107380000D03*
X97200000Y-107380000D03*
X98000000Y-107380000D03*
X98800000Y-107380000D03*
X99600000Y-107380000D03*
X100400000Y-107380000D03*
X101200000Y-107380000D03*
X102000000Y-107380000D03*
X86800000Y-108180000D03*
X87600000Y-108180000D03*
X88400000Y-108180000D03*
X89200000Y-108180000D03*
X90000000Y-108180000D03*
X90800000Y-108180000D03*
X91600000Y-108180000D03*
X92400000Y-108180000D03*
X93200000Y-108180000D03*
X94000000Y-108180000D03*
X94800000Y-108180000D03*
X95600000Y-108180000D03*
X96400000Y-108180000D03*
X97200000Y-108180000D03*
X98000000Y-108180000D03*
X98800000Y-108180000D03*
X99600000Y-108180000D03*
X100400000Y-108180000D03*
X101200000Y-108180000D03*
X102000000Y-108180000D03*
X86800000Y-108980000D03*
X87600000Y-108980000D03*
X88400000Y-108980000D03*
X89200000Y-108980000D03*
X90000000Y-108980000D03*
X90800000Y-108980000D03*
X91600000Y-108980000D03*
X92400000Y-108980000D03*
X93200000Y-108980000D03*
X94000000Y-108980000D03*
X94800000Y-108980000D03*
X95600000Y-108980000D03*
X96400000Y-108980000D03*
X97200000Y-108980000D03*
X98000000Y-108980000D03*
X98800000Y-108980000D03*
X99600000Y-108980000D03*
X100400000Y-108980000D03*
X101200000Y-108980000D03*
X102000000Y-108980000D03*
X86800000Y-109780000D03*
X87600000Y-109780000D03*
X88400000Y-109780000D03*
X89200000Y-109780000D03*
X90000000Y-109780000D03*
X90800000Y-109780000D03*
X91600000Y-109780000D03*
X92400000Y-109780000D03*
X93200000Y-109780000D03*
X94000000Y-109780000D03*
X94800000Y-109780000D03*
X95600000Y-109780000D03*
X96400000Y-109780000D03*
X97200000Y-109780000D03*
X98000000Y-109780000D03*
X98800000Y-109780000D03*
X99600000Y-109780000D03*
X100400000Y-109780000D03*
X101200000Y-109780000D03*
X102000000Y-109780000D03*
X86800000Y-110580000D03*
X87600000Y-110580000D03*
X88400000Y-110580000D03*
X89200000Y-110580000D03*
X90000000Y-110580000D03*
X90800000Y-110580000D03*
X91600000Y-110580000D03*
X92400000Y-110580000D03*
X93200000Y-110580000D03*
X94000000Y-110580000D03*
X94800000Y-110580000D03*
X95600000Y-110580000D03*
X96400000Y-110580000D03*
X97200000Y-110580000D03*
X98000000Y-110580000D03*
X98800000Y-110580000D03*
X99600000Y-110580000D03*
X100400000Y-110580000D03*
X101200000Y-110580000D03*
X102000000Y-110580000D03*
X86800000Y-111380000D03*
X87600000Y-111380000D03*
X88400000Y-111380000D03*
X89200000Y-111380000D03*
X90000000Y-111380000D03*
X90800000Y-111380000D03*
X91600000Y-111380000D03*
X92400000Y-111380000D03*
X93200000Y-111380000D03*
X94000000Y-111380000D03*
X94800000Y-111380000D03*
X95600000Y-111380000D03*
X96400000Y-111380000D03*
X97200000Y-111380000D03*
X98000000Y-111380000D03*
X98800000Y-111380000D03*
X99600000Y-111380000D03*
X100400000Y-111380000D03*
X101200000Y-111380000D03*
X102000000Y-111380000D03*
X86800000Y-112180000D03*
X87600000Y-112180000D03*
X88400000Y-112180000D03*
X89200000Y-112180000D03*
X90000000Y-112180000D03*
X90800000Y-112180000D03*
X91600000Y-112180000D03*
X92400000Y-112180000D03*
X93200000Y-112180000D03*
X94000000Y-112180000D03*
X94800000Y-112180000D03*
X95600000Y-112180000D03*
X96400000Y-112180000D03*
X97200000Y-112180000D03*
X98000000Y-112180000D03*
X98800000Y-112180000D03*
X99600000Y-112180000D03*
X100400000Y-112180000D03*
X101200000Y-112180000D03*
X102000000Y-112180000D03*
X86800000Y-112980000D03*
X87600000Y-112980000D03*
X88400000Y-112980000D03*
X89200000Y-112980000D03*
X90000000Y-112980000D03*
X90800000Y-112980000D03*
X91600000Y-112980000D03*
X92400000Y-112980000D03*
X93200000Y-112980000D03*
X94000000Y-112980000D03*
X94800000Y-112980000D03*
X95600000Y-112980000D03*
X96400000Y-112980000D03*
X97200000Y-112980000D03*
X98000000Y-112980000D03*
X98800000Y-112980000D03*
X99600000Y-112980000D03*
X100400000Y-112980000D03*
X101200000Y-112980000D03*
X102000000Y-112980000D03*
X86800000Y-113780000D03*
X87600000Y-113780000D03*
X88400000Y-113780000D03*
X89200000Y-113780000D03*
X90000000Y-113780000D03*
X90800000Y-113780000D03*
X91600000Y-113780000D03*
X92400000Y-113780000D03*
X93200000Y-113780000D03*
X94000000Y-113780000D03*
X94800000Y-113780000D03*
X95600000Y-113780000D03*
X96400000Y-113780000D03*
X97200000Y-113780000D03*
X98000000Y-113780000D03*
X98800000Y-113780000D03*
X99600000Y-113780000D03*
X100400000Y-113780000D03*
X101200000Y-113780000D03*
X102000000Y-113780000D03*
X86800000Y-114580000D03*
X87600000Y-114580000D03*
X88400000Y-114580000D03*
X89200000Y-114580000D03*
X90000000Y-114580000D03*
X90800000Y-114580000D03*
X91600000Y-114580000D03*
X92400000Y-114580000D03*
X93200000Y-114580000D03*
X94000000Y-114580000D03*
X94800000Y-114580000D03*
X95600000Y-114580000D03*
X96400000Y-114580000D03*
X97200000Y-114580000D03*
X98000000Y-114580000D03*
X98800000Y-114580000D03*
X99600000Y-114580000D03*
X100400000Y-114580000D03*
X101200000Y-114580000D03*
X102000000Y-114580000D03*
X86800000Y-115380000D03*
X87600000Y-115380000D03*
X88400000Y-115380000D03*
X89200000Y-115380000D03*
X90000000Y-115380000D03*
X90800000Y-115380000D03*
X91600000Y-115380000D03*
X92400000Y-115380000D03*
X93200000Y-115380000D03*
X94000000Y-115380000D03*
X94800000Y-115380000D03*
X95600000Y-115380000D03*
X96400000Y-115380000D03*
X97200000Y-115380000D03*
X98000000Y-115380000D03*
X98800000Y-115380000D03*
X99600000Y-115380000D03*
X100400000Y-115380000D03*
X101200000Y-115380000D03*
X102000000Y-115380000D03*
X86800000Y-116180000D03*
X87600000Y-116180000D03*
X88400000Y-116180000D03*
X89200000Y-116180000D03*
X90000000Y-116180000D03*
X90800000Y-116180000D03*
X91600000Y-116180000D03*
X92400000Y-116180000D03*
X93200000Y-116180000D03*
X94000000Y-116180000D03*
X94800000Y-116180000D03*
X95600000Y-116180000D03*
X96400000Y-116180000D03*
X97200000Y-116180000D03*
X98000000Y-116180000D03*
X98800000Y-116180000D03*
X99600000Y-116180000D03*
X100400000Y-116180000D03*
X101200000Y-116180000D03*
X102000000Y-116180000D03*
X86800000Y-116980000D03*
X87600000Y-116980000D03*
X88400000Y-116980000D03*
X89200000Y-116980000D03*
X90000000Y-116980000D03*
X90800000Y-116980000D03*
X91600000Y-116980000D03*
X92400000Y-116980000D03*
X93200000Y-116980000D03*
X94000000Y-116980000D03*
X94800000Y-116980000D03*
X95600000Y-116980000D03*
X96400000Y-116980000D03*
X97200000Y-116980000D03*
X98000000Y-116980000D03*
X98800000Y-116980000D03*
X99600000Y-116980000D03*
X100400000Y-116980000D03*
X101200000Y-116980000D03*
X102000000Y-116980000D03*
X86800000Y-117780000D03*
X87600000Y-117780000D03*
X88400000Y-117780000D03*
X89200000Y-117780000D03*
X90000000Y-117780000D03*
X98800000Y-117780000D03*
X99600000Y-117780000D03*
X100400000Y-117780000D03*
X101200000Y-117780000D03*
X102000000Y-117780000D03*
X86800000Y-118580000D03*
X87600000Y-118580000D03*
X88400000Y-118580000D03*
X89200000Y-118580000D03*
X90000000Y-118580000D03*
X90800000Y-118580000D03*
X91600000Y-118580000D03*
X92400000Y-118580000D03*
X93200000Y-118580000D03*
X94000000Y-118580000D03*
X94800000Y-118580000D03*
X95600000Y-118580000D03*
X96400000Y-118580000D03*
X97200000Y-118580000D03*
X98000000Y-118580000D03*
X98800000Y-118580000D03*
X99600000Y-118580000D03*
X100400000Y-118580000D03*
X101200000Y-118580000D03*
X102000000Y-118580000D03*
X86800000Y-119380000D03*
X87600000Y-119380000D03*
X88400000Y-119380000D03*
X89200000Y-119380000D03*
X90000000Y-119380000D03*
X90800000Y-119380000D03*
X91600000Y-119380000D03*
X92400000Y-119380000D03*
X93200000Y-119380000D03*
X94000000Y-119380000D03*
X94800000Y-119380000D03*
X95600000Y-119380000D03*
X96400000Y-119380000D03*
X97200000Y-119380000D03*
X98000000Y-119380000D03*
X98800000Y-119380000D03*
X99600000Y-119380000D03*
X100400000Y-119380000D03*
X101200000Y-119380000D03*
X102000000Y-119380000D03*
X86800000Y-120180000D03*
X87600000Y-120180000D03*
X88400000Y-120180000D03*
X89200000Y-120180000D03*
X90000000Y-120180000D03*
X90800000Y-120180000D03*
X91600000Y-120180000D03*
X92400000Y-120180000D03*
X93200000Y-120180000D03*
X94000000Y-120180000D03*
X94800000Y-120180000D03*
X95600000Y-120180000D03*
X96400000Y-120180000D03*
X97200000Y-120180000D03*
X98000000Y-120180000D03*
X98800000Y-120180000D03*
X99600000Y-120180000D03*
X100400000Y-120180000D03*
X101200000Y-120180000D03*
X102000000Y-120180000D03*
X86800000Y-120980000D03*
X87600000Y-120980000D03*
X88400000Y-120980000D03*
X89200000Y-120980000D03*
X90000000Y-120980000D03*
X90800000Y-120980000D03*
X91600000Y-120980000D03*
X92400000Y-120980000D03*
X93200000Y-120980000D03*
X94000000Y-120980000D03*
X94800000Y-120980000D03*
X95600000Y-120980000D03*
X96400000Y-120980000D03*
X97200000Y-120980000D03*
X98000000Y-120980000D03*
X98800000Y-120980000D03*
X99600000Y-120980000D03*
X100400000Y-120980000D03*
X101200000Y-120980000D03*
X102000000Y-120980000D03*
X87600000Y-121780000D03*
X88400000Y-121780000D03*
X90000000Y-121780000D03*
X90800000Y-121780000D03*
X91600000Y-121780000D03*
X92400000Y-121780000D03*
X94800000Y-121780000D03*
X95600000Y-121780000D03*
X97200000Y-121780000D03*
X98000000Y-121780000D03*
X98800000Y-121780000D03*
X99600000Y-121780000D03*
X101200000Y-121780000D03*
D20*
X199446000Y-156492000D03*
X199946000Y-156492000D03*
X200446000Y-156492000D03*
X200946000Y-156492000D03*
X201446000Y-156492000D03*
X201946000Y-156492000D03*
X202446000Y-156492000D03*
X202946000Y-156492000D03*
X203446000Y-156492000D03*
X203946000Y-156492000D03*
X204446000Y-156492000D03*
X204946000Y-156492000D03*
X205446000Y-156492000D03*
X205946000Y-156492000D03*
X206446000Y-156492000D03*
X206946000Y-156492000D03*
X207446000Y-156492000D03*
X207946000Y-156492000D03*
X208446000Y-156492000D03*
D14*
X94662800Y-222531100D03*
X94662800Y-220956100D03*
D11*
X112080000Y-123650000D03*
X120040000Y-123650000D03*
X112080000Y-128150000D03*
X120040000Y-128150000D03*
D14*
X94662800Y-162731100D03*
X94662800Y-161156100D03*
D19*
X76690000Y-224641500D03*
X76690000Y-226516500D03*
D14*
X179670000Y-169469500D03*
X179670000Y-167894500D03*
D22*
X184700000Y-74492500D03*
X184700000Y-76067500D03*
D20*
X96466000Y-36892000D03*
X96966000Y-36892000D03*
X97466000Y-36892000D03*
X97966000Y-36892000D03*
X98466000Y-36892000D03*
X98966000Y-36892000D03*
X99466000Y-36892000D03*
X99966000Y-36892000D03*
X100466000Y-36892000D03*
X100966000Y-36892000D03*
X101466000Y-36892000D03*
X101966000Y-36892000D03*
X102466000Y-36892000D03*
X102966000Y-36892000D03*
X103466000Y-36892000D03*
X103966000Y-36892000D03*
X104466000Y-36892000D03*
X104966000Y-36892000D03*
X105466000Y-36892000D03*
D14*
X104884000Y-162738500D03*
X104884000Y-161163500D03*
D11*
X234450000Y-196840000D03*
X226490000Y-196840000D03*
X234450000Y-192340000D03*
X226490000Y-192340000D03*
D19*
X74150000Y-105041500D03*
X74150000Y-106916500D03*
X74150000Y-45241500D03*
X74150000Y-47116500D03*
D14*
X86720000Y-255467500D03*
X86720000Y-253892500D03*
D25*
X74252000Y-251230000D03*
X73152000Y-251230000D03*
X72052000Y-251230000D03*
X70952000Y-251230000D03*
X69852000Y-251230000D03*
X68752000Y-251230000D03*
X67652000Y-251230000D03*
X66552000Y-251230000D03*
D26*
X76852000Y-241180000D03*
D27*
X77927000Y-255530000D03*
D28*
X64177000Y-243830000D03*
D29*
X76652000Y-250880000D03*
D30*
X65352000Y-250680000D03*
D31*
X67352000Y-240180000D03*
X73352000Y-240180000D03*
D32*
X77927000Y-253830000D03*
X64177000Y-253830000D03*
X64177000Y-245530000D03*
D33*
X76852000Y-244880000D03*
D32*
X77927000Y-245530000D03*
D15*
X69100000Y-211980000D03*
X68450000Y-211980000D03*
X67800000Y-211980000D03*
X67150000Y-211980000D03*
X66500000Y-211980000D03*
D16*
X71600000Y-209305000D03*
D17*
X70900000Y-211855000D03*
D18*
X69000000Y-209305000D03*
X66600000Y-209305000D03*
D17*
X64700000Y-211855000D03*
D16*
X64000000Y-209305000D03*
D13*
X86720000Y-252417500D03*
X86720000Y-250542500D03*
D11*
X171880000Y-233090000D03*
X179840000Y-233090000D03*
X171880000Y-237590000D03*
X179840000Y-237590000D03*
D19*
X174590000Y-164841500D03*
X174590000Y-166716500D03*
D23*
X167112000Y-216140000D03*
X162032000Y-216140000D03*
X162032000Y-220540000D03*
X167112000Y-220540000D03*
D11*
X131470000Y-102750000D03*
X123510000Y-102750000D03*
X131470000Y-98250000D03*
X123510000Y-98250000D03*
D37*
X135545000Y-68235000D03*
D38*
X135545000Y-67735000D03*
X135545000Y-67235000D03*
X135545000Y-66735000D03*
X135545000Y-66235000D03*
X135545000Y-65735000D03*
X135545000Y-65235000D03*
D39*
X134705000Y-64395000D03*
X134205000Y-64395000D03*
X133705000Y-64395000D03*
X133205000Y-64395000D03*
X132705000Y-64395000D03*
X132205000Y-64395000D03*
X131705000Y-64395000D03*
D38*
X130865000Y-65235000D03*
X130865000Y-65735000D03*
X130865000Y-66235000D03*
X130865000Y-66735000D03*
X130865000Y-67235000D03*
X130865000Y-67735000D03*
X130865000Y-68235000D03*
D39*
X131705000Y-69075000D03*
X132205000Y-69075000D03*
X132705000Y-69075000D03*
X133205000Y-69075000D03*
X133705000Y-69075000D03*
X134205000Y-69075000D03*
X134705000Y-69075000D03*
D40*
X134017500Y-67547500D03*
X134017500Y-65922500D03*
X132392500Y-67547500D03*
X132392500Y-65922500D03*
D14*
X94662800Y-43131100D03*
X94662800Y-41556100D03*
X161890000Y-229269500D03*
X161890000Y-227694500D03*
X97518000Y-102938500D03*
X97518000Y-101363500D03*
D11*
X223020000Y-137040000D03*
X215060000Y-137040000D03*
X223020000Y-132540000D03*
X215060000Y-132540000D03*
D14*
X96121000Y-222538500D03*
X96121000Y-220963500D03*
D19*
X81720000Y-250542500D03*
X81720000Y-252417500D03*
D11*
X108610000Y-137040000D03*
X100650000Y-137040000D03*
X108610000Y-132540000D03*
X100650000Y-132540000D03*
D14*
X164430000Y-169469500D03*
X164430000Y-167894500D03*
X98915000Y-43138500D03*
X98915000Y-41563500D03*
D22*
X184700000Y-253892500D03*
X184700000Y-255467500D03*
D20*
X96466000Y-216292000D03*
X96966000Y-216292000D03*
X97466000Y-216292000D03*
X97966000Y-216292000D03*
X98466000Y-216292000D03*
X98966000Y-216292000D03*
X99466000Y-216292000D03*
X99966000Y-216292000D03*
X100466000Y-216292000D03*
X100966000Y-216292000D03*
X101466000Y-216292000D03*
X101966000Y-216292000D03*
X102466000Y-216292000D03*
X102966000Y-216292000D03*
X103466000Y-216292000D03*
X103966000Y-216292000D03*
X104466000Y-216292000D03*
X104966000Y-216292000D03*
X105466000Y-216292000D03*
D25*
X177232000Y-71830000D03*
X176132000Y-71830000D03*
X175032000Y-71830000D03*
X173932000Y-71830000D03*
X172832000Y-71830000D03*
X171732000Y-71830000D03*
X170632000Y-71830000D03*
X169532000Y-71830000D03*
D26*
X179832000Y-61780000D03*
D27*
X180907000Y-76130000D03*
D28*
X167157000Y-64430000D03*
D29*
X179632000Y-71480000D03*
D30*
X168332000Y-71280000D03*
D31*
X170332000Y-60780000D03*
X176332000Y-60780000D03*
D32*
X180907000Y-74430000D03*
X167157000Y-74430000D03*
X167157000Y-66130000D03*
D33*
X179832000Y-65480000D03*
D32*
X180907000Y-66130000D03*
D14*
X206467000Y-222526500D03*
X206467000Y-220951500D03*
D19*
X166970000Y-164841500D03*
X166970000Y-166716500D03*
D14*
X97518000Y-162738500D03*
X97518000Y-161163500D03*
D19*
X161890000Y-45241500D03*
X161890000Y-47116500D03*
D14*
X96121000Y-43138500D03*
X96121000Y-41563500D03*
D15*
X172080000Y-32580000D03*
X171430000Y-32580000D03*
X170780000Y-32580000D03*
X170130000Y-32580000D03*
X169480000Y-32580000D03*
D16*
X174580000Y-29905000D03*
D17*
X173880000Y-32455000D03*
D18*
X171980000Y-29905000D03*
X169580000Y-29905000D03*
D17*
X167680000Y-32455000D03*
D16*
X166980000Y-29905000D03*
D37*
X135545000Y-187835000D03*
D38*
X135545000Y-187335000D03*
X135545000Y-186835000D03*
X135545000Y-186335000D03*
X135545000Y-185835000D03*
X135545000Y-185335000D03*
X135545000Y-184835000D03*
D39*
X134705000Y-183995000D03*
X134205000Y-183995000D03*
X133705000Y-183995000D03*
X133205000Y-183995000D03*
X132705000Y-183995000D03*
X132205000Y-183995000D03*
X131705000Y-183995000D03*
D38*
X130865000Y-184835000D03*
X130865000Y-185335000D03*
X130865000Y-185835000D03*
X130865000Y-186335000D03*
X130865000Y-186835000D03*
X130865000Y-187335000D03*
X130865000Y-187835000D03*
D39*
X131705000Y-188675000D03*
X132205000Y-188675000D03*
X132705000Y-188675000D03*
X133205000Y-188675000D03*
X133705000Y-188675000D03*
X134205000Y-188675000D03*
X134705000Y-188675000D03*
D40*
X134017500Y-187147500D03*
X134017500Y-185522500D03*
X132392500Y-187147500D03*
X132392500Y-185522500D03*
D14*
X86720000Y-135867500D03*
X86720000Y-134292500D03*
X179670000Y-229269500D03*
X179670000Y-227694500D03*
X103487000Y-43126500D03*
X103487000Y-41551500D03*
X69070000Y-229269500D03*
X69070000Y-227694500D03*
X207864000Y-43138500D03*
X207864000Y-41563500D03*
X166970000Y-229269500D03*
X166970000Y-227694500D03*
D11*
X120040000Y-137040000D03*
X112080000Y-137040000D03*
X120040000Y-132540000D03*
X112080000Y-132540000D03*
D34*
X179568000Y-89080000D03*
D35*
X179568000Y-101280000D03*
D36*
X187168000Y-93780000D03*
X179568000Y-91880000D03*
D35*
X184118000Y-105380000D03*
D34*
X187168000Y-90980000D03*
D14*
X96121000Y-102938500D03*
X96121000Y-101363500D03*
D19*
X58910000Y-45241500D03*
X58910000Y-47116500D03*
D13*
X84220000Y-73017500D03*
X84220000Y-71142500D03*
D21*
X209261000Y-43176000D03*
X209261000Y-41526000D03*
X106281000Y-222576000D03*
X106281000Y-220926000D03*
D14*
X76690000Y-169469500D03*
X76690000Y-167894500D03*
D19*
X169510000Y-45241500D03*
X169510000Y-47116500D03*
D14*
X204689000Y-222538500D03*
X204689000Y-220963500D03*
X71610000Y-169469500D03*
X71610000Y-167894500D03*
X206467000Y-102926500D03*
X206467000Y-101351500D03*
D19*
X61465000Y-105041500D03*
X61465000Y-106916500D03*
D24*
X190580000Y-106580000D03*
X191380000Y-106580000D03*
X192180000Y-106580000D03*
X192980000Y-106580000D03*
X193780000Y-106580000D03*
X194580000Y-106580000D03*
X195380000Y-106580000D03*
X196180000Y-106580000D03*
X196980000Y-106580000D03*
X197780000Y-106580000D03*
X198580000Y-106580000D03*
X199380000Y-106580000D03*
X200180000Y-106580000D03*
X200980000Y-106580000D03*
X201780000Y-106580000D03*
X202580000Y-106580000D03*
X203380000Y-106580000D03*
X204180000Y-106580000D03*
X189780000Y-107380000D03*
X190580000Y-107380000D03*
X191380000Y-107380000D03*
X192180000Y-107380000D03*
X192980000Y-107380000D03*
X193780000Y-107380000D03*
X194580000Y-107380000D03*
X195380000Y-107380000D03*
X196180000Y-107380000D03*
X196980000Y-107380000D03*
X197780000Y-107380000D03*
X198580000Y-107380000D03*
X199380000Y-107380000D03*
X200180000Y-107380000D03*
X200980000Y-107380000D03*
X201780000Y-107380000D03*
X202580000Y-107380000D03*
X203380000Y-107380000D03*
X204180000Y-107380000D03*
X204980000Y-107380000D03*
X189780000Y-108180000D03*
X190580000Y-108180000D03*
X191380000Y-108180000D03*
X192180000Y-108180000D03*
X192980000Y-108180000D03*
X193780000Y-108180000D03*
X194580000Y-108180000D03*
X195380000Y-108180000D03*
X196180000Y-108180000D03*
X196980000Y-108180000D03*
X197780000Y-108180000D03*
X198580000Y-108180000D03*
X199380000Y-108180000D03*
X200180000Y-108180000D03*
X200980000Y-108180000D03*
X201780000Y-108180000D03*
X202580000Y-108180000D03*
X203380000Y-108180000D03*
X204180000Y-108180000D03*
X204980000Y-108180000D03*
X189780000Y-108980000D03*
X190580000Y-108980000D03*
X191380000Y-108980000D03*
X192180000Y-108980000D03*
X192980000Y-108980000D03*
X193780000Y-108980000D03*
X194580000Y-108980000D03*
X195380000Y-108980000D03*
X196180000Y-108980000D03*
X196980000Y-108980000D03*
X197780000Y-108980000D03*
X198580000Y-108980000D03*
X199380000Y-108980000D03*
X200180000Y-108980000D03*
X200980000Y-108980000D03*
X201780000Y-108980000D03*
X202580000Y-108980000D03*
X203380000Y-108980000D03*
X204180000Y-108980000D03*
X204980000Y-108980000D03*
X189780000Y-109780000D03*
X190580000Y-109780000D03*
X191380000Y-109780000D03*
X192180000Y-109780000D03*
X192980000Y-109780000D03*
X193780000Y-109780000D03*
X194580000Y-109780000D03*
X195380000Y-109780000D03*
X196180000Y-109780000D03*
X196980000Y-109780000D03*
X197780000Y-109780000D03*
X198580000Y-109780000D03*
X199380000Y-109780000D03*
X200180000Y-109780000D03*
X200980000Y-109780000D03*
X201780000Y-109780000D03*
X202580000Y-109780000D03*
X203380000Y-109780000D03*
X204180000Y-109780000D03*
X204980000Y-109780000D03*
X189780000Y-110580000D03*
X190580000Y-110580000D03*
X191380000Y-110580000D03*
X192180000Y-110580000D03*
X192980000Y-110580000D03*
X193780000Y-110580000D03*
X194580000Y-110580000D03*
X195380000Y-110580000D03*
X196180000Y-110580000D03*
X196980000Y-110580000D03*
X197780000Y-110580000D03*
X198580000Y-110580000D03*
X199380000Y-110580000D03*
X200180000Y-110580000D03*
X200980000Y-110580000D03*
X201780000Y-110580000D03*
X202580000Y-110580000D03*
X203380000Y-110580000D03*
X204180000Y-110580000D03*
X204980000Y-110580000D03*
X189780000Y-111380000D03*
X190580000Y-111380000D03*
X191380000Y-111380000D03*
X192180000Y-111380000D03*
X192980000Y-111380000D03*
X193780000Y-111380000D03*
X194580000Y-111380000D03*
X195380000Y-111380000D03*
X196180000Y-111380000D03*
X196980000Y-111380000D03*
X197780000Y-111380000D03*
X198580000Y-111380000D03*
X199380000Y-111380000D03*
X200180000Y-111380000D03*
X200980000Y-111380000D03*
X201780000Y-111380000D03*
X202580000Y-111380000D03*
X203380000Y-111380000D03*
X204180000Y-111380000D03*
X204980000Y-111380000D03*
X189780000Y-112180000D03*
X190580000Y-112180000D03*
X191380000Y-112180000D03*
X192180000Y-112180000D03*
X192980000Y-112180000D03*
X193780000Y-112180000D03*
X194580000Y-112180000D03*
X195380000Y-112180000D03*
X196180000Y-112180000D03*
X196980000Y-112180000D03*
X197780000Y-112180000D03*
X198580000Y-112180000D03*
X199380000Y-112180000D03*
X200180000Y-112180000D03*
X200980000Y-112180000D03*
X201780000Y-112180000D03*
X202580000Y-112180000D03*
X203380000Y-112180000D03*
X204180000Y-112180000D03*
X204980000Y-112180000D03*
X189780000Y-112980000D03*
X190580000Y-112980000D03*
X191380000Y-112980000D03*
X192180000Y-112980000D03*
X192980000Y-112980000D03*
X193780000Y-112980000D03*
X194580000Y-112980000D03*
X195380000Y-112980000D03*
X196180000Y-112980000D03*
X196980000Y-112980000D03*
X197780000Y-112980000D03*
X198580000Y-112980000D03*
X199380000Y-112980000D03*
X200180000Y-112980000D03*
X200980000Y-112980000D03*
X201780000Y-112980000D03*
X202580000Y-112980000D03*
X203380000Y-112980000D03*
X204180000Y-112980000D03*
X204980000Y-112980000D03*
X189780000Y-113780000D03*
X190580000Y-113780000D03*
X191380000Y-113780000D03*
X192180000Y-113780000D03*
X192980000Y-113780000D03*
X193780000Y-113780000D03*
X194580000Y-113780000D03*
X195380000Y-113780000D03*
X196180000Y-113780000D03*
X196980000Y-113780000D03*
X197780000Y-113780000D03*
X198580000Y-113780000D03*
X199380000Y-113780000D03*
X200180000Y-113780000D03*
X200980000Y-113780000D03*
X201780000Y-113780000D03*
X202580000Y-113780000D03*
X203380000Y-113780000D03*
X204180000Y-113780000D03*
X204980000Y-113780000D03*
X189780000Y-114580000D03*
X190580000Y-114580000D03*
X191380000Y-114580000D03*
X192180000Y-114580000D03*
X192980000Y-114580000D03*
X193780000Y-114580000D03*
X194580000Y-114580000D03*
X195380000Y-114580000D03*
X196180000Y-114580000D03*
X196980000Y-114580000D03*
X197780000Y-114580000D03*
X198580000Y-114580000D03*
X199380000Y-114580000D03*
X200180000Y-114580000D03*
X200980000Y-114580000D03*
X201780000Y-114580000D03*
X202580000Y-114580000D03*
X203380000Y-114580000D03*
X204180000Y-114580000D03*
X204980000Y-114580000D03*
X189780000Y-115380000D03*
X190580000Y-115380000D03*
X191380000Y-115380000D03*
X192180000Y-115380000D03*
X192980000Y-115380000D03*
X193780000Y-115380000D03*
X194580000Y-115380000D03*
X195380000Y-115380000D03*
X196180000Y-115380000D03*
X196980000Y-115380000D03*
X197780000Y-115380000D03*
X198580000Y-115380000D03*
X199380000Y-115380000D03*
X200180000Y-115380000D03*
X200980000Y-115380000D03*
X201780000Y-115380000D03*
X202580000Y-115380000D03*
X203380000Y-115380000D03*
X204180000Y-115380000D03*
X204980000Y-115380000D03*
X189780000Y-116180000D03*
X190580000Y-116180000D03*
X191380000Y-116180000D03*
X192180000Y-116180000D03*
X192980000Y-116180000D03*
X193780000Y-116180000D03*
X194580000Y-116180000D03*
X195380000Y-116180000D03*
X196180000Y-116180000D03*
X196980000Y-116180000D03*
X197780000Y-116180000D03*
X198580000Y-116180000D03*
X199380000Y-116180000D03*
X200180000Y-116180000D03*
X200980000Y-116180000D03*
X201780000Y-116180000D03*
X202580000Y-116180000D03*
X203380000Y-116180000D03*
X204180000Y-116180000D03*
X204980000Y-116180000D03*
X189780000Y-116980000D03*
X190580000Y-116980000D03*
X191380000Y-116980000D03*
X192180000Y-116980000D03*
X192980000Y-116980000D03*
X193780000Y-116980000D03*
X194580000Y-116980000D03*
X195380000Y-116980000D03*
X196180000Y-116980000D03*
X196980000Y-116980000D03*
X197780000Y-116980000D03*
X198580000Y-116980000D03*
X199380000Y-116980000D03*
X200180000Y-116980000D03*
X200980000Y-116980000D03*
X201780000Y-116980000D03*
X202580000Y-116980000D03*
X203380000Y-116980000D03*
X204180000Y-116980000D03*
X204980000Y-116980000D03*
X189780000Y-117780000D03*
X190580000Y-117780000D03*
X191380000Y-117780000D03*
X192180000Y-117780000D03*
X192980000Y-117780000D03*
X201780000Y-117780000D03*
X202580000Y-117780000D03*
X203380000Y-117780000D03*
X204180000Y-117780000D03*
X204980000Y-117780000D03*
X189780000Y-118580000D03*
X190580000Y-118580000D03*
X191380000Y-118580000D03*
X192180000Y-118580000D03*
X192980000Y-118580000D03*
X193780000Y-118580000D03*
X194580000Y-118580000D03*
X195380000Y-118580000D03*
X196180000Y-118580000D03*
X196980000Y-118580000D03*
X197780000Y-118580000D03*
X198580000Y-118580000D03*
X199380000Y-118580000D03*
X200180000Y-118580000D03*
X200980000Y-118580000D03*
X201780000Y-118580000D03*
X202580000Y-118580000D03*
X203380000Y-118580000D03*
X204180000Y-118580000D03*
X204980000Y-118580000D03*
X189780000Y-119380000D03*
X190580000Y-119380000D03*
X191380000Y-119380000D03*
X192180000Y-119380000D03*
X192980000Y-119380000D03*
X193780000Y-119380000D03*
X194580000Y-119380000D03*
X195380000Y-119380000D03*
X196180000Y-119380000D03*
X196980000Y-119380000D03*
X197780000Y-119380000D03*
X198580000Y-119380000D03*
X199380000Y-119380000D03*
X200180000Y-119380000D03*
X200980000Y-119380000D03*
X201780000Y-119380000D03*
X202580000Y-119380000D03*
X203380000Y-119380000D03*
X204180000Y-119380000D03*
X204980000Y-119380000D03*
X189780000Y-120180000D03*
X190580000Y-120180000D03*
X191380000Y-120180000D03*
X192180000Y-120180000D03*
X192980000Y-120180000D03*
X193780000Y-120180000D03*
X194580000Y-120180000D03*
X195380000Y-120180000D03*
X196180000Y-120180000D03*
X196980000Y-120180000D03*
X197780000Y-120180000D03*
X198580000Y-120180000D03*
X199380000Y-120180000D03*
X200180000Y-120180000D03*
X200980000Y-120180000D03*
X201780000Y-120180000D03*
X202580000Y-120180000D03*
X203380000Y-120180000D03*
X204180000Y-120180000D03*
X204980000Y-120180000D03*
X189780000Y-120980000D03*
X190580000Y-120980000D03*
X191380000Y-120980000D03*
X192180000Y-120980000D03*
X192980000Y-120980000D03*
X193780000Y-120980000D03*
X194580000Y-120980000D03*
X195380000Y-120980000D03*
X196180000Y-120980000D03*
X196980000Y-120980000D03*
X197780000Y-120980000D03*
X198580000Y-120980000D03*
X199380000Y-120980000D03*
X200180000Y-120980000D03*
X200980000Y-120980000D03*
X201780000Y-120980000D03*
X202580000Y-120980000D03*
X203380000Y-120980000D03*
X204180000Y-120980000D03*
X204980000Y-120980000D03*
X190580000Y-121780000D03*
X191380000Y-121780000D03*
X192980000Y-121780000D03*
X193780000Y-121780000D03*
X194580000Y-121780000D03*
X195380000Y-121780000D03*
X197780000Y-121780000D03*
X198580000Y-121780000D03*
X200180000Y-121780000D03*
X200980000Y-121780000D03*
X201780000Y-121780000D03*
X202580000Y-121780000D03*
X204180000Y-121780000D03*
D23*
X64132000Y-36740000D03*
X59052000Y-36740000D03*
X59052000Y-41140000D03*
X64132000Y-41140000D03*
D25*
X177232000Y-191430000D03*
X176132000Y-191430000D03*
X175032000Y-191430000D03*
X173932000Y-191430000D03*
X172832000Y-191430000D03*
X171732000Y-191430000D03*
X170632000Y-191430000D03*
X169532000Y-191430000D03*
D26*
X179832000Y-181380000D03*
D27*
X180907000Y-195730000D03*
D28*
X167157000Y-184030000D03*
D29*
X179632000Y-191080000D03*
D30*
X168332000Y-190880000D03*
D31*
X170332000Y-180380000D03*
X176332000Y-180380000D03*
D32*
X180907000Y-194030000D03*
X167157000Y-194030000D03*
X167157000Y-185730000D03*
D33*
X179832000Y-185080000D03*
D32*
X180907000Y-185730000D03*
D22*
X84220000Y-134292500D03*
X84220000Y-135867500D03*
D14*
X128887000Y-64474500D03*
X128887000Y-62899500D03*
D19*
X66530000Y-164841500D03*
X66530000Y-166716500D03*
D11*
X211590000Y-256640000D03*
X203630000Y-256640000D03*
X211590000Y-252140000D03*
X203630000Y-252140000D03*
D15*
X127520000Y-211980000D03*
X126870000Y-211980000D03*
X126220000Y-211980000D03*
X125570000Y-211980000D03*
X124920000Y-211980000D03*
D16*
X130020000Y-209305000D03*
D17*
X129320000Y-211855000D03*
D18*
X127420000Y-209305000D03*
X125020000Y-209305000D03*
D17*
X123120000Y-211855000D03*
D16*
X122420000Y-209305000D03*
D19*
X58910000Y-224641500D03*
X58910000Y-226516500D03*
X71610000Y-45241500D03*
X71610000Y-47116500D03*
D14*
X200498000Y-162738500D03*
X200498000Y-161163500D03*
D11*
X171880000Y-53690000D03*
X179840000Y-53690000D03*
X171880000Y-58190000D03*
X179840000Y-58190000D03*
D34*
X179568000Y-208680000D03*
D35*
X179568000Y-220880000D03*
D36*
X187168000Y-213380000D03*
X179568000Y-211480000D03*
D35*
X184118000Y-224980000D03*
D34*
X187168000Y-210580000D03*
D11*
X108610000Y-77240000D03*
X100650000Y-77240000D03*
X108610000Y-72740000D03*
X100650000Y-72740000D03*
D22*
X231867000Y-188722500D03*
X231867000Y-190297500D03*
D24*
X87600000Y-166380000D03*
X88400000Y-166380000D03*
X89200000Y-166380000D03*
X90000000Y-166380000D03*
X90800000Y-166380000D03*
X91600000Y-166380000D03*
X92400000Y-166380000D03*
X93200000Y-166380000D03*
X94000000Y-166380000D03*
X94800000Y-166380000D03*
X95600000Y-166380000D03*
X96400000Y-166380000D03*
X97200000Y-166380000D03*
X98000000Y-166380000D03*
X98800000Y-166380000D03*
X99600000Y-166380000D03*
X100400000Y-166380000D03*
X101200000Y-166380000D03*
X86800000Y-167180000D03*
X87600000Y-167180000D03*
X88400000Y-167180000D03*
X89200000Y-167180000D03*
X90000000Y-167180000D03*
X90800000Y-167180000D03*
X91600000Y-167180000D03*
X92400000Y-167180000D03*
X93200000Y-167180000D03*
X94000000Y-167180000D03*
X94800000Y-167180000D03*
X95600000Y-167180000D03*
X96400000Y-167180000D03*
X97200000Y-167180000D03*
X98000000Y-167180000D03*
X98800000Y-167180000D03*
X99600000Y-167180000D03*
X100400000Y-167180000D03*
X101200000Y-167180000D03*
X102000000Y-167180000D03*
X86800000Y-167980000D03*
X87600000Y-167980000D03*
X88400000Y-167980000D03*
X89200000Y-167980000D03*
X90000000Y-167980000D03*
X90800000Y-167980000D03*
X91600000Y-167980000D03*
X92400000Y-167980000D03*
X93200000Y-167980000D03*
X94000000Y-167980000D03*
X94800000Y-167980000D03*
X95600000Y-167980000D03*
X96400000Y-167980000D03*
X97200000Y-167980000D03*
X98000000Y-167980000D03*
X98800000Y-167980000D03*
X99600000Y-167980000D03*
X100400000Y-167980000D03*
X101200000Y-167980000D03*
X102000000Y-167980000D03*
X86800000Y-168780000D03*
X87600000Y-168780000D03*
X88400000Y-168780000D03*
X89200000Y-168780000D03*
X90000000Y-168780000D03*
X90800000Y-168780000D03*
X91600000Y-168780000D03*
X92400000Y-168780000D03*
X93200000Y-168780000D03*
X94000000Y-168780000D03*
X94800000Y-168780000D03*
X95600000Y-168780000D03*
X96400000Y-168780000D03*
X97200000Y-168780000D03*
X98000000Y-168780000D03*
X98800000Y-168780000D03*
X99600000Y-168780000D03*
X100400000Y-168780000D03*
X101200000Y-168780000D03*
X102000000Y-168780000D03*
X86800000Y-169580000D03*
X87600000Y-169580000D03*
X88400000Y-169580000D03*
X89200000Y-169580000D03*
X90000000Y-169580000D03*
X90800000Y-169580000D03*
X91600000Y-169580000D03*
X92400000Y-169580000D03*
X93200000Y-169580000D03*
X94000000Y-169580000D03*
X94800000Y-169580000D03*
X95600000Y-169580000D03*
X96400000Y-169580000D03*
X97200000Y-169580000D03*
X98000000Y-169580000D03*
X98800000Y-169580000D03*
X99600000Y-169580000D03*
X100400000Y-169580000D03*
X101200000Y-169580000D03*
X102000000Y-169580000D03*
X86800000Y-170380000D03*
X87600000Y-170380000D03*
X88400000Y-170380000D03*
X89200000Y-170380000D03*
X90000000Y-170380000D03*
X90800000Y-170380000D03*
X91600000Y-170380000D03*
X92400000Y-170380000D03*
X93200000Y-170380000D03*
X94000000Y-170380000D03*
X94800000Y-170380000D03*
X95600000Y-170380000D03*
X96400000Y-170380000D03*
X97200000Y-170380000D03*
X98000000Y-170380000D03*
X98800000Y-170380000D03*
X99600000Y-170380000D03*
X100400000Y-170380000D03*
X101200000Y-170380000D03*
X102000000Y-170380000D03*
X86800000Y-171180000D03*
X87600000Y-171180000D03*
X88400000Y-171180000D03*
X89200000Y-171180000D03*
X90000000Y-171180000D03*
X90800000Y-171180000D03*
X91600000Y-171180000D03*
X92400000Y-171180000D03*
X93200000Y-171180000D03*
X94000000Y-171180000D03*
X94800000Y-171180000D03*
X95600000Y-171180000D03*
X96400000Y-171180000D03*
X97200000Y-171180000D03*
X98000000Y-171180000D03*
X98800000Y-171180000D03*
X99600000Y-171180000D03*
X100400000Y-171180000D03*
X101200000Y-171180000D03*
X102000000Y-171180000D03*
X86800000Y-171980000D03*
X87600000Y-171980000D03*
X88400000Y-171980000D03*
X89200000Y-171980000D03*
X90000000Y-171980000D03*
X90800000Y-171980000D03*
X91600000Y-171980000D03*
X92400000Y-171980000D03*
X93200000Y-171980000D03*
X94000000Y-171980000D03*
X94800000Y-171980000D03*
X95600000Y-171980000D03*
X96400000Y-171980000D03*
X97200000Y-171980000D03*
X98000000Y-171980000D03*
X98800000Y-171980000D03*
X99600000Y-171980000D03*
X100400000Y-171980000D03*
X101200000Y-171980000D03*
X102000000Y-171980000D03*
X86800000Y-172780000D03*
X87600000Y-172780000D03*
X88400000Y-172780000D03*
X89200000Y-172780000D03*
X90000000Y-172780000D03*
X90800000Y-172780000D03*
X91600000Y-172780000D03*
X92400000Y-172780000D03*
X93200000Y-172780000D03*
X94000000Y-172780000D03*
X94800000Y-172780000D03*
X95600000Y-172780000D03*
X96400000Y-172780000D03*
X97200000Y-172780000D03*
X98000000Y-172780000D03*
X98800000Y-172780000D03*
X99600000Y-172780000D03*
X100400000Y-172780000D03*
X101200000Y-172780000D03*
X102000000Y-172780000D03*
X86800000Y-173580000D03*
X87600000Y-173580000D03*
X88400000Y-173580000D03*
X89200000Y-173580000D03*
X90000000Y-173580000D03*
X90800000Y-173580000D03*
X91600000Y-173580000D03*
X92400000Y-173580000D03*
X93200000Y-173580000D03*
X94000000Y-173580000D03*
X94800000Y-173580000D03*
X95600000Y-173580000D03*
X96400000Y-173580000D03*
X97200000Y-173580000D03*
X98000000Y-173580000D03*
X98800000Y-173580000D03*
X99600000Y-173580000D03*
X100400000Y-173580000D03*
X101200000Y-173580000D03*
X102000000Y-173580000D03*
X86800000Y-174380000D03*
X87600000Y-174380000D03*
X88400000Y-174380000D03*
X89200000Y-174380000D03*
X90000000Y-174380000D03*
X90800000Y-174380000D03*
X91600000Y-174380000D03*
X92400000Y-174380000D03*
X93200000Y-174380000D03*
X94000000Y-174380000D03*
X94800000Y-174380000D03*
X95600000Y-174380000D03*
X96400000Y-174380000D03*
X97200000Y-174380000D03*
X98000000Y-174380000D03*
X98800000Y-174380000D03*
X99600000Y-174380000D03*
X100400000Y-174380000D03*
X101200000Y-174380000D03*
X102000000Y-174380000D03*
X86800000Y-175180000D03*
X87600000Y-175180000D03*
X88400000Y-175180000D03*
X89200000Y-175180000D03*
X90000000Y-175180000D03*
X90800000Y-175180000D03*
X91600000Y-175180000D03*
X92400000Y-175180000D03*
X93200000Y-175180000D03*
X94000000Y-175180000D03*
X94800000Y-175180000D03*
X95600000Y-175180000D03*
X96400000Y-175180000D03*
X97200000Y-175180000D03*
X98000000Y-175180000D03*
X98800000Y-175180000D03*
X99600000Y-175180000D03*
X100400000Y-175180000D03*
X101200000Y-175180000D03*
X102000000Y-175180000D03*
X86800000Y-175980000D03*
X87600000Y-175980000D03*
X88400000Y-175980000D03*
X89200000Y-175980000D03*
X90000000Y-175980000D03*
X90800000Y-175980000D03*
X91600000Y-175980000D03*
X92400000Y-175980000D03*
X93200000Y-175980000D03*
X94000000Y-175980000D03*
X94800000Y-175980000D03*
X95600000Y-175980000D03*
X96400000Y-175980000D03*
X97200000Y-175980000D03*
X98000000Y-175980000D03*
X98800000Y-175980000D03*
X99600000Y-175980000D03*
X100400000Y-175980000D03*
X101200000Y-175980000D03*
X102000000Y-175980000D03*
X86800000Y-176780000D03*
X87600000Y-176780000D03*
X88400000Y-176780000D03*
X89200000Y-176780000D03*
X90000000Y-176780000D03*
X90800000Y-176780000D03*
X91600000Y-176780000D03*
X92400000Y-176780000D03*
X93200000Y-176780000D03*
X94000000Y-176780000D03*
X94800000Y-176780000D03*
X95600000Y-176780000D03*
X96400000Y-176780000D03*
X97200000Y-176780000D03*
X98000000Y-176780000D03*
X98800000Y-176780000D03*
X99600000Y-176780000D03*
X100400000Y-176780000D03*
X101200000Y-176780000D03*
X102000000Y-176780000D03*
X86800000Y-177580000D03*
X87600000Y-177580000D03*
X88400000Y-177580000D03*
X89200000Y-177580000D03*
X90000000Y-177580000D03*
X98800000Y-177580000D03*
X99600000Y-177580000D03*
X100400000Y-177580000D03*
X101200000Y-177580000D03*
X102000000Y-177580000D03*
X86800000Y-178380000D03*
X87600000Y-178380000D03*
X88400000Y-178380000D03*
X89200000Y-178380000D03*
X90000000Y-178380000D03*
X90800000Y-178380000D03*
X91600000Y-178380000D03*
X92400000Y-178380000D03*
X93200000Y-178380000D03*
X94000000Y-178380000D03*
X94800000Y-178380000D03*
X95600000Y-178380000D03*
X96400000Y-178380000D03*
X97200000Y-178380000D03*
X98000000Y-178380000D03*
X98800000Y-178380000D03*
X99600000Y-178380000D03*
X100400000Y-178380000D03*
X101200000Y-178380000D03*
X102000000Y-178380000D03*
X86800000Y-179180000D03*
X87600000Y-179180000D03*
X88400000Y-179180000D03*
X89200000Y-179180000D03*
X90000000Y-179180000D03*
X90800000Y-179180000D03*
X91600000Y-179180000D03*
X92400000Y-179180000D03*
X93200000Y-179180000D03*
X94000000Y-179180000D03*
X94800000Y-179180000D03*
X95600000Y-179180000D03*
X96400000Y-179180000D03*
X97200000Y-179180000D03*
X98000000Y-179180000D03*
X98800000Y-179180000D03*
X99600000Y-179180000D03*
X100400000Y-179180000D03*
X101200000Y-179180000D03*
X102000000Y-179180000D03*
X86800000Y-179980000D03*
X87600000Y-179980000D03*
X88400000Y-179980000D03*
X89200000Y-179980000D03*
X90000000Y-179980000D03*
X90800000Y-179980000D03*
X91600000Y-179980000D03*
X92400000Y-179980000D03*
X93200000Y-179980000D03*
X94000000Y-179980000D03*
X94800000Y-179980000D03*
X95600000Y-179980000D03*
X96400000Y-179980000D03*
X97200000Y-179980000D03*
X98000000Y-179980000D03*
X98800000Y-179980000D03*
X99600000Y-179980000D03*
X100400000Y-179980000D03*
X101200000Y-179980000D03*
X102000000Y-179980000D03*
X86800000Y-180780000D03*
X87600000Y-180780000D03*
X88400000Y-180780000D03*
X89200000Y-180780000D03*
X90000000Y-180780000D03*
X90800000Y-180780000D03*
X91600000Y-180780000D03*
X92400000Y-180780000D03*
X93200000Y-180780000D03*
X94000000Y-180780000D03*
X94800000Y-180780000D03*
X95600000Y-180780000D03*
X96400000Y-180780000D03*
X97200000Y-180780000D03*
X98000000Y-180780000D03*
X98800000Y-180780000D03*
X99600000Y-180780000D03*
X100400000Y-180780000D03*
X101200000Y-180780000D03*
X102000000Y-180780000D03*
X87600000Y-181580000D03*
X88400000Y-181580000D03*
X90000000Y-181580000D03*
X90800000Y-181580000D03*
X91600000Y-181580000D03*
X92400000Y-181580000D03*
X94800000Y-181580000D03*
X95600000Y-181580000D03*
X97200000Y-181580000D03*
X98000000Y-181580000D03*
X98800000Y-181580000D03*
X99600000Y-181580000D03*
X101200000Y-181580000D03*
D12*
X188496500Y-155746000D03*
X190431500Y-155746000D03*
D20*
X96466000Y-156492000D03*
X96966000Y-156492000D03*
X97466000Y-156492000D03*
X97966000Y-156492000D03*
X98466000Y-156492000D03*
X98966000Y-156492000D03*
X99466000Y-156492000D03*
X99966000Y-156492000D03*
X100466000Y-156492000D03*
X100966000Y-156492000D03*
X101466000Y-156492000D03*
X101966000Y-156492000D03*
X102466000Y-156492000D03*
X102966000Y-156492000D03*
X103466000Y-156492000D03*
X103966000Y-156492000D03*
X104466000Y-156492000D03*
X104966000Y-156492000D03*
X105466000Y-156492000D03*
D15*
X172080000Y-92380000D03*
X171430000Y-92380000D03*
X170780000Y-92380000D03*
X170130000Y-92380000D03*
X169480000Y-92380000D03*
D16*
X174580000Y-89705000D03*
D17*
X173880000Y-92255000D03*
D18*
X171980000Y-89705000D03*
X169580000Y-89705000D03*
D17*
X167680000Y-92255000D03*
D16*
X166980000Y-89705000D03*
D14*
X201895000Y-43138500D03*
X201895000Y-41563500D03*
D19*
X58910000Y-105041500D03*
X58910000Y-106916500D03*
D11*
X215060000Y-63850000D03*
X223020000Y-63850000D03*
X215060000Y-68350000D03*
X223020000Y-68350000D03*
X68900000Y-173290000D03*
X76860000Y-173290000D03*
X68900000Y-177790000D03*
X76860000Y-177790000D03*
D19*
X174590000Y-105041500D03*
X174590000Y-106916500D03*
D11*
X234450000Y-256640000D03*
X226490000Y-256640000D03*
X234450000Y-252140000D03*
X226490000Y-252140000D03*
D14*
X174590000Y-109669500D03*
X174590000Y-108094500D03*
D19*
X174590000Y-224641500D03*
X174590000Y-226516500D03*
D14*
X201895000Y-222538500D03*
X201895000Y-220963500D03*
X164430000Y-109669500D03*
X164430000Y-108094500D03*
D42*
X110613000Y-179710000D03*
D43*
X111413000Y-179710000D03*
X112213000Y-179710000D03*
X113013000Y-179710000D03*
X113813000Y-179710000D03*
X114613000Y-179710000D03*
X115413000Y-179710000D03*
X116213000Y-179710000D03*
X117013000Y-179710000D03*
X117813000Y-179710000D03*
X118613000Y-179710000D03*
X119413000Y-179710000D03*
X120213000Y-179710000D03*
X121013000Y-179710000D03*
X121813000Y-179710000D03*
X122613000Y-179710000D03*
X123413000Y-179710000D03*
X124213000Y-179710000D03*
X125013000Y-179710000D03*
X125813000Y-179710000D03*
X126613000Y-179710000D03*
X127413000Y-179710000D03*
X128213000Y-179710000D03*
X129013000Y-179710000D03*
X129813000Y-179710000D03*
X130613000Y-179710000D03*
X131413000Y-179710000D03*
X131413000Y-168250000D03*
X130613000Y-168250000D03*
X129813000Y-168250000D03*
X129013000Y-168250000D03*
X128213000Y-168250000D03*
X127413000Y-168250000D03*
X126613000Y-168250000D03*
X125813000Y-168250000D03*
X125013000Y-168250000D03*
X124213000Y-168250000D03*
X123413000Y-168250000D03*
X122613000Y-168250000D03*
X121813000Y-168250000D03*
X121013000Y-168250000D03*
X120213000Y-168250000D03*
X119413000Y-168250000D03*
X118613000Y-168250000D03*
X117813000Y-168250000D03*
X117013000Y-168250000D03*
X116213000Y-168250000D03*
X115413000Y-168250000D03*
X114613000Y-168250000D03*
X113813000Y-168250000D03*
X113013000Y-168250000D03*
X112213000Y-168250000D03*
X111413000Y-168250000D03*
X110613000Y-168250000D03*
D14*
X101709000Y-222538500D03*
X101709000Y-220963500D03*
D19*
X63990000Y-105041500D03*
X63990000Y-106916500D03*
D11*
X215060000Y-183450000D03*
X223020000Y-183450000D03*
X215060000Y-187950000D03*
X223020000Y-187950000D03*
D14*
X71610000Y-229269500D03*
X71610000Y-227694500D03*
D19*
X66530000Y-45241500D03*
X66530000Y-47116500D03*
D14*
X172050000Y-229269500D03*
X172050000Y-227694500D03*
X177130000Y-169469500D03*
X177130000Y-167894500D03*
X197642800Y-162731100D03*
X197642800Y-161156100D03*
X97518000Y-43138500D03*
X97518000Y-41563500D03*
D15*
X230500000Y-32580000D03*
X229850000Y-32580000D03*
X229200000Y-32580000D03*
X228550000Y-32580000D03*
X227900000Y-32580000D03*
D16*
X233000000Y-29905000D03*
D17*
X232300000Y-32455000D03*
D18*
X230400000Y-29905000D03*
X228000000Y-29905000D03*
D17*
X226100000Y-32455000D03*
D16*
X225400000Y-29905000D03*
D14*
X172050000Y-49869500D03*
X172050000Y-48294500D03*
D13*
X84220000Y-132817500D03*
X84220000Y-130942500D03*
D14*
X71610000Y-49869500D03*
X71610000Y-48294500D03*
D19*
X177130000Y-164841500D03*
X177130000Y-166716500D03*
D13*
X189700000Y-192617500D03*
X189700000Y-190742500D03*
D14*
X179670000Y-49869500D03*
X179670000Y-48294500D03*
D12*
X85516500Y-215546000D03*
X87451500Y-215546000D03*
D14*
X164430000Y-49869500D03*
X164430000Y-48294500D03*
D15*
X127520000Y-92380000D03*
X126870000Y-92380000D03*
X126220000Y-92380000D03*
X125570000Y-92380000D03*
X124920000Y-92380000D03*
D16*
X130020000Y-89705000D03*
D17*
X129320000Y-92255000D03*
D18*
X127420000Y-89705000D03*
X125020000Y-89705000D03*
D17*
X123120000Y-92255000D03*
D16*
X122420000Y-89705000D03*
D19*
X71610000Y-224641500D03*
X71610000Y-226516500D03*
D22*
X81720000Y-74492500D03*
X81720000Y-76067500D03*
D42*
X110613000Y-239510000D03*
D43*
X111413000Y-239510000D03*
X112213000Y-239510000D03*
X113013000Y-239510000D03*
X113813000Y-239510000D03*
X114613000Y-239510000D03*
X115413000Y-239510000D03*
X116213000Y-239510000D03*
X117013000Y-239510000D03*
X117813000Y-239510000D03*
X118613000Y-239510000D03*
X119413000Y-239510000D03*
X120213000Y-239510000D03*
X121013000Y-239510000D03*
X121813000Y-239510000D03*
X122613000Y-239510000D03*
X123413000Y-239510000D03*
X124213000Y-239510000D03*
X125013000Y-239510000D03*
X125813000Y-239510000D03*
X126613000Y-239510000D03*
X127413000Y-239510000D03*
X128213000Y-239510000D03*
X129013000Y-239510000D03*
X129813000Y-239510000D03*
X130613000Y-239510000D03*
X131413000Y-239510000D03*
X131413000Y-228050000D03*
X130613000Y-228050000D03*
X129813000Y-228050000D03*
X129013000Y-228050000D03*
X128213000Y-228050000D03*
X127413000Y-228050000D03*
X126613000Y-228050000D03*
X125813000Y-228050000D03*
X125013000Y-228050000D03*
X124213000Y-228050000D03*
X123413000Y-228050000D03*
X122613000Y-228050000D03*
X121813000Y-228050000D03*
X121013000Y-228050000D03*
X120213000Y-228050000D03*
X119413000Y-228050000D03*
X118613000Y-228050000D03*
X117813000Y-228050000D03*
X117013000Y-228050000D03*
X116213000Y-228050000D03*
X115413000Y-228050000D03*
X114613000Y-228050000D03*
X113813000Y-228050000D03*
X113013000Y-228050000D03*
X112213000Y-228050000D03*
X111413000Y-228050000D03*
X110613000Y-228050000D03*
D14*
X100312000Y-102938500D03*
X100312000Y-101363500D03*
X100312000Y-222538500D03*
X100312000Y-220963500D03*
D19*
X172050000Y-105041500D03*
X172050000Y-106916500D03*
D14*
X204689000Y-102938500D03*
X204689000Y-101363500D03*
X203292000Y-43138500D03*
X203292000Y-41563500D03*
D25*
X74252000Y-131630000D03*
X73152000Y-131630000D03*
X72052000Y-131630000D03*
X70952000Y-131630000D03*
X69852000Y-131630000D03*
X68752000Y-131630000D03*
X67652000Y-131630000D03*
X66552000Y-131630000D03*
D26*
X76852000Y-121580000D03*
D27*
X77927000Y-135930000D03*
D28*
X64177000Y-124230000D03*
D29*
X76652000Y-131280000D03*
D30*
X65352000Y-131080000D03*
D31*
X67352000Y-120580000D03*
X73352000Y-120580000D03*
D32*
X77927000Y-134230000D03*
X64177000Y-134230000D03*
X64177000Y-125930000D03*
D33*
X76852000Y-125280000D03*
D32*
X77927000Y-125930000D03*
D14*
X207864000Y-162738500D03*
X207864000Y-161163500D03*
X189700000Y-135867500D03*
X189700000Y-134292500D03*
D21*
X210658000Y-43176000D03*
X210658000Y-41526000D03*
D14*
X63990000Y-169469500D03*
X63990000Y-167894500D03*
D12*
X188496500Y-95946000D03*
X190431500Y-95946000D03*
D21*
X209261000Y-222576000D03*
X209261000Y-220926000D03*
D19*
X69070000Y-164841500D03*
X69070000Y-166716500D03*
D24*
X87600000Y-226180000D03*
X88400000Y-226180000D03*
X89200000Y-226180000D03*
X90000000Y-226180000D03*
X90800000Y-226180000D03*
X91600000Y-226180000D03*
X92400000Y-226180000D03*
X93200000Y-226180000D03*
X94000000Y-226180000D03*
X94800000Y-226180000D03*
X95600000Y-226180000D03*
X96400000Y-226180000D03*
X97200000Y-226180000D03*
X98000000Y-226180000D03*
X98800000Y-226180000D03*
X99600000Y-226180000D03*
X100400000Y-226180000D03*
X101200000Y-226180000D03*
X86800000Y-226980000D03*
X87600000Y-226980000D03*
X88400000Y-226980000D03*
X89200000Y-226980000D03*
X90000000Y-226980000D03*
X90800000Y-226980000D03*
X91600000Y-226980000D03*
X92400000Y-226980000D03*
X93200000Y-226980000D03*
X94000000Y-226980000D03*
X94800000Y-226980000D03*
X95600000Y-226980000D03*
X96400000Y-226980000D03*
X97200000Y-226980000D03*
X98000000Y-226980000D03*
X98800000Y-226980000D03*
X99600000Y-226980000D03*
X100400000Y-226980000D03*
X101200000Y-226980000D03*
X102000000Y-226980000D03*
X86800000Y-227780000D03*
X87600000Y-227780000D03*
X88400000Y-227780000D03*
X89200000Y-227780000D03*
X90000000Y-227780000D03*
X90800000Y-227780000D03*
X91600000Y-227780000D03*
X92400000Y-227780000D03*
X93200000Y-227780000D03*
X94000000Y-227780000D03*
X94800000Y-227780000D03*
X95600000Y-227780000D03*
X96400000Y-227780000D03*
X97200000Y-227780000D03*
X98000000Y-227780000D03*
X98800000Y-227780000D03*
X99600000Y-227780000D03*
X100400000Y-227780000D03*
X101200000Y-227780000D03*
X102000000Y-227780000D03*
X86800000Y-228580000D03*
X87600000Y-228580000D03*
X88400000Y-228580000D03*
X89200000Y-228580000D03*
X90000000Y-228580000D03*
X90800000Y-228580000D03*
X91600000Y-228580000D03*
X92400000Y-228580000D03*
X93200000Y-228580000D03*
X94000000Y-228580000D03*
X94800000Y-228580000D03*
X95600000Y-228580000D03*
X96400000Y-228580000D03*
X97200000Y-228580000D03*
X98000000Y-228580000D03*
X98800000Y-228580000D03*
X99600000Y-228580000D03*
X100400000Y-228580000D03*
X101200000Y-228580000D03*
X102000000Y-228580000D03*
X86800000Y-229380000D03*
X87600000Y-229380000D03*
X88400000Y-229380000D03*
X89200000Y-229380000D03*
X90000000Y-229380000D03*
X90800000Y-229380000D03*
X91600000Y-229380000D03*
X92400000Y-229380000D03*
X93200000Y-229380000D03*
X94000000Y-229380000D03*
X94800000Y-229380000D03*
X95600000Y-229380000D03*
X96400000Y-229380000D03*
X97200000Y-229380000D03*
X98000000Y-229380000D03*
X98800000Y-229380000D03*
X99600000Y-229380000D03*
X100400000Y-229380000D03*
X101200000Y-229380000D03*
X102000000Y-229380000D03*
X86800000Y-230180000D03*
X87600000Y-230180000D03*
X88400000Y-230180000D03*
X89200000Y-230180000D03*
X90000000Y-230180000D03*
X90800000Y-230180000D03*
X91600000Y-230180000D03*
X92400000Y-230180000D03*
X93200000Y-230180000D03*
X94000000Y-230180000D03*
X94800000Y-230180000D03*
X95600000Y-230180000D03*
X96400000Y-230180000D03*
X97200000Y-230180000D03*
X98000000Y-230180000D03*
X98800000Y-230180000D03*
X99600000Y-230180000D03*
X100400000Y-230180000D03*
X101200000Y-230180000D03*
X102000000Y-230180000D03*
X86800000Y-230980000D03*
X87600000Y-230980000D03*
X88400000Y-230980000D03*
X89200000Y-230980000D03*
X90000000Y-230980000D03*
X90800000Y-230980000D03*
X91600000Y-230980000D03*
X92400000Y-230980000D03*
X93200000Y-230980000D03*
X94000000Y-230980000D03*
X94800000Y-230980000D03*
X95600000Y-230980000D03*
X96400000Y-230980000D03*
X97200000Y-230980000D03*
X98000000Y-230980000D03*
X98800000Y-230980000D03*
X99600000Y-230980000D03*
X100400000Y-230980000D03*
X101200000Y-230980000D03*
X102000000Y-230980000D03*
X86800000Y-231780000D03*
X87600000Y-231780000D03*
X88400000Y-231780000D03*
X89200000Y-231780000D03*
X90000000Y-231780000D03*
X90800000Y-231780000D03*
X91600000Y-231780000D03*
X92400000Y-231780000D03*
X93200000Y-231780000D03*
X94000000Y-231780000D03*
X94800000Y-231780000D03*
X95600000Y-231780000D03*
X96400000Y-231780000D03*
X97200000Y-231780000D03*
X98000000Y-231780000D03*
X98800000Y-231780000D03*
X99600000Y-231780000D03*
X100400000Y-231780000D03*
X101200000Y-231780000D03*
X102000000Y-231780000D03*
X86800000Y-232580000D03*
X87600000Y-232580000D03*
X88400000Y-232580000D03*
X89200000Y-232580000D03*
X90000000Y-232580000D03*
X90800000Y-232580000D03*
X91600000Y-232580000D03*
X92400000Y-232580000D03*
X93200000Y-232580000D03*
X94000000Y-232580000D03*
X94800000Y-232580000D03*
X95600000Y-232580000D03*
X96400000Y-232580000D03*
X97200000Y-232580000D03*
X98000000Y-232580000D03*
X98800000Y-232580000D03*
X99600000Y-232580000D03*
X100400000Y-232580000D03*
X101200000Y-232580000D03*
X102000000Y-232580000D03*
X86800000Y-233380000D03*
X87600000Y-233380000D03*
X88400000Y-233380000D03*
X89200000Y-233380000D03*
X90000000Y-233380000D03*
X90800000Y-233380000D03*
X91600000Y-233380000D03*
X92400000Y-233380000D03*
X93200000Y-233380000D03*
X94000000Y-233380000D03*
X94800000Y-233380000D03*
X95600000Y-233380000D03*
X96400000Y-233380000D03*
X97200000Y-233380000D03*
X98000000Y-233380000D03*
X98800000Y-233380000D03*
X99600000Y-233380000D03*
X100400000Y-233380000D03*
X101200000Y-233380000D03*
X102000000Y-233380000D03*
X86800000Y-234180000D03*
X87600000Y-234180000D03*
X88400000Y-234180000D03*
X89200000Y-234180000D03*
X90000000Y-234180000D03*
X90800000Y-234180000D03*
X91600000Y-234180000D03*
X92400000Y-234180000D03*
X93200000Y-234180000D03*
X94000000Y-234180000D03*
X94800000Y-234180000D03*
X95600000Y-234180000D03*
X96400000Y-234180000D03*
X97200000Y-234180000D03*
X98000000Y-234180000D03*
X98800000Y-234180000D03*
X99600000Y-234180000D03*
X100400000Y-234180000D03*
X101200000Y-234180000D03*
X102000000Y-234180000D03*
X86800000Y-234980000D03*
X87600000Y-234980000D03*
X88400000Y-234980000D03*
X89200000Y-234980000D03*
X90000000Y-234980000D03*
X90800000Y-234980000D03*
X91600000Y-234980000D03*
X92400000Y-234980000D03*
X93200000Y-234980000D03*
X94000000Y-234980000D03*
X94800000Y-234980000D03*
X95600000Y-234980000D03*
X96400000Y-234980000D03*
X97200000Y-234980000D03*
X98000000Y-234980000D03*
X98800000Y-234980000D03*
X99600000Y-234980000D03*
X100400000Y-234980000D03*
X101200000Y-234980000D03*
X102000000Y-234980000D03*
X86800000Y-235780000D03*
X87600000Y-235780000D03*
X88400000Y-235780000D03*
X89200000Y-235780000D03*
X90000000Y-235780000D03*
X90800000Y-235780000D03*
X91600000Y-235780000D03*
X92400000Y-235780000D03*
X93200000Y-235780000D03*
X94000000Y-235780000D03*
X94800000Y-235780000D03*
X95600000Y-235780000D03*
X96400000Y-235780000D03*
X97200000Y-235780000D03*
X98000000Y-235780000D03*
X98800000Y-235780000D03*
X99600000Y-235780000D03*
X100400000Y-235780000D03*
X101200000Y-235780000D03*
X102000000Y-235780000D03*
X86800000Y-236580000D03*
X87600000Y-236580000D03*
X88400000Y-236580000D03*
X89200000Y-236580000D03*
X90000000Y-236580000D03*
X90800000Y-236580000D03*
X91600000Y-236580000D03*
X92400000Y-236580000D03*
X93200000Y-236580000D03*
X94000000Y-236580000D03*
X94800000Y-236580000D03*
X95600000Y-236580000D03*
X96400000Y-236580000D03*
X97200000Y-236580000D03*
X98000000Y-236580000D03*
X98800000Y-236580000D03*
X99600000Y-236580000D03*
X100400000Y-236580000D03*
X101200000Y-236580000D03*
X102000000Y-236580000D03*
X86800000Y-237380000D03*
X87600000Y-237380000D03*
X88400000Y-237380000D03*
X89200000Y-237380000D03*
X90000000Y-237380000D03*
X98800000Y-237380000D03*
X99600000Y-237380000D03*
X100400000Y-237380000D03*
X101200000Y-237380000D03*
X102000000Y-237380000D03*
X86800000Y-238180000D03*
X87600000Y-238180000D03*
X88400000Y-238180000D03*
X89200000Y-238180000D03*
X90000000Y-238180000D03*
X90800000Y-238180000D03*
X91600000Y-238180000D03*
X92400000Y-238180000D03*
X93200000Y-238180000D03*
X94000000Y-238180000D03*
X94800000Y-238180000D03*
X95600000Y-238180000D03*
X96400000Y-238180000D03*
X97200000Y-238180000D03*
X98000000Y-238180000D03*
X98800000Y-238180000D03*
X99600000Y-238180000D03*
X100400000Y-238180000D03*
X101200000Y-238180000D03*
X102000000Y-238180000D03*
X86800000Y-238980000D03*
X87600000Y-238980000D03*
X88400000Y-238980000D03*
X89200000Y-238980000D03*
X90000000Y-238980000D03*
X90800000Y-238980000D03*
X91600000Y-238980000D03*
X92400000Y-238980000D03*
X93200000Y-238980000D03*
X94000000Y-238980000D03*
X94800000Y-238980000D03*
X95600000Y-238980000D03*
X96400000Y-238980000D03*
X97200000Y-238980000D03*
X98000000Y-238980000D03*
X98800000Y-238980000D03*
X99600000Y-238980000D03*
X100400000Y-238980000D03*
X101200000Y-238980000D03*
X102000000Y-238980000D03*
X86800000Y-239780000D03*
X87600000Y-239780000D03*
X88400000Y-239780000D03*
X89200000Y-239780000D03*
X90000000Y-239780000D03*
X90800000Y-239780000D03*
X91600000Y-239780000D03*
X92400000Y-239780000D03*
X93200000Y-239780000D03*
X94000000Y-239780000D03*
X94800000Y-239780000D03*
X95600000Y-239780000D03*
X96400000Y-239780000D03*
X97200000Y-239780000D03*
X98000000Y-239780000D03*
X98800000Y-239780000D03*
X99600000Y-239780000D03*
X100400000Y-239780000D03*
X101200000Y-239780000D03*
X102000000Y-239780000D03*
X86800000Y-240580000D03*
X87600000Y-240580000D03*
X88400000Y-240580000D03*
X89200000Y-240580000D03*
X90000000Y-240580000D03*
X90800000Y-240580000D03*
X91600000Y-240580000D03*
X92400000Y-240580000D03*
X93200000Y-240580000D03*
X94000000Y-240580000D03*
X94800000Y-240580000D03*
X95600000Y-240580000D03*
X96400000Y-240580000D03*
X97200000Y-240580000D03*
X98000000Y-240580000D03*
X98800000Y-240580000D03*
X99600000Y-240580000D03*
X100400000Y-240580000D03*
X101200000Y-240580000D03*
X102000000Y-240580000D03*
X87600000Y-241380000D03*
X88400000Y-241380000D03*
X90000000Y-241380000D03*
X90800000Y-241380000D03*
X91600000Y-241380000D03*
X92400000Y-241380000D03*
X94800000Y-241380000D03*
X95600000Y-241380000D03*
X97200000Y-241380000D03*
X98000000Y-241380000D03*
X98800000Y-241380000D03*
X99600000Y-241380000D03*
X101200000Y-241380000D03*
D12*
X192179500Y-36146000D03*
X194114500Y-36146000D03*
D41*
X215230000Y-45005000D03*
X217770000Y-45005000D03*
X220310000Y-45005000D03*
X222850000Y-45005000D03*
X222850000Y-36395000D03*
X220310000Y-36395000D03*
X217770000Y-36395000D03*
X215230000Y-36395000D03*
D11*
X215060000Y-123650000D03*
X223020000Y-123650000D03*
X215060000Y-128150000D03*
X223020000Y-128150000D03*
D37*
X135545000Y-128035000D03*
D38*
X135545000Y-127535000D03*
X135545000Y-127035000D03*
X135545000Y-126535000D03*
X135545000Y-126035000D03*
X135545000Y-125535000D03*
X135545000Y-125035000D03*
D39*
X134705000Y-124195000D03*
X134205000Y-124195000D03*
X133705000Y-124195000D03*
X133205000Y-124195000D03*
X132705000Y-124195000D03*
X132205000Y-124195000D03*
X131705000Y-124195000D03*
D38*
X130865000Y-125035000D03*
X130865000Y-125535000D03*
X130865000Y-126035000D03*
X130865000Y-126535000D03*
X130865000Y-127035000D03*
X130865000Y-127535000D03*
X130865000Y-128035000D03*
D39*
X131705000Y-128875000D03*
X132205000Y-128875000D03*
X132705000Y-128875000D03*
X133205000Y-128875000D03*
X133705000Y-128875000D03*
X134205000Y-128875000D03*
X134705000Y-128875000D03*
D40*
X134017500Y-127347500D03*
X134017500Y-125722500D03*
X132392500Y-127347500D03*
X132392500Y-125722500D03*
D14*
X63990000Y-229269500D03*
X63990000Y-227694500D03*
D11*
X120040000Y-77240000D03*
X112080000Y-77240000D03*
X120040000Y-72740000D03*
X112080000Y-72740000D03*
D34*
X76588000Y-148880000D03*
D35*
X76588000Y-161080000D03*
D36*
X84188000Y-153580000D03*
X76588000Y-151680000D03*
D35*
X81138000Y-165180000D03*
D34*
X84188000Y-150780000D03*
D14*
X231867000Y-243874500D03*
X231867000Y-242299500D03*
D22*
X231867000Y-69122500D03*
X231867000Y-70697500D03*
D14*
X169510000Y-169469500D03*
X169510000Y-167894500D03*
D19*
X63990000Y-45241500D03*
X63990000Y-47116500D03*
D37*
X135545000Y-247635000D03*
D38*
X135545000Y-247135000D03*
X135545000Y-246635000D03*
X135545000Y-246135000D03*
X135545000Y-245635000D03*
X135545000Y-245135000D03*
X135545000Y-244635000D03*
D39*
X134705000Y-243795000D03*
X134205000Y-243795000D03*
X133705000Y-243795000D03*
X133205000Y-243795000D03*
X132705000Y-243795000D03*
X132205000Y-243795000D03*
X131705000Y-243795000D03*
D38*
X130865000Y-244635000D03*
X130865000Y-245135000D03*
X130865000Y-245635000D03*
X130865000Y-246135000D03*
X130865000Y-246635000D03*
X130865000Y-247135000D03*
X130865000Y-247635000D03*
D39*
X131705000Y-248475000D03*
X132205000Y-248475000D03*
X132705000Y-248475000D03*
X133205000Y-248475000D03*
X133705000Y-248475000D03*
X134205000Y-248475000D03*
X134705000Y-248475000D03*
D40*
X134017500Y-246947500D03*
X134017500Y-245322500D03*
X132392500Y-246947500D03*
X132392500Y-245322500D03*
D20*
X96466000Y-96692000D03*
X96966000Y-96692000D03*
X97466000Y-96692000D03*
X97966000Y-96692000D03*
X98466000Y-96692000D03*
X98966000Y-96692000D03*
X99466000Y-96692000D03*
X99966000Y-96692000D03*
X100466000Y-96692000D03*
X100966000Y-96692000D03*
X101466000Y-96692000D03*
X101966000Y-96692000D03*
X102466000Y-96692000D03*
X102966000Y-96692000D03*
X103466000Y-96692000D03*
X103966000Y-96692000D03*
X104466000Y-96692000D03*
X104966000Y-96692000D03*
X105466000Y-96692000D03*
D11*
X215060000Y-243250000D03*
X223020000Y-243250000D03*
X215060000Y-247750000D03*
X223020000Y-247750000D03*
D21*
X106281000Y-102976000D03*
X106281000Y-101326000D03*
D14*
X76690000Y-109669500D03*
X76690000Y-108094500D03*
X66530000Y-109669500D03*
X66530000Y-108094500D03*
D11*
X223020000Y-256640000D03*
X215060000Y-256640000D03*
X223020000Y-252140000D03*
X215060000Y-252140000D03*
D19*
X71610000Y-105041500D03*
X71610000Y-106916500D03*
D42*
X110613000Y-60110000D03*
D43*
X111413000Y-60110000D03*
X112213000Y-60110000D03*
X113013000Y-60110000D03*
X113813000Y-60110000D03*
X114613000Y-60110000D03*
X115413000Y-60110000D03*
X116213000Y-60110000D03*
X117013000Y-60110000D03*
X117813000Y-60110000D03*
X118613000Y-60110000D03*
X119413000Y-60110000D03*
X120213000Y-60110000D03*
X121013000Y-60110000D03*
X121813000Y-60110000D03*
X122613000Y-60110000D03*
X123413000Y-60110000D03*
X124213000Y-60110000D03*
X125013000Y-60110000D03*
X125813000Y-60110000D03*
X126613000Y-60110000D03*
X127413000Y-60110000D03*
X128213000Y-60110000D03*
X129013000Y-60110000D03*
X129813000Y-60110000D03*
X130613000Y-60110000D03*
X131413000Y-60110000D03*
X131413000Y-48650000D03*
X130613000Y-48650000D03*
X129813000Y-48650000D03*
X129013000Y-48650000D03*
X128213000Y-48650000D03*
X127413000Y-48650000D03*
X126613000Y-48650000D03*
X125813000Y-48650000D03*
X125013000Y-48650000D03*
X124213000Y-48650000D03*
X123413000Y-48650000D03*
X122613000Y-48650000D03*
X121813000Y-48650000D03*
X121013000Y-48650000D03*
X120213000Y-48650000D03*
X119413000Y-48650000D03*
X118613000Y-48650000D03*
X117813000Y-48650000D03*
X117013000Y-48650000D03*
X116213000Y-48650000D03*
X115413000Y-48650000D03*
X114613000Y-48650000D03*
X113813000Y-48650000D03*
X113013000Y-48650000D03*
X112213000Y-48650000D03*
X111413000Y-48650000D03*
X110613000Y-48650000D03*
D42*
X213593000Y-60110000D03*
D43*
X214393000Y-60110000D03*
X215193000Y-60110000D03*
X215993000Y-60110000D03*
X216793000Y-60110000D03*
X217593000Y-60110000D03*
X218393000Y-60110000D03*
X219193000Y-60110000D03*
X219993000Y-60110000D03*
X220793000Y-60110000D03*
X221593000Y-60110000D03*
X222393000Y-60110000D03*
X223193000Y-60110000D03*
X223993000Y-60110000D03*
X224793000Y-60110000D03*
X225593000Y-60110000D03*
X226393000Y-60110000D03*
X227193000Y-60110000D03*
X227993000Y-60110000D03*
X228793000Y-60110000D03*
X229593000Y-60110000D03*
X230393000Y-60110000D03*
X231193000Y-60110000D03*
X231993000Y-60110000D03*
X232793000Y-60110000D03*
X233593000Y-60110000D03*
X234393000Y-60110000D03*
X234393000Y-48650000D03*
X233593000Y-48650000D03*
X232793000Y-48650000D03*
X231993000Y-48650000D03*
X231193000Y-48650000D03*
X230393000Y-48650000D03*
X229593000Y-48650000D03*
X228793000Y-48650000D03*
X227993000Y-48650000D03*
X227193000Y-48650000D03*
X226393000Y-48650000D03*
X225593000Y-48650000D03*
X224793000Y-48650000D03*
X223993000Y-48650000D03*
X223193000Y-48650000D03*
X222393000Y-48650000D03*
X221593000Y-48650000D03*
X220793000Y-48650000D03*
X219993000Y-48650000D03*
X219193000Y-48650000D03*
X218393000Y-48650000D03*
X217593000Y-48650000D03*
X216793000Y-48650000D03*
X215993000Y-48650000D03*
X215193000Y-48650000D03*
X214393000Y-48650000D03*
X213593000Y-48650000D03*
D19*
X174590000Y-45241500D03*
X174590000Y-47116500D03*
D14*
X161890000Y-169469500D03*
X161890000Y-167894500D03*
D19*
X161890000Y-224641500D03*
X161890000Y-226516500D03*
D11*
X160450000Y-173290000D03*
X168410000Y-173290000D03*
X160450000Y-177790000D03*
X168410000Y-177790000D03*
D14*
X207864000Y-102938500D03*
X207864000Y-101363500D03*
D25*
X74252000Y-191430000D03*
X73152000Y-191430000D03*
X72052000Y-191430000D03*
X70952000Y-191430000D03*
X69852000Y-191430000D03*
X68752000Y-191430000D03*
X67652000Y-191430000D03*
X66552000Y-191430000D03*
D26*
X76852000Y-181380000D03*
D27*
X77927000Y-195730000D03*
D28*
X64177000Y-184030000D03*
D29*
X76652000Y-191080000D03*
D30*
X65352000Y-190880000D03*
D31*
X67352000Y-180380000D03*
X73352000Y-180380000D03*
D32*
X77927000Y-194030000D03*
X64177000Y-194030000D03*
X64177000Y-185730000D03*
D33*
X76852000Y-185080000D03*
D32*
X77927000Y-185730000D03*
D14*
X58910000Y-169469500D03*
X58910000Y-167894500D03*
D11*
X108610000Y-196840000D03*
X100650000Y-196840000D03*
X108610000Y-192340000D03*
X100650000Y-192340000D03*
D14*
X161890000Y-109669500D03*
X161890000Y-108094500D03*
D12*
X192179500Y-215546000D03*
X194114500Y-215546000D03*
D20*
X199446000Y-36892000D03*
X199946000Y-36892000D03*
X200446000Y-36892000D03*
X200946000Y-36892000D03*
X201446000Y-36892000D03*
X201946000Y-36892000D03*
X202446000Y-36892000D03*
X202946000Y-36892000D03*
X203446000Y-36892000D03*
X203946000Y-36892000D03*
X204446000Y-36892000D03*
X204946000Y-36892000D03*
X205446000Y-36892000D03*
X205946000Y-36892000D03*
X206446000Y-36892000D03*
X206946000Y-36892000D03*
X207446000Y-36892000D03*
X207946000Y-36892000D03*
X208446000Y-36892000D03*
D11*
X171880000Y-113490000D03*
X179840000Y-113490000D03*
X171880000Y-117990000D03*
X179840000Y-117990000D03*
D22*
X81720000Y-134292500D03*
X81720000Y-135867500D03*
D15*
X127520000Y-152180000D03*
X126870000Y-152180000D03*
X126220000Y-152180000D03*
X125570000Y-152180000D03*
X124920000Y-152180000D03*
D16*
X130020000Y-149505000D03*
D17*
X129320000Y-152055000D03*
D18*
X127420000Y-149505000D03*
X125020000Y-149505000D03*
D17*
X123120000Y-152055000D03*
D16*
X122420000Y-149505000D03*
D37*
X238525000Y-128035000D03*
D38*
X238525000Y-127535000D03*
X238525000Y-127035000D03*
X238525000Y-126535000D03*
X238525000Y-126035000D03*
X238525000Y-125535000D03*
X238525000Y-125035000D03*
D39*
X237685000Y-124195000D03*
X237185000Y-124195000D03*
X236685000Y-124195000D03*
X236185000Y-124195000D03*
X235685000Y-124195000D03*
X235185000Y-124195000D03*
X234685000Y-124195000D03*
D38*
X233845000Y-125035000D03*
X233845000Y-125535000D03*
X233845000Y-126035000D03*
X233845000Y-126535000D03*
X233845000Y-127035000D03*
X233845000Y-127535000D03*
X233845000Y-128035000D03*
D39*
X234685000Y-128875000D03*
X235185000Y-128875000D03*
X235685000Y-128875000D03*
X236185000Y-128875000D03*
X236685000Y-128875000D03*
X237185000Y-128875000D03*
X237685000Y-128875000D03*
D40*
X236997500Y-127347500D03*
X236997500Y-125722500D03*
X235372500Y-127347500D03*
X235372500Y-125722500D03*
D11*
X234450000Y-162550000D03*
X226490000Y-162550000D03*
X234450000Y-158050000D03*
X226490000Y-158050000D03*
D23*
X167112000Y-36740000D03*
X162032000Y-36740000D03*
X162032000Y-41140000D03*
X167112000Y-41140000D03*
D19*
X81720000Y-130942500D03*
X81720000Y-132817500D03*
D12*
X188496500Y-36146000D03*
X190431500Y-36146000D03*
D14*
X61450000Y-169469500D03*
X61450000Y-167894500D03*
D21*
X209261000Y-162776000D03*
X209261000Y-161126000D03*
D14*
X204689000Y-43138500D03*
X204689000Y-41563500D03*
D19*
X166970000Y-105041500D03*
X166970000Y-106916500D03*
D14*
X200498000Y-102938500D03*
X200498000Y-101363500D03*
X177130000Y-109669500D03*
X177130000Y-108094500D03*
X100312000Y-43138500D03*
X100312000Y-41563500D03*
D19*
X177130000Y-224641500D03*
X177130000Y-226516500D03*
D14*
X197642800Y-102931100D03*
X197642800Y-101356100D03*
D15*
X69100000Y-152180000D03*
X68450000Y-152180000D03*
X67800000Y-152180000D03*
X67150000Y-152180000D03*
X66500000Y-152180000D03*
D16*
X71600000Y-149505000D03*
D17*
X70900000Y-152055000D03*
D18*
X69000000Y-149505000D03*
X66600000Y-149505000D03*
D17*
X64700000Y-152055000D03*
D16*
X64000000Y-149505000D03*
D19*
X76690000Y-164841500D03*
X76690000Y-166716500D03*
D14*
X199101000Y-162738500D03*
X199101000Y-161163500D03*
X164430000Y-229269500D03*
X164430000Y-227694500D03*
X104884000Y-102938500D03*
X104884000Y-101363500D03*
X76690000Y-229269500D03*
X76690000Y-227694500D03*
D15*
X230500000Y-92380000D03*
X229850000Y-92380000D03*
X229200000Y-92380000D03*
X228550000Y-92380000D03*
X227900000Y-92380000D03*
D16*
X233000000Y-89705000D03*
D17*
X232300000Y-92255000D03*
D18*
X230400000Y-89705000D03*
X228000000Y-89705000D03*
D17*
X226100000Y-92255000D03*
D16*
X225400000Y-89705000D03*
D22*
X84220000Y-253892500D03*
X84220000Y-255467500D03*
D19*
X81720000Y-71142500D03*
X81720000Y-73017500D03*
X166970000Y-224641500D03*
X166970000Y-226516500D03*
X172050000Y-224641500D03*
X172050000Y-226516500D03*
D25*
X177232000Y-251230000D03*
X176132000Y-251230000D03*
X175032000Y-251230000D03*
X173932000Y-251230000D03*
X172832000Y-251230000D03*
X171732000Y-251230000D03*
X170632000Y-251230000D03*
X169532000Y-251230000D03*
D26*
X179832000Y-241180000D03*
D27*
X180907000Y-255530000D03*
D28*
X167157000Y-243830000D03*
D29*
X179632000Y-250880000D03*
D30*
X168332000Y-250680000D03*
D31*
X170332000Y-240180000D03*
X176332000Y-240180000D03*
D32*
X180907000Y-253830000D03*
X167157000Y-253830000D03*
X167157000Y-245530000D03*
D33*
X179832000Y-244880000D03*
D32*
X180907000Y-245530000D03*
D19*
X179670000Y-224641500D03*
X179670000Y-226516500D03*
X169510000Y-224641500D03*
X169510000Y-226516500D03*
X172050000Y-45241500D03*
X172050000Y-47116500D03*
D11*
X112080000Y-183450000D03*
X120040000Y-183450000D03*
X112080000Y-187950000D03*
X120040000Y-187950000D03*
D14*
X98915000Y-102938500D03*
X98915000Y-101363500D03*
X169510000Y-109669500D03*
X169510000Y-108094500D03*
D19*
X169510000Y-105041500D03*
X169510000Y-106916500D03*
D14*
X177130000Y-229269500D03*
X177130000Y-227694500D03*
D19*
X179670000Y-105041500D03*
X179670000Y-106916500D03*
D11*
X223020000Y-77240000D03*
X215060000Y-77240000D03*
X223020000Y-72740000D03*
X215060000Y-72740000D03*
D14*
X69070000Y-169469500D03*
X69070000Y-167894500D03*
D12*
X85516500Y-36146000D03*
X87451500Y-36146000D03*
D42*
X213593000Y-239510000D03*
D43*
X214393000Y-239510000D03*
X215193000Y-239510000D03*
X215993000Y-239510000D03*
X216793000Y-239510000D03*
X217593000Y-239510000D03*
X218393000Y-239510000D03*
X219193000Y-239510000D03*
X219993000Y-239510000D03*
X220793000Y-239510000D03*
X221593000Y-239510000D03*
X222393000Y-239510000D03*
X223193000Y-239510000D03*
X223993000Y-239510000D03*
X224793000Y-239510000D03*
X225593000Y-239510000D03*
X226393000Y-239510000D03*
X227193000Y-239510000D03*
X227993000Y-239510000D03*
X228793000Y-239510000D03*
X229593000Y-239510000D03*
X230393000Y-239510000D03*
X231193000Y-239510000D03*
X231993000Y-239510000D03*
X232793000Y-239510000D03*
X233593000Y-239510000D03*
X234393000Y-239510000D03*
X234393000Y-228050000D03*
X233593000Y-228050000D03*
X232793000Y-228050000D03*
X231993000Y-228050000D03*
X231193000Y-228050000D03*
X230393000Y-228050000D03*
X229593000Y-228050000D03*
X228793000Y-228050000D03*
X227993000Y-228050000D03*
X227193000Y-228050000D03*
X226393000Y-228050000D03*
X225593000Y-228050000D03*
X224793000Y-228050000D03*
X223993000Y-228050000D03*
X223193000Y-228050000D03*
X222393000Y-228050000D03*
X221593000Y-228050000D03*
X220793000Y-228050000D03*
X219993000Y-228050000D03*
X219193000Y-228050000D03*
X218393000Y-228050000D03*
X217593000Y-228050000D03*
X216793000Y-228050000D03*
X215993000Y-228050000D03*
X215193000Y-228050000D03*
X214393000Y-228050000D03*
X213593000Y-228050000D03*
D14*
X203292000Y-222538500D03*
X203292000Y-220963500D03*
X231867000Y-64474500D03*
X231867000Y-62899500D03*
D11*
X211590000Y-77240000D03*
X203630000Y-77240000D03*
X211590000Y-72740000D03*
X203630000Y-72740000D03*
X131470000Y-137040000D03*
X123510000Y-137040000D03*
X131470000Y-132540000D03*
X123510000Y-132540000D03*
D14*
X172050000Y-109669500D03*
X172050000Y-108094500D03*
D22*
X187200000Y-194092500D03*
X187200000Y-195667500D03*
D14*
X74150000Y-49869500D03*
X74150000Y-48294500D03*
X61450000Y-49869500D03*
X61450000Y-48294500D03*
D37*
X238525000Y-68235000D03*
D38*
X238525000Y-67735000D03*
X238525000Y-67235000D03*
X238525000Y-66735000D03*
X238525000Y-66235000D03*
X238525000Y-65735000D03*
X238525000Y-65235000D03*
D39*
X237685000Y-64395000D03*
X237185000Y-64395000D03*
X236685000Y-64395000D03*
X236185000Y-64395000D03*
X235685000Y-64395000D03*
X235185000Y-64395000D03*
X234685000Y-64395000D03*
D38*
X233845000Y-65235000D03*
X233845000Y-65735000D03*
X233845000Y-66235000D03*
X233845000Y-66735000D03*
X233845000Y-67235000D03*
X233845000Y-67735000D03*
X233845000Y-68235000D03*
D39*
X234685000Y-69075000D03*
X235185000Y-69075000D03*
X235685000Y-69075000D03*
X236185000Y-69075000D03*
X236685000Y-69075000D03*
X237185000Y-69075000D03*
X237685000Y-69075000D03*
D40*
X236997500Y-67547500D03*
X236997500Y-65922500D03*
X235372500Y-67547500D03*
X235372500Y-65922500D03*
D19*
X164445000Y-105041500D03*
X164445000Y-106916500D03*
D12*
X85516500Y-95946000D03*
X87451500Y-95946000D03*
D14*
X207864000Y-222538500D03*
X207864000Y-220963500D03*
X66530000Y-229269500D03*
X66530000Y-227694500D03*
D11*
X160450000Y-53690000D03*
X168410000Y-53690000D03*
X160450000Y-58190000D03*
X168410000Y-58190000D03*
D19*
X179670000Y-164841500D03*
X179670000Y-166716500D03*
X69070000Y-105041500D03*
X69070000Y-106916500D03*
D11*
X223020000Y-196840000D03*
X215060000Y-196840000D03*
X223020000Y-192340000D03*
X215060000Y-192340000D03*
D23*
X167112000Y-96540000D03*
X162032000Y-96540000D03*
X162032000Y-100940000D03*
X167112000Y-100940000D03*
D19*
X161890000Y-105041500D03*
X161890000Y-106916500D03*
X177130000Y-45241500D03*
X177130000Y-47116500D03*
X69070000Y-45241500D03*
X69070000Y-47116500D03*
D14*
X103487000Y-162726500D03*
X103487000Y-161151500D03*
D19*
X61465000Y-224641500D03*
X61465000Y-226516500D03*
X164445000Y-45241500D03*
X164445000Y-47116500D03*
D21*
X107678000Y-43176000D03*
X107678000Y-41526000D03*
D14*
X103487000Y-102926500D03*
X103487000Y-101351500D03*
D19*
X66530000Y-105041500D03*
X66530000Y-106916500D03*
X66530000Y-224641500D03*
X66530000Y-226516500D03*
D14*
X179670000Y-109669500D03*
X179670000Y-108094500D03*
D21*
X107678000Y-102976000D03*
X107678000Y-101326000D03*
D22*
X128887000Y-128922500D03*
X128887000Y-130497500D03*
D41*
X215230000Y-164605000D03*
X217770000Y-164605000D03*
X220310000Y-164605000D03*
X222850000Y-164605000D03*
X222850000Y-155995000D03*
X220310000Y-155995000D03*
X217770000Y-155995000D03*
X215230000Y-155995000D03*
D12*
X89199500Y-155746000D03*
X91134500Y-155746000D03*
D15*
X127520000Y-32580000D03*
X126870000Y-32580000D03*
X126220000Y-32580000D03*
X125570000Y-32580000D03*
X124920000Y-32580000D03*
D16*
X130020000Y-29905000D03*
D17*
X129320000Y-32455000D03*
D18*
X127420000Y-29905000D03*
X125020000Y-29905000D03*
D17*
X123120000Y-32455000D03*
D16*
X122420000Y-29905000D03*
D41*
X112250000Y-45005000D03*
X114790000Y-45005000D03*
X117330000Y-45005000D03*
X119870000Y-45005000D03*
X119870000Y-36395000D03*
X117330000Y-36395000D03*
X114790000Y-36395000D03*
X112250000Y-36395000D03*
D22*
X187200000Y-134292500D03*
X187200000Y-135867500D03*
D34*
X76588000Y-89080000D03*
D35*
X76588000Y-101280000D03*
D36*
X84188000Y-93780000D03*
X76588000Y-91880000D03*
D35*
X81138000Y-105380000D03*
D34*
X84188000Y-90980000D03*
D14*
X86720000Y-195667500D03*
X86720000Y-194092500D03*
X166970000Y-49869500D03*
X166970000Y-48294500D03*
X174590000Y-229269500D03*
X174590000Y-227694500D03*
X172050000Y-169469500D03*
X172050000Y-167894500D03*
D19*
X63990000Y-224641500D03*
X63990000Y-226516500D03*
D11*
X68900000Y-233090000D03*
X76860000Y-233090000D03*
X68900000Y-237590000D03*
X76860000Y-237590000D03*
D14*
X174590000Y-169469500D03*
X174590000Y-167894500D03*
D23*
X64132000Y-216140000D03*
X59052000Y-216140000D03*
X59052000Y-220540000D03*
X64132000Y-220540000D03*
D42*
X110613000Y-119910000D03*
D43*
X111413000Y-119910000D03*
X112213000Y-119910000D03*
X113013000Y-119910000D03*
X113813000Y-119910000D03*
X114613000Y-119910000D03*
X115413000Y-119910000D03*
X116213000Y-119910000D03*
X117013000Y-119910000D03*
X117813000Y-119910000D03*
X118613000Y-119910000D03*
X119413000Y-119910000D03*
X120213000Y-119910000D03*
X121013000Y-119910000D03*
X121813000Y-119910000D03*
X122613000Y-119910000D03*
X123413000Y-119910000D03*
X124213000Y-119910000D03*
X125013000Y-119910000D03*
X125813000Y-119910000D03*
X126613000Y-119910000D03*
X127413000Y-119910000D03*
X128213000Y-119910000D03*
X129013000Y-119910000D03*
X129813000Y-119910000D03*
X130613000Y-119910000D03*
X131413000Y-119910000D03*
X131413000Y-108450000D03*
X130613000Y-108450000D03*
X129813000Y-108450000D03*
X129013000Y-108450000D03*
X128213000Y-108450000D03*
X127413000Y-108450000D03*
X126613000Y-108450000D03*
X125813000Y-108450000D03*
X125013000Y-108450000D03*
X124213000Y-108450000D03*
X123413000Y-108450000D03*
X122613000Y-108450000D03*
X121813000Y-108450000D03*
X121013000Y-108450000D03*
X120213000Y-108450000D03*
X119413000Y-108450000D03*
X118613000Y-108450000D03*
X117813000Y-108450000D03*
X117013000Y-108450000D03*
X116213000Y-108450000D03*
X115413000Y-108450000D03*
X114613000Y-108450000D03*
X113813000Y-108450000D03*
X113013000Y-108450000D03*
X112213000Y-108450000D03*
X111413000Y-108450000D03*
X110613000Y-108450000D03*
D34*
X179568000Y-29280000D03*
D35*
X179568000Y-41480000D03*
D36*
X187168000Y-33980000D03*
X179568000Y-32080000D03*
D35*
X184118000Y-45580000D03*
D34*
X187168000Y-31180000D03*
D14*
X166970000Y-169469500D03*
X166970000Y-167894500D03*
X166970000Y-109669500D03*
X166970000Y-108094500D03*
X63990000Y-109669500D03*
X63990000Y-108094500D03*
D41*
X215230000Y-104805000D03*
X217770000Y-104805000D03*
X220310000Y-104805000D03*
X222850000Y-104805000D03*
X222850000Y-96195000D03*
X220310000Y-96195000D03*
X217770000Y-96195000D03*
X215230000Y-96195000D03*
D14*
X203292000Y-162738500D03*
X203292000Y-161163500D03*
D11*
X234450000Y-77240000D03*
X226490000Y-77240000D03*
X234450000Y-72740000D03*
X226490000Y-72740000D03*
D21*
X106281000Y-43176000D03*
X106281000Y-41526000D03*
D14*
X76690000Y-49869500D03*
X76690000Y-48294500D03*
D22*
X81720000Y-253892500D03*
X81720000Y-255467500D03*
D11*
X234450000Y-137040000D03*
X226490000Y-137040000D03*
X234450000Y-132540000D03*
X226490000Y-132540000D03*
D21*
X107678000Y-162776000D03*
X107678000Y-161126000D03*
D14*
X206467000Y-162726500D03*
X206467000Y-161151500D03*
D21*
X210658000Y-102976000D03*
X210658000Y-101326000D03*
D11*
X160450000Y-233090000D03*
X168410000Y-233090000D03*
X160450000Y-237590000D03*
X168410000Y-237590000D03*
D19*
X166970000Y-45241500D03*
X166970000Y-47116500D03*
X184700000Y-71142500D03*
X184700000Y-73017500D03*
D13*
X187200000Y-132817500D03*
X187200000Y-130942500D03*
D14*
X200498000Y-222538500D03*
X200498000Y-220963500D03*
D15*
X230500000Y-152180000D03*
X229850000Y-152180000D03*
X229200000Y-152180000D03*
X228550000Y-152180000D03*
X227900000Y-152180000D03*
D16*
X233000000Y-149505000D03*
D17*
X232300000Y-152055000D03*
D18*
X230400000Y-149505000D03*
X228000000Y-149505000D03*
D17*
X226100000Y-152055000D03*
D16*
X225400000Y-149505000D03*
D14*
X203292000Y-102938500D03*
X203292000Y-101363500D03*
X69070000Y-109669500D03*
X69070000Y-108094500D03*
D11*
X131470000Y-256640000D03*
X123510000Y-256640000D03*
X131470000Y-252140000D03*
X123510000Y-252140000D03*
D13*
X187200000Y-252417500D03*
X187200000Y-250542500D03*
D19*
X184700000Y-130942500D03*
X184700000Y-132817500D03*
D41*
X112250000Y-104805000D03*
X114790000Y-104805000D03*
X117330000Y-104805000D03*
X119870000Y-104805000D03*
X119870000Y-96195000D03*
X117330000Y-96195000D03*
X114790000Y-96195000D03*
X112250000Y-96195000D03*
D14*
X197642800Y-43131100D03*
X197642800Y-41556100D03*
D11*
X234450000Y-42950000D03*
X226490000Y-42950000D03*
X234450000Y-38450000D03*
X226490000Y-38450000D03*
D19*
X184700000Y-250542500D03*
X184700000Y-252417500D03*
D14*
X103487000Y-222526500D03*
X103487000Y-220951500D03*
D11*
X57470000Y-233090000D03*
X65430000Y-233090000D03*
X57470000Y-237590000D03*
X65430000Y-237590000D03*
D14*
X189700000Y-195667500D03*
X189700000Y-194092500D03*
D22*
X187200000Y-253892500D03*
X187200000Y-255467500D03*
D14*
X161890000Y-49869500D03*
X161890000Y-48294500D03*
X63990000Y-49869500D03*
X63990000Y-48294500D03*
X104884000Y-222538500D03*
X104884000Y-220963500D03*
X94662800Y-102931100D03*
X94662800Y-101356100D03*
D37*
X238525000Y-247635000D03*
D38*
X238525000Y-247135000D03*
X238525000Y-246635000D03*
X238525000Y-246135000D03*
X238525000Y-245635000D03*
X238525000Y-245135000D03*
X238525000Y-244635000D03*
D39*
X237685000Y-243795000D03*
X237185000Y-243795000D03*
X236685000Y-243795000D03*
X236185000Y-243795000D03*
X235685000Y-243795000D03*
X235185000Y-243795000D03*
X234685000Y-243795000D03*
D38*
X233845000Y-244635000D03*
X233845000Y-245135000D03*
X233845000Y-245635000D03*
X233845000Y-246135000D03*
X233845000Y-246635000D03*
X233845000Y-247135000D03*
X233845000Y-247635000D03*
D39*
X234685000Y-248475000D03*
X235185000Y-248475000D03*
X235685000Y-248475000D03*
X236185000Y-248475000D03*
X236685000Y-248475000D03*
X237185000Y-248475000D03*
X237685000Y-248475000D03*
D40*
X236997500Y-246947500D03*
X236997500Y-245322500D03*
X235372500Y-246947500D03*
X235372500Y-245322500D03*
D15*
X172080000Y-152180000D03*
X171430000Y-152180000D03*
X170780000Y-152180000D03*
X170130000Y-152180000D03*
X169480000Y-152180000D03*
D16*
X174580000Y-149505000D03*
D17*
X173880000Y-152055000D03*
D18*
X171980000Y-149505000D03*
X169580000Y-149505000D03*
D17*
X167680000Y-152055000D03*
D16*
X166980000Y-149505000D03*
D11*
X108610000Y-256640000D03*
X100650000Y-256640000D03*
X108610000Y-252140000D03*
X100650000Y-252140000D03*
X68900000Y-113490000D03*
X76860000Y-113490000D03*
X68900000Y-117990000D03*
X76860000Y-117990000D03*
D22*
X84220000Y-74492500D03*
X84220000Y-76067500D03*
D42*
X213593000Y-179710000D03*
D43*
X214393000Y-179710000D03*
X215193000Y-179710000D03*
X215993000Y-179710000D03*
X216793000Y-179710000D03*
X217593000Y-179710000D03*
X218393000Y-179710000D03*
X219193000Y-179710000D03*
X219993000Y-179710000D03*
X220793000Y-179710000D03*
X221593000Y-179710000D03*
X222393000Y-179710000D03*
X223193000Y-179710000D03*
X223993000Y-179710000D03*
X224793000Y-179710000D03*
X225593000Y-179710000D03*
X226393000Y-179710000D03*
X227193000Y-179710000D03*
X227993000Y-179710000D03*
X228793000Y-179710000D03*
X229593000Y-179710000D03*
X230393000Y-179710000D03*
X231193000Y-179710000D03*
X231993000Y-179710000D03*
X232793000Y-179710000D03*
X233593000Y-179710000D03*
X234393000Y-179710000D03*
X234393000Y-168250000D03*
X233593000Y-168250000D03*
X232793000Y-168250000D03*
X231993000Y-168250000D03*
X231193000Y-168250000D03*
X230393000Y-168250000D03*
X229593000Y-168250000D03*
X228793000Y-168250000D03*
X227993000Y-168250000D03*
X227193000Y-168250000D03*
X226393000Y-168250000D03*
X225593000Y-168250000D03*
X224793000Y-168250000D03*
X223993000Y-168250000D03*
X223193000Y-168250000D03*
X222393000Y-168250000D03*
X221593000Y-168250000D03*
X220793000Y-168250000D03*
X219993000Y-168250000D03*
X219193000Y-168250000D03*
X218393000Y-168250000D03*
X217593000Y-168250000D03*
X216793000Y-168250000D03*
X215993000Y-168250000D03*
X215193000Y-168250000D03*
X214393000Y-168250000D03*
X213593000Y-168250000D03*
D42*
X213593000Y-119910000D03*
D43*
X214393000Y-119910000D03*
X215193000Y-119910000D03*
X215993000Y-119910000D03*
X216793000Y-119910000D03*
X217593000Y-119910000D03*
X218393000Y-119910000D03*
X219193000Y-119910000D03*
X219993000Y-119910000D03*
X220793000Y-119910000D03*
X221593000Y-119910000D03*
X222393000Y-119910000D03*
X223193000Y-119910000D03*
X223993000Y-119910000D03*
X224793000Y-119910000D03*
X225593000Y-119910000D03*
X226393000Y-119910000D03*
X227193000Y-119910000D03*
X227993000Y-119910000D03*
X228793000Y-119910000D03*
X229593000Y-119910000D03*
X230393000Y-119910000D03*
X231193000Y-119910000D03*
X231993000Y-119910000D03*
X232793000Y-119910000D03*
X233593000Y-119910000D03*
X234393000Y-119910000D03*
X234393000Y-108450000D03*
X233593000Y-108450000D03*
X232793000Y-108450000D03*
X231993000Y-108450000D03*
X231193000Y-108450000D03*
X230393000Y-108450000D03*
X229593000Y-108450000D03*
X228793000Y-108450000D03*
X227993000Y-108450000D03*
X227193000Y-108450000D03*
X226393000Y-108450000D03*
X225593000Y-108450000D03*
X224793000Y-108450000D03*
X223993000Y-108450000D03*
X223193000Y-108450000D03*
X222393000Y-108450000D03*
X221593000Y-108450000D03*
X220793000Y-108450000D03*
X219993000Y-108450000D03*
X219193000Y-108450000D03*
X218393000Y-108450000D03*
X217593000Y-108450000D03*
X216793000Y-108450000D03*
X215993000Y-108450000D03*
X215193000Y-108450000D03*
X214393000Y-108450000D03*
X213593000Y-108450000D03*
D13*
X86720000Y-132817500D03*
X86720000Y-130942500D03*
D21*
X107678000Y-222576000D03*
X107678000Y-220926000D03*
D34*
X179568000Y-148880000D03*
D35*
X179568000Y-161080000D03*
D36*
X187168000Y-153580000D03*
X179568000Y-151680000D03*
D35*
X184118000Y-165180000D03*
D34*
X187168000Y-150780000D03*
D19*
X71610000Y-164841500D03*
X71610000Y-166716500D03*
D15*
X69100000Y-32580000D03*
X68450000Y-32580000D03*
X67800000Y-32580000D03*
X67150000Y-32580000D03*
X66500000Y-32580000D03*
D16*
X71600000Y-29905000D03*
D17*
X70900000Y-32455000D03*
D18*
X69000000Y-29905000D03*
X66600000Y-29905000D03*
D17*
X64700000Y-32455000D03*
D16*
X64000000Y-29905000D03*
D41*
X112250000Y-164605000D03*
X114790000Y-164605000D03*
X117330000Y-164605000D03*
X119870000Y-164605000D03*
X119870000Y-155995000D03*
X117330000Y-155995000D03*
X114790000Y-155995000D03*
X112250000Y-155995000D03*
X215230000Y-224405000D03*
X217770000Y-224405000D03*
X220310000Y-224405000D03*
X222850000Y-224405000D03*
X222850000Y-215795000D03*
X220310000Y-215795000D03*
X217770000Y-215795000D03*
X215230000Y-215795000D03*
D13*
X84220000Y-192617500D03*
X84220000Y-190742500D03*
D23*
X167112000Y-156340000D03*
X162032000Y-156340000D03*
X162032000Y-160740000D03*
X167112000Y-160740000D03*
D19*
X179670000Y-45241500D03*
X179670000Y-47116500D03*
D14*
X58910000Y-49869500D03*
X58910000Y-48294500D03*
X206467000Y-43126500D03*
X206467000Y-41551500D03*
D19*
X164445000Y-164841500D03*
X164445000Y-166716500D03*
D14*
X104884000Y-43138500D03*
X104884000Y-41563500D03*
D24*
X190580000Y-226180000D03*
X191380000Y-226180000D03*
X192180000Y-226180000D03*
X192980000Y-226180000D03*
X193780000Y-226180000D03*
X194580000Y-226180000D03*
X195380000Y-226180000D03*
X196180000Y-226180000D03*
X196980000Y-226180000D03*
X197780000Y-226180000D03*
X198580000Y-226180000D03*
X199380000Y-226180000D03*
X200180000Y-226180000D03*
X200980000Y-226180000D03*
X201780000Y-226180000D03*
X202580000Y-226180000D03*
X203380000Y-226180000D03*
X204180000Y-226180000D03*
X189780000Y-226980000D03*
X190580000Y-226980000D03*
X191380000Y-226980000D03*
X192180000Y-226980000D03*
X192980000Y-226980000D03*
X193780000Y-226980000D03*
X194580000Y-226980000D03*
X195380000Y-226980000D03*
X196180000Y-226980000D03*
X196980000Y-226980000D03*
X197780000Y-226980000D03*
X198580000Y-226980000D03*
X199380000Y-226980000D03*
X200180000Y-226980000D03*
X200980000Y-226980000D03*
X201780000Y-226980000D03*
X202580000Y-226980000D03*
X203380000Y-226980000D03*
X204180000Y-226980000D03*
X204980000Y-226980000D03*
X189780000Y-227780000D03*
X190580000Y-227780000D03*
X191380000Y-227780000D03*
X192180000Y-227780000D03*
X192980000Y-227780000D03*
X193780000Y-227780000D03*
X194580000Y-227780000D03*
X195380000Y-227780000D03*
X196180000Y-227780000D03*
X196980000Y-227780000D03*
X197780000Y-227780000D03*
X198580000Y-227780000D03*
X199380000Y-227780000D03*
X200180000Y-227780000D03*
X200980000Y-227780000D03*
X201780000Y-227780000D03*
X202580000Y-227780000D03*
X203380000Y-227780000D03*
X204180000Y-227780000D03*
X204980000Y-227780000D03*
X189780000Y-228580000D03*
X190580000Y-228580000D03*
X191380000Y-228580000D03*
X192180000Y-228580000D03*
X192980000Y-228580000D03*
X193780000Y-228580000D03*
X194580000Y-228580000D03*
X195380000Y-228580000D03*
X196180000Y-228580000D03*
X196980000Y-228580000D03*
X197780000Y-228580000D03*
X198580000Y-228580000D03*
X199380000Y-228580000D03*
X200180000Y-228580000D03*
X200980000Y-228580000D03*
X201780000Y-228580000D03*
X202580000Y-228580000D03*
X203380000Y-228580000D03*
X204180000Y-228580000D03*
X204980000Y-228580000D03*
X189780000Y-229380000D03*
X190580000Y-229380000D03*
X191380000Y-229380000D03*
X192180000Y-229380000D03*
X192980000Y-229380000D03*
X193780000Y-229380000D03*
X194580000Y-229380000D03*
X195380000Y-229380000D03*
X196180000Y-229380000D03*
X196980000Y-229380000D03*
X197780000Y-229380000D03*
X198580000Y-229380000D03*
X199380000Y-229380000D03*
X200180000Y-229380000D03*
X200980000Y-229380000D03*
X201780000Y-229380000D03*
X202580000Y-229380000D03*
X203380000Y-229380000D03*
X204180000Y-229380000D03*
X204980000Y-229380000D03*
X189780000Y-230180000D03*
X190580000Y-230180000D03*
X191380000Y-230180000D03*
X192180000Y-230180000D03*
X192980000Y-230180000D03*
X193780000Y-230180000D03*
X194580000Y-230180000D03*
X195380000Y-230180000D03*
X196180000Y-230180000D03*
X196980000Y-230180000D03*
X197780000Y-230180000D03*
X198580000Y-230180000D03*
X199380000Y-230180000D03*
X200180000Y-230180000D03*
X200980000Y-230180000D03*
X201780000Y-230180000D03*
X202580000Y-230180000D03*
X203380000Y-230180000D03*
X204180000Y-230180000D03*
X204980000Y-230180000D03*
X189780000Y-230980000D03*
X190580000Y-230980000D03*
X191380000Y-230980000D03*
X192180000Y-230980000D03*
X192980000Y-230980000D03*
X193780000Y-230980000D03*
X194580000Y-230980000D03*
X195380000Y-230980000D03*
X196180000Y-230980000D03*
X196980000Y-230980000D03*
X197780000Y-230980000D03*
X198580000Y-230980000D03*
X199380000Y-230980000D03*
X200180000Y-230980000D03*
X200980000Y-230980000D03*
X201780000Y-230980000D03*
X202580000Y-230980000D03*
X203380000Y-230980000D03*
X204180000Y-230980000D03*
X204980000Y-230980000D03*
X189780000Y-231780000D03*
X190580000Y-231780000D03*
X191380000Y-231780000D03*
X192180000Y-231780000D03*
X192980000Y-231780000D03*
X193780000Y-231780000D03*
X194580000Y-231780000D03*
X195380000Y-231780000D03*
X196180000Y-231780000D03*
X196980000Y-231780000D03*
X197780000Y-231780000D03*
X198580000Y-231780000D03*
X199380000Y-231780000D03*
X200180000Y-231780000D03*
X200980000Y-231780000D03*
X201780000Y-231780000D03*
X202580000Y-231780000D03*
X203380000Y-231780000D03*
X204180000Y-231780000D03*
X204980000Y-231780000D03*
X189780000Y-232580000D03*
X190580000Y-232580000D03*
X191380000Y-232580000D03*
X192180000Y-232580000D03*
X192980000Y-232580000D03*
X193780000Y-232580000D03*
X194580000Y-232580000D03*
X195380000Y-232580000D03*
X196180000Y-232580000D03*
X196980000Y-232580000D03*
X197780000Y-232580000D03*
X198580000Y-232580000D03*
X199380000Y-232580000D03*
X200180000Y-232580000D03*
X200980000Y-232580000D03*
X201780000Y-232580000D03*
X202580000Y-232580000D03*
X203380000Y-232580000D03*
X204180000Y-232580000D03*
X204980000Y-232580000D03*
X189780000Y-233380000D03*
X190580000Y-233380000D03*
X191380000Y-233380000D03*
X192180000Y-233380000D03*
X192980000Y-233380000D03*
X193780000Y-233380000D03*
X194580000Y-233380000D03*
X195380000Y-233380000D03*
X196180000Y-233380000D03*
X196980000Y-233380000D03*
X197780000Y-233380000D03*
X198580000Y-233380000D03*
X199380000Y-233380000D03*
X200180000Y-233380000D03*
X200980000Y-233380000D03*
X201780000Y-233380000D03*
X202580000Y-233380000D03*
X203380000Y-233380000D03*
X204180000Y-233380000D03*
X204980000Y-233380000D03*
X189780000Y-234180000D03*
X190580000Y-234180000D03*
X191380000Y-234180000D03*
X192180000Y-234180000D03*
X192980000Y-234180000D03*
X193780000Y-234180000D03*
X194580000Y-234180000D03*
X195380000Y-234180000D03*
X196180000Y-234180000D03*
X196980000Y-234180000D03*
X197780000Y-234180000D03*
X198580000Y-234180000D03*
X199380000Y-234180000D03*
X200180000Y-234180000D03*
X200980000Y-234180000D03*
X201780000Y-234180000D03*
X202580000Y-234180000D03*
X203380000Y-234180000D03*
X204180000Y-234180000D03*
X204980000Y-234180000D03*
X189780000Y-234980000D03*
X190580000Y-234980000D03*
X191380000Y-234980000D03*
X192180000Y-234980000D03*
X192980000Y-234980000D03*
X193780000Y-234980000D03*
X194580000Y-234980000D03*
X195380000Y-234980000D03*
X196180000Y-234980000D03*
X196980000Y-234980000D03*
X197780000Y-234980000D03*
X198580000Y-234980000D03*
X199380000Y-234980000D03*
X200180000Y-234980000D03*
X200980000Y-234980000D03*
X201780000Y-234980000D03*
X202580000Y-234980000D03*
X203380000Y-234980000D03*
X204180000Y-234980000D03*
X204980000Y-234980000D03*
X189780000Y-235780000D03*
X190580000Y-235780000D03*
X191380000Y-235780000D03*
X192180000Y-235780000D03*
X192980000Y-235780000D03*
X193780000Y-235780000D03*
X194580000Y-235780000D03*
X195380000Y-235780000D03*
X196180000Y-235780000D03*
X196980000Y-235780000D03*
X197780000Y-235780000D03*
X198580000Y-235780000D03*
X199380000Y-235780000D03*
X200180000Y-235780000D03*
X200980000Y-235780000D03*
X201780000Y-235780000D03*
X202580000Y-235780000D03*
X203380000Y-235780000D03*
X204180000Y-235780000D03*
X204980000Y-235780000D03*
X189780000Y-236580000D03*
X190580000Y-236580000D03*
X191380000Y-236580000D03*
X192180000Y-236580000D03*
X192980000Y-236580000D03*
X193780000Y-236580000D03*
X194580000Y-236580000D03*
X195380000Y-236580000D03*
X196180000Y-236580000D03*
X196980000Y-236580000D03*
X197780000Y-236580000D03*
X198580000Y-236580000D03*
X199380000Y-236580000D03*
X200180000Y-236580000D03*
X200980000Y-236580000D03*
X201780000Y-236580000D03*
X202580000Y-236580000D03*
X203380000Y-236580000D03*
X204180000Y-236580000D03*
X204980000Y-236580000D03*
X189780000Y-237380000D03*
X190580000Y-237380000D03*
X191380000Y-237380000D03*
X192180000Y-237380000D03*
X192980000Y-237380000D03*
X201780000Y-237380000D03*
X202580000Y-237380000D03*
X203380000Y-237380000D03*
X204180000Y-237380000D03*
X204980000Y-237380000D03*
X189780000Y-238180000D03*
X190580000Y-238180000D03*
X191380000Y-238180000D03*
X192180000Y-238180000D03*
X192980000Y-238180000D03*
X193780000Y-238180000D03*
X194580000Y-238180000D03*
X195380000Y-238180000D03*
X196180000Y-238180000D03*
X196980000Y-238180000D03*
X197780000Y-238180000D03*
X198580000Y-238180000D03*
X199380000Y-238180000D03*
X200180000Y-238180000D03*
X200980000Y-238180000D03*
X201780000Y-238180000D03*
X202580000Y-238180000D03*
X203380000Y-238180000D03*
X204180000Y-238180000D03*
X204980000Y-238180000D03*
X189780000Y-238980000D03*
X190580000Y-238980000D03*
X191380000Y-238980000D03*
X192180000Y-238980000D03*
X192980000Y-238980000D03*
X193780000Y-238980000D03*
X194580000Y-238980000D03*
X195380000Y-238980000D03*
X196180000Y-238980000D03*
X196980000Y-238980000D03*
X197780000Y-238980000D03*
X198580000Y-238980000D03*
X199380000Y-238980000D03*
X200180000Y-238980000D03*
X200980000Y-238980000D03*
X201780000Y-238980000D03*
X202580000Y-238980000D03*
X203380000Y-238980000D03*
X204180000Y-238980000D03*
X204980000Y-238980000D03*
X189780000Y-239780000D03*
X190580000Y-239780000D03*
X191380000Y-239780000D03*
X192180000Y-239780000D03*
X192980000Y-239780000D03*
X193780000Y-239780000D03*
X194580000Y-239780000D03*
X195380000Y-239780000D03*
X196180000Y-239780000D03*
X196980000Y-239780000D03*
X197780000Y-239780000D03*
X198580000Y-239780000D03*
X199380000Y-239780000D03*
X200180000Y-239780000D03*
X200980000Y-239780000D03*
X201780000Y-239780000D03*
X202580000Y-239780000D03*
X203380000Y-239780000D03*
X204180000Y-239780000D03*
X204980000Y-239780000D03*
X189780000Y-240580000D03*
X190580000Y-240580000D03*
X191380000Y-240580000D03*
X192180000Y-240580000D03*
X192980000Y-240580000D03*
X193780000Y-240580000D03*
X194580000Y-240580000D03*
X195380000Y-240580000D03*
X196180000Y-240580000D03*
X196980000Y-240580000D03*
X197780000Y-240580000D03*
X198580000Y-240580000D03*
X199380000Y-240580000D03*
X200180000Y-240580000D03*
X200980000Y-240580000D03*
X201780000Y-240580000D03*
X202580000Y-240580000D03*
X203380000Y-240580000D03*
X204180000Y-240580000D03*
X204980000Y-240580000D03*
X190580000Y-241380000D03*
X191380000Y-241380000D03*
X192980000Y-241380000D03*
X193780000Y-241380000D03*
X194580000Y-241380000D03*
X195380000Y-241380000D03*
X197780000Y-241380000D03*
X198580000Y-241380000D03*
X200180000Y-241380000D03*
X200980000Y-241380000D03*
X201780000Y-241380000D03*
X202580000Y-241380000D03*
X204180000Y-241380000D03*
D12*
X192179500Y-95946000D03*
X194114500Y-95946000D03*
D14*
X96121000Y-162738500D03*
X96121000Y-161163500D03*
D19*
X61465000Y-164841500D03*
X61465000Y-166716500D03*
D11*
X57470000Y-173290000D03*
X65430000Y-173290000D03*
X57470000Y-177790000D03*
X65430000Y-177790000D03*
X171880000Y-173290000D03*
X179840000Y-173290000D03*
X171880000Y-177790000D03*
X179840000Y-177790000D03*
D14*
X197642800Y-222531100D03*
X197642800Y-220956100D03*
X71610000Y-109669500D03*
X71610000Y-108094500D03*
X199101000Y-102938500D03*
X199101000Y-101363500D03*
D20*
X199446000Y-96692000D03*
X199946000Y-96692000D03*
X200446000Y-96692000D03*
X200946000Y-96692000D03*
X201446000Y-96692000D03*
X201946000Y-96692000D03*
X202446000Y-96692000D03*
X202946000Y-96692000D03*
X203446000Y-96692000D03*
X203946000Y-96692000D03*
X204446000Y-96692000D03*
X204946000Y-96692000D03*
X205446000Y-96692000D03*
X205946000Y-96692000D03*
X206446000Y-96692000D03*
X206946000Y-96692000D03*
X207446000Y-96692000D03*
X207946000Y-96692000D03*
X208446000Y-96692000D03*
M02*
