G04 #@! TF.GenerationSoftware,KiCad,Pcbnew,7.0.2*
G04 #@! TF.CreationDate,2023-07-26T12:10:10+02:00*
G04 #@! TF.ProjectId,ulx3s_panel,756c7833-735f-4706-916e-656c2e6b6963,v3.1.8*
G04 #@! TF.SameCoordinates,Original*
G04 #@! TF.FileFunction,Other,Comment*
%FSLAX46Y46*%
G04 Gerber Fmt 4.6, Leading zero omitted, Abs format (unit mm)*
G04 Created by KiCad (PCBNEW 7.0.2) date 2023-07-26 12:10:10*
%MOMM*%
%LPD*%
G01*
G04 APERTURE LIST*
%ADD10C,0.400000*%
G04 APERTURE END LIST*
D10*
X246980000Y-17000000D02*
X246980000Y-269200000D01*
X50020000Y-17000000D02*
X50020000Y-269200000D01*
X144000000Y-17000000D02*
X144000000Y-269200000D01*
X153000000Y-17000000D02*
X153000000Y-269200000D01*
X48945238Y-13809523D02*
X50945238Y-13142857D01*
X50945238Y-13142857D02*
X48945238Y-12476190D01*
X50183333Y-11809523D02*
X50183333Y-10285714D01*
X50754761Y-8190476D02*
X50850000Y-8285714D01*
X50850000Y-8285714D02*
X50945238Y-8571428D01*
X50945238Y-8571428D02*
X50945238Y-8761904D01*
X50945238Y-8761904D02*
X50850000Y-9047619D01*
X50850000Y-9047619D02*
X50659523Y-9238095D01*
X50659523Y-9238095D02*
X50469047Y-9333333D01*
X50469047Y-9333333D02*
X50088095Y-9428571D01*
X50088095Y-9428571D02*
X49802380Y-9428571D01*
X49802380Y-9428571D02*
X49421428Y-9333333D01*
X49421428Y-9333333D02*
X49230952Y-9238095D01*
X49230952Y-9238095D02*
X49040476Y-9047619D01*
X49040476Y-9047619D02*
X48945238Y-8761904D01*
X48945238Y-8761904D02*
X48945238Y-8571428D01*
X48945238Y-8571428D02*
X49040476Y-8285714D01*
X49040476Y-8285714D02*
X49135714Y-8190476D01*
X48945238Y-7333333D02*
X50564285Y-7333333D01*
X50564285Y-7333333D02*
X50754761Y-7238095D01*
X50754761Y-7238095D02*
X50850000Y-7142857D01*
X50850000Y-7142857D02*
X50945238Y-6952381D01*
X50945238Y-6952381D02*
X50945238Y-6571428D01*
X50945238Y-6571428D02*
X50850000Y-6380952D01*
X50850000Y-6380952D02*
X50754761Y-6285714D01*
X50754761Y-6285714D02*
X50564285Y-6190476D01*
X50564285Y-6190476D02*
X48945238Y-6190476D01*
X48945238Y-5523809D02*
X48945238Y-4380952D01*
X50945238Y-4952381D02*
X48945238Y-4952381D01*
X142925238Y-13809523D02*
X144925238Y-13142857D01*
X144925238Y-13142857D02*
X142925238Y-12476190D01*
X144163333Y-11809523D02*
X144163333Y-10285714D01*
X144734761Y-8190476D02*
X144830000Y-8285714D01*
X144830000Y-8285714D02*
X144925238Y-8571428D01*
X144925238Y-8571428D02*
X144925238Y-8761904D01*
X144925238Y-8761904D02*
X144830000Y-9047619D01*
X144830000Y-9047619D02*
X144639523Y-9238095D01*
X144639523Y-9238095D02*
X144449047Y-9333333D01*
X144449047Y-9333333D02*
X144068095Y-9428571D01*
X144068095Y-9428571D02*
X143782380Y-9428571D01*
X143782380Y-9428571D02*
X143401428Y-9333333D01*
X143401428Y-9333333D02*
X143210952Y-9238095D01*
X143210952Y-9238095D02*
X143020476Y-9047619D01*
X143020476Y-9047619D02*
X142925238Y-8761904D01*
X142925238Y-8761904D02*
X142925238Y-8571428D01*
X142925238Y-8571428D02*
X143020476Y-8285714D01*
X143020476Y-8285714D02*
X143115714Y-8190476D01*
X142925238Y-7333333D02*
X144544285Y-7333333D01*
X144544285Y-7333333D02*
X144734761Y-7238095D01*
X144734761Y-7238095D02*
X144830000Y-7142857D01*
X144830000Y-7142857D02*
X144925238Y-6952381D01*
X144925238Y-6952381D02*
X144925238Y-6571428D01*
X144925238Y-6571428D02*
X144830000Y-6380952D01*
X144830000Y-6380952D02*
X144734761Y-6285714D01*
X144734761Y-6285714D02*
X144544285Y-6190476D01*
X144544285Y-6190476D02*
X142925238Y-6190476D01*
X142925238Y-5523809D02*
X142925238Y-4380952D01*
X144925238Y-4952381D02*
X142925238Y-4952381D01*
X245905238Y-13809523D02*
X247905238Y-13142857D01*
X247905238Y-13142857D02*
X245905238Y-12476190D01*
X247143333Y-11809523D02*
X247143333Y-10285714D01*
X247714761Y-8190476D02*
X247810000Y-8285714D01*
X247810000Y-8285714D02*
X247905238Y-8571428D01*
X247905238Y-8571428D02*
X247905238Y-8761904D01*
X247905238Y-8761904D02*
X247810000Y-9047619D01*
X247810000Y-9047619D02*
X247619523Y-9238095D01*
X247619523Y-9238095D02*
X247429047Y-9333333D01*
X247429047Y-9333333D02*
X247048095Y-9428571D01*
X247048095Y-9428571D02*
X246762380Y-9428571D01*
X246762380Y-9428571D02*
X246381428Y-9333333D01*
X246381428Y-9333333D02*
X246190952Y-9238095D01*
X246190952Y-9238095D02*
X246000476Y-9047619D01*
X246000476Y-9047619D02*
X245905238Y-8761904D01*
X245905238Y-8761904D02*
X245905238Y-8571428D01*
X245905238Y-8571428D02*
X246000476Y-8285714D01*
X246000476Y-8285714D02*
X246095714Y-8190476D01*
X245905238Y-7333333D02*
X247524285Y-7333333D01*
X247524285Y-7333333D02*
X247714761Y-7238095D01*
X247714761Y-7238095D02*
X247810000Y-7142857D01*
X247810000Y-7142857D02*
X247905238Y-6952381D01*
X247905238Y-6952381D02*
X247905238Y-6571428D01*
X247905238Y-6571428D02*
X247810000Y-6380952D01*
X247810000Y-6380952D02*
X247714761Y-6285714D01*
X247714761Y-6285714D02*
X247524285Y-6190476D01*
X247524285Y-6190476D02*
X245905238Y-6190476D01*
X245905238Y-5523809D02*
X245905238Y-4380952D01*
X247905238Y-4952381D02*
X245905238Y-4952381D01*
X151925238Y-13809523D02*
X153925238Y-13142857D01*
X153925238Y-13142857D02*
X151925238Y-12476190D01*
X153163333Y-11809523D02*
X153163333Y-10285714D01*
X153734761Y-8190476D02*
X153830000Y-8285714D01*
X153830000Y-8285714D02*
X153925238Y-8571428D01*
X153925238Y-8571428D02*
X153925238Y-8761904D01*
X153925238Y-8761904D02*
X153830000Y-9047619D01*
X153830000Y-9047619D02*
X153639523Y-9238095D01*
X153639523Y-9238095D02*
X153449047Y-9333333D01*
X153449047Y-9333333D02*
X153068095Y-9428571D01*
X153068095Y-9428571D02*
X152782380Y-9428571D01*
X152782380Y-9428571D02*
X152401428Y-9333333D01*
X152401428Y-9333333D02*
X152210952Y-9238095D01*
X152210952Y-9238095D02*
X152020476Y-9047619D01*
X152020476Y-9047619D02*
X151925238Y-8761904D01*
X151925238Y-8761904D02*
X151925238Y-8571428D01*
X151925238Y-8571428D02*
X152020476Y-8285714D01*
X152020476Y-8285714D02*
X152115714Y-8190476D01*
X151925238Y-7333333D02*
X153544285Y-7333333D01*
X153544285Y-7333333D02*
X153734761Y-7238095D01*
X153734761Y-7238095D02*
X153830000Y-7142857D01*
X153830000Y-7142857D02*
X153925238Y-6952381D01*
X153925238Y-6952381D02*
X153925238Y-6571428D01*
X153925238Y-6571428D02*
X153830000Y-6380952D01*
X153830000Y-6380952D02*
X153734761Y-6285714D01*
X153734761Y-6285714D02*
X153544285Y-6190476D01*
X153544285Y-6190476D02*
X151925238Y-6190476D01*
X151925238Y-5523809D02*
X151925238Y-4380952D01*
X153925238Y-4952381D02*
X151925238Y-4952381D01*
M02*
