%TF.GenerationSoftware,KiCad,Pcbnew,6.0.11+dfsg-1*%
%TF.CreationDate,2023-04-22T14:00:26+02:00*%
%TF.ProjectId,ulx3s_panel,756c7833-735f-4706-916e-656c2e6b6963,v3.1.8*%
%TF.SameCoordinates,Original*%
%TF.FileFunction,Drillmap*%
%TF.FilePolarity,Positive*%
%FSLAX45Y45*%
G04 Gerber Fmt 4.5, Leading zero omitted, Abs format (unit mm)*
G04 Created by KiCad (PCBNEW 6.0.11+dfsg-1) date 2023-04-22 14:00:26*
%MOMM*%
%LPD*%
G01*
G04 APERTURE LIST*
%ADD10C,0.100000*%
%ADD11C,0.200000*%
%ADD12C,0.170000*%
%ADD13C,0.320000*%
G04 APERTURE END LIST*
D10*
X14417010Y-8781500D02*
X14411329Y-8781337D01*
X24696773Y-8780000D02*
X15301227Y-8780000D01*
X24742752Y-2799597D02*
X24737965Y-2800428D01*
X14463324Y-7886036D02*
X14467766Y-7888005D01*
X14404274Y-14760679D02*
X14400049Y-14760039D01*
X14491923Y-20715854D02*
X14488243Y-20719028D01*
X24778440Y-8059815D02*
X24774334Y-8062415D01*
X25496773Y-2000000D02*
X4203227Y-2000000D01*
X4929893Y-2789810D02*
X4925666Y-2787415D01*
X14405681Y-20740851D02*
X14400042Y-20740038D01*
X24747482Y-26013536D02*
X24741748Y-26014972D01*
X4971704Y-13858619D02*
X4976574Y-13858500D01*
X24805754Y-14717501D02*
X24802956Y-14721474D01*
X24816651Y-7944148D02*
X24818175Y-7948762D01*
X14522536Y-8663186D02*
X14523367Y-8667974D01*
X24822319Y-2697642D02*
X24822438Y-2702500D01*
X15195044Y-2761474D02*
X15192246Y-2757501D01*
X15179825Y-25946238D02*
X15178529Y-25941555D01*
X14522536Y-14643186D02*
X14523367Y-14647974D01*
X15275573Y-8078321D02*
X15265805Y-8076872D01*
X14424426Y-8078321D02*
X14419592Y-8078918D01*
X4952507Y-13861467D02*
X4957248Y-13860402D01*
X14398773Y-7880000D02*
X14398797Y-7880000D01*
X24728296Y-19838620D02*
X24733142Y-19838977D01*
X24805754Y-8627499D02*
X24808353Y-8631604D01*
X4917587Y-13877983D02*
X4921560Y-13875185D01*
X24805754Y-19992501D02*
X24802956Y-19996474D01*
X24712733Y-26019276D02*
X24700440Y-26019880D01*
X24808353Y-14611604D02*
X24810748Y-14615832D01*
X15256252Y-20034972D02*
X15250518Y-20033536D01*
X15181349Y-19970852D02*
X15179825Y-19966238D01*
X14449493Y-20738533D02*
X14444752Y-20739597D01*
X15183098Y-25879614D02*
X15185067Y-25875172D01*
X24802956Y-25976474D02*
X24799966Y-25980305D01*
X24722426Y-2601678D02*
X24732195Y-2603128D01*
X4203227Y-2000000D02*
X4203203Y-2000000D01*
X24819471Y-19913445D02*
X24820536Y-19918186D01*
X4900034Y-14599695D02*
X4903208Y-14596016D01*
X5001958Y-25819962D02*
X5001979Y-25819965D01*
X15232234Y-19848005D02*
X15236676Y-19846036D01*
X15208077Y-8609146D02*
X15211757Y-8605972D01*
X24814902Y-20680386D02*
X24812933Y-20684828D01*
X15285266Y-14059276D02*
X15280408Y-14058918D01*
X24756790Y-8070712D02*
X24752176Y-8072237D01*
X14472107Y-14749810D02*
X14467766Y-14751995D01*
X14425426Y-13858500D02*
X14430296Y-13858619D01*
X15204558Y-25987503D02*
X15201207Y-25983984D01*
X14405681Y-8780851D02*
X14400042Y-8780038D01*
X24778440Y-19855185D02*
X24782412Y-19857983D01*
X24799966Y-20579695D02*
X24802956Y-20583526D01*
X4880529Y-19961555D02*
X4879464Y-19956814D01*
X15201207Y-13891016D02*
X15204558Y-13887497D01*
X15223665Y-8597585D02*
X15227893Y-8595190D01*
X4976574Y-25818500D02*
X4984990Y-25818500D01*
X24696773Y-14760000D02*
X15301227Y-14760000D01*
X4878039Y-20632796D02*
X4878633Y-20627974D01*
X4878633Y-20657026D02*
X4878039Y-20652204D01*
X24793442Y-8752503D02*
X24789923Y-8755854D01*
X15185067Y-14704828D02*
X15183098Y-14700385D01*
X4877562Y-7977500D02*
X4877681Y-7972642D01*
X15245823Y-13862763D02*
X15250506Y-13861467D01*
X4967805Y-14056872D02*
X4963005Y-14056040D01*
X15260035Y-14760428D02*
X15255248Y-14759597D01*
X24747482Y-8073536D02*
X24741748Y-8074972D01*
X4938676Y-8773964D02*
X4934234Y-8771995D01*
X4887067Y-25959828D02*
X4885098Y-25955385D01*
X4917587Y-14742017D02*
X4913757Y-14739028D01*
X14411329Y-25818663D02*
X14417010Y-25818500D01*
X14523367Y-8667974D02*
X14523961Y-8672796D01*
X24752176Y-20032237D02*
X24747482Y-20033536D01*
X4877681Y-25922358D02*
X4877562Y-25917500D01*
X15189647Y-8028396D02*
X15187251Y-8024168D01*
X4881825Y-19966238D02*
X4880529Y-19961555D01*
X14463324Y-26008964D02*
X14458790Y-26010712D01*
X24821961Y-14652796D02*
X24822319Y-14657642D01*
X24770107Y-25830190D02*
X24774334Y-25832585D01*
X4987267Y-8580724D02*
X4999560Y-8580120D01*
X15211757Y-20565972D02*
X15215587Y-20562983D01*
X24822319Y-7972642D02*
X24822438Y-7977500D01*
X24770107Y-20729810D02*
X24765766Y-20731995D01*
X15183098Y-13995385D02*
X15181349Y-13990852D01*
X15185067Y-2660172D02*
X15187251Y-2655832D01*
X15256252Y-8074972D02*
X15250518Y-8073536D01*
X24756790Y-2795713D02*
X24752176Y-2797237D01*
X15215587Y-20562983D02*
X15219560Y-20560185D01*
X24765766Y-20731995D02*
X24761324Y-20733964D01*
X4878633Y-25902974D02*
X4879464Y-25898186D01*
X24697923Y-7879972D02*
X24697982Y-7879969D01*
X15264858Y-7878977D02*
X15269704Y-7878619D01*
X15264858Y-20741023D02*
X15260035Y-20740428D01*
X4947823Y-7882763D02*
X4952507Y-7881467D01*
X4891647Y-19886604D02*
X4894246Y-19882499D01*
X4891647Y-25866604D02*
X4894246Y-25862499D01*
X15241209Y-19844287D02*
X15245823Y-19842763D01*
X15302442Y-14560000D02*
X24695557Y-14560000D01*
X15215587Y-2622983D02*
X15219560Y-2620185D01*
X15195044Y-19878526D02*
X15198034Y-19874695D01*
X24774334Y-20022415D02*
X24770107Y-20024810D01*
X14419592Y-20541082D02*
X14424426Y-20541678D01*
X15208077Y-2629146D02*
X15211757Y-2625972D01*
X14476334Y-20727415D02*
X14472107Y-20729810D01*
X4887067Y-2660172D02*
X4889252Y-2655832D01*
X24736995Y-14563960D02*
X24741748Y-14565028D01*
X15295726Y-13859321D02*
X15299951Y-13859961D01*
X25497994Y-26619019D02*
X25498000Y-26618797D01*
X4881825Y-8711238D02*
X4880529Y-8706555D01*
X15176038Y-14672204D02*
X15175681Y-14667358D01*
X14504956Y-7918526D02*
X14507754Y-7922499D01*
X4925666Y-14747415D02*
X4921560Y-14744815D01*
X15189647Y-2753396D02*
X15187251Y-2749168D01*
X24700440Y-20540120D02*
X24712733Y-20540724D01*
X4990671Y-2801337D02*
X4984990Y-2801500D01*
X14472107Y-14575190D02*
X14476334Y-14577585D01*
X4889252Y-14709168D02*
X4887067Y-14704828D01*
X24799966Y-8040305D02*
X24796792Y-8043984D01*
X14434195Y-20543128D02*
X14438995Y-20543960D01*
X24722426Y-14058321D02*
X24717592Y-14058918D01*
X14399923Y-19839972D02*
X14399982Y-19839969D01*
X5003227Y-2800000D02*
X5003203Y-2800000D01*
X24712733Y-14059276D02*
X24700440Y-14059880D01*
X15299951Y-13859961D02*
X15299979Y-13859965D01*
X24821367Y-8697026D02*
X24820536Y-8701814D01*
X4880529Y-2678445D02*
X4881825Y-2673762D01*
X15285266Y-2600724D02*
X15297560Y-2600120D01*
X15301227Y-14760000D02*
X15301203Y-14760000D01*
X15301227Y-7880000D02*
X24696773Y-7880000D01*
X14472107Y-8769810D02*
X14467766Y-8771995D01*
X24696773Y-19840000D02*
X24696797Y-19840000D01*
X24752176Y-8587763D02*
X24756790Y-8589287D01*
X24733142Y-20741023D02*
X24728296Y-20741380D01*
X4921560Y-8059815D02*
X4917587Y-8057017D01*
X4877681Y-13962358D02*
X4877562Y-13957500D01*
X15301227Y-13860000D02*
X24696773Y-13860000D01*
X5003203Y-7880000D02*
X5003227Y-7880000D01*
X15241209Y-26010712D02*
X15236676Y-26008964D01*
X15187251Y-7930832D02*
X15189647Y-7926604D01*
X25497570Y-26619812D02*
X25497610Y-26619783D01*
X4889252Y-2749168D02*
X4887067Y-2744828D01*
X14516902Y-14700385D02*
X14514933Y-14704828D01*
X14524438Y-7977500D02*
X14524319Y-7982358D01*
X24793442Y-14027503D02*
X24789923Y-14030854D01*
X15236676Y-8068964D02*
X15232234Y-8066995D01*
X14398773Y-13860000D02*
X14398797Y-13860000D01*
X24808353Y-8631604D02*
X24810748Y-8635832D01*
X4885098Y-14624614D02*
X4887067Y-14620172D01*
X4877681Y-19942358D02*
X4877562Y-19937500D01*
X15176633Y-13972026D02*
X15176038Y-13967204D01*
X4879464Y-2683186D02*
X4880529Y-2678445D01*
X4952518Y-14566464D02*
X4958252Y-14565028D01*
X24715006Y-14761500D02*
X24710745Y-14761408D01*
X14399923Y-25819972D02*
X14399982Y-25819969D01*
X14516902Y-8720386D02*
X14514933Y-8724828D01*
X24822438Y-2702500D02*
X24822319Y-2707358D01*
X24818175Y-25888762D02*
X24819471Y-25893445D01*
X14510353Y-8733396D02*
X14507754Y-8737501D01*
X4202056Y-2000692D02*
X4202042Y-2000739D01*
X24770107Y-8595190D02*
X24774334Y-8597585D01*
X14507754Y-8032501D02*
X14504956Y-8036474D01*
X4202600Y-26619909D02*
X4202646Y-26619927D01*
X24789923Y-14735854D02*
X24786243Y-14739028D01*
X4987267Y-8079276D02*
X4982408Y-8078918D01*
X15287255Y-14761408D02*
X15282993Y-14761500D01*
X4906558Y-14027503D02*
X4903208Y-14023984D01*
X4202030Y-2000786D02*
X4202020Y-2000834D01*
X15241209Y-20030713D02*
X15236676Y-20028964D01*
X15223665Y-7892585D02*
X15227893Y-7890190D01*
X15294319Y-20740851D02*
X15288671Y-20741337D01*
X15301227Y-8780000D02*
X15301203Y-8780000D01*
X14514933Y-13999828D02*
X14512748Y-14004168D01*
X14488243Y-2625972D02*
X14491923Y-2629146D01*
X4877562Y-8682500D02*
X4877681Y-8677642D01*
X24810748Y-14004168D02*
X24808353Y-14008396D01*
X15198034Y-14725305D02*
X15195044Y-14721474D01*
X4202135Y-26619487D02*
X4202161Y-26619529D01*
X15192246Y-20697501D02*
X15189647Y-20693396D01*
X4963005Y-26016040D02*
X4958252Y-26014972D01*
X14463324Y-8068964D02*
X14458790Y-8070712D01*
X24733142Y-25818977D02*
X24737965Y-25819572D01*
X4897044Y-13898526D02*
X4900034Y-13894695D01*
X4900034Y-7914695D02*
X4903208Y-7911016D01*
X15176038Y-2692796D02*
X15176633Y-2687974D01*
X14408502Y-13858865D02*
X14412745Y-13858591D01*
X5001951Y-13859961D02*
X5001951Y-13859961D01*
X15189647Y-20591604D02*
X15192246Y-20587499D01*
X4925666Y-20022415D02*
X4921560Y-20019815D01*
X4885098Y-19975386D02*
X4883349Y-19970852D01*
X24732195Y-14563127D02*
X24736995Y-14563960D01*
X15300017Y-8780031D02*
X15299958Y-8780038D01*
X24802956Y-20583526D02*
X24805754Y-20587499D01*
X4943210Y-20030713D02*
X4938676Y-20028964D01*
X4900034Y-25854695D02*
X4903208Y-25851016D01*
X24812933Y-8724828D02*
X24810748Y-8729168D01*
X14523367Y-25902974D02*
X14523961Y-25907796D01*
X4906558Y-25847497D02*
X4910077Y-25844146D01*
X14512748Y-14004168D02*
X14510353Y-14008396D01*
X4967805Y-14563127D02*
X4977574Y-14561678D01*
X24820536Y-13976814D02*
X24819471Y-13981555D01*
X24697982Y-19839969D02*
X24698041Y-19839962D01*
X15302442Y-2600000D02*
X24695557Y-2600000D01*
X14419592Y-2601082D02*
X14424426Y-2601678D01*
X15178529Y-19961555D02*
X15177464Y-19956814D01*
X24782412Y-7897983D02*
X24786243Y-7900972D01*
X14524319Y-7982358D02*
X14523961Y-7987204D01*
X24821961Y-2712204D02*
X24821367Y-2717026D01*
X4925666Y-20557585D02*
X4929893Y-20555190D01*
X4917587Y-8057017D02*
X4913757Y-8054028D01*
X24747482Y-2606464D02*
X24752176Y-2607763D01*
X15269704Y-20741380D02*
X15264858Y-20741023D01*
X4962035Y-8780428D02*
X4957248Y-8779597D01*
X14397557Y-2600000D02*
X14402440Y-2600120D01*
X14491923Y-19864146D02*
X14495442Y-19867497D01*
X24818175Y-13928762D02*
X24819471Y-13933445D01*
X25497944Y-2000692D02*
X25497927Y-2000645D01*
X14449482Y-8073536D02*
X14443748Y-8074972D01*
X14425426Y-25818500D02*
X14430296Y-25818619D01*
X14397557Y-8080000D02*
X5004443Y-8080000D01*
X14449482Y-2606464D02*
X14454176Y-2607763D01*
X15294319Y-7879149D02*
X15299958Y-7879962D01*
X24818175Y-2673762D02*
X24819471Y-2678445D01*
X15211757Y-25994028D02*
X15208077Y-25990854D01*
X14518651Y-13924148D02*
X14520175Y-13928762D01*
X14512748Y-19984168D02*
X14510353Y-19988396D01*
X15198034Y-2639695D02*
X15201207Y-2636016D01*
X24752176Y-19842763D02*
X24756790Y-19844287D01*
X14430296Y-7878619D02*
X14435142Y-7878977D01*
X15236676Y-2793964D02*
X15232234Y-2791995D01*
X24698042Y-2800038D02*
X24698042Y-2800038D01*
X15187251Y-14004168D02*
X15185067Y-13999828D01*
X15208077Y-20715854D02*
X15204558Y-20712503D01*
X4921560Y-14039815D02*
X4917587Y-14037017D01*
X14523961Y-19947204D02*
X14523367Y-19952026D01*
X4202042Y-2000739D02*
X4202030Y-2000786D01*
X15245823Y-26012237D02*
X15241209Y-26010712D01*
X4889252Y-13910832D02*
X4891647Y-13906604D01*
X15176633Y-8667974D02*
X15177464Y-8663186D01*
X24703681Y-20740851D02*
X24698042Y-20740038D01*
X4906558Y-20007503D02*
X4903208Y-20003984D01*
X4202600Y-2000091D02*
X4202556Y-2000112D01*
X24789923Y-14589146D02*
X24793442Y-14592497D01*
X24752176Y-14567763D02*
X24756790Y-14569287D01*
X24756790Y-2609287D02*
X24761324Y-2611036D01*
X15227893Y-13870190D02*
X15232234Y-13868005D01*
X14495442Y-8047503D02*
X14491923Y-8050854D01*
X4202316Y-26619719D02*
X4202352Y-26619752D01*
X24786243Y-2625972D02*
X24789923Y-2629146D01*
X24703681Y-2800851D02*
X24698042Y-2800038D01*
X14476334Y-8767415D02*
X14472107Y-8769810D01*
X15181349Y-13990852D02*
X15179825Y-13986238D01*
X14516902Y-8015385D02*
X14514933Y-8019828D01*
X14501966Y-2765305D02*
X14498792Y-2768984D01*
X14504956Y-2761474D02*
X14501966Y-2765305D01*
X15219560Y-19855185D02*
X15223665Y-19852585D01*
X15299979Y-25819965D02*
X15300028Y-25819970D01*
X24765766Y-20026995D02*
X24761324Y-20028964D01*
X4977574Y-14058321D02*
X4967805Y-14056872D01*
X14488243Y-8759028D02*
X14484412Y-8762017D01*
X24796792Y-14728984D02*
X24793442Y-14732503D01*
X15288671Y-20741337D02*
X15282990Y-20741500D01*
X4929893Y-20024810D02*
X4925666Y-20022415D01*
X4952518Y-26013536D02*
X4952518Y-26013536D01*
X14411329Y-20741337D02*
X14405681Y-20740851D01*
X15291498Y-14761135D02*
X15287255Y-14761408D01*
X14522536Y-8701814D02*
X14521471Y-8706555D01*
X15250518Y-20546464D02*
X15256252Y-20545028D01*
X24698048Y-13859961D02*
X24702274Y-13859321D01*
X15176038Y-13967204D02*
X15175681Y-13962358D01*
X15189647Y-25866604D02*
X15192246Y-25862499D01*
X15245823Y-8072237D02*
X15241209Y-8070712D01*
X14507754Y-8737501D02*
X14504956Y-8741474D01*
X25497865Y-26619487D02*
X25497888Y-26619444D01*
X14458790Y-8589287D02*
X14463324Y-8591036D01*
X15232234Y-26006995D02*
X15227893Y-26004810D01*
X4993498Y-13858865D02*
X4997726Y-13859321D01*
X4900034Y-8040305D02*
X4897044Y-8036474D01*
X15288671Y-19838663D02*
X15294319Y-19839149D01*
X24793442Y-8612497D02*
X24796792Y-8616016D01*
X4900034Y-20579695D02*
X4903208Y-20576016D01*
X4967805Y-20036872D02*
X4963005Y-20036040D01*
X24821961Y-20652204D02*
X24821367Y-20657026D01*
X14512748Y-19890832D02*
X14514933Y-19895172D01*
X15187251Y-8729168D02*
X15185067Y-8724828D01*
X5003203Y-19840000D02*
X5003227Y-19840000D01*
X24697965Y-13859970D02*
X24698007Y-13859966D01*
X24821367Y-20657026D02*
X24820536Y-20661814D01*
X24810748Y-19984168D02*
X24808353Y-19988396D01*
X24778440Y-20724815D02*
X24774334Y-20727415D01*
X15301227Y-25820000D02*
X24696773Y-25820000D01*
X14484412Y-19857983D02*
X14488243Y-19860972D01*
X15300077Y-13859972D02*
X15301203Y-13860000D01*
X15232234Y-25828005D02*
X15236676Y-25826036D01*
X4879464Y-2721814D02*
X4878633Y-2717026D01*
X15198034Y-8040305D02*
X15195044Y-8036474D01*
X14524319Y-14667358D02*
X14523961Y-14672204D01*
X24698021Y-14760035D02*
X24697972Y-14760030D01*
X24736995Y-20543960D02*
X24741748Y-20545028D01*
X4903208Y-20003984D02*
X4900034Y-20000305D01*
X4921560Y-20019815D02*
X4917587Y-20017017D01*
X4900034Y-14725305D02*
X4897044Y-14721474D01*
X24774334Y-19852585D02*
X24778440Y-19855185D01*
X4938676Y-2611036D02*
X4943210Y-2609287D01*
X4958252Y-20034972D02*
X4952518Y-20033536D01*
X24774334Y-14747415D02*
X24770107Y-14749810D01*
X14472107Y-7890190D02*
X14476334Y-7892585D01*
X14449482Y-26013536D02*
X14443748Y-26014972D01*
X4910077Y-8755854D02*
X4906558Y-8752503D01*
X24770107Y-13870190D02*
X24774334Y-13872585D01*
X24782412Y-20562983D02*
X24786243Y-20565972D01*
X24816651Y-14695852D02*
X24814902Y-14700385D01*
X4881825Y-14691238D02*
X4880529Y-14686555D01*
X25497570Y-2000188D02*
X25497529Y-2000160D01*
X14521471Y-14638445D02*
X14522536Y-14643186D01*
X24821961Y-2692796D02*
X24822319Y-2697642D01*
X14518651Y-19904148D02*
X14520175Y-19908762D01*
X24799966Y-13894695D02*
X24802956Y-13898526D01*
X14498792Y-2636016D02*
X14501966Y-2639695D01*
X4878039Y-25907796D02*
X4878633Y-25902974D01*
X15219560Y-14580185D02*
X15223665Y-14577585D01*
X24819471Y-14638445D02*
X24820536Y-14643186D01*
X15195044Y-20701474D02*
X15192246Y-20697501D01*
X24805754Y-7922499D02*
X24808353Y-7926604D01*
X4878633Y-13972026D02*
X4878039Y-13967204D01*
X15187251Y-8024168D02*
X15185067Y-8019828D01*
X15227893Y-8595190D02*
X15232234Y-8593005D01*
X15291498Y-13858865D02*
X15295726Y-13859321D01*
X14414733Y-26019276D02*
X14402440Y-26019880D01*
X4881825Y-20671238D02*
X4880529Y-20666555D01*
X14484412Y-8057017D02*
X14480440Y-8059815D01*
X24819471Y-20666555D02*
X24818175Y-20671238D01*
X4929893Y-14575190D02*
X4934234Y-14573005D01*
X24778440Y-20019815D02*
X24774334Y-20022415D01*
X24805754Y-20587499D02*
X24808353Y-20591604D01*
X14495442Y-8612497D02*
X14498792Y-8616016D01*
X15236676Y-14571036D02*
X15241209Y-14569287D01*
X15236676Y-25826036D02*
X15241209Y-25824287D01*
X15179825Y-25888762D02*
X15181349Y-25884148D01*
X15183098Y-14624614D02*
X15185067Y-14620172D01*
X24696797Y-14760000D02*
X24696773Y-14760000D01*
X4977574Y-14561678D02*
X4982408Y-14561082D01*
X15250518Y-26013536D02*
X15245823Y-26012237D01*
X4913757Y-20565972D02*
X4917587Y-20562983D01*
X14463324Y-8591036D02*
X14467766Y-8593005D01*
X14514933Y-19979828D02*
X14512748Y-19984168D01*
X15301203Y-13860000D02*
X15301227Y-13860000D01*
X24822319Y-20637642D02*
X24822438Y-20642500D01*
X24786243Y-2779028D02*
X24782412Y-2782017D01*
X15201207Y-8043984D02*
X15198034Y-8040305D01*
X24698021Y-8780035D02*
X24697972Y-8780030D01*
X24820536Y-25898186D02*
X24821367Y-25902974D01*
X24822319Y-13952642D02*
X24822438Y-13957500D01*
X24814902Y-2664614D02*
X24816651Y-2669148D01*
X24756790Y-7884287D02*
X24761324Y-7886036D01*
X4913757Y-25994028D02*
X4910077Y-25990854D01*
X4925666Y-20727415D02*
X4921560Y-20724815D01*
X15177464Y-2683186D02*
X15178529Y-2678445D01*
X24812933Y-8640172D02*
X24814902Y-8644614D01*
X24821961Y-25907796D02*
X24822319Y-25912642D01*
X4202390Y-26619783D02*
X4202430Y-26619812D01*
X4906558Y-20572497D02*
X4910077Y-20569146D01*
X24802956Y-13898526D02*
X24805754Y-13902499D01*
X14491923Y-13884146D02*
X14495442Y-13887497D01*
X15176038Y-2712204D02*
X15175681Y-2707358D01*
X24799966Y-14725305D02*
X24796792Y-14728984D01*
X24715010Y-8781500D02*
X24709329Y-8781337D01*
X5004443Y-8580000D02*
X14397557Y-8580000D01*
X14507754Y-25972501D02*
X14504956Y-25976474D01*
X15175681Y-20647358D02*
X15175562Y-20642500D01*
X15189647Y-8733396D02*
X15187251Y-8729168D01*
X14472107Y-19850190D02*
X14476334Y-19852585D01*
X14512748Y-8024168D02*
X14510353Y-8028396D01*
X15299951Y-13859961D02*
X15299951Y-13859961D01*
X24814902Y-19899614D02*
X24816651Y-19904148D01*
X15255248Y-8779597D02*
X15250506Y-8778533D01*
X24696773Y-7880000D02*
X24696797Y-7880000D01*
X14524319Y-20637642D02*
X14524438Y-20642500D01*
X4879464Y-7996814D02*
X4878633Y-7992026D01*
X24747493Y-7881467D02*
X24752176Y-7882763D01*
X15201207Y-14596016D02*
X15204558Y-14592497D01*
X14512748Y-25870832D02*
X14514933Y-25875172D01*
X15301203Y-2800000D02*
X15300077Y-2800028D01*
X14402440Y-8079880D02*
X14397557Y-8080000D01*
X15181349Y-14695852D02*
X15179825Y-14691238D01*
X24814902Y-13919614D02*
X24816651Y-13924148D01*
X24765766Y-19848005D02*
X24770107Y-19850190D01*
X14495442Y-25987503D02*
X14491923Y-25990854D01*
X14400042Y-2800038D02*
X14400042Y-2800038D01*
X4982408Y-20541082D02*
X4987267Y-20540724D01*
X4891647Y-13906604D02*
X4894246Y-13902499D01*
X15299979Y-19839965D02*
X15300028Y-19839970D01*
X14518651Y-13990852D02*
X14516902Y-13995385D01*
X24765766Y-2791995D02*
X24761324Y-2793964D01*
X15176038Y-7967796D02*
X15176633Y-7962974D01*
X4910077Y-25844146D02*
X4913757Y-25840972D01*
X24733142Y-13858977D02*
X24737965Y-13859572D01*
X24822319Y-14657642D02*
X24822438Y-14662500D01*
X14488243Y-25840972D02*
X14491923Y-25844146D01*
X24770107Y-2615190D02*
X24774334Y-2617585D01*
X14507754Y-14607499D02*
X14510353Y-14611604D01*
X14523961Y-25907796D02*
X14524319Y-25912642D01*
X14521471Y-8706555D02*
X14520175Y-8711238D01*
X4929893Y-26004810D02*
X4925666Y-26002415D01*
X24697923Y-8780028D02*
X24696797Y-8780000D01*
X4891647Y-7926604D02*
X4894246Y-7922499D01*
X14518651Y-2669148D02*
X14520175Y-2673762D01*
X4878039Y-20652204D02*
X4877681Y-20647358D01*
X24802956Y-8741474D02*
X24799966Y-8745305D01*
X24723426Y-20741500D02*
X24715010Y-20741500D01*
X4878633Y-8667974D02*
X4879464Y-8663186D01*
X25497117Y-26619987D02*
X25497165Y-26619980D01*
X24697923Y-20740028D02*
X24696797Y-20740000D01*
X15215587Y-20722017D02*
X15211757Y-20719028D01*
X15241209Y-8775713D02*
X15236676Y-8773964D01*
X24820536Y-2683186D02*
X24821367Y-2687974D01*
X24812933Y-20600172D02*
X24814902Y-20604614D01*
X15179825Y-20613762D02*
X15181349Y-20609148D01*
X24810748Y-13910832D02*
X24812933Y-13915172D01*
X15215587Y-8602983D02*
X15219560Y-8600185D01*
X15175562Y-8682500D02*
X15175681Y-8677642D01*
X15189647Y-14713396D02*
X15187251Y-14709168D01*
X14454176Y-2607763D02*
X14458790Y-2609287D01*
X4947823Y-14052237D02*
X4943210Y-14050712D01*
X4889252Y-19984168D02*
X4887067Y-19979828D01*
X24698041Y-19839962D02*
X24703681Y-19839149D01*
X24796792Y-20576016D02*
X24799966Y-20579695D01*
X24741748Y-14054972D02*
X24736995Y-14056040D01*
X24761324Y-8591036D02*
X24765766Y-8593005D01*
X15301227Y-19840000D02*
X24696773Y-19840000D01*
X4929893Y-14044810D02*
X4925666Y-14042415D01*
X15269704Y-14761380D02*
X15264858Y-14761023D01*
X4952518Y-26013536D02*
X4947823Y-26012237D01*
X15265805Y-14563127D02*
X15275573Y-14561678D01*
X24799966Y-8619695D02*
X24802956Y-8623526D01*
X15181349Y-8010852D02*
X15179825Y-8006238D01*
X4999560Y-20039880D02*
X4987267Y-20039276D01*
X24712733Y-14560724D02*
X24717592Y-14561082D01*
X15177464Y-20661814D02*
X15176633Y-20657026D01*
X14504956Y-19996474D02*
X14501966Y-20000305D01*
X15274574Y-14761500D02*
X15274574Y-14761500D01*
X14467766Y-19848005D02*
X14472107Y-19850190D01*
X24765766Y-14046995D02*
X24761324Y-14048964D01*
X4943210Y-8775713D02*
X4938676Y-8773964D01*
X15189647Y-14008396D02*
X15187251Y-14004168D01*
X15223665Y-2787415D02*
X15219560Y-2784815D01*
X14417006Y-14761500D02*
X14412745Y-14761408D01*
X5003227Y-14760000D02*
X5003203Y-14760000D01*
X15227893Y-14749810D02*
X15223665Y-14747415D01*
X14400041Y-7879962D02*
X14405681Y-7879149D01*
X14467766Y-8771995D02*
X14463324Y-8773964D01*
X25497987Y-26619117D02*
X25497992Y-26619068D01*
X24818175Y-8006238D02*
X24816651Y-8010852D01*
X15201207Y-2636016D02*
X15204558Y-2632497D01*
X14510353Y-8028396D02*
X14507754Y-8032501D01*
X14425426Y-8781500D02*
X14417010Y-8781500D01*
X14498792Y-14728984D02*
X14495442Y-14732503D01*
X14524319Y-2697642D02*
X14524438Y-2702500D01*
X4877681Y-25912642D02*
X4878039Y-25907796D01*
X24697972Y-20740030D02*
X24697923Y-20740028D01*
X24722426Y-20038322D02*
X24717592Y-20038918D01*
X14412745Y-14761408D02*
X14408502Y-14761135D01*
X14402440Y-20039880D02*
X14397557Y-20040000D01*
X14454176Y-25822763D02*
X14458790Y-25824287D01*
X14454176Y-14757237D02*
X14449493Y-14758533D01*
X15274574Y-8781500D02*
X15269704Y-8781380D01*
X15215587Y-20017017D02*
X15211757Y-20014028D01*
X24761324Y-25826036D02*
X24765766Y-25828005D01*
X4929893Y-7890190D02*
X4934234Y-7888005D01*
X14523367Y-20627974D02*
X14523961Y-20632796D01*
X15176038Y-25927204D02*
X15175681Y-25922358D01*
X14498792Y-14023984D02*
X14495442Y-14027503D01*
X4952518Y-20033536D02*
X4947823Y-20032237D01*
X4938676Y-20551036D02*
X4943210Y-20549287D01*
X4202430Y-26619812D02*
X4202470Y-26619839D01*
X4917587Y-25997017D02*
X4913757Y-25994028D01*
X15219560Y-14039815D02*
X15215587Y-14037017D01*
X14476334Y-7892585D02*
X14480440Y-7895185D01*
X24756790Y-8775713D02*
X24752176Y-8777237D01*
X4879464Y-14681814D02*
X4878633Y-14677026D01*
X4202020Y-2000834D02*
X4202013Y-2000883D01*
X4894246Y-20587499D02*
X4897044Y-20583526D01*
X15223665Y-8767415D02*
X15219560Y-8764815D01*
X15300028Y-7879970D02*
X15300077Y-7879972D01*
X15300017Y-20740031D02*
X15299958Y-20740038D01*
X14438995Y-8583960D02*
X14443748Y-8585028D01*
X15241209Y-8589287D02*
X15245823Y-8587763D01*
X25497944Y-26619308D02*
X25497958Y-26619261D01*
X15255248Y-7880402D02*
X15260035Y-7879572D01*
X24812933Y-2660172D02*
X24814902Y-2664614D01*
X14443748Y-26014972D02*
X14438995Y-26016040D01*
X4962035Y-25819572D02*
X4966858Y-25818977D01*
X4934234Y-19848005D02*
X4938676Y-19846036D01*
X4989255Y-13858591D02*
X4993498Y-13858865D01*
X14480440Y-19855185D02*
X14484412Y-19857983D01*
X15189647Y-19988396D02*
X15187251Y-19984168D01*
X25497308Y-26619944D02*
X25497354Y-26619927D01*
X24819471Y-25893445D02*
X24820536Y-25898186D01*
X24812933Y-13915172D02*
X24814902Y-13919614D01*
X4917587Y-20722017D02*
X4913757Y-20719028D01*
X15179825Y-7948762D02*
X15181349Y-7944148D01*
X15178529Y-25893445D02*
X15179825Y-25888762D01*
X24733142Y-8781023D02*
X24728296Y-8781380D01*
X14458790Y-19844287D02*
X14463324Y-19846036D01*
X4894246Y-14012501D02*
X4891647Y-14008396D01*
X15204558Y-8612497D02*
X15208077Y-8609146D01*
X15211757Y-8054028D02*
X15208077Y-8050854D01*
X4917587Y-8602983D02*
X4921560Y-8600185D01*
X15211757Y-8605972D02*
X15215587Y-8602983D01*
X4957248Y-19840403D02*
X4962035Y-19839572D01*
X24821367Y-19952026D02*
X24820536Y-19956814D01*
X14438995Y-20036040D02*
X14434195Y-20036872D01*
X14488243Y-8054028D02*
X14484412Y-8057017D01*
X14498792Y-7911016D02*
X14501966Y-7914695D01*
X14520175Y-7948762D02*
X14521471Y-7953445D01*
X24805754Y-19882499D02*
X24808353Y-19886604D01*
X24796792Y-13891016D02*
X24799966Y-13894695D01*
X14472107Y-2789810D02*
X14467766Y-2791995D01*
X15264858Y-13858977D02*
X15269704Y-13858619D01*
X15269704Y-19838620D02*
X15274574Y-19838500D01*
X14463324Y-20733964D02*
X14458790Y-20735713D01*
X14458790Y-2609287D02*
X14463324Y-2611036D01*
X24789923Y-19864146D02*
X24793442Y-19867497D01*
X14501966Y-25980305D02*
X14498792Y-25983984D01*
X24786243Y-20014028D02*
X24782412Y-20017017D01*
X15178529Y-14638445D02*
X15179825Y-14633762D01*
X14444752Y-19840403D02*
X14449493Y-19841467D01*
X4996319Y-8780851D02*
X4990671Y-8781337D01*
X14488243Y-8605972D02*
X14491923Y-8609146D01*
X4202834Y-2000020D02*
X4202786Y-2000030D01*
X4917587Y-14037017D02*
X4913757Y-14034028D01*
X4894246Y-8032501D02*
X4891647Y-8028396D01*
X24789923Y-20715854D02*
X24786243Y-20719028D01*
X25497308Y-2000056D02*
X25497261Y-2000042D01*
X14438995Y-20543960D02*
X14443748Y-20545028D01*
X15265805Y-20036872D02*
X15261005Y-20036040D01*
X15204558Y-25847497D02*
X15208077Y-25844146D01*
X24789923Y-8609146D02*
X24793442Y-8612497D01*
X15282990Y-2801500D02*
X15274574Y-2801500D01*
X14510353Y-19886604D02*
X14512748Y-19890832D01*
X15204558Y-14592497D02*
X15208077Y-14589146D01*
X15204558Y-20712503D02*
X15201207Y-20708984D01*
X14491923Y-8050854D02*
X14488243Y-8054028D01*
X14398773Y-19840000D02*
X14398797Y-19840000D01*
X15299993Y-14760033D02*
X15299951Y-14760039D01*
X14498792Y-25983984D02*
X14495442Y-25987503D01*
X24818175Y-25946238D02*
X24816651Y-25950852D01*
X15250518Y-14053536D02*
X15245823Y-14052237D01*
X15245823Y-19842763D02*
X15250506Y-19841467D01*
X4889252Y-7930832D02*
X4891647Y-7926604D01*
X14417010Y-7878500D02*
X14425426Y-7878500D01*
X14400048Y-13859961D02*
X14404274Y-13859321D01*
X15227893Y-14044810D02*
X15223665Y-14042415D01*
X14399923Y-7879972D02*
X14399982Y-7879969D01*
X14399923Y-8780028D02*
X14398797Y-8780000D01*
X15177464Y-19918186D02*
X15178529Y-19913445D01*
X24770107Y-20024810D02*
X24765766Y-20026995D01*
X4887067Y-20684828D02*
X4885098Y-20680386D01*
X14480440Y-25835185D02*
X14484412Y-25837983D01*
X4894246Y-25972501D02*
X4891647Y-25968396D01*
X14516902Y-19899614D02*
X14518651Y-19904148D01*
X4202281Y-26619684D02*
X4202316Y-26619719D01*
X24756790Y-14755712D02*
X24752176Y-14757237D01*
X24747482Y-20546464D02*
X24752176Y-20547763D01*
X14523367Y-13942974D02*
X14523961Y-13947796D01*
X14419592Y-8078918D02*
X14414733Y-8079276D01*
X4990671Y-19838663D02*
X4996319Y-19839149D01*
X15250506Y-20738533D02*
X15245823Y-20737237D01*
X15192246Y-19882499D02*
X15195044Y-19878526D01*
X24802956Y-2761474D02*
X24799966Y-2765305D01*
X14484412Y-25997017D02*
X14480440Y-25999815D01*
X14524319Y-7972642D02*
X14524438Y-7977500D01*
X24741748Y-8585028D02*
X24747482Y-8586464D01*
X24814902Y-25955385D02*
X24812933Y-25959828D01*
X14521471Y-20666555D02*
X14520175Y-20671238D01*
X24789923Y-20010854D02*
X24786243Y-20014028D01*
X14501966Y-8745305D02*
X14498792Y-8748984D01*
X14510353Y-14713396D02*
X14507754Y-14717501D01*
X4943210Y-20735713D02*
X4938676Y-20733964D01*
X24810748Y-7930832D02*
X24812933Y-7935172D01*
X15256252Y-8585028D02*
X15261005Y-8583960D01*
X4202248Y-2000352D02*
X4202217Y-2000390D01*
X24820536Y-14681814D02*
X24819471Y-14686555D01*
X4938676Y-2793964D02*
X4934234Y-2791995D01*
X15236676Y-2611036D02*
X15241209Y-2609287D01*
X4906558Y-8752503D02*
X4903208Y-8748984D01*
X24742752Y-8779597D02*
X24737965Y-8780428D01*
X14504956Y-8741474D02*
X14501966Y-8745305D01*
X24695557Y-20040000D02*
X15302442Y-20040000D01*
X24796792Y-20708984D02*
X24793442Y-20712503D01*
X24810748Y-8635832D02*
X24812933Y-8640172D01*
X25497529Y-26619839D02*
X25497570Y-26619812D01*
X4878039Y-14652796D02*
X4878633Y-14647974D01*
X24717592Y-20038918D02*
X24712733Y-20039276D01*
X14498792Y-19871016D02*
X14501966Y-19874695D01*
X4202248Y-26619648D02*
X4202281Y-26619684D01*
X14516902Y-19975386D02*
X14514933Y-19979828D01*
X4885098Y-13919614D02*
X4887067Y-13915172D01*
X24796792Y-8748984D02*
X24793442Y-8752503D01*
X4202000Y-2001203D02*
X4202000Y-2001227D01*
X24761324Y-2793964D02*
X24756790Y-2795713D01*
X14424426Y-8581678D02*
X14434195Y-8583128D01*
X15299958Y-8780038D02*
X15294319Y-8780851D01*
X15300028Y-19839970D02*
X15300077Y-19839972D01*
X15175562Y-13957500D02*
X15175681Y-13952642D01*
X24799966Y-8745305D02*
X24796792Y-8748984D01*
X14504956Y-13898526D02*
X14507754Y-13902499D01*
X4910077Y-2629146D02*
X4913757Y-2625972D01*
X14449493Y-7881467D02*
X14454176Y-7882763D01*
X15176633Y-19952026D02*
X15176038Y-19947204D01*
X25497261Y-26619958D02*
X25497308Y-26619944D01*
X4929893Y-20729810D02*
X4925666Y-20727415D01*
X14467766Y-2613005D02*
X14472107Y-2615190D01*
X14498792Y-2768984D02*
X14495442Y-2772503D01*
X24805754Y-13902499D02*
X24808353Y-13906604D01*
X4880529Y-25941555D02*
X4879464Y-25936814D01*
X24722426Y-8078321D02*
X24717592Y-8078918D01*
X15183098Y-20604614D02*
X15185067Y-20600172D01*
X5003203Y-25820000D02*
X5003227Y-25820000D01*
X15192246Y-8627499D02*
X15195044Y-8623526D01*
X14495442Y-13887497D02*
X14498792Y-13891016D01*
X4881825Y-7948762D02*
X4883349Y-7944148D01*
X15181349Y-8649148D02*
X15183098Y-8644614D01*
X14476334Y-2617585D02*
X14480440Y-2620185D01*
X24821367Y-7992026D02*
X24820536Y-7996814D01*
X4883349Y-7944148D02*
X4885098Y-7939614D01*
X15175562Y-7977500D02*
X15175681Y-7972642D01*
X4996319Y-19839149D02*
X5001958Y-19839962D01*
X4885098Y-2664614D02*
X4887067Y-2660172D01*
X14501966Y-13894695D02*
X14504956Y-13898526D01*
X15280408Y-8078918D02*
X15275573Y-8078321D01*
X14504956Y-8036474D02*
X14501966Y-8040305D01*
X15198034Y-2765305D02*
X15195044Y-2761474D01*
X4202786Y-26619970D02*
X4202834Y-26619980D01*
X14520175Y-13928762D02*
X14521471Y-13933445D01*
X14520175Y-19908762D02*
X14521471Y-19913445D01*
X14472107Y-14044810D02*
X14467766Y-14046995D01*
X15175562Y-20642500D02*
X15175681Y-20637642D01*
X14495442Y-19867497D02*
X14498792Y-19871016D01*
X24814902Y-20604614D02*
X24816651Y-20609148D01*
X4202316Y-2000281D02*
X4202281Y-2000316D01*
X14444752Y-2799597D02*
X14439965Y-2800428D01*
X14463324Y-25826036D02*
X14467766Y-25828005D01*
X4982408Y-26018918D02*
X4977574Y-26018321D01*
X15176633Y-25932026D02*
X15176038Y-25927204D01*
X15198034Y-13894695D02*
X15201207Y-13891016D01*
X14404274Y-13859321D02*
X14408502Y-13858865D01*
X24796792Y-7911016D02*
X24799966Y-7914695D01*
X4947823Y-8072237D02*
X4943210Y-8070712D01*
X14504956Y-14721474D02*
X14501966Y-14725305D01*
X4202739Y-2000042D02*
X4202692Y-2000056D01*
X15280408Y-14561082D02*
X15285266Y-14560724D01*
X14444752Y-20739597D02*
X14439965Y-20740428D01*
X5002077Y-14760028D02*
X5002035Y-14760030D01*
X15269704Y-7878619D02*
X15274574Y-7878500D01*
X4966858Y-14761023D02*
X4962035Y-14760428D01*
X15227893Y-20729810D02*
X15223665Y-20727415D01*
X15175562Y-14662500D02*
X15175681Y-14657642D01*
X25496797Y-26620000D02*
X25497019Y-26619994D01*
X14507754Y-19992501D02*
X14504956Y-19996474D01*
X14524438Y-20642500D02*
X14524319Y-20647358D01*
X15299958Y-19839962D02*
X15299979Y-19839965D01*
X4976574Y-8781500D02*
X4976574Y-8781500D01*
X4938676Y-20028964D02*
X4934234Y-20026995D01*
X15241209Y-14050712D02*
X15236676Y-14048964D01*
X15215587Y-2782017D02*
X15211757Y-2779028D01*
X4910077Y-20010854D02*
X4906558Y-20007503D01*
X14412745Y-13858591D02*
X14417006Y-13858500D01*
X15223665Y-20557585D02*
X15227893Y-20555190D01*
X15219560Y-2784815D02*
X15215587Y-2782017D01*
X15181349Y-20675852D02*
X15179825Y-20671238D01*
X14488243Y-25994028D02*
X14484412Y-25997017D01*
X14399965Y-13859970D02*
X14400007Y-13859966D01*
X14434195Y-14056872D02*
X14424426Y-14058321D01*
X24821367Y-25932026D02*
X24820536Y-25936814D01*
X15181349Y-14629148D02*
X15183098Y-14624614D01*
X24715006Y-13858500D02*
X24723426Y-13858500D01*
X4917587Y-14582983D02*
X4921560Y-14580185D01*
X15192246Y-8737501D02*
X15189647Y-8733396D01*
X24702274Y-14760679D02*
X24698049Y-14760039D01*
X15189647Y-13906604D02*
X15192246Y-13902499D01*
X4887067Y-19979828D02*
X4885098Y-19975386D01*
X15179825Y-13928762D02*
X15181349Y-13924148D01*
X15219560Y-25835185D02*
X15223665Y-25832585D01*
X15236676Y-19846036D02*
X15241209Y-19844287D01*
X15264858Y-8781023D02*
X15260035Y-8780428D01*
X24793442Y-19867497D02*
X24796792Y-19871016D01*
X4202692Y-26619944D02*
X4202739Y-26619958D01*
X14434195Y-2603128D02*
X14438995Y-2603960D01*
X25497992Y-2000932D02*
X25497987Y-2000883D01*
X24696773Y-2800000D02*
X15301227Y-2800000D01*
X14520175Y-8006238D02*
X14518651Y-8010852D01*
X24808353Y-20693396D02*
X24805754Y-20697501D01*
X14472107Y-13870190D02*
X14476334Y-13872585D01*
X24696797Y-25820000D02*
X24697923Y-25819972D01*
X24808353Y-25968396D02*
X24805754Y-25972501D01*
X15250518Y-8073536D02*
X15250518Y-8073536D01*
X24747493Y-14758533D02*
X24742752Y-14759597D01*
X4894246Y-19882499D02*
X4897044Y-19878526D01*
X4971704Y-20741380D02*
X4966858Y-20741023D01*
X24789923Y-8755854D02*
X24786243Y-8759028D01*
X14512748Y-20595832D02*
X14514933Y-20600172D01*
X14467766Y-2791995D02*
X14463324Y-2793964D01*
X15211757Y-14739028D02*
X15208077Y-14735854D01*
X4913757Y-14585972D02*
X4917587Y-14582983D01*
X4952518Y-20033536D02*
X4952518Y-20033536D01*
X24812933Y-25875172D02*
X24814902Y-25879614D01*
X15198034Y-19874695D02*
X15201207Y-19871016D01*
X15183098Y-14700385D02*
X15181349Y-14695852D01*
X24796792Y-2636016D02*
X24799966Y-2639695D01*
X15256252Y-26014972D02*
X15250518Y-26013536D01*
X15232234Y-8066995D02*
X15227893Y-8064810D01*
X4934234Y-8771995D02*
X4929893Y-8769810D01*
X14512748Y-2655832D02*
X14514933Y-2660172D01*
X24789923Y-25844146D02*
X24793442Y-25847497D01*
X14480440Y-7895185D02*
X14484412Y-7897983D01*
X4880529Y-13981555D02*
X4879464Y-13976814D01*
X24820536Y-19918186D02*
X24821367Y-19922974D01*
X15274574Y-20741500D02*
X15274574Y-20741500D01*
X15198034Y-20000305D02*
X15195044Y-19996474D01*
X4943210Y-8589287D02*
X4947823Y-8587763D01*
X4877681Y-20647358D02*
X4877562Y-20642500D01*
X14438995Y-14563960D02*
X14443748Y-14565028D01*
X14458790Y-2795713D02*
X14454176Y-2797237D01*
X15245823Y-2607763D02*
X15250518Y-2606464D01*
X24810748Y-25964168D02*
X24808353Y-25968396D01*
X14524438Y-2702500D02*
X14524319Y-2707358D01*
X15192246Y-14012501D02*
X15189647Y-14008396D01*
X4976574Y-8781500D02*
X4971704Y-8781380D01*
X15215587Y-13877983D02*
X15219560Y-13875185D01*
X4929893Y-14749810D02*
X4925666Y-14747415D01*
X14495442Y-20712503D02*
X14491923Y-20715854D01*
X24732195Y-8583128D02*
X24736995Y-8583960D01*
X15181349Y-2669148D02*
X15183098Y-2664614D01*
X14472107Y-20555190D02*
X14476334Y-20557585D01*
X14467766Y-14573005D02*
X14472107Y-14575190D01*
X15302442Y-20540000D02*
X24695557Y-20540000D01*
X24816651Y-14629148D02*
X24818175Y-14633762D01*
X4878039Y-2712204D02*
X4877681Y-2707358D01*
X24712733Y-20039276D02*
X24700440Y-20039880D01*
X14520175Y-25946238D02*
X14518651Y-25950852D01*
X14467766Y-20731995D02*
X14463324Y-20733964D01*
X5003227Y-7880000D02*
X14398773Y-7880000D01*
X4878633Y-2717026D02*
X4878039Y-2712204D01*
X24717592Y-8581082D02*
X24722426Y-8581678D01*
X24722426Y-8581678D02*
X24732195Y-8583128D01*
X4202030Y-26619214D02*
X4202042Y-26619261D01*
X14512748Y-20689168D02*
X14510353Y-20693396D01*
X4913757Y-8605972D02*
X4917587Y-8602983D01*
X5001959Y-20740038D02*
X4996319Y-20740851D01*
X15236676Y-8591036D02*
X15241209Y-8589287D01*
X4958252Y-26014972D02*
X4952518Y-26013536D01*
X24822438Y-8682500D02*
X24822319Y-8687358D01*
X24733142Y-2801023D02*
X24728296Y-2801380D01*
X24822438Y-25917500D02*
X24822319Y-25922358D01*
X14488243Y-2779028D02*
X14484412Y-2782017D01*
X14398797Y-8780000D02*
X14398773Y-8780000D01*
X15219560Y-2620185D02*
X15223665Y-2617585D01*
X14424426Y-14058321D02*
X14419592Y-14058918D01*
X4984990Y-7878500D02*
X4990671Y-7878663D01*
X15274574Y-25818500D02*
X15282990Y-25818500D01*
X14516902Y-13995385D02*
X14514933Y-13999828D01*
X15282990Y-19838500D02*
X15288671Y-19838663D01*
X15181349Y-2735852D02*
X15179825Y-2731238D01*
X4921560Y-2784815D02*
X4917587Y-2782017D01*
X4906558Y-13887497D02*
X4910077Y-13884146D01*
X14449482Y-14053536D02*
X14443748Y-14054972D01*
X15215587Y-25837983D02*
X15219560Y-25835185D01*
X24821961Y-7987204D02*
X24821367Y-7992026D01*
X24752176Y-7882763D02*
X24756790Y-7884287D01*
X4957248Y-25820402D02*
X4962035Y-25819572D01*
X15201207Y-19871016D02*
X15204558Y-19867497D01*
X5003203Y-14760000D02*
X5002077Y-14760028D01*
X14458790Y-20549287D02*
X14463324Y-20551036D01*
X14512748Y-14615832D02*
X14514933Y-14620172D01*
X15274574Y-13858500D02*
X15282993Y-13858500D01*
X14439965Y-13859572D02*
X14444752Y-13860402D01*
X15245823Y-14567763D02*
X15250518Y-14566464D01*
X14414733Y-8580724D02*
X14419592Y-8581082D01*
X4917587Y-25837983D02*
X4921560Y-25835185D01*
X15299958Y-25819962D02*
X15299979Y-25819965D01*
X4977574Y-26018321D02*
X4967805Y-26016872D01*
X14467766Y-13868005D02*
X14472107Y-13870190D01*
X14523367Y-19952026D02*
X14522536Y-19956814D01*
X24756790Y-26010712D02*
X24752176Y-26012237D01*
X15261005Y-8076040D02*
X15256252Y-8074972D01*
X15208077Y-14030854D02*
X15204558Y-14027503D01*
X15185067Y-20684828D02*
X15183098Y-20680386D01*
X4878633Y-14677026D02*
X4878039Y-14672204D01*
X15223665Y-8062415D02*
X15219560Y-8059815D01*
X14476334Y-2787415D02*
X14472107Y-2789810D01*
X14520175Y-2731238D02*
X14518651Y-2735852D01*
X14399972Y-2800030D02*
X14399923Y-2800028D01*
X14414733Y-14059276D02*
X14402440Y-14059880D01*
X14501966Y-2639695D02*
X14504956Y-2643526D01*
X15250506Y-7881467D02*
X15255248Y-7880402D01*
X25498000Y-2001227D02*
X25498000Y-2001203D01*
X24756790Y-14050712D02*
X24752176Y-14052237D01*
X24697923Y-19839972D02*
X24697982Y-19839969D01*
X15302442Y-20040000D02*
X15297560Y-20039880D01*
X4952507Y-20738533D02*
X4947823Y-20737237D01*
X24715010Y-19838500D02*
X24723426Y-19838500D01*
X24793442Y-25847497D02*
X24796792Y-25851016D01*
X15227893Y-8769810D02*
X15223665Y-8767415D01*
X15302442Y-8580000D02*
X24695557Y-8580000D01*
X14504956Y-19878526D02*
X14507754Y-19882499D01*
X14399982Y-25819969D02*
X14400041Y-25819962D01*
X24752176Y-14757237D02*
X24747493Y-14758533D01*
X15187251Y-8635832D02*
X15189647Y-8631604D01*
X15215587Y-14037017D02*
X15211757Y-14034028D01*
X14523961Y-2712204D02*
X14523367Y-2717026D01*
X14522536Y-14681814D02*
X14521471Y-14686555D01*
X14510353Y-8631604D02*
X14512748Y-8635832D01*
X14518651Y-19970852D02*
X14516902Y-19975386D01*
X15215587Y-8057017D02*
X15211757Y-8054028D01*
X14491923Y-14589146D02*
X14495442Y-14592497D01*
X24774334Y-2787415D02*
X24770107Y-2789810D01*
X14523367Y-14647974D02*
X14523961Y-14652796D01*
X14411329Y-8781337D02*
X14405681Y-8780851D01*
X4962035Y-2800428D02*
X4957248Y-2799597D01*
X4903208Y-25851016D02*
X4906558Y-25847497D01*
X14463324Y-2611036D02*
X14467766Y-2613005D01*
X4883349Y-19970852D02*
X4881825Y-19966238D01*
X24733142Y-19838977D02*
X24737965Y-19839572D01*
X25498000Y-26618773D02*
X25498000Y-2001227D01*
X15219560Y-20019815D02*
X15215587Y-20017017D01*
X24695557Y-8580000D02*
X24700440Y-8580120D01*
X14522536Y-13976814D02*
X14521471Y-13981555D01*
X4947823Y-20032237D02*
X4943210Y-20030713D01*
X14514933Y-13915172D02*
X14516902Y-13919614D01*
X15227893Y-7890190D02*
X15232234Y-7888005D01*
X15179825Y-14691238D02*
X15178529Y-14686555D01*
X14518651Y-14695852D02*
X14516902Y-14700385D01*
X4881825Y-25946238D02*
X4880529Y-25941555D01*
X14521471Y-2726555D02*
X14520175Y-2731238D01*
X14507754Y-8627499D02*
X14510353Y-8631604D01*
X24778440Y-25999815D02*
X24774334Y-26002415D01*
X24818175Y-20671238D02*
X24816651Y-20675852D01*
X14484412Y-20017017D02*
X14480440Y-20019815D01*
X4984990Y-19838500D02*
X4990671Y-19838663D01*
X4883349Y-2669148D02*
X4885098Y-2664614D01*
X24810748Y-20595832D02*
X24812933Y-20600172D01*
X24728296Y-7878619D02*
X24733142Y-7878977D01*
X15211757Y-13880972D02*
X15215587Y-13877983D01*
X24709329Y-19838663D02*
X24715010Y-19838500D01*
X24821367Y-2717026D02*
X24820536Y-2721814D01*
X15183098Y-7939614D02*
X15185067Y-7935172D01*
X4982408Y-8078918D02*
X4977574Y-8078321D01*
X15208077Y-2775854D02*
X15204558Y-2772503D01*
X15187251Y-20689168D02*
X15185067Y-20684828D01*
X25497909Y-2000600D02*
X25497888Y-2000556D01*
X15302442Y-8080000D02*
X15297560Y-8079880D01*
X15208077Y-20569146D02*
X15211757Y-20565972D01*
X24818175Y-8653762D02*
X24819471Y-8658445D01*
X15192246Y-20587499D02*
X15195044Y-20583526D01*
X4999560Y-2600120D02*
X5004443Y-2600000D01*
X15195044Y-25858526D02*
X15198034Y-25854695D01*
X15195044Y-19996474D02*
X15192246Y-19992501D01*
X14524319Y-19932642D02*
X14524438Y-19937500D01*
X15185067Y-19895172D02*
X15187251Y-19890832D01*
X14504956Y-8623526D02*
X14507754Y-8627499D01*
X15280408Y-20038918D02*
X15275573Y-20038322D01*
X24816651Y-8010852D02*
X24814902Y-8015385D01*
X4952507Y-2798533D02*
X4947823Y-2797237D01*
X24782412Y-14582983D02*
X24786243Y-14585972D01*
X24799966Y-2765305D02*
X24796792Y-2768984D01*
X15274574Y-19838500D02*
X15282990Y-19838500D01*
X4925666Y-2617585D02*
X4929893Y-2615190D01*
X14476334Y-14577585D02*
X14480440Y-14580185D01*
X24802956Y-20701474D02*
X24799966Y-20705305D01*
X14520175Y-2673762D02*
X14521471Y-2678445D01*
X24770107Y-14749810D02*
X24765766Y-14751995D01*
X24747493Y-2798533D02*
X24742752Y-2799597D01*
X4885098Y-20680386D02*
X4883349Y-20675852D01*
X4900034Y-2765305D02*
X4897044Y-2761474D01*
X14444752Y-8779597D02*
X14439965Y-8780428D01*
X4952507Y-14758533D02*
X4947823Y-14757237D01*
X4952518Y-2606464D02*
X4958252Y-2605028D01*
X14504956Y-25858526D02*
X14507754Y-25862499D01*
X4889252Y-14004168D02*
X4887067Y-13999828D01*
X15187251Y-14615832D02*
X15189647Y-14611604D01*
X4897044Y-25858526D02*
X4900034Y-25854695D01*
X4947823Y-8777237D02*
X4943210Y-8775713D01*
X4943210Y-14050712D02*
X4938676Y-14048964D01*
X24786243Y-13880972D02*
X24789923Y-13884146D01*
X4966858Y-8781023D02*
X4962035Y-8780428D01*
X14425426Y-14761500D02*
X14417006Y-14761500D01*
X4891647Y-20591604D02*
X4894246Y-20587499D01*
X24756790Y-13864287D02*
X24761324Y-13866036D01*
X15211757Y-25840972D02*
X15215587Y-25837983D01*
X24770107Y-8064810D02*
X24765766Y-8066995D01*
X14522536Y-2721814D02*
X14521471Y-2726555D01*
X24732195Y-2603128D02*
X24736995Y-2603960D01*
X4982408Y-8581082D02*
X4987267Y-8580724D01*
X14521471Y-25893445D02*
X14522536Y-25898186D01*
X14443748Y-14565028D02*
X14449482Y-14566464D01*
X15181349Y-19904148D02*
X15183098Y-19899614D01*
X15185067Y-19979828D02*
X15183098Y-19975386D01*
X14419592Y-26018918D02*
X14414733Y-26019276D01*
X5004443Y-14560000D02*
X14397557Y-14560000D01*
X14491923Y-8755854D02*
X14488243Y-8759028D01*
X14522536Y-13938186D02*
X14523367Y-13942974D01*
X15241209Y-25824287D02*
X15245823Y-25822763D01*
X4202091Y-2000600D02*
X4202072Y-2000645D01*
X4966858Y-20741023D02*
X4962035Y-20740428D01*
X24793442Y-20007503D02*
X24789923Y-20010854D01*
X4958252Y-14054972D02*
X4952518Y-14053536D01*
X15211757Y-2779028D02*
X15208077Y-2775854D01*
X14520175Y-8653762D02*
X14521471Y-8658445D01*
X15195044Y-8036474D02*
X15192246Y-8032501D01*
X24736995Y-20036040D02*
X24732195Y-20036872D01*
X15215587Y-8762017D02*
X15211757Y-8759028D01*
X5001959Y-2800038D02*
X4996319Y-2800851D01*
X14507754Y-14717501D02*
X14504956Y-14721474D01*
X4897044Y-20701474D02*
X4894246Y-20697501D01*
X4938676Y-14753964D02*
X4934234Y-14751995D01*
X14419592Y-20038918D02*
X14414733Y-20039276D01*
X14476334Y-8597585D02*
X14480440Y-8600185D01*
X15201207Y-20003984D02*
X15198034Y-20000305D01*
X25497839Y-2000470D02*
X25497812Y-2000430D01*
X4887067Y-19895172D02*
X4889252Y-19890832D01*
X24799966Y-20000305D02*
X24796792Y-20003984D01*
X24819471Y-25941555D02*
X24818175Y-25946238D01*
X24799966Y-14599695D02*
X24802956Y-14603526D01*
X24796792Y-20003984D02*
X24793442Y-20007503D01*
X24778440Y-2620185D02*
X24782412Y-2622983D01*
X24802956Y-19996474D02*
X24799966Y-20000305D01*
X14449493Y-2798533D02*
X14444752Y-2799597D01*
X24741748Y-20034972D02*
X24736995Y-20036040D01*
X14520175Y-20613762D02*
X14521471Y-20618445D01*
X15177464Y-7958186D02*
X15178529Y-7953445D01*
X15285266Y-26019276D02*
X15280408Y-26018918D01*
X24712733Y-8580724D02*
X24717592Y-8581082D01*
X4996319Y-20740851D02*
X4990671Y-20741337D01*
X24789923Y-7904146D02*
X24793442Y-7907497D01*
X14495442Y-14027503D02*
X14491923Y-14030854D01*
X4977574Y-20038322D02*
X4967805Y-20036872D01*
X14507754Y-25862499D02*
X14510353Y-25866604D01*
X4881825Y-13986238D02*
X4880529Y-13981555D01*
X25497888Y-26619444D02*
X25497909Y-26619400D01*
X24765766Y-13868005D02*
X24770107Y-13870190D01*
X5002077Y-13859972D02*
X5003203Y-13860000D01*
X15260035Y-25819572D02*
X15264858Y-25818977D01*
X24732195Y-20543128D02*
X24736995Y-20543960D01*
X4202513Y-2000135D02*
X4202470Y-2000160D01*
X14523961Y-20652204D02*
X14523367Y-20657026D01*
X4880529Y-20666555D02*
X4879464Y-20661814D01*
X24816651Y-25950852D02*
X24814902Y-25955385D01*
X15195044Y-8623526D02*
X15198034Y-8619695D01*
X15223665Y-20727415D02*
X15219560Y-20724815D01*
X4878633Y-7962974D02*
X4879464Y-7958186D01*
X24822319Y-20647358D02*
X24821961Y-20652204D01*
X4879464Y-8663186D02*
X4880529Y-8658445D01*
X4962035Y-20740428D02*
X4957248Y-20739597D01*
X5002017Y-20740031D02*
X5001959Y-20740038D01*
X4903208Y-8043984D02*
X4900034Y-8040305D01*
X15280408Y-2601082D02*
X15285266Y-2600724D01*
X24696797Y-8780000D02*
X24696773Y-8780000D01*
X15223665Y-13872585D02*
X15227893Y-13870190D01*
X24820536Y-8701814D02*
X24819471Y-8706555D01*
X15227893Y-19850190D02*
X15232234Y-19848005D01*
X4947823Y-25822763D02*
X4952507Y-25821467D01*
X15265805Y-2603128D02*
X15275573Y-2601678D01*
X24821961Y-7967796D02*
X24822319Y-7972642D01*
X4894246Y-20697501D02*
X4891647Y-20693396D01*
X15176038Y-19927796D02*
X15176633Y-19922974D01*
X14443748Y-20034972D02*
X14438995Y-20036040D01*
X24723426Y-14761500D02*
X24715006Y-14761500D01*
X24820536Y-7958186D02*
X24821367Y-7962974D01*
X15301203Y-19840000D02*
X15301227Y-19840000D01*
X24747482Y-8586464D02*
X24752176Y-8587763D01*
X4963005Y-8583960D02*
X4967805Y-8583128D01*
X4971704Y-2801380D02*
X4966858Y-2801023D01*
X15176633Y-19922974D02*
X15177464Y-19918186D01*
X4984990Y-20741500D02*
X4976574Y-20741500D01*
X4921560Y-2620185D02*
X4925666Y-2617585D01*
X4952507Y-8778533D02*
X4947823Y-8777237D01*
X24697982Y-25819969D02*
X24698041Y-25819962D01*
X24765766Y-8771995D02*
X24761324Y-8773964D01*
X24816651Y-20675852D02*
X24814902Y-20680386D01*
X14491923Y-2629146D02*
X14495442Y-2632497D01*
X4883349Y-8649148D02*
X4885098Y-8644614D01*
X24786243Y-19860972D02*
X24789923Y-19864146D01*
X15195044Y-13898526D02*
X15198034Y-13894695D01*
X14512748Y-8635832D02*
X14514933Y-8640172D01*
X4952507Y-25821467D02*
X4957248Y-25820402D01*
X15256252Y-14054972D02*
X15250518Y-14053536D01*
X25497529Y-2000160D02*
X25497487Y-2000135D01*
X14458790Y-8775713D02*
X14454176Y-8777237D01*
X24786243Y-8054028D02*
X24782412Y-8057017D01*
X15250506Y-19841467D02*
X15255248Y-19840403D01*
X14501966Y-20705305D02*
X14498792Y-20708984D01*
X14458790Y-20030713D02*
X14454176Y-20032237D01*
X24822319Y-2707358D02*
X24821961Y-2712204D01*
X4903208Y-14023984D02*
X4900034Y-14020305D01*
X15187251Y-19890832D02*
X15189647Y-19886604D01*
X15185067Y-2744828D02*
X15183098Y-2740386D01*
X24796792Y-14596016D02*
X24799966Y-14599695D01*
X14488243Y-14585972D02*
X14491923Y-14589146D01*
X4943210Y-14755712D02*
X4938676Y-14753964D01*
X24741748Y-14565028D02*
X24747482Y-14566464D01*
X14518651Y-25884148D02*
X14520175Y-25888762D01*
X24782412Y-14742017D02*
X24778440Y-14744815D01*
X4943210Y-7884287D02*
X4947823Y-7882763D01*
X15177464Y-8701814D02*
X15176633Y-8697026D01*
X4925666Y-7892585D02*
X4929893Y-7890190D01*
X15192246Y-7922499D02*
X15195044Y-7918526D01*
X24799966Y-25854695D02*
X24802956Y-25858526D01*
X4881825Y-2673762D02*
X4883349Y-2669148D01*
X24717592Y-8078918D02*
X24712733Y-8079276D01*
X25497752Y-26619648D02*
X25497783Y-26619610D01*
X15280408Y-26018918D02*
X15275573Y-26018321D01*
X15201207Y-7911016D02*
X15204558Y-7907497D01*
X15178529Y-25941555D02*
X15177464Y-25936814D01*
X24765766Y-20553005D02*
X24770107Y-20555190D01*
X4889252Y-20689168D02*
X4887067Y-20684828D01*
X24717592Y-14058918D02*
X24712733Y-14059276D01*
X24752176Y-20547763D02*
X24756790Y-20549287D01*
X15175681Y-19942358D02*
X15175562Y-19937500D01*
X4982408Y-14561082D02*
X4987267Y-14560724D01*
X15255248Y-25820402D02*
X15260035Y-25819572D01*
X4938676Y-8068964D02*
X4934234Y-8066995D01*
X24765766Y-14573005D02*
X24770107Y-14575190D01*
X14439965Y-14760428D02*
X14435142Y-14761023D01*
X24812933Y-25959828D02*
X24810748Y-25964168D01*
X14488243Y-14739028D02*
X14484412Y-14742017D01*
X24698021Y-2800035D02*
X24697972Y-2800030D01*
X4879464Y-20623186D02*
X4880529Y-20618445D01*
X15223665Y-14577585D02*
X15227893Y-14575190D01*
X24802956Y-25858526D02*
X24805754Y-25862499D01*
X24700440Y-2600120D02*
X24712733Y-2600724D01*
X15195044Y-20583526D02*
X15198034Y-20579695D01*
X14510353Y-13906604D02*
X14512748Y-13910832D01*
X25497684Y-26619719D02*
X25497719Y-26619684D01*
X24698042Y-20740038D02*
X24698021Y-20740035D01*
X24717592Y-14561082D02*
X24722426Y-14561678D01*
X24761324Y-14571036D02*
X24765766Y-14573005D01*
X25497812Y-26619570D02*
X25497839Y-26619529D01*
X15208077Y-14589146D02*
X15211757Y-14585972D01*
X4202008Y-26619068D02*
X4202013Y-26619117D01*
X14488243Y-19860972D02*
X14491923Y-19864146D01*
X24816651Y-20609148D02*
X24818175Y-20613762D01*
X14484412Y-2782017D02*
X14480440Y-2784815D01*
X24818175Y-14633762D02*
X24819471Y-14638445D01*
X14512748Y-8729168D02*
X14510353Y-8733396D01*
X24756790Y-20549287D02*
X24761324Y-20551036D01*
X14524438Y-8682500D02*
X14524319Y-8687358D01*
X4906558Y-8047503D02*
X4903208Y-8043984D01*
X15183098Y-2740386D02*
X15181349Y-2735852D01*
X14397557Y-14560000D02*
X14402440Y-14560120D01*
X24822319Y-25922358D02*
X24821961Y-25927204D01*
X15299958Y-19839962D02*
X15299958Y-19839962D01*
X14435142Y-7878977D02*
X14439965Y-7879572D01*
X24770107Y-8769810D02*
X24765766Y-8771995D01*
X14439965Y-20740428D02*
X14435142Y-20741023D01*
X15282990Y-7878500D02*
X15288671Y-7878663D01*
X14402440Y-14560120D02*
X14414733Y-14560724D01*
X15264858Y-14761023D02*
X15260035Y-14760428D01*
X25497400Y-2000091D02*
X25497354Y-2000072D01*
X15208077Y-13884146D02*
X15211757Y-13880972D01*
X15274574Y-2801500D02*
X15274574Y-2801500D01*
X5001958Y-25819962D02*
X5001958Y-25819962D01*
X14523961Y-13967204D02*
X14523367Y-13972026D01*
X15274574Y-2801500D02*
X15269704Y-2801380D01*
X24733142Y-14761023D02*
X24728296Y-14761380D01*
X14480440Y-20724815D02*
X14476334Y-20727415D01*
X15300017Y-2800031D02*
X15299958Y-2800038D01*
X4877681Y-8687358D02*
X4877562Y-8682500D01*
X14510353Y-2651604D02*
X14512748Y-2655832D01*
X24822438Y-14662500D02*
X24822319Y-14667358D01*
X4910077Y-14030854D02*
X4906558Y-14027503D01*
X4952518Y-14053536D02*
X4952518Y-14053536D01*
X24812933Y-7935172D02*
X24814902Y-7939614D01*
X4966858Y-19838977D02*
X4971704Y-19838620D01*
X14424426Y-14561678D02*
X14434195Y-14563127D01*
X14488243Y-13880972D02*
X14491923Y-13884146D01*
X4897044Y-8036474D02*
X4894246Y-8032501D01*
X14408502Y-14761135D02*
X14404274Y-14760679D01*
X5004443Y-2600000D02*
X14397557Y-2600000D01*
X24733142Y-7878977D02*
X24737965Y-7879572D01*
X4957248Y-13860402D02*
X4962035Y-13859572D01*
X15187251Y-19984168D02*
X15185067Y-19979828D01*
X24782412Y-2622983D02*
X24786243Y-2625972D01*
X24786243Y-8605972D02*
X24789923Y-8609146D01*
X14514933Y-8724828D02*
X14512748Y-8729168D01*
X25497214Y-2000030D02*
X25497165Y-2000020D01*
X14458790Y-25824287D02*
X14463324Y-25826036D01*
X24820536Y-2721814D02*
X24819471Y-2726555D01*
X4880529Y-20618445D02*
X4881825Y-20613762D01*
X24728296Y-20741380D02*
X24723426Y-20741500D01*
X14510353Y-2753396D02*
X14507754Y-2757501D01*
X24737965Y-20740428D02*
X24733142Y-20741023D01*
X4891647Y-8733396D02*
X4889252Y-8729168D01*
X14463324Y-2793964D02*
X14458790Y-2795713D01*
X4913757Y-14034028D02*
X4910077Y-14030854D01*
X24698049Y-14760039D02*
X24698021Y-14760035D01*
X15301203Y-8780000D02*
X15300077Y-8780028D01*
X24756790Y-20735713D02*
X24752176Y-20737237D01*
X15245823Y-25822763D02*
X15250506Y-25821467D01*
X5003227Y-19840000D02*
X14398773Y-19840000D01*
X14507754Y-2757501D02*
X14504956Y-2761474D01*
X24793442Y-14732503D02*
X24789923Y-14735854D01*
X15269704Y-25818619D02*
X15274574Y-25818500D01*
X14398797Y-20740000D02*
X14398773Y-20740000D01*
X14495442Y-7907497D02*
X14498792Y-7911016D01*
X14398773Y-20740000D02*
X5003227Y-20740000D01*
X4906558Y-25987503D02*
X4903208Y-25983984D01*
X15301227Y-2800000D02*
X15301203Y-2800000D01*
X4877562Y-19937500D02*
X4877681Y-19932642D01*
X5001979Y-13859965D02*
X5002028Y-13859970D01*
X24814902Y-2740386D02*
X24812933Y-2744828D01*
X15265805Y-8076872D02*
X15261005Y-8076040D01*
X15176038Y-25907796D02*
X15176633Y-25902974D01*
X24723426Y-19838500D02*
X24728296Y-19838620D01*
X24821367Y-2687974D02*
X24821961Y-2692796D01*
X14484412Y-14582983D02*
X14488243Y-14585972D01*
X15255248Y-13860402D02*
X15260035Y-13859572D01*
X5002035Y-14760030D02*
X5001993Y-14760033D01*
X24698042Y-8780038D02*
X24698021Y-8780035D01*
X4921560Y-8600185D02*
X4925666Y-8597585D01*
X14449493Y-25821467D02*
X14454176Y-25822763D01*
X4885098Y-8015385D02*
X4883349Y-8010852D01*
X4903208Y-14728984D02*
X4900034Y-14725305D01*
X4881825Y-25888762D02*
X4883349Y-25884148D01*
X15187251Y-20595832D02*
X15189647Y-20591604D01*
X4203203Y-2000000D02*
X4202981Y-2000006D01*
X4934234Y-13868005D02*
X4938676Y-13866036D01*
X4906558Y-20712503D02*
X4903208Y-20708984D01*
X15175562Y-25917500D02*
X15175681Y-25912642D01*
X4894246Y-14607499D02*
X4897044Y-14603526D01*
X25498000Y-2001203D02*
X25497994Y-2000981D01*
X4999560Y-8580120D02*
X5004443Y-8580000D01*
X4202188Y-2000430D02*
X4202161Y-2000470D01*
X15227893Y-25830190D02*
X15232234Y-25828005D01*
X14501966Y-7914695D02*
X14504956Y-7918526D01*
X15265805Y-20543128D02*
X15275573Y-20541678D01*
X14484412Y-8602983D02*
X14488243Y-8605972D01*
X15299958Y-7879962D02*
X15299979Y-7879965D01*
X4987267Y-20039276D02*
X4982408Y-20038918D01*
X4883349Y-25884148D02*
X4885098Y-25879614D01*
X4925666Y-13872585D02*
X4929893Y-13870190D01*
X4885098Y-8720386D02*
X4883349Y-8715852D01*
X5001951Y-13859961D02*
X5001979Y-13859965D01*
X24774334Y-8062415D02*
X24770107Y-8064810D01*
X4879464Y-20661814D02*
X4878633Y-20657026D01*
X4934234Y-20026995D02*
X4929893Y-20024810D01*
X24770107Y-14044810D02*
X24765766Y-14046995D01*
X25497980Y-26619165D02*
X25497987Y-26619117D01*
X15176038Y-20652204D02*
X15175681Y-20647358D01*
X5003227Y-8780000D02*
X5003203Y-8780000D01*
X4913757Y-14739028D02*
X4910077Y-14735854D01*
X24816651Y-2735852D02*
X24814902Y-2740386D01*
X15274574Y-20741500D02*
X15269704Y-20741380D01*
X24814902Y-25879614D02*
X24816651Y-25884148D01*
X14400042Y-2800038D02*
X14400021Y-2800035D01*
X24700440Y-8580120D02*
X24712733Y-8580724D01*
X15250506Y-14758533D02*
X15245823Y-14757237D01*
X4934234Y-8066995D02*
X4929893Y-8064810D01*
X15185067Y-13915172D02*
X15187251Y-13910832D01*
X14524319Y-13962358D02*
X14523961Y-13967204D01*
X14424426Y-26018321D02*
X14419592Y-26018918D01*
X24793442Y-2772503D02*
X24789923Y-2775854D01*
X4947823Y-8587763D02*
X4952518Y-8586464D01*
X4203227Y-26620000D02*
X25496773Y-26620000D01*
X4887067Y-2744828D02*
X4885098Y-2740386D01*
X4952518Y-20546464D02*
X4958252Y-20545028D01*
X4996319Y-25819149D02*
X5001958Y-25819962D01*
X15223665Y-19852585D02*
X15227893Y-19850190D01*
X4957248Y-14759597D02*
X4952507Y-14758533D01*
X14476334Y-20557585D02*
X14480440Y-20560185D01*
X4878039Y-14672204D02*
X4877681Y-14667358D01*
X15301227Y-20740000D02*
X15301203Y-20740000D01*
X15232234Y-2791995D02*
X15227893Y-2789810D01*
X14521471Y-13933445D02*
X14522536Y-13938186D01*
X4203203Y-26620000D02*
X4203227Y-26620000D01*
X15219560Y-7895185D02*
X15223665Y-7892585D01*
X4897044Y-19996474D02*
X4894246Y-19992501D01*
X24810748Y-2655832D02*
X24812933Y-2660172D01*
X14414733Y-2600724D02*
X14419592Y-2601082D01*
X24717592Y-20541082D02*
X24722426Y-20541678D01*
X24821961Y-14672204D02*
X24821367Y-14677026D01*
X4202352Y-2000248D02*
X4202316Y-2000281D01*
X25497927Y-26619354D02*
X25497944Y-26619308D01*
X24778440Y-14744815D02*
X24774334Y-14747415D01*
X14488243Y-20014028D02*
X14484412Y-20017017D01*
X4976574Y-20741500D02*
X4976574Y-20741500D01*
X25498000Y-26618797D02*
X25498000Y-26618773D01*
X15227893Y-26004810D02*
X15223665Y-26002415D01*
X14472107Y-20729810D02*
X14467766Y-20731995D01*
X15250518Y-8073536D02*
X15245823Y-8072237D01*
X24821961Y-19947204D02*
X24821367Y-19952026D01*
X4925666Y-25832585D02*
X4929893Y-25830190D01*
X15179825Y-19908762D02*
X15181349Y-19904148D01*
X14400041Y-25819962D02*
X14405681Y-25819149D01*
X14507754Y-13902499D02*
X14510353Y-13906604D01*
X4889252Y-25870832D02*
X4891647Y-25866604D01*
X15204558Y-2772503D02*
X15201207Y-2768984D01*
X15280408Y-14058918D02*
X15275573Y-14058321D01*
X4963005Y-8076040D02*
X4958252Y-8074972D01*
X4894246Y-2757501D02*
X4891647Y-2753396D01*
X15211757Y-7900972D02*
X15215587Y-7897983D01*
X15282993Y-14761500D02*
X15274574Y-14761500D01*
X14476334Y-14042415D02*
X14472107Y-14044810D01*
X24756790Y-25824287D02*
X24761324Y-25826036D01*
X15176633Y-20657026D02*
X15176038Y-20652204D01*
X15300077Y-25819972D02*
X15301203Y-25820000D01*
X24814902Y-14624614D02*
X24816651Y-14629148D01*
X14438995Y-2603960D02*
X14443748Y-2605028D01*
X4963005Y-20543960D02*
X4967805Y-20543128D01*
X4202000Y-26618797D02*
X4202006Y-26619019D01*
X24752176Y-8072237D02*
X24747482Y-8073536D01*
X14521471Y-25941555D02*
X14520175Y-25946238D01*
X24789923Y-20569146D02*
X24793442Y-20572497D01*
X24712733Y-20540724D02*
X24717592Y-20541082D01*
X15176038Y-8672796D02*
X15176633Y-8667974D01*
X14498792Y-8616016D02*
X14501966Y-8619695D01*
X15297560Y-20039880D02*
X15285266Y-20039276D01*
X14507754Y-20697501D02*
X14504956Y-20701474D01*
X14480440Y-13875185D02*
X14484412Y-13877983D01*
X4957248Y-8779597D02*
X4952507Y-8778533D01*
X15241209Y-13864287D02*
X15245823Y-13862763D01*
X4202692Y-2000056D02*
X4202646Y-2000072D01*
X4894246Y-13902499D02*
X4897044Y-13898526D01*
X24799966Y-25980305D02*
X24796792Y-25983984D01*
X15192246Y-13902499D02*
X15195044Y-13898526D01*
X5003203Y-2800000D02*
X5002077Y-2800028D01*
X4967805Y-2603128D02*
X4977574Y-2601678D01*
X24736995Y-26016040D02*
X24732195Y-26016872D01*
X4894246Y-2647499D02*
X4897044Y-2643526D01*
X15198034Y-14599695D02*
X15201207Y-14596016D01*
X24814902Y-19975386D02*
X24812933Y-19979828D01*
X14498792Y-25851016D02*
X14501966Y-25854695D01*
X15236676Y-8773964D02*
X15232234Y-8771995D01*
X15183098Y-25955385D02*
X15181349Y-25950852D01*
X14518651Y-2735852D02*
X14516902Y-2740386D01*
X14430296Y-13858619D02*
X14435142Y-13858977D01*
X14501966Y-14599695D02*
X14504956Y-14603526D01*
X24810748Y-2749168D02*
X24808353Y-2753396D01*
X24812933Y-13999828D02*
X24810748Y-14004168D01*
X24778440Y-25835185D02*
X24782412Y-25837983D01*
X24696773Y-25820000D02*
X24696797Y-25820000D01*
X24778440Y-2784815D02*
X24774334Y-2787415D01*
X4990671Y-25818663D02*
X4996319Y-25819149D01*
X14510353Y-14611604D02*
X14512748Y-14615832D01*
X24821367Y-14677026D02*
X24820536Y-14681814D01*
X14480440Y-14039815D02*
X14476334Y-14042415D01*
X4880529Y-25893445D02*
X4881825Y-25888762D01*
X15275573Y-2601678D02*
X15280408Y-2601082D01*
X15183098Y-13919614D02*
X15185067Y-13915172D01*
X24802956Y-2643526D02*
X24805754Y-2647499D01*
X4906558Y-14732503D02*
X4903208Y-14728984D01*
X4966858Y-13858977D02*
X4971704Y-13858619D01*
X14504956Y-14603526D02*
X14507754Y-14607499D01*
X15245823Y-8777237D02*
X15241209Y-8775713D01*
X24737965Y-14760428D02*
X24733142Y-14761023D01*
X24737965Y-13859572D02*
X24742752Y-13860402D01*
X24808353Y-8733396D02*
X24805754Y-8737501D01*
X24819471Y-8001555D02*
X24818175Y-8006238D01*
X25497812Y-2000430D02*
X25497783Y-2000390D01*
X15241209Y-7884287D02*
X15245823Y-7882763D01*
X4999560Y-14059880D02*
X4987267Y-14059276D01*
X25497783Y-26619610D02*
X25497812Y-26619570D01*
X24736995Y-8076040D02*
X24732195Y-8076872D01*
X15204558Y-14732503D02*
X15201207Y-14728984D01*
X4977574Y-8581678D02*
X4982408Y-8581082D01*
X24796792Y-14023984D02*
X24793442Y-14027503D01*
X24702274Y-13859321D02*
X24706502Y-13858865D01*
X5002077Y-2800028D02*
X5002017Y-2800031D01*
X24782412Y-20017017D02*
X24778440Y-20019815D01*
X14520175Y-13986238D02*
X14518651Y-13990852D01*
X15261005Y-14056040D02*
X15256252Y-14054972D01*
X15195044Y-14721474D02*
X15192246Y-14717501D01*
X4202646Y-26619927D02*
X4202692Y-26619944D01*
X24698042Y-20740038D02*
X24698042Y-20740038D01*
X15192246Y-14607499D02*
X15195044Y-14603526D01*
X4894246Y-8737501D02*
X4891647Y-8733396D01*
X24820536Y-7996814D02*
X24819471Y-8001555D01*
X15215587Y-25997017D02*
X15211757Y-25994028D01*
X15176633Y-13942974D02*
X15177464Y-13938186D01*
X14480440Y-8600185D02*
X14484412Y-8602983D01*
X25497719Y-2000316D02*
X25497684Y-2000281D01*
X14518651Y-7944148D02*
X14520175Y-7948762D01*
X24736995Y-14056040D02*
X24732195Y-14056872D01*
X4889252Y-8635832D02*
X4891647Y-8631604D01*
X24816651Y-13990852D02*
X24814902Y-13995385D01*
X4878039Y-7967796D02*
X4878633Y-7962974D01*
X24709329Y-8781337D02*
X24703681Y-8780851D01*
X14398797Y-7880000D02*
X14399923Y-7879972D01*
X4877562Y-14662500D02*
X4877681Y-14657642D01*
X14521471Y-19913445D02*
X14522536Y-19918186D01*
X24709329Y-2801337D02*
X24703681Y-2800851D01*
X15219560Y-25999815D02*
X15215587Y-25997017D01*
X25497987Y-2000883D02*
X25497980Y-2000834D01*
X15255248Y-19840403D02*
X15260035Y-19839572D01*
X4879464Y-19956814D02*
X4878633Y-19952026D01*
X15227893Y-2789810D02*
X15223665Y-2787415D01*
X15269704Y-2801380D02*
X15264858Y-2801023D01*
X5004443Y-20040000D02*
X4999560Y-20039880D01*
X4971704Y-25818619D02*
X4976574Y-25818500D01*
X24782412Y-25997017D02*
X24778440Y-25999815D01*
X15223665Y-20022415D02*
X15219560Y-20019815D01*
X25497487Y-2000135D02*
X25497444Y-2000112D01*
X14491923Y-8609146D02*
X14495442Y-8612497D01*
X15300077Y-14760028D02*
X15300035Y-14760030D01*
X24812933Y-8019828D02*
X24810748Y-8024168D01*
X4883349Y-20675852D02*
X4881825Y-20671238D01*
X24821367Y-14647974D02*
X24821961Y-14652796D01*
X15177464Y-25898186D02*
X15178529Y-25893445D01*
X14523367Y-7992026D02*
X14522536Y-7996814D01*
X15178529Y-8658445D02*
X15179825Y-8653762D01*
X14524438Y-14662500D02*
X14524319Y-14667358D01*
X14400042Y-8780038D02*
X14400042Y-8780038D01*
X24778440Y-8600185D02*
X24782412Y-8602983D01*
X15261005Y-20543960D02*
X15265805Y-20543128D01*
X5003203Y-8780000D02*
X5002077Y-8780028D01*
X4958252Y-2605028D02*
X4963005Y-2603960D01*
X14524319Y-14657642D02*
X14524438Y-14662500D01*
X14400021Y-2800035D02*
X14399972Y-2800030D01*
X15256252Y-2605028D02*
X15261005Y-2603960D01*
X4880529Y-8001555D02*
X4879464Y-7996814D01*
X4900034Y-25980305D02*
X4897044Y-25976474D01*
X14400042Y-8780038D02*
X14400021Y-8780035D01*
X24793442Y-7907497D02*
X24796792Y-7911016D01*
X4906558Y-2632497D02*
X4910077Y-2629146D01*
X4910077Y-8609146D02*
X4913757Y-8605972D01*
X4900034Y-20705305D02*
X4897044Y-20701474D01*
X24808353Y-25866604D02*
X24810748Y-25870832D01*
X15255248Y-20739597D02*
X15250506Y-20738533D01*
X4878633Y-13942974D02*
X4879464Y-13938186D01*
X24799966Y-7914695D02*
X24802956Y-7918526D01*
X14514933Y-20600172D02*
X14516902Y-20604614D01*
X14501966Y-14020305D02*
X14498792Y-14023984D01*
X25497970Y-2000786D02*
X25497958Y-2000739D01*
X14498792Y-8748984D02*
X14495442Y-8752503D01*
X4202932Y-2000008D02*
X4202883Y-2000013D01*
X24805754Y-14607499D02*
X24808353Y-14611604D01*
X25497214Y-26619970D02*
X25497261Y-26619958D01*
X24821961Y-20632796D02*
X24822319Y-20637642D01*
X5002077Y-20740028D02*
X5002017Y-20740031D01*
X4887067Y-25875172D02*
X4889252Y-25870832D01*
X4952518Y-14053536D02*
X4947823Y-14052237D01*
X15250506Y-25821467D02*
X15255248Y-25820402D01*
X24698042Y-8780038D02*
X24698042Y-8780038D01*
X24808353Y-14713396D02*
X24805754Y-14717501D01*
X14498792Y-20003984D02*
X14495442Y-20007503D01*
X14507754Y-20587499D02*
X14510353Y-20591604D01*
X24812933Y-20684828D02*
X24810748Y-20689168D01*
X15211757Y-20014028D02*
X15208077Y-20010854D01*
X4887067Y-8019828D02*
X4885098Y-8015385D01*
X14516902Y-25955385D02*
X14514933Y-25959828D01*
X14438995Y-8076040D02*
X14434195Y-8076872D01*
X14399972Y-20740030D02*
X14399923Y-20740028D01*
X14463324Y-14753964D02*
X14458790Y-14755712D01*
X15185067Y-13999828D02*
X15183098Y-13995385D01*
X4202883Y-2000013D02*
X4202834Y-2000020D01*
X24808353Y-20591604D02*
X24810748Y-20595832D01*
X4891647Y-14611604D02*
X4894246Y-14607499D01*
X24752176Y-20737237D02*
X24747493Y-20738533D01*
X14454176Y-20547763D02*
X14458790Y-20549287D01*
X4879464Y-13938186D02*
X4880529Y-13933445D01*
X15232234Y-13868005D02*
X15236676Y-13866036D01*
X14491923Y-20010854D02*
X14488243Y-20014028D01*
X4943210Y-8070712D02*
X4938676Y-8068964D01*
X14435142Y-25818977D02*
X14439965Y-25819572D01*
X4202217Y-2000390D02*
X4202188Y-2000430D01*
X14512748Y-14709168D02*
X14510353Y-14713396D01*
X4878633Y-20627974D02*
X4879464Y-20623186D01*
X4878039Y-8692204D02*
X4877681Y-8687358D01*
X14522536Y-25936814D02*
X14521471Y-25941555D01*
X4894246Y-25862499D02*
X4897044Y-25858526D01*
X5004443Y-20540000D02*
X14397557Y-20540000D01*
X4202161Y-2000470D02*
X4202135Y-2000512D01*
X14520175Y-14691238D02*
X14518651Y-14695852D01*
X5002028Y-13859970D02*
X5002077Y-13859972D01*
X24700440Y-8079880D02*
X24695557Y-8080000D01*
X14495442Y-25847497D02*
X14498792Y-25851016D01*
X15175681Y-14667358D02*
X15175562Y-14662500D01*
X24786243Y-25994028D02*
X24782412Y-25997017D01*
X24741748Y-26014972D02*
X24736995Y-26016040D01*
X24712733Y-2600724D02*
X24717592Y-2601082D01*
X14510353Y-14008396D02*
X14507754Y-14012501D01*
X24814902Y-8015385D02*
X24812933Y-8019828D01*
X24816651Y-8649148D02*
X24818175Y-8653762D01*
X15177464Y-14643186D02*
X15178529Y-14638445D01*
X4883349Y-19904148D02*
X4885098Y-19899614D01*
X24741748Y-8074972D02*
X24736995Y-8076040D01*
X15204558Y-14027503D02*
X15201207Y-14023984D01*
X14398773Y-2800000D02*
X5003227Y-2800000D01*
X15301203Y-7880000D02*
X15301227Y-7880000D01*
X15223665Y-2617585D02*
X15227893Y-2615190D01*
X5003227Y-20740000D02*
X5003203Y-20740000D01*
X14484412Y-14037017D02*
X14480440Y-14039815D01*
X4878633Y-25932026D02*
X4878039Y-25927204D01*
X14397557Y-8580000D02*
X14402440Y-8580120D01*
X4917587Y-2782017D02*
X4913757Y-2779028D01*
X24695557Y-14060000D02*
X15302442Y-14060000D01*
X4879464Y-19918186D02*
X4880529Y-19913445D01*
X4903208Y-20576016D02*
X4906558Y-20572497D01*
X24818175Y-19966238D02*
X24816651Y-19970852D01*
X24793442Y-14592497D02*
X24796792Y-14596016D01*
X15179825Y-8711238D02*
X15178529Y-8706555D01*
X15280408Y-8581082D02*
X15285266Y-8580724D01*
X4202135Y-2000512D02*
X4202112Y-2000556D01*
X14512748Y-13910832D02*
X14514933Y-13915172D01*
X15215587Y-14742017D02*
X15211757Y-14739028D01*
X24802956Y-8036474D02*
X24799966Y-8040305D01*
X14488243Y-20719028D02*
X14484412Y-20722017D01*
X24697972Y-14760030D02*
X24697923Y-14760028D01*
X14405681Y-19839149D02*
X14411329Y-19838663D01*
X14504956Y-20583526D02*
X14507754Y-20587499D01*
X4885098Y-14700385D02*
X4883349Y-14695852D01*
X5002017Y-8780031D02*
X5001959Y-8780038D01*
X15227893Y-20024810D02*
X15223665Y-20022415D01*
X4903208Y-2768984D02*
X4900034Y-2765305D01*
X4976574Y-14761500D02*
X4971704Y-14761380D01*
X24805754Y-25972501D02*
X24802956Y-25976474D01*
X15208077Y-20010854D02*
X15204558Y-20007503D01*
X24756790Y-19844287D02*
X24761324Y-19846036D01*
X14491923Y-20569146D02*
X14495442Y-20572497D01*
X25497958Y-26619261D02*
X25497970Y-26619214D01*
X14402440Y-26019880D02*
X14397557Y-26020000D01*
X4976574Y-7878500D02*
X4984990Y-7878500D01*
X14444752Y-13860402D02*
X14449493Y-13861467D01*
X4943210Y-13864287D02*
X4947823Y-13862763D01*
X14399972Y-14760030D02*
X14399923Y-14760028D01*
X24802956Y-14721474D02*
X24799966Y-14725305D01*
X14488243Y-20565972D02*
X14491923Y-20569146D01*
X4897044Y-14603526D02*
X4900034Y-14599695D01*
X4885098Y-8644614D02*
X4887067Y-8640172D01*
X4202739Y-26619958D02*
X4202786Y-26619970D01*
X15250518Y-14566464D02*
X15256252Y-14565028D01*
X4938676Y-20733964D02*
X4934234Y-20731995D01*
X14495442Y-14592497D02*
X14498792Y-14596016D01*
X14501966Y-20579695D02*
X14504956Y-20583526D01*
X14458790Y-14050712D02*
X14454176Y-14052237D01*
X15294319Y-2800851D02*
X15288671Y-2801337D01*
X24819471Y-14686555D02*
X24818175Y-14691238D01*
X14449493Y-8778533D02*
X14444752Y-8779597D01*
X24696773Y-20740000D02*
X15301227Y-20740000D01*
X4878633Y-7992026D02*
X4878039Y-7987204D01*
X24821961Y-8692204D02*
X24821367Y-8697026D01*
X14417006Y-13858500D02*
X14425426Y-13858500D01*
X24819471Y-8658445D02*
X24820536Y-8663186D01*
X14480440Y-8764815D02*
X14476334Y-8767415D01*
X4906558Y-7907497D02*
X4910077Y-7904146D01*
X15204558Y-2632497D02*
X15208077Y-2629146D01*
X24789923Y-14030854D02*
X24786243Y-14034028D01*
X24808353Y-14008396D02*
X24805754Y-14012501D01*
X14398773Y-25820000D02*
X14398797Y-25820000D01*
X14454176Y-7882763D02*
X14458790Y-7884287D01*
X4897044Y-8741474D02*
X4894246Y-8737501D01*
X15185067Y-7935172D02*
X15187251Y-7930832D01*
X15176038Y-8692204D02*
X15175681Y-8687358D01*
X14488243Y-14034028D02*
X14484412Y-14037017D01*
X4971704Y-14761380D02*
X4966858Y-14761023D01*
X14454176Y-14052237D02*
X14449482Y-14053536D01*
X4963005Y-2603960D02*
X4967805Y-2603128D01*
X24814902Y-14700385D02*
X24812933Y-14704828D01*
X15208077Y-19864146D02*
X15211757Y-19860972D01*
X15232234Y-20731995D02*
X15227893Y-20729810D01*
X14399923Y-13859972D02*
X14399965Y-13859970D01*
X15245823Y-2797237D02*
X15241209Y-2795713D01*
X15183098Y-19975386D02*
X15181349Y-19970852D01*
X14516902Y-25879614D02*
X14518651Y-25884148D01*
X24752176Y-8777237D02*
X24747493Y-8778533D01*
X14439965Y-8780428D02*
X14435142Y-8781023D01*
X15264858Y-19838977D02*
X15269704Y-19838620D01*
X4897044Y-2643526D02*
X4900034Y-2639695D01*
X4957248Y-2799597D02*
X4952507Y-2798533D01*
X24696797Y-2800000D02*
X24696773Y-2800000D01*
X24765766Y-7888005D02*
X24770107Y-7890190D01*
X15176038Y-13947796D02*
X15176633Y-13942974D01*
X5002077Y-8780028D02*
X5002017Y-8780031D01*
X4987267Y-14560724D02*
X4999560Y-14560120D01*
X14507754Y-19882499D02*
X14510353Y-19886604D01*
X14419592Y-8581082D02*
X14424426Y-8581678D01*
X24822319Y-19932642D02*
X24822438Y-19937500D01*
X15275573Y-14561678D02*
X15280408Y-14561082D01*
X4883349Y-8010852D02*
X4881825Y-8006238D01*
X14425426Y-19838500D02*
X14430296Y-19838620D01*
X14498792Y-13891016D02*
X14501966Y-13894695D01*
X4906558Y-19867497D02*
X4910077Y-19864146D01*
X24782412Y-19857983D02*
X24786243Y-19860972D01*
X14480440Y-25999815D02*
X14476334Y-26002415D01*
X4889252Y-8729168D02*
X4887067Y-8724828D01*
X4202217Y-26619610D02*
X4202248Y-26619648D01*
X15245823Y-14757237D02*
X15241209Y-14755712D01*
X4913757Y-2625972D02*
X4917587Y-2622983D01*
X24698021Y-20740035D02*
X24697972Y-20740030D01*
X24761324Y-26008964D02*
X24756790Y-26010712D01*
X15189647Y-7926604D02*
X15192246Y-7922499D01*
X24752176Y-13862763D02*
X24756790Y-13864287D01*
X14472107Y-26004810D02*
X14467766Y-26006995D01*
X24805754Y-2757501D02*
X24802956Y-2761474D01*
X4879464Y-14643186D02*
X4880529Y-14638445D01*
X24810748Y-19890832D02*
X24812933Y-19895172D01*
X14411329Y-2801337D02*
X14405681Y-2800851D01*
X4202390Y-2000217D02*
X4202352Y-2000248D01*
X24786243Y-14585972D02*
X24789923Y-14589146D01*
X4202056Y-26619308D02*
X4202072Y-26619354D01*
X24770107Y-20555190D02*
X24774334Y-20557585D01*
X14523367Y-14677026D02*
X14522536Y-14681814D01*
X15181349Y-7944148D02*
X15183098Y-7939614D01*
X14501966Y-20000305D02*
X14498792Y-20003984D01*
X14454176Y-8777237D02*
X14449493Y-8778533D01*
X14504956Y-20701474D02*
X14501966Y-20705305D01*
X24796792Y-25851016D02*
X24799966Y-25854695D01*
X15282990Y-20741500D02*
X15274574Y-20741500D01*
X24695557Y-8080000D02*
X15302442Y-8080000D01*
X15181349Y-13924148D02*
X15183098Y-13919614D01*
X5002077Y-25819972D02*
X5003203Y-25820000D01*
X24822438Y-7977500D02*
X24822319Y-7982358D01*
X14467766Y-8593005D02*
X14472107Y-8595190D01*
X4929893Y-8769810D02*
X4925666Y-8767415D01*
X14495442Y-14732503D02*
X14491923Y-14735854D01*
X24808353Y-19886604D02*
X24810748Y-19890832D01*
X24782412Y-25837983D02*
X24786243Y-25840972D01*
X4887067Y-13999828D02*
X4885098Y-13995385D01*
X14521471Y-19961555D02*
X14520175Y-19966238D01*
X15250518Y-20033536D02*
X15250518Y-20033536D01*
X15241209Y-20735713D02*
X15236676Y-20733964D01*
X4202883Y-26619987D02*
X4202932Y-26619992D01*
X25497994Y-2000981D02*
X25497992Y-2000932D01*
X15294319Y-25819149D02*
X15299958Y-25819962D01*
X14449493Y-13861467D02*
X14454176Y-13862763D01*
X24786243Y-25840972D02*
X24789923Y-25844146D01*
X15274574Y-14761500D02*
X15269704Y-14761380D01*
X24782412Y-20722017D02*
X24778440Y-20724815D01*
X4925666Y-26002415D02*
X4921560Y-25999815D01*
X24782412Y-2782017D02*
X24778440Y-2784815D01*
X14399982Y-19839969D02*
X14400041Y-19839962D01*
X15300077Y-8780028D02*
X15300017Y-8780031D01*
X4938676Y-13866036D02*
X4943210Y-13864287D01*
X15175681Y-7982358D02*
X15175562Y-7977500D01*
X24789923Y-25990854D02*
X24786243Y-25994028D01*
X4934234Y-2613005D02*
X4938676Y-2611036D01*
X15201207Y-20708984D02*
X15198034Y-20705305D01*
X14399923Y-14760028D02*
X14398797Y-14760000D01*
X15227893Y-8064810D02*
X15223665Y-8062415D01*
X4910077Y-13884146D02*
X4913757Y-13880972D01*
X24816651Y-25884148D02*
X24818175Y-25888762D01*
X4883349Y-14629148D02*
X4885098Y-14624614D01*
X14444752Y-14759597D02*
X14439965Y-14760428D01*
X14443748Y-8585028D02*
X14449482Y-8586464D01*
X4963005Y-14056040D02*
X4958252Y-14054972D01*
X4977574Y-20541678D02*
X4982408Y-20541082D01*
X24816651Y-8715852D02*
X24814902Y-8720386D01*
X4999560Y-20540120D02*
X5004443Y-20540000D01*
X15177464Y-19956814D02*
X15176633Y-19952026D01*
X15288671Y-2801337D02*
X15282990Y-2801500D01*
X4885098Y-2740386D02*
X4883349Y-2735852D01*
X15187251Y-2749168D02*
X15185067Y-2744828D01*
X24774334Y-20727415D02*
X24770107Y-20729810D01*
X14472107Y-8064810D02*
X14467766Y-8066995D01*
X14504956Y-2643526D02*
X14507754Y-2647499D01*
X15192246Y-2647499D02*
X15195044Y-2643526D01*
X4967805Y-8583128D02*
X4977574Y-8581678D01*
X14523961Y-7967796D02*
X14524319Y-7972642D01*
X15177464Y-13976814D02*
X15176633Y-13972026D01*
X15201207Y-25983984D02*
X15198034Y-25980305D01*
X24728296Y-25818619D02*
X24733142Y-25818977D01*
X4887067Y-14620172D02*
X4889252Y-14615832D01*
X14521471Y-14686555D02*
X14520175Y-14691238D01*
X4913757Y-7900972D02*
X4917587Y-7897983D01*
X4934234Y-7888005D02*
X4938676Y-7886036D01*
X14518651Y-8715852D02*
X14516902Y-8720386D01*
X24765766Y-25828005D02*
X24770107Y-25830190D01*
X4891647Y-20693396D02*
X4889252Y-20689168D01*
X4958252Y-8585028D02*
X4963005Y-8583960D01*
X4202556Y-2000112D02*
X4202513Y-2000135D01*
X15198034Y-8745305D02*
X15195044Y-8741474D01*
X24822319Y-14667358D02*
X24821961Y-14672204D01*
X4202834Y-26619980D02*
X4202883Y-26619987D01*
X4943210Y-20549287D02*
X4947823Y-20547763D01*
X24752176Y-2797237D02*
X24747493Y-2798533D01*
X4889252Y-20595832D02*
X4891647Y-20591604D01*
X4202188Y-26619570D02*
X4202217Y-26619610D01*
X5001958Y-19839962D02*
X5001979Y-19839965D01*
X4891647Y-8631604D02*
X4894246Y-8627499D01*
X14454176Y-8587763D02*
X14458790Y-8589287D01*
X4982408Y-20038918D02*
X4977574Y-20038322D01*
X14400042Y-20740038D02*
X14400042Y-20740038D01*
X14463324Y-20028964D02*
X14458790Y-20030713D01*
X14417010Y-19838500D02*
X14425426Y-19838500D01*
X14430296Y-8781380D02*
X14425426Y-8781500D01*
X14523961Y-8692204D02*
X14523367Y-8697026D01*
X15275573Y-20038322D02*
X15265805Y-20036872D01*
X24808353Y-2651604D02*
X24810748Y-2655832D01*
X24805754Y-8032501D02*
X24802956Y-8036474D01*
X24805754Y-25862499D02*
X24808353Y-25866604D01*
X24786243Y-14034028D02*
X24782412Y-14037017D01*
X24697972Y-8780030D02*
X24697923Y-8780028D01*
X24703681Y-25819149D02*
X24709329Y-25818663D01*
X15175681Y-8677642D02*
X15176038Y-8672796D01*
X15219560Y-8764815D02*
X15215587Y-8762017D01*
X15189647Y-20693396D02*
X15187251Y-20689168D01*
X4982408Y-14058918D02*
X4977574Y-14058321D01*
X4878039Y-13967204D02*
X4877681Y-13962358D01*
X14458790Y-14755712D02*
X14454176Y-14757237D01*
X4929893Y-2615190D02*
X4934234Y-2613005D01*
X14484412Y-25837983D02*
X14488243Y-25840972D01*
X25497992Y-26619068D02*
X25497994Y-26619019D01*
X15299979Y-13859965D02*
X15300028Y-13859970D01*
X4877562Y-2702500D02*
X4877681Y-2697642D01*
X4952518Y-8073536D02*
X4947823Y-8072237D01*
X15241209Y-2795713D02*
X15236676Y-2793964D01*
X25497888Y-2000556D02*
X25497865Y-2000512D01*
X15178529Y-2726555D02*
X15177464Y-2721814D01*
X15175681Y-13962358D02*
X15175562Y-13957500D01*
X14501966Y-8619695D02*
X14504956Y-8623526D01*
X24697923Y-14760028D02*
X24696797Y-14760000D01*
X4885098Y-20604614D02*
X4887067Y-20600172D01*
X24822319Y-19942358D02*
X24821961Y-19947204D01*
X15179825Y-8006238D02*
X15178529Y-8001555D01*
X24723426Y-8781500D02*
X24715010Y-8781500D01*
X14516902Y-2664614D02*
X14518651Y-2669148D01*
X15179825Y-8653762D02*
X15181349Y-8649148D01*
X14400042Y-20740038D02*
X14400021Y-20740035D01*
X24723426Y-7878500D02*
X24728296Y-7878619D01*
X14454176Y-19842763D02*
X14458790Y-19844287D01*
X15250506Y-2798533D02*
X15245823Y-2797237D01*
X24821961Y-8672796D02*
X24822319Y-8677642D01*
X15211757Y-2625972D02*
X15215587Y-2622983D01*
X24819471Y-2726555D02*
X24818175Y-2731238D01*
X5003227Y-25820000D02*
X14398773Y-25820000D01*
X4976574Y-2801500D02*
X4971704Y-2801380D01*
X14522536Y-2683186D02*
X14523367Y-2687974D01*
X15175681Y-8687358D02*
X15175562Y-8682500D01*
X14449482Y-8586464D02*
X14454176Y-8587763D01*
X14476334Y-26002415D02*
X14472107Y-26004810D01*
X14524319Y-8677642D02*
X14524438Y-8682500D01*
X15189647Y-14611604D02*
X15192246Y-14607499D01*
X14397557Y-20040000D02*
X5004443Y-20040000D01*
X24761324Y-14048964D02*
X24756790Y-14050712D01*
X24696797Y-20740000D02*
X24696773Y-20740000D01*
X25497610Y-2000217D02*
X25497570Y-2000188D01*
X15245823Y-8587763D02*
X15250518Y-8586464D01*
X15187251Y-2655832D02*
X15189647Y-2651604D01*
X5003227Y-13860000D02*
X14398773Y-13860000D01*
X24822438Y-13957500D02*
X24822319Y-13962358D01*
X4977574Y-2601678D02*
X4982408Y-2601082D01*
X25497909Y-26619400D02*
X25497927Y-26619354D01*
X14443748Y-20545028D02*
X14449482Y-20546464D01*
X4987267Y-14059276D02*
X4982408Y-14058918D01*
X14399972Y-8780030D02*
X14399923Y-8780028D01*
X14443748Y-14054972D02*
X14438995Y-14056040D01*
X25497400Y-26619909D02*
X25497444Y-26619888D01*
X15179825Y-20671238D02*
X15178529Y-20666555D01*
X14463324Y-20551036D02*
X14467766Y-20553005D01*
X15208077Y-8755854D02*
X15204558Y-8752503D01*
X4962035Y-13859572D02*
X4966858Y-13858977D01*
X14402440Y-8580120D02*
X14414733Y-8580724D01*
X4878039Y-8672796D02*
X4878633Y-8667974D01*
X14399982Y-7879969D02*
X14400041Y-7879962D01*
X4906558Y-2772503D02*
X4903208Y-2768984D01*
X14504956Y-25976474D02*
X14501966Y-25980305D01*
X15300028Y-25819970D02*
X15300077Y-25819972D01*
X4938676Y-7886036D02*
X4943210Y-7884287D01*
X15208077Y-7904146D02*
X15211757Y-7900972D01*
X15288671Y-8781337D02*
X15282990Y-8781500D01*
X15265805Y-26016872D02*
X15261005Y-26016040D01*
X15181349Y-25884148D02*
X15183098Y-25879614D01*
X4877681Y-14657642D02*
X4878039Y-14652796D01*
X15245823Y-7882763D02*
X15250506Y-7881467D01*
X5001959Y-8780038D02*
X4996319Y-8780851D01*
X4999560Y-26019880D02*
X4987267Y-26019276D01*
X24820536Y-19956814D02*
X24819471Y-19961555D01*
X14405681Y-7879149D02*
X14411329Y-7878663D01*
X15175681Y-7972642D02*
X15176038Y-7967796D01*
X25497068Y-26619992D02*
X25497117Y-26619987D01*
X24818175Y-13986238D02*
X24816651Y-13990852D01*
X15204558Y-13887497D02*
X15208077Y-13884146D01*
X4963005Y-14563960D02*
X4967805Y-14563127D01*
X24756790Y-8589287D02*
X24761324Y-8591036D01*
X14425426Y-20741500D02*
X14417010Y-20741500D01*
X15177464Y-14681814D02*
X15176633Y-14677026D01*
X15260035Y-19839572D02*
X15264858Y-19838977D01*
X24805754Y-8737501D02*
X24802956Y-8741474D01*
X15181349Y-25950852D02*
X15179825Y-25946238D01*
X24793442Y-25987503D02*
X24789923Y-25990854D01*
X15227893Y-14575190D02*
X15232234Y-14573005D01*
X15282993Y-13858500D02*
X15287255Y-13858591D01*
X15195044Y-7918526D02*
X15198034Y-7914695D01*
X14435142Y-20741023D02*
X14430296Y-20741380D01*
X14476334Y-19852585D02*
X14480440Y-19855185D01*
X4881825Y-20613762D02*
X4883349Y-20609148D01*
X15208077Y-25990854D02*
X15204558Y-25987503D01*
X15297560Y-26019880D02*
X15285266Y-26019276D01*
X14510353Y-7926604D02*
X14512748Y-7930832D01*
X24696773Y-13860000D02*
X24696797Y-13860000D01*
X24742752Y-25820402D02*
X24747493Y-25821467D01*
X4958252Y-14565028D02*
X4963005Y-14563960D01*
X15265805Y-14056872D02*
X15261005Y-14056040D01*
X14402440Y-14059880D02*
X14397557Y-14060000D01*
X4934234Y-14573005D02*
X4938676Y-14571036D01*
X24820536Y-14643186D02*
X24821367Y-14647974D01*
X14400021Y-8780035D02*
X14399972Y-8780030D01*
X15176633Y-14677026D02*
X15176038Y-14672204D01*
X24737965Y-8780428D02*
X24733142Y-8781023D01*
X14518651Y-8649148D02*
X14520175Y-8653762D01*
X14439965Y-2800428D02*
X14435142Y-2801023D01*
X24756790Y-20030713D02*
X24752176Y-20032237D01*
X4879464Y-7958186D02*
X4880529Y-7953445D01*
X15219560Y-14744815D02*
X15215587Y-14742017D01*
X4990671Y-8781337D02*
X4984990Y-8781500D01*
X15236676Y-14048964D02*
X15232234Y-14046995D01*
X14514933Y-7935172D02*
X14516902Y-7939614D01*
X4202786Y-2000030D02*
X4202739Y-2000042D01*
X25497354Y-2000072D02*
X25497308Y-2000056D01*
X4913757Y-20014028D02*
X4910077Y-20010854D01*
X4934234Y-25828005D02*
X4938676Y-25826036D01*
X24819471Y-2678445D02*
X24820536Y-2683186D01*
X24761324Y-7886036D02*
X24765766Y-7888005D01*
X4957248Y-20739597D02*
X4952507Y-20738533D01*
X4997726Y-13859321D02*
X5001951Y-13859961D01*
X24752176Y-14052237D02*
X24747482Y-14053536D01*
X4943210Y-2795713D02*
X4938676Y-2793964D01*
X4925666Y-14577585D02*
X4929893Y-14575190D01*
X14514933Y-25959828D02*
X14512748Y-25964168D01*
X4878039Y-7987204D02*
X4877681Y-7982358D01*
X15187251Y-13910832D02*
X15189647Y-13906604D01*
X4891647Y-19988396D02*
X4889252Y-19984168D01*
X15232234Y-8593005D02*
X15236676Y-8591036D01*
X14430296Y-2801380D02*
X14425426Y-2801500D01*
X4880529Y-2726555D02*
X4879464Y-2721814D01*
X4881825Y-19908762D02*
X4883349Y-19904148D01*
X4938676Y-19846036D02*
X4943210Y-19844287D01*
X15183098Y-8015385D02*
X15181349Y-8010852D01*
X15260035Y-2800428D02*
X15255248Y-2799597D01*
X5001958Y-19839962D02*
X5001958Y-19839962D01*
X4885098Y-19899614D02*
X4887067Y-19895172D01*
X24715010Y-20741500D02*
X24709329Y-20741337D01*
X24742752Y-7880402D02*
X24747493Y-7881467D01*
X14514933Y-25875172D02*
X14516902Y-25879614D01*
X24697923Y-2800028D02*
X24696797Y-2800000D01*
X15201207Y-20576016D02*
X15204558Y-20572497D01*
X24812933Y-2744828D02*
X24810748Y-2749168D01*
X24747493Y-13861467D02*
X24752176Y-13862763D01*
X24818175Y-19908762D02*
X24819471Y-19913445D01*
X14516902Y-8644614D02*
X14518651Y-8649148D01*
X24796792Y-2768984D02*
X24793442Y-2772503D01*
X14467766Y-8066995D02*
X14463324Y-8068964D01*
X15178529Y-8001555D02*
X15177464Y-7996814D01*
X4880529Y-7953445D02*
X4881825Y-7948762D01*
X15299958Y-7879962D02*
X15299958Y-7879962D01*
X14400049Y-14760039D02*
X14400021Y-14760035D01*
X15195044Y-2643526D02*
X15198034Y-2639695D01*
X15177464Y-7996814D02*
X15176633Y-7992026D01*
X4877681Y-2697642D02*
X4878039Y-2692796D01*
X14398797Y-19840000D02*
X14399923Y-19839972D01*
X15175681Y-20637642D02*
X15176038Y-20632796D01*
X15260035Y-20740428D02*
X15255248Y-20739597D01*
X14523961Y-14652796D02*
X14524319Y-14657642D01*
X24822319Y-8677642D02*
X24822438Y-8682500D01*
X4889252Y-8024168D02*
X4887067Y-8019828D01*
X15288671Y-25818663D02*
X15294319Y-25819149D01*
X15261005Y-2603960D02*
X15265805Y-2603128D01*
X4202161Y-26619529D02*
X4202188Y-26619570D01*
X4976574Y-13858500D02*
X4984994Y-13858500D01*
X14523367Y-19922974D02*
X14523961Y-19927796D01*
X4982408Y-2601082D02*
X4987267Y-2600724D01*
X4917587Y-19857983D02*
X4921560Y-19855185D01*
X15192246Y-25862499D02*
X15195044Y-25858526D01*
X24697982Y-7879969D02*
X24698041Y-7879962D01*
X4976574Y-2801500D02*
X4976574Y-2801500D01*
X4947823Y-2607763D02*
X4952518Y-2606464D01*
X4989255Y-14761408D02*
X4984994Y-14761500D01*
X14510353Y-20693396D02*
X14507754Y-20697501D01*
X15178529Y-20666555D02*
X15177464Y-20661814D01*
X4880529Y-8706555D02*
X4879464Y-8701814D01*
X15192246Y-8032501D02*
X15189647Y-8028396D01*
X14430296Y-20741380D02*
X14425426Y-20741500D01*
X25497261Y-2000042D02*
X25497214Y-2000030D01*
X14425426Y-7878500D02*
X14430296Y-7878619D01*
X4900034Y-2639695D02*
X4903208Y-2636016D01*
X14417010Y-25818500D02*
X14425426Y-25818500D01*
X15201207Y-8748984D02*
X15198034Y-8745305D01*
X15255248Y-14759597D02*
X15250506Y-14758533D01*
X4996319Y-7879149D02*
X5001958Y-7879962D01*
X24816651Y-2669148D02*
X24818175Y-2673762D01*
X15189647Y-8631604D02*
X15192246Y-8627499D01*
X24821367Y-7962974D02*
X24821961Y-7967796D01*
X4202020Y-26619165D02*
X4202030Y-26619214D01*
X15176038Y-19947204D02*
X15175681Y-19942358D01*
X4952518Y-8586464D02*
X4958252Y-8585028D01*
X15275573Y-20541678D02*
X15280408Y-20541082D01*
X24786243Y-20719028D02*
X24782412Y-20722017D01*
X4947823Y-26012237D02*
X4943210Y-26010712D01*
X4877562Y-20642500D02*
X4877681Y-20637642D01*
X4987267Y-26019276D02*
X4982408Y-26018918D01*
X4887067Y-14704828D02*
X4885098Y-14700385D01*
X24700440Y-20039880D02*
X24695557Y-20040000D01*
X14520175Y-19966238D02*
X14518651Y-19970852D01*
X14398797Y-2800000D02*
X14398773Y-2800000D01*
X4878039Y-2692796D02*
X4878633Y-2687974D01*
X14434195Y-14563127D02*
X14438995Y-14563960D01*
X14443748Y-2605028D02*
X14449482Y-2606464D01*
X24820536Y-20661814D02*
X24819471Y-20666555D01*
X24715010Y-25818500D02*
X24723426Y-25818500D01*
X4879464Y-25936814D02*
X4878633Y-25932026D01*
X14405681Y-2800851D02*
X14400042Y-2800038D01*
X24761324Y-8773964D02*
X24756790Y-8775713D01*
X14472107Y-2615190D02*
X14476334Y-2617585D01*
X15219560Y-8600185D02*
X15223665Y-8597585D01*
X4925666Y-8767415D02*
X4921560Y-8764815D01*
X14424426Y-2601678D02*
X14434195Y-2603128D01*
X4990671Y-20741337D02*
X4984990Y-20741500D01*
X14484412Y-7897983D02*
X14488243Y-7900972D01*
X15198034Y-20579695D02*
X15201207Y-20576016D01*
X4202513Y-26619865D02*
X4202556Y-26619888D01*
X24810748Y-25870832D02*
X24812933Y-25875172D01*
X4880529Y-8658445D02*
X4881825Y-8653762D01*
X14411329Y-7878663D02*
X14417010Y-7878500D01*
X14397557Y-26020000D02*
X5004443Y-26020000D01*
X25497783Y-2000390D02*
X25497752Y-2000352D01*
X14472107Y-20024810D02*
X14467766Y-20026995D01*
X24778440Y-14039815D02*
X24774334Y-14042415D01*
X4910077Y-14589146D02*
X4913757Y-14585972D01*
X4910077Y-2775854D02*
X4906558Y-2772503D01*
X15176038Y-7987204D02*
X15175681Y-7982358D01*
X24761324Y-14753964D02*
X24756790Y-14755712D01*
X14458790Y-13864287D02*
X14463324Y-13866036D01*
X15185067Y-20600172D02*
X15187251Y-20595832D01*
X14463324Y-19846036D02*
X14467766Y-19848005D01*
X15204558Y-8047503D02*
X15201207Y-8043984D01*
X4883349Y-25950852D02*
X4881825Y-25946238D01*
X15300035Y-14760030D02*
X15299993Y-14760033D01*
X24802956Y-19878526D02*
X24805754Y-19882499D01*
X15245823Y-20737237D02*
X15241209Y-20735713D01*
X14458790Y-14569287D02*
X14463324Y-14571036D01*
X24778440Y-13875185D02*
X24782412Y-13877983D01*
X15198034Y-20705305D02*
X15195044Y-20701474D01*
X4934234Y-20553005D02*
X4938676Y-20551036D01*
X14514933Y-14704828D02*
X14512748Y-14709168D01*
X14424426Y-20541678D02*
X14434195Y-20543128D01*
X15261005Y-8583960D02*
X15265805Y-8583128D01*
X24814902Y-8644614D02*
X24816651Y-8649148D01*
X24786243Y-7900972D02*
X24789923Y-7904146D01*
X24765766Y-14751995D02*
X24761324Y-14753964D01*
X24774334Y-26002415D02*
X24770107Y-26004810D01*
X24722426Y-20541678D02*
X24732195Y-20543128D01*
X24799966Y-20705305D02*
X24796792Y-20708984D01*
X4903208Y-7911016D02*
X4906558Y-7907497D01*
X15261005Y-14563960D02*
X15265805Y-14563127D01*
X24697923Y-13859972D02*
X24697965Y-13859970D01*
X14512748Y-25964168D02*
X14510353Y-25968396D01*
X24732195Y-20036872D02*
X24722426Y-20038322D01*
X15195044Y-8741474D02*
X15192246Y-8737501D01*
X4880529Y-13933445D02*
X4881825Y-13928762D01*
X14467766Y-7888005D02*
X14472107Y-7890190D01*
X14501966Y-25854695D02*
X14504956Y-25858526D01*
X15175681Y-25912642D02*
X15176038Y-25907796D01*
X25497610Y-26619783D02*
X25497648Y-26619752D01*
X24821367Y-25902974D02*
X24821961Y-25907796D01*
X4943210Y-14569287D02*
X4947823Y-14567763D01*
X24742752Y-20739597D02*
X24737965Y-20740428D01*
X4202470Y-26619839D02*
X4202513Y-26619865D01*
X15261005Y-26016040D02*
X15256252Y-26014972D01*
X4202013Y-26619117D02*
X4202020Y-26619165D01*
X14524319Y-2707358D02*
X14523961Y-2712204D01*
X4938676Y-8591036D02*
X4943210Y-8589287D01*
X15260035Y-13859572D02*
X15264858Y-13858977D01*
X24728296Y-2801380D02*
X24723426Y-2801500D01*
X14512748Y-7930832D02*
X14514933Y-7935172D01*
X25497970Y-26619214D02*
X25497980Y-26619165D01*
X4879464Y-8701814D02*
X4878633Y-8697026D01*
X4202008Y-2000932D02*
X4202006Y-2000981D01*
X4883349Y-13990852D02*
X4881825Y-13986238D01*
X24819471Y-8706555D02*
X24818175Y-8711238D01*
X24789923Y-8050854D02*
X24786243Y-8054028D01*
X14518651Y-14629148D02*
X14520175Y-14633762D01*
X4885098Y-25955385D02*
X4883349Y-25950852D01*
X15176633Y-7962974D02*
X15177464Y-7958186D01*
X5004443Y-8080000D02*
X4999560Y-8079880D01*
X4910077Y-7904146D02*
X4913757Y-7900972D01*
X5001993Y-14760033D02*
X5001951Y-14760039D01*
X24698007Y-13859966D02*
X24698048Y-13859961D01*
X4934234Y-14751995D02*
X4929893Y-14749810D01*
X24732195Y-14056872D02*
X24722426Y-14058321D01*
X4947823Y-20547763D02*
X4952518Y-20546464D01*
X4887067Y-8724828D02*
X4885098Y-8720386D01*
X15219560Y-13875185D02*
X15223665Y-13872585D01*
X24732195Y-8076872D02*
X24722426Y-8078321D01*
X15301203Y-20740000D02*
X15300077Y-20740028D01*
X15185067Y-8724828D02*
X15183098Y-8720386D01*
X14512748Y-2749168D02*
X14510353Y-2753396D01*
X4878633Y-19952026D02*
X4878039Y-19947204D01*
X15201207Y-14023984D02*
X15198034Y-14020305D01*
X14480440Y-20019815D02*
X14476334Y-20022415D01*
X14444752Y-25820402D02*
X14449493Y-25821467D01*
X15255248Y-2799597D02*
X15250506Y-2798533D01*
X14518651Y-20675852D02*
X14516902Y-20680386D01*
X24814902Y-7939614D02*
X24816651Y-7944148D01*
X25497980Y-2000834D02*
X25497970Y-2000786D01*
X4917587Y-20562983D02*
X4921560Y-20560185D01*
X15241209Y-14569287D02*
X15245823Y-14567763D01*
X15192246Y-19992501D02*
X15189647Y-19988396D01*
X24793442Y-20572497D02*
X24796792Y-20576016D01*
X14467766Y-14751995D02*
X14463324Y-14753964D01*
X24715010Y-7878500D02*
X24723426Y-7878500D01*
X4997726Y-14760679D02*
X4993498Y-14761135D01*
X14510353Y-20591604D02*
X14512748Y-20595832D01*
X4878039Y-13947796D02*
X4878633Y-13942974D01*
X24774334Y-7892585D02*
X24778440Y-7895185D01*
X14484412Y-20722017D02*
X14480440Y-20724815D01*
X24717592Y-2601082D02*
X24722426Y-2601678D01*
X4999560Y-8079880D02*
X4987267Y-8079276D01*
X5003203Y-20740000D02*
X5002077Y-20740028D01*
X4903208Y-25983984D02*
X4900034Y-25980305D01*
X15302442Y-14060000D02*
X15297560Y-14059880D01*
X4921560Y-7895185D02*
X4925666Y-7892585D01*
X15201207Y-25851016D02*
X15204558Y-25847497D01*
X4910077Y-14735854D02*
X4906558Y-14732503D01*
X4971704Y-8781380D02*
X4966858Y-8781023D01*
X15201207Y-2768984D02*
X15198034Y-2765305D01*
X24789923Y-2775854D02*
X24786243Y-2779028D01*
X24820536Y-20623186D02*
X24821367Y-20627974D01*
X14398773Y-8780000D02*
X5003227Y-8780000D01*
X24697923Y-25819972D02*
X24697982Y-25819969D01*
X25497354Y-26619927D02*
X25497400Y-26619909D01*
X15250506Y-8778533D02*
X15245823Y-8777237D01*
X4962035Y-14760428D02*
X4957248Y-14759597D01*
X24820536Y-25936814D02*
X24819471Y-25941555D01*
X4917587Y-2622983D02*
X4921560Y-2620185D01*
X14524319Y-19942358D02*
X14523961Y-19947204D01*
X4881825Y-2731238D02*
X4880529Y-2726555D01*
X15241209Y-20549287D02*
X15245823Y-20547763D01*
X4891647Y-2651604D02*
X4894246Y-2647499D01*
X14439965Y-19839572D02*
X14444752Y-19840403D01*
X4910077Y-19864146D02*
X4913757Y-19860972D01*
X15282990Y-25818500D02*
X15288671Y-25818663D01*
X15211757Y-8759028D02*
X15208077Y-8755854D01*
X14467766Y-25828005D02*
X14472107Y-25830190D01*
X4881825Y-8653762D02*
X4883349Y-8649148D01*
X14414733Y-8079276D02*
X14402440Y-8079880D01*
X4887067Y-7935172D02*
X4889252Y-7930832D01*
X4877681Y-14667358D02*
X4877562Y-14662500D01*
X14449493Y-14758533D02*
X14444752Y-14759597D01*
X15177464Y-20623186D02*
X15178529Y-20618445D01*
X4917587Y-7897983D02*
X4921560Y-7895185D01*
X4929893Y-20555190D02*
X4934234Y-20553005D01*
X4202112Y-26619444D02*
X4202135Y-26619487D01*
X14523367Y-8697026D02*
X14522536Y-8701814D01*
X25497068Y-2000008D02*
X25497019Y-2000006D01*
X4900034Y-20000305D02*
X4897044Y-19996474D01*
X4202000Y-2001227D02*
X4202000Y-26618773D01*
X24706502Y-14761135D02*
X24702274Y-14760679D01*
X5002028Y-19839970D02*
X5002077Y-19839972D01*
X14454176Y-8072237D02*
X14449482Y-8073536D01*
X24695557Y-20540000D02*
X24700440Y-20540120D01*
X24822319Y-13962358D02*
X24821961Y-13967204D01*
X4900034Y-8745305D02*
X4897044Y-8741474D01*
X15179825Y-2731238D02*
X15178529Y-2726555D01*
X15211757Y-19860972D02*
X15215587Y-19857983D01*
X15178529Y-7953445D02*
X15179825Y-7948762D01*
X15183098Y-8644614D02*
X15185067Y-8640172D01*
X15297560Y-14560120D02*
X15302442Y-14560000D01*
X4967805Y-8076872D02*
X4963005Y-8076040D01*
X14458790Y-26010712D02*
X14454176Y-26012237D01*
X15183098Y-20680386D02*
X15181349Y-20675852D01*
X24818175Y-7948762D02*
X24819471Y-7953445D01*
X15195044Y-14603526D02*
X15198034Y-14599695D01*
X4202556Y-26619888D02*
X4202600Y-26619909D01*
X24732195Y-26016872D02*
X24722426Y-26018321D01*
X14523367Y-2717026D02*
X14522536Y-2721814D01*
X4885098Y-13995385D02*
X4883349Y-13990852D01*
X4877681Y-8677642D02*
X4878039Y-8672796D01*
X25497117Y-2000013D02*
X25497068Y-2000008D01*
X4984990Y-25818500D02*
X4990671Y-25818663D01*
X15294319Y-8780851D02*
X15288671Y-8781337D01*
X5001979Y-25819965D02*
X5002028Y-25819970D01*
X14454176Y-26012237D02*
X14449482Y-26013536D01*
X5004443Y-14060000D02*
X4999560Y-14059880D01*
X15265805Y-8583128D02*
X15275573Y-8581678D01*
X4897044Y-14721474D02*
X4894246Y-14717501D01*
X4929893Y-8595190D02*
X4934234Y-8593005D01*
X14454176Y-2797237D02*
X14449493Y-2798533D01*
X15176038Y-14652796D02*
X15176633Y-14647974D01*
X24821961Y-13967204D02*
X24821367Y-13972026D01*
X24697972Y-2800030D02*
X24697923Y-2800028D01*
X25497865Y-2000512D02*
X25497839Y-2000470D01*
X14491923Y-25844146D02*
X14495442Y-25847497D01*
X24706502Y-13858865D02*
X24710745Y-13858591D01*
X24747493Y-8778533D02*
X24742752Y-8779597D01*
X15300077Y-20740028D02*
X15300017Y-20740031D01*
X25497958Y-2000739D02*
X25497944Y-2000692D01*
X15264858Y-25818977D02*
X15269704Y-25818619D01*
X24802956Y-8623526D02*
X24805754Y-8627499D01*
X15176633Y-2687974D02*
X15177464Y-2683186D01*
X4996319Y-2800851D02*
X4990671Y-2801337D01*
X14443748Y-8074972D02*
X14438995Y-8076040D01*
X14521471Y-13981555D02*
X14520175Y-13986238D01*
X15223665Y-25832585D02*
X15227893Y-25830190D01*
X25497487Y-26619865D02*
X25497529Y-26619839D01*
X4878633Y-19922974D02*
X4879464Y-19918186D01*
X24808353Y-8028396D02*
X24805754Y-8032501D01*
X24774334Y-8597585D02*
X24778440Y-8600185D01*
X24747493Y-25821467D02*
X24752176Y-25822763D01*
X4202981Y-2000006D02*
X4202981Y-2000006D01*
X24821367Y-13972026D02*
X24820536Y-13976814D01*
X4202013Y-2000883D02*
X4202008Y-2000932D01*
X4977574Y-8078321D02*
X4967805Y-8076872D01*
X5002028Y-25819970D02*
X5002077Y-25819972D01*
X15175681Y-2707358D02*
X15175562Y-2702500D01*
X14472107Y-25830190D02*
X14476334Y-25832585D01*
X24700440Y-14059880D02*
X24695557Y-14060000D01*
X24741748Y-20545028D02*
X24747482Y-20546464D01*
X14514933Y-19895172D02*
X14516902Y-19899614D01*
X4202281Y-2000316D02*
X4202248Y-2000352D01*
X14520175Y-8711238D02*
X14518651Y-8715852D01*
X14523367Y-13972026D02*
X14522536Y-13976814D01*
X14480440Y-20560185D02*
X14484412Y-20562983D01*
X4962035Y-7879572D02*
X4966858Y-7878977D01*
X4913757Y-20719028D02*
X4910077Y-20715854D01*
X14402440Y-20540120D02*
X14414733Y-20540724D01*
X4202932Y-26619992D02*
X4202981Y-26619994D01*
X14397557Y-14060000D02*
X5004443Y-14060000D01*
X4913757Y-2779028D02*
X4910077Y-2775854D01*
X14521471Y-2678445D02*
X14522536Y-2683186D01*
X14484412Y-13877983D02*
X14488243Y-13880972D01*
X15256252Y-14565028D02*
X15261005Y-14563960D01*
X4938676Y-14048964D02*
X4934234Y-14046995D01*
X24805754Y-14012501D02*
X24802956Y-14016474D01*
X4903208Y-2636016D02*
X4906558Y-2632497D01*
X15275573Y-8581678D02*
X15280408Y-8581082D01*
X14467766Y-26006995D02*
X14463324Y-26008964D01*
X4993498Y-14761135D02*
X4989255Y-14761408D01*
X15236676Y-26008964D02*
X15232234Y-26006995D01*
X14454176Y-20032237D02*
X14449482Y-20033536D01*
X24822438Y-19937500D02*
X24822319Y-19942358D01*
X24821367Y-19922974D02*
X24821961Y-19927796D01*
X4987267Y-2600724D02*
X4999560Y-2600120D01*
X5002028Y-7879970D02*
X5002077Y-7879972D01*
X15215587Y-19857983D02*
X15219560Y-19855185D01*
X4894246Y-8627499D02*
X4897044Y-8623526D01*
X14476334Y-13872585D02*
X14480440Y-13875185D01*
X25497444Y-2000112D02*
X25497400Y-2000091D01*
X4929893Y-25830190D02*
X4934234Y-25828005D01*
X14491923Y-25990854D02*
X14488243Y-25994028D01*
X4202646Y-2000072D02*
X4202600Y-2000091D01*
X4925666Y-8597585D02*
X4929893Y-8595190D01*
X25497165Y-26619980D02*
X25497214Y-26619970D01*
X15282990Y-8781500D02*
X15274574Y-8781500D01*
X14430296Y-14761380D02*
X14425426Y-14761500D01*
X4921560Y-25999815D02*
X4917587Y-25997017D01*
X24819471Y-13981555D02*
X24818175Y-13986238D01*
X15192246Y-25972501D02*
X15189647Y-25968396D01*
X15256252Y-20545028D02*
X15261005Y-20543960D01*
X4883349Y-14695852D02*
X4881825Y-14691238D01*
X24761324Y-19846036D02*
X24765766Y-19848005D01*
X24818175Y-20613762D02*
X24819471Y-20618445D01*
X24747493Y-20738533D02*
X24742752Y-20739597D01*
X4967805Y-26016872D02*
X4963005Y-26016040D01*
X14430296Y-25818619D02*
X14435142Y-25818977D01*
X24710745Y-13858591D02*
X24715006Y-13858500D01*
X15275573Y-14058321D02*
X15265805Y-14056872D01*
X24819471Y-20618445D02*
X24820536Y-20623186D01*
X24812933Y-19979828D02*
X24810748Y-19984168D01*
X14438995Y-26016040D02*
X14434195Y-26016872D01*
X14414733Y-14560724D02*
X14419592Y-14561082D01*
X4984990Y-2801500D02*
X4976574Y-2801500D01*
X14514933Y-2744828D02*
X14512748Y-2749168D01*
X15175562Y-19937500D02*
X15175681Y-19932642D01*
X24710745Y-14761408D02*
X24706502Y-14761135D01*
X15299951Y-14760039D02*
X15295726Y-14760679D01*
X14438995Y-14056040D02*
X14434195Y-14056872D01*
X4202006Y-26619019D02*
X4202008Y-26619068D01*
X25496797Y-2000000D02*
X25496773Y-2000000D01*
X24810748Y-8024168D02*
X24808353Y-8028396D01*
X25497648Y-26619752D02*
X25497684Y-26619719D01*
X24808353Y-19988396D02*
X24805754Y-19992501D01*
X24821367Y-20627974D02*
X24821961Y-20632796D01*
X24761324Y-8068964D02*
X24756790Y-8070712D01*
X24737965Y-7879572D02*
X24742752Y-7880402D01*
X5001951Y-14760039D02*
X4997726Y-14760679D01*
X14524438Y-19937500D02*
X14524319Y-19942358D01*
X14522536Y-19956814D02*
X14521471Y-19961555D01*
X14520175Y-14633762D02*
X14521471Y-14638445D01*
X24752176Y-25822763D02*
X24756790Y-25824287D01*
X14495442Y-8752503D02*
X14491923Y-8755854D01*
X15189647Y-25968396D02*
X15187251Y-25964168D01*
X14434195Y-20036872D02*
X14424426Y-20038322D01*
X4967805Y-20543128D02*
X4977574Y-20541678D01*
X14507754Y-7922499D02*
X14510353Y-7926604D01*
X24765766Y-8066995D02*
X24761324Y-8068964D01*
X15201207Y-14728984D02*
X15198034Y-14725305D01*
X25497019Y-26619994D02*
X25497068Y-26619992D01*
X14522536Y-7996814D02*
X14521471Y-8001555D01*
X4880529Y-14638445D02*
X4881825Y-14633762D01*
X24774334Y-8767415D02*
X24770107Y-8769810D01*
X24822319Y-25912642D02*
X24822438Y-25917500D01*
X4880529Y-19913445D02*
X4881825Y-19908762D01*
X24789923Y-13884146D02*
X24793442Y-13887497D01*
X4943210Y-2609287D02*
X4947823Y-2607763D01*
X15285266Y-20039276D02*
X15280408Y-20038918D01*
X4987267Y-20540724D02*
X4999560Y-20540120D01*
X4878039Y-25927204D02*
X4877681Y-25922358D01*
X15208077Y-14735854D02*
X15204558Y-14732503D01*
X14491923Y-7904146D02*
X14495442Y-7907497D01*
X14417010Y-20741500D02*
X14411329Y-20741337D01*
X15236676Y-20733964D02*
X15232234Y-20731995D01*
X14467766Y-20553005D02*
X14472107Y-20555190D01*
X14522536Y-25898186D02*
X14523367Y-25902974D01*
X14400041Y-19839962D02*
X14405681Y-19839149D01*
X4897044Y-2761474D02*
X4894246Y-2757501D01*
X4881825Y-14633762D02*
X4883349Y-14629148D01*
X24793442Y-20712503D02*
X24789923Y-20715854D01*
X4925666Y-8062415D02*
X4921560Y-8059815D01*
X15264858Y-2801023D02*
X15260035Y-2800428D01*
X4900034Y-19874695D02*
X4903208Y-19871016D01*
X15208077Y-8050854D02*
X15204558Y-8047503D01*
X14495442Y-20007503D02*
X14491923Y-20010854D01*
X14524319Y-8687358D02*
X14523961Y-8692204D01*
X4910077Y-20569146D02*
X4913757Y-20565972D01*
X15176633Y-7992026D02*
X15176038Y-7987204D01*
X4883349Y-13924148D02*
X4885098Y-13919614D01*
X14491923Y-14735854D02*
X14488243Y-14739028D01*
X15176633Y-14647974D02*
X15177464Y-14643186D01*
X4917587Y-8762017D02*
X4913757Y-8759028D01*
X4929893Y-8064810D02*
X4925666Y-8062415D01*
X14507754Y-2647499D02*
X14510353Y-2651604D01*
X15285266Y-20540724D02*
X15297560Y-20540120D01*
X15185067Y-25959828D02*
X15183098Y-25955385D01*
X15300077Y-19839972D02*
X15301203Y-19840000D01*
X15223665Y-26002415D02*
X15219560Y-25999815D01*
X15288671Y-7878663D02*
X15294319Y-7879149D01*
X15177464Y-13938186D02*
X15178529Y-13933445D01*
X4958252Y-20545028D02*
X4963005Y-20543960D01*
X15195044Y-14016474D02*
X15192246Y-14012501D01*
X14521471Y-8658445D02*
X14522536Y-8663186D01*
X5001979Y-19839965D02*
X5002028Y-19839970D01*
X4971704Y-7878619D02*
X4976574Y-7878500D01*
X4202072Y-2000645D02*
X4202056Y-2000692D01*
X24822319Y-8687358D02*
X24821961Y-8692204D01*
X15250506Y-13861467D02*
X15255248Y-13860402D01*
X15232234Y-14573005D02*
X15236676Y-14571036D01*
X4897044Y-8623526D02*
X4900034Y-8619695D01*
X15227893Y-20555190D02*
X15232234Y-20553005D01*
X15299979Y-7879965D02*
X15300028Y-7879970D01*
X15189647Y-19886604D02*
X15192246Y-19882499D01*
X24814902Y-13995385D02*
X24812933Y-13999828D01*
X14498792Y-20708984D02*
X14495442Y-20712503D01*
X15297560Y-8580120D02*
X15302442Y-8580000D01*
X4925666Y-2787415D02*
X4921560Y-2784815D01*
X15179825Y-13986238D02*
X15178529Y-13981555D01*
X14467766Y-14046995D02*
X14463324Y-14048964D01*
X15177464Y-25936814D02*
X15176633Y-25932026D01*
X24808353Y-7926604D02*
X24810748Y-7930832D01*
X15297560Y-2600120D02*
X15302442Y-2600000D01*
X14400007Y-13859966D02*
X14400048Y-13859961D01*
X4947823Y-13862763D02*
X4952507Y-13861467D01*
X15187251Y-25964168D02*
X15185067Y-25959828D01*
X4202091Y-26619400D02*
X4202112Y-26619444D01*
X4971704Y-19838620D02*
X4976574Y-19838500D01*
X14480440Y-2784815D02*
X14476334Y-2787415D01*
X24774334Y-20557585D02*
X24778440Y-20560185D01*
X4903208Y-13891016D02*
X4906558Y-13887497D01*
X15176038Y-20632796D02*
X15176633Y-20627974D01*
X14504956Y-14016474D02*
X14501966Y-14020305D01*
X24770107Y-2789810D02*
X24765766Y-2791995D01*
X15178529Y-8706555D02*
X15177464Y-8701814D01*
X14405681Y-25819149D02*
X14411329Y-25818663D01*
X15208077Y-25844146D02*
X15211757Y-25840972D01*
X24802956Y-7918526D02*
X24805754Y-7922499D01*
X15175562Y-2702500D02*
X15175681Y-2697642D01*
X4891647Y-8028396D02*
X4889252Y-8024168D01*
X24822438Y-20642500D02*
X24822319Y-20647358D01*
X14414733Y-20540724D02*
X14419592Y-20541082D01*
X24715010Y-2801500D02*
X24709329Y-2801337D01*
X4966858Y-2801023D02*
X4962035Y-2800428D01*
X4885098Y-7939614D02*
X4887067Y-7935172D01*
X24747493Y-19841467D02*
X24752176Y-19842763D01*
X14523961Y-7987204D02*
X14523367Y-7992026D01*
X24821961Y-19927796D02*
X24822319Y-19932642D01*
X24778440Y-8764815D02*
X24774334Y-8767415D01*
X24821961Y-13947796D02*
X24822319Y-13952642D01*
X4202112Y-2000556D02*
X4202091Y-2000600D01*
X14463324Y-8773964D02*
X14458790Y-8775713D01*
X14495442Y-2772503D02*
X14491923Y-2775854D01*
X24709329Y-7878663D02*
X24715010Y-7878500D01*
X15179825Y-14633762D02*
X15181349Y-14629148D01*
X14514933Y-2660172D02*
X14516902Y-2664614D01*
X14501966Y-14725305D02*
X14498792Y-14728984D01*
X14507754Y-14012501D02*
X14504956Y-14016474D01*
X4913757Y-8759028D02*
X4910077Y-8755854D01*
X4894246Y-14717501D02*
X4891647Y-14713396D01*
X4984994Y-14761500D02*
X4976574Y-14761500D01*
X4202430Y-2000188D02*
X4202390Y-2000217D01*
X4877562Y-25917500D02*
X4877681Y-25912642D01*
X24695557Y-26020000D02*
X15302442Y-26020000D01*
X15297560Y-14059880D02*
X15285266Y-14059276D01*
X4952518Y-8073536D02*
X4952518Y-8073536D01*
X15260035Y-7879572D02*
X15264858Y-7878977D01*
X24700440Y-26019880D02*
X24695557Y-26020000D01*
X24698042Y-2800038D02*
X24698021Y-2800035D01*
X24799966Y-14020305D02*
X24796792Y-14023984D01*
X15178529Y-13981555D02*
X15177464Y-13976814D01*
X14449482Y-14566464D02*
X14454176Y-14567763D01*
X4891647Y-14008396D02*
X4889252Y-14004168D01*
X14491923Y-2775854D02*
X14488243Y-2779028D01*
X14523367Y-7962974D02*
X14523961Y-7967796D01*
X24793442Y-2632497D02*
X24796792Y-2636016D01*
X24818175Y-8711238D02*
X24816651Y-8715852D01*
X24723426Y-13858500D02*
X24728296Y-13858619D01*
X4943210Y-25824287D02*
X4947823Y-25822763D01*
X14521471Y-20618445D02*
X14522536Y-20623186D01*
X14523961Y-25927204D02*
X14523367Y-25932026D01*
X15177464Y-2721814D02*
X15176633Y-2717026D01*
X15211757Y-14585972D02*
X15215587Y-14582983D01*
X4202352Y-26619752D02*
X4202390Y-26619783D01*
X24810748Y-14615832D02*
X24812933Y-14620172D01*
X15275573Y-26018321D02*
X15265805Y-26016872D01*
X4947823Y-2797237D02*
X4943210Y-2795713D01*
X24778440Y-14580185D02*
X24782412Y-14582983D01*
X4938676Y-14571036D02*
X4943210Y-14569287D01*
X15302442Y-26020000D02*
X15297560Y-26019880D01*
X24821961Y-25927204D02*
X24821367Y-25932026D01*
X15175681Y-25922358D02*
X15175562Y-25917500D01*
X15285266Y-8079276D02*
X15280408Y-8078918D01*
X14411329Y-19838663D02*
X14417010Y-19838500D01*
X14522536Y-20623186D02*
X14523367Y-20627974D01*
X15232234Y-14046995D02*
X15227893Y-14044810D01*
X24796792Y-25983984D02*
X24793442Y-25987503D01*
X15178529Y-13933445D02*
X15179825Y-13928762D01*
X15260035Y-8780428D02*
X15255248Y-8779597D01*
X24778440Y-20560185D02*
X24782412Y-20562983D01*
X4910077Y-8050854D02*
X4906558Y-8047503D01*
X15285266Y-14560724D02*
X15297560Y-14560120D01*
X4903208Y-20708984D02*
X4900034Y-20705305D01*
X14524438Y-13957500D02*
X14524319Y-13962358D01*
X24736995Y-2603960D02*
X24741748Y-2605028D01*
X4877681Y-19932642D02*
X4878039Y-19927796D01*
X15177464Y-8663186D02*
X15178529Y-8658445D01*
X24816651Y-13924148D02*
X24818175Y-13928762D01*
X15300077Y-7879972D02*
X15301203Y-7880000D01*
X14454176Y-20737237D02*
X14449493Y-20738533D01*
X5002077Y-19839972D02*
X5003203Y-19840000D01*
X14425426Y-2801500D02*
X14417010Y-2801500D01*
X14484412Y-8762017D02*
X14480440Y-8764815D01*
X15219560Y-8059815D02*
X15215587Y-8057017D01*
X15299958Y-25819962D02*
X15299958Y-25819962D01*
X24696797Y-7880000D02*
X24697923Y-7879972D01*
X4900034Y-13894695D02*
X4903208Y-13891016D01*
X15232234Y-2613005D02*
X15236676Y-2611036D01*
X4878633Y-8697026D02*
X4878039Y-8692204D01*
X4883349Y-8715852D02*
X4881825Y-8711238D01*
X15198034Y-8619695D02*
X15201207Y-8616016D01*
X24774334Y-14042415D02*
X24770107Y-14044810D01*
X4925666Y-19852585D02*
X4929893Y-19850190D01*
X24723426Y-2801500D02*
X24715010Y-2801500D01*
X14463324Y-14571036D02*
X14467766Y-14573005D01*
X14523961Y-19927796D02*
X14524319Y-19932642D01*
X15179825Y-2673762D02*
X15181349Y-2669148D01*
X14516902Y-20604614D02*
X14518651Y-20609148D01*
X4984994Y-13858500D02*
X4989255Y-13858591D01*
X4202981Y-2000006D02*
X4202932Y-2000008D01*
X5002017Y-2800031D02*
X5001959Y-2800038D01*
X4947823Y-14757237D02*
X4943210Y-14755712D01*
X4943210Y-26010712D02*
X4938676Y-26008964D01*
X15211757Y-20719028D02*
X15208077Y-20715854D01*
X24770107Y-14575190D02*
X24774334Y-14577585D01*
X4962035Y-19839572D02*
X4966858Y-19838977D01*
X24728296Y-13858619D02*
X24733142Y-13858977D01*
X24796792Y-19871016D02*
X24799966Y-19874695D01*
X4921560Y-20724815D02*
X4917587Y-20722017D01*
X14398797Y-25820000D02*
X14399923Y-25819972D01*
X4921560Y-8764815D02*
X4917587Y-8762017D01*
X5001958Y-7879962D02*
X5001979Y-7879965D01*
X15185067Y-8019828D02*
X15183098Y-8015385D01*
X14514933Y-20684828D02*
X14512748Y-20689168D01*
X14510353Y-25866604D02*
X14512748Y-25870832D01*
X24742752Y-13860402D02*
X24747493Y-13861467D01*
X24799966Y-19874695D02*
X24802956Y-19878526D01*
X24810748Y-14709168D02*
X24808353Y-14713396D01*
X14488243Y-7900972D02*
X14491923Y-7904146D01*
X14523367Y-25932026D02*
X14522536Y-25936814D01*
X14435142Y-19838977D02*
X14439965Y-19839572D01*
X14491923Y-14030854D02*
X14488243Y-14034028D01*
X15301203Y-14760000D02*
X15300077Y-14760028D01*
X24819471Y-13933445D02*
X24820536Y-13938186D01*
X15250518Y-14053536D02*
X15250518Y-14053536D01*
X14480440Y-2620185D02*
X14484412Y-2622983D01*
X15201207Y-8616016D02*
X15204558Y-8612497D01*
X4913757Y-25840972D02*
X4917587Y-25837983D01*
X14523961Y-2692796D02*
X14524319Y-2697642D01*
X24709329Y-20741337D02*
X24703681Y-20740851D01*
X24782412Y-8057017D02*
X24778440Y-8059815D01*
X4883349Y-2735852D02*
X4881825Y-2731238D01*
X24752176Y-2607763D02*
X24756790Y-2609287D01*
X15178529Y-19913445D02*
X15179825Y-19908762D01*
X4929893Y-19850190D02*
X4934234Y-19848005D01*
X15183098Y-8720386D02*
X15181349Y-8715852D01*
X24752176Y-26012237D02*
X24747482Y-26013536D01*
X15185067Y-8640172D02*
X15187251Y-8635832D01*
X14399923Y-2800028D02*
X14398797Y-2800000D01*
X4878633Y-14647974D02*
X4879464Y-14643186D01*
X24709329Y-25818663D02*
X24715010Y-25818500D01*
X24741748Y-2605028D02*
X24747482Y-2606464D01*
X15236676Y-13866036D02*
X15241209Y-13864287D01*
X24786243Y-8759028D02*
X24782412Y-8762017D01*
X14524319Y-25922358D02*
X14523961Y-25927204D01*
X4887067Y-20600172D02*
X4889252Y-20595832D01*
X14498792Y-14596016D02*
X14501966Y-14599695D01*
X15176633Y-25902974D02*
X15177464Y-25898186D01*
X15274574Y-8781500D02*
X15274574Y-8781500D01*
X4877681Y-20637642D02*
X4878039Y-20632796D01*
X24820536Y-13938186D02*
X24821367Y-13942974D01*
X4900034Y-14020305D02*
X4897044Y-14016474D01*
X14524319Y-20647358D02*
X14523961Y-20652204D01*
X14523367Y-20657026D02*
X14522536Y-20661814D01*
X4903208Y-8748984D02*
X4900034Y-8745305D01*
X24761324Y-2611036D02*
X24765766Y-2613005D01*
X14495442Y-2632497D02*
X14498792Y-2636016D01*
X15211757Y-14034028D02*
X15208077Y-14030854D01*
X4938676Y-26008964D02*
X4934234Y-26006995D01*
X14476334Y-25832585D02*
X14480440Y-25835185D01*
X4202042Y-26619261D02*
X4202056Y-26619308D01*
X15183098Y-19899614D02*
X15185067Y-19895172D01*
X25497839Y-26619529D02*
X25497865Y-26619487D01*
X24816651Y-19970852D02*
X24814902Y-19975386D01*
X24722426Y-14561678D02*
X24732195Y-14563127D01*
X14476334Y-20022415D02*
X14472107Y-20024810D01*
X14510353Y-25968396D02*
X14507754Y-25972501D01*
X14480440Y-14580185D02*
X14484412Y-14582983D01*
X14458790Y-8070712D02*
X14454176Y-8072237D01*
X15232234Y-14751995D02*
X15227893Y-14749810D01*
X24695557Y-14560000D02*
X24700440Y-14560120D01*
X24765766Y-26006995D02*
X24761324Y-26008964D01*
X25497019Y-2000006D02*
X25496797Y-2000000D01*
X24810748Y-8729168D02*
X24808353Y-8733396D01*
X4963005Y-20036040D02*
X4958252Y-20034972D01*
X14521471Y-7953445D02*
X14522536Y-7958186D01*
X14467766Y-20026995D02*
X14463324Y-20028964D01*
X24799966Y-2639695D02*
X24802956Y-2643526D01*
X24782412Y-8602983D02*
X24786243Y-8605972D01*
X15300077Y-2800028D02*
X15300017Y-2800031D01*
X14435142Y-14761023D02*
X14430296Y-14761380D01*
X15299958Y-2800038D02*
X15294319Y-2800851D01*
X14520175Y-20671238D02*
X14518651Y-20675852D01*
X4934234Y-14046995D02*
X4929893Y-14044810D01*
X4958252Y-8074972D02*
X4952518Y-8073536D01*
X24712733Y-8079276D02*
X24700440Y-8079880D01*
X24812933Y-14704828D02*
X24810748Y-14709168D01*
X24770107Y-26004810D02*
X24765766Y-26006995D01*
X4921560Y-14744815D02*
X4917587Y-14742017D01*
X14516902Y-7939614D02*
X14518651Y-7944148D01*
X24822319Y-7982358D02*
X24821961Y-7987204D01*
X14399923Y-20740028D02*
X14398797Y-20740000D01*
X4879464Y-25898186D02*
X4880529Y-25893445D01*
X4878633Y-2687974D02*
X4879464Y-2683186D01*
X15204558Y-20572497D02*
X15208077Y-20569146D01*
X24698041Y-7879962D02*
X24703681Y-7879149D01*
X24722426Y-26018321D02*
X24717592Y-26018918D01*
X14434195Y-8076872D02*
X14424426Y-8078321D01*
X15192246Y-2757501D02*
X15189647Y-2753396D01*
X24774334Y-25832585D02*
X24778440Y-25835185D01*
X5004443Y-26020000D02*
X4999560Y-26019880D01*
X15245823Y-20547763D02*
X15250518Y-20546464D01*
X4903208Y-8616016D02*
X4906558Y-8612497D01*
X14523961Y-8672796D02*
X14524319Y-8677642D01*
X24818175Y-14691238D02*
X24816651Y-14695852D01*
X4903208Y-19871016D02*
X4906558Y-19867497D01*
X14523961Y-13947796D02*
X14524319Y-13952642D01*
X15189647Y-2651604D02*
X15192246Y-2647499D01*
X15250518Y-20033536D02*
X15245823Y-20032237D01*
X4929893Y-13870190D02*
X4934234Y-13868005D01*
X25496773Y-26620000D02*
X25496797Y-26620000D01*
X5001958Y-7879962D02*
X5001958Y-7879962D01*
X15245823Y-20032237D02*
X15241209Y-20030713D01*
X15269704Y-13858619D02*
X15274574Y-13858500D01*
X4913757Y-8054028D02*
X4910077Y-8050854D01*
X24747482Y-14053536D02*
X24741748Y-14054972D01*
X14524319Y-25912642D02*
X14524438Y-25917500D01*
X15176633Y-2717026D02*
X15176038Y-2712204D01*
X14402440Y-2600120D02*
X14414733Y-2600724D01*
X4906558Y-14592497D02*
X4910077Y-14589146D01*
X4878039Y-19927796D02*
X4878633Y-19922974D01*
X4917587Y-20017017D02*
X4913757Y-20014028D01*
X24761324Y-20733964D02*
X24756790Y-20735713D01*
X15232234Y-20553005D02*
X15236676Y-20551036D01*
X15198034Y-14020305D02*
X15195044Y-14016474D01*
X15204558Y-7907497D02*
X15208077Y-7904146D01*
X15204558Y-19867497D02*
X15208077Y-19864146D01*
X14510353Y-19988396D02*
X14507754Y-19992501D01*
X15250518Y-2606464D02*
X15256252Y-2605028D01*
X15241209Y-2609287D02*
X15245823Y-2607763D01*
X14522536Y-7958186D02*
X14523367Y-7962974D01*
X24796792Y-8616016D02*
X24799966Y-8619695D01*
X14498792Y-8043984D02*
X14495442Y-8047503D01*
X15175681Y-19932642D02*
X15176038Y-19927796D01*
X14516902Y-13919614D02*
X14518651Y-13924148D01*
X15219560Y-20560185D02*
X15223665Y-20557585D01*
X15185067Y-14620172D02*
X15187251Y-14615832D01*
X4903208Y-14596016D02*
X4906558Y-14592497D01*
X24703681Y-8780851D02*
X24698042Y-8780038D01*
X14523961Y-14672204D02*
X14523367Y-14677026D01*
X14514933Y-8019828D02*
X14512748Y-8024168D01*
X15204558Y-20007503D02*
X15201207Y-20003984D01*
X4889252Y-19890832D02*
X4891647Y-19886604D01*
X24793442Y-13887497D02*
X24796792Y-13891016D01*
X15215587Y-7897983D02*
X15219560Y-7895185D01*
X15175681Y-13952642D02*
X15176038Y-13947796D01*
X24782412Y-14037017D02*
X24778440Y-14039815D01*
X15269704Y-8781380D02*
X15264858Y-8781023D01*
X4934234Y-26006995D02*
X4929893Y-26004810D01*
X14501966Y-19874695D02*
X14504956Y-19878526D01*
X24819471Y-7953445D02*
X24820536Y-7958186D01*
X14522536Y-19918186D02*
X14523367Y-19922974D01*
X15295726Y-14760679D02*
X15291498Y-14761135D01*
X4877681Y-13952642D02*
X4878039Y-13947796D01*
X24761324Y-13866036D02*
X24765766Y-13868005D01*
X24696797Y-19840000D02*
X24697923Y-19839972D01*
X14454176Y-13862763D02*
X14458790Y-13864287D01*
X24821367Y-13942974D02*
X24821961Y-13947796D01*
X4947823Y-19842763D02*
X4952507Y-19841467D01*
X4999560Y-14560120D02*
X5004443Y-14560000D01*
X15241209Y-14755712D02*
X15236676Y-14753964D01*
X14435142Y-8781023D02*
X14430296Y-8781380D01*
X24808353Y-13906604D02*
X24810748Y-13910832D01*
X4906558Y-8612497D02*
X4910077Y-8609146D01*
X15185067Y-25875172D02*
X15187251Y-25870832D01*
X4913757Y-13880972D02*
X4917587Y-13877983D01*
X24774334Y-13872585D02*
X24778440Y-13875185D01*
X24765766Y-2613005D02*
X24770107Y-2615190D01*
X4934234Y-2791995D02*
X4929893Y-2789810D01*
X5002077Y-7879972D02*
X5003203Y-7880000D01*
X4885098Y-25879614D02*
X4887067Y-25875172D01*
X24774334Y-14577585D02*
X24778440Y-14580185D01*
X4881825Y-13928762D02*
X4883349Y-13924148D01*
X4913757Y-19860972D02*
X4917587Y-19857983D01*
X24819471Y-19961555D02*
X24818175Y-19966238D01*
X14518651Y-20609148D02*
X14520175Y-20613762D01*
X14444752Y-7880402D02*
X14449493Y-7881467D01*
X4894246Y-7922499D02*
X4897044Y-7918526D01*
X14439965Y-25819572D02*
X14444752Y-25820402D01*
X24818175Y-2731238D02*
X24816651Y-2735852D01*
X24812933Y-19895172D02*
X24814902Y-19899614D01*
X15178529Y-2678445D02*
X15179825Y-2673762D01*
X14414733Y-20039276D02*
X14402440Y-20039880D01*
X15178529Y-14686555D02*
X15177464Y-14681814D01*
X4976574Y-19838500D02*
X4984990Y-19838500D01*
X15187251Y-14709168D02*
X15185067Y-14704828D01*
X24774334Y-2617585D02*
X24778440Y-2620185D01*
X14476334Y-14747415D02*
X14472107Y-14749810D01*
X14495442Y-20572497D02*
X14498792Y-20576016D01*
X14458790Y-7884287D02*
X14463324Y-7886036D01*
X14398797Y-14760000D02*
X14398773Y-14760000D01*
X4921560Y-19855185D02*
X4925666Y-19852585D01*
X25497165Y-2000020D02*
X25497117Y-2000013D01*
X24747482Y-14566464D02*
X24752176Y-14567763D01*
X24698049Y-14760039D02*
X24698049Y-14760039D01*
X4900034Y-8619695D02*
X4903208Y-8616016D01*
X4934234Y-8593005D02*
X4938676Y-8591036D01*
X15178529Y-20618445D02*
X15179825Y-20613762D01*
X24737965Y-19839572D02*
X24742752Y-19840403D01*
X4934234Y-20731995D02*
X4929893Y-20729810D01*
X14419592Y-14058918D02*
X14414733Y-14059276D01*
X4889252Y-14615832D02*
X4891647Y-14611604D01*
X14454176Y-14567763D02*
X14458790Y-14569287D01*
X24802956Y-14016474D02*
X24799966Y-14020305D01*
X24761324Y-20551036D02*
X24765766Y-20553005D01*
X25497444Y-26619888D02*
X25497487Y-26619865D01*
X14514933Y-14620172D02*
X14516902Y-14624614D01*
X4925666Y-14042415D02*
X4921560Y-14039815D01*
X24770107Y-19850190D02*
X24774334Y-19852585D01*
X4202072Y-26619354D02*
X4202091Y-26619400D01*
X15198034Y-7914695D02*
X15201207Y-7911016D01*
X4990671Y-7878663D02*
X4996319Y-7879149D01*
X14463324Y-13866036D02*
X14467766Y-13868005D01*
X14400021Y-20740035D02*
X14399972Y-20740030D01*
X15204558Y-8752503D02*
X15201207Y-8748984D01*
X14430296Y-19838620D02*
X14435142Y-19838977D01*
X4897044Y-20583526D02*
X4900034Y-20579695D01*
X15297560Y-20540120D02*
X15302442Y-20540000D01*
X15250518Y-8586464D02*
X15256252Y-8585028D01*
X4877681Y-2707358D02*
X4877562Y-2702500D01*
X4976574Y-20741500D02*
X4971704Y-20741380D01*
X25497648Y-2000248D02*
X25497610Y-2000217D01*
X14498792Y-20576016D02*
X14501966Y-20579695D01*
X15287255Y-13858591D02*
X15291498Y-13858865D01*
X4952507Y-19841467D02*
X4957248Y-19840403D01*
X24786243Y-14739028D02*
X24782412Y-14742017D01*
X14472107Y-8595190D02*
X14476334Y-8597585D01*
X14435142Y-13858977D02*
X14439965Y-13859572D01*
X14449482Y-20033536D02*
X14443748Y-20034972D01*
X25497927Y-2000645D02*
X25497909Y-2000600D01*
X4889252Y-2655832D02*
X4891647Y-2651604D01*
X24698041Y-25819962D02*
X24703681Y-25819149D01*
X15176633Y-8697026D02*
X15176038Y-8692204D01*
X24765766Y-8593005D02*
X24770107Y-8595190D01*
X4897044Y-25976474D02*
X4894246Y-25972501D01*
X15301203Y-25820000D02*
X15301227Y-25820000D01*
X15175681Y-2697642D02*
X15176038Y-2692796D01*
X4984990Y-8781500D02*
X4976574Y-8781500D01*
X4889252Y-25964168D02*
X4887067Y-25959828D01*
X4202981Y-26619994D02*
X4203203Y-26620000D01*
X4957248Y-7880402D02*
X4962035Y-7879572D01*
X14516902Y-14624614D02*
X14518651Y-14629148D01*
X15280408Y-20541082D02*
X15285266Y-20540724D01*
X4881825Y-8006238D02*
X4880529Y-8001555D01*
X15175681Y-14657642D02*
X15176038Y-14652796D01*
X24723426Y-25818500D02*
X24728296Y-25818619D01*
X14419592Y-14561082D02*
X14424426Y-14561678D01*
X4897044Y-14016474D02*
X4894246Y-14012501D01*
X14400049Y-14760039D02*
X14400049Y-14760039D01*
X15198034Y-25980305D02*
X15195044Y-25976474D01*
X14463324Y-14048964D02*
X14458790Y-14050712D01*
X14397557Y-20540000D02*
X14402440Y-20540120D01*
X14449482Y-20546464D02*
X14454176Y-20547763D01*
X24742752Y-14759597D02*
X24737965Y-14760428D01*
X24703681Y-19839149D02*
X24709329Y-19838663D01*
X15181349Y-20609148D02*
X15183098Y-20604614D01*
X15241209Y-8070712D02*
X15236676Y-8068964D01*
X15236676Y-20028964D02*
X15232234Y-20026995D01*
X15187251Y-25870832D02*
X15189647Y-25866604D01*
X14501966Y-8040305D02*
X14498792Y-8043984D01*
X24786243Y-20565972D02*
X24789923Y-20569146D01*
X24820536Y-8663186D02*
X24821367Y-8667974D01*
X25497719Y-26619684D02*
X25497752Y-26619648D01*
X5003203Y-13860000D02*
X5003227Y-13860000D01*
X14400021Y-14760035D02*
X14399972Y-14760030D01*
X24810748Y-20689168D02*
X24808353Y-20693396D01*
X14476334Y-8062415D02*
X14472107Y-8064810D01*
X14458790Y-20735713D02*
X14454176Y-20737237D01*
X15232234Y-7888005D02*
X15236676Y-7886036D01*
X15179825Y-19966238D02*
X15178529Y-19961555D01*
X14417010Y-2801500D02*
X14411329Y-2801337D01*
X15236676Y-20551036D02*
X15241209Y-20549287D01*
X14435142Y-2801023D02*
X14430296Y-2801380D01*
X15232234Y-8771995D02*
X15227893Y-8769810D01*
X24696797Y-13860000D02*
X24697923Y-13859972D01*
X15181349Y-8715852D02*
X15179825Y-8711238D01*
X24816651Y-19904148D02*
X24818175Y-19908762D01*
X15219560Y-20724815D02*
X15215587Y-20722017D01*
X14523961Y-20632796D02*
X14524319Y-20637642D01*
X14518651Y-8010852D02*
X14516902Y-8015385D01*
X24814902Y-8720386D02*
X24812933Y-8724828D01*
X4202006Y-2000981D02*
X4202000Y-2001203D01*
X24793442Y-8047503D02*
X24789923Y-8050854D01*
X4952507Y-7881467D02*
X4957248Y-7880402D01*
X15300028Y-13859970D02*
X15300077Y-13859972D01*
X14524319Y-13952642D02*
X14524438Y-13957500D01*
X14434195Y-26016872D02*
X14424426Y-26018321D01*
X15294319Y-19839149D02*
X15299958Y-19839962D01*
X24812933Y-14620172D02*
X24814902Y-14624614D01*
X14521471Y-8001555D02*
X14520175Y-8006238D01*
X4947823Y-14567763D02*
X4952518Y-14566464D01*
X4883349Y-20609148D02*
X4885098Y-20604614D01*
X4897044Y-7918526D02*
X4900034Y-7914695D01*
X4947823Y-20737237D02*
X4943210Y-20735713D01*
X4202000Y-26618773D02*
X4202000Y-26618797D01*
X24789923Y-2629146D02*
X24793442Y-2632497D01*
X14518651Y-25950852D02*
X14516902Y-25955385D01*
X24802956Y-14603526D02*
X24805754Y-14607499D01*
X4966858Y-25818977D02*
X4971704Y-25818619D01*
X15236676Y-14753964D02*
X15232234Y-14751995D01*
X14484412Y-14742017D02*
X14480440Y-14744815D01*
X4891647Y-2753396D02*
X4889252Y-2749168D01*
X24770107Y-7890190D02*
X24774334Y-7892585D01*
X15232234Y-20026995D02*
X15227893Y-20024810D01*
X4943210Y-19844287D02*
X4947823Y-19842763D01*
X24736995Y-8583960D02*
X24741748Y-8585028D01*
X24808353Y-2753396D02*
X24805754Y-2757501D01*
X14424426Y-20038322D02*
X14419592Y-20038918D01*
X15285266Y-8580724D02*
X15297560Y-8580120D01*
X24821367Y-8667974D02*
X24821961Y-8672796D01*
X4966858Y-7878977D02*
X4971704Y-7878619D01*
X4887067Y-13915172D02*
X4889252Y-13910832D01*
X15297560Y-8079880D02*
X15285266Y-8079276D01*
X15183098Y-2664614D02*
X15185067Y-2660172D01*
X4202470Y-2000160D02*
X4202430Y-2000188D01*
X15250518Y-26013536D02*
X15250518Y-26013536D01*
X4877681Y-7972642D02*
X4878039Y-7967796D01*
X14523367Y-2687974D02*
X14523961Y-2692796D01*
X24703681Y-7879149D02*
X24709329Y-7878663D01*
X4891647Y-25968396D02*
X4889252Y-25964168D01*
X24700440Y-14560120D02*
X24712733Y-14560724D01*
X24728296Y-8781380D02*
X24723426Y-8781500D01*
X24756790Y-14569287D02*
X24761324Y-14571036D01*
X24737965Y-2800428D02*
X24733142Y-2801023D01*
X14434195Y-8583128D02*
X14438995Y-8583960D01*
X4921560Y-13875185D02*
X4925666Y-13872585D01*
X4910077Y-25990854D02*
X4906558Y-25987503D01*
X15176633Y-20627974D02*
X15177464Y-20623186D01*
X14516902Y-2740386D02*
X14514933Y-2744828D01*
X24796792Y-8043984D02*
X24793442Y-8047503D01*
X24805754Y-20697501D02*
X24802956Y-20701474D01*
X24782412Y-13877983D02*
X24786243Y-13880972D01*
X24728296Y-14761380D02*
X24723426Y-14761500D01*
X14484412Y-20562983D02*
X14488243Y-20565972D01*
X15227893Y-2615190D02*
X15232234Y-2613005D01*
X24695557Y-2600000D02*
X24700440Y-2600120D01*
X14484412Y-2622983D02*
X14488243Y-2625972D01*
X14398773Y-14760000D02*
X5003227Y-14760000D01*
X4891647Y-14713396D02*
X4889252Y-14709168D01*
X4938676Y-25826036D02*
X4943210Y-25824287D01*
X15223665Y-14747415D02*
X15219560Y-14744815D01*
X15223665Y-14042415D02*
X15219560Y-14039815D01*
X15198034Y-25854695D02*
X15201207Y-25851016D01*
X14398797Y-13860000D02*
X14399923Y-13859972D01*
X4877562Y-13957500D02*
X4877681Y-13952642D01*
X5001979Y-7879965D02*
X5002028Y-7879970D01*
X14449493Y-19841467D02*
X14454176Y-19842763D01*
X4976574Y-14761500D02*
X4976574Y-14761500D01*
X25497752Y-2000352D02*
X25497719Y-2000316D01*
X24747482Y-20033536D02*
X24741748Y-20034972D01*
X14516902Y-20680386D02*
X14514933Y-20684828D01*
X15299958Y-20740038D02*
X15294319Y-20740851D01*
X24742752Y-19840403D02*
X24747493Y-19841467D01*
X15236676Y-7886036D02*
X15241209Y-7884287D01*
X4897044Y-19878526D02*
X4900034Y-19874695D01*
X24782412Y-8762017D02*
X24778440Y-8764815D01*
X4887067Y-8640172D02*
X4889252Y-8635832D01*
X24737965Y-25819572D02*
X24742752Y-25820402D01*
X15274574Y-7878500D02*
X15282990Y-7878500D01*
X14524438Y-25917500D02*
X14524319Y-25922358D01*
X25497684Y-2000281D02*
X25497648Y-2000248D01*
X4878039Y-19947204D02*
X4877681Y-19942358D01*
X4921560Y-25835185D02*
X4925666Y-25832585D01*
X4921560Y-14580185D02*
X4925666Y-14577585D01*
X4921560Y-20560185D02*
X4925666Y-20557585D01*
X15215587Y-14582983D02*
X15219560Y-14580185D01*
X4910077Y-20715854D02*
X4906558Y-20712503D01*
X15245823Y-14052237D02*
X15241209Y-14050712D01*
X15195044Y-25976474D02*
X15192246Y-25972501D01*
X24761324Y-20028964D02*
X24756790Y-20030713D01*
X4877681Y-7982358D02*
X4877562Y-7977500D01*
X24805754Y-2647499D02*
X24808353Y-2651604D01*
X14439965Y-7879572D02*
X14444752Y-7880402D01*
X4879464Y-13976814D02*
X4878633Y-13972026D01*
X14480440Y-14744815D02*
X14476334Y-14747415D01*
X14520175Y-25888762D02*
X14521471Y-25893445D01*
X14480440Y-8059815D02*
X14476334Y-8062415D01*
X15192246Y-14717501D02*
X15189647Y-14713396D01*
X15261005Y-20036040D02*
X15256252Y-20034972D01*
X14514933Y-8640172D02*
X14516902Y-8644614D01*
X4894246Y-19992501D02*
X4891647Y-19988396D01*
X24778440Y-7895185D02*
X24782412Y-7897983D01*
X14522536Y-20661814D02*
X14521471Y-20666555D01*
X4880529Y-14686555D02*
X4879464Y-14681814D01*
X24717592Y-26018918D02*
X24712733Y-26019276D01*
D11*
D12*
X7953800Y-3233000D02*
X8123800Y-3403000D01*
X8123800Y-3233000D02*
X7953800Y-3403000D01*
X7953800Y-3933000D02*
X8123800Y-4103000D01*
X8123800Y-3933000D02*
X7953800Y-4103000D01*
X7953800Y-9213000D02*
X8123800Y-9383000D01*
X8123800Y-9213000D02*
X7953800Y-9383000D01*
X7953800Y-9913000D02*
X8123800Y-10083000D01*
X8123800Y-9913000D02*
X7953800Y-10083000D01*
X7953800Y-15193000D02*
X8123800Y-15363000D01*
X8123800Y-15193000D02*
X7953800Y-15363000D01*
X7953800Y-15893000D02*
X8123800Y-16063000D01*
X8123800Y-15893000D02*
X7953800Y-16063000D01*
X7953800Y-21173000D02*
X8123800Y-21343000D01*
X8123800Y-21173000D02*
X7953800Y-21343000D01*
X7953800Y-21873000D02*
X8123800Y-22043000D01*
X8123800Y-21873000D02*
X7953800Y-22043000D01*
X18251800Y-3233000D02*
X18421800Y-3403000D01*
X18421800Y-3233000D02*
X18251800Y-3403000D01*
X18251800Y-3933000D02*
X18421800Y-4103000D01*
X18421800Y-3933000D02*
X18251800Y-4103000D01*
X18251800Y-9213000D02*
X18421800Y-9383000D01*
X18421800Y-9213000D02*
X18251800Y-9383000D01*
X18251800Y-9913000D02*
X18421800Y-10083000D01*
X18421800Y-9913000D02*
X18251800Y-10083000D01*
X18251800Y-15193000D02*
X18421800Y-15363000D01*
X18421800Y-15193000D02*
X18251800Y-15363000D01*
X18251800Y-15893000D02*
X18421800Y-16063000D01*
X18421800Y-15893000D02*
X18251800Y-16063000D01*
X18251800Y-21173000D02*
X18421800Y-21343000D01*
X18421800Y-21173000D02*
X18251800Y-21343000D01*
X18251800Y-21873000D02*
X18421800Y-22043000D01*
X18421800Y-21873000D02*
X18251800Y-22043000D01*
D13*
X4662000Y-2300000D02*
G75*
G03*
X4662000Y-2300000I-160000J0D01*
G01*
X4662000Y-26320000D02*
G75*
G03*
X4662000Y-26320000I-160000J0D01*
G01*
X25358000Y-2300000D02*
G75*
G03*
X25358000Y-2300000I-160000J0D01*
G01*
X25358000Y-26320000D02*
G75*
G03*
X25358000Y-26320000I-160000J0D01*
G01*
D11*
X4454619Y-26935476D02*
X4454619Y-26735476D01*
X4502238Y-26735476D01*
X4530810Y-26745000D01*
X4549857Y-26764048D01*
X4559381Y-26783095D01*
X4568905Y-26821190D01*
X4568905Y-26849762D01*
X4559381Y-26887857D01*
X4549857Y-26906905D01*
X4530810Y-26925952D01*
X4502238Y-26935476D01*
X4454619Y-26935476D01*
X4654619Y-26935476D02*
X4654619Y-26802143D01*
X4654619Y-26840238D02*
X4664143Y-26821190D01*
X4673667Y-26811667D01*
X4692714Y-26802143D01*
X4711762Y-26802143D01*
X4778429Y-26935476D02*
X4778429Y-26802143D01*
X4778429Y-26735476D02*
X4768905Y-26745000D01*
X4778429Y-26754524D01*
X4787952Y-26745000D01*
X4778429Y-26735476D01*
X4778429Y-26754524D01*
X4902238Y-26935476D02*
X4883190Y-26925952D01*
X4873667Y-26906905D01*
X4873667Y-26735476D01*
X5007000Y-26935476D02*
X4987952Y-26925952D01*
X4978429Y-26906905D01*
X4978429Y-26735476D01*
X5235571Y-26935476D02*
X5235571Y-26735476D01*
X5302238Y-26878333D01*
X5368905Y-26735476D01*
X5368905Y-26935476D01*
X5549857Y-26935476D02*
X5549857Y-26830714D01*
X5540333Y-26811667D01*
X5521286Y-26802143D01*
X5483190Y-26802143D01*
X5464143Y-26811667D01*
X5549857Y-26925952D02*
X5530810Y-26935476D01*
X5483190Y-26935476D01*
X5464143Y-26925952D01*
X5454619Y-26906905D01*
X5454619Y-26887857D01*
X5464143Y-26868809D01*
X5483190Y-26859286D01*
X5530810Y-26859286D01*
X5549857Y-26849762D01*
X5645095Y-26802143D02*
X5645095Y-27002143D01*
X5645095Y-26811667D02*
X5664143Y-26802143D01*
X5702238Y-26802143D01*
X5721286Y-26811667D01*
X5730809Y-26821190D01*
X5740333Y-26840238D01*
X5740333Y-26897381D01*
X5730809Y-26916428D01*
X5721286Y-26925952D01*
X5702238Y-26935476D01*
X5664143Y-26935476D01*
X5645095Y-26925952D01*
X5826048Y-26916428D02*
X5835571Y-26925952D01*
X5826048Y-26935476D01*
X5816524Y-26925952D01*
X5826048Y-26916428D01*
X5826048Y-26935476D01*
X5826048Y-26811667D02*
X5835571Y-26821190D01*
X5826048Y-26830714D01*
X5816524Y-26821190D01*
X5826048Y-26811667D01*
X5826048Y-26830714D01*
D12*
X4027000Y-27180000D02*
X4197000Y-27350000D01*
X4197000Y-27180000D02*
X4027000Y-27350000D01*
D11*
X4559381Y-27355476D02*
X4445095Y-27355476D01*
X4502238Y-27355476D02*
X4502238Y-27155476D01*
X4483190Y-27184048D01*
X4464143Y-27203095D01*
X4445095Y-27212619D01*
X4645095Y-27336428D02*
X4654619Y-27345952D01*
X4645095Y-27355476D01*
X4635571Y-27345952D01*
X4645095Y-27336428D01*
X4645095Y-27355476D01*
X4721286Y-27155476D02*
X4854619Y-27155476D01*
X4768905Y-27355476D01*
X4968905Y-27155476D02*
X4987952Y-27155476D01*
X5007000Y-27165000D01*
X5016524Y-27174524D01*
X5026048Y-27193571D01*
X5035571Y-27231667D01*
X5035571Y-27279286D01*
X5026048Y-27317381D01*
X5016524Y-27336428D01*
X5007000Y-27345952D01*
X4987952Y-27355476D01*
X4968905Y-27355476D01*
X4949857Y-27345952D01*
X4940333Y-27336428D01*
X4930810Y-27317381D01*
X4921286Y-27279286D01*
X4921286Y-27231667D01*
X4930810Y-27193571D01*
X4940333Y-27174524D01*
X4949857Y-27165000D01*
X4968905Y-27155476D01*
X5159381Y-27155476D02*
X5178429Y-27155476D01*
X5197476Y-27165000D01*
X5207000Y-27174524D01*
X5216524Y-27193571D01*
X5226048Y-27231667D01*
X5226048Y-27279286D01*
X5216524Y-27317381D01*
X5207000Y-27336428D01*
X5197476Y-27345952D01*
X5178429Y-27355476D01*
X5159381Y-27355476D01*
X5140333Y-27345952D01*
X5130810Y-27336428D01*
X5121286Y-27317381D01*
X5111762Y-27279286D01*
X5111762Y-27231667D01*
X5121286Y-27193571D01*
X5130810Y-27174524D01*
X5140333Y-27165000D01*
X5159381Y-27155476D01*
X5311762Y-27355476D02*
X5311762Y-27222143D01*
X5311762Y-27241190D02*
X5321286Y-27231667D01*
X5340333Y-27222143D01*
X5368905Y-27222143D01*
X5387952Y-27231667D01*
X5397476Y-27250714D01*
X5397476Y-27355476D01*
X5397476Y-27250714D02*
X5407000Y-27231667D01*
X5426048Y-27222143D01*
X5454619Y-27222143D01*
X5473667Y-27231667D01*
X5483190Y-27250714D01*
X5483190Y-27355476D01*
X5578429Y-27355476D02*
X5578429Y-27222143D01*
X5578429Y-27241190D02*
X5587952Y-27231667D01*
X5607000Y-27222143D01*
X5635571Y-27222143D01*
X5654619Y-27231667D01*
X5664143Y-27250714D01*
X5664143Y-27355476D01*
X5664143Y-27250714D02*
X5673667Y-27231667D01*
X5692714Y-27222143D01*
X5721286Y-27222143D01*
X5740333Y-27231667D01*
X5749857Y-27250714D01*
X5749857Y-27355476D01*
X6140333Y-27145952D02*
X5968905Y-27403095D01*
X6397476Y-27155476D02*
X6416524Y-27155476D01*
X6435571Y-27165000D01*
X6445095Y-27174524D01*
X6454619Y-27193571D01*
X6464143Y-27231667D01*
X6464143Y-27279286D01*
X6454619Y-27317381D01*
X6445095Y-27336428D01*
X6435571Y-27345952D01*
X6416524Y-27355476D01*
X6397476Y-27355476D01*
X6378428Y-27345952D01*
X6368905Y-27336428D01*
X6359381Y-27317381D01*
X6349857Y-27279286D01*
X6349857Y-27231667D01*
X6359381Y-27193571D01*
X6368905Y-27174524D01*
X6378428Y-27165000D01*
X6397476Y-27155476D01*
X6549857Y-27336428D02*
X6559381Y-27345952D01*
X6549857Y-27355476D01*
X6540333Y-27345952D01*
X6549857Y-27336428D01*
X6549857Y-27355476D01*
X6683190Y-27155476D02*
X6702238Y-27155476D01*
X6721286Y-27165000D01*
X6730809Y-27174524D01*
X6740333Y-27193571D01*
X6749857Y-27231667D01*
X6749857Y-27279286D01*
X6740333Y-27317381D01*
X6730809Y-27336428D01*
X6721286Y-27345952D01*
X6702238Y-27355476D01*
X6683190Y-27355476D01*
X6664143Y-27345952D01*
X6654619Y-27336428D01*
X6645095Y-27317381D01*
X6635571Y-27279286D01*
X6635571Y-27231667D01*
X6645095Y-27193571D01*
X6654619Y-27174524D01*
X6664143Y-27165000D01*
X6683190Y-27155476D01*
X6921286Y-27155476D02*
X6883190Y-27155476D01*
X6864143Y-27165000D01*
X6854619Y-27174524D01*
X6835571Y-27203095D01*
X6826048Y-27241190D01*
X6826048Y-27317381D01*
X6835571Y-27336428D01*
X6845095Y-27345952D01*
X6864143Y-27355476D01*
X6902238Y-27355476D01*
X6921286Y-27345952D01*
X6930809Y-27336428D01*
X6940333Y-27317381D01*
X6940333Y-27269762D01*
X6930809Y-27250714D01*
X6921286Y-27241190D01*
X6902238Y-27231667D01*
X6864143Y-27231667D01*
X6845095Y-27241190D01*
X6835571Y-27250714D01*
X6826048Y-27269762D01*
X7111762Y-27155476D02*
X7073667Y-27155476D01*
X7054619Y-27165000D01*
X7045095Y-27174524D01*
X7026048Y-27203095D01*
X7016524Y-27241190D01*
X7016524Y-27317381D01*
X7026048Y-27336428D01*
X7035571Y-27345952D01*
X7054619Y-27355476D01*
X7092714Y-27355476D01*
X7111762Y-27345952D01*
X7121286Y-27336428D01*
X7130809Y-27317381D01*
X7130809Y-27269762D01*
X7121286Y-27250714D01*
X7111762Y-27241190D01*
X7092714Y-27231667D01*
X7054619Y-27231667D01*
X7035571Y-27241190D01*
X7026048Y-27250714D01*
X7016524Y-27269762D01*
X7226048Y-27355476D02*
X7264143Y-27355476D01*
X7283190Y-27345952D01*
X7292714Y-27336428D01*
X7311762Y-27307857D01*
X7321286Y-27269762D01*
X7321286Y-27193571D01*
X7311762Y-27174524D01*
X7302238Y-27165000D01*
X7283190Y-27155476D01*
X7245095Y-27155476D01*
X7226048Y-27165000D01*
X7216524Y-27174524D01*
X7207000Y-27193571D01*
X7207000Y-27241190D01*
X7216524Y-27260238D01*
X7226048Y-27269762D01*
X7245095Y-27279286D01*
X7283190Y-27279286D01*
X7302238Y-27269762D01*
X7311762Y-27260238D01*
X7321286Y-27241190D01*
X7397476Y-27155476D02*
X7397476Y-27193571D01*
X7473667Y-27155476D02*
X7473667Y-27193571D01*
X7768905Y-27431667D02*
X7759381Y-27422143D01*
X7740333Y-27393571D01*
X7730809Y-27374524D01*
X7721286Y-27345952D01*
X7711762Y-27298333D01*
X7711762Y-27260238D01*
X7721286Y-27212619D01*
X7730809Y-27184048D01*
X7740333Y-27165000D01*
X7759381Y-27136428D01*
X7768905Y-27126905D01*
X7949857Y-27355476D02*
X7835571Y-27355476D01*
X7892714Y-27355476D02*
X7892714Y-27155476D01*
X7873667Y-27184048D01*
X7854619Y-27203095D01*
X7835571Y-27212619D01*
X8121286Y-27155476D02*
X8083190Y-27155476D01*
X8064143Y-27165000D01*
X8054619Y-27174524D01*
X8035571Y-27203095D01*
X8026048Y-27241190D01*
X8026048Y-27317381D01*
X8035571Y-27336428D01*
X8045095Y-27345952D01*
X8064143Y-27355476D01*
X8102238Y-27355476D01*
X8121286Y-27345952D01*
X8130809Y-27336428D01*
X8140333Y-27317381D01*
X8140333Y-27269762D01*
X8130809Y-27250714D01*
X8121286Y-27241190D01*
X8102238Y-27231667D01*
X8064143Y-27231667D01*
X8045095Y-27241190D01*
X8035571Y-27250714D01*
X8026048Y-27269762D01*
X8378428Y-27355476D02*
X8378428Y-27155476D01*
X8464143Y-27355476D02*
X8464143Y-27250714D01*
X8454619Y-27231667D01*
X8435571Y-27222143D01*
X8407000Y-27222143D01*
X8387952Y-27231667D01*
X8378428Y-27241190D01*
X8587952Y-27355476D02*
X8568905Y-27345952D01*
X8559381Y-27336428D01*
X8549857Y-27317381D01*
X8549857Y-27260238D01*
X8559381Y-27241190D01*
X8568905Y-27231667D01*
X8587952Y-27222143D01*
X8616524Y-27222143D01*
X8635571Y-27231667D01*
X8645095Y-27241190D01*
X8654619Y-27260238D01*
X8654619Y-27317381D01*
X8645095Y-27336428D01*
X8635571Y-27345952D01*
X8616524Y-27355476D01*
X8587952Y-27355476D01*
X8768905Y-27355476D02*
X8749857Y-27345952D01*
X8740333Y-27326905D01*
X8740333Y-27155476D01*
X8921286Y-27345952D02*
X8902238Y-27355476D01*
X8864143Y-27355476D01*
X8845095Y-27345952D01*
X8835571Y-27326905D01*
X8835571Y-27250714D01*
X8845095Y-27231667D01*
X8864143Y-27222143D01*
X8902238Y-27222143D01*
X8921286Y-27231667D01*
X8930810Y-27250714D01*
X8930810Y-27269762D01*
X8835571Y-27288809D01*
X9007000Y-27345952D02*
X9026048Y-27355476D01*
X9064143Y-27355476D01*
X9083190Y-27345952D01*
X9092714Y-27326905D01*
X9092714Y-27317381D01*
X9083190Y-27298333D01*
X9064143Y-27288809D01*
X9035571Y-27288809D01*
X9016524Y-27279286D01*
X9007000Y-27260238D01*
X9007000Y-27250714D01*
X9016524Y-27231667D01*
X9035571Y-27222143D01*
X9064143Y-27222143D01*
X9083190Y-27231667D01*
X9159381Y-27431667D02*
X9168905Y-27422143D01*
X9187952Y-27393571D01*
X9197476Y-27374524D01*
X9207000Y-27345952D01*
X9216524Y-27298333D01*
X9216524Y-27260238D01*
X9207000Y-27212619D01*
X9197476Y-27184048D01*
X9187952Y-27165000D01*
X9168905Y-27136428D01*
X9159381Y-27126905D01*
X9521286Y-27431667D02*
X9511762Y-27422143D01*
X9492714Y-27393571D01*
X9483190Y-27374524D01*
X9473667Y-27345952D01*
X9464143Y-27298333D01*
X9464143Y-27260238D01*
X9473667Y-27212619D01*
X9483190Y-27184048D01*
X9492714Y-27165000D01*
X9511762Y-27136428D01*
X9521286Y-27126905D01*
X9597476Y-27222143D02*
X9597476Y-27355476D01*
X9597476Y-27241190D02*
X9607000Y-27231667D01*
X9626048Y-27222143D01*
X9654619Y-27222143D01*
X9673667Y-27231667D01*
X9683190Y-27250714D01*
X9683190Y-27355476D01*
X9807000Y-27355476D02*
X9787952Y-27345952D01*
X9778429Y-27336428D01*
X9768905Y-27317381D01*
X9768905Y-27260238D01*
X9778429Y-27241190D01*
X9787952Y-27231667D01*
X9807000Y-27222143D01*
X9835571Y-27222143D01*
X9854619Y-27231667D01*
X9864143Y-27241190D01*
X9873667Y-27260238D01*
X9873667Y-27317381D01*
X9864143Y-27336428D01*
X9854619Y-27345952D01*
X9835571Y-27355476D01*
X9807000Y-27355476D01*
X9930810Y-27222143D02*
X10007000Y-27222143D01*
X9959381Y-27155476D02*
X9959381Y-27326905D01*
X9968905Y-27345952D01*
X9987952Y-27355476D01*
X10007000Y-27355476D01*
X10226048Y-27222143D02*
X10226048Y-27422143D01*
X10226048Y-27231667D02*
X10245095Y-27222143D01*
X10283190Y-27222143D01*
X10302238Y-27231667D01*
X10311762Y-27241190D01*
X10321286Y-27260238D01*
X10321286Y-27317381D01*
X10311762Y-27336428D01*
X10302238Y-27345952D01*
X10283190Y-27355476D01*
X10245095Y-27355476D01*
X10226048Y-27345952D01*
X10435571Y-27355476D02*
X10416524Y-27345952D01*
X10407000Y-27326905D01*
X10407000Y-27155476D01*
X10597476Y-27355476D02*
X10597476Y-27250714D01*
X10587952Y-27231667D01*
X10568905Y-27222143D01*
X10530810Y-27222143D01*
X10511762Y-27231667D01*
X10597476Y-27345952D02*
X10578429Y-27355476D01*
X10530810Y-27355476D01*
X10511762Y-27345952D01*
X10502238Y-27326905D01*
X10502238Y-27307857D01*
X10511762Y-27288809D01*
X10530810Y-27279286D01*
X10578429Y-27279286D01*
X10597476Y-27269762D01*
X10664143Y-27222143D02*
X10740333Y-27222143D01*
X10692714Y-27155476D02*
X10692714Y-27326905D01*
X10702238Y-27345952D01*
X10721286Y-27355476D01*
X10740333Y-27355476D01*
X10883190Y-27345952D02*
X10864143Y-27355476D01*
X10826048Y-27355476D01*
X10807000Y-27345952D01*
X10797476Y-27326905D01*
X10797476Y-27250714D01*
X10807000Y-27231667D01*
X10826048Y-27222143D01*
X10864143Y-27222143D01*
X10883190Y-27231667D01*
X10892714Y-27250714D01*
X10892714Y-27269762D01*
X10797476Y-27288809D01*
X11064143Y-27355476D02*
X11064143Y-27155476D01*
X11064143Y-27345952D02*
X11045095Y-27355476D01*
X11007000Y-27355476D01*
X10987952Y-27345952D01*
X10978429Y-27336428D01*
X10968905Y-27317381D01*
X10968905Y-27260238D01*
X10978429Y-27241190D01*
X10987952Y-27231667D01*
X11007000Y-27222143D01*
X11045095Y-27222143D01*
X11064143Y-27231667D01*
X11140333Y-27431667D02*
X11149857Y-27422143D01*
X11168905Y-27393571D01*
X11178429Y-27374524D01*
X11187952Y-27345952D01*
X11197476Y-27298333D01*
X11197476Y-27260238D01*
X11187952Y-27212619D01*
X11178429Y-27184048D01*
X11168905Y-27165000D01*
X11149857Y-27136428D01*
X11140333Y-27126905D01*
X4197000Y-27555000D02*
G75*
G03*
X4197000Y-27555000I-100000J0D01*
G01*
X4435571Y-27445476D02*
X4559381Y-27445476D01*
X4492714Y-27521667D01*
X4521286Y-27521667D01*
X4540333Y-27531190D01*
X4549857Y-27540714D01*
X4559381Y-27559762D01*
X4559381Y-27607381D01*
X4549857Y-27626428D01*
X4540333Y-27635952D01*
X4521286Y-27645476D01*
X4464143Y-27645476D01*
X4445095Y-27635952D01*
X4435571Y-27626428D01*
X4645095Y-27626428D02*
X4654619Y-27635952D01*
X4645095Y-27645476D01*
X4635571Y-27635952D01*
X4645095Y-27626428D01*
X4645095Y-27645476D01*
X4730810Y-27464524D02*
X4740333Y-27455000D01*
X4759381Y-27445476D01*
X4807000Y-27445476D01*
X4826048Y-27455000D01*
X4835571Y-27464524D01*
X4845095Y-27483571D01*
X4845095Y-27502619D01*
X4835571Y-27531190D01*
X4721286Y-27645476D01*
X4845095Y-27645476D01*
X4968905Y-27445476D02*
X4987952Y-27445476D01*
X5007000Y-27455000D01*
X5016524Y-27464524D01*
X5026048Y-27483571D01*
X5035571Y-27521667D01*
X5035571Y-27569286D01*
X5026048Y-27607381D01*
X5016524Y-27626428D01*
X5007000Y-27635952D01*
X4987952Y-27645476D01*
X4968905Y-27645476D01*
X4949857Y-27635952D01*
X4940333Y-27626428D01*
X4930810Y-27607381D01*
X4921286Y-27569286D01*
X4921286Y-27521667D01*
X4930810Y-27483571D01*
X4940333Y-27464524D01*
X4949857Y-27455000D01*
X4968905Y-27445476D01*
X5159381Y-27445476D02*
X5178429Y-27445476D01*
X5197476Y-27455000D01*
X5207000Y-27464524D01*
X5216524Y-27483571D01*
X5226048Y-27521667D01*
X5226048Y-27569286D01*
X5216524Y-27607381D01*
X5207000Y-27626428D01*
X5197476Y-27635952D01*
X5178429Y-27645476D01*
X5159381Y-27645476D01*
X5140333Y-27635952D01*
X5130810Y-27626428D01*
X5121286Y-27607381D01*
X5111762Y-27569286D01*
X5111762Y-27521667D01*
X5121286Y-27483571D01*
X5130810Y-27464524D01*
X5140333Y-27455000D01*
X5159381Y-27445476D01*
X5311762Y-27645476D02*
X5311762Y-27512143D01*
X5311762Y-27531190D02*
X5321286Y-27521667D01*
X5340333Y-27512143D01*
X5368905Y-27512143D01*
X5387952Y-27521667D01*
X5397476Y-27540714D01*
X5397476Y-27645476D01*
X5397476Y-27540714D02*
X5407000Y-27521667D01*
X5426048Y-27512143D01*
X5454619Y-27512143D01*
X5473667Y-27521667D01*
X5483190Y-27540714D01*
X5483190Y-27645476D01*
X5578429Y-27645476D02*
X5578429Y-27512143D01*
X5578429Y-27531190D02*
X5587952Y-27521667D01*
X5607000Y-27512143D01*
X5635571Y-27512143D01*
X5654619Y-27521667D01*
X5664143Y-27540714D01*
X5664143Y-27645476D01*
X5664143Y-27540714D02*
X5673667Y-27521667D01*
X5692714Y-27512143D01*
X5721286Y-27512143D01*
X5740333Y-27521667D01*
X5749857Y-27540714D01*
X5749857Y-27645476D01*
X6140333Y-27435952D02*
X5968905Y-27693095D01*
X6397476Y-27445476D02*
X6416524Y-27445476D01*
X6435571Y-27455000D01*
X6445095Y-27464524D01*
X6454619Y-27483571D01*
X6464143Y-27521667D01*
X6464143Y-27569286D01*
X6454619Y-27607381D01*
X6445095Y-27626428D01*
X6435571Y-27635952D01*
X6416524Y-27645476D01*
X6397476Y-27645476D01*
X6378428Y-27635952D01*
X6368905Y-27626428D01*
X6359381Y-27607381D01*
X6349857Y-27569286D01*
X6349857Y-27521667D01*
X6359381Y-27483571D01*
X6368905Y-27464524D01*
X6378428Y-27455000D01*
X6397476Y-27445476D01*
X6549857Y-27626428D02*
X6559381Y-27635952D01*
X6549857Y-27645476D01*
X6540333Y-27635952D01*
X6549857Y-27626428D01*
X6549857Y-27645476D01*
X6749857Y-27645476D02*
X6635571Y-27645476D01*
X6692714Y-27645476D02*
X6692714Y-27445476D01*
X6673667Y-27474048D01*
X6654619Y-27493095D01*
X6635571Y-27502619D01*
X6826048Y-27464524D02*
X6835571Y-27455000D01*
X6854619Y-27445476D01*
X6902238Y-27445476D01*
X6921286Y-27455000D01*
X6930809Y-27464524D01*
X6940333Y-27483571D01*
X6940333Y-27502619D01*
X6930809Y-27531190D01*
X6816524Y-27645476D01*
X6940333Y-27645476D01*
X7111762Y-27445476D02*
X7073667Y-27445476D01*
X7054619Y-27455000D01*
X7045095Y-27464524D01*
X7026048Y-27493095D01*
X7016524Y-27531190D01*
X7016524Y-27607381D01*
X7026048Y-27626428D01*
X7035571Y-27635952D01*
X7054619Y-27645476D01*
X7092714Y-27645476D01*
X7111762Y-27635952D01*
X7121286Y-27626428D01*
X7130809Y-27607381D01*
X7130809Y-27559762D01*
X7121286Y-27540714D01*
X7111762Y-27531190D01*
X7092714Y-27521667D01*
X7054619Y-27521667D01*
X7035571Y-27531190D01*
X7026048Y-27540714D01*
X7016524Y-27559762D01*
X7254619Y-27445476D02*
X7273667Y-27445476D01*
X7292714Y-27455000D01*
X7302238Y-27464524D01*
X7311762Y-27483571D01*
X7321286Y-27521667D01*
X7321286Y-27569286D01*
X7311762Y-27607381D01*
X7302238Y-27626428D01*
X7292714Y-27635952D01*
X7273667Y-27645476D01*
X7254619Y-27645476D01*
X7235571Y-27635952D01*
X7226048Y-27626428D01*
X7216524Y-27607381D01*
X7207000Y-27569286D01*
X7207000Y-27521667D01*
X7216524Y-27483571D01*
X7226048Y-27464524D01*
X7235571Y-27455000D01*
X7254619Y-27445476D01*
X7397476Y-27445476D02*
X7397476Y-27483571D01*
X7473667Y-27445476D02*
X7473667Y-27483571D01*
X7768905Y-27721667D02*
X7759381Y-27712143D01*
X7740333Y-27683571D01*
X7730809Y-27664524D01*
X7721286Y-27635952D01*
X7711762Y-27588333D01*
X7711762Y-27550238D01*
X7721286Y-27502619D01*
X7730809Y-27474048D01*
X7740333Y-27455000D01*
X7759381Y-27426428D01*
X7768905Y-27416905D01*
X7930809Y-27512143D02*
X7930809Y-27645476D01*
X7883190Y-27435952D02*
X7835571Y-27578809D01*
X7959381Y-27578809D01*
X8187952Y-27645476D02*
X8187952Y-27445476D01*
X8273667Y-27645476D02*
X8273667Y-27540714D01*
X8264143Y-27521667D01*
X8245095Y-27512143D01*
X8216524Y-27512143D01*
X8197476Y-27521667D01*
X8187952Y-27531190D01*
X8397476Y-27645476D02*
X8378428Y-27635952D01*
X8368905Y-27626428D01*
X8359381Y-27607381D01*
X8359381Y-27550238D01*
X8368905Y-27531190D01*
X8378428Y-27521667D01*
X8397476Y-27512143D01*
X8426048Y-27512143D01*
X8445095Y-27521667D01*
X8454619Y-27531190D01*
X8464143Y-27550238D01*
X8464143Y-27607381D01*
X8454619Y-27626428D01*
X8445095Y-27635952D01*
X8426048Y-27645476D01*
X8397476Y-27645476D01*
X8578429Y-27645476D02*
X8559381Y-27635952D01*
X8549857Y-27616905D01*
X8549857Y-27445476D01*
X8730810Y-27635952D02*
X8711762Y-27645476D01*
X8673667Y-27645476D01*
X8654619Y-27635952D01*
X8645095Y-27616905D01*
X8645095Y-27540714D01*
X8654619Y-27521667D01*
X8673667Y-27512143D01*
X8711762Y-27512143D01*
X8730810Y-27521667D01*
X8740333Y-27540714D01*
X8740333Y-27559762D01*
X8645095Y-27578809D01*
X8816524Y-27635952D02*
X8835571Y-27645476D01*
X8873667Y-27645476D01*
X8892714Y-27635952D01*
X8902238Y-27616905D01*
X8902238Y-27607381D01*
X8892714Y-27588333D01*
X8873667Y-27578809D01*
X8845095Y-27578809D01*
X8826048Y-27569286D01*
X8816524Y-27550238D01*
X8816524Y-27540714D01*
X8826048Y-27521667D01*
X8845095Y-27512143D01*
X8873667Y-27512143D01*
X8892714Y-27521667D01*
X8968905Y-27721667D02*
X8978429Y-27712143D01*
X8997476Y-27683571D01*
X9007000Y-27664524D01*
X9016524Y-27635952D01*
X9026048Y-27588333D01*
X9026048Y-27550238D01*
X9016524Y-27502619D01*
X9007000Y-27474048D01*
X8997476Y-27455000D01*
X8978429Y-27426428D01*
X8968905Y-27416905D01*
X9330810Y-27721667D02*
X9321286Y-27712143D01*
X9302238Y-27683571D01*
X9292714Y-27664524D01*
X9283190Y-27635952D01*
X9273667Y-27588333D01*
X9273667Y-27550238D01*
X9283190Y-27502619D01*
X9292714Y-27474048D01*
X9302238Y-27455000D01*
X9321286Y-27426428D01*
X9330810Y-27416905D01*
X9407000Y-27512143D02*
X9407000Y-27645476D01*
X9407000Y-27531190D02*
X9416524Y-27521667D01*
X9435571Y-27512143D01*
X9464143Y-27512143D01*
X9483190Y-27521667D01*
X9492714Y-27540714D01*
X9492714Y-27645476D01*
X9616524Y-27645476D02*
X9597476Y-27635952D01*
X9587952Y-27626428D01*
X9578429Y-27607381D01*
X9578429Y-27550238D01*
X9587952Y-27531190D01*
X9597476Y-27521667D01*
X9616524Y-27512143D01*
X9645095Y-27512143D01*
X9664143Y-27521667D01*
X9673667Y-27531190D01*
X9683190Y-27550238D01*
X9683190Y-27607381D01*
X9673667Y-27626428D01*
X9664143Y-27635952D01*
X9645095Y-27645476D01*
X9616524Y-27645476D01*
X9740333Y-27512143D02*
X9816524Y-27512143D01*
X9768905Y-27445476D02*
X9768905Y-27616905D01*
X9778429Y-27635952D01*
X9797476Y-27645476D01*
X9816524Y-27645476D01*
X10035571Y-27512143D02*
X10035571Y-27712143D01*
X10035571Y-27521667D02*
X10054619Y-27512143D01*
X10092714Y-27512143D01*
X10111762Y-27521667D01*
X10121286Y-27531190D01*
X10130810Y-27550238D01*
X10130810Y-27607381D01*
X10121286Y-27626428D01*
X10111762Y-27635952D01*
X10092714Y-27645476D01*
X10054619Y-27645476D01*
X10035571Y-27635952D01*
X10245095Y-27645476D02*
X10226048Y-27635952D01*
X10216524Y-27616905D01*
X10216524Y-27445476D01*
X10407000Y-27645476D02*
X10407000Y-27540714D01*
X10397476Y-27521667D01*
X10378429Y-27512143D01*
X10340333Y-27512143D01*
X10321286Y-27521667D01*
X10407000Y-27635952D02*
X10387952Y-27645476D01*
X10340333Y-27645476D01*
X10321286Y-27635952D01*
X10311762Y-27616905D01*
X10311762Y-27597857D01*
X10321286Y-27578809D01*
X10340333Y-27569286D01*
X10387952Y-27569286D01*
X10407000Y-27559762D01*
X10473667Y-27512143D02*
X10549857Y-27512143D01*
X10502238Y-27445476D02*
X10502238Y-27616905D01*
X10511762Y-27635952D01*
X10530810Y-27645476D01*
X10549857Y-27645476D01*
X10692714Y-27635952D02*
X10673667Y-27645476D01*
X10635571Y-27645476D01*
X10616524Y-27635952D01*
X10607000Y-27616905D01*
X10607000Y-27540714D01*
X10616524Y-27521667D01*
X10635571Y-27512143D01*
X10673667Y-27512143D01*
X10692714Y-27521667D01*
X10702238Y-27540714D01*
X10702238Y-27559762D01*
X10607000Y-27578809D01*
X10873667Y-27645476D02*
X10873667Y-27445476D01*
X10873667Y-27635952D02*
X10854619Y-27645476D01*
X10816524Y-27645476D01*
X10797476Y-27635952D01*
X10787952Y-27626428D01*
X10778429Y-27607381D01*
X10778429Y-27550238D01*
X10787952Y-27531190D01*
X10797476Y-27521667D01*
X10816524Y-27512143D01*
X10854619Y-27512143D01*
X10873667Y-27521667D01*
X10949857Y-27721667D02*
X10959381Y-27712143D01*
X10978429Y-27683571D01*
X10987952Y-27664524D01*
X10997476Y-27635952D01*
X11007000Y-27588333D01*
X11007000Y-27550238D01*
X10997476Y-27502619D01*
X10987952Y-27474048D01*
X10978429Y-27455000D01*
X10959381Y-27426428D01*
X10949857Y-27416905D01*
M02*
