M48
; DRILL file {KiCad 7.0.2} date Wed 26 Jul 2023 12:09:16 PM CEST
; FORMAT={-:-/ absolute / metric / decimal}
; #@! TF.CreationDate,2023-07-26T12:09:16+02:00
; #@! TF.GenerationSoftware,Kicad,Pcbnew,7.0.2
; #@! TF.FileFunction,Plated,1,6,PTH
FMAT,2
METRIC
; #@! TA.AperFunction,Plated,PTH,ViaDrill
T1C0.200
; #@! TA.AperFunction,Plated,PTH,ViaDrill
T2C0.250
; #@! TA.AperFunction,Plated,PTH,ViaDrill
T3C0.254
; #@! TA.AperFunction,Plated,PTH,ViaDrill
T4C0.300
; #@! TA.AperFunction,Plated,PTH,ViaDrill
T5C0.350
; #@! TA.AperFunction,Plated,PTH,ViaDrill
T6C0.400
; #@! TA.AperFunction,Plated,PTH,ViaDrill
T7C0.500
; #@! TA.AperFunction,Plated,PTH,ComponentDrill
T8C0.500
; #@! TA.AperFunction,Plated,PTH,ViaDrill
T9C0.600
; #@! TA.AperFunction,Plated,PTH,ComponentDrill
T10C1.000
; #@! TA.AperFunction,Plated,PTH,ComponentDrill
T11C1.016
; #@! TA.AperFunction,Plated,PTH,ComponentDrill
T12C1.300
; #@! TA.AperFunction,Plated,PTH,ComponentDrill
T13C3.200
%
G90
G05
T1
X52.52Y-36.22
X52.52Y-38.84
X52.52Y-41.37
X52.52Y-43.92
X52.52Y-96.02
X52.52Y-98.64
X52.52Y-101.17
X52.52Y-103.72
X52.52Y-155.82
X52.52Y-158.44
X52.52Y-160.97
X52.52Y-163.52
X52.52Y-215.62
X52.52Y-218.24
X52.52Y-220.77
X52.52Y-223.32
X52.53Y-46.41
X52.53Y-48.96
X52.53Y-57.77
X52.53Y-60.3
X52.53Y-106.21
X52.53Y-108.76
X52.53Y-117.57
X52.53Y-120.1
X52.53Y-166.01
X52.53Y-168.56
X52.53Y-177.37
X52.53Y-179.9
X52.53Y-225.81
X52.53Y-228.36
X52.53Y-237.17
X52.53Y-239.7
X52.54Y-62.79
X52.54Y-65.43
X52.54Y-122.59
X52.54Y-125.23
X52.54Y-182.39
X52.54Y-185.03
X52.54Y-242.19
X52.54Y-244.83
X52.55Y-67.94
X52.55Y-127.74
X52.55Y-187.54
X52.55Y-247.34
X52.56Y-73.37
X52.56Y-133.17
X52.56Y-192.97
X52.56Y-252.77
X52.57Y-70.42
X52.57Y-130.22
X52.57Y-190.02
X52.57Y-249.82
X55.71Y-53.446
X55.71Y-113.246
X55.71Y-173.046
X55.71Y-232.846
X55.925Y-46.542
X55.925Y-106.342
X55.925Y-166.142
X55.925Y-225.942
X56.091Y-54.208
X56.091Y-114.008
X56.091Y-173.808
X56.091Y-233.608
X56.32Y-42.9
X56.32Y-102.7
X56.32Y-162.5
X56.32Y-222.3
X56.345Y-40.619
X56.345Y-43.54
X56.345Y-100.419
X56.345Y-103.34
X56.345Y-160.219
X56.345Y-163.14
X56.345Y-220.019
X56.345Y-222.94
X56.37Y-67.624
X56.37Y-70.418
X56.37Y-127.424
X56.37Y-130.218
X56.37Y-187.224
X56.37Y-190.018
X56.37Y-247.024
X56.37Y-249.818
X58.021Y-70.418
X58.021Y-130.218
X58.021Y-190.018
X58.021Y-249.818
X58.025Y-44.63
X58.025Y-104.43
X58.025Y-164.23
X58.025Y-224.03
X59.2Y-56.08
X59.2Y-115.88
X59.2Y-175.68
X59.2Y-235.48
X59.43Y-53.7
X59.43Y-113.5
X59.43Y-173.3
X59.43Y-233.1
X59.75Y-42.805
X59.75Y-102.605
X59.75Y-162.405
X59.75Y-222.205
X60.0Y-57.48
X60.0Y-117.28
X60.0Y-177.08
X60.0Y-236.88
X60.9Y-71.38
X60.9Y-131.18
X60.9Y-190.98
X60.9Y-250.78
X61.196Y-67.624
X61.196Y-127.424
X61.196Y-187.224
X61.196Y-247.024
X61.262Y-70.747
X61.262Y-130.547
X61.262Y-190.347
X61.262Y-250.147
X61.4Y-42.93
X61.4Y-57.58
X61.4Y-102.73
X61.4Y-117.38
X61.4Y-162.53
X61.4Y-177.18
X61.4Y-222.33
X61.4Y-236.98
X61.527Y-69.816
X61.527Y-129.616
X61.527Y-189.416
X61.527Y-249.216
X61.65Y-44.355
X61.65Y-104.155
X61.65Y-163.955
X61.65Y-223.755
X62.117Y-71.603
X62.117Y-131.403
X62.117Y-191.203
X62.117Y-251.003
X62.42Y-66.6
X62.42Y-126.4
X62.42Y-186.2
X62.42Y-246.0
X62.545Y-68.075
X62.545Y-127.875
X62.545Y-187.675
X62.545Y-247.475
X62.7Y-49.78
X62.7Y-109.58
X62.7Y-169.38
X62.7Y-229.18
X62.9Y-57.48
X62.9Y-117.28
X62.9Y-177.08
X62.9Y-236.88
X63.05Y-42.88
X63.05Y-102.68
X63.05Y-162.48
X63.05Y-222.28
X63.15Y-44.03
X63.15Y-103.83
X63.15Y-163.63
X63.15Y-223.43
X63.482Y-43.494
X63.482Y-103.294
X63.482Y-163.094
X63.482Y-222.894
X65.25Y-43.655
X65.25Y-103.455
X65.25Y-163.255
X65.25Y-223.055
X65.3Y-49.78
X65.3Y-109.58
X65.3Y-169.38
X65.3Y-229.18
X65.375Y-42.725
X65.375Y-102.525
X65.375Y-162.325
X65.375Y-222.125
X65.713Y-44.693
X65.713Y-104.493
X65.713Y-164.293
X65.713Y-224.093
X65.987Y-65.367
X65.987Y-125.167
X65.987Y-184.967
X65.987Y-244.767
X66.0Y-69.98
X66.0Y-129.78
X66.0Y-189.58
X66.0Y-249.38
X66.41Y-34.29
X66.41Y-94.09
X66.41Y-153.89
X66.41Y-213.69
X67.02Y-58.77
X67.02Y-118.57
X67.02Y-178.37
X67.02Y-238.17
X67.32Y-40.0
X67.32Y-99.8
X67.32Y-159.6
X67.32Y-219.4
X67.42Y-37.8
X67.42Y-97.6
X67.42Y-157.4
X67.42Y-217.2
X67.52Y-34.3
X67.52Y-94.1
X67.52Y-153.9
X67.52Y-213.7
X67.6Y-67.58
X67.6Y-127.38
X67.6Y-187.18
X67.6Y-246.98
X67.8Y-42.98
X67.8Y-102.78
X67.8Y-162.58
X67.8Y-222.38
X67.805Y-49.087
X67.805Y-108.887
X67.805Y-168.688
X67.805Y-228.487
X68.075Y-44.905
X68.075Y-104.705
X68.075Y-164.505
X68.075Y-224.305
X68.4Y-66.38
X68.4Y-126.18
X68.4Y-185.98
X68.4Y-245.78
X68.72Y-34.3
X68.72Y-94.1
X68.72Y-153.9
X68.72Y-213.7
X68.92Y-37.8
X68.92Y-97.6
X68.92Y-157.4
X68.92Y-217.2
X69.051Y-66.157
X69.051Y-125.957
X69.051Y-185.757
X69.051Y-245.557
X69.12Y-40.1
X69.12Y-99.9
X69.12Y-159.7
X69.12Y-219.5
X69.283Y-65.663
X69.283Y-125.463
X69.283Y-185.263
X69.283Y-245.063
X69.962Y-65.342
X69.962Y-125.142
X69.962Y-184.942
X69.962Y-244.742
X70.721Y-40.954
X70.721Y-100.754
X70.721Y-160.554
X70.721Y-220.354
X70.82Y-38.2
X70.82Y-98.0
X70.82Y-157.8
X70.82Y-217.6
X71.165Y-64.957
X71.165Y-124.757
X71.165Y-184.557
X71.165Y-244.357
X71.53Y-73.14
X71.53Y-132.94
X71.53Y-192.74
X71.53Y-252.54
X71.75Y-44.48
X71.75Y-104.28
X71.75Y-164.08
X71.75Y-223.88
X71.92Y-37.8
X71.92Y-97.6
X71.92Y-157.4
X71.92Y-217.2
X72.189Y-52.696
X72.189Y-112.496
X72.189Y-172.296
X72.189Y-232.096
X72.359Y-64.957
X72.359Y-124.757
X72.359Y-184.557
X72.359Y-244.357
X72.68Y-73.18
X72.68Y-132.98
X72.68Y-192.78
X72.68Y-252.58
X72.88Y-44.256
X72.88Y-104.056
X72.88Y-163.856
X72.88Y-223.656
X73.275Y-44.88
X73.275Y-104.68
X73.275Y-164.48
X73.275Y-224.28
X73.79Y-61.82
X73.79Y-121.62
X73.79Y-181.42
X73.79Y-241.22
X73.84Y-73.17
X73.84Y-132.97
X73.84Y-192.77
X73.84Y-252.57
X74.85Y-63.28
X74.85Y-123.08
X74.85Y-182.88
X74.85Y-242.68
X75.6Y-59.98
X75.6Y-119.78
X75.6Y-179.58
X75.6Y-239.38
X75.88Y-64.4
X75.88Y-124.2
X75.88Y-184.0
X75.88Y-243.8
X75.887Y-55.467
X75.887Y-115.267
X75.887Y-175.067
X75.887Y-234.867
X75.928Y-33.588
X75.928Y-93.388
X75.928Y-153.188
X75.928Y-212.988
X76.175Y-43.78
X76.175Y-103.58
X76.175Y-163.38
X76.175Y-223.18
X76.7Y-44.48
X76.7Y-104.28
X76.7Y-164.08
X76.7Y-223.88
X76.714Y-60.552
X76.714Y-120.352
X76.714Y-180.152
X76.714Y-239.952
X77.822Y-61.495
X77.822Y-121.295
X77.822Y-181.095
X77.822Y-240.895
X77.91Y-62.196
X77.91Y-121.996
X77.91Y-181.796
X77.91Y-241.596
X78.214Y-43.24
X78.214Y-103.04
X78.214Y-162.84
X78.214Y-222.64
X78.277Y-58.194
X78.277Y-117.994
X78.277Y-177.794
X78.277Y-237.594
X78.6Y-40.58
X78.6Y-100.38
X78.6Y-160.18
X78.6Y-219.98
X78.846Y-33.112
X78.846Y-92.912
X78.846Y-152.712
X78.846Y-212.512
X78.851Y-56.741
X78.851Y-116.541
X78.851Y-176.341
X78.851Y-236.141
X79.0Y-41.38
X79.0Y-101.18
X79.0Y-160.98
X79.0Y-220.78
X79.02Y-70.926
X79.02Y-130.726
X79.02Y-190.526
X79.02Y-250.326
X79.038Y-63.458
X79.038Y-123.258
X79.038Y-183.058
X79.038Y-242.858
X79.313Y-66.176
X79.313Y-125.976
X79.313Y-185.776
X79.313Y-245.576
X79.722Y-72.546
X79.722Y-132.346
X79.722Y-192.147
X79.722Y-251.946
X79.8Y-68.58
X79.8Y-128.38
X79.8Y-188.18
X79.8Y-247.98
X80.122Y-73.788
X80.122Y-133.588
X80.122Y-193.388
X80.122Y-253.188
X80.32Y-75.7
X80.32Y-135.5
X80.32Y-195.3
X80.32Y-255.1
X80.503Y-53.911
X80.503Y-113.711
X80.503Y-173.511
X80.503Y-233.311
X80.6Y-74.78
X80.6Y-134.58
X80.6Y-194.38
X80.6Y-254.18
X80.8Y-61.58
X80.8Y-62.88
X80.8Y-66.737
X80.8Y-121.38
X80.8Y-122.68
X80.8Y-126.537
X80.8Y-181.18
X80.8Y-182.48
X80.8Y-186.337
X80.8Y-240.98
X80.8Y-242.28
X80.8Y-246.137
X80.924Y-55.981
X80.924Y-115.781
X80.924Y-175.581
X80.924Y-235.381
X81.683Y-57.328
X81.683Y-117.128
X81.683Y-176.928
X81.683Y-236.728
X82.151Y-32.064
X82.151Y-91.864
X82.151Y-151.664
X82.151Y-211.464
X83.14Y-53.747
X83.14Y-113.547
X83.14Y-173.347
X83.14Y-233.147
X83.42Y-49.895
X83.42Y-109.695
X83.42Y-169.495
X83.42Y-229.295
X83.49Y-55.134
X83.49Y-114.934
X83.49Y-174.734
X83.49Y-234.534
X83.566Y-50.759
X83.566Y-110.559
X83.566Y-170.359
X83.566Y-230.159
X84.063Y-55.159
X84.063Y-114.959
X84.063Y-174.759
X84.063Y-234.559
X84.1Y-77.08
X84.1Y-136.88
X84.1Y-196.68
X84.1Y-256.48
X84.112Y-69.768
X84.112Y-129.568
X84.112Y-189.368
X84.112Y-249.168
X84.3Y-72.08
X84.3Y-131.88
X84.3Y-191.68
X84.3Y-251.48
X84.31Y-46.986
X84.31Y-106.786
X84.31Y-166.587
X84.31Y-226.386
X84.355Y-50.18
X84.355Y-109.98
X84.355Y-169.78
X84.355Y-229.58
X84.5Y-52.762
X84.5Y-112.562
X84.5Y-172.362
X84.5Y-232.162
X84.731Y-56.721
X84.731Y-116.521
X84.731Y-176.321
X84.731Y-236.121
X84.754Y-46.669
X84.754Y-106.469
X84.754Y-166.269
X84.754Y-226.069
X84.8Y-68.573
X84.8Y-128.373
X84.8Y-188.173
X84.8Y-247.973
X84.837Y-50.856
X84.837Y-110.656
X84.837Y-170.456
X84.837Y-230.256
X84.875Y-49.453
X84.875Y-109.253
X84.875Y-169.053
X84.875Y-228.853
X84.949Y-55.149
X84.949Y-114.949
X84.949Y-174.749
X84.949Y-234.549
X84.951Y-56.221
X84.951Y-116.021
X84.951Y-175.821
X84.951Y-235.621
X84.955Y-52.435
X84.955Y-112.235
X84.955Y-172.035
X84.955Y-231.835
X85.043Y-69.753
X85.043Y-129.553
X85.043Y-189.353
X85.043Y-249.153
X85.187Y-60.432
X85.187Y-120.232
X85.187Y-180.032
X85.187Y-239.832
X85.333Y-58.808
X85.333Y-118.608
X85.333Y-178.408
X85.333Y-238.208
X85.42Y-43.806
X85.42Y-103.606
X85.42Y-163.406
X85.42Y-223.206
X85.428Y-46.986
X85.428Y-106.786
X85.428Y-166.587
X85.428Y-226.386
X85.467Y-73.248
X85.467Y-133.048
X85.467Y-192.848
X85.467Y-252.648
X85.5Y-75.38
X85.5Y-135.18
X85.5Y-194.98
X85.5Y-254.78
X85.505Y-50.366
X85.505Y-110.166
X85.505Y-169.966
X85.505Y-229.766
X85.644Y-49.419
X85.644Y-109.219
X85.644Y-169.019
X85.644Y-228.819
X85.693Y-56.629
X85.693Y-116.429
X85.693Y-176.229
X85.693Y-236.029
X85.742Y-72.401
X85.742Y-132.201
X85.742Y-192.001
X85.742Y-251.801
X85.807Y-60.97
X85.807Y-120.77
X85.807Y-180.57
X85.807Y-240.37
X85.811Y-59.885
X85.811Y-119.685
X85.811Y-179.485
X85.811Y-239.285
X85.843Y-58.576
X85.843Y-118.376
X85.843Y-178.176
X85.843Y-237.976
X85.867Y-46.624
X85.867Y-106.424
X85.867Y-166.224
X85.867Y-226.024
X86.132Y-55.112
X86.132Y-114.912
X86.132Y-174.712
X86.132Y-234.512
X86.215Y-47.558
X86.215Y-107.358
X86.215Y-167.158
X86.215Y-226.958
X86.229Y-58.19
X86.229Y-117.99
X86.229Y-177.79
X86.229Y-237.59
X86.248Y-59.431
X86.248Y-119.231
X86.248Y-179.031
X86.248Y-238.831
X86.254Y-50.434
X86.254Y-110.234
X86.254Y-170.034
X86.254Y-229.834
X86.259Y-61.993
X86.259Y-121.793
X86.259Y-181.593
X86.259Y-241.393
X86.357Y-33.86
X86.357Y-93.66
X86.357Y-153.46
X86.357Y-213.26
X86.4Y-44.78
X86.4Y-104.58
X86.4Y-164.38
X86.4Y-224.18
X86.6Y-44.206
X86.6Y-104.006
X86.6Y-163.806
X86.6Y-223.606
X86.908Y-61.706
X86.908Y-121.506
X86.908Y-181.306
X86.908Y-241.106
X87.181Y-44.467
X87.181Y-104.267
X87.181Y-164.067
X87.181Y-223.867
X87.2Y-47.208
X87.2Y-52.78
X87.2Y-107.008
X87.2Y-112.58
X87.2Y-166.808
X87.2Y-172.38
X87.2Y-226.608
X87.2Y-232.18
X87.203Y-55.983
X87.203Y-115.783
X87.203Y-175.583
X87.203Y-235.383
X87.214Y-46.408
X87.214Y-106.208
X87.214Y-166.008
X87.214Y-225.808
X87.345Y-61.371
X87.345Y-121.171
X87.345Y-180.971
X87.345Y-240.771
X87.35Y-68.58
X87.35Y-128.38
X87.35Y-188.18
X87.35Y-247.98
X87.419Y-62.715
X87.419Y-122.515
X87.419Y-182.315
X87.419Y-242.115
X87.582Y-45.608
X87.582Y-105.408
X87.582Y-165.208
X87.582Y-225.008
X87.6Y-44.98
X87.6Y-104.78
X87.6Y-164.58
X87.6Y-224.38
X87.8Y-69.98
X87.8Y-129.78
X87.8Y-189.58
X87.8Y-249.38
X87.8Y-44.38
X87.8Y-76.63
X87.8Y-104.18
X87.8Y-136.43
X87.8Y-163.98
X87.8Y-196.23
X87.8Y-223.78
X87.8Y-256.03
X87.997Y-57.582
X87.997Y-117.382
X87.997Y-177.182
X87.997Y-236.982
X88.0Y-52.78
X88.0Y-112.58
X88.0Y-172.38
X88.0Y-232.18
X88.0Y-47.98
X88.0Y-48.78
X88.0Y-49.58
X88.0Y-50.38
X88.0Y-51.18
X88.0Y-51.98
X88.0Y-53.58
X88.0Y-55.983
X88.0Y-56.78
X88.0Y-59.18
X88.0Y-59.98
X88.0Y-60.78
X88.0Y-107.78
X88.0Y-108.58
X88.0Y-109.38
X88.0Y-110.18
X88.0Y-110.98
X88.0Y-111.78
X88.0Y-113.38
X88.0Y-115.783
X88.0Y-116.58
X88.0Y-118.98
X88.0Y-119.78
X88.0Y-120.58
X88.0Y-167.58
X88.0Y-168.38
X88.0Y-169.18
X88.0Y-169.98
X88.0Y-170.78
X88.0Y-171.58
X88.0Y-173.18
X88.0Y-175.583
X88.0Y-176.38
X88.0Y-178.78
X88.0Y-179.58
X88.0Y-180.38
X88.0Y-227.38
X88.0Y-228.18
X88.0Y-228.98
X88.0Y-229.78
X88.0Y-230.58
X88.0Y-231.38
X88.0Y-232.98
X88.0Y-235.383
X88.0Y-236.18
X88.0Y-238.58
X88.0Y-239.38
X88.0Y-240.18
X88.003Y-55.183
X88.003Y-114.983
X88.003Y-174.783
X88.003Y-234.583
X88.179Y-62.767
X88.179Y-122.567
X88.179Y-182.367
X88.179Y-242.167
X88.25Y-76.18
X88.25Y-135.98
X88.25Y-195.78
X88.25Y-255.58
X88.27Y-73.53
X88.27Y-133.33
X88.27Y-193.13
X88.27Y-252.93
X88.4Y-44.894
X88.4Y-104.694
X88.4Y-164.494
X88.4Y-224.294
X88.415Y-43.055
X88.415Y-102.855
X88.415Y-162.655
X88.415Y-222.455
X88.419Y-43.669
X88.419Y-103.469
X88.419Y-163.269
X88.419Y-223.069
X88.476Y-30.84
X88.476Y-90.64
X88.476Y-150.44
X88.476Y-210.24
X88.6Y-69.176
X88.6Y-128.976
X88.6Y-188.776
X88.6Y-248.576
X88.603Y-33.253
X88.603Y-93.053
X88.603Y-152.853
X88.603Y-212.653
X88.716Y-63.166
X88.716Y-122.966
X88.716Y-182.766
X88.716Y-242.566
X88.75Y-76.68
X88.75Y-136.48
X88.75Y-196.28
X88.75Y-256.08
X88.793Y-47.98
X88.793Y-107.78
X88.793Y-167.58
X88.793Y-227.38
X88.8Y-48.78
X88.8Y-49.58
X88.8Y-50.38
X88.8Y-51.18
X88.8Y-51.98
X88.8Y-55.18
X88.8Y-55.98
X88.8Y-56.78
X88.8Y-57.58
X88.8Y-58.38
X88.8Y-59.18
X88.8Y-59.98
X88.8Y-60.78
X88.8Y-108.58
X88.8Y-109.38
X88.8Y-110.18
X88.8Y-110.98
X88.8Y-111.78
X88.8Y-114.98
X88.8Y-115.78
X88.8Y-116.58
X88.8Y-117.38
X88.8Y-118.18
X88.8Y-118.98
X88.8Y-119.78
X88.8Y-120.58
X88.8Y-168.38
X88.8Y-169.18
X88.8Y-169.98
X88.8Y-170.78
X88.8Y-171.58
X88.8Y-174.78
X88.8Y-175.58
X88.8Y-176.38
X88.8Y-177.18
X88.8Y-177.98
X88.8Y-178.78
X88.8Y-179.58
X88.8Y-180.38
X88.8Y-228.18
X88.8Y-228.98
X88.8Y-229.78
X88.8Y-230.58
X88.8Y-231.38
X88.8Y-234.58
X88.8Y-235.38
X88.8Y-236.18
X88.8Y-236.98
X88.8Y-237.78
X88.8Y-238.58
X88.8Y-239.38
X88.8Y-240.18
X88.805Y-53.58
X88.805Y-113.38
X88.805Y-173.18
X88.805Y-232.98
X88.82Y-72.92
X88.82Y-132.72
X88.82Y-192.52
X88.82Y-252.32
X89.101Y-62.334
X89.101Y-122.134
X89.101Y-181.934
X89.101Y-241.734
X89.23Y-73.5
X89.23Y-133.3
X89.23Y-193.1
X89.23Y-252.9
X89.255Y-76.175
X89.255Y-135.975
X89.255Y-195.775
X89.255Y-255.575
X89.368Y-69.38
X89.368Y-129.18
X89.368Y-188.98
X89.368Y-248.78
X89.57Y-61.58
X89.57Y-121.38
X89.57Y-181.18
X89.57Y-240.98
X89.593Y-47.98
X89.593Y-107.78
X89.593Y-167.58
X89.593Y-227.38
X89.595Y-53.58
X89.595Y-113.38
X89.595Y-173.18
X89.595Y-232.98
X89.6Y-48.78
X89.6Y-49.58
X89.6Y-50.38
X89.6Y-51.18
X89.6Y-51.98
X89.6Y-54.38
X89.6Y-55.18
X89.6Y-56.78
X89.6Y-58.38
X89.6Y-59.18
X89.6Y-59.98
X89.6Y-108.58
X89.6Y-109.38
X89.6Y-110.18
X89.6Y-110.98
X89.6Y-111.78
X89.6Y-114.18
X89.6Y-114.98
X89.6Y-116.58
X89.6Y-118.18
X89.6Y-118.98
X89.6Y-119.78
X89.6Y-168.38
X89.6Y-169.18
X89.6Y-169.98
X89.6Y-170.78
X89.6Y-171.58
X89.6Y-173.98
X89.6Y-174.78
X89.6Y-176.38
X89.6Y-177.98
X89.6Y-178.78
X89.6Y-179.58
X89.6Y-228.18
X89.6Y-228.98
X89.6Y-229.78
X89.6Y-230.58
X89.6Y-231.38
X89.6Y-233.78
X89.6Y-234.58
X89.6Y-236.18
X89.6Y-237.78
X89.6Y-238.58
X89.6Y-239.38
X89.932Y-62.642
X89.932Y-122.442
X89.932Y-182.242
X89.932Y-242.042
X90.204Y-44.035
X90.204Y-103.835
X90.204Y-163.635
X90.204Y-223.435
X90.276Y-43.32
X90.276Y-103.12
X90.276Y-162.92
X90.276Y-222.72
X90.33Y-61.49
X90.33Y-121.29
X90.33Y-181.09
X90.33Y-240.89
X90.393Y-47.98
X90.393Y-107.78
X90.393Y-167.58
X90.393Y-227.38
X90.4Y-60.78
X90.4Y-120.58
X90.4Y-180.38
X90.4Y-240.18
X90.4Y-48.78
X90.4Y-49.58
X90.4Y-50.38
X90.4Y-57.58
X90.4Y-108.58
X90.4Y-109.38
X90.4Y-110.18
X90.4Y-117.38
X90.4Y-168.38
X90.4Y-169.18
X90.4Y-169.98
X90.4Y-177.18
X90.4Y-228.18
X90.4Y-228.98
X90.4Y-229.78
X90.4Y-236.98
X90.454Y-54.39
X90.454Y-114.19
X90.454Y-173.99
X90.454Y-233.79
X90.6Y-74.93
X90.6Y-134.73
X90.6Y-194.53
X90.6Y-254.33
X90.63Y-65.78
X90.63Y-125.58
X90.63Y-185.38
X90.63Y-245.18
X90.71Y-68.93
X90.71Y-128.73
X90.71Y-188.53
X90.71Y-248.33
X90.991Y-45.178
X90.991Y-104.978
X90.991Y-164.778
X90.991Y-224.578
X91.016Y-30.84
X91.016Y-90.64
X91.016Y-150.44
X91.016Y-210.24
X91.049Y-44.596
X91.049Y-104.396
X91.049Y-164.196
X91.049Y-223.996
X91.17Y-65.93
X91.17Y-125.73
X91.17Y-185.53
X91.17Y-245.33
X91.193Y-47.98
X91.193Y-107.78
X91.193Y-167.58
X91.193Y-227.38
X91.2Y-60.78
X91.2Y-120.58
X91.2Y-180.38
X91.2Y-240.18
X91.2Y-47.18
X91.2Y-48.78
X91.2Y-49.58
X91.2Y-51.18
X91.2Y-51.98
X91.2Y-52.78
X91.2Y-53.58
X91.2Y-71.48
X91.2Y-106.98
X91.2Y-108.58
X91.2Y-109.38
X91.2Y-110.98
X91.2Y-111.78
X91.2Y-112.58
X91.2Y-113.38
X91.2Y-131.28
X91.2Y-166.78
X91.2Y-168.38
X91.2Y-169.18
X91.2Y-170.78
X91.2Y-171.58
X91.2Y-172.38
X91.2Y-173.18
X91.2Y-191.08
X91.2Y-226.58
X91.2Y-228.18
X91.2Y-228.98
X91.2Y-230.58
X91.2Y-231.38
X91.2Y-232.18
X91.2Y-232.98
X91.2Y-250.88
X91.244Y-55.936
X91.244Y-115.736
X91.244Y-175.536
X91.244Y-235.336
X91.29Y-63.04
X91.29Y-122.84
X91.29Y-182.64
X91.29Y-242.44
X91.402Y-43.31
X91.402Y-103.11
X91.402Y-162.91
X91.402Y-222.71
X91.428Y-62.512
X91.428Y-122.312
X91.428Y-182.112
X91.428Y-241.912
X91.556Y-43.834
X91.556Y-103.634
X91.556Y-163.434
X91.556Y-223.234
X91.604Y-44.634
X91.604Y-104.434
X91.604Y-164.234
X91.604Y-224.034
X91.65Y-74.18
X91.65Y-133.98
X91.65Y-193.78
X91.65Y-253.58
X91.7Y-72.68
X91.7Y-132.48
X91.7Y-192.28
X91.7Y-252.08
X91.75Y-69.43
X91.75Y-129.23
X91.75Y-189.03
X91.75Y-248.83
X91.9Y-77.08
X91.9Y-136.88
X91.9Y-196.68
X91.9Y-256.48
X91.975Y-34.33
X91.975Y-94.13
X91.975Y-153.93
X91.975Y-213.73
X91.993Y-47.98
X91.993Y-107.78
X91.993Y-167.58
X91.993Y-227.38
X92.0Y-48.78
X92.0Y-49.58
X92.0Y-51.18
X92.0Y-54.38
X92.0Y-59.18
X92.0Y-59.98
X92.0Y-73.68
X92.0Y-108.58
X92.0Y-109.38
X92.0Y-110.98
X92.0Y-114.18
X92.0Y-118.98
X92.0Y-119.78
X92.0Y-133.48
X92.0Y-168.38
X92.0Y-169.18
X92.0Y-170.78
X92.0Y-173.98
X92.0Y-178.78
X92.0Y-179.58
X92.0Y-193.28
X92.0Y-228.18
X92.0Y-228.98
X92.0Y-230.58
X92.0Y-233.78
X92.0Y-238.58
X92.0Y-239.38
X92.0Y-253.08
X92.128Y-43.999
X92.128Y-103.799
X92.128Y-163.599
X92.128Y-223.399
X92.161Y-62.486
X92.161Y-122.286
X92.161Y-182.086
X92.161Y-241.886
X92.745Y-42.077
X92.745Y-101.877
X92.745Y-161.677
X92.745Y-221.477
X92.8Y-49.58
X92.8Y-51.18
X92.8Y-52.78
X92.8Y-55.98
X92.8Y-59.18
X92.8Y-59.98
X92.8Y-109.38
X92.8Y-110.98
X92.8Y-112.58
X92.8Y-115.78
X92.8Y-118.98
X92.8Y-119.78
X92.8Y-169.18
X92.8Y-170.78
X92.8Y-172.38
X92.8Y-175.58
X92.8Y-178.78
X92.8Y-179.58
X92.8Y-228.98
X92.8Y-230.58
X92.8Y-232.18
X92.8Y-235.38
X92.8Y-238.58
X92.8Y-239.38
X92.847Y-44.468
X92.847Y-104.268
X92.847Y-164.068
X92.847Y-223.868
X92.928Y-43.864
X92.928Y-103.664
X92.928Y-163.464
X92.928Y-223.264
X92.95Y-62.21
X92.95Y-122.01
X92.95Y-181.81
X92.95Y-241.611
X92.982Y-63.018
X92.982Y-122.818
X92.982Y-182.618
X92.982Y-242.418
X93.094Y-43.205
X93.094Y-103.005
X93.094Y-162.805
X93.094Y-222.605
X93.236Y-57.816
X93.236Y-117.616
X93.236Y-177.416
X93.236Y-237.216
X93.448Y-41.532
X93.448Y-101.332
X93.448Y-161.132
X93.448Y-220.932
X93.6Y-47.98
X93.6Y-51.18
X93.6Y-55.18
X93.6Y-55.98
X93.6Y-59.98
X93.6Y-107.78
X93.6Y-110.98
X93.6Y-114.98
X93.6Y-115.78
X93.6Y-119.78
X93.6Y-167.58
X93.6Y-170.78
X93.6Y-174.78
X93.6Y-175.58
X93.6Y-179.58
X93.6Y-227.38
X93.6Y-230.58
X93.6Y-234.58
X93.6Y-235.38
X93.6Y-239.38
X93.83Y-61.83
X93.83Y-121.63
X93.83Y-181.43
X93.83Y-241.23
X93.921Y-62.466
X93.921Y-122.266
X93.921Y-182.066
X93.921Y-241.866
X94.302Y-44.143
X94.302Y-103.943
X94.302Y-163.743
X94.302Y-223.543
X94.4Y-46.33
X94.4Y-55.18
X94.4Y-55.98
X94.4Y-106.13
X94.4Y-114.98
X94.4Y-115.78
X94.4Y-165.93
X94.4Y-174.78
X94.4Y-175.58
X94.4Y-225.73
X94.4Y-234.58
X94.4Y-235.38
X94.648Y-44.86
X94.648Y-104.66
X94.648Y-164.46
X94.648Y-224.26
X94.9Y-68.38
X94.9Y-69.28
X94.9Y-128.18
X94.9Y-129.08
X94.9Y-187.98
X94.9Y-188.88
X94.9Y-247.78
X94.9Y-248.68
X94.966Y-45.495
X94.966Y-105.295
X94.966Y-165.095
X94.966Y-224.895
X94.97Y-74.52
X94.97Y-134.32
X94.97Y-194.12
X94.97Y-253.92
X95.12Y-32.717
X95.12Y-92.517
X95.12Y-152.317
X95.12Y-212.117
X95.2Y-47.98
X95.2Y-51.18
X95.2Y-55.18
X95.2Y-55.98
X95.2Y-59.98
X95.2Y-61.58
X95.2Y-107.78
X95.2Y-110.98
X95.2Y-114.98
X95.2Y-115.78
X95.2Y-119.78
X95.2Y-121.38
X95.2Y-167.58
X95.2Y-170.78
X95.2Y-174.78
X95.2Y-175.58
X95.2Y-179.58
X95.2Y-181.18
X95.2Y-227.38
X95.2Y-230.58
X95.2Y-234.58
X95.2Y-235.38
X95.2Y-239.38
X95.2Y-240.98
X95.474Y-46.003
X95.474Y-105.803
X95.474Y-165.603
X95.474Y-225.403
X95.896Y-42.351
X95.896Y-102.151
X95.896Y-161.951
X95.896Y-221.751
X95.98Y-49.6
X95.98Y-109.4
X95.98Y-169.2
X95.98Y-229.0
X96.0Y-47.98
X96.0Y-48.78
X96.0Y-51.18
X96.0Y-52.78
X96.0Y-55.98
X96.0Y-59.18
X96.0Y-59.98
X96.0Y-61.58
X96.0Y-107.78
X96.0Y-108.58
X96.0Y-110.98
X96.0Y-112.58
X96.0Y-115.78
X96.0Y-118.98
X96.0Y-119.78
X96.0Y-121.38
X96.0Y-167.58
X96.0Y-168.38
X96.0Y-170.78
X96.0Y-172.38
X96.0Y-175.58
X96.0Y-178.78
X96.0Y-179.58
X96.0Y-181.18
X96.0Y-227.38
X96.0Y-228.18
X96.0Y-230.58
X96.0Y-232.18
X96.0Y-235.38
X96.0Y-238.58
X96.0Y-239.38
X96.0Y-240.98
X96.566Y-42.351
X96.566Y-102.151
X96.566Y-161.951
X96.566Y-221.751
X96.8Y-47.98
X96.8Y-48.78
X96.8Y-49.58
X96.8Y-51.18
X96.8Y-54.38
X96.8Y-57.98
X96.8Y-59.18
X96.8Y-59.98
X96.8Y-107.78
X96.8Y-108.58
X96.8Y-109.38
X96.8Y-110.98
X96.8Y-114.18
X96.8Y-117.78
X96.8Y-118.98
X96.8Y-119.78
X96.8Y-167.58
X96.8Y-168.38
X96.8Y-169.18
X96.8Y-170.78
X96.8Y-173.98
X96.8Y-177.58
X96.8Y-178.78
X96.8Y-179.58
X96.8Y-227.38
X96.8Y-228.18
X96.8Y-228.98
X96.8Y-230.58
X96.8Y-233.78
X96.8Y-237.38
X96.8Y-238.58
X96.8Y-239.38
X97.1Y-74.99
X97.1Y-134.79
X97.1Y-194.59
X97.1Y-254.39
X97.264Y-42.351
X97.264Y-102.151
X97.264Y-161.951
X97.264Y-221.751
X97.269Y-35.525
X97.269Y-95.325
X97.269Y-155.125
X97.269Y-214.925
X97.36Y-72.61
X97.36Y-132.41
X97.36Y-192.21
X97.36Y-252.01
X97.379Y-44.543
X97.379Y-104.343
X97.379Y-164.143
X97.379Y-223.943
X97.5Y-68.38
X97.5Y-69.38
X97.5Y-128.18
X97.5Y-129.18
X97.5Y-187.98
X97.5Y-188.98
X97.5Y-247.78
X97.5Y-248.78
X97.56Y-57.687
X97.56Y-117.487
X97.56Y-177.287
X97.56Y-237.087
X97.6Y-48.78
X97.6Y-49.58
X97.6Y-51.18
X97.6Y-51.98
X97.6Y-52.78
X97.6Y-53.58
X97.6Y-55.98
X97.6Y-108.58
X97.6Y-109.38
X97.6Y-110.98
X97.6Y-111.78
X97.6Y-112.58
X97.6Y-113.38
X97.6Y-115.78
X97.6Y-168.38
X97.6Y-169.18
X97.6Y-170.78
X97.6Y-171.58
X97.6Y-172.38
X97.6Y-173.18
X97.6Y-175.58
X97.6Y-228.18
X97.6Y-228.98
X97.6Y-230.58
X97.6Y-231.38
X97.6Y-232.18
X97.6Y-232.98
X97.6Y-235.38
X98.08Y-63.03
X98.08Y-122.83
X98.08Y-182.63
X98.08Y-242.43
X98.2Y-40.78
X98.2Y-100.58
X98.2Y-160.38
X98.2Y-220.18
X98.384Y-45.611
X98.384Y-105.411
X98.384Y-165.211
X98.384Y-225.011
X98.4Y-47.98
X98.4Y-48.78
X98.4Y-49.6
X98.4Y-50.38
X98.4Y-54.38
X98.4Y-60.78
X98.4Y-61.58
X98.4Y-107.78
X98.4Y-108.58
X98.4Y-109.4
X98.4Y-110.18
X98.4Y-114.18
X98.4Y-120.58
X98.4Y-121.38
X98.4Y-167.58
X98.4Y-168.38
X98.4Y-169.2
X98.4Y-169.98
X98.4Y-173.98
X98.4Y-180.38
X98.4Y-181.18
X98.4Y-227.38
X98.4Y-228.18
X98.4Y-229.0
X98.4Y-229.78
X98.4Y-233.78
X98.4Y-240.18
X98.4Y-240.98
X98.47Y-35.6
X98.47Y-95.4
X98.47Y-155.2
X98.47Y-215.0
X98.693Y-45.018
X98.693Y-104.818
X98.693Y-164.618
X98.693Y-224.418
X98.706Y-43.917
X98.706Y-103.717
X98.706Y-163.517
X98.706Y-223.317
X99.0Y-34.28
X99.0Y-94.08
X99.0Y-153.88
X99.0Y-213.68
X99.18Y-51.2
X99.18Y-111.0
X99.18Y-170.8
X99.18Y-230.6
X99.2Y-47.98
X99.2Y-48.78
X99.2Y-49.58
X99.2Y-50.38
X99.2Y-52.78
X99.2Y-53.58
X99.2Y-55.18
X99.2Y-56.78
X99.2Y-57.58
X99.2Y-58.38
X99.2Y-59.98
X99.2Y-60.78
X99.2Y-61.58
X99.2Y-107.78
X99.2Y-108.58
X99.2Y-109.38
X99.2Y-110.18
X99.2Y-112.58
X99.2Y-113.38
X99.2Y-114.98
X99.2Y-116.58
X99.2Y-117.38
X99.2Y-118.18
X99.2Y-119.78
X99.2Y-120.58
X99.2Y-121.38
X99.2Y-167.58
X99.2Y-168.38
X99.2Y-169.18
X99.2Y-169.98
X99.2Y-172.38
X99.2Y-173.18
X99.2Y-174.78
X99.2Y-176.38
X99.2Y-177.18
X99.2Y-177.98
X99.2Y-179.58
X99.2Y-180.38
X99.2Y-181.18
X99.2Y-227.38
X99.2Y-228.18
X99.2Y-228.98
X99.2Y-229.78
X99.2Y-232.18
X99.2Y-232.98
X99.2Y-234.58
X99.2Y-236.18
X99.2Y-236.98
X99.2Y-237.78
X99.2Y-239.38
X99.2Y-240.18
X99.2Y-240.98
X99.29Y-71.88
X99.29Y-131.68
X99.29Y-191.48
X99.29Y-251.28
X99.339Y-40.555
X99.339Y-100.355
X99.339Y-160.155
X99.339Y-219.955
X99.55Y-75.21
X99.55Y-135.01
X99.55Y-194.81
X99.55Y-254.61
X99.571Y-30.443
X99.571Y-90.243
X99.571Y-150.043
X99.571Y-209.843
X99.62Y-63.053
X99.62Y-122.853
X99.62Y-182.653
X99.62Y-242.453
X99.629Y-42.397
X99.629Y-102.197
X99.629Y-161.997
X99.629Y-221.797
X99.96Y-35.59
X99.96Y-95.39
X99.96Y-155.19
X99.96Y-214.99
X100.0Y-47.98
X100.0Y-48.78
X100.0Y-49.58
X100.0Y-50.38
X100.0Y-51.18
X100.0Y-51.98
X100.0Y-52.78
X100.0Y-55.18
X100.0Y-55.98
X100.0Y-56.78
X100.0Y-57.58
X100.0Y-58.38
X100.0Y-59.18
X100.0Y-59.98
X100.0Y-60.78
X100.0Y-107.78
X100.0Y-108.58
X100.0Y-109.38
X100.0Y-110.18
X100.0Y-110.98
X100.0Y-111.78
X100.0Y-112.58
X100.0Y-114.98
X100.0Y-115.78
X100.0Y-116.58
X100.0Y-117.38
X100.0Y-118.18
X100.0Y-118.98
X100.0Y-119.78
X100.0Y-120.58
X100.0Y-167.58
X100.0Y-168.38
X100.0Y-169.18
X100.0Y-169.98
X100.0Y-170.78
X100.0Y-171.58
X100.0Y-172.38
X100.0Y-174.78
X100.0Y-175.58
X100.0Y-176.38
X100.0Y-177.18
X100.0Y-177.98
X100.0Y-178.78
X100.0Y-179.58
X100.0Y-180.38
X100.0Y-227.38
X100.0Y-228.18
X100.0Y-228.98
X100.0Y-229.78
X100.0Y-230.58
X100.0Y-231.38
X100.0Y-232.18
X100.0Y-234.58
X100.0Y-235.38
X100.0Y-236.18
X100.0Y-236.98
X100.0Y-237.78
X100.0Y-238.58
X100.0Y-239.38
X100.0Y-240.18
X100.346Y-62.545
X100.346Y-63.214
X100.346Y-122.346
X100.346Y-123.014
X100.346Y-182.145
X100.346Y-182.814
X100.346Y-241.945
X100.346Y-242.614
X100.439Y-44.7
X100.439Y-104.5
X100.439Y-164.3
X100.439Y-224.1
X100.554Y-46.103
X100.554Y-105.903
X100.554Y-165.703
X100.554Y-225.503
X100.8Y-47.98
X100.8Y-48.78
X100.8Y-49.58
X100.8Y-50.38
X100.8Y-51.18
X100.8Y-51.98
X100.8Y-52.78
X100.8Y-53.58
X100.8Y-55.18
X100.8Y-55.98
X100.8Y-56.78
X100.8Y-57.58
X100.8Y-58.38
X100.8Y-59.18
X100.8Y-59.98
X100.8Y-60.78
X100.8Y-107.78
X100.8Y-108.58
X100.8Y-109.38
X100.8Y-110.18
X100.8Y-110.98
X100.8Y-111.78
X100.8Y-112.58
X100.8Y-113.38
X100.8Y-114.98
X100.8Y-115.78
X100.8Y-116.58
X100.8Y-117.38
X100.8Y-118.18
X100.8Y-118.98
X100.8Y-119.78
X100.8Y-120.58
X100.8Y-167.58
X100.8Y-168.38
X100.8Y-169.18
X100.8Y-169.98
X100.8Y-170.78
X100.8Y-171.58
X100.8Y-172.38
X100.8Y-173.18
X100.8Y-174.78
X100.8Y-175.58
X100.8Y-176.38
X100.8Y-177.18
X100.8Y-177.98
X100.8Y-178.78
X100.8Y-179.58
X100.8Y-180.38
X100.8Y-227.38
X100.8Y-228.18
X100.8Y-228.98
X100.8Y-229.78
X100.8Y-230.58
X100.8Y-231.38
X100.8Y-232.18
X100.8Y-232.98
X100.8Y-234.58
X100.8Y-235.38
X100.8Y-236.18
X100.8Y-236.98
X100.8Y-237.78
X100.8Y-238.58
X100.8Y-239.38
X100.8Y-240.18
X100.87Y-71.2
X100.87Y-131.0
X100.87Y-190.8
X100.87Y-250.6
X101.137Y-44.7
X101.137Y-104.5
X101.137Y-164.3
X101.137Y-224.1
X101.218Y-35.548
X101.218Y-95.348
X101.218Y-155.148
X101.218Y-214.948
X101.6Y-47.98
X101.6Y-51.98
X101.6Y-57.58
X101.6Y-60.78
X101.6Y-61.58
X101.6Y-107.78
X101.6Y-111.78
X101.6Y-117.38
X101.6Y-120.58
X101.6Y-121.38
X101.6Y-167.58
X101.6Y-171.58
X101.6Y-177.18
X101.6Y-180.38
X101.6Y-181.18
X101.6Y-227.38
X101.6Y-231.38
X101.6Y-236.98
X101.6Y-240.18
X101.6Y-240.98
X102.0Y-35.38
X102.0Y-95.18
X102.0Y-154.98
X102.0Y-214.78
X102.02Y-46.4
X102.02Y-106.2
X102.02Y-166.0
X102.02Y-225.8
X102.2Y-62.08
X102.2Y-121.88
X102.2Y-181.68
X102.2Y-241.48
X102.233Y-62.68
X102.233Y-122.48
X102.233Y-182.28
X102.233Y-242.08
X102.4Y-51.98
X102.4Y-111.78
X102.4Y-171.58
X102.4Y-231.38
X102.479Y-38.558
X102.479Y-98.358
X102.479Y-158.158
X102.479Y-217.958
X102.62Y-42.935
X102.62Y-102.735
X102.62Y-162.535
X102.62Y-222.335
X102.788Y-42.288
X102.788Y-102.087
X102.788Y-161.887
X102.788Y-221.688
X103.221Y-47.845
X103.221Y-107.645
X103.221Y-167.445
X103.221Y-227.245
X103.264Y-59.797
X103.264Y-119.597
X103.264Y-179.397
X103.264Y-239.197
X103.351Y-56.78
X103.351Y-116.58
X103.351Y-176.38
X103.351Y-236.18
X103.502Y-38.143
X103.502Y-97.943
X103.502Y-157.743
X103.502Y-217.543
X103.532Y-51.852
X103.532Y-111.652
X103.532Y-171.452
X103.532Y-231.252
X103.62Y-60.348
X103.62Y-120.148
X103.62Y-179.948
X103.62Y-239.748
X103.831Y-54.263
X103.831Y-114.063
X103.831Y-173.863
X103.831Y-233.663
X103.868Y-35.239
X103.868Y-95.039
X103.868Y-154.839
X103.868Y-214.639
X103.918Y-61.873
X103.918Y-121.673
X103.918Y-181.473
X103.918Y-241.273
X104.122Y-46.923
X104.122Y-106.723
X104.122Y-166.523
X104.122Y-226.323
X104.154Y-63.78
X104.154Y-123.58
X104.154Y-183.38
X104.154Y-243.18
X104.269Y-59.902
X104.269Y-119.702
X104.269Y-179.502
X104.269Y-239.302
X104.404Y-54.203
X104.404Y-114.003
X104.404Y-173.803
X104.404Y-233.603
X104.439Y-48.32
X104.439Y-108.12
X104.439Y-167.92
X104.439Y-227.72
X104.453Y-61.669
X104.453Y-121.469
X104.453Y-181.269
X104.453Y-241.069
X104.47Y-34.93
X104.47Y-94.73
X104.47Y-154.53
X104.47Y-214.33
X104.55Y-30.004
X104.55Y-89.804
X104.55Y-149.604
X104.55Y-209.404
X104.6Y-34.18
X104.6Y-93.98
X104.6Y-153.78
X104.6Y-213.58
X104.884Y-49.971
X104.884Y-109.771
X104.884Y-169.571
X104.884Y-229.371
X104.931Y-63.05
X104.931Y-122.85
X104.931Y-182.65
X104.931Y-242.45
X104.966Y-35.284
X104.966Y-95.084
X104.966Y-154.884
X104.966Y-214.684
X105.245Y-61.87
X105.245Y-121.67
X105.245Y-181.47
X105.245Y-241.27
X105.251Y-47.658
X105.251Y-107.458
X105.251Y-167.258
X105.251Y-227.058
X105.495Y-53.673
X105.495Y-113.473
X105.495Y-173.273
X105.495Y-233.073
X105.684Y-50.494
X105.684Y-110.294
X105.684Y-170.094
X105.684Y-229.894
X105.78Y-47.794
X105.78Y-107.594
X105.78Y-167.394
X105.78Y-227.194
X105.832Y-61.438
X105.832Y-121.238
X105.832Y-181.038
X105.832Y-240.838
X105.958Y-48.32
X105.958Y-108.12
X105.958Y-167.92
X105.958Y-227.72
X106.06Y-68.87
X106.06Y-128.67
X106.06Y-188.47
X106.06Y-248.27
X106.278Y-47.569
X106.278Y-107.369
X106.278Y-167.169
X106.278Y-226.969
X106.459Y-60.545
X106.459Y-120.345
X106.459Y-180.145
X106.459Y-239.945
X106.485Y-61.438
X106.485Y-121.238
X106.485Y-181.038
X106.485Y-240.838
X106.725Y-30.655
X106.725Y-90.455
X106.725Y-150.255
X106.725Y-210.055
X106.758Y-48.353
X106.758Y-108.153
X106.758Y-167.953
X106.758Y-227.753
X107.11Y-60.799
X107.11Y-120.599
X107.11Y-180.399
X107.11Y-240.199
X107.693Y-30.05
X107.693Y-89.85
X107.693Y-149.65
X107.693Y-209.45
X108.034Y-70.972
X108.034Y-130.772
X108.034Y-190.572
X108.034Y-250.372
X108.275Y-39.555
X108.275Y-99.355
X108.275Y-159.155
X108.275Y-218.955
X108.417Y-45.48
X108.417Y-105.28
X108.417Y-165.08
X108.417Y-224.88
X108.85Y-38.78
X108.85Y-98.58
X108.85Y-158.38
X108.85Y-218.18
X108.923Y-70.972
X108.923Y-130.772
X108.923Y-190.572
X108.923Y-250.372
X109.05Y-67.67
X109.05Y-127.47
X109.05Y-187.27
X109.05Y-247.07
X109.964Y-34.08
X109.964Y-93.88
X109.964Y-153.68
X109.964Y-213.48
X110.346Y-69.568
X110.346Y-129.368
X110.346Y-189.168
X110.346Y-248.968
X110.614Y-39.067
X110.614Y-98.867
X110.614Y-158.667
X110.614Y-218.467
X111.869Y-47.83
X111.869Y-107.63
X111.869Y-167.43
X111.869Y-227.23
X112.646Y-74.881
X112.646Y-134.681
X112.646Y-194.481
X112.646Y-254.281
X113.027Y-29.796
X113.027Y-89.596
X113.027Y-149.396
X113.027Y-209.196
X113.545Y-34.066
X113.545Y-93.866
X113.545Y-153.666
X113.545Y-213.466
X113.6Y-36.48
X113.6Y-96.28
X113.6Y-156.08
X113.6Y-215.88
X113.72Y-35.15
X113.72Y-94.95
X113.72Y-154.75
X113.72Y-214.55
X115.775Y-45.211
X115.775Y-105.011
X115.775Y-164.811
X115.775Y-224.611
X117.48Y-31.149
X117.48Y-90.949
X117.48Y-150.749
X117.48Y-210.549
X118.11Y-61.17
X118.11Y-120.97
X118.11Y-180.77
X118.11Y-240.57
X118.191Y-32.865
X118.191Y-92.665
X118.191Y-152.465
X118.191Y-212.265
X118.361Y-63.85
X118.361Y-123.65
X118.361Y-183.45
X118.361Y-243.25
X118.58Y-34.99
X118.58Y-94.79
X118.58Y-154.59
X118.58Y-214.39
X119.6Y-38.18
X119.6Y-97.98
X119.6Y-157.78
X119.6Y-217.58
X120.893Y-47.73
X120.893Y-107.53
X120.893Y-167.33
X120.893Y-227.13
X121.723Y-63.925
X121.723Y-123.725
X121.723Y-183.525
X121.723Y-243.325
X121.902Y-37.707
X121.902Y-97.507
X121.902Y-157.307
X121.902Y-217.107
X122.205Y-61.605
X122.205Y-121.405
X122.205Y-181.205
X122.205Y-241.005
X122.283Y-44.129
X122.283Y-103.929
X122.283Y-163.729
X122.283Y-223.529
X122.283Y-46.054
X122.283Y-105.854
X122.283Y-165.654
X122.283Y-225.454
X122.85Y-47.65
X122.85Y-107.45
X122.85Y-167.25
X122.85Y-227.05
X122.89Y-61.14
X122.89Y-120.94
X122.89Y-180.74
X122.89Y-240.54
X123.49Y-47.64
X123.49Y-107.44
X123.49Y-167.24
X123.49Y-227.04
X123.553Y-57.337
X123.553Y-117.137
X123.553Y-176.937
X123.553Y-236.737
X123.934Y-45.907
X123.934Y-105.707
X123.934Y-165.507
X123.934Y-225.307
X124.061Y-57.718
X124.061Y-117.518
X124.061Y-177.318
X124.061Y-237.118
X124.066Y-64.444
X124.066Y-124.244
X124.066Y-184.044
X124.066Y-243.844
X124.12Y-47.68
X124.12Y-107.48
X124.12Y-167.28
X124.12Y-227.08
X124.188Y-66.142
X124.188Y-125.942
X124.188Y-185.742
X124.188Y-245.542
X124.823Y-41.335
X124.823Y-43.552
X124.823Y-101.135
X124.823Y-103.352
X124.823Y-160.935
X124.823Y-163.152
X124.823Y-220.735
X124.823Y-222.952
X125.437Y-36.266
X125.437Y-96.066
X125.437Y-155.866
X125.437Y-215.666
X125.645Y-72.323
X125.645Y-132.123
X125.645Y-191.923
X125.645Y-251.723
X126.093Y-33.715
X126.093Y-93.515
X126.093Y-153.315
X126.093Y-213.115
X126.12Y-47.69
X126.12Y-107.49
X126.12Y-167.29
X126.12Y-227.09
X126.347Y-74.418
X126.347Y-134.219
X126.347Y-194.018
X126.347Y-253.819
X126.6Y-41.18
X126.6Y-100.98
X126.6Y-160.78
X126.6Y-220.58
X126.779Y-67.657
X126.779Y-127.457
X126.779Y-187.257
X126.779Y-247.057
X126.855Y-33.715
X126.855Y-93.515
X126.855Y-153.315
X126.855Y-213.115
X126.91Y-61.13
X126.91Y-120.93
X126.91Y-180.73
X126.91Y-240.53
X126.97Y-67.022
X126.97Y-68.208
X126.97Y-126.822
X126.97Y-128.008
X126.97Y-186.622
X126.97Y-187.808
X126.97Y-246.422
X126.97Y-247.608
X127.759Y-37.707
X127.759Y-97.507
X127.759Y-157.307
X127.759Y-217.107
X127.87Y-47.59
X127.87Y-107.39
X127.87Y-167.19
X127.87Y-226.99
X128.075Y-46.08
X128.075Y-105.88
X128.075Y-165.68
X128.075Y-225.48
X128.31Y-61.18
X128.31Y-120.98
X128.31Y-180.78
X128.31Y-240.58
X128.902Y-40.845
X128.902Y-100.645
X128.902Y-160.445
X128.902Y-220.245
X129.79Y-47.56
X129.79Y-107.36
X129.79Y-167.16
X129.79Y-226.96
X130.025Y-44.155
X130.025Y-103.955
X130.025Y-163.755
X130.025Y-223.555
X130.233Y-37.707
X130.233Y-97.507
X130.233Y-157.307
X130.233Y-217.107
X130.299Y-52.323
X130.299Y-112.123
X130.299Y-171.923
X130.299Y-231.723
X131.125Y-45.98
X131.125Y-105.78
X131.125Y-165.58
X131.125Y-225.38
X131.165Y-73.847
X131.165Y-133.647
X131.165Y-193.447
X131.165Y-253.247
X131.427Y-71.688
X131.427Y-131.488
X131.427Y-191.288
X131.427Y-251.088
X131.681Y-50.86
X131.681Y-110.66
X131.681Y-170.46
X131.681Y-230.26
X132.05Y-44.055
X132.05Y-103.855
X132.05Y-163.655
X132.05Y-223.455
X132.189Y-71.053
X132.189Y-130.853
X132.189Y-190.653
X132.189Y-250.453
X132.443Y-48.066
X132.443Y-107.866
X132.443Y-167.666
X132.443Y-227.466
X132.525Y-55.087
X132.525Y-114.887
X132.525Y-174.687
X132.525Y-234.487
X132.717Y-37.707
X132.717Y-97.507
X132.717Y-157.307
X132.717Y-217.107
X133.109Y-55.344
X133.109Y-115.144
X133.109Y-174.944
X133.109Y-234.744
X133.208Y-63.359
X133.208Y-123.159
X133.208Y-182.959
X133.208Y-242.759
X133.942Y-56.24
X133.942Y-116.04
X133.942Y-175.84
X133.942Y-235.64
X135.675Y-54.38
X135.675Y-114.18
X135.675Y-173.98
X135.675Y-233.78
X135.72Y-49.763
X135.72Y-109.563
X135.72Y-169.363
X135.72Y-229.163
X136.0Y-61.38
X136.0Y-121.18
X136.0Y-180.98
X136.0Y-240.78
X136.176Y-43.982
X136.176Y-103.782
X136.176Y-163.582
X136.176Y-223.382
X136.365Y-35.872
X136.365Y-95.672
X136.365Y-155.472
X136.365Y-215.272
X136.38Y-40.954
X136.38Y-100.754
X136.38Y-160.554
X136.38Y-220.354
X137.6Y-59.78
X137.6Y-119.58
X137.6Y-179.38
X137.6Y-239.18
X137.792Y-78.183
X137.792Y-137.983
X137.792Y-197.783
X137.792Y-257.583
X138.14Y-68.01
X138.14Y-127.81
X138.14Y-187.61
X138.14Y-247.41
X138.23Y-62.86
X138.23Y-122.66
X138.23Y-182.46
X138.23Y-242.26
X138.26Y-41.26
X138.26Y-101.06
X138.26Y-160.86
X138.26Y-220.66
X138.64Y-70.5
X138.64Y-130.3
X138.64Y-190.1
X138.64Y-249.9
X138.79Y-36.32
X138.79Y-96.12
X138.79Y-155.92
X138.79Y-215.72
X138.8Y-46.44
X138.8Y-48.93
X138.8Y-106.24
X138.8Y-108.73
X138.8Y-166.04
X138.8Y-168.53
X138.8Y-225.84
X138.8Y-228.33
X138.82Y-37.54
X138.82Y-43.86
X138.82Y-45.16
X138.82Y-97.34
X138.82Y-103.66
X138.82Y-104.96
X138.82Y-157.14
X138.82Y-163.46
X138.82Y-164.76
X138.82Y-216.94
X138.82Y-223.26
X138.82Y-224.56
X138.83Y-38.85
X138.83Y-40.04
X138.83Y-98.65
X138.83Y-99.84
X138.83Y-158.45
X138.83Y-159.64
X138.83Y-218.25
X138.83Y-219.44
X138.91Y-59.13
X138.91Y-118.93
X138.91Y-178.73
X138.91Y-238.53
X138.93Y-56.56
X138.93Y-116.36
X138.93Y-176.16
X138.93Y-235.96
X139.23Y-33.27
X139.23Y-93.07
X139.23Y-152.87
X139.23Y-212.67
X141.42Y-36.34
X141.42Y-96.14
X141.42Y-155.94
X141.42Y-215.74
X141.45Y-48.97
X141.45Y-62.8
X141.45Y-108.77
X141.45Y-122.6
X141.45Y-168.57
X141.45Y-182.4
X141.45Y-228.37
X141.45Y-242.2
X141.46Y-46.5
X141.46Y-65.4
X141.46Y-68.03
X141.46Y-73.21
X141.46Y-106.3
X141.46Y-125.2
X141.46Y-127.83
X141.46Y-133.01
X141.46Y-166.1
X141.46Y-185.0
X141.46Y-187.63
X141.46Y-192.81
X141.46Y-225.9
X141.46Y-244.8
X141.46Y-247.43
X141.46Y-252.61
X141.47Y-38.84
X141.47Y-70.43
X141.47Y-98.64
X141.47Y-130.23
X141.47Y-158.44
X141.47Y-190.03
X141.47Y-218.24
X141.47Y-249.83
X141.48Y-41.34
X141.48Y-43.98
X141.48Y-101.14
X141.48Y-103.78
X141.48Y-160.94
X141.48Y-163.58
X141.48Y-220.74
X141.48Y-223.38
X141.49Y-33.29
X141.49Y-57.79
X141.49Y-60.34
X141.49Y-93.09
X141.49Y-117.59
X141.49Y-120.14
X141.49Y-152.89
X141.49Y-177.39
X141.49Y-179.94
X141.49Y-212.69
X141.49Y-237.19
X141.49Y-239.74
X155.5Y-36.22
X155.5Y-38.84
X155.5Y-41.37
X155.5Y-43.92
X155.5Y-96.02
X155.5Y-98.64
X155.5Y-101.17
X155.5Y-103.72
X155.5Y-155.82
X155.5Y-158.44
X155.5Y-160.97
X155.5Y-163.52
X155.5Y-215.62
X155.5Y-218.24
X155.5Y-220.77
X155.5Y-223.32
X155.51Y-46.41
X155.51Y-48.96
X155.51Y-57.77
X155.51Y-60.3
X155.51Y-106.21
X155.51Y-108.76
X155.51Y-117.57
X155.51Y-120.1
X155.51Y-166.01
X155.51Y-168.56
X155.51Y-177.37
X155.51Y-179.9
X155.51Y-225.81
X155.51Y-228.36
X155.51Y-237.17
X155.51Y-239.7
X155.52Y-62.79
X155.52Y-65.43
X155.52Y-122.59
X155.52Y-125.23
X155.52Y-182.39
X155.52Y-185.03
X155.52Y-242.19
X155.52Y-244.83
X155.53Y-67.94
X155.53Y-127.74
X155.53Y-187.54
X155.53Y-247.34
X155.54Y-73.37
X155.54Y-133.17
X155.54Y-192.97
X155.54Y-252.77
X155.55Y-70.42
X155.55Y-130.22
X155.55Y-190.02
X155.55Y-249.82
X158.69Y-53.446
X158.69Y-113.246
X158.69Y-173.046
X158.69Y-232.846
X158.905Y-46.542
X158.905Y-106.342
X158.905Y-166.142
X158.905Y-225.942
X159.071Y-54.208
X159.071Y-114.008
X159.071Y-173.808
X159.071Y-233.608
X159.3Y-42.9
X159.3Y-102.7
X159.3Y-162.5
X159.3Y-222.3
X159.325Y-40.619
X159.325Y-43.54
X159.325Y-100.419
X159.325Y-103.34
X159.325Y-160.219
X159.325Y-163.14
X159.325Y-220.019
X159.325Y-222.94
X159.35Y-67.624
X159.35Y-70.418
X159.35Y-127.424
X159.35Y-130.218
X159.35Y-187.224
X159.35Y-190.018
X159.35Y-247.024
X159.35Y-249.818
X161.001Y-70.418
X161.001Y-130.218
X161.001Y-190.018
X161.001Y-249.818
X161.005Y-44.63
X161.005Y-104.43
X161.005Y-164.23
X161.005Y-224.03
X162.18Y-56.08
X162.18Y-115.88
X162.18Y-175.68
X162.18Y-235.48
X162.41Y-53.7
X162.41Y-113.5
X162.41Y-173.3
X162.41Y-233.1
X162.73Y-42.805
X162.73Y-102.605
X162.73Y-162.405
X162.73Y-222.205
X162.98Y-57.48
X162.98Y-117.28
X162.98Y-177.08
X162.98Y-236.88
X163.88Y-71.38
X163.88Y-131.18
X163.88Y-190.98
X163.88Y-250.78
X164.176Y-67.624
X164.176Y-127.424
X164.176Y-187.224
X164.176Y-247.024
X164.242Y-70.747
X164.242Y-130.547
X164.242Y-190.347
X164.242Y-250.147
X164.38Y-42.93
X164.38Y-57.58
X164.38Y-102.73
X164.38Y-117.38
X164.38Y-162.53
X164.38Y-177.18
X164.38Y-222.33
X164.38Y-236.98
X164.507Y-69.816
X164.507Y-129.616
X164.507Y-189.416
X164.507Y-249.216
X164.63Y-44.355
X164.63Y-104.155
X164.63Y-163.955
X164.63Y-223.755
X165.097Y-71.603
X165.097Y-131.403
X165.097Y-191.203
X165.097Y-251.003
X165.4Y-66.6
X165.4Y-126.4
X165.4Y-186.2
X165.4Y-246.0
X165.525Y-68.075
X165.525Y-127.875
X165.525Y-187.675
X165.525Y-247.475
X165.68Y-49.78
X165.68Y-109.58
X165.68Y-169.38
X165.68Y-229.18
X165.88Y-57.48
X165.88Y-117.28
X165.88Y-177.08
X165.88Y-236.88
X166.03Y-42.88
X166.03Y-102.68
X166.03Y-162.48
X166.03Y-222.28
X166.13Y-44.03
X166.13Y-103.83
X166.13Y-163.63
X166.13Y-223.43
X166.462Y-43.494
X166.462Y-103.294
X166.462Y-163.094
X166.462Y-222.894
X168.23Y-43.655
X168.23Y-103.455
X168.23Y-163.255
X168.23Y-223.055
X168.28Y-49.78
X168.28Y-109.58
X168.28Y-169.38
X168.28Y-229.18
X168.355Y-42.725
X168.355Y-102.525
X168.355Y-162.325
X168.355Y-222.125
X168.693Y-44.693
X168.693Y-104.493
X168.693Y-164.293
X168.693Y-224.093
X168.967Y-65.367
X168.967Y-125.167
X168.967Y-184.967
X168.967Y-244.767
X168.98Y-69.98
X168.98Y-129.78
X168.98Y-189.58
X168.98Y-249.38
X169.39Y-34.29
X169.39Y-94.09
X169.39Y-153.89
X169.39Y-213.69
X170.0Y-58.77
X170.0Y-118.57
X170.0Y-178.37
X170.0Y-238.17
X170.3Y-40.0
X170.3Y-99.8
X170.3Y-159.6
X170.3Y-219.4
X170.4Y-37.8
X170.4Y-97.6
X170.4Y-157.4
X170.4Y-217.2
X170.5Y-34.3
X170.5Y-94.1
X170.5Y-153.9
X170.5Y-213.7
X170.58Y-67.58
X170.58Y-127.38
X170.58Y-187.18
X170.58Y-246.98
X170.78Y-42.98
X170.78Y-102.78
X170.78Y-162.58
X170.78Y-222.38
X170.785Y-49.087
X170.785Y-108.887
X170.785Y-168.688
X170.785Y-228.487
X171.055Y-44.905
X171.055Y-104.705
X171.055Y-164.505
X171.055Y-224.305
X171.38Y-66.38
X171.38Y-126.18
X171.38Y-185.98
X171.38Y-245.78
X171.7Y-34.3
X171.7Y-94.1
X171.7Y-153.9
X171.7Y-213.7
X171.9Y-37.8
X171.9Y-97.6
X171.9Y-157.4
X171.9Y-217.2
X172.031Y-66.157
X172.031Y-125.957
X172.031Y-185.757
X172.031Y-245.557
X172.1Y-40.1
X172.1Y-99.9
X172.1Y-159.7
X172.1Y-219.5
X172.263Y-65.663
X172.263Y-125.463
X172.263Y-185.263
X172.263Y-245.063
X172.942Y-65.342
X172.942Y-125.142
X172.942Y-184.942
X172.942Y-244.742
X173.701Y-40.954
X173.701Y-100.754
X173.701Y-160.554
X173.701Y-220.354
X173.8Y-38.2
X173.8Y-98.0
X173.8Y-157.8
X173.8Y-217.6
X174.145Y-64.957
X174.145Y-124.757
X174.145Y-184.557
X174.145Y-244.357
X174.51Y-73.14
X174.51Y-132.94
X174.51Y-192.74
X174.51Y-252.54
X174.73Y-44.48
X174.73Y-104.28
X174.73Y-164.08
X174.73Y-223.88
X174.9Y-37.8
X174.9Y-97.6
X174.9Y-157.4
X174.9Y-217.2
X175.169Y-52.696
X175.169Y-112.496
X175.169Y-172.296
X175.169Y-232.096
X175.339Y-64.957
X175.339Y-124.757
X175.339Y-184.557
X175.339Y-244.357
X175.66Y-73.18
X175.66Y-132.98
X175.66Y-192.78
X175.66Y-252.58
X175.86Y-44.256
X175.86Y-104.056
X175.86Y-163.856
X175.86Y-223.656
X176.255Y-44.88
X176.255Y-104.68
X176.255Y-164.48
X176.255Y-224.28
X176.77Y-61.82
X176.77Y-121.62
X176.77Y-181.42
X176.77Y-241.22
X176.82Y-73.17
X176.82Y-132.97
X176.82Y-192.77
X176.82Y-252.57
X177.83Y-63.28
X177.83Y-123.08
X177.83Y-182.88
X177.83Y-242.68
X178.58Y-59.98
X178.58Y-119.78
X178.58Y-179.58
X178.58Y-239.38
X178.86Y-64.4
X178.86Y-124.2
X178.86Y-184.0
X178.86Y-243.8
X178.867Y-55.467
X178.867Y-115.267
X178.867Y-175.067
X178.867Y-234.867
X178.908Y-33.588
X178.908Y-93.388
X178.908Y-153.188
X178.908Y-212.988
X179.155Y-43.78
X179.155Y-103.58
X179.155Y-163.38
X179.155Y-223.18
X179.68Y-44.48
X179.68Y-104.28
X179.68Y-164.08
X179.68Y-223.88
X179.694Y-60.552
X179.694Y-120.352
X179.694Y-180.152
X179.694Y-239.952
X180.802Y-61.495
X180.802Y-121.295
X180.802Y-181.095
X180.802Y-240.895
X180.89Y-62.196
X180.89Y-121.996
X180.89Y-181.796
X180.89Y-241.596
X181.194Y-43.24
X181.194Y-103.04
X181.194Y-162.84
X181.194Y-222.64
X181.257Y-58.194
X181.257Y-117.994
X181.257Y-177.794
X181.257Y-237.594
X181.58Y-40.58
X181.58Y-100.38
X181.58Y-160.18
X181.58Y-219.98
X181.826Y-33.112
X181.826Y-92.912
X181.826Y-152.712
X181.826Y-212.512
X181.831Y-56.741
X181.831Y-116.541
X181.831Y-176.341
X181.831Y-236.141
X181.98Y-41.38
X181.98Y-101.18
X181.98Y-160.98
X181.98Y-220.78
X182.0Y-70.926
X182.0Y-130.726
X182.0Y-190.526
X182.0Y-250.326
X182.018Y-63.458
X182.018Y-123.258
X182.018Y-183.058
X182.018Y-242.858
X182.293Y-66.176
X182.293Y-125.976
X182.293Y-185.776
X182.293Y-245.576
X182.702Y-72.546
X182.702Y-132.346
X182.702Y-192.147
X182.702Y-251.946
X182.78Y-68.58
X182.78Y-128.38
X182.78Y-188.18
X182.78Y-247.98
X183.102Y-73.788
X183.102Y-133.588
X183.102Y-193.388
X183.102Y-253.188
X183.3Y-75.7
X183.3Y-135.5
X183.3Y-195.3
X183.3Y-255.1
X183.483Y-53.911
X183.483Y-113.711
X183.483Y-173.511
X183.483Y-233.311
X183.58Y-74.78
X183.58Y-134.58
X183.58Y-194.38
X183.58Y-254.18
X183.78Y-61.58
X183.78Y-62.88
X183.78Y-66.737
X183.78Y-121.38
X183.78Y-122.68
X183.78Y-126.537
X183.78Y-181.18
X183.78Y-182.48
X183.78Y-186.337
X183.78Y-240.98
X183.78Y-242.28
X183.78Y-246.137
X183.904Y-55.981
X183.904Y-115.781
X183.904Y-175.581
X183.904Y-235.381
X184.663Y-57.328
X184.663Y-117.128
X184.663Y-176.928
X184.663Y-236.728
X185.131Y-32.064
X185.131Y-91.864
X185.131Y-151.664
X185.131Y-211.464
X186.12Y-53.747
X186.12Y-113.547
X186.12Y-173.347
X186.12Y-233.147
X186.4Y-49.895
X186.4Y-109.695
X186.4Y-169.495
X186.4Y-229.295
X186.47Y-55.134
X186.47Y-114.934
X186.47Y-174.734
X186.47Y-234.534
X186.546Y-50.759
X186.546Y-110.559
X186.546Y-170.359
X186.546Y-230.159
X187.043Y-55.159
X187.043Y-114.959
X187.043Y-174.759
X187.043Y-234.559
X187.08Y-77.08
X187.08Y-136.88
X187.08Y-196.68
X187.08Y-256.48
X187.092Y-69.768
X187.092Y-129.568
X187.092Y-189.368
X187.092Y-249.168
X187.28Y-72.08
X187.28Y-131.88
X187.28Y-191.68
X187.28Y-251.48
X187.29Y-46.986
X187.29Y-106.786
X187.29Y-166.587
X187.29Y-226.386
X187.335Y-50.18
X187.335Y-109.98
X187.335Y-169.78
X187.335Y-229.58
X187.48Y-52.762
X187.48Y-112.562
X187.48Y-172.362
X187.48Y-232.162
X187.711Y-56.721
X187.711Y-116.521
X187.711Y-176.321
X187.711Y-236.121
X187.734Y-46.669
X187.734Y-106.469
X187.734Y-166.269
X187.734Y-226.069
X187.78Y-68.573
X187.78Y-128.373
X187.78Y-188.173
X187.78Y-247.973
X187.817Y-50.856
X187.817Y-110.656
X187.817Y-170.456
X187.817Y-230.256
X187.855Y-49.453
X187.855Y-109.253
X187.855Y-169.053
X187.855Y-228.853
X187.929Y-55.149
X187.929Y-114.949
X187.929Y-174.749
X187.929Y-234.549
X187.931Y-56.221
X187.931Y-116.021
X187.931Y-175.821
X187.931Y-235.621
X187.935Y-52.435
X187.935Y-112.235
X187.935Y-172.035
X187.935Y-231.835
X188.023Y-69.753
X188.023Y-129.553
X188.023Y-189.353
X188.023Y-249.153
X188.167Y-60.432
X188.167Y-120.232
X188.167Y-180.032
X188.167Y-239.832
X188.313Y-58.808
X188.313Y-118.608
X188.313Y-178.408
X188.313Y-238.208
X188.4Y-43.806
X188.4Y-103.606
X188.4Y-163.406
X188.4Y-223.206
X188.408Y-46.986
X188.408Y-106.786
X188.408Y-166.587
X188.408Y-226.386
X188.447Y-73.248
X188.447Y-133.048
X188.447Y-192.848
X188.447Y-252.648
X188.48Y-75.38
X188.48Y-135.18
X188.48Y-194.98
X188.48Y-254.78
X188.485Y-50.366
X188.485Y-110.166
X188.485Y-169.966
X188.485Y-229.766
X188.623Y-49.419
X188.623Y-109.219
X188.623Y-169.019
X188.623Y-228.819
X188.673Y-56.629
X188.673Y-116.429
X188.673Y-176.229
X188.673Y-236.029
X188.722Y-72.401
X188.722Y-132.201
X188.722Y-192.001
X188.722Y-251.801
X188.787Y-60.97
X188.787Y-120.77
X188.787Y-180.57
X188.787Y-240.37
X188.791Y-59.885
X188.791Y-119.685
X188.791Y-179.485
X188.791Y-239.285
X188.823Y-58.576
X188.823Y-118.376
X188.823Y-178.176
X188.823Y-237.976
X188.847Y-46.624
X188.847Y-106.424
X188.847Y-166.224
X188.847Y-226.024
X189.112Y-55.112
X189.112Y-114.912
X189.112Y-174.712
X189.112Y-234.512
X189.195Y-47.558
X189.195Y-107.358
X189.195Y-167.158
X189.195Y-226.958
X189.209Y-58.19
X189.209Y-117.99
X189.209Y-177.79
X189.209Y-237.59
X189.228Y-59.431
X189.228Y-119.231
X189.228Y-179.031
X189.228Y-238.831
X189.234Y-50.434
X189.234Y-110.234
X189.234Y-170.034
X189.234Y-229.834
X189.239Y-61.993
X189.239Y-121.793
X189.239Y-181.593
X189.239Y-241.393
X189.337Y-33.86
X189.337Y-93.66
X189.337Y-153.46
X189.337Y-213.26
X189.38Y-44.78
X189.38Y-104.58
X189.38Y-164.38
X189.38Y-224.18
X189.58Y-44.206
X189.58Y-104.006
X189.58Y-163.806
X189.58Y-223.606
X189.888Y-61.706
X189.888Y-121.506
X189.888Y-181.306
X189.888Y-241.106
X190.161Y-44.467
X190.161Y-104.267
X190.161Y-164.067
X190.161Y-223.867
X190.18Y-47.208
X190.18Y-52.78
X190.18Y-107.008
X190.18Y-112.58
X190.18Y-166.808
X190.18Y-172.38
X190.18Y-226.608
X190.18Y-232.18
X190.183Y-55.983
X190.183Y-115.783
X190.183Y-175.583
X190.183Y-235.383
X190.194Y-46.408
X190.194Y-106.208
X190.194Y-166.008
X190.194Y-225.808
X190.325Y-61.371
X190.325Y-121.171
X190.325Y-180.971
X190.325Y-240.771
X190.33Y-68.58
X190.33Y-128.38
X190.33Y-188.18
X190.33Y-247.98
X190.399Y-62.715
X190.399Y-122.515
X190.399Y-182.315
X190.399Y-242.115
X190.562Y-45.608
X190.562Y-105.408
X190.562Y-165.208
X190.562Y-225.008
X190.58Y-44.98
X190.58Y-104.78
X190.58Y-164.58
X190.58Y-224.38
X190.78Y-69.98
X190.78Y-129.78
X190.78Y-189.58
X190.78Y-249.38
X190.78Y-44.38
X190.78Y-76.63
X190.78Y-104.18
X190.78Y-136.43
X190.78Y-163.98
X190.78Y-196.23
X190.78Y-223.78
X190.78Y-256.03
X190.977Y-57.582
X190.977Y-117.382
X190.977Y-177.182
X190.977Y-236.982
X190.98Y-52.78
X190.98Y-112.58
X190.98Y-172.38
X190.98Y-232.18
X190.98Y-47.98
X190.98Y-48.78
X190.98Y-49.58
X190.98Y-50.38
X190.98Y-51.18
X190.98Y-51.98
X190.98Y-53.58
X190.98Y-55.983
X190.98Y-56.78
X190.98Y-59.18
X190.98Y-59.98
X190.98Y-60.78
X190.98Y-107.78
X190.98Y-108.58
X190.98Y-109.38
X190.98Y-110.18
X190.98Y-110.98
X190.98Y-111.78
X190.98Y-113.38
X190.98Y-115.783
X190.98Y-116.58
X190.98Y-118.98
X190.98Y-119.78
X190.98Y-120.58
X190.98Y-167.58
X190.98Y-168.38
X190.98Y-169.18
X190.98Y-169.98
X190.98Y-170.78
X190.98Y-171.58
X190.98Y-173.18
X190.98Y-175.583
X190.98Y-176.38
X190.98Y-178.78
X190.98Y-179.58
X190.98Y-180.38
X190.98Y-227.38
X190.98Y-228.18
X190.98Y-228.98
X190.98Y-229.78
X190.98Y-230.58
X190.98Y-231.38
X190.98Y-232.98
X190.98Y-235.383
X190.98Y-236.18
X190.98Y-238.58
X190.98Y-239.38
X190.98Y-240.18
X190.983Y-55.183
X190.983Y-114.983
X190.983Y-174.783
X190.983Y-234.583
X191.159Y-62.767
X191.159Y-122.567
X191.159Y-182.367
X191.159Y-242.167
X191.23Y-76.18
X191.23Y-135.98
X191.23Y-195.78
X191.23Y-255.58
X191.25Y-73.53
X191.25Y-133.33
X191.25Y-193.13
X191.25Y-252.93
X191.38Y-44.894
X191.38Y-104.694
X191.38Y-164.494
X191.38Y-224.294
X191.395Y-43.055
X191.395Y-102.855
X191.395Y-162.655
X191.395Y-222.455
X191.399Y-43.669
X191.399Y-103.469
X191.399Y-163.269
X191.399Y-223.069
X191.456Y-30.84
X191.456Y-90.64
X191.456Y-150.44
X191.456Y-210.24
X191.58Y-69.176
X191.58Y-128.976
X191.58Y-188.776
X191.58Y-248.576
X191.583Y-33.253
X191.583Y-93.053
X191.583Y-152.853
X191.583Y-212.653
X191.696Y-63.166
X191.696Y-122.966
X191.696Y-182.766
X191.696Y-242.566
X191.73Y-76.68
X191.73Y-136.48
X191.73Y-196.28
X191.73Y-256.08
X191.773Y-47.98
X191.773Y-107.78
X191.773Y-167.58
X191.773Y-227.38
X191.78Y-48.78
X191.78Y-49.58
X191.78Y-50.38
X191.78Y-51.18
X191.78Y-51.98
X191.78Y-55.18
X191.78Y-55.98
X191.78Y-56.78
X191.78Y-57.58
X191.78Y-58.38
X191.78Y-59.18
X191.78Y-59.98
X191.78Y-60.78
X191.78Y-108.58
X191.78Y-109.38
X191.78Y-110.18
X191.78Y-110.98
X191.78Y-111.78
X191.78Y-114.98
X191.78Y-115.78
X191.78Y-116.58
X191.78Y-117.38
X191.78Y-118.18
X191.78Y-118.98
X191.78Y-119.78
X191.78Y-120.58
X191.78Y-168.38
X191.78Y-169.18
X191.78Y-169.98
X191.78Y-170.78
X191.78Y-171.58
X191.78Y-174.78
X191.78Y-175.58
X191.78Y-176.38
X191.78Y-177.18
X191.78Y-177.98
X191.78Y-178.78
X191.78Y-179.58
X191.78Y-180.38
X191.78Y-228.18
X191.78Y-228.98
X191.78Y-229.78
X191.78Y-230.58
X191.78Y-231.38
X191.78Y-234.58
X191.78Y-235.38
X191.78Y-236.18
X191.78Y-236.98
X191.78Y-237.78
X191.78Y-238.58
X191.78Y-239.38
X191.78Y-240.18
X191.785Y-53.58
X191.785Y-113.38
X191.785Y-173.18
X191.785Y-232.98
X191.8Y-72.92
X191.8Y-132.72
X191.8Y-192.52
X191.8Y-252.32
X192.081Y-62.334
X192.081Y-122.134
X192.081Y-181.934
X192.081Y-241.734
X192.21Y-73.5
X192.21Y-133.3
X192.21Y-193.1
X192.21Y-252.9
X192.235Y-76.175
X192.235Y-135.975
X192.235Y-195.775
X192.235Y-255.575
X192.348Y-69.38
X192.348Y-129.18
X192.348Y-188.98
X192.348Y-248.78
X192.55Y-61.58
X192.55Y-121.38
X192.55Y-181.18
X192.55Y-240.98
X192.573Y-47.98
X192.573Y-107.78
X192.573Y-167.58
X192.573Y-227.38
X192.575Y-53.58
X192.575Y-113.38
X192.575Y-173.18
X192.575Y-232.98
X192.58Y-48.78
X192.58Y-49.58
X192.58Y-50.38
X192.58Y-51.18
X192.58Y-51.98
X192.58Y-54.38
X192.58Y-55.18
X192.58Y-56.78
X192.58Y-58.38
X192.58Y-59.18
X192.58Y-59.98
X192.58Y-108.58
X192.58Y-109.38
X192.58Y-110.18
X192.58Y-110.98
X192.58Y-111.78
X192.58Y-114.18
X192.58Y-114.98
X192.58Y-116.58
X192.58Y-118.18
X192.58Y-118.98
X192.58Y-119.78
X192.58Y-168.38
X192.58Y-169.18
X192.58Y-169.98
X192.58Y-170.78
X192.58Y-171.58
X192.58Y-173.98
X192.58Y-174.78
X192.58Y-176.38
X192.58Y-177.98
X192.58Y-178.78
X192.58Y-179.58
X192.58Y-228.18
X192.58Y-228.98
X192.58Y-229.78
X192.58Y-230.58
X192.58Y-231.38
X192.58Y-233.78
X192.58Y-234.58
X192.58Y-236.18
X192.58Y-237.78
X192.58Y-238.58
X192.58Y-239.38
X192.912Y-62.642
X192.912Y-122.442
X192.912Y-182.242
X192.912Y-242.042
X193.184Y-44.035
X193.184Y-103.835
X193.184Y-163.635
X193.184Y-223.435
X193.256Y-43.32
X193.256Y-103.12
X193.256Y-162.92
X193.256Y-222.72
X193.31Y-61.49
X193.31Y-121.29
X193.31Y-181.09
X193.31Y-240.89
X193.373Y-47.98
X193.373Y-107.78
X193.373Y-167.58
X193.373Y-227.38
X193.38Y-60.78
X193.38Y-120.58
X193.38Y-180.38
X193.38Y-240.18
X193.38Y-48.78
X193.38Y-49.58
X193.38Y-50.38
X193.38Y-57.58
X193.38Y-108.58
X193.38Y-109.38
X193.38Y-110.18
X193.38Y-117.38
X193.38Y-168.38
X193.38Y-169.18
X193.38Y-169.98
X193.38Y-177.18
X193.38Y-228.18
X193.38Y-228.98
X193.38Y-229.78
X193.38Y-236.98
X193.434Y-54.39
X193.434Y-114.19
X193.434Y-173.99
X193.434Y-233.79
X193.58Y-74.93
X193.58Y-134.73
X193.58Y-194.53
X193.58Y-254.33
X193.61Y-65.78
X193.61Y-125.58
X193.61Y-185.38
X193.61Y-245.18
X193.69Y-68.93
X193.69Y-128.73
X193.69Y-188.53
X193.69Y-248.33
X193.971Y-45.178
X193.971Y-104.978
X193.971Y-164.778
X193.971Y-224.578
X193.996Y-30.84
X193.996Y-90.64
X193.996Y-150.44
X193.996Y-210.24
X194.029Y-44.596
X194.029Y-104.396
X194.029Y-164.196
X194.029Y-223.996
X194.15Y-65.93
X194.15Y-125.73
X194.15Y-185.53
X194.15Y-245.33
X194.173Y-47.98
X194.173Y-107.78
X194.173Y-167.58
X194.173Y-227.38
X194.18Y-60.78
X194.18Y-120.58
X194.18Y-180.38
X194.18Y-240.18
X194.18Y-47.18
X194.18Y-48.78
X194.18Y-49.58
X194.18Y-51.18
X194.18Y-51.98
X194.18Y-52.78
X194.18Y-53.58
X194.18Y-71.48
X194.18Y-106.98
X194.18Y-108.58
X194.18Y-109.38
X194.18Y-110.98
X194.18Y-111.78
X194.18Y-112.58
X194.18Y-113.38
X194.18Y-131.28
X194.18Y-166.78
X194.18Y-168.38
X194.18Y-169.18
X194.18Y-170.78
X194.18Y-171.58
X194.18Y-172.38
X194.18Y-173.18
X194.18Y-191.08
X194.18Y-226.58
X194.18Y-228.18
X194.18Y-228.98
X194.18Y-230.58
X194.18Y-231.38
X194.18Y-232.18
X194.18Y-232.98
X194.18Y-250.88
X194.224Y-55.936
X194.224Y-115.736
X194.224Y-175.536
X194.224Y-235.336
X194.27Y-63.04
X194.27Y-122.84
X194.27Y-182.64
X194.27Y-242.44
X194.382Y-43.31
X194.382Y-103.11
X194.382Y-162.91
X194.382Y-222.71
X194.408Y-62.512
X194.408Y-122.312
X194.408Y-182.112
X194.408Y-241.912
X194.536Y-43.834
X194.536Y-103.634
X194.536Y-163.434
X194.536Y-223.234
X194.584Y-44.634
X194.584Y-104.434
X194.584Y-164.234
X194.584Y-224.034
X194.63Y-74.18
X194.63Y-133.98
X194.63Y-193.78
X194.63Y-253.58
X194.68Y-72.68
X194.68Y-132.48
X194.68Y-192.28
X194.68Y-252.08
X194.73Y-69.43
X194.73Y-129.23
X194.73Y-189.03
X194.73Y-248.83
X194.88Y-77.08
X194.88Y-136.88
X194.88Y-196.68
X194.88Y-256.48
X194.955Y-34.33
X194.955Y-94.13
X194.955Y-153.93
X194.955Y-213.73
X194.973Y-47.98
X194.973Y-107.78
X194.973Y-167.58
X194.973Y-227.38
X194.98Y-48.78
X194.98Y-49.58
X194.98Y-51.18
X194.98Y-54.38
X194.98Y-59.18
X194.98Y-59.98
X194.98Y-73.68
X194.98Y-108.58
X194.98Y-109.38
X194.98Y-110.98
X194.98Y-114.18
X194.98Y-118.98
X194.98Y-119.78
X194.98Y-133.48
X194.98Y-168.38
X194.98Y-169.18
X194.98Y-170.78
X194.98Y-173.98
X194.98Y-178.78
X194.98Y-179.58
X194.98Y-193.28
X194.98Y-228.18
X194.98Y-228.98
X194.98Y-230.58
X194.98Y-233.78
X194.98Y-238.58
X194.98Y-239.38
X194.98Y-253.08
X195.108Y-43.999
X195.108Y-103.799
X195.108Y-163.599
X195.108Y-223.399
X195.141Y-62.486
X195.141Y-122.286
X195.141Y-182.086
X195.141Y-241.886
X195.725Y-42.077
X195.725Y-101.877
X195.725Y-161.677
X195.725Y-221.477
X195.78Y-49.58
X195.78Y-51.18
X195.78Y-52.78
X195.78Y-55.98
X195.78Y-59.18
X195.78Y-59.98
X195.78Y-109.38
X195.78Y-110.98
X195.78Y-112.58
X195.78Y-115.78
X195.78Y-118.98
X195.78Y-119.78
X195.78Y-169.18
X195.78Y-170.78
X195.78Y-172.38
X195.78Y-175.58
X195.78Y-178.78
X195.78Y-179.58
X195.78Y-228.98
X195.78Y-230.58
X195.78Y-232.18
X195.78Y-235.38
X195.78Y-238.58
X195.78Y-239.38
X195.827Y-44.468
X195.827Y-104.268
X195.827Y-164.068
X195.827Y-223.868
X195.908Y-43.864
X195.908Y-103.664
X195.908Y-163.464
X195.908Y-223.264
X195.93Y-62.21
X195.93Y-122.01
X195.93Y-181.81
X195.93Y-241.611
X195.962Y-63.018
X195.962Y-122.818
X195.962Y-182.618
X195.962Y-242.418
X196.074Y-43.205
X196.074Y-103.005
X196.074Y-162.805
X196.074Y-222.605
X196.216Y-57.816
X196.216Y-117.616
X196.216Y-177.416
X196.216Y-237.216
X196.428Y-41.532
X196.428Y-101.332
X196.428Y-161.132
X196.428Y-220.932
X196.58Y-47.98
X196.58Y-51.18
X196.58Y-55.18
X196.58Y-55.98
X196.58Y-59.98
X196.58Y-107.78
X196.58Y-110.98
X196.58Y-114.98
X196.58Y-115.78
X196.58Y-119.78
X196.58Y-167.58
X196.58Y-170.78
X196.58Y-174.78
X196.58Y-175.58
X196.58Y-179.58
X196.58Y-227.38
X196.58Y-230.58
X196.58Y-234.58
X196.58Y-235.38
X196.58Y-239.38
X196.81Y-61.83
X196.81Y-121.63
X196.81Y-181.43
X196.81Y-241.23
X196.901Y-62.466
X196.901Y-122.266
X196.901Y-182.066
X196.901Y-241.866
X197.282Y-44.143
X197.282Y-103.943
X197.282Y-163.743
X197.282Y-223.543
X197.38Y-46.33
X197.38Y-55.18
X197.38Y-55.98
X197.38Y-106.13
X197.38Y-114.98
X197.38Y-115.78
X197.38Y-165.93
X197.38Y-174.78
X197.38Y-175.58
X197.38Y-225.73
X197.38Y-234.58
X197.38Y-235.38
X197.629Y-44.86
X197.629Y-104.66
X197.629Y-164.46
X197.629Y-224.26
X197.88Y-68.38
X197.88Y-69.28
X197.88Y-128.18
X197.88Y-129.08
X197.88Y-187.98
X197.88Y-188.88
X197.88Y-247.78
X197.88Y-248.68
X197.946Y-45.495
X197.946Y-105.295
X197.946Y-165.095
X197.946Y-224.895
X197.95Y-74.52
X197.95Y-134.32
X197.95Y-194.12
X197.95Y-253.92
X198.1Y-32.717
X198.1Y-92.517
X198.1Y-152.317
X198.1Y-212.117
X198.18Y-47.98
X198.18Y-51.18
X198.18Y-55.18
X198.18Y-55.98
X198.18Y-59.98
X198.18Y-61.58
X198.18Y-107.78
X198.18Y-110.98
X198.18Y-114.98
X198.18Y-115.78
X198.18Y-119.78
X198.18Y-121.38
X198.18Y-167.58
X198.18Y-170.78
X198.18Y-174.78
X198.18Y-175.58
X198.18Y-179.58
X198.18Y-181.18
X198.18Y-227.38
X198.18Y-230.58
X198.18Y-234.58
X198.18Y-235.38
X198.18Y-239.38
X198.18Y-240.98
X198.454Y-46.003
X198.454Y-105.803
X198.454Y-165.603
X198.454Y-225.403
X198.876Y-42.351
X198.876Y-102.151
X198.876Y-161.951
X198.876Y-221.751
X198.96Y-49.6
X198.96Y-109.4
X198.96Y-169.2
X198.96Y-229.0
X198.98Y-47.98
X198.98Y-48.78
X198.98Y-51.18
X198.98Y-52.78
X198.98Y-55.98
X198.98Y-59.18
X198.98Y-59.98
X198.98Y-61.58
X198.98Y-107.78
X198.98Y-108.58
X198.98Y-110.98
X198.98Y-112.58
X198.98Y-115.78
X198.98Y-118.98
X198.98Y-119.78
X198.98Y-121.38
X198.98Y-167.58
X198.98Y-168.38
X198.98Y-170.78
X198.98Y-172.38
X198.98Y-175.58
X198.98Y-178.78
X198.98Y-179.58
X198.98Y-181.18
X198.98Y-227.38
X198.98Y-228.18
X198.98Y-230.58
X198.98Y-232.18
X198.98Y-235.38
X198.98Y-238.58
X198.98Y-239.38
X198.98Y-240.98
X199.546Y-42.351
X199.546Y-102.151
X199.546Y-161.951
X199.546Y-221.751
X199.78Y-47.98
X199.78Y-48.78
X199.78Y-49.58
X199.78Y-51.18
X199.78Y-54.38
X199.78Y-57.98
X199.78Y-59.18
X199.78Y-59.98
X199.78Y-107.78
X199.78Y-108.58
X199.78Y-109.38
X199.78Y-110.98
X199.78Y-114.18
X199.78Y-117.78
X199.78Y-118.98
X199.78Y-119.78
X199.78Y-167.58
X199.78Y-168.38
X199.78Y-169.18
X199.78Y-170.78
X199.78Y-173.98
X199.78Y-177.58
X199.78Y-178.78
X199.78Y-179.58
X199.78Y-227.38
X199.78Y-228.18
X199.78Y-228.98
X199.78Y-230.58
X199.78Y-233.78
X199.78Y-237.38
X199.78Y-238.58
X199.78Y-239.38
X200.08Y-74.99
X200.08Y-134.79
X200.08Y-194.59
X200.08Y-254.39
X200.244Y-42.351
X200.244Y-102.151
X200.244Y-161.951
X200.244Y-221.751
X200.249Y-35.525
X200.249Y-95.325
X200.249Y-155.125
X200.249Y-214.925
X200.34Y-72.61
X200.34Y-132.41
X200.34Y-192.21
X200.34Y-252.01
X200.359Y-44.543
X200.359Y-104.343
X200.359Y-164.143
X200.359Y-223.943
X200.48Y-68.38
X200.48Y-69.38
X200.48Y-128.18
X200.48Y-129.18
X200.48Y-187.98
X200.48Y-188.98
X200.48Y-247.78
X200.48Y-248.78
X200.54Y-57.687
X200.54Y-117.487
X200.54Y-177.287
X200.54Y-237.087
X200.58Y-48.78
X200.58Y-49.58
X200.58Y-51.18
X200.58Y-51.98
X200.58Y-52.78
X200.58Y-53.58
X200.58Y-55.98
X200.58Y-108.58
X200.58Y-109.38
X200.58Y-110.98
X200.58Y-111.78
X200.58Y-112.58
X200.58Y-113.38
X200.58Y-115.78
X200.58Y-168.38
X200.58Y-169.18
X200.58Y-170.78
X200.58Y-171.58
X200.58Y-172.38
X200.58Y-173.18
X200.58Y-175.58
X200.58Y-228.18
X200.58Y-228.98
X200.58Y-230.58
X200.58Y-231.38
X200.58Y-232.18
X200.58Y-232.98
X200.58Y-235.38
X201.06Y-63.03
X201.06Y-122.83
X201.06Y-182.63
X201.06Y-242.43
X201.18Y-40.78
X201.18Y-100.58
X201.18Y-160.38
X201.18Y-220.18
X201.364Y-45.611
X201.364Y-105.411
X201.364Y-165.211
X201.364Y-225.011
X201.38Y-47.98
X201.38Y-48.78
X201.38Y-49.6
X201.38Y-50.38
X201.38Y-54.38
X201.38Y-60.78
X201.38Y-61.58
X201.38Y-107.78
X201.38Y-108.58
X201.38Y-109.4
X201.38Y-110.18
X201.38Y-114.18
X201.38Y-120.58
X201.38Y-121.38
X201.38Y-167.58
X201.38Y-168.38
X201.38Y-169.2
X201.38Y-169.98
X201.38Y-173.98
X201.38Y-180.38
X201.38Y-181.18
X201.38Y-227.38
X201.38Y-228.18
X201.38Y-229.0
X201.38Y-229.78
X201.38Y-233.78
X201.38Y-240.18
X201.38Y-240.98
X201.45Y-35.6
X201.45Y-95.4
X201.45Y-155.2
X201.45Y-215.0
X201.673Y-45.018
X201.673Y-104.818
X201.673Y-164.618
X201.673Y-224.418
X201.686Y-43.917
X201.686Y-103.717
X201.686Y-163.517
X201.686Y-223.317
X201.98Y-34.28
X201.98Y-94.08
X201.98Y-153.88
X201.98Y-213.68
X202.16Y-51.2
X202.16Y-111.0
X202.16Y-170.8
X202.16Y-230.6
X202.18Y-47.98
X202.18Y-48.78
X202.18Y-49.58
X202.18Y-50.38
X202.18Y-52.78
X202.18Y-53.58
X202.18Y-55.18
X202.18Y-56.78
X202.18Y-57.58
X202.18Y-58.38
X202.18Y-59.98
X202.18Y-60.78
X202.18Y-61.58
X202.18Y-107.78
X202.18Y-108.58
X202.18Y-109.38
X202.18Y-110.18
X202.18Y-112.58
X202.18Y-113.38
X202.18Y-114.98
X202.18Y-116.58
X202.18Y-117.38
X202.18Y-118.18
X202.18Y-119.78
X202.18Y-120.58
X202.18Y-121.38
X202.18Y-167.58
X202.18Y-168.38
X202.18Y-169.18
X202.18Y-169.98
X202.18Y-172.38
X202.18Y-173.18
X202.18Y-174.78
X202.18Y-176.38
X202.18Y-177.18
X202.18Y-177.98
X202.18Y-179.58
X202.18Y-180.38
X202.18Y-181.18
X202.18Y-227.38
X202.18Y-228.18
X202.18Y-228.98
X202.18Y-229.78
X202.18Y-232.18
X202.18Y-232.98
X202.18Y-234.58
X202.18Y-236.18
X202.18Y-236.98
X202.18Y-237.78
X202.18Y-239.38
X202.18Y-240.18
X202.18Y-240.98
X202.27Y-71.88
X202.27Y-131.68
X202.27Y-191.48
X202.27Y-251.28
X202.319Y-40.555
X202.319Y-100.355
X202.319Y-160.155
X202.319Y-219.955
X202.53Y-75.21
X202.53Y-135.01
X202.53Y-194.81
X202.53Y-254.61
X202.551Y-30.443
X202.551Y-90.243
X202.551Y-150.043
X202.551Y-209.843
X202.6Y-63.053
X202.6Y-122.853
X202.6Y-182.653
X202.6Y-242.453
X202.609Y-42.397
X202.609Y-102.197
X202.609Y-161.997
X202.609Y-221.797
X202.94Y-35.59
X202.94Y-95.39
X202.94Y-155.19
X202.94Y-214.99
X202.98Y-47.98
X202.98Y-48.78
X202.98Y-49.58
X202.98Y-50.38
X202.98Y-51.18
X202.98Y-51.98
X202.98Y-52.78
X202.98Y-55.18
X202.98Y-55.98
X202.98Y-56.78
X202.98Y-57.58
X202.98Y-58.38
X202.98Y-59.18
X202.98Y-59.98
X202.98Y-60.78
X202.98Y-107.78
X202.98Y-108.58
X202.98Y-109.38
X202.98Y-110.18
X202.98Y-110.98
X202.98Y-111.78
X202.98Y-112.58
X202.98Y-114.98
X202.98Y-115.78
X202.98Y-116.58
X202.98Y-117.38
X202.98Y-118.18
X202.98Y-118.98
X202.98Y-119.78
X202.98Y-120.58
X202.98Y-167.58
X202.98Y-168.38
X202.98Y-169.18
X202.98Y-169.98
X202.98Y-170.78
X202.98Y-171.58
X202.98Y-172.38
X202.98Y-174.78
X202.98Y-175.58
X202.98Y-176.38
X202.98Y-177.18
X202.98Y-177.98
X202.98Y-178.78
X202.98Y-179.58
X202.98Y-180.38
X202.98Y-227.38
X202.98Y-228.18
X202.98Y-228.98
X202.98Y-229.78
X202.98Y-230.58
X202.98Y-231.38
X202.98Y-232.18
X202.98Y-234.58
X202.98Y-235.38
X202.98Y-236.18
X202.98Y-236.98
X202.98Y-237.78
X202.98Y-238.58
X202.98Y-239.38
X202.98Y-240.18
X203.326Y-62.545
X203.326Y-63.214
X203.326Y-122.346
X203.326Y-123.014
X203.326Y-182.145
X203.326Y-182.814
X203.326Y-241.945
X203.326Y-242.614
X203.419Y-44.7
X203.419Y-104.5
X203.419Y-164.3
X203.419Y-224.1
X203.534Y-46.103
X203.534Y-105.903
X203.534Y-165.703
X203.534Y-225.503
X203.78Y-47.98
X203.78Y-48.78
X203.78Y-49.58
X203.78Y-50.38
X203.78Y-51.18
X203.78Y-51.98
X203.78Y-52.78
X203.78Y-53.58
X203.78Y-55.18
X203.78Y-55.98
X203.78Y-56.78
X203.78Y-57.58
X203.78Y-58.38
X203.78Y-59.18
X203.78Y-59.98
X203.78Y-60.78
X203.78Y-107.78
X203.78Y-108.58
X203.78Y-109.38
X203.78Y-110.18
X203.78Y-110.98
X203.78Y-111.78
X203.78Y-112.58
X203.78Y-113.38
X203.78Y-114.98
X203.78Y-115.78
X203.78Y-116.58
X203.78Y-117.38
X203.78Y-118.18
X203.78Y-118.98
X203.78Y-119.78
X203.78Y-120.58
X203.78Y-167.58
X203.78Y-168.38
X203.78Y-169.18
X203.78Y-169.98
X203.78Y-170.78
X203.78Y-171.58
X203.78Y-172.38
X203.78Y-173.18
X203.78Y-174.78
X203.78Y-175.58
X203.78Y-176.38
X203.78Y-177.18
X203.78Y-177.98
X203.78Y-178.78
X203.78Y-179.58
X203.78Y-180.38
X203.78Y-227.38
X203.78Y-228.18
X203.78Y-228.98
X203.78Y-229.78
X203.78Y-230.58
X203.78Y-231.38
X203.78Y-232.18
X203.78Y-232.98
X203.78Y-234.58
X203.78Y-235.38
X203.78Y-236.18
X203.78Y-236.98
X203.78Y-237.78
X203.78Y-238.58
X203.78Y-239.38
X203.78Y-240.18
X203.85Y-71.2
X203.85Y-131.0
X203.85Y-190.8
X203.85Y-250.6
X204.117Y-44.7
X204.117Y-104.5
X204.117Y-164.3
X204.117Y-224.1
X204.198Y-35.548
X204.198Y-95.348
X204.198Y-155.148
X204.198Y-214.948
X204.58Y-47.98
X204.58Y-51.98
X204.58Y-57.58
X204.58Y-60.78
X204.58Y-61.58
X204.58Y-107.78
X204.58Y-111.78
X204.58Y-117.38
X204.58Y-120.58
X204.58Y-121.38
X204.58Y-167.58
X204.58Y-171.58
X204.58Y-177.18
X204.58Y-180.38
X204.58Y-181.18
X204.58Y-227.38
X204.58Y-231.38
X204.58Y-236.98
X204.58Y-240.18
X204.58Y-240.98
X204.98Y-35.38
X204.98Y-95.18
X204.98Y-154.98
X204.98Y-214.78
X205.0Y-46.4
X205.0Y-106.2
X205.0Y-166.0
X205.0Y-225.8
X205.18Y-62.08
X205.18Y-121.88
X205.18Y-181.68
X205.18Y-241.48
X205.213Y-62.68
X205.213Y-122.48
X205.213Y-182.28
X205.213Y-242.08
X205.38Y-51.98
X205.38Y-111.78
X205.38Y-171.58
X205.38Y-231.38
X205.459Y-38.558
X205.459Y-98.358
X205.459Y-158.158
X205.459Y-217.958
X205.6Y-42.935
X205.6Y-102.735
X205.6Y-162.535
X205.6Y-222.335
X205.768Y-42.288
X205.768Y-102.087
X205.768Y-161.887
X205.768Y-221.688
X206.201Y-47.845
X206.201Y-107.645
X206.201Y-167.445
X206.201Y-227.245
X206.244Y-59.797
X206.244Y-119.597
X206.244Y-179.397
X206.244Y-239.197
X206.331Y-56.78
X206.331Y-116.58
X206.331Y-176.38
X206.331Y-236.18
X206.482Y-38.143
X206.482Y-97.943
X206.482Y-157.743
X206.482Y-217.543
X206.512Y-51.852
X206.512Y-111.652
X206.512Y-171.452
X206.512Y-231.252
X206.6Y-60.348
X206.6Y-120.148
X206.6Y-179.948
X206.6Y-239.748
X206.811Y-54.263
X206.811Y-114.063
X206.811Y-173.863
X206.811Y-233.663
X206.848Y-35.239
X206.848Y-95.039
X206.848Y-154.839
X206.848Y-214.639
X206.898Y-61.873
X206.898Y-121.673
X206.898Y-181.473
X206.898Y-241.273
X207.102Y-46.923
X207.102Y-106.723
X207.102Y-166.523
X207.102Y-226.323
X207.134Y-63.78
X207.134Y-123.58
X207.134Y-183.38
X207.134Y-243.18
X207.249Y-59.902
X207.249Y-119.702
X207.249Y-179.502
X207.249Y-239.302
X207.384Y-54.203
X207.384Y-114.003
X207.384Y-173.803
X207.384Y-233.603
X207.419Y-48.32
X207.419Y-108.12
X207.419Y-167.92
X207.419Y-227.72
X207.433Y-61.669
X207.433Y-121.469
X207.433Y-181.269
X207.433Y-241.069
X207.45Y-34.93
X207.45Y-94.73
X207.45Y-154.53
X207.45Y-214.33
X207.53Y-30.004
X207.53Y-89.804
X207.53Y-149.604
X207.53Y-209.404
X207.58Y-34.18
X207.58Y-93.98
X207.58Y-153.78
X207.58Y-213.58
X207.864Y-49.971
X207.864Y-109.771
X207.864Y-169.571
X207.864Y-229.371
X207.911Y-63.05
X207.911Y-122.85
X207.911Y-182.65
X207.911Y-242.45
X207.946Y-35.284
X207.946Y-95.084
X207.946Y-154.884
X207.946Y-214.684
X208.225Y-61.87
X208.225Y-121.67
X208.225Y-181.47
X208.225Y-241.27
X208.231Y-47.658
X208.231Y-107.458
X208.231Y-167.258
X208.231Y-227.058
X208.475Y-53.673
X208.475Y-113.473
X208.475Y-173.273
X208.475Y-233.073
X208.664Y-50.494
X208.664Y-110.294
X208.664Y-170.094
X208.664Y-229.894
X208.76Y-47.794
X208.76Y-107.594
X208.76Y-167.394
X208.76Y-227.194
X208.812Y-61.438
X208.812Y-121.238
X208.812Y-181.038
X208.812Y-240.838
X208.938Y-48.32
X208.938Y-108.12
X208.938Y-167.92
X208.938Y-227.72
X209.04Y-68.87
X209.04Y-128.67
X209.04Y-188.47
X209.04Y-248.27
X209.258Y-47.569
X209.258Y-107.369
X209.258Y-167.169
X209.258Y-226.969
X209.439Y-60.545
X209.439Y-120.345
X209.439Y-180.145
X209.439Y-239.945
X209.465Y-61.438
X209.465Y-121.238
X209.465Y-181.038
X209.465Y-240.838
X209.705Y-30.655
X209.705Y-90.455
X209.705Y-150.255
X209.705Y-210.055
X209.738Y-48.353
X209.738Y-108.153
X209.738Y-167.953
X209.738Y-227.753
X210.09Y-60.799
X210.09Y-120.599
X210.09Y-180.399
X210.09Y-240.199
X210.673Y-30.05
X210.673Y-89.85
X210.673Y-149.65
X210.673Y-209.45
X211.014Y-70.972
X211.014Y-130.772
X211.014Y-190.572
X211.014Y-250.372
X211.255Y-39.555
X211.255Y-99.355
X211.255Y-159.155
X211.255Y-218.955
X211.397Y-45.48
X211.397Y-105.28
X211.397Y-165.08
X211.397Y-224.88
X211.83Y-38.78
X211.83Y-98.58
X211.83Y-158.38
X211.83Y-218.18
X211.903Y-70.972
X211.903Y-130.772
X211.903Y-190.572
X211.903Y-250.372
X212.03Y-67.67
X212.03Y-127.47
X212.03Y-187.27
X212.03Y-247.07
X212.944Y-34.08
X212.944Y-93.88
X212.944Y-153.68
X212.944Y-213.48
X213.326Y-69.568
X213.326Y-129.368
X213.326Y-189.168
X213.326Y-248.968
X213.594Y-39.067
X213.594Y-98.867
X213.594Y-158.667
X213.594Y-218.467
X214.849Y-47.83
X214.849Y-107.63
X214.849Y-167.43
X214.849Y-227.23
X215.626Y-74.881
X215.626Y-134.681
X215.626Y-194.481
X215.626Y-254.281
X216.007Y-29.796
X216.007Y-89.596
X216.007Y-149.396
X216.007Y-209.196
X216.525Y-34.066
X216.525Y-93.866
X216.525Y-153.666
X216.525Y-213.466
X216.58Y-36.48
X216.58Y-96.28
X216.58Y-156.08
X216.58Y-215.88
X216.7Y-35.15
X216.7Y-94.95
X216.7Y-154.75
X216.7Y-214.55
X218.755Y-45.211
X218.755Y-105.011
X218.755Y-164.811
X218.755Y-224.611
X220.46Y-31.149
X220.46Y-90.949
X220.46Y-150.749
X220.46Y-210.549
X221.09Y-61.17
X221.09Y-120.97
X221.09Y-180.77
X221.09Y-240.57
X221.171Y-32.865
X221.171Y-92.665
X221.171Y-152.465
X221.171Y-212.265
X221.341Y-63.85
X221.341Y-123.65
X221.341Y-183.45
X221.341Y-243.25
X221.56Y-34.99
X221.56Y-94.79
X221.56Y-154.59
X221.56Y-214.39
X222.58Y-38.18
X222.58Y-97.98
X222.58Y-157.78
X222.58Y-217.58
X223.873Y-47.73
X223.873Y-107.53
X223.873Y-167.33
X223.873Y-227.13
X224.703Y-63.925
X224.703Y-123.725
X224.703Y-183.525
X224.703Y-243.325
X224.882Y-37.707
X224.882Y-97.507
X224.882Y-157.307
X224.882Y-217.107
X225.185Y-61.605
X225.185Y-121.405
X225.185Y-181.205
X225.185Y-241.005
X225.263Y-44.129
X225.263Y-103.929
X225.263Y-163.729
X225.263Y-223.529
X225.263Y-46.054
X225.263Y-105.854
X225.263Y-165.654
X225.263Y-225.454
X225.83Y-47.65
X225.83Y-107.45
X225.83Y-167.25
X225.83Y-227.05
X225.87Y-61.14
X225.87Y-120.94
X225.87Y-180.74
X225.87Y-240.54
X226.47Y-47.64
X226.47Y-107.44
X226.47Y-167.24
X226.47Y-227.04
X226.533Y-57.337
X226.533Y-117.137
X226.533Y-176.937
X226.533Y-236.737
X226.914Y-45.907
X226.914Y-105.707
X226.914Y-165.507
X226.914Y-225.307
X227.041Y-57.718
X227.041Y-117.518
X227.041Y-177.318
X227.041Y-237.118
X227.046Y-64.444
X227.046Y-124.244
X227.046Y-184.044
X227.046Y-243.844
X227.1Y-47.68
X227.1Y-107.48
X227.1Y-167.28
X227.1Y-227.08
X227.168Y-66.142
X227.168Y-125.942
X227.168Y-185.742
X227.168Y-245.542
X227.803Y-41.335
X227.803Y-43.552
X227.803Y-101.135
X227.803Y-103.352
X227.803Y-160.935
X227.803Y-163.152
X227.803Y-220.735
X227.803Y-222.952
X228.417Y-36.266
X228.417Y-96.066
X228.417Y-155.866
X228.417Y-215.666
X228.625Y-72.323
X228.625Y-132.123
X228.625Y-191.923
X228.625Y-251.723
X229.073Y-33.715
X229.073Y-93.515
X229.073Y-153.315
X229.073Y-213.115
X229.1Y-47.69
X229.1Y-107.49
X229.1Y-167.29
X229.1Y-227.09
X229.327Y-74.418
X229.327Y-134.219
X229.327Y-194.018
X229.327Y-253.819
X229.58Y-41.18
X229.58Y-100.98
X229.58Y-160.78
X229.58Y-220.58
X229.76Y-67.657
X229.76Y-127.457
X229.76Y-187.257
X229.76Y-247.057
X229.835Y-33.715
X229.835Y-93.515
X229.835Y-153.315
X229.835Y-213.115
X229.89Y-61.13
X229.89Y-120.93
X229.89Y-180.73
X229.89Y-240.53
X229.95Y-67.022
X229.95Y-68.208
X229.95Y-126.822
X229.95Y-128.008
X229.95Y-186.622
X229.95Y-187.808
X229.95Y-246.422
X229.95Y-247.608
X230.739Y-37.707
X230.739Y-97.507
X230.739Y-157.307
X230.739Y-217.107
X230.85Y-47.59
X230.85Y-107.39
X230.85Y-167.19
X230.85Y-226.99
X231.055Y-46.08
X231.055Y-105.88
X231.055Y-165.68
X231.055Y-225.48
X231.29Y-61.18
X231.29Y-120.98
X231.29Y-180.78
X231.29Y-240.58
X231.882Y-40.845
X231.882Y-100.645
X231.882Y-160.445
X231.882Y-220.245
X232.77Y-47.56
X232.77Y-107.36
X232.77Y-167.16
X232.77Y-226.96
X233.005Y-44.155
X233.005Y-103.955
X233.005Y-163.755
X233.005Y-223.555
X233.213Y-37.707
X233.213Y-97.507
X233.213Y-157.307
X233.213Y-217.107
X233.279Y-52.323
X233.279Y-112.123
X233.279Y-171.923
X233.279Y-231.723
X234.105Y-45.98
X234.105Y-105.78
X234.105Y-165.58
X234.105Y-225.38
X234.145Y-73.847
X234.145Y-133.647
X234.145Y-193.447
X234.145Y-253.247
X234.407Y-71.688
X234.407Y-131.488
X234.407Y-191.288
X234.407Y-251.088
X234.661Y-50.86
X234.661Y-110.66
X234.661Y-170.46
X234.661Y-230.26
X235.03Y-44.055
X235.03Y-103.855
X235.03Y-163.655
X235.03Y-223.455
X235.169Y-71.053
X235.169Y-130.853
X235.169Y-190.653
X235.169Y-250.453
X235.423Y-48.066
X235.423Y-107.866
X235.423Y-167.666
X235.423Y-227.466
X235.505Y-55.087
X235.505Y-114.887
X235.505Y-174.687
X235.505Y-234.487
X235.697Y-37.707
X235.697Y-97.507
X235.697Y-157.307
X235.697Y-217.107
X236.089Y-55.344
X236.089Y-115.144
X236.089Y-174.944
X236.089Y-234.744
X236.188Y-63.359
X236.188Y-123.159
X236.188Y-182.959
X236.188Y-242.759
X236.922Y-56.24
X236.922Y-116.04
X236.922Y-175.84
X236.922Y-235.64
X238.655Y-54.38
X238.655Y-114.18
X238.655Y-173.98
X238.655Y-233.78
X238.7Y-49.763
X238.7Y-109.563
X238.7Y-169.363
X238.7Y-229.163
X238.98Y-61.38
X238.98Y-121.18
X238.98Y-180.98
X238.98Y-240.78
X239.156Y-43.982
X239.156Y-103.782
X239.156Y-163.582
X239.156Y-223.382
X239.345Y-35.872
X239.345Y-95.672
X239.345Y-155.472
X239.345Y-215.272
X239.36Y-40.954
X239.36Y-100.754
X239.36Y-160.554
X239.36Y-220.354
X240.58Y-59.78
X240.58Y-119.58
X240.58Y-179.38
X240.58Y-239.18
X240.772Y-78.183
X240.772Y-137.983
X240.772Y-197.783
X240.772Y-257.583
X241.12Y-68.01
X241.12Y-127.81
X241.12Y-187.61
X241.12Y-247.41
X241.21Y-62.86
X241.21Y-122.66
X241.21Y-182.46
X241.21Y-242.26
X241.24Y-41.26
X241.24Y-101.06
X241.24Y-160.86
X241.24Y-220.66
X241.62Y-70.5
X241.62Y-130.3
X241.62Y-190.1
X241.62Y-249.9
X241.77Y-36.32
X241.77Y-96.12
X241.77Y-155.92
X241.77Y-215.72
X241.78Y-46.44
X241.78Y-48.93
X241.78Y-106.24
X241.78Y-108.73
X241.78Y-166.04
X241.78Y-168.53
X241.78Y-225.84
X241.78Y-228.33
X241.8Y-37.54
X241.8Y-43.86
X241.8Y-45.16
X241.8Y-97.34
X241.8Y-103.66
X241.8Y-104.96
X241.8Y-157.14
X241.8Y-163.46
X241.8Y-164.76
X241.8Y-216.94
X241.8Y-223.26
X241.8Y-224.56
X241.81Y-38.85
X241.81Y-40.04
X241.81Y-98.65
X241.81Y-99.84
X241.81Y-158.45
X241.81Y-159.64
X241.81Y-218.25
X241.81Y-219.44
X241.89Y-59.13
X241.89Y-118.93
X241.89Y-178.73
X241.89Y-238.53
X241.91Y-56.56
X241.91Y-116.36
X241.91Y-176.16
X241.91Y-235.96
X242.21Y-33.27
X242.21Y-93.07
X242.21Y-152.87
X242.21Y-212.67
X244.4Y-36.34
X244.4Y-96.14
X244.4Y-155.94
X244.4Y-215.74
X244.43Y-48.97
X244.43Y-62.8
X244.43Y-108.77
X244.43Y-122.6
X244.43Y-168.57
X244.43Y-182.4
X244.43Y-228.37
X244.43Y-242.2
X244.44Y-46.5
X244.44Y-65.4
X244.44Y-68.03
X244.44Y-73.21
X244.44Y-106.3
X244.44Y-125.2
X244.44Y-127.83
X244.44Y-133.01
X244.44Y-166.1
X244.44Y-185.0
X244.44Y-187.63
X244.44Y-192.81
X244.44Y-225.9
X244.44Y-244.8
X244.44Y-247.43
X244.44Y-252.61
X244.45Y-38.84
X244.45Y-70.43
X244.45Y-98.64
X244.45Y-130.23
X244.45Y-158.44
X244.45Y-190.03
X244.45Y-218.24
X244.45Y-249.83
X244.46Y-41.34
X244.46Y-43.98
X244.46Y-101.14
X244.46Y-103.78
X244.46Y-160.94
X244.46Y-163.58
X244.46Y-220.74
X244.46Y-223.38
X244.47Y-33.29
X244.47Y-57.79
X244.47Y-60.34
X244.47Y-93.09
X244.47Y-117.59
X244.47Y-120.14
X244.47Y-152.89
X244.47Y-177.39
X244.47Y-179.94
X244.47Y-212.69
X244.47Y-237.19
X244.47Y-239.74
T2
X109.964Y-48.32
X109.964Y-108.12
X109.964Y-167.92
X109.964Y-227.72
X113.775Y-45.255
X113.775Y-105.055
X113.775Y-164.855
X113.775Y-224.655
X114.599Y-47.748
X114.599Y-107.548
X114.599Y-167.349
X114.599Y-227.148
X117.266Y-47.685
X117.266Y-107.485
X117.266Y-167.285
X117.266Y-227.085
X119.425Y-47.748
X119.425Y-107.548
X119.425Y-167.349
X119.425Y-227.148
X212.944Y-48.32
X212.944Y-108.12
X212.944Y-167.92
X212.944Y-227.72
X216.755Y-45.255
X216.755Y-105.055
X216.755Y-164.855
X216.755Y-224.655
X217.579Y-47.748
X217.579Y-107.548
X217.579Y-167.349
X217.579Y-227.148
X220.246Y-47.685
X220.246Y-107.485
X220.246Y-167.285
X220.246Y-227.085
X222.405Y-47.748
X222.405Y-107.548
X222.405Y-167.349
X222.405Y-227.148
T3
X89.85Y-68.78
X89.85Y-128.58
X89.85Y-188.38
X89.85Y-248.18
X115.425Y-69.656
X115.425Y-129.456
X115.425Y-189.256
X115.425Y-249.056
X125.839Y-69.656
X125.839Y-129.456
X125.839Y-189.256
X125.839Y-249.056
X126.474Y-69.656
X126.474Y-129.456
X126.474Y-189.256
X126.474Y-249.056
X192.83Y-68.78
X192.83Y-128.58
X192.83Y-188.38
X192.83Y-248.18
X218.405Y-69.656
X218.405Y-129.456
X218.405Y-189.256
X218.405Y-249.056
X228.819Y-69.656
X228.819Y-129.456
X228.819Y-189.256
X228.819Y-249.056
X229.454Y-69.656
X229.454Y-129.456
X229.454Y-189.256
X229.454Y-249.056
T4
X60.2Y-37.634
X60.2Y-97.434
X60.2Y-157.234
X60.2Y-217.034
X60.77Y-58.75
X60.77Y-118.55
X60.77Y-178.35
X60.77Y-238.15
X61.517Y-38.397
X61.517Y-98.197
X61.517Y-157.997
X61.517Y-217.797
X62.41Y-58.858
X62.41Y-118.658
X62.41Y-178.458
X62.41Y-238.258
X62.68Y-77.59
X62.68Y-137.39
X62.68Y-197.19
X62.68Y-256.99
X63.355Y-34.096
X63.355Y-93.896
X63.355Y-153.696
X63.355Y-213.496
X63.55Y-38.305
X63.55Y-98.105
X63.55Y-157.905
X63.55Y-217.705
X65.97Y-68.21
X65.97Y-128.01
X65.97Y-187.81
X65.97Y-247.61
X65.99Y-73.83
X65.99Y-133.63
X65.99Y-193.43
X65.99Y-253.23
X69.82Y-33.9
X69.82Y-93.7
X69.82Y-153.5
X69.82Y-213.3
X76.66Y-70.404
X76.66Y-130.204
X76.66Y-190.004
X76.66Y-249.804
X76.83Y-68.81
X76.83Y-128.61
X76.83Y-188.41
X76.83Y-248.21
X77.95Y-44.655
X77.95Y-104.455
X77.95Y-164.255
X77.95Y-224.055
X79.03Y-74.44
X79.03Y-134.24
X79.03Y-194.04
X79.03Y-253.84
X79.357Y-75.552
X79.357Y-135.352
X79.357Y-195.152
X79.357Y-254.952
X83.64Y-77.58
X83.64Y-137.38
X83.64Y-197.18
X83.64Y-256.98
X84.3Y-66.4
X84.3Y-126.2
X84.3Y-186.0
X84.3Y-245.8
X104.51Y-69.48
X104.51Y-129.28
X104.51Y-189.08
X104.51Y-248.88
X107.375Y-39.53
X107.375Y-99.33
X107.375Y-159.13
X107.375Y-218.93
X108.328Y-59.578
X108.328Y-119.377
X108.328Y-179.177
X108.328Y-238.977
X110.487Y-45.759
X110.487Y-105.559
X110.487Y-165.359
X110.487Y-225.159
X110.514Y-61.188
X110.514Y-120.988
X110.514Y-180.788
X110.514Y-240.588
X112.011Y-61.165
X112.011Y-120.965
X112.011Y-180.765
X112.011Y-240.565
X113.916Y-39.067
X113.916Y-98.867
X113.916Y-158.667
X113.916Y-218.467
X117.3Y-71.13
X117.3Y-130.93
X117.3Y-190.73
X117.3Y-250.53
X117.31Y-73.3
X117.31Y-133.1
X117.31Y-192.9
X117.31Y-252.7
X121.7Y-72.76
X121.7Y-132.56
X121.7Y-192.36
X121.7Y-252.16
X123.5Y-71.14
X123.5Y-130.94
X123.5Y-190.74
X123.5Y-250.54
X125.14Y-46.224
X125.14Y-106.024
X125.14Y-165.825
X125.14Y-225.624
X126.2Y-61.11
X126.2Y-61.88
X126.2Y-120.91
X126.2Y-121.68
X126.2Y-180.71
X126.2Y-181.48
X126.2Y-240.51
X126.2Y-241.28
X126.23Y-52.022
X126.23Y-111.822
X126.23Y-171.622
X126.23Y-231.422
X127.5Y-61.505
X127.5Y-121.305
X127.5Y-181.105
X127.5Y-240.905
X130.72Y-61.27
X130.72Y-121.07
X130.72Y-180.87
X130.72Y-240.67
X132.89Y-71.13
X132.89Y-130.93
X132.89Y-190.73
X132.89Y-250.53
X135.3Y-71.535
X135.3Y-131.335
X135.3Y-191.135
X135.3Y-250.935
X136.355Y-37.19
X136.355Y-96.99
X136.355Y-156.79
X136.355Y-216.59
X137.076Y-71.561
X137.076Y-131.361
X137.076Y-191.161
X137.076Y-250.961
X163.18Y-37.634
X163.18Y-97.434
X163.18Y-157.234
X163.18Y-217.034
X163.75Y-58.75
X163.75Y-118.55
X163.75Y-178.35
X163.75Y-238.15
X164.497Y-38.397
X164.497Y-98.197
X164.497Y-157.997
X164.497Y-217.797
X165.39Y-58.858
X165.39Y-118.658
X165.39Y-178.458
X165.39Y-238.258
X165.66Y-77.59
X165.66Y-137.39
X165.66Y-197.19
X165.66Y-256.99
X166.335Y-34.096
X166.335Y-93.896
X166.335Y-153.696
X166.335Y-213.496
X166.53Y-38.305
X166.53Y-98.105
X166.53Y-157.905
X166.53Y-217.705
X168.95Y-68.21
X168.95Y-128.01
X168.95Y-187.81
X168.95Y-247.61
X168.97Y-73.83
X168.97Y-133.63
X168.97Y-193.43
X168.97Y-253.23
X172.8Y-33.9
X172.8Y-93.7
X172.8Y-153.5
X172.8Y-213.3
X179.64Y-70.404
X179.64Y-130.204
X179.64Y-190.004
X179.64Y-249.804
X179.81Y-68.81
X179.81Y-128.61
X179.81Y-188.41
X179.81Y-248.21
X180.93Y-44.655
X180.93Y-104.455
X180.93Y-164.255
X180.93Y-224.055
X182.01Y-74.44
X182.01Y-134.24
X182.01Y-194.04
X182.01Y-253.84
X182.337Y-75.552
X182.337Y-135.352
X182.337Y-195.152
X182.337Y-254.952
X186.62Y-77.58
X186.62Y-137.38
X186.62Y-197.18
X186.62Y-256.98
X187.28Y-66.4
X187.28Y-126.2
X187.28Y-186.0
X187.28Y-245.8
X207.49Y-69.48
X207.49Y-129.28
X207.49Y-189.08
X207.49Y-248.88
X210.355Y-39.53
X210.355Y-99.33
X210.355Y-159.13
X210.355Y-218.93
X211.308Y-59.578
X211.308Y-119.377
X211.308Y-179.177
X211.308Y-238.977
X213.467Y-45.759
X213.467Y-105.559
X213.467Y-165.359
X213.467Y-225.159
X213.494Y-61.188
X213.494Y-120.988
X213.494Y-180.788
X213.494Y-240.588
X214.991Y-61.165
X214.991Y-120.965
X214.991Y-180.765
X214.991Y-240.565
X216.896Y-39.067
X216.896Y-98.867
X216.896Y-158.667
X216.896Y-218.467
X220.28Y-71.13
X220.28Y-130.93
X220.28Y-190.73
X220.28Y-250.53
X220.29Y-73.3
X220.29Y-133.1
X220.29Y-192.9
X220.29Y-252.7
X224.68Y-72.76
X224.68Y-132.56
X224.68Y-192.36
X224.68Y-252.16
X226.48Y-71.14
X226.48Y-130.94
X226.48Y-190.74
X226.48Y-250.54
X228.12Y-46.224
X228.12Y-106.024
X228.12Y-165.825
X228.12Y-225.624
X229.18Y-61.11
X229.18Y-61.88
X229.18Y-120.91
X229.18Y-121.68
X229.18Y-180.71
X229.18Y-181.48
X229.18Y-240.51
X229.18Y-241.28
X229.21Y-52.022
X229.21Y-111.822
X229.21Y-171.622
X229.21Y-231.422
X230.48Y-61.505
X230.48Y-121.305
X230.48Y-181.105
X230.48Y-240.905
X233.7Y-61.27
X233.7Y-121.07
X233.7Y-180.87
X233.7Y-240.67
X235.87Y-71.13
X235.87Y-130.93
X235.87Y-190.73
X235.87Y-250.53
X238.28Y-71.535
X238.28Y-131.335
X238.28Y-191.135
X238.28Y-250.935
X239.335Y-37.19
X239.335Y-96.99
X239.335Y-156.79
X239.335Y-216.59
X240.056Y-71.561
X240.056Y-131.361
X240.056Y-191.161
X240.056Y-250.961
T5
X57.1Y-64.78
X57.1Y-124.58
X57.1Y-184.38
X57.1Y-244.18
X58.402Y-64.83
X58.402Y-124.63
X58.402Y-184.43
X58.402Y-244.23
X160.08Y-64.78
X160.08Y-124.58
X160.08Y-184.38
X160.08Y-244.18
X161.382Y-64.83
X161.382Y-124.63
X161.382Y-184.43
X161.382Y-244.23
T6
X63.101Y-56.067
X63.101Y-115.867
X63.101Y-175.667
X63.101Y-235.467
X66.514Y-75.216
X66.514Y-135.016
X66.514Y-194.816
X66.514Y-254.616
X66.53Y-56.067
X66.53Y-115.867
X66.53Y-175.667
X66.53Y-235.467
X68.67Y-68.477
X68.67Y-128.277
X68.67Y-188.077
X68.67Y-247.877
X123.426Y-35.239
X123.426Y-95.039
X123.426Y-154.839
X123.426Y-214.639
X127.617Y-54.035
X127.617Y-113.835
X127.617Y-173.635
X127.617Y-233.435
X128.951Y-43.792
X128.951Y-103.592
X128.951Y-163.392
X128.951Y-223.192
X130.03Y-46.161
X130.03Y-105.961
X130.03Y-165.761
X130.03Y-225.561
X132.316Y-53.781
X132.316Y-113.581
X132.316Y-173.381
X132.316Y-233.181
X166.081Y-56.067
X166.081Y-115.867
X166.081Y-175.667
X166.081Y-235.467
X169.494Y-75.216
X169.494Y-135.016
X169.494Y-194.816
X169.494Y-254.616
X169.51Y-56.067
X169.51Y-115.867
X169.51Y-175.667
X169.51Y-235.467
X171.65Y-68.477
X171.65Y-128.277
X171.65Y-188.077
X171.65Y-247.877
X226.406Y-35.239
X226.406Y-95.039
X226.406Y-154.839
X226.406Y-214.639
X230.597Y-54.035
X230.597Y-113.835
X230.597Y-173.635
X230.597Y-233.435
X231.93Y-43.792
X231.93Y-103.592
X231.93Y-163.392
X231.93Y-223.192
X233.01Y-46.161
X233.01Y-105.961
X233.01Y-165.761
X233.01Y-225.561
X235.296Y-53.781
X235.296Y-113.581
X235.296Y-173.381
X235.296Y-233.181
T7
X56.776Y-38.155
X56.776Y-97.955
X56.776Y-157.755
X56.776Y-217.555
X56.814Y-61.464
X56.814Y-121.264
X56.814Y-181.064
X56.814Y-240.864
X57.767Y-67.37
X57.767Y-127.17
X57.767Y-186.97
X57.767Y-246.77
X62.21Y-29.94
X62.21Y-89.74
X62.21Y-149.54
X62.21Y-209.34
X62.895Y-31.534
X62.895Y-91.334
X62.895Y-151.134
X62.895Y-210.934
X70.467Y-43.875
X70.467Y-103.675
X70.467Y-163.475
X70.467Y-223.275
X71.737Y-74.609
X71.737Y-134.409
X71.737Y-194.209
X71.737Y-254.009
X72.801Y-31.383
X72.801Y-91.183
X72.801Y-150.983
X72.801Y-210.783
X73.92Y-33.4
X73.92Y-93.2
X73.92Y-153.0
X73.92Y-212.8
X74.912Y-73.974
X74.912Y-133.774
X74.912Y-193.574
X74.912Y-253.374
X76.132Y-75.213
X76.132Y-135.013
X76.132Y-194.814
X76.132Y-254.613
X79.22Y-30.2
X79.22Y-90.0
X79.22Y-149.8
X79.22Y-209.6
X93.23Y-33.08
X93.23Y-92.88
X93.23Y-152.68
X93.23Y-212.48
X103.375Y-73.611
X103.375Y-133.411
X103.375Y-193.211
X103.375Y-253.011
X104.188Y-45.736
X104.188Y-105.536
X104.188Y-165.336
X104.188Y-225.136
X105.661Y-75.389
X105.661Y-135.189
X105.661Y-194.989
X105.661Y-254.789
X107.678Y-66.354
X107.678Y-126.154
X107.678Y-185.954
X107.678Y-245.754
X114.46Y-61.449
X114.46Y-121.249
X114.46Y-181.049
X114.46Y-240.849
X114.565Y-65.215
X114.565Y-125.015
X114.565Y-184.815
X114.565Y-244.615
X115.806Y-65.211
X115.806Y-125.011
X115.806Y-184.811
X115.806Y-244.611
X116.82Y-61.6
X116.82Y-121.4
X116.82Y-181.2
X116.82Y-241.0
X119.123Y-61.546
X119.123Y-121.346
X119.123Y-181.146
X119.123Y-240.946
X120.546Y-61.562
X120.546Y-121.362
X120.546Y-181.162
X120.546Y-240.962
X120.774Y-29.923
X120.774Y-89.723
X120.774Y-149.523
X120.774Y-209.323
X122.552Y-62.943
X122.552Y-122.743
X122.552Y-182.543
X122.552Y-242.343
X125.0Y-61.54
X125.0Y-121.34
X125.0Y-181.14
X125.0Y-240.94
X129.649Y-35.112
X129.649Y-94.912
X129.649Y-154.712
X129.649Y-214.512
X131.696Y-29.923
X131.696Y-89.723
X131.696Y-149.523
X131.696Y-209.323
X132.062Y-61.147
X132.062Y-120.947
X132.062Y-180.747
X132.062Y-240.547
X133.578Y-48.861
X133.578Y-108.661
X133.578Y-168.461
X133.578Y-228.261
X133.84Y-71.434
X133.84Y-131.234
X133.84Y-191.034
X133.84Y-250.834
X136.634Y-58.48
X136.634Y-118.28
X136.634Y-178.08
X136.634Y-237.88
X137.625Y-52.176
X137.625Y-111.976
X137.625Y-171.776
X137.625Y-231.576
X159.756Y-38.155
X159.756Y-97.955
X159.756Y-157.755
X159.756Y-217.555
X159.794Y-61.464
X159.794Y-121.264
X159.794Y-181.064
X159.794Y-240.864
X160.747Y-67.37
X160.747Y-127.17
X160.747Y-186.97
X160.747Y-246.77
X165.19Y-29.94
X165.19Y-89.74
X165.19Y-149.54
X165.19Y-209.34
X165.875Y-31.534
X165.875Y-91.334
X165.875Y-151.134
X165.875Y-210.934
X173.447Y-43.875
X173.447Y-103.675
X173.447Y-163.475
X173.447Y-223.275
X174.717Y-74.609
X174.717Y-134.409
X174.717Y-194.209
X174.717Y-254.009
X175.781Y-31.383
X175.781Y-91.183
X175.781Y-150.983
X175.781Y-210.783
X176.9Y-33.4
X176.9Y-93.2
X176.9Y-153.0
X176.9Y-212.8
X177.892Y-73.974
X177.892Y-133.774
X177.892Y-193.574
X177.892Y-253.374
X179.112Y-75.213
X179.112Y-135.013
X179.112Y-194.814
X179.112Y-254.613
X182.2Y-30.2
X182.2Y-90.0
X182.2Y-149.8
X182.2Y-209.6
X196.21Y-33.08
X196.21Y-92.88
X196.21Y-152.68
X196.21Y-212.48
X206.355Y-73.611
X206.355Y-133.411
X206.355Y-193.211
X206.355Y-253.011
X207.168Y-45.736
X207.168Y-105.536
X207.168Y-165.336
X207.168Y-225.136
X208.641Y-75.389
X208.641Y-135.189
X208.641Y-194.989
X208.641Y-254.789
X210.658Y-66.354
X210.658Y-126.154
X210.658Y-185.954
X210.658Y-245.754
X217.44Y-61.449
X217.44Y-121.249
X217.44Y-181.049
X217.44Y-240.849
X217.545Y-65.215
X217.545Y-125.015
X217.545Y-184.815
X217.545Y-244.615
X218.786Y-65.211
X218.786Y-125.011
X218.786Y-184.811
X218.786Y-244.611
X219.8Y-61.6
X219.8Y-121.4
X219.8Y-181.2
X219.8Y-241.0
X222.103Y-61.546
X222.103Y-121.346
X222.103Y-181.146
X222.103Y-240.946
X223.526Y-61.562
X223.526Y-121.362
X223.526Y-181.162
X223.526Y-240.962
X223.754Y-29.923
X223.754Y-89.723
X223.754Y-149.523
X223.754Y-209.323
X225.532Y-62.943
X225.532Y-122.743
X225.532Y-182.543
X225.532Y-242.343
X227.98Y-61.54
X227.98Y-121.34
X227.98Y-181.14
X227.98Y-240.94
X232.629Y-35.112
X232.629Y-94.912
X232.629Y-154.712
X232.629Y-214.512
X234.676Y-29.923
X234.676Y-89.723
X234.676Y-149.523
X234.676Y-209.323
X235.042Y-61.147
X235.042Y-120.947
X235.042Y-180.747
X235.042Y-240.547
X236.558Y-48.861
X236.558Y-108.661
X236.558Y-168.461
X236.558Y-228.261
X236.82Y-71.434
X236.82Y-131.234
X236.82Y-191.034
X236.82Y-250.834
X239.614Y-58.48
X239.614Y-118.28
X239.614Y-178.08
X239.614Y-237.88
X240.605Y-52.176
X240.605Y-111.976
X240.605Y-171.776
X240.605Y-231.576
T8
X98.72Y-70.11
X98.72Y-129.91
X98.72Y-189.71
X98.72Y-249.51
X99.72Y-70.11
X99.72Y-129.91
X99.72Y-189.71
X99.72Y-249.51
X101.3Y-70.13
X101.3Y-129.93
X101.3Y-189.73
X101.3Y-249.53
X102.3Y-70.13
X102.3Y-129.93
X102.3Y-189.73
X102.3Y-249.53
X201.7Y-70.11
X201.7Y-129.91
X201.7Y-189.71
X201.7Y-249.51
X202.7Y-70.11
X202.7Y-129.91
X202.7Y-189.71
X202.7Y-249.51
X204.28Y-70.13
X204.28Y-129.93
X204.28Y-189.73
X204.28Y-249.53
X205.28Y-70.13
X205.28Y-129.93
X205.28Y-189.73
X205.28Y-249.53
T9
X129.41Y-61.274
X129.41Y-121.074
X129.41Y-180.874
X129.41Y-240.674
X232.39Y-61.274
X232.39Y-121.074
X232.39Y-180.874
X232.39Y-240.674
T10
X58.91Y-62.29
X58.91Y-122.09
X58.91Y-181.89
X58.91Y-241.69
X61.45Y-62.29
X61.45Y-122.09
X61.45Y-181.89
X61.45Y-241.69
X85.976Y-38.305
X85.976Y-98.105
X85.976Y-157.905
X85.976Y-217.705
X88.516Y-38.305
X88.516Y-98.105
X88.516Y-157.905
X88.516Y-217.705
X91.056Y-38.305
X91.056Y-98.105
X91.056Y-157.905
X91.056Y-217.705
X161.89Y-62.29
X161.89Y-122.09
X161.89Y-181.89
X161.89Y-241.69
X164.43Y-62.29
X164.43Y-122.09
X164.43Y-181.89
X164.43Y-241.69
X188.956Y-38.305
X188.956Y-98.105
X188.956Y-157.905
X188.956Y-217.705
X191.496Y-38.305
X191.496Y-98.105
X191.496Y-157.905
X191.496Y-217.705
X194.036Y-38.305
X194.036Y-98.105
X194.036Y-157.905
X194.036Y-217.705
T11
X51.29Y-29.27
X51.29Y-31.81
X51.29Y-34.35
X51.29Y-36.89
X51.29Y-39.43
X51.29Y-41.97
X51.29Y-44.51
X51.29Y-47.05
X51.29Y-49.59
X51.29Y-52.13
X51.29Y-54.67
X51.29Y-57.21
X51.29Y-59.75
X51.29Y-62.29
X51.29Y-64.83
X51.29Y-67.37
X51.29Y-69.91
X51.29Y-72.45
X51.29Y-74.99
X51.29Y-77.53
X51.29Y-89.07
X51.29Y-91.61
X51.29Y-94.15
X51.29Y-96.69
X51.29Y-99.23
X51.29Y-101.77
X51.29Y-104.31
X51.29Y-106.85
X51.29Y-109.39
X51.29Y-111.93
X51.29Y-114.47
X51.29Y-117.01
X51.29Y-119.55
X51.29Y-122.09
X51.29Y-124.63
X51.29Y-127.17
X51.29Y-129.71
X51.29Y-132.25
X51.29Y-134.79
X51.29Y-137.33
X51.29Y-148.87
X51.29Y-151.41
X51.29Y-153.95
X51.29Y-156.49
X51.29Y-159.03
X51.29Y-161.57
X51.29Y-164.11
X51.29Y-166.65
X51.29Y-169.19
X51.29Y-171.73
X51.29Y-174.27
X51.29Y-176.81
X51.29Y-179.35
X51.29Y-181.89
X51.29Y-184.43
X51.29Y-186.97
X51.29Y-189.51
X51.29Y-192.05
X51.29Y-194.59
X51.29Y-197.13
X51.29Y-208.67
X51.29Y-211.21
X51.29Y-213.75
X51.29Y-216.29
X51.29Y-218.83
X51.29Y-221.37
X51.29Y-223.91
X51.29Y-226.45
X51.29Y-228.99
X51.29Y-231.53
X51.29Y-234.07
X51.29Y-236.61
X51.29Y-239.15
X51.29Y-241.69
X51.29Y-244.23
X51.29Y-246.77
X51.29Y-249.31
X51.29Y-251.85
X51.29Y-254.39
X51.29Y-256.93
X53.83Y-29.27
X53.83Y-31.81
X53.83Y-34.35
X53.83Y-36.89
X53.83Y-39.43
X53.83Y-41.97
X53.83Y-44.51
X53.83Y-47.05
X53.83Y-49.59
X53.83Y-52.13
X53.83Y-54.67
X53.83Y-57.21
X53.83Y-59.75
X53.83Y-62.29
X53.83Y-64.83
X53.83Y-67.37
X53.83Y-69.91
X53.83Y-72.45
X53.83Y-74.99
X53.83Y-77.53
X53.83Y-89.07
X53.83Y-91.61
X53.83Y-94.15
X53.83Y-96.69
X53.83Y-99.23
X53.83Y-101.77
X53.83Y-104.31
X53.83Y-106.85
X53.83Y-109.39
X53.83Y-111.93
X53.83Y-114.47
X53.83Y-117.01
X53.83Y-119.55
X53.83Y-122.09
X53.83Y-124.63
X53.83Y-127.17
X53.83Y-129.71
X53.83Y-132.25
X53.83Y-134.79
X53.83Y-137.33
X53.83Y-148.87
X53.83Y-151.41
X53.83Y-153.95
X53.83Y-156.49
X53.83Y-159.03
X53.83Y-161.57
X53.83Y-164.11
X53.83Y-166.65
X53.83Y-169.19
X53.83Y-171.73
X53.83Y-174.27
X53.83Y-176.81
X53.83Y-179.35
X53.83Y-181.89
X53.83Y-184.43
X53.83Y-186.97
X53.83Y-189.51
X53.83Y-192.05
X53.83Y-194.59
X53.83Y-197.13
X53.83Y-208.67
X53.83Y-211.21
X53.83Y-213.75
X53.83Y-216.29
X53.83Y-218.83
X53.83Y-221.37
X53.83Y-223.91
X53.83Y-226.45
X53.83Y-228.99
X53.83Y-231.53
X53.83Y-234.07
X53.83Y-236.61
X53.83Y-239.15
X53.83Y-241.69
X53.83Y-244.23
X53.83Y-246.77
X53.83Y-249.31
X53.83Y-251.85
X53.83Y-254.39
X53.83Y-256.93
X86.06Y-67.37
X86.06Y-127.17
X86.06Y-186.97
X86.06Y-246.77
X88.6Y-67.37
X88.6Y-127.17
X88.6Y-186.97
X88.6Y-246.77
X91.14Y-67.37
X91.14Y-127.17
X91.14Y-186.97
X91.14Y-246.77
X93.68Y-67.37
X93.68Y-71.18
X93.68Y-73.72
X93.68Y-76.26
X93.68Y-127.17
X93.68Y-130.98
X93.68Y-133.52
X93.68Y-136.06
X93.68Y-186.97
X93.68Y-190.78
X93.68Y-193.32
X93.68Y-195.86
X93.68Y-246.77
X93.68Y-250.58
X93.68Y-253.12
X93.68Y-255.66
X96.185Y-67.37
X96.185Y-127.17
X96.185Y-186.97
X96.185Y-246.77
X96.22Y-71.18
X96.22Y-73.72
X96.22Y-76.26
X96.22Y-130.98
X96.22Y-133.52
X96.22Y-136.06
X96.22Y-190.78
X96.22Y-193.32
X96.22Y-195.86
X96.22Y-250.58
X96.22Y-253.12
X96.22Y-255.66
X98.76Y-67.37
X98.76Y-127.17
X98.76Y-186.97
X98.76Y-246.77
X101.3Y-67.37
X101.3Y-127.17
X101.3Y-186.97
X101.3Y-246.77
X103.84Y-67.37
X103.84Y-127.17
X103.84Y-186.97
X103.84Y-246.77
X140.19Y-29.27
X140.19Y-31.81
X140.19Y-34.35
X140.19Y-36.89
X140.19Y-39.43
X140.19Y-41.97
X140.19Y-44.51
X140.19Y-47.05
X140.19Y-49.59
X140.19Y-52.13
X140.19Y-54.67
X140.19Y-57.21
X140.19Y-59.75
X140.19Y-62.29
X140.19Y-64.83
X140.19Y-67.37
X140.19Y-69.91
X140.19Y-72.45
X140.19Y-74.99
X140.19Y-77.53
X140.19Y-89.07
X140.19Y-91.61
X140.19Y-94.15
X140.19Y-96.69
X140.19Y-99.23
X140.19Y-101.77
X140.19Y-104.31
X140.19Y-106.85
X140.19Y-109.39
X140.19Y-111.93
X140.19Y-114.47
X140.19Y-117.01
X140.19Y-119.55
X140.19Y-122.09
X140.19Y-124.63
X140.19Y-127.17
X140.19Y-129.71
X140.19Y-132.25
X140.19Y-134.79
X140.19Y-137.33
X140.19Y-148.87
X140.19Y-151.41
X140.19Y-153.95
X140.19Y-156.49
X140.19Y-159.03
X140.19Y-161.57
X140.19Y-164.11
X140.19Y-166.65
X140.19Y-169.19
X140.19Y-171.73
X140.19Y-174.27
X140.19Y-176.81
X140.19Y-179.35
X140.19Y-181.89
X140.19Y-184.43
X140.19Y-186.97
X140.19Y-189.51
X140.19Y-192.05
X140.19Y-194.59
X140.19Y-197.13
X140.19Y-208.67
X140.19Y-211.21
X140.19Y-213.75
X140.19Y-216.29
X140.19Y-218.83
X140.19Y-221.37
X140.19Y-223.91
X140.19Y-226.45
X140.19Y-228.99
X140.19Y-231.53
X140.19Y-234.07
X140.19Y-236.61
X140.19Y-239.15
X140.19Y-241.69
X140.19Y-244.23
X140.19Y-246.77
X140.19Y-249.31
X140.19Y-251.85
X140.19Y-254.39
X140.19Y-256.93
X142.73Y-29.27
X142.73Y-31.81
X142.73Y-34.35
X142.73Y-36.89
X142.73Y-39.43
X142.73Y-41.97
X142.73Y-44.51
X142.73Y-47.05
X142.73Y-49.59
X142.73Y-52.13
X142.73Y-54.67
X142.73Y-57.21
X142.73Y-59.75
X142.73Y-62.29
X142.73Y-64.83
X142.73Y-67.37
X142.73Y-69.91
X142.73Y-72.45
X142.73Y-74.99
X142.73Y-77.53
X142.73Y-89.07
X142.73Y-91.61
X142.73Y-94.15
X142.73Y-96.69
X142.73Y-99.23
X142.73Y-101.77
X142.73Y-104.31
X142.73Y-106.85
X142.73Y-109.39
X142.73Y-111.93
X142.73Y-114.47
X142.73Y-117.01
X142.73Y-119.55
X142.73Y-122.09
X142.73Y-124.63
X142.73Y-127.17
X142.73Y-129.71
X142.73Y-132.25
X142.73Y-134.79
X142.73Y-137.33
X142.73Y-148.87
X142.73Y-151.41
X142.73Y-153.95
X142.73Y-156.49
X142.73Y-159.03
X142.73Y-161.57
X142.73Y-164.11
X142.73Y-166.65
X142.73Y-169.19
X142.73Y-171.73
X142.73Y-174.27
X142.73Y-176.81
X142.73Y-179.35
X142.73Y-181.89
X142.73Y-184.43
X142.73Y-186.97
X142.73Y-189.51
X142.73Y-192.05
X142.73Y-194.59
X142.73Y-197.13
X142.73Y-208.67
X142.73Y-211.21
X142.73Y-213.75
X142.73Y-216.29
X142.73Y-218.83
X142.73Y-221.37
X142.73Y-223.91
X142.73Y-226.45
X142.73Y-228.99
X142.73Y-231.53
X142.73Y-234.07
X142.73Y-236.61
X142.73Y-239.15
X142.73Y-241.69
X142.73Y-244.23
X142.73Y-246.77
X142.73Y-249.31
X142.73Y-251.85
X142.73Y-254.39
X142.73Y-256.93
X154.27Y-29.27
X154.27Y-31.81
X154.27Y-34.35
X154.27Y-36.89
X154.27Y-39.43
X154.27Y-41.97
X154.27Y-44.51
X154.27Y-47.05
X154.27Y-49.59
X154.27Y-52.13
X154.27Y-54.67
X154.27Y-57.21
X154.27Y-59.75
X154.27Y-62.29
X154.27Y-64.83
X154.27Y-67.37
X154.27Y-69.91
X154.27Y-72.45
X154.27Y-74.99
X154.27Y-77.53
X154.27Y-89.07
X154.27Y-91.61
X154.27Y-94.15
X154.27Y-96.69
X154.27Y-99.23
X154.27Y-101.77
X154.27Y-104.31
X154.27Y-106.85
X154.27Y-109.39
X154.27Y-111.93
X154.27Y-114.47
X154.27Y-117.01
X154.27Y-119.55
X154.27Y-122.09
X154.27Y-124.63
X154.27Y-127.17
X154.27Y-129.71
X154.27Y-132.25
X154.27Y-134.79
X154.27Y-137.33
X154.27Y-148.87
X154.27Y-151.41
X154.27Y-153.95
X154.27Y-156.49
X154.27Y-159.03
X154.27Y-161.57
X154.27Y-164.11
X154.27Y-166.65
X154.27Y-169.19
X154.27Y-171.73
X154.27Y-174.27
X154.27Y-176.81
X154.27Y-179.35
X154.27Y-181.89
X154.27Y-184.43
X154.27Y-186.97
X154.27Y-189.51
X154.27Y-192.05
X154.27Y-194.59
X154.27Y-197.13
X154.27Y-208.67
X154.27Y-211.21
X154.27Y-213.75
X154.27Y-216.29
X154.27Y-218.83
X154.27Y-221.37
X154.27Y-223.91
X154.27Y-226.45
X154.27Y-228.99
X154.27Y-231.53
X154.27Y-234.07
X154.27Y-236.61
X154.27Y-239.15
X154.27Y-241.69
X154.27Y-244.23
X154.27Y-246.77
X154.27Y-249.31
X154.27Y-251.85
X154.27Y-254.39
X154.27Y-256.93
X156.81Y-29.27
X156.81Y-31.81
X156.81Y-34.35
X156.81Y-36.89
X156.81Y-39.43
X156.81Y-41.97
X156.81Y-44.51
X156.81Y-47.05
X156.81Y-49.59
X156.81Y-52.13
X156.81Y-54.67
X156.81Y-57.21
X156.81Y-59.75
X156.81Y-62.29
X156.81Y-64.83
X156.81Y-67.37
X156.81Y-69.91
X156.81Y-72.45
X156.81Y-74.99
X156.81Y-77.53
X156.81Y-89.07
X156.81Y-91.61
X156.81Y-94.15
X156.81Y-96.69
X156.81Y-99.23
X156.81Y-101.77
X156.81Y-104.31
X156.81Y-106.85
X156.81Y-109.39
X156.81Y-111.93
X156.81Y-114.47
X156.81Y-117.01
X156.81Y-119.55
X156.81Y-122.09
X156.81Y-124.63
X156.81Y-127.17
X156.81Y-129.71
X156.81Y-132.25
X156.81Y-134.79
X156.81Y-137.33
X156.81Y-148.87
X156.81Y-151.41
X156.81Y-153.95
X156.81Y-156.49
X156.81Y-159.03
X156.81Y-161.57
X156.81Y-164.11
X156.81Y-166.65
X156.81Y-169.19
X156.81Y-171.73
X156.81Y-174.27
X156.81Y-176.81
X156.81Y-179.35
X156.81Y-181.89
X156.81Y-184.43
X156.81Y-186.97
X156.81Y-189.51
X156.81Y-192.05
X156.81Y-194.59
X156.81Y-197.13
X156.81Y-208.67
X156.81Y-211.21
X156.81Y-213.75
X156.81Y-216.29
X156.81Y-218.83
X156.81Y-221.37
X156.81Y-223.91
X156.81Y-226.45
X156.81Y-228.99
X156.81Y-231.53
X156.81Y-234.07
X156.81Y-236.61
X156.81Y-239.15
X156.81Y-241.69
X156.81Y-244.23
X156.81Y-246.77
X156.81Y-249.31
X156.81Y-251.85
X156.81Y-254.39
X156.81Y-256.93
X189.04Y-67.37
X189.04Y-127.17
X189.04Y-186.97
X189.04Y-246.77
X191.58Y-67.37
X191.58Y-127.17
X191.58Y-186.97
X191.58Y-246.77
X194.12Y-67.37
X194.12Y-127.17
X194.12Y-186.97
X194.12Y-246.77
X196.66Y-67.37
X196.66Y-71.18
X196.66Y-73.72
X196.66Y-76.26
X196.66Y-127.17
X196.66Y-130.98
X196.66Y-133.52
X196.66Y-136.06
X196.66Y-186.97
X196.66Y-190.78
X196.66Y-193.32
X196.66Y-195.86
X196.66Y-246.77
X196.66Y-250.58
X196.66Y-253.12
X196.66Y-255.66
X199.165Y-67.37
X199.165Y-127.17
X199.165Y-186.97
X199.165Y-246.77
X199.2Y-71.18
X199.2Y-73.72
X199.2Y-76.26
X199.2Y-130.98
X199.2Y-133.52
X199.2Y-136.06
X199.2Y-190.78
X199.2Y-193.32
X199.2Y-195.86
X199.2Y-250.58
X199.2Y-253.12
X199.2Y-255.66
X201.74Y-67.37
X201.74Y-127.17
X201.74Y-186.97
X201.74Y-246.77
X204.28Y-67.37
X204.28Y-127.17
X204.28Y-186.97
X204.28Y-246.77
X206.82Y-67.37
X206.82Y-127.17
X206.82Y-186.97
X206.82Y-246.77
X243.17Y-29.27
X243.17Y-31.81
X243.17Y-34.35
X243.17Y-36.89
X243.17Y-39.43
X243.17Y-41.97
X243.17Y-44.51
X243.17Y-47.05
X243.17Y-49.59
X243.17Y-52.13
X243.17Y-54.67
X243.17Y-57.21
X243.17Y-59.75
X243.17Y-62.29
X243.17Y-64.83
X243.17Y-67.37
X243.17Y-69.91
X243.17Y-72.45
X243.17Y-74.99
X243.17Y-77.53
X243.17Y-89.07
X243.17Y-91.61
X243.17Y-94.15
X243.17Y-96.69
X243.17Y-99.23
X243.17Y-101.77
X243.17Y-104.31
X243.17Y-106.85
X243.17Y-109.39
X243.17Y-111.93
X243.17Y-114.47
X243.17Y-117.01
X243.17Y-119.55
X243.17Y-122.09
X243.17Y-124.63
X243.17Y-127.17
X243.17Y-129.71
X243.17Y-132.25
X243.17Y-134.79
X243.17Y-137.33
X243.17Y-148.87
X243.17Y-151.41
X243.17Y-153.95
X243.17Y-156.49
X243.17Y-159.03
X243.17Y-161.57
X243.17Y-164.11
X243.17Y-166.65
X243.17Y-169.19
X243.17Y-171.73
X243.17Y-174.27
X243.17Y-176.81
X243.17Y-179.35
X243.17Y-181.89
X243.17Y-184.43
X243.17Y-186.97
X243.17Y-189.51
X243.17Y-192.05
X243.17Y-194.59
X243.17Y-197.13
X243.17Y-208.67
X243.17Y-211.21
X243.17Y-213.75
X243.17Y-216.29
X243.17Y-218.83
X243.17Y-221.37
X243.17Y-223.91
X243.17Y-226.45
X243.17Y-228.99
X243.17Y-231.53
X243.17Y-234.07
X243.17Y-236.61
X243.17Y-239.15
X243.17Y-241.69
X243.17Y-244.23
X243.17Y-246.77
X243.17Y-249.31
X243.17Y-251.85
X243.17Y-254.39
X243.17Y-256.93
X245.71Y-29.27
X245.71Y-31.81
X245.71Y-34.35
X245.71Y-36.89
X245.71Y-39.43
X245.71Y-41.97
X245.71Y-44.51
X245.71Y-47.05
X245.71Y-49.59
X245.71Y-52.13
X245.71Y-54.67
X245.71Y-57.21
X245.71Y-59.75
X245.71Y-62.29
X245.71Y-64.83
X245.71Y-67.37
X245.71Y-69.91
X245.71Y-72.45
X245.71Y-74.99
X245.71Y-77.53
X245.71Y-89.07
X245.71Y-91.61
X245.71Y-94.15
X245.71Y-96.69
X245.71Y-99.23
X245.71Y-101.77
X245.71Y-104.31
X245.71Y-106.85
X245.71Y-109.39
X245.71Y-111.93
X245.71Y-114.47
X245.71Y-117.01
X245.71Y-119.55
X245.71Y-122.09
X245.71Y-124.63
X245.71Y-127.17
X245.71Y-129.71
X245.71Y-132.25
X245.71Y-134.79
X245.71Y-137.33
X245.71Y-148.87
X245.71Y-151.41
X245.71Y-153.95
X245.71Y-156.49
X245.71Y-159.03
X245.71Y-161.57
X245.71Y-164.11
X245.71Y-166.65
X245.71Y-169.19
X245.71Y-171.73
X245.71Y-174.27
X245.71Y-176.81
X245.71Y-179.35
X245.71Y-181.89
X245.71Y-184.43
X245.71Y-186.97
X245.71Y-189.51
X245.71Y-192.05
X245.71Y-194.59
X245.71Y-197.13
X245.71Y-208.67
X245.71Y-211.21
X245.71Y-213.75
X245.71Y-216.29
X245.71Y-218.83
X245.71Y-221.37
X245.71Y-223.91
X245.71Y-226.45
X245.71Y-228.99
X245.71Y-231.53
X245.71Y-234.07
X245.71Y-236.61
X245.71Y-239.15
X245.71Y-241.69
X245.71Y-244.23
X245.71Y-246.77
X245.71Y-249.31
X245.71Y-251.85
X245.71Y-254.39
X245.71Y-256.93
T12
X93.366Y-30.992
X93.366Y-90.792
X93.366Y-150.592
X93.366Y-210.392
X93.966Y-35.892
X93.966Y-95.692
X93.966Y-155.492
X93.966Y-215.292
X108.466Y-35.892
X108.466Y-95.692
X108.466Y-155.492
X108.466Y-215.292
X109.066Y-30.992
X109.066Y-90.792
X109.066Y-150.592
X109.066Y-210.392
X196.346Y-30.992
X196.346Y-90.792
X196.346Y-150.592
X196.346Y-210.392
X196.946Y-35.892
X196.946Y-95.692
X196.946Y-155.492
X196.946Y-215.292
X211.446Y-35.892
X211.446Y-95.692
X211.446Y-155.492
X211.446Y-215.292
X212.046Y-30.992
X212.046Y-90.792
X212.046Y-150.592
X212.046Y-210.392
T13
X58.91Y-31.81
X58.91Y-74.99
X58.91Y-91.61
X58.91Y-134.79
X58.91Y-151.41
X58.91Y-194.59
X58.91Y-211.21
X58.91Y-254.39
X135.11Y-31.81
X135.11Y-74.99
X135.11Y-91.61
X135.11Y-134.79
X135.11Y-151.41
X135.11Y-194.59
X135.11Y-211.21
X135.11Y-254.39
X161.89Y-31.81
X161.89Y-74.99
X161.89Y-91.61
X161.89Y-134.79
X161.89Y-151.41
X161.89Y-194.59
X161.89Y-211.21
X161.89Y-254.39
X238.09Y-31.81
X238.09Y-74.99
X238.09Y-91.61
X238.09Y-134.79
X238.09Y-151.41
X238.09Y-194.59
X238.09Y-211.21
X238.09Y-254.39
T0
M30
